<?xml version="1.0" encoding="UTF-8" standalone="no"?><!DOCTYPE svg PUBLIC "-//W3C//DTD SVG 1.1//EN" "http://www.w3.org/Graphics/SVG/1.1/DTD/svg11.dtd"><svg width="100%" height="100%" viewBox="0 0 1250 1250" version="1.1" xmlns="http://www.w3.org/2000/svg" xmlns:xlink="http://www.w3.org/1999/xlink" xml:space="preserve" xmlns:serif="http://www.serif.com/" style="fill-rule:evenodd;clip-rule:evenodd;stroke-linecap:round;"><g id="Base"><path id="path26036" d="M597.58,719.976l-29.942,-11.603" style="fill:none;fill-rule:nonzero;stroke:#000;stroke-width:3.75px;"/><path id="path26038" d="M625.983,692.443l-28.403,27.533" style="fill:none;fill-rule:nonzero;stroke:#000;stroke-width:3.75px;"/><path id="path26040" d="M624.854,653.186l1.129,39.257" style="fill:none;fill-rule:nonzero;stroke:#000;stroke-width:3.75px;"/><path id="path26042" d="M595.097,641.11l29.757,12.076" style="fill:none;fill-rule:nonzero;stroke:#000;stroke-width:3.75px;"/><path id="path26044" d="M566.283,668.762l28.814,-27.652" style="fill:none;fill-rule:nonzero;stroke:#000;stroke-width:3.75px;"/><path id="path26046" d="M567.638,708.373l-1.355,-39.611" style="fill:none;fill-rule:nonzero;stroke:#000;stroke-width:3.75px;"/><path id="path26048" d="M593.937,604.264l-8.248,2.73l-8.099,3.927l-7.816,5.064l-7.403,6.121l-6.865,7.08l-6.213,7.924l-5.456,8.636l-4.609,9.208l-3.683,9.625l-2.697,9.881l-1.668,9.974l-0.611,9.901l0.453,9.666l1.506,9.267l2.533,8.724l3.512,8.033l4.431,7.219l5.274,6.285l6.027,5.262l6.679,4.151l2.038,0.982" style="fill:none;fill-rule:nonzero;stroke:#000;stroke-width:3.75px;"/><path id="path26050" d="M585.213,589.706l-7.47,-2.276l-7.844,-1.072l-8.094,0.223l-8.211,1.407l-8.198,2.631l-8.048,3.817l-7.767,4.945l-7.355,5.991l-6.822,6.942l-6.174,7.783l-5.422,8.493l-4.58,9.065l-3.66,9.484l-2.681,9.748l-1.656,9.848l-0.607,9.784l0.448,9.56l1.496,9.178l2.515,8.646l3.49,7.975l4.403,7.174l5.24,6.261l5.99,5.252l6.638,4.163l2.25,1.094" style="fill:none;fill-rule:nonzero;stroke:#000;stroke-width:3.75px;"/><path id="path26052" d="M625.982,605.878l-24.852,-2.984l-7.193,1.361" style="fill:none;fill-rule:nonzero;stroke:#000;stroke-width:3.75px;"/><path id="path26054" d="M563.024,753.929l7.356,2.636l7.745,1.429l8.009,0.225l8.146,-1.05l8.154,-2.254l8.034,-3.426l7.791,-4.536l7.427,-5.572l6.95,-6.52l6.146,-7.082" style="fill:none;fill-rule:nonzero;stroke:#000;stroke-width:3.75px;"/><path id="path26056" d="M659.158,681.885l1.19,-9.715l0.179,-9.593l-0.835,-9.326l-1.842,-8.909l-2.82,-8.355l-3.76,-7.669l-4.645,-6.857l-5.46,-5.938l-6.194,-4.915l-6.831,-3.812l-2.157,-0.916" style="fill:none;fill-rule:nonzero;stroke:#000;stroke-width:3.75px;"/><path id="path26058" d="M561.077,557.773l6.124,-0.535" style="fill:none;fill-rule:nonzero;stroke:#000;stroke-width:3.75px;"/><path id="path26060" d="M567.201,557.227l4.499,21.904" style="fill:none;fill-rule:nonzero;stroke:#000;stroke-width:3.75px;"/><path id="path26062" d="M571.7,579.131l3.429,0.335" style="fill:none;fill-rule:nonzero;stroke:#000;stroke-width:3.75px;"/><path id="path26064" d="M575.129,579.465l13.142,-20.082" style="fill:none;fill-rule:nonzero;stroke:#000;stroke-width:3.75px;"/><path id="path26066" d="M588.271,559.383l5.584,1.741" style="fill:none;fill-rule:nonzero;stroke:#000;stroke-width:3.75px;"/><path id="path26068" d="M593.855,561.122l-1.71,23.549" style="fill:none;fill-rule:nonzero;stroke:#000;stroke-width:3.75px;"/><path id="path26070" d="M592.144,584.671l2.962,1.607" style="fill:none;fill-rule:nonzero;stroke:#000;stroke-width:3.75px;"/><path id="path26072" d="M595.106,586.287l16.904,-15.154" style="fill:none;fill-rule:nonzero;stroke:#000;stroke-width:3.75px;"/><path id="path26074" d="M612.01,571.133l4.508,3.819" style="fill:none;fill-rule:nonzero;stroke:#000;stroke-width:3.75px;"/><path id="path26076" d="M616.518,574.952l-7.636,22.89" style="fill:none;fill-rule:nonzero;stroke:#000;stroke-width:3.75px;"/><path id="path26078" d="M608.882,597.842l1.505,1.853" style="fill:none;fill-rule:nonzero;stroke:#000;stroke-width:3.75px;"/><path id="path26080" d="M611.781,600.244l18.269,-8.524" style="fill:none;fill-rule:nonzero;stroke:#000;stroke-width:3.75px;"/><path id="path26082" d="M630.051,591.72l3.017,5.495" style="fill:none;fill-rule:nonzero;stroke:#000;stroke-width:3.75px;"/><path id="path26084" d="M633.068,597.215l-5.823,9.185" style="fill:none;fill-rule:nonzero;stroke:#000;stroke-width:3.75px;"/><path id="path26086" d="M578.294,758.003l-5.862,2.924" style="fill:none;fill-rule:nonzero;stroke:#000;stroke-width:3.75px;"/><path id="path26088" d="M572.432,760.927l-2.68,-4.534" style="fill:none;fill-rule:nonzero;stroke:#000;stroke-width:3.75px;"/><path id="path26090" d="M556.717,751.063l-5.742,16.553" style="fill:none;fill-rule:nonzero;stroke:#000;stroke-width:3.75px;"/><path id="path26092" d="M550.975,767.616l-6.053,0.782" style="fill:none;fill-rule:nonzero;stroke:#000;stroke-width:3.75px;"/><path id="path26094" d="M544.922,768.398l-4.524,-21.154" style="fill:none;fill-rule:nonzero;stroke:#000;stroke-width:3.75px;"/><path id="path26096" d="M540.398,747.244l-3.429,-0.225" style="fill:none;fill-rule:nonzero;stroke:#000;stroke-width:3.75px;"/><path id="path26098" d="M536.969,747.027l-13.114,20.141" style="fill:none;fill-rule:nonzero;stroke:#000;stroke-width:3.75px;"/><path id="path26100" d="M523.855,767.168l-5.652,-1.473" style="fill:none;fill-rule:nonzero;stroke:#000;stroke-width:3.75px;"/><path id="path26102" d="M518.203,765.695l1.587,-23.235" style="fill:none;fill-rule:nonzero;stroke:#000;stroke-width:3.75px;"/><path id="path26104" d="M519.79,742.46l-3.022,-1.495" style="fill:none;fill-rule:nonzero;stroke:#000;stroke-width:3.75px;"/><path id="path26106" d="M516.768,740.956l-17.183,15.58" style="fill:none;fill-rule:nonzero;stroke:#000;stroke-width:3.75px;"/><path id="path26108" d="M499.585,756.536l-4.689,-3.622" style="fill:none;fill-rule:nonzero;stroke:#000;stroke-width:3.75px;"/><path id="path26110" d="M494.896,752.914l7.661,-23.047" style="fill:none;fill-rule:nonzero;stroke:#000;stroke-width:3.75px;"/><path id="path26112" d="M502.557,729.867l-2.312,-2.663" style="fill:none;fill-rule:nonzero;stroke:#000;stroke-width:3.75px;"/><path id="path26114" d="M500.245,727.204l-19.634,9.395" style="fill:none;fill-rule:nonzero;stroke:#000;stroke-width:3.75px;"/><path id="path26116" d="M480.611,736.599l-3.241,-5.447" style="fill:none;fill-rule:nonzero;stroke:#000;stroke-width:3.75px;"/><path id="path26118" d="M477.37,731.152l13.084,-20.54" style="fill:none;fill-rule:nonzero;stroke:#000;stroke-width:3.75px;"/><path id="path26120" d="M490.454,710.612l-1.361,-3.569" style="fill:none;fill-rule:nonzero;stroke:#000;stroke-width:3.75px;"/><path id="path26122" d="M489.092,707.043l-20.168,2.165" style="fill:none;fill-rule:nonzero;stroke:#000;stroke-width:3.75px;"/><path id="path26124" d="M468.924,709.21l-1.444,-6.745" style="fill:none;fill-rule:nonzero;stroke:#000;stroke-width:3.75px;"/><path id="path26126" d="M467.479,702.465l17.278,-15.911" style="fill:none;fill-rule:nonzero;stroke:#000;stroke-width:3.75px;"/><path id="path26128" d="M484.757,686.554l-0.263,-4.125" style="fill:none;fill-rule:nonzero;stroke:#000;stroke-width:3.75px;"/><path id="path26130" d="M484.494,682.429l-18.685,-5.372" style="fill:none;fill-rule:nonzero;stroke:#000;stroke-width:3.75px;"/><path id="path26132" d="M465.809,677.057l0.521,-7.369" style="fill:none;fill-rule:nonzero;stroke:#000;stroke-width:3.75px;"/><path id="path26134" d="M466.33,669.688l19.773,-9.6" style="fill:none;fill-rule:nonzero;stroke:#000;stroke-width:3.75px;"/><path id="path26136" d="M486.103,660.088l0.869,-4.266" style="fill:none;fill-rule:nonzero;stroke:#000;stroke-width:3.75px;"/><path id="path26138" d="M486.972,655.822l-15.302,-12.428" style="fill:none;fill-rule:nonzero;stroke:#000;stroke-width:3.75px;"/><path id="path26140" d="M471.671,643.394l2.446,-7.235" style="fill:none;fill-rule:nonzero;stroke:#000;stroke-width:3.75px;"/><path id="path26142" d="M474.117,636.159l20.277,-2.265" style="fill:none;fill-rule:nonzero;stroke:#000;stroke-width:3.75px;"/><path id="path26144" d="M494.394,633.894l1.918,-3.969" style="fill:none;fill-rule:nonzero;stroke:#000;stroke-width:3.75px;"/><path id="path26146" d="M496.312,629.925l-10.367,-18.239" style="fill:none;fill-rule:nonzero;stroke:#000;stroke-width:3.75px;"/><path id="path26148" d="M485.945,611.686l4.122,-6.355" style="fill:none;fill-rule:nonzero;stroke:#000;stroke-width:3.75px;"/><path id="path26150" d="M490.067,605.331l18.729,5.319" style="fill:none;fill-rule:nonzero;stroke:#000;stroke-width:3.75px;"/><path id="path26152" d="M508.796,610.65l2.768,-3.267" style="fill:none;fill-rule:nonzero;stroke:#000;stroke-width:3.75px;"/><path id="path26154" d="M511.564,607.383l-4.405,-22.179" style="fill:none;fill-rule:nonzero;stroke:#000;stroke-width:3.75px;"/><path id="path26156" d="M507.159,585.204l5.367,-4.824" style="fill:none;fill-rule:nonzero;stroke:#000;stroke-width:3.75px;"/><path id="path26158" d="M512.526,580.38l15.299,12.335" style="fill:none;fill-rule:nonzero;stroke:#000;stroke-width:3.75px;"/><path id="path26160" d="M527.825,592.715l3.335,-2.239" style="fill:none;fill-rule:nonzero;stroke:#000;stroke-width:3.75px;"/><path id="path26162" d="M531.16,590.476l1.937,-23.843" style="fill:none;fill-rule:nonzero;stroke:#000;stroke-width:3.75px;"/><path id="path26164" d="M533.096,566.633l6.056,-2.817" style="fill:none;fill-rule:nonzero;stroke:#000;stroke-width:3.75px;"/><path id="path26166" d="M539.152,563.816l10.375,18.053" style="fill:none;fill-rule:nonzero;stroke:#000;stroke-width:3.75px;"/><path id="path26168" d="M549.527,581.869l3.56,-0.982" style="fill:none;fill-rule:nonzero;stroke:#000;stroke-width:3.75px;"/><path id="path26170" d="M553.087,580.876l7.99,-23.103" style="fill:none;fill-rule:nonzero;stroke:#000;stroke-width:3.75px;"/><path id="path26172" d="M417.355,614.104l30.131,16.254l24.185,13.036" style="fill:none;fill-rule:nonzero;stroke:#000;stroke-width:3.75px;"/><path id="path26174" d="M417.355,614.104l2.678,-7.007" style="fill:none;fill-rule:nonzero;stroke:#000;stroke-width:3.75px;"/><path id="path26176" d="M420.033,607.097l30.002,16.125l24.082,12.937" style="fill:none;fill-rule:nonzero;stroke:#000;stroke-width:3.75px;"/><path id="path26178" d="M432.58,583.633l29.604,15.558l23.761,12.495" style="fill:none;fill-rule:nonzero;stroke:#000;stroke-width:3.75px;"/><path id="path26180" d="M432.58,583.633l4.288,-6.027" style="fill:none;fill-rule:nonzero;stroke:#000;stroke-width:3.75px;"/><path id="path26182" d="M436.868,577.606l29.512,15.373l23.687,12.352" style="fill:none;fill-rule:nonzero;stroke:#000;stroke-width:3.75px;"/><path id="path26184" d="M420.033,607.097l19.992,-0.938" style="fill:none;fill-rule:nonzero;stroke:#000;stroke-width:3.75px;"/><path id="path26186" d="M440.025,606.155l30.167,15.391l24.202,12.348" style="fill:none;fill-rule:nonzero;stroke:#000;stroke-width:3.75px;"/><path id="path26188" d="M431.901,627.394l30.557,15.783l24.514,12.645" style="fill:none;fill-rule:nonzero;stroke:#000;stroke-width:3.75px;"/><path id="path26190" d="M431.901,627.394l-14.546,-13.29" style="fill:none;fill-rule:nonzero;stroke:#000;stroke-width:3.75px;"/><path id="path26192" d="M442.058,602.349l30.103,15.299l24.151,12.277" style="fill:none;fill-rule:nonzero;stroke:#000;stroke-width:3.75px;"/><path id="path26194" d="M442.058,602.349l-9.478,-18.716" style="fill:none;fill-rule:nonzero;stroke:#000;stroke-width:3.75px;"/><path id="path26196" d="M436.868,577.606l18.177,6.464" style="fill:none;fill-rule:nonzero;stroke:#000;stroke-width:3.75px;"/><path id="path26198" d="M455.045,584.07l29.825,14.739l23.926,11.841" style="fill:none;fill-rule:nonzero;stroke:#000;stroke-width:3.75px;"/><path id="path26200" d="M411.103,639.804l30.638,16.596l24.589,13.288" style="fill:none;fill-rule:nonzero;stroke:#000;stroke-width:3.75px;"/><path id="path26202" d="M411.103,639.804l19.782,-8.243" style="fill:none;fill-rule:nonzero;stroke:#000;stroke-width:3.75px;"/><path id="path26204" d="M430.885,631.561l30.639,15.837l24.579,12.69" style="fill:none;fill-rule:nonzero;stroke:#000;stroke-width:3.75px;"/><path id="path26206" d="M410.308,647.072l30.791,16.652l24.71,13.333" style="fill:none;fill-rule:nonzero;stroke:#000;stroke-width:3.75px;"/><path id="path26208" d="M410.308,647.072l0.795,-7.268" style="fill:none;fill-rule:nonzero;stroke:#000;stroke-width:3.75px;"/><path id="path26210" d="M454.405,558.789l29.268,14.638l23.486,11.777" style="fill:none;fill-rule:nonzero;stroke:#000;stroke-width:3.75px;"/><path id="path26212" d="M454.405,558.789l5.45,-4.428" style="fill:none;fill-rule:nonzero;stroke:#000;stroke-width:3.75px;"/><path id="path26214" d="M459.855,554.361l29.224,14.417l23.447,11.602" style="fill:none;fill-rule:nonzero;stroke:#000;stroke-width:3.75px;"/><path id="path26216" d="M457.886,581.012l29.786,14.621l23.892,11.75" style="fill:none;fill-rule:nonzero;stroke:#000;stroke-width:3.75px;"/><path id="path26218" d="M457.886,581.012l-3.481,-22.223" style="fill:none;fill-rule:nonzero;stroke:#000;stroke-width:3.75px;"/><path id="path26220" d="M567.585,706.835l29.995,13.141" style="fill:none;fill-rule:nonzero;stroke:#000;stroke-width:3.75px;"/><path id="path26222" d="M410.972,672.36l31.353,16.73l25.154,13.375" style="fill:none;fill-rule:nonzero;stroke:#000;stroke-width:3.75px;"/><path id="path26224" d="M410.972,672.36l17.579,-14.661" style="fill:none;fill-rule:nonzero;stroke:#000;stroke-width:3.75px;"/><path id="path26226" d="M428.551,657.699l29.109,14.962" style="fill:none;fill-rule:nonzero;stroke:#000;stroke-width:3.75px;"/><path id="path26228" d="M466.767,677.333l17.99,9.221" style="fill:none;fill-rule:nonzero;stroke:#000;stroke-width:3.75px;"/><path id="path26230" d="M440.025,606.155l2.033,-3.806" style="fill:none;fill-rule:nonzero;stroke:#000;stroke-width:3.75px;"/><path id="path26232" d="M430.885,631.561l1.016,-4.167" style="fill:none;fill-rule:nonzero;stroke:#000;stroke-width:3.75px;"/><path id="path26234" d="M412.131,679.139l31.514,16.714l25.279,13.357" style="fill:none;fill-rule:nonzero;stroke:#000;stroke-width:3.75px;"/><path id="path26236" d="M412.131,679.139l-1.158,-6.779" style="fill:none;fill-rule:nonzero;stroke:#000;stroke-width:3.75px;"/><path id="path26238" d="M455.045,584.07l2.841,-3.058" style="fill:none;fill-rule:nonzero;stroke:#000;stroke-width:3.75px;"/><path id="path26240" d="M516.602,583.664l14.558,6.812" style="fill:none;fill-rule:nonzero;stroke:#000;stroke-width:3.75px;"/><path id="path26242" d="M478.021,563.323l2.536,-21.244" style="fill:none;fill-rule:nonzero;stroke:#000;stroke-width:3.75px;"/><path id="path26244" d="M480.557,542.079l29.155,13.598l23.384,10.956" style="fill:none;fill-rule:nonzero;stroke:#000;stroke-width:3.75px;"/><path id="path26246" d="M428.551,657.699l-0.017,-0.759" style="fill:none;fill-rule:nonzero;stroke:#000;stroke-width:3.75px;"/><path id="path26248" d="M480.557,542.079l6.046,-2.395" style="fill:none;fill-rule:nonzero;stroke:#000;stroke-width:3.75px;"/><path id="path26250" d="M486.603,539.684l29.162,13.364l23.387,10.768" style="fill:none;fill-rule:nonzero;stroke:#000;stroke-width:3.75px;"/><path id="path26252" d="M419.586,701.44l32.069,16.523l25.715,13.189" style="fill:none;fill-rule:nonzero;stroke:#000;stroke-width:3.75px;"/><path id="path26254" d="M419.586,701.44l9.351,-13.388" style="fill:none;fill-rule:nonzero;stroke:#000;stroke-width:3.75px;"/><path id="path26256" d="M484.342,707.554l6.112,3.058" style="fill:none;fill-rule:nonzero;stroke:#000;stroke-width:3.75px;"/><path id="path26258" d="M567.504,667.59l58.479,24.853" style="fill:none;fill-rule:nonzero;stroke:#000;stroke-width:3.75px;"/><path id="path26260" d="M422.562,707.05l32.219,16.435l25.83,13.114" style="fill:none;fill-rule:nonzero;stroke:#000;stroke-width:3.75px;"/><path id="path26262" d="M422.562,707.05l-2.976,-5.61" style="fill:none;fill-rule:nonzero;stroke:#000;stroke-width:3.75px;"/><path id="path26264" d="M547.56,578.445l5.527,2.431" style="fill:none;fill-rule:nonzero;stroke:#000;stroke-width:3.75px;"/><path id="path26266" d="M503.534,547.443l4.806,-12.33" style="fill:none;fill-rule:nonzero;stroke:#000;stroke-width:3.75px;"/><path id="path26268" d="M508.34,535.113l29.273,12.544l23.464,10.116" style="fill:none;fill-rule:nonzero;stroke:#000;stroke-width:3.75px;"/><path id="path26270" d="M508.34,535.113l6.028,-0.224" style="fill:none;fill-rule:nonzero;stroke:#000;stroke-width:3.75px;"/><path id="path26272" d="M514.368,534.961l29.328,12.326l23.505,9.94" style="fill:none;fill-rule:nonzero;stroke:#000;stroke-width:3.75px;"/><path id="path26274" d="M435.974,724.155l32.71,15.999l26.212,12.76" style="fill:none;fill-rule:nonzero;stroke:#000;stroke-width:3.75px;"/><path id="path26276" d="M435.974,724.155l3.236,-8.612" style="fill:none;fill-rule:nonzero;stroke:#000;stroke-width:3.75px;"/><path id="path26278" d="M498.631,727.976l3.926,1.897" style="fill:none;fill-rule:nonzero;stroke:#000;stroke-width:3.75px;"/><path id="path26280" d="M440.443,728.05l32.834,15.85l26.308,12.636" style="fill:none;fill-rule:nonzero;stroke:#000;stroke-width:3.75px;"/><path id="path26282" d="M440.443,728.05l-4.469,-3.895" style="fill:none;fill-rule:nonzero;stroke:#000;stroke-width:3.75px;"/><path id="path26284" d="M571.461,577.961l3.668,1.495" style="fill:none;fill-rule:nonzero;stroke:#000;stroke-width:3.75px;"/><path id="path26286" d="M534.959,538.443l29.601,11.592l23.711,9.348" style="fill:none;fill-rule:nonzero;stroke:#000;stroke-width:3.75px;"/><path id="path26288" d="M532.109,542.416l2.85,-3.973" style="fill:none;fill-rule:nonzero;stroke:#000;stroke-width:3.75px;"/><path id="path26290" d="M541.327,540.885l28.743,11.038l23.785,9.199" style="fill:none;fill-rule:nonzero;stroke:#000;stroke-width:3.75px;"/><path id="path26292" d="M540.372,540.519l0.956,0.357" style="fill:none;fill-rule:nonzero;stroke:#000;stroke-width:3.75px;"/><path id="path26294" d="M534.959,538.443l4.602,1.764" style="fill:none;fill-rule:nonzero;stroke:#000;stroke-width:3.75px;"/><path id="path26296" d="M516.68,741.036l3.11,1.429" style="fill:none;fill-rule:nonzero;stroke:#000;stroke-width:3.75px;"/><path id="path26298" d="M458.392,738.338l33.213,15.227l26.598,12.13" style="fill:none;fill-rule:nonzero;stroke:#000;stroke-width:3.75px;"/><path id="path26300" d="M458.392,738.338l0.156,-1.541" style="fill:none;fill-rule:nonzero;stroke:#000;stroke-width:3.75px;"/><path id="path26302" d="M593.614,564.468l18.396,6.665" style="fill:none;fill-rule:nonzero;stroke:#000;stroke-width:3.75px;"/><path id="path26304" d="M527.783,761.139l17.139,7.259" style="fill:none;fill-rule:nonzero;stroke:#000;stroke-width:3.75px;"/><path id="path26306" d="M612.865,585.91l17.186,5.81" style="fill:none;fill-rule:nonzero;stroke:#000;stroke-width:3.75px;"/><path id="path26308" d="M555.589,754.317l16.843,6.61" style="fill:none;fill-rule:nonzero;stroke:#000;stroke-width:3.75px;"/><path id="path26310" d="M427.478,658.595l-3.528,-4.094" style="fill:none;fill-rule:nonzero;stroke:#000;stroke-width:3.75px;"/><path id="path26312" d="M416.88,637.398l0.111,-18.397l0.945,-4.371" style="fill:none;fill-rule:nonzero;stroke:#000;stroke-width:3.75px;"/><path id="path26314" d="M420.413,607.079l9.884,-16.33l3.84,-4.043" style="fill:none;fill-rule:nonzero;stroke:#000;stroke-width:3.75px;"/><path id="path26316" d="M443.212,579.863l10.918,-4.467" style="fill:none;fill-rule:nonzero;stroke:#000;stroke-width:3.75px;"/><path id="path26318" d="M454.13,575.396l2.788,-0.558" style="fill:none;fill-rule:nonzero;stroke:#000;stroke-width:3.75px;"/><path id="path26320" d="M1120.84,789.612l8.059,4.069l7.279,5.543l6.388,6.917l5.404,8.174l4.34,9.297l3.215,10.27l2.047,11.078l0.852,11.714l0,5.02" style="fill:none;fill-rule:nonzero;stroke:#000;stroke-width:3.75px;"/><path id="path26322" d="M1038.63,982.937l-7.863,-4.529l-7.072,-6.014l-6.161,-7.408l-5.145,-8.692l-4.038,-9.841l-2.858,-10.833l-1.625,-11.651l-0.36,-12.279l0.918,-12.703l2.183,-12.916l3.414,-12.91l4.589,-12.69l5.689,-12.254l6.691,-11.614l7.58,-10.774l8.339,-9.762l8.958,-8.585l9.425,-7.272l9.733,-5.839l9.878,-4.32l9.861,-2.738l9.681,-1.116l9.347,0.513l8.863,2.121l2.183,0.803" style="fill:none;fill-rule:nonzero;stroke:#000;stroke-width:3.75px;"/><path id="path26324" d="M991.919,961.536l-7.859,-4.516l-7.077,-5.978l-6.175,-7.353l-5.168,-8.615l-4.068,-9.746l-2.897,-10.721l-1.67,-11.522l-0.413,-12.139l0.86,-12.549l2.118,-12.754l3.346,-12.743l4.518,-12.518l5.615,-12.085l6.618,-11.446l7.507,-10.616l8.27,-9.61l8.891,-8.444l9.363,-7.145l9.677,-5.727l9.829,-4.228l9.819,-2.665l9.649,-1.072l9.323,0.536l8.848,2.12l2.181,0.804" style="fill:none;fill-rule:nonzero;stroke:#000;stroke-width:3.75px;"/><path id="path26326" d="M1158.42,861.694l-0.85,12.302l-2.034,12.486l-3.184,12.484l-4.286,12.291l-5.321,11.914l-6.275,11.353l-7.136,10.623l-7.889,9.728l-8.525,8.683l-9.032,7.5l-9.401,6.198l-9.629,4.797l-9.707,3.311l-9.635,1.763l-9.411,0.225l-9.037,-1.406l-8.444,-2.962" style="fill:none;fill-rule:nonzero;stroke:#000;stroke-width:3.75px;"/><path id="path26328" d="M1153.66,863.295l-0.792,11.529l-1.904,11.707l-2.984,11.706l-4.018,11.526l-4.99,11.17l-5.885,10.647l-6.692,9.958l-7.399,9.116l-7.995,8.136l-8.468,7.025l-8.815,5.803l-9.025,4.484l-9.097,3.092l-9.027,1.652l-8.815,0.225l-8.461,-1.34l-7.764,-2.722" style="fill:none;fill-rule:nonzero;stroke:#000;stroke-width:3.75px;"/><path id="path26330" d="M1118.53,795.862l7.542,3.826l6.811,5.203l5.976,6.493l5.054,7.67l4.056,8.723l3.001,9.636l1.906,10.393l0.783,10.987l-0.002,4.502" style="fill:none;fill-rule:nonzero;stroke:#000;stroke-width:3.75px;"/><path id="path26332" d="M1041.53,976.937l-7.37,-4.228l-6.629,-5.618l-5.778,-6.924l-4.827,-8.125l-3.791,-9.198l-2.688,-10.13l-1.535,-10.897l-0.351,-11.483l0.842,-11.881l2.024,-12.083l3.176,-12.079l4.275,-11.878l5.304,-11.476l6.242,-10.876l7.076,-10.101l7.789,-9.156l8.37,-8.06l8.811,-6.833l9.103,-5.5l9.244,-4.08l9.233,-2.603l9.071,-1.094l8.762,0.425l8.314,1.942l2.336,0.848" style="fill:none;fill-rule:nonzero;stroke:#000;stroke-width:3.75px;"/><path id="path26334" d="M1118.56,796.047l7.223,4.46l6.444,5.799l5.568,7.04l4.61,8.161l3.585,9.149l2.51,9.993l1.399,10.675l0.291,10.547" style="fill:none;fill-rule:nonzero;stroke:#000;stroke-width:3.75px;"/><path id="path26336" d="M1150.18,861.871l-0.788,11.52l-1.9,11.696l-2.98,11.697l-4.013,11.513l-4.984,11.16l-5.881,10.634l-6.688,9.949l-7.395,9.107l-7.99,8.125l-8.465,7.016l-8.81,5.797l-9.023,4.477l-9.094,3.085l-9.025,1.629l-8.812,0.225l-8.461,-1.339l-6.006,-1.964" style="fill:none;fill-rule:nonzero;stroke:#000;stroke-width:3.75px;"/><path id="path26338" d="M1024.61,903.933l0.366,8.388l1.232,7.947l2.074,7.372l2.88,6.681l3.634,5.886l4.328,4.996l4.949,4.031l5.087,2.828" style="fill:none;fill-rule:nonzero;stroke:#000;stroke-width:3.75px;"/><path id="path26340" d="M1109.39,820.014l-6,-1.786l-6.359,-0.692l-6.617,0.424l-6.77,1.541l-6.812,2.643l-6.743,3.698l-6.564,4.697l-6.276,5.624l-5.884,6.458l-5.393,7.189l-4.813,7.802l-4.153,8.285l-3.423,8.632l-2.636,8.837l-1.808,8.893l-0.949,8.804l-0.156,4.363" style="fill:none;fill-rule:nonzero;stroke:#000;stroke-width:3.75px;"/><path id="path26342" d="M1052.58,953.598l5.906,2.009l6.266,0.915l6.523,-0.225l6.677,-1.295l6.725,-2.359l6.668,-3.389l6.507,-4.363l6.245,-5.266l5.886,-6.087l5.439,-6.808l4.907,-7.426l4.302,-7.929l3.628,-8.308l2.901,-8.558l2.127,-8.676l1.322,-8.666l0.491,-8.513l-0.346,-8.234l-1.181,-7.826l-2,-7.293l-2.79,-6.642l-3.541,-5.889l-4.237,-5.038l-4.871,-4.102l-5.429,-3.099l-1.317,-0.557" style="fill:none;fill-rule:nonzero;stroke:#000;stroke-width:3.75px;"/><path id="path26344" d="M1105.91,818.612l-5.999,-1.786l-6.358,-0.692l-6.615,0.425l-6.768,1.54l-6.81,2.638l-6.74,3.692l-6.562,4.692l-6.272,5.616l-5.881,6.453l-5.39,7.181l-4.809,7.792l-4.149,8.277l-3.419,8.624l-2.633,8.827l-1.804,8.886l-0.946,8.794l-0.157,4.362" style="fill:none;fill-rule:nonzero;stroke:#000;stroke-width:3.75px;"/><path id="path26346" d="M1028.04,905.435l0.363,8.396l1.23,7.95l2.072,7.379l2.878,6.688l3.633,5.888l4.327,4.998l4.949,4.034l5.087,2.83" style="fill:none;fill-rule:nonzero;stroke:#000;stroke-width:3.75px;"/><path id="path26348" d="M1124.8,872.975l-0.455,6.876l-1.125,6.986l-1.775,6.989l-2.395,6.884l-2.98,6.669l-3.518,6.353l-4.002,5.937l-4.423,5.429l-4.777,4.837l-5.057,4.165l-5.259,3.429l-5.378,2.638l-5.413,1.809l-5.363,0.937l-5.229,0l-5.01,-0.848l-4.087,-1.429" style="fill:none;fill-rule:nonzero;stroke:#000;stroke-width:3.75px;"/><path id="path26350" d="M1104.23,833.275l4.451,2.317l4.017,3.136l3.52,3.9l2.97,4.602l2.374,5.23l1.743,5.772l1.087,6.221l0.416,6.576l-0.004,1.942" style="fill:none;fill-rule:nonzero;stroke:#000;stroke-width:3.75px;"/><path id="path26352" d="M1058.55,940.678l-4.391,-2.457l-3.953,-3.28l-3.45,-4.053l-2.891,-4.761l-2.281,-5.397l-1.634,-5.946l-0.957,-6.4l-0.264,-6.748l0.438,-6.989l1.129,-7.116l1.806,-7.122l2.453,-7.016l3.059,-6.793l3.616,-6.455l4.112,-6.015l4.54,-5.476l4.893,-4.846l5.166,-4.138l5.353,-3.366l5.454,-2.54l5.463,-1.675l5.387,-0.781l5.221,0l4.974,1.005l2.429,0.848" style="fill:none;fill-rule:nonzero;stroke:#000;stroke-width:3.75px;"/><path id="path26354" d="M1040.7,917.574l5.265,-3.183l5.081,-3.927l4.816,-4.607l4.479,-5.214l4.07,-5.739l3.601,-6.176l3.074,-6.514l2.501,-6.752l1.889,-6.883l1.245,-6.912l0.583,-6.83l0.045,-1.607" style="fill:none;fill-rule:nonzero;stroke:#000;stroke-width:3.75px;"/><path id="path26356" d="M1077.35,853.232l-2.159,-16.823" style="fill:none;fill-rule:nonzero;stroke:#000;stroke-width:3.75px;"/><path id="path26358" d="M878.788,653.675l-12.025,-3.415l-12.678,-1.34l-13.132,0.759l-13.372,2.887l-13.394,4.968l-13.191,6.987l-12.766,8.897l-12.123,10.672l-11.272,12.27l-10.225,13.67l-9.002,14.837l-7.622,15.754l-6.111,16.402l-4.497,16.768l-2.809,16.85l-1.076,16.643l0.665,16.154l0.239,2.261" style="fill:none;fill-rule:nonzero;stroke:#000;stroke-width:3.75px;"/><path id="path26360" d="M772.805,902.895l11.657,4.299l12.322,2.252l12.786,0.225l13.045,-1.852l13.102,-3.862l12.955,-5.792l12.612,-7.62l12.079,-9.322l11.367,-10.873l10.486,-12.256l9.452,-13.447l8.278,-14.437l6.983,-15.208l5.583,-15.754l4.101,-16.065l2.553,-16.134l0.962,-15.962l-0.648,-15.549l-2.256,-14.899l-3.839,-14.02l-5.374,-12.92l-6.835,-11.609l-8.203,-10.114l-9.452,-8.442l-10.563,-6.627l-7.171,-3.192" style="fill:none;fill-rule:nonzero;stroke:#000;stroke-width:3.75px;"/><path id="path26362" d="M872.437,651.257l-0.276,0l-1.179,-0.424l-1.391,-0.469l-1.672,-0.535l-1.792,-0.558l-1.975,-0.603l-2.016,-0.602l-2.087,-0.625l-1.777,-0.536l-1.741,-0.558" style="fill:none;fill-rule:nonzero;stroke:#000;stroke-width:3.75px;"/><path id="path26364" d="M724.396,825.706l2.407,14.283l3.862,13.384l5.252,12.296l6.558,11.039l7.76,9.629l8.841,8.094l9.791,6.458l3.938,2.008" style="fill:none;fill-rule:nonzero;stroke:#000;stroke-width:3.75px;"/><path id="path26366" d="M755.387,894.214l1.864,0.96l1.991,1.049l1.96,1.027l1.986,1.026l1.804,0.916l1.719,0.848l0.402,0.225" style="fill:none;fill-rule:nonzero;stroke:#000;stroke-width:3.75px;"/><path id="path26368" d="M749.119,889.915l6.268,4.299" style="fill:none;fill-rule:nonzero;stroke:#000;stroke-width:3.75px;"/><path id="path26370" d="M736.312,877.536l1.748,1.205l1.783,1.317l1.775,1.384l1.717,1.428l1.575,1.362l1.431,1.294l1.214,1.161l1,1.005l0.75,0.848l0.492,0.648l0.223,0.471l-0.017,0.225" style="fill:none;fill-rule:nonzero;stroke:#000;stroke-width:3.75px;"/><path id="path26372" d="M731.472,871.087l4.84,6.449" style="fill:none;fill-rule:nonzero;stroke:#000;stroke-width:3.75px;"/><path id="path26374" d="M722.344,854.192l1.571,1.384l1.556,1.563l1.502,1.696l1.411,1.764l1.252,1.74l1.091,1.697l0.88,1.562l0.674,1.429l0.442,1.227l0.201,1.027l-0.045,0.826l-0.244,0.511" style="fill:none;fill-rule:nonzero;stroke:#000;stroke-width:3.75px;"/><path id="path26376" d="M719.269,845.98l3.075,8.212" style="fill:none;fill-rule:nonzero;stroke:#000;stroke-width:3.75px;"/><path id="path26378" d="M714.469,825.612l1.369,1.518l1.294,1.741l1.192,1.919l1.056,2.031l0.875,2.032l0.697,2.008l0.486,1.876l0.286,1.741l0.067,1.54l-0.134,1.339l-0.355,1.094l-0.563,0.826l-0.242,0.225" style="fill:none;fill-rule:nonzero;stroke:#000;stroke-width:3.75px;"/><path id="path26380" d="M713.386,816.152l1.083,9.46" style="fill:none;fill-rule:nonzero;stroke:#000;stroke-width:3.75px;"/><path id="path26382" d="M713.287,793.616l1.156,1.585l1.02,1.83l0.859,2.032l0.677,2.165l0.468,2.188l0.27,2.187l0.067,2.076l-0.134,1.942l-0.331,1.763l-0.516,1.54l-0.698,1.295l-0.862,0.982l-0.886,0.603l-0.302,0.225" style="fill:none;fill-rule:nonzero;stroke:#000;stroke-width:3.75px;"/><path id="path26384" d="M714.288,783.529l-1,10.087" style="fill:none;fill-rule:nonzero;stroke:#000;stroke-width:3.75px;"/><path id="path26386" d="M718.935,760.315l0.948,1.585l0.748,1.83l0.531,2.031l0.302,2.188l0.067,2.232l-0.156,2.235l-0.369,2.12l-0.564,2.009l-0.741,1.83l-0.902,1.608l-1.054,1.361l-1.169,1.072l-1.116,0.669l-1.168,0.4" style="fill:none;fill-rule:nonzero;stroke:#000;stroke-width:3.75px;"/><path id="path26388" d="M721.967,750.268l-3.032,10.047" style="fill:none;fill-rule:nonzero;stroke:#000;stroke-width:3.75px;"/><path id="path26390" d="M731.071,727.929l0.759,1.496l0.502,1.741l0.228,1.942l-0.045,2.075l-0.31,2.121l-0.558,2.143l-0.77,2.054l-0.969,1.941l-1.132,1.786l-1.267,1.563l-1.391,1.339l-1.467,1.049l-1.337,0.67l-1.346,0.4" style="fill:none;fill-rule:nonzero;stroke:#000;stroke-width:3.75px;"/><path id="path26392" d="M735.936,718.599l-4.865,9.33" style="fill:none;fill-rule:nonzero;stroke:#000;stroke-width:3.75px;"/><path id="path26394" d="M748.887,698.635l0.601,1.361l0.294,1.563l-0.021,1.741l-0.339,1.852l-0.629,1.898l-0.9,1.919l-1.118,1.831l-1.319,1.741l-1.471,1.585l-1.592,1.406l-1.689,1.183l-1.73,0.937l-1.534,0.581l-1.504,0.357" style="fill:none;fill-rule:nonzero;stroke:#000;stroke-width:3.75px;"/><path id="path26396" d="M755.256,690.646l-6.369,7.989" style="fill:none;fill-rule:nonzero;stroke:#000;stroke-width:3.75px;"/><path id="path26398" d="M771.173,674.382l0.246,0.469" style="fill:none;fill-rule:nonzero;stroke:#000;stroke-width:3.75px;"/><path id="path26400" d="M778.611,668.26l-7.438,6.122" style="fill:none;fill-rule:nonzero;stroke:#000;stroke-width:3.75px;"/><path id="path26402" d="M796.416,656.744l0.424,0.938l0.045,0.267" style="fill:none;fill-rule:nonzero;stroke:#000;stroke-width:3.75px;"/><path id="path26404" d="M804.423,652.871l-8.007,3.873" style="fill:none;fill-rule:nonzero;stroke:#000;stroke-width:3.75px;"/><path id="path26406" d="M822.924,646.809l0.416,0.67l0.067,0.535" style="fill:none;fill-rule:nonzero;stroke:#000;stroke-width:3.75px;"/><path id="path26408" d="M830.97,645.412l-8.046,1.406" style="fill:none;fill-rule:nonzero;stroke:#000;stroke-width:3.75px;"/><path id="path26410" d="M848.963,645.115l0.459,0.402l0.089,0.357" style="fill:none;fill-rule:nonzero;stroke:#000;stroke-width:3.75px;"/><path id="path26412" d="M856.53,646.244l-7.567,-1.138" style="fill:none;fill-rule:nonzero;stroke:#000;stroke-width:3.75px;"/><path id="path26414" d="M913.808,782.909l-4.61,-16.342l-9.917,-11.241l-13.711,-4.319l-15.362,3.351l-14.566,10.551l-11.414,16.094l-6.411,19.051l-0.375,18.926l5.693,15.761l10.805,10.103l14.163,2.9l15.271,-4.69l13.997,-11.489l10.568,-16.473l5.519,-18.911l0.35,-13.272Z" style="fill:none;fill-rule:nonzero;stroke:#000;stroke-width:3.75px;"/><path id="path26416" d="M914.269,780.291l-1.491,20.5l-7.73,20.073l-12.775,16.565l-15.866,10.482l-16.514,2.73l-9.119,-2.34" style="fill:none;fill-rule:nonzero;stroke:#000;stroke-width:3.75px;"/><path id="path26418" d="M811.952,831.087l-12.255,-10.113l-6.912,-16.425l-0.413,-20.143l6.189,-20.625l11.798,-17.765l15.487,-12.044l16.666,-4.425l11.712,2.143" style="fill:none;fill-rule:nonzero;stroke:#000;stroke-width:3.75px;"/><path id="path26420" d="M893.553,747.706l12.471,9.723l7.191,16.074l1.054,6.788" style="fill:none;fill-rule:nonzero;stroke:#000;stroke-width:3.75px;"/><path id="path26422" d="M850.774,848.301l-12.263,-10.176l-6.879,-16.569l-0.342,-20.355l6.286,-20.864l11.905,-17.995l15.586,-12.226l16.742,-4.528l11.745,2.12" style="fill:none;fill-rule:nonzero;stroke:#000;stroke-width:3.75px;"/><path id="path26424" d="M720.053,750.63l-0.252,0" style="fill:none;fill-rule:nonzero;stroke:#000;stroke-width:3.75px;"/><path id="path26426" d="M715.762,748.436l-6.58,-2.777l-7.862,-3.239l-5.386,-2.187" style="fill:none;fill-rule:nonzero;stroke:#000;stroke-width:3.75px;"/><path id="path26428" d="M729.786,726.023l0.343,0.223l0.679,0.692l0.263,1.027" style="fill:none;fill-rule:nonzero;stroke:#000;stroke-width:3.75px;"/><path id="path26430" d="M721.967,750.268l-0.819,0.446l-0.913,-0.041l-0.178,0" style="fill:none;fill-rule:nonzero;stroke:#000;stroke-width:3.75px;"/><path id="path26432" d="M695.729,740.157l-1.024,-0.446l-2.79,-1.541l-2.695,-1.986" style="fill:none;fill-rule:nonzero;stroke:#000;stroke-width:3.75px;"/><path id="path26434" d="M689.219,736.175l-0.86,-1.541l-0.624,-1.785l-0.36,-1.987l-0.089,-2.12l0.224,-2.143l0.495,-2.143l0.748,-2.031l0.986,-1.92l1.188,-1.719l1.355,-1.518l1.5,-1.272l1.582,-0.982l1.434,-0.625l1.428,-0.38" style="fill:none;fill-rule:nonzero;stroke:#000;stroke-width:3.75px;"/><path id="path26436" d="M698.226,714.065l3.116,0.447l3.018,0.848l1.277,0.491" style="fill:none;fill-rule:nonzero;stroke:#000;stroke-width:3.75px;"/><path id="path26438" d="M748.7,698.244l0.178,0.402" style="fill:none;fill-rule:nonzero;stroke:#000;stroke-width:3.75px;"/><path id="path26440" d="M706.409,707.916l-1,-0.781l-2.363,-2.297" style="fill:none;fill-rule:nonzero;stroke:#000;stroke-width:3.75px;"/><path id="path26442" d="M747.315,697.755l0.402,0l0.817,0.29l0.157,0.223" style="fill:none;fill-rule:nonzero;stroke:#000;stroke-width:3.75px;"/><path id="path26444" d="M735.936,718.599l-1.152,0.781l-1.163,0.29l-0.516,-0.02" style="fill:none;fill-rule:nonzero;stroke:#000;stroke-width:3.75px;"/><path id="path26446" d="M708.935,709.523l-0.967,-0.558l-1.56,-1.049" style="fill:none;fill-rule:nonzero;stroke:#000;stroke-width:3.75px;"/><path id="path26448" d="M703.046,704.835l-0.679,-1.45l-0.393,-1.652l-0.089,-1.831l0.239,-1.942l0.549,-1.942l0.846,-1.919l1.099,-1.808l1.33,-1.697l1.513,-1.517l1.657,-1.317l1.774,-1.094l1.819,-0.826l1.61,-0.491l1.569,-0.291" style="fill:none;fill-rule:nonzero;stroke:#000;stroke-width:3.75px;"/><path id="path26450" d="M715.893,685.092l3.05,0.871l2.903,1.205l1.212,0.625" style="fill:none;fill-rule:nonzero;stroke:#000;stroke-width:3.75px;"/><path id="path26452" d="M714.022,783.616l-0.281,0l-0.725,-0.4l-0.38,-0.312" style="fill:none;fill-rule:nonzero;stroke:#000;stroke-width:3.75px;"/><path id="path26454" d="M690.214,746.235l2.154,0.379l1.31,0.333" style="fill:none;fill-rule:nonzero;stroke:#000;stroke-width:3.75px;"/><path id="path26456" d="M717.731,757.382l0.309,0.313l0.62,1.094l0.275,1.517" style="fill:none;fill-rule:nonzero;stroke:#000;stroke-width:3.75px;"/><path id="path26458" d="M714.288,783.529l-0.266,0" style="fill:none;fill-rule:nonzero;stroke:#000;stroke-width:3.75px;"/><path id="path26460" d="M688.652,772.246l-1.063,-0.333l-2.958,-1.184l-2.967,-1.607" style="fill:none;fill-rule:nonzero;stroke:#000;stroke-width:3.75px;"/><path id="path26462" d="M681.663,769.108l-1.063,-1.563l-0.888,-1.808l-0.676,-2.009l-0.438,-2.165l-0.178,-2.188l0.089,-2.209l0.346,-2.099l0.589,-1.986l0.808,-1.808l1.003,-1.607l1.176,-1.362l1.301,-1.071l1.226,-0.67l1.261,-0.424" style="fill:none;fill-rule:nonzero;stroke:#000;stroke-width:3.75px;"/><path id="path26464" d="M686.227,746.119l3.087,0.042l0.9,0" style="fill:none;fill-rule:nonzero;stroke:#000;stroke-width:3.75px;"/><path id="path26466" d="M722.965,678.24l-0.75,-1.05" style="fill:none;fill-rule:nonzero;stroke:#000;stroke-width:3.75px;"/><path id="path26468" d="M771.418,674.849l0.243,0.692l0.134,1.317l-0.201,1.451l-0.556,1.54l-0.87,1.562l-1.161,1.563l-1.384,1.495l-1.589,1.407l-1.737,1.294l-1.846,1.116l-1.928,0.938l-1.94,0.714l-1.694,0.425l-1.634,0.223" style="fill:none;fill-rule:nonzero;stroke:#000;stroke-width:3.75px;"/><path id="path26470" d="M755.256,690.646l-1.516,1.004l-1.455,0.558l-0.621,0" style="fill:none;fill-rule:nonzero;stroke:#000;stroke-width:3.75px;"/><path id="path26472" d="M727.384,682.394l-0.889,-0.648l-2.285,-2.053l-1.246,-1.451" style="fill:none;fill-rule:nonzero;stroke:#000;stroke-width:3.75px;"/><path id="path26474" d="M722.215,677.195l-0.531,-1.272l-0.201,-1.474l0.134,-1.562l0.496,-1.674l0.797,-1.607l1.136,-1.63l1.344,-1.451l1.616,-1.384l1.734,-1.183l1.911,-1.026l1.953,-0.804l2.022,-0.58l1.724,-0.313l1.689,-0.223" style="fill:none;fill-rule:nonzero;stroke:#000;stroke-width:3.75px;"/><path id="path26476" d="M738.029,661.124l2.894,1.294l2.718,1.54l1.127,0.737" style="fill:none;fill-rule:nonzero;stroke:#000;stroke-width:3.75px;"/><path id="path26478" d="M769.13,674.461l2.044,0" style="fill:none;fill-rule:nonzero;stroke:#000;stroke-width:3.75px;"/><path id="path26480" d="M705.636,715.84l2.925,1.205l2.811,1.161l2.738,1.138l2.591,1.094l2.765,1.161l2.536,1.071l2.351,1.005l2.071,0.893l1.851,0.803l1.511,0.67" style="fill:none;fill-rule:nonzero;stroke:#000;stroke-width:3.75px;"/><path id="path26482" d="M698.226,714.065l4.82,-9.23" style="fill:none;fill-rule:nonzero;stroke:#000;stroke-width:3.75px;"/><path id="path26484" d="M733.107,719.655l-1.324,-0.224l-1.511,-0.357l-1.728,-0.513l-1.906,-0.648l-2.388,-0.915l-2.591,-1.094l-2.86,-1.294l-3.035,-1.474l-3.343,-1.696l-3.484,-1.853" style="fill:none;fill-rule:nonzero;stroke:#000;stroke-width:3.75px;"/><path id="path26486" d="M693.68,746.963l3.011,0.915l2.879,0.937l2.789,0.96l2.622,0.96l2.778,1.116l2.523,1.094l2.309,1.116l2.005,1.093l1.752,1.117l1.384,1.071" style="fill:none;fill-rule:nonzero;stroke:#000;stroke-width:3.75px;"/><path id="path26488" d="M686.227,746.119l2.992,-9.944" style="fill:none;fill-rule:nonzero;stroke:#000;stroke-width:3.75px;"/><path id="path26490" d="M719.8,750.525l-1.163,-0.536l-1.379,-0.625l-1.625,-0.714l-1.832,-0.804l-2.342,-1.026l-2.586,-1.116l-2.897,-1.228l-3.116,-1.317l-3.472,-1.473l-3.658,-1.54" style="fill:none;fill-rule:nonzero;stroke:#000;stroke-width:3.75px;"/><path id="path26492" d="M714.069,815.936l-0.683,0.225" style="fill:none;fill-rule:nonzero;stroke:#000;stroke-width:3.75px;"/><path id="path26494" d="M681.464,778.962l2.196,-0.225l3.011,0.225l1.314,0.225" style="fill:none;fill-rule:nonzero;stroke:#000;stroke-width:3.75px;"/><path id="path26496" d="M711.953,789.735l0.299,0.446l0.647,1.495l0.389,1.943" style="fill:none;fill-rule:nonzero;stroke:#000;stroke-width:3.75px;"/><path id="path26498" d="M713.386,816.152l-0.35,-0.4l-0.614,-0.804l-0.357,-0.491" style="fill:none;fill-rule:nonzero;stroke:#000;stroke-width:3.75px;"/><path id="path26500" d="M688.149,803.648l-1.078,-0.225l-3.054,-0.827l-3.16,-1.16" style="fill:none;fill-rule:nonzero;stroke:#000;stroke-width:3.75px;"/><path id="path26502" d="M680.858,801.431l-1.259,-1.495l-1.179,-1.786l-0.995,-1.92l-0.83,-2.12l-0.572,-2.099l-0.344,-2.165l-0.089,-2.009l0.156,-1.964l0.395,-1.741l0.63,-1.585l0.814,-1.317l1.011,-1.049l0.992,-0.647l1.091,-0.4" style="fill:none;fill-rule:nonzero;stroke:#000;stroke-width:3.75px;"/><path id="path26504" d="M680.694,779.101l0.77,-0.225" style="fill:none;fill-rule:nonzero;stroke:#000;stroke-width:3.75px;"/><path id="path26506" d="M723.059,687.802l2.781,1.473l2.697,1.384l2.651,1.295l2.534,1.183l2.741,1.205l2.552,1.049l2.41,0.871l2.174,0.692l2.004,0.513l1.712,0.29" style="fill:none;fill-rule:nonzero;stroke:#000;stroke-width:3.75px;"/><path id="path26508" d="M715.893,685.092l6.322,-7.897" style="fill:none;fill-rule:nonzero;stroke:#000;stroke-width:3.75px;"/><path id="path26510" d="M751.663,692.302l-1.534,0l-1.683,-0.223l-1.863,-0.335l-2.003,-0.536l-2.446,-0.848l-2.595,-1.072l-2.809,-1.361l-2.926,-1.607l-3.17,-1.92l-3.251,-2.143" style="fill:none;fill-rule:nonzero;stroke:#000;stroke-width:3.75px;"/><path id="path26512" d="M687.985,779.085l3.033,0.625l2.896,0.692l2.801,0.782l2.627,0.847l2.777,1.072l2.513,1.138l2.291,1.25l1.976,1.318l1.714,1.428l1.339,1.495" style="fill:none;fill-rule:nonzero;stroke:#000;stroke-width:3.75px;"/><path id="path26514" d="M680.694,779.101l0.969,-9.993" style="fill:none;fill-rule:nonzero;stroke:#000;stroke-width:3.75px;"/><path id="path26516" d="M712.635,782.849l-1.062,-0.871l-1.297,-0.893l-1.558,-0.937l-1.786,-0.96l-2.311,-1.116l-2.579,-1.116l-2.918,-1.161l-3.161,-1.161l-3.549,-1.205l-3.762,-1.183" style="fill:none;fill-rule:nonzero;stroke:#000;stroke-width:3.75px;"/><path id="path26518" d="M823.789,632.733l-11.98,-3.417l-12.618,-1.384l-13.058,0.692l-13.286,2.783l-13.296,4.837l-13.084,6.824l-12.651,8.707l-12.003,10.456l-11.148,12.035l-10.101,13.418l-8.878,14.573l-7.503,15.482l-5.998,16.125l-4.392,16.498l-2.713,16.585l-0.993,16.39l0.739,15.918l0.247,2.232" style="fill:none;fill-rule:nonzero;stroke:#000;stroke-width:3.75px;"/><path id="path26520" d="M829.964,635.086l0.201,0l1.899,0.736l1.927,0.782l1.989,0.803l1.691,0.692l1.663,0.692" style="fill:none;fill-rule:nonzero;stroke:#000;stroke-width:3.75px;"/><path id="path26522" d="M725.087,880.409l-0.866,-0.427l-0.935,-0.488l-0.665,-0.384l-0.346,-0.246l-0.067,0" style="fill:none;fill-rule:nonzero;stroke:#000;stroke-width:3.75px;"/><path id="path26524" d="M671.072,801.498l2.46,14.085l3.902,13.205l5.279,12.143l6.572,10.911l7.76,9.528l8.831,8.025l9.767,6.416l3.926,2.008" style="fill:none;fill-rule:nonzero;stroke:#000;stroke-width:3.75px;"/><path id="path26526" d="M839.328,638.867l6.61,3.529" style="fill:none;fill-rule:nonzero;stroke:#000;stroke-width:3.75px;"/><path id="path26528" d="M823.018,633.474l-0.457,-0.312l-0.112,-0.224" style="fill:none;fill-rule:nonzero;stroke:#000;stroke-width:3.75px;"/><path id="path26530" d="M815.471,632.333l7.547,1.139" style="fill:none;fill-rule:nonzero;stroke:#000;stroke-width:3.75px;"/><path id="path26532" d="M797.538,632.579l-0.402,-0.558l-0.067,-0.335" style="fill:none;fill-rule:nonzero;stroke:#000;stroke-width:3.75px;"/><path id="path26534" d="M789.523,633.943l8.015,-1.362" style="fill:none;fill-rule:nonzero;stroke:#000;stroke-width:3.75px;"/><path id="path26536" d="M771.101,639.9l-0.393,-0.825l-0.021,-0.224" style="fill:none;fill-rule:nonzero;stroke:#000;stroke-width:3.75px;"/><path id="path26538" d="M763.133,643.715l7.968,-3.815" style="fill:none;fill-rule:nonzero;stroke:#000;stroke-width:3.75px;"/><path id="path26540" d="M745.424,655.077l-0.248,-0.492" style="fill:none;fill-rule:nonzero;stroke:#000;stroke-width:3.75px;"/><path id="path26542" d="M738.029,661.124l7.395,-6.047" style="fill:none;fill-rule:nonzero;stroke:#000;stroke-width:3.75px;"/><path id="path26544" d="M681.964,810.808l-1.107,-9.377" style="fill:none;fill-rule:nonzero;stroke:#000;stroke-width:3.75px;"/><path id="path26546" d="M686.805,831.007l-1.48,-1.429l-1.429,-1.629l-1.332,-1.786l-1.186,-1.897l-0.975,-1.942l-0.759,-1.942l-0.505,-1.853l-0.256,-1.741l-0.003,-1.584l0.238,-1.407l0.48,-1.183l0.692,-0.915l0.775,-0.558l0.261,-0.225" style="fill:none;fill-rule:nonzero;stroke:#000;stroke-width:3.75px;"/><path id="path26548" d="M689.892,839.156l-3.087,-8.149" style="fill:none;fill-rule:nonzero;stroke:#000;stroke-width:3.75px;"/><path id="path26550" d="M699.037,855.929l-1.667,-1.25l-1.67,-1.406l-1.625,-1.541l-1.522,-1.607l-1.337,-1.629l-1.145,-1.63l-0.893,-1.54l-0.647,-1.451l-0.377,-1.294l-0.112,-1.139l0.156,-0.937l0.406,-0.715l0.28,-0.246" style="fill:none;fill-rule:nonzero;stroke:#000;stroke-width:3.75px;"/><path id="path26552" d="M703.879,862.335l-4.842,-6.406" style="fill:none;fill-rule:nonzero;stroke:#000;stroke-width:3.75px;"/><path id="path26554" d="M716.678,874.645l-1.822,-1.049l-1.87,-1.138l-1.869,-1.205l-1.801,-1.251l-1.64,-1.227l-1.469,-1.206l-1.221,-1.138l-0.978,-1.05l-0.699,-0.937l-0.419,-0.781l-0.135,-0.625l0.157,-0.443l0.004,0" style="fill:none;fill-rule:nonzero;stroke:#000;stroke-width:3.75px;"/><path id="path26556" d="M722.937,878.929l-6.259,-4.284" style="fill:none;fill-rule:nonzero;stroke:#000;stroke-width:3.75px;"/><path id="path26558" d="M738.518,886.065l-1.907,-0.781l-2.044,-0.849l-2.018,-0.825l-2.04,-0.849l-1.842,-0.781l-1.741,-0.759l-1.453,-0.647l-0.384,-0.225" style="fill:none;fill-rule:nonzero;stroke:#000;stroke-width:3.75px;"/><path id="path26560" d="M745.776,887.986l-7.258,-1.919" style="fill:none;fill-rule:nonzero;stroke:#000;stroke-width:3.75px;"/><path id="path26562" d="M779.167,805.172l1.214,7.496l1.982,7.031l2.72,6.469l3.415,5.814l4.058,5.076l4.639,4.266l5.151,3.402l2.643,1.317" style="fill:none;fill-rule:nonzero;stroke:#000;stroke-width:3.75px;"/><path id="path26564" d="M860.165,716.297l-6.204,-1.897l-6.545,-0.803l-6.782,0.267l-6.911,1.362l-6.927,2.444l-6.831,3.482l-6.622,4.465l-6.303,5.379l-5.881,6.205l-5.359,6.933l-4.75,7.545l-4.06,8.036l-3.302,8.388l-2.492,8.607l-1.638,8.681l-0.761,8.611l0.134,8.4l0.241,2.745" style="fill:none;fill-rule:nonzero;stroke:#000;stroke-width:3.75px;"/><path id="path26566" d="M804.99,846.041l20.339,3.055l16.417,-4.799" style="fill:none;fill-rule:nonzero;stroke:#000;stroke-width:3.75px;"/><path id="path26568" d="M884.407,743.978l-11.298,-19.002l-12.944,-8.679" style="fill:none;fill-rule:nonzero;stroke:#000;stroke-width:3.75px;"/><path id="path26570" d="M801.576,844.507l-5.661,-3.159l-5.124,-4.149l-4.504,-5.076l-3.807,-5.924l-3.046,-6.679l-2.233,-7.33l-1.379,-7.859l-0.5,-8.264l0.388,-8.533l1.272,-8.661l2.137,-8.647l2.966,-8.489l3.748,-8.19l4.467,-7.754l5.111,-7.194l5.671,-6.516l6.136,-5.728l6.499,-4.848l6.753,-3.895l6.898,-2.877l6.928,-1.808l6.847,-0.737l6.655,0.357l6.357,1.451l2.537,0.915" style="fill:none;fill-rule:nonzero;stroke:#000;stroke-width:3.75px;"/><path id="path26572" d="M796.893,657.943l0.004,0.759l-0.319,1.093l-0.685,1.139l-1.016,1.138l-1.321,1.116l-1.554,1.072l-1.766,0.982l-1.91,0.893l-2.016,0.759l-2.089,0.625l-2.085,0.446l-1.804,0.223l-1.723,0" style="fill:none;fill-rule:nonzero;stroke:#000;stroke-width:3.75px;"/><path id="path26574" d="M745.175,654.592l-0.2,-0.602l-0.09,-1.183l0.291,-1.25l0.656,-1.295l0.989,-1.25l1.299,-1.183l1.54,-1.049l1.759,-0.938l1.915,-0.781l2.027,-0.625l2.105,-0.446l2.103,-0.268l3.551,0" style="fill:none;fill-rule:nonzero;stroke:#000;stroke-width:3.75px;"/><path id="path26576" d="M793.753,657.641l0.571,-0.223l1.286,-0.379l0.6,-0.268" style="fill:none;fill-rule:nonzero;stroke:#000;stroke-width:3.75px;"/><path id="path26578" d="M778.611,668.26l-1.89,1.093l-1.773,0.737l-0.739,0.223" style="fill:none;fill-rule:nonzero;stroke:#000;stroke-width:3.75px;"/><path id="path26580" d="M749.824,660.566l-0.799,-0.715l-1.986,-2.21l-1.616,-2.582" style="fill:none;fill-rule:nonzero;stroke:#000;stroke-width:3.75px;"/><path id="path26582" d="M763.133,643.715l2.659,1.697l2.478,1.83l1.022,0.826" style="fill:none;fill-rule:nonzero;stroke:#000;stroke-width:3.75px;"/><path id="path26584" d="M744.767,664.706l2.591,1.719l2.543,1.562l2.535,1.429l2.458,1.272l2.704,1.25l2.57,1.005l2.485,0.781l2.305,0.514l2.203,0.245l1.969,0" style="fill:none;fill-rule:nonzero;stroke:#000;stroke-width:3.75px;"/><path id="path26586" d="M774.209,670.28l-1.774,0.245l-1.882,0.021l-2.02,-0.223l-2.112,-0.447l-2.512,-0.781l-2.599,-1.071l-2.745,-1.407l-2.799,-1.696l-2.965,-2.076l-2.977,-2.352" style="fill:none;fill-rule:nonzero;stroke:#000;stroke-width:3.75px;"/><path id="path26588" d="M720.498,845.464l-0.422,0.271l-0.808,0.246" style="fill:none;fill-rule:nonzero;stroke:#000;stroke-width:3.75px;"/><path id="path26590" d="M681.324,811.011l0.641,-0.225" style="fill:none;fill-rule:nonzero;stroke:#000;stroke-width:3.75px;"/><path id="path26592" d="M712.805,820.92l0.315,0.558l0.755,1.83l0.596,2.301" style="fill:none;fill-rule:nonzero;stroke:#000;stroke-width:3.75px;"/><path id="path26594" d="M719.269,845.98l-0.135,-0.581" style="fill:none;fill-rule:nonzero;stroke:#000;stroke-width:3.75px;"/><path id="path26596" d="M694.204,832.286l-1.067,0l-3.071,-0.446l-3.263,-0.715" style="fill:none;fill-rule:nonzero;stroke:#000;stroke-width:3.75px;"/><path id="path26598" d="M681.964,810.808l2.761,-0.647l2.889,-0.225l1.287,0" style="fill:none;fill-rule:nonzero;stroke:#000;stroke-width:3.75px;"/><path id="path26600" d="M688.901,810.065l2.991,0.358l2.861,0.469l2.772,0.625l2.606,0.759l2.761,1.004l2.508,1.161l2.296,1.362l1.991,1.518l1.741,1.74l1.377,1.875" style="fill:none;fill-rule:nonzero;stroke:#000;stroke-width:3.75px;"/><path id="path26602" d="M712.065,814.46l-1.029,-1.205l-1.268,-1.183l-1.534,-1.161l-1.767,-1.116l-2.298,-1.206l-2.573,-1.138l-2.919,-1.094l-3.171,-0.982l-3.567,-0.937l-3.789,-0.804" style="fill:none;fill-rule:nonzero;stroke:#000;stroke-width:3.75px;"/><path id="path26604" d="M823.407,648.008l-0.021,0.223l-0.343,0.692l-0.721,0.692l-1.058,0.647l-1.375,0.625l-1.614,0.558l-1.832,0.514l-1.982,0.424l-2.09,0.335l-2.163,0.223l-2.154,0l-1.857,-0.013l-1.77,0" style="fill:none;fill-rule:nonzero;stroke:#000;stroke-width:3.75px;"/><path id="path26606" d="M770.679,638.938l0.004,-0.736l0.357,-0.871l0.73,-0.848l1.063,-0.781l1.373,-0.692l1.607,-0.558l1.819,-0.447l1.966,-0.312l2.07,-0.223l4.27,0l1.837,0.223l1.75,0.245" style="fill:none;fill-rule:nonzero;stroke:#000;stroke-width:3.75px;"/><path id="path26608" d="M819.539,648.338l0.669,-0.223l1.583,-0.603l1.134,-0.737" style="fill:none;fill-rule:nonzero;stroke:#000;stroke-width:3.75px;"/><path id="path26610" d="M774.741,645.436l-0.703,-0.737l-1.683,-2.247l-1.255,-2.545" style="fill:none;fill-rule:nonzero;stroke:#000;stroke-width:3.75px;"/><path id="path26612" d="M789.523,633.943l2.364,2.009l2.199,2.031l0.906,0.893" style="fill:none;fill-rule:nonzero;stroke:#000;stroke-width:3.75px;"/><path id="path26614" d="M732.637,870.639l-0.045,0l-0.466,0.291l-0.65,0" style="fill:none;fill-rule:nonzero;stroke:#000;stroke-width:3.75px;"/><path id="path26616" d="M688.881,839.531l0.281,-0.225l0.73,-0.225" style="fill:none;fill-rule:nonzero;stroke:#000;stroke-width:3.75px;"/><path id="path26618" d="M731.472,871.087l-0.232,-1.317l-0.634,-1.584l-0.406,-0.76" style="fill:none;fill-rule:nonzero;stroke:#000;stroke-width:3.75px;"/><path id="path26620" d="M706.348,856.319l-1.031,0l-3.012,-0.225l-3.268,-0.27" style="fill:none;fill-rule:nonzero;stroke:#000;stroke-width:3.75px;"/><path id="path26622" d="M689.892,839.156l2.487,-0.848l2.7,-0.404l1.232,0" style="fill:none;fill-rule:nonzero;stroke:#000;stroke-width:3.75px;"/><path id="path26624" d="M796.21,656.867l0.2,-0.223" style="fill:none;fill-rule:nonzero;stroke:#000;stroke-width:3.75px;"/><path id="path26626" d="M802.158,653.967l-2.072,0.782l-0.864,0.245" style="fill:none;fill-rule:nonzero;stroke:#000;stroke-width:3.75px;"/><path id="path26628" d="M769.291,648.052l2.368,1.875l2.363,1.697l2.397,1.54l2.368,1.339l2.659,1.272l2.587,0.982l2.569,0.715l2.455,0.402l2.43,0l2.266,-0.29" style="fill:none;fill-rule:nonzero;stroke:#000;stroke-width:3.75px;"/><path id="path26630" d="M799.222,654.999l-2.033,0.379l-2.092,0.223l-2.187,0l-2.226,-0.379l-2.581,-0.737l-2.601,-1.049l-2.676,-1.406l-2.659,-1.741l-2.743,-2.165l-2.682,-2.478" style="fill:none;fill-rule:nonzero;stroke:#000;stroke-width:3.75px;"/><path id="path26632" d="M719.126,845.397l-0.112,-0.271l-0.583,-1.205l-0.365,-0.625" style="fill:none;fill-rule:nonzero;stroke:#000;stroke-width:3.75px;"/><path id="path26634" d="M696.311,837.864l2.889,0l2.777,0.292l2.705,0.471l2.56,0.647l2.734,0.96l2.507,1.205l2.323,1.452l2.047,1.673l1.828,1.987l1.493,2.21" style="fill:none;fill-rule:nonzero;stroke:#000;stroke-width:3.75px;"/><path id="path26636" d="M718.075,843.277l-1.065,-1.518l-1.294,-1.428l-1.554,-1.362l-1.779,-1.25l-2.301,-1.295l-2.568,-1.138l-2.902,-1.005l-3.144,-0.825l-3.526,-0.67l-3.738,-0.469" style="fill:none;fill-rule:nonzero;stroke:#000;stroke-width:3.75px;"/><path id="path26638" d="M849.518,645.869l-0.283,0.291l-0.658,0.223l-0.998,0.223l-1.319,0l-1.567,0l-1.793,-0.016l-1.951,0l-2.067,-0.224l-2.147,-0.223l-2.145,-0.246l-1.855,-0.29l-1.77,-0.335" style="fill:none;fill-rule:nonzero;stroke:#000;stroke-width:3.75px;"/><path id="path26640" d="M797.071,631.668l0.021,-0.223l0.341,-0.469l0.705,-0.402l1.034,-0.29l1.337,-0.223l3.337,0l1.915,0.223l2.016,0.29l2.087,0.38l2.082,0.446l1.8,0.446l1.718,0.469" style="fill:none;fill-rule:nonzero;stroke:#000;stroke-width:3.75px;"/><path id="path26642" d="M846.111,646.668l1.352,-0.558l1.5,-0.982" style="fill:none;fill-rule:nonzero;stroke:#000;stroke-width:3.75px;"/><path id="path26644" d="M800.476,637.923l-0.609,-0.759l-1.398,-2.21l-0.933,-2.393" style="fill:none;fill-rule:nonzero;stroke:#000;stroke-width:3.75px;"/><path id="path26646" d="M815.471,632.333l2.032,2.233l1.901,2.165l0.791,0.915" style="fill:none;fill-rule:nonzero;stroke:#000;stroke-width:3.75px;"/><path id="path26648" d="M749.999,889.875l-0.045,0l-0.304,0l-0.52,0" style="fill:none;fill-rule:nonzero;stroke:#000;stroke-width:3.75px;"/><path id="path26650" d="M702.925,862.592l0.373,-0.225l0.582,0" style="fill:none;fill-rule:nonzero;stroke:#000;stroke-width:3.75px;"/><path id="path26652" d="M749.119,889.915l-0.315,-1.719l-0.111,-0.383" style="fill:none;fill-rule:nonzero;stroke:#000;stroke-width:3.75px;"/><path id="path26654" d="M723.713,874.257l-0.976,0l-2.88,0.225l-3.18,0.225" style="fill:none;fill-rule:nonzero;stroke:#000;stroke-width:3.75px;"/><path id="path26656" d="M703.879,862.335l2.165,-0.96l2.458,-0.556l1.152,0" style="fill:none;fill-rule:nonzero;stroke:#000;stroke-width:3.75px;"/><path id="path26658" d="M818.845,648.496l0.694,-0.223" style="fill:none;fill-rule:nonzero;stroke:#000;stroke-width:3.75px;"/><path id="path26660" d="M820.716,647.972l-0.27,0.004l-2.345,0l-2.347,-0.335l-2.64,-0.714l-2.609,-1.049l-2.597,-1.407l-2.526,-1.763l-2.511,-2.165l-2.394,-2.523" style="fill:none;fill-rule:nonzero;stroke:#000;stroke-width:3.75px;"/><path id="path26662" d="M794.993,638.862l2.121,1.987l2.174,1.786l2.242,1.607l2.275,1.384l2.6,1.294l2.613,0.983l2.647,0.647l2.623,0.312l2.659,0l1.897,-0.29" style="fill:none;fill-rule:nonzero;stroke:#000;stroke-width:3.75px;"/><path id="path26664" d="M729.323,866.065l-0.283,-0.404l-1.378,-1.652l-1.611,-1.518l-1.826,-1.384l-2.315,-1.361l-2.571,-1.161l-2.857,-0.937l-3.093,-0.692l-3.417,-0.472l-3.627,-0.225" style="fill:none;fill-rule:nonzero;stroke:#000;stroke-width:3.75px;"/><path id="path26666" d="M709.655,860.705l2.727,0l2.658,0.225l2.6,0.359l2.5,0.58l2.687,0.937l2.519,1.228l2.362,1.54l2.146,1.831l0.134,0.225" style="fill:none;fill-rule:nonzero;stroke:#000;stroke-width:3.75px;"/><path id="path26668" d="M729.995,867.351l0.433,0.443" style="fill:none;fill-rule:nonzero;stroke:#000;stroke-width:3.75px;"/><path id="path26670" d="M730.199,867.442l-0.875,-1.384" style="fill:none;fill-rule:nonzero;stroke:#000;stroke-width:3.75px;"/><path id="path26672" d="M822.439,632.979l0.004,-0.013l0.834,0l0.889,0.223l1.212,0.335l1.395,0.447l1.645,0.58l1.542,0.58" style="fill:none;fill-rule:nonzero;stroke:#000;stroke-width:3.75px;"/><path id="path26674" d="M825.357,638.405l-0.522,-0.737l-1.145,-2.076l-0.672,-2.142" style="fill:none;fill-rule:nonzero;stroke:#000;stroke-width:3.75px;"/><path id="path26676" d="M839.328,638.867l1.681,2.355l1.605,2.187l0.68,0.893" style="fill:none;fill-rule:nonzero;stroke:#000;stroke-width:3.75px;"/><path id="path26678" d="M722.218,878.772l0.249,0l0.469,0.225" style="fill:none;fill-rule:nonzero;stroke:#000;stroke-width:3.75px;"/><path id="path26680" d="M745.114,885.051l-0.902,0l-2.688,0.404l-3.006,0.494" style="fill:none;fill-rule:nonzero;stroke:#000;stroke-width:3.75px;"/><path id="path26682" d="M722.937,878.929l1.819,-0.938l2.181,-0.625l1.053,-0.225" style="fill:none;fill-rule:nonzero;stroke:#000;stroke-width:3.75px;"/><path id="path26684" d="M834.47,646.014l-2.304,-1.294l-2.392,-1.719l-2.303,-2.121l-2.114,-2.466" style="fill:none;fill-rule:nonzero;stroke:#000;stroke-width:3.75px;"/><path id="path26686" d="M820.194,637.63l1.879,2.009l1.978,1.808l2.091,1.607l2.174,1.384l2.079,1.072" style="fill:none;fill-rule:nonzero;stroke:#000;stroke-width:3.75px;"/><path id="path26688" d="M734.828,875.489l-1.4,-0.404l-3.001,-0.603l-3.276,-0.291l-3.439,0" style="fill:none;fill-rule:nonzero;stroke:#000;stroke-width:3.75px;"/><path id="path26690" d="M727.991,877.19l2.532,-0.225l2.498,0l2.478,0.291l0.792,0.225" style="fill:none;fill-rule:nonzero;stroke:#000;stroke-width:3.75px;"/><path id="path26692" d="M846.344,643.938l0.901,0.759l1.067,0.848" style="fill:none;fill-rule:nonzero;stroke:#000;stroke-width:3.75px;"/><path id="path26694" d="M847.411,646.121l-0.045,0l-0.947,-1.852l-0.487,-1.808" style="fill:none;fill-rule:nonzero;stroke:#000;stroke-width:3.75px;"/><path id="path26696" d="M745.776,887.986l1.471,-0.825l0.542,-0.225" style="fill:none;fill-rule:nonzero;stroke:#000;stroke-width:3.75px;"/><path id="path26698" d="M843.293,644.318l1.654,1.964l0.373,0.402" style="fill:none;fill-rule:nonzero;stroke:#000;stroke-width:3.75px;"/><path id="path26700" d="M745.764,884.98l-0.649,0" style="fill:none;fill-rule:nonzero;stroke:#000;stroke-width:3.75px;"/><path id="path26702" d="M637.016,725.487l38.714,16.81" style="fill:none;fill-rule:nonzero;stroke:#000;stroke-width:3.75px;"/><path id="path26704" d="M637.016,725.487l12.614,-39.792" style="fill:none;fill-rule:nonzero;stroke:#000;stroke-width:3.75px;"/><path id="path26706" d="M649.63,685.695l41.584,17.446" style="fill:none;fill-rule:nonzero;stroke:#000;stroke-width:3.75px;"/><path id="path26708" d="M649.63,685.695l33.023,-13.208" style="fill:none;fill-rule:nonzero;stroke:#000;stroke-width:3.75px;"/><path id="path26710" d="M682.653,672.487l22.229,9.132" style="fill:none;fill-rule:nonzero;stroke:#000;stroke-width:3.75px;"/><path id="path26712" d="M657.532,751.576l14.79,6.505" style="fill:none;fill-rule:nonzero;stroke:#000;stroke-width:3.75px;"/><path id="path26714" d="M657.532,751.576l-20.516,-26.089" style="fill:none;fill-rule:nonzero;stroke:#000;stroke-width:3.75px;"/><path id="path26716" d="M353.751,488.055l-8.168,-2.502l-8.547,-1.25l-8.789,0l-8.888,1.339l-8.845,2.623l-8.654,3.866l-8.321,5.047l-7.85,6.151l-7.247,7.157l-6.522,8.044l-5.687,8.799l-4.758,9.413l-3.748,9.864l-2.676,10.154l-1.561,10.275l-0.422,10.225l0.724,10.004l1.85,9.619l2.946,9.078l3.988,8.39l4.961,7.567l5.848,6.623l6.637,5.58l7.314,4.449l1.975,0.96" style="fill:none;fill-rule:nonzero;stroke:#000;stroke-width:3.75px;"/><path id="path26718" d="M318.717,653.063l8.027,2.947l8.427,1.696l8.69,0.402l8.815,-0.87l8.802,-2.143l8.65,-3.366l8.366,-4.534l7.952,-5.622l7.417,-6.625l6.77,-7.521l6.019,-8.301l5.178,-8.951l4.257,-9.464l3.272,-9.83l2.236,-10.049l1.165,-10.114l0.067,-9.931" style="fill:none;fill-rule:nonzero;stroke:#000;stroke-width:3.75px;"/><path id="path26720" d="M383.854,499.887l-8.204,-2.508l-8.587,-1.228l-8.834,0l-8.938,1.384l-8.897,2.669l-8.709,3.925l-8.377,5.116l-7.907,6.232l-7.302,7.243l-6.576,8.141l-5.74,8.901l-4.805,9.516l-3.792,9.971l-2.715,10.261l-1.593,10.382l-0.449,10.326l0.703,10.102l1.839,9.71l2.941,9.161l3.99,8.462l4.969,7.627l5.863,6.674l6.658,5.616l7.342,4.475l1.982,0.96" style="fill:none;fill-rule:nonzero;stroke:#000;stroke-width:3.75px;"/><path id="path26722" d="M422.837,560.764l-1.014,-9.776l-2.096,-9.377l-3.15,-8.835l-4.159,-8.15l-5.107,-7.335l-5.98,-6.401l-6.763,-5.362l-7.442,-4.23l-3.273,-1.406" style="fill:none;fill-rule:nonzero;stroke:#000;stroke-width:3.75px;"/><path id="path26724" d="M417.266,562.106l-0.067,9.214l-1.076,9.302l-2.063,9.241l-3.016,9.04l-3.924,8.701l-4.77,8.225l-5.545,7.627l-6.233,6.906l-6.828,6.081l-7.319,5.158l-7.696,4.15l-7.956,3.078l-8.092,1.942l-8.101,0.781l-7.982,-0.402l-7.737,-1.562l-7.137,-2.623" style="fill:none;fill-rule:nonzero;stroke:#000;stroke-width:3.75px;"/><path id="path26726" d="M320.166,646.28l7.402,2.627l7.762,1.473l7.995,0.291l8.103,-0.893l8.082,-2.054l7.934,-3.172l7.665,-4.236l7.276,-5.239l6.777,-6.152l6.174,-6.969l5.477,-7.678l4.696,-8.268l3.843,-8.73l2.933,-9.058l1.975,-9.245l0.987,-9.293l0.022,-8.395" style="fill:none;fill-rule:nonzero;stroke:#000;stroke-width:3.75px;"/><path id="path26728" d="M381.561,506.262l7.058,3.449l6.477,4.518l5.796,5.509l5.025,6.411l4.18,7.205l3.272,7.884l2.318,8.439l1.331,8.86l0.247,3.569" style="fill:none;fill-rule:nonzero;stroke:#000;stroke-width:3.75px;"/><path id="path26730" d="M321.717,646.987l-6.895,-3.812l-6.296,-4.882l-5.593,-5.872l-4.795,-6.777l-3.915,-7.572l-2.968,-8.245l-1.969,-8.788l-0.935,-9.19l0.112,-9.435l1.171,-9.529l2.208,-9.462l3.208,-9.241l4.156,-8.864l5.033,-8.344l5.827,-7.68l6.524,-6.893l7.11,-5.994l7.578,-4.997l7.921,-3.922l8.132,-2.788l8.209,-1.607l8.154,-0.425l7.965,0.782l7.651,1.964l2.243,0.826" style="fill:none;fill-rule:nonzero;stroke:#000;stroke-width:3.75px;"/><path id="path26732" d="M415.271,561.287l-0.938,-8.982l-1.933,-8.616l-2.902,-8.114l-3.83,-7.482l-4.701,-6.732l-5.502,-5.871l-6.219,-4.917l-6.84,-3.875l-2.837,-1.228" style="fill:none;fill-rule:nonzero;stroke:#000;stroke-width:3.75px;"/><path id="path26734" d="M302.167,588.479l-0.012,-7.139l0.788,-7.221l1.572,-7.187l2.333,-7.036l3.055,-6.763l3.727,-6.386l4.337,-5.9l4.875,-5.319l5.333,-4.65l5.703,-3.908l5.978,-3.103l6.155,-2.25l6.232,-1.361l6.207,-0.447l6.083,0.447l5.861,1.361l2.832,1.005" style="fill:none;fill-rule:nonzero;stroke:#000;stroke-width:3.75px;"/><path id="path26736" d="M327.719,629.637l-5.26,-2.868l-4.806,-3.679l-4.273,-4.433l-3.669,-5.118l-3.003,-5.726l-2.288,-6.236l-1.531,-6.652l-0.721,-6.446" style="fill:none;fill-rule:nonzero;stroke:#000;stroke-width:3.75px;"/><path id="path26738" d="M329.674,630.512l5.63,2.009l5.906,1.138l6.089,0.224l6.175,-0.67l6.162,-1.562l6.053,-2.411l5.85,-3.228l5.555,-3.993l5.174,-4.694l4.714,-5.322l4.181,-5.864l3.584,-6.317l2.931,-6.669l2.232,-6.92l1.5,-7.062l0.744,-7.096l0.011,-6.353" style="fill:none;fill-rule:nonzero;stroke:#000;stroke-width:3.75px;"/><path id="path26740" d="M375.214,523.423l-5.716,-1.808l-5.985,-0.915l-6.159,-0.002l-6.235,0.915l-6.208,1.808l-6.082,2.683l-5.856,3.513l-5.533,4.29l-5.118,4.996l-4.62,5.625l-4.044,6.158l-3.402,6.592l-2.703,6.92l-1.96,7.129l-1.185,7.225l-0.393,7.199l0.406,7.058l1.197,6.801l1.966,6.431l2.701,5.96l3.39,5.393l4.022,4.741l4.587,4.011l5.076,3.223l2.314,1.139" style="fill:none;fill-rule:nonzero;stroke:#000;stroke-width:3.75px;"/><path id="path26742" d="M402.16,565.74l-0.725,-6.853l-1.487,-6.569l-2.225,-6.181l-2.933,-5.696l-3.596,-5.118l-4.204,-4.46l-4.748,-3.726l-5.218,-2.93l-1.81,-0.782" style="fill:none;fill-rule:nonzero;stroke:#000;stroke-width:3.75px;"/><path id="path26744" d="M392.247,568.126l-0.023,5.596l-0.645,5.65l-1.247,5.616l-1.831,5.495l-2.385,5.288l-2.902,4.998l-3.374,4.629l-3.793,4.188l-4.154,3.683l-4.449,3.116l-4.676,2.502l-4.829,1.853l-4.907,1.16l-4.907,0.447l-4.829,-0.268l-4.674,-0.982l-3.854,-1.407" style="fill:none;fill-rule:nonzero;stroke:#000;stroke-width:3.75px;"/><path id="path26746" d="M321.828,609.017l4.888,-0.916l4.833,-1.607l4.703,-2.265l4.499,-2.889l4.224,-3.466l3.884,-3.989l3.483,-4.446l3.029,-4.835l2.526,-5.15l1.987,-5.382l1.413,-5.531l0.819,-5.591l0.201,-5.569l-0.067,-1.719" style="fill:none;fill-rule:nonzero;stroke:#000;stroke-width:3.75px;"/><path id="path26748" d="M370.948,534.588l4.248,2.121l3.894,2.774l3.48,3.373l3.012,3.92l2.496,4.399l1.944,4.81l1.362,5.143l0.759,5.398l0.112,1.584" style="fill:none;fill-rule:nonzero;stroke:#000;stroke-width:3.75px;"/><path id="path26750" d="M334.756,619.693l-4.188,-2.261l-3.829,-2.907l-3.405,-3.508l-2.928,-4.052l-2.4,-4.533l-1.832,-4.942l-1.234,-5.272l-0.614,-5.516l0.016,-5.672l0.648,-5.732l1.27,-5.703l1.87,-5.576l2.442,-5.362l2.972,-5.058l3.454,-4.672l3.879,-4.209l4.24,-3.681l4.532,-3.089l4.75,-2.454l4.889,-1.785l4.949,-1.072l4.93,-0.357l4.831,0.38l4.654,1.094l2.294,0.825" style="fill:none;fill-rule:nonzero;stroke:#000;stroke-width:3.75px;"/><path id="path26752" d="M362.267,555.651l-3.911,-16.206l-4.117,-6.825" style="fill:none;fill-rule:nonzero;stroke:#000;stroke-width:3.75px;"/><path id="path26754" d="M523.094,735.782l39.93,18.147" style="fill:none;fill-rule:nonzero;stroke:#000;stroke-width:3.75px;"/><path id="path26756" d="M625.982,605.878l-40.769,-16.172" style="fill:none;fill-rule:nonzero;stroke:#000;stroke-width:3.75px;"/><path id="path26758" d="M541.327,540.885l-1.766,-0.67" style="fill:none;fill-rule:nonzero;stroke:#000;stroke-width:3.75px;"/><path id="path26760" d="M457.788,580.445l-1.12,1.049l-2.344,2.317" style="fill:none;fill-rule:nonzero;stroke:#000;stroke-width:3.75px;"/><path id="path26762" d="M441.295,600.865l-1.145,1.986l-1.814,3.389" style="fill:none;fill-rule:nonzero;stroke:#000;stroke-width:3.75px;"/><path id="path26764" d="M430.77,626.376l-0.498,2.076l-0.757,3.674" style="fill:none;fill-rule:nonzero;stroke:#000;stroke-width:3.75px;"/><path id="path26766" d="M428.44,656.894l0.089,0.803" style="fill:none;fill-rule:nonzero;stroke:#000;stroke-width:3.75px;"/><path id="path26768" d="M1120.84,789.612l-47.818,-18.797" style="fill:none;fill-rule:nonzero;stroke:#000;stroke-width:3.75px;"/><path id="path26770" d="M991.919,961.536l46.711,21.401" style="fill:none;fill-rule:nonzero;stroke:#000;stroke-width:3.75px;"/><path id="path26772" d="M1109.39,820.014l-3.481,-1.407" style="fill:none;fill-rule:nonzero;stroke:#000;stroke-width:3.75px;"/><path id="path26774" d="M1049.16,952.062l3.425,1.54" style="fill:none;fill-rule:nonzero;stroke:#000;stroke-width:3.75px;"/><path id="path26776" d="M767.095,900.203l5.71,2.692" style="fill:none;fill-rule:nonzero;stroke:#000;stroke-width:3.75px;"/><path id="path26778" d="M878.788,653.675l-6.383,-2.431" style="fill:none;fill-rule:nonzero;stroke:#000;stroke-width:3.75px;"/><path id="path26780" d="M811.952,831.087l38.822,17.214" style="fill:none;fill-rule:nonzero;stroke:#000;stroke-width:3.75px;"/><path id="path26782" d="M893.553,747.706l-39.329,-16.022" style="fill:none;fill-rule:nonzero;stroke:#000;stroke-width:3.75px;"/><path id="path26784" d="M719.569,877.808l5.543,2.612" style="fill:none;fill-rule:nonzero;stroke:#000;stroke-width:3.75px;"/><path id="path26786" d="M829.97,635.088l-6.182,-2.355" style="fill:none;fill-rule:nonzero;stroke:#000;stroke-width:3.75px;"/><path id="path26788" d="M801.576,844.507l3.414,1.54" style="fill:none;fill-rule:nonzero;stroke:#000;stroke-width:3.75px;"/><path id="path26790" d="M860.165,716.297l-3.473,-1.383" style="fill:none;fill-rule:nonzero;stroke:#000;stroke-width:3.75px;"/><path id="path26792" d="M289.311,639.59l29.406,13.473" style="fill:none;fill-rule:nonzero;stroke:#000;stroke-width:3.75px;"/><path id="path26794" d="M383.854,499.887l-30.103,-11.832" style="fill:none;fill-rule:nonzero;stroke:#000;stroke-width:3.75px;"/><path id="path26796" d="M327.719,629.637l1.956,0.871" style="fill:none;fill-rule:nonzero;stroke:#000;stroke-width:3.75px;"/><path id="path26798" d="M375.214,523.423l-1.986,-0.803" style="fill:none;fill-rule:nonzero;stroke:#000;stroke-width:3.75px;"/><path id="path26800" d="M695.934,740.239l-0.201,0" style="fill:none;fill-rule:nonzero;stroke:#000;stroke-width:3.75px;"/><path id="path26802" d="M719.8,750.525l0.599,0.225" style="fill:none;fill-rule:nonzero;stroke:#000;stroke-width:3.75px;"/><path id="path26804" d="M720.919,750.741l-3.12,-1.428l-2.038,-0.871" style="fill:none;fill-rule:nonzero;stroke:#000;stroke-width:3.75px;"/><path id="path26806" d="M747.315,697.755l0.65,2.098l-2.256,0.224l-4.791,-1.719l-6.565,-3.353l-7.311,-4.464l-3.984,-2.721" style="fill:none;fill-rule:nonzero;stroke:#000;stroke-width:3.75px;"/><path id="path26808" d="M712.635,782.849l2.02,-1.273l-1.381,-1.942l-4.548,-2.308l-6.987,-2.31l-8.33,-1.964l-4.757,-0.826" style="fill:none;fill-rule:nonzero;stroke:#000;stroke-width:3.75px;"/><path id="path26810" d="M769.13,674.461l-0.44,3.448l-2.939,1.049l-4.964,-1.495l-6.2,-3.788l-6.468,-5.489l-3.351,-3.493" style="fill:none;fill-rule:nonzero;stroke:#000;stroke-width:3.75px;"/><path id="path26812" d="M712.065,814.46l2.181,-2.98l-1.277,-3.022l-4.514,-2.585l-7.027,-1.741l-8.438,-0.647l-4.841,0.225" style="fill:none;fill-rule:nonzero;stroke:#000;stroke-width:3.75px;"/><path id="path26814" d="M793.753,657.641l-1.703,4.474l-3.731,1.696l-5.158,-1.317l-5.772,-4.114l-5.483,-6.261l-2.614,-4.076" style="fill:none;fill-rule:nonzero;stroke:#000;stroke-width:3.75px;"/><path id="path26816" d="M718.075,843.277l1.984,-4.574l-1.392,-4.022l-4.533,-2.842l-6.946,-1.227l-8.268,0.58l-4.715,1.094" style="fill:none;fill-rule:nonzero;stroke:#000;stroke-width:3.75px;"/><path id="path26818" d="M819.539,648.338l-1.458,3.145" style="fill:none;fill-rule:nonzero;stroke:#000;stroke-width:3.75px;"/><path id="path26820" d="M804.399,652.976l-5.055,-5.375l-3.876,-7.417l-0.476,-1.317" style="fill:none;fill-rule:nonzero;stroke:#000;stroke-width:3.75px;"/><path id="path26822" d="M730.199,867.442l1.015,-2.648" style="fill:none;fill-rule:nonzero;stroke:#000;stroke-width:3.75px;"/><path id="path26824" d="M721.913,852.855l-7.479,0.533l-7.915,2.842l-0.178,0" style="fill:none;fill-rule:nonzero;stroke:#000;stroke-width:3.75px;"/><path id="path26826" d="M823.183,646.818l-2.698,-7.538l-0.292,-1.652" style="fill:none;fill-rule:nonzero;stroke:#000;stroke-width:3.75px;"/><path id="path26828" d="M731.33,870.152l-7.12,3.737l-0.497,0.358" style="fill:none;fill-rule:nonzero;stroke:#000;stroke-width:3.75px;"/><path id="path26830" d="M843.355,646.675l-0.067,-2.357" style="fill:none;fill-rule:nonzero;stroke:#000;stroke-width:3.75px;"/><path id="path26832" d="M745.441,884.712l-0.328,0.338" style="fill:none;fill-rule:nonzero;stroke:#000;stroke-width:3.75px;"/><path id="path21626-51-2" d="M705.694,580.268l-30.136,-25.579l39.456,2.381l-9.32,23.198Z" style="fill-rule:nonzero;"/><path d="M812.669,609.777c0,0 -69.196,-27.802 -109.274,-43.904" style="fill:none;fill-rule:nonzero;stroke:#000;stroke-width:4.17px;stroke-linecap:butt;"/><path id="path21626-51-2-8" d="M967.694,708.938l-30.137,-25.579l39.457,2.382l-9.32,23.197Z" style="fill-rule:nonzero;"/><path d="M1074.67,738.447c0,0 -69.196,-27.801 -109.274,-43.904" style="fill:none;fill-rule:nonzero;stroke:#000;stroke-width:4.17px;stroke-linecap:butt;"/><path id="path21626-51-2-1" d="M452.59,483.673l28.958,26.907l-39.31,-4.151l10.352,-22.756Z" style="fill-rule:nonzero;"/><path d="M325.171,439.437c0,0 84.25,38.329 129.07,58.72" style="fill:none;fill-rule:nonzero;stroke:#000;stroke-width:4.17px;stroke-linecap:butt;"/></g></svg>