<?xml version="1.0" encoding="utf-8"?>
<!-- Generator: Adobe Illustrator 15.1.0, SVG Export Plug-In . SVG Version: 6.00 Build 0)  -->
<!DOCTYPE svg PUBLIC "-//W3C//DTD SVG 1.1//EN" "http://www.w3.org/Graphics/SVG/1.1/DTD/svg11.dtd">
<svg version="1.1" id="Layer_1" xmlns="http://www.w3.org/2000/svg" xmlns:xlink="http://www.w3.org/1999/xlink" x="0px" y="0px"
	 width="198.43px" height="141.73px" viewBox="0 0 198.43 141.73" enable-background="new 0 0 198.43 141.73" xml:space="preserve">
<g>
	<g>
		<g id="INSERT_11_">
			<g id="LINE_4574_">
				
					<line fill="none" stroke="#12100B" stroke-width="0.7087" stroke-linecap="round" stroke-linejoin="round" stroke-miterlimit="10" x1="114.49" y1="108.014" x2="121.429" y2="108.014"/>
			</g>
			<g id="LINE_4572_">
				
					<line fill="none" stroke="#12100B" stroke-width="0.7087" stroke-linecap="round" stroke-linejoin="round" stroke-miterlimit="10" x1="121.429" y1="90.671" x2="55.524" y2="90.671"/>
			</g>
			<g id="LINE_4570_">
				
					<line fill="none" stroke="#12100B" stroke-width="0.7087" stroke-linecap="round" stroke-linejoin="round" stroke-miterlimit="10" x1="121.429" y1="108.014" x2="121.429" y2="90.671"/>
			</g>
			<g id="LINE_4569_">
				
					<line fill="none" stroke="#12100B" stroke-width="0.7087" stroke-linecap="round" stroke-linejoin="round" stroke-miterlimit="10" x1="55.524" y1="90.671" x2="52.057" y2="90.671"/>
			</g>
			<g id="LINE_4566_">
				
					<line fill="none" stroke="#12100B" stroke-width="0.7087" stroke-linecap="round" stroke-linejoin="round" stroke-miterlimit="10" x1="124.896" y1="90.671" x2="121.429" y2="90.671"/>
			</g>
			<g id="LINE_4565_">
				
					<line fill="none" stroke="#12100B" stroke-width="0.7087" stroke-linecap="round" stroke-linejoin="round" stroke-miterlimit="10" x1="121.429" y1="108.014" x2="124.896" y2="108.014"/>
			</g>
			<g id="LINE_4564_">
				
					<line fill="none" stroke="#12100B" stroke-width="0.7087" stroke-linecap="round" stroke-linejoin="round" stroke-miterlimit="10" x1="124.896" y1="108.014" x2="124.896" y2="90.671"/>
			</g>
			<g id="LINE_4563_">
				
					<path fill="none" stroke="#12100B" stroke-width="0.7087" stroke-linecap="round" stroke-linejoin="round" stroke-miterlimit="10" d="
					M114.49,108.014c-9.011,0-18.021,0-27.031,0"/>
			</g>
			<g id="LINE_4561_">
				
					<path fill="none" stroke="#12100B" stroke-width="0.7087" stroke-linecap="round" stroke-linejoin="round" stroke-miterlimit="10" d="
					M114.49,108.014"/>
			</g>
			<g id="LINE_4559_">
				
					<path fill="none" stroke="#12100B" stroke-width="0.7087" stroke-linecap="round" stroke-linejoin="round" stroke-miterlimit="10" d="
					M124.896,108.014"/>
			</g>
			<g id="LWPOLYLINE_5529_">
				
					<polyline fill="none" stroke="#12100B" stroke-width="0.7087" stroke-linecap="round" stroke-linejoin="round" stroke-miterlimit="10" points="
					124.896,87.203 124.369,87.203 122.864,87.203 120.615,87.203 117.96,87.203 				"/>
			</g>
			<g id="LWPOLYLINE_5528_">
				
					<polyline fill="none" stroke="#12100B" stroke-width="0.7087" stroke-linecap="round" stroke-linejoin="round" stroke-miterlimit="10" points="
					58.994,87.203 56.338,87.203 54.089,87.203 52.584,87.203 52.057,87.203 				"/>
			</g>
			<g id="LINE_4557_">
				
					<line fill="none" stroke="#12100B" stroke-width="0.7087" stroke-linecap="round" stroke-linejoin="round" stroke-miterlimit="10" x1="117.96" y1="87.203" x2="58.994" y2="87.203"/>
			</g>
			<g id="LWPOLYLINE_5521_">
				
					<polyline fill="none" stroke="#12100B" stroke-width="0.7087" stroke-linecap="round" stroke-linejoin="round" stroke-miterlimit="10" points="
					52.057,82 52.057,83.99 52.057,85.678 52.057,86.807 52.057,87.203 				"/>
			</g>
			<g id="LWPOLYLINE_5520_">
				
					<polyline fill="none" stroke="#12100B" stroke-width="0.7087" stroke-linecap="round" stroke-linejoin="round" stroke-miterlimit="10" points="
					124.896,87.203 124.896,86.807 124.896,85.678 124.896,83.99 124.896,82 				"/>
			</g>
			<g id="LINE_4553_">
				
					<line fill="none" stroke="#12100B" stroke-width="0.7087" stroke-linecap="round" stroke-linejoin="round" stroke-miterlimit="10" x1="101.578" y1="70.093" x2="101.578" y2="68.288"/>
			</g>
			<g id="LWPOLYLINE_5518_">
				
					<polygon fill="none" stroke="#12100B" stroke-width="0.7087" stroke-linecap="round" stroke-linejoin="round" stroke-miterlimit="10" points="
					103.651,72.945 105.366,73.501 107.159,73.313 108.72,72.413 109.78,70.953 110.156,69.189 109.78,67.428 108.72,65.968 
					107.159,65.067 105.366,64.878 103.651,65.436 102.313,66.643 101.578,68.288 101.482,69.189 101.578,70.093 102.313,71.738 
									"/>
			</g>
			<g id="LINE_4552_">
				
					<path fill="none" stroke="#12100B" stroke-width="0.7087" stroke-linecap="round" stroke-linejoin="round" stroke-miterlimit="10" d="
					M124.896,82c-1.688-6.91-3.377-13.819-5.066-20.728"/>
			</g>
			<g id="LINE_4551_">
				
					<path fill="none" stroke="#12100B" stroke-width="0.7087" stroke-linecap="round" stroke-linejoin="round" stroke-miterlimit="10" d="
					M62.783,38.122C59.207,52.748,55.633,67.375,52.057,82"/>
			</g>
			<g id="LWPOLYLINE_5517_">
				
					<polyline fill="none" stroke="#12100B" stroke-width="0.7087" stroke-linecap="round" stroke-linejoin="round" stroke-miterlimit="10" points="
					67.51,85.902 67.418,85.902 67.153,85.902 66.717,85.902 66.125,85.902 65.396,85.902 64.553,85.902 63.617,85.902 
					62.621,85.902 61.595,85.902 60.568,85.902 59.572,85.902 58.638,85.902 57.794,85.902 57.065,85.902 56.474,85.902 
					56.038,85.902 55.771,85.902 55.682,85.902 				"/>
			</g>
			<g id="LWPOLYLINE_5513_">
				
					<polyline fill="none" stroke="#12100B" stroke-width="0.7087" stroke-linecap="round" stroke-linejoin="round" stroke-miterlimit="10" points="
					65.736,80.796 65.494,80.796 65.028,80.796 64.36,80.796 63.533,80.796 62.593,80.796 61.595,80.796 60.597,80.796 
					59.656,80.796 58.828,80.796 58.163,80.796 57.694,80.796 57.454,80.796 				"/>
			</g>
			<g id="LWPOLYLINE_5512_">
				
					<polyline fill="none" stroke="#12100B" stroke-width="0.7087" stroke-linecap="round" stroke-linejoin="round" stroke-miterlimit="10" points="
					56.938,81.315 57.209,81.315 57.734,81.315 58.483,81.315 59.415,81.315 60.472,81.315 61.595,81.315 62.719,81.315 
					63.775,81.315 64.706,81.315 65.456,81.315 65.98,81.315 66.252,81.315 				"/>
			</g>
			<g id="LWPOLYLINE_5510_">
				
					<polyline fill="none" stroke="#12100B" stroke-width="0.7087" stroke-linecap="round" stroke-linejoin="round" stroke-miterlimit="10" points="
					94.92,83.646 96.202,83.646 96.959,83.646 97.137,83.646 				"/>
			</g>
			<g id="LWPOLYLINE_5471_">
				
					<polyline fill="none" stroke="#12100B" stroke-width="0.7087" stroke-linecap="round" stroke-linejoin="round" stroke-miterlimit="10" points="
					79.817,83.646 80.229,83.646 81.205,83.646 82.675,83.646 84.539,83.646 86.673,83.646 88.929,83.646 91.156,83.646 
					93.199,83.646 94.92,83.646 				"/>
			</g>
			<g id="LWPOLYLINE_5468_">
				
					<polygon fill="none" stroke="#12100B" stroke-width="0.7087" stroke-linecap="round" stroke-linejoin="round" stroke-miterlimit="10" points="
					94.711,68.846 94.639,69.469 94.432,70.054 94.099,70.57 93.658,70.988 93.139,71.278 92.567,71.429 91.979,71.429 
					91.41,71.278 90.891,70.988 90.45,70.57 90.116,70.054 89.908,69.469 89.838,68.846 89.908,68.224 90.116,67.638 90.45,67.121 
					90.891,66.704 91.41,66.413 91.979,66.264 92.567,66.264 93.139,66.413 93.658,66.704 94.099,67.121 94.432,67.638 
					94.639,68.224 				"/>
			</g>
			<g id="LINE_4550_">
				
					<line fill="none" stroke="#12100B" stroke-width="0.7087" stroke-linecap="round" stroke-linejoin="round" stroke-miterlimit="10" x1="91.482" y1="70.309" x2="90.69" y2="68.846"/>
			</g>
			<g id="LINE_4549_">
				
					<line fill="none" stroke="#12100B" stroke-width="0.7087" stroke-linecap="round" stroke-linejoin="round" stroke-miterlimit="10" x1="93.063" y1="70.309" x2="91.482" y2="70.309"/>
			</g>
			<g id="LINE_4548_">
				
					<line fill="none" stroke="#12100B" stroke-width="0.7087" stroke-linecap="round" stroke-linejoin="round" stroke-miterlimit="10" x1="91.482" y1="67.384" x2="93.063" y2="67.384"/>
			</g>
			<g id="LINE_4547_">
				
					<line fill="none" stroke="#12100B" stroke-width="0.7087" stroke-linecap="round" stroke-linejoin="round" stroke-miterlimit="10" x1="90.69" y1="68.846" x2="91.482" y2="67.384"/>
			</g>
			<g id="LINE_4546_">
				
					<line fill="none" stroke="#12100B" stroke-width="0.7087" stroke-linecap="round" stroke-linejoin="round" stroke-miterlimit="10" x1="93.063" y1="67.384" x2="93.857" y2="68.846"/>
			</g>
			<g id="LINE_4545_">
				
					<line fill="none" stroke="#12100B" stroke-width="0.7087" stroke-linecap="round" stroke-linejoin="round" stroke-miterlimit="10" x1="93.857" y1="68.846" x2="93.063" y2="70.309"/>
			</g>
			<g id="LINE_4544_">
				
					<line fill="none" stroke="#12100B" stroke-width="0.7087" stroke-linecap="round" stroke-linejoin="round" stroke-miterlimit="10" x1="93.248" y1="68.846" x2="93.857" y2="68.846"/>
			</g>
			<g id="LINE_4543_">
				
					<line fill="none" stroke="#12100B" stroke-width="0.7087" stroke-linecap="round" stroke-linejoin="round" stroke-miterlimit="10" x1="92.457" y1="67.384" x2="93.248" y2="68.846"/>
			</g>
			<g id="LINE_4542_">
				
					<line fill="none" stroke="#12100B" stroke-width="0.7087" stroke-linecap="round" stroke-linejoin="round" stroke-miterlimit="10" x1="93.248" y1="68.846" x2="92.457" y2="70.309"/>
			</g>
			<g id="LWPOLYLINE_5465_">
				
					<polygon fill="none" stroke="#12100B" stroke-width="0.7087" stroke-linecap="round" stroke-linejoin="round" stroke-miterlimit="10" points="
					94.711,54.972 94.639,55.596 94.432,56.183 94.099,56.697 93.658,57.113 93.139,57.405 92.567,57.556 91.979,57.556 
					91.41,57.405 90.891,57.113 90.45,56.697 90.116,56.183 89.908,55.596 89.838,54.972 89.908,54.349 90.116,53.763 90.45,53.247 
					90.891,52.831 91.41,52.539 91.979,52.39 92.567,52.39 93.139,52.539 93.658,52.831 94.099,53.247 94.432,53.763 94.639,54.349 
									"/>
			</g>
			<g id="LINE_4523_">
				
					<line fill="none" stroke="#12100B" stroke-width="0.7087" stroke-linecap="round" stroke-linejoin="round" stroke-miterlimit="10" x1="91.482" y1="56.436" x2="90.69" y2="54.972"/>
			</g>
			<g id="LINE_4522_">
				
					<line fill="none" stroke="#12100B" stroke-width="0.7087" stroke-linecap="round" stroke-linejoin="round" stroke-miterlimit="10" x1="90.69" y1="54.972" x2="91.482" y2="53.509"/>
			</g>
			<g id="LINE_4521_">
				
					<line fill="none" stroke="#12100B" stroke-width="0.7087" stroke-linecap="round" stroke-linejoin="round" stroke-miterlimit="10" x1="93.063" y1="56.436" x2="91.482" y2="56.436"/>
			</g>
			<g id="LINE_4520_">
				
					<line fill="none" stroke="#12100B" stroke-width="0.7087" stroke-linecap="round" stroke-linejoin="round" stroke-miterlimit="10" x1="93.063" y1="53.509" x2="93.857" y2="54.972"/>
			</g>
			<g id="LINE_4519_">
				
					<line fill="none" stroke="#12100B" stroke-width="0.7087" stroke-linecap="round" stroke-linejoin="round" stroke-miterlimit="10" x1="91.482" y1="53.509" x2="93.063" y2="53.509"/>
			</g>
			<g id="LINE_4518_">
				
					<line fill="none" stroke="#12100B" stroke-width="0.7087" stroke-linecap="round" stroke-linejoin="round" stroke-miterlimit="10" x1="93.857" y1="54.972" x2="93.063" y2="56.436"/>
			</g>
			<g id="LINE_4517_">
				
					<line fill="none" stroke="#12100B" stroke-width="0.7087" stroke-linecap="round" stroke-linejoin="round" stroke-miterlimit="10" x1="93.248" y1="54.972" x2="92.457" y2="56.436"/>
			</g>
			<g id="LINE_4516_">
				
					<line fill="none" stroke="#12100B" stroke-width="0.7087" stroke-linecap="round" stroke-linejoin="round" stroke-miterlimit="10" x1="93.857" y1="54.972" x2="93.248" y2="54.972"/>
			</g>
			<g id="LINE_4515_">
				
					<line fill="none" stroke="#12100B" stroke-width="0.7087" stroke-linecap="round" stroke-linejoin="round" stroke-miterlimit="10" x1="92.457" y1="53.509" x2="93.248" y2="54.972"/>
			</g>
			<g id="LINE_4513_">
				
					<line fill="none" stroke="#12100B" stroke-width="0.7087" stroke-linecap="round" stroke-linejoin="round" stroke-miterlimit="10" x1="71.134" y1="46.953" x2="67.862" y2="45.064"/>
			</g>
			<g id="LWPOLYLINE_5464_">
				
					<polyline fill="none" stroke="#12100B" stroke-width="0.7087" stroke-linecap="round" stroke-linejoin="round" stroke-miterlimit="10" points="
					67.009,38.312 66.252,39.029 65.477,40.176 64.964,41.463 64.74,42.828 64.813,44.212 65.185,45.545 65.833,46.769 
					66.729,47.825 67.833,48.662 69.09,49.245 70.441,49.542 71.826,49.542 73.179,49.245 74.436,48.662 75.537,47.825 
					76.436,46.769 77.082,45.545 77.454,44.212 77.486,43.606 				"/>
			</g>
			<g id="LINE_4511_">
				
					<line fill="none" stroke="#12100B" stroke-width="0.7087" stroke-linecap="round" stroke-linejoin="round" stroke-miterlimit="10" x1="67.862" y1="45.064" x2="67.862" y2="41.286"/>
			</g>
			<g id="LINE_4510_">
				
					<line fill="none" stroke="#12100B" stroke-width="0.7087" stroke-linecap="round" stroke-linejoin="round" stroke-miterlimit="10" x1="74.405" y1="45.064" x2="71.134" y2="46.953"/>
			</g>
			<g id="LWPOLYLINE_5463_">
				
					<path fill="none" stroke="#12100B" stroke-width="0.7087" stroke-linecap="round" stroke-linejoin="round" stroke-miterlimit="10" d="
					M65.152,39.119c-6.034,8.766,9.476,16.474,12.834,6.394"/>
			</g>
			<g id="LWPOLYLINE_5461_">
				
					<polygon fill="none" stroke="#12100B" stroke-width="0.7087" stroke-linecap="round" stroke-linejoin="round" stroke-miterlimit="10" points="
					71.134,62.784 72.511,62.935 73.823,63.378 75.009,64.092 76.014,65.044 76.792,66.19 77.305,67.477 77.528,68.845 
					77.454,70.225 77.082,71.561 76.436,72.785 75.537,73.839 74.436,74.678 73.179,75.258 71.826,75.556 70.441,75.556 
					69.09,75.258 67.833,74.678 66.729,73.839 65.833,72.785 65.185,71.561 64.813,70.225 64.74,68.845 64.964,67.477 65.477,66.19 
					66.252,65.044 67.258,64.092 68.445,63.378 69.758,62.935 				"/>
			</g>
			<g id="LWPOLYLINE_5460_">
				
					<polyline fill="none" stroke="#12100B" stroke-width="0.7087" stroke-linecap="round" stroke-linejoin="round" stroke-miterlimit="10" points="
					71.134,61.918 69.57,62.089 68.081,62.592 66.733,63.401 65.592,64.483 64.71,65.784 64.128,67.245 63.873,68.797 
					63.958,70.365 64.38,71.881 65.116,73.27 66.134,74.47 67.385,75.419 68.813,76.079 70.348,76.419 71.92,76.419 73.455,76.079 
					74.881,75.419 76.134,74.47 77.152,73.27 77.889,71.881 78.086,71.171 				"/>
			</g>
			<g id="LWPOLYLINE_5459_">
				
					<polyline fill="none" stroke="#12100B" stroke-width="0.7087" stroke-linecap="round" stroke-linejoin="round" stroke-miterlimit="10" points="
					78.086,67.108 77.558,65.784 76.677,64.483 75.535,63.401 74.188,62.592 72.696,62.089 71.134,61.918 				"/>
			</g>
			<g id="LINE_4508_">
				
					<line fill="none" stroke="#12100B" stroke-width="0.7087" stroke-linecap="round" stroke-linejoin="round" stroke-miterlimit="10" x1="67.862" y1="71.078" x2="67.862" y2="67.3"/>
			</g>
			<g id="LINE_4507_">
				
					<line fill="none" stroke="#12100B" stroke-width="0.7087" stroke-linecap="round" stroke-linejoin="round" stroke-miterlimit="10" x1="67.862" y1="67.3" x2="71.134" y2="65.412"/>
			</g>
			<g id="LINE_4506_">
				
					<line fill="none" stroke="#12100B" stroke-width="0.7087" stroke-linecap="round" stroke-linejoin="round" stroke-miterlimit="10" x1="71.134" y1="65.412" x2="74.405" y2="67.3"/>
			</g>
			<g id="LINE_4505_">
				
					<line fill="none" stroke="#12100B" stroke-width="0.7087" stroke-linecap="round" stroke-linejoin="round" stroke-miterlimit="10" x1="74.405" y1="67.3" x2="74.405" y2="71.078"/>
			</g>
			<g id="LINE_4474_">
				
					<line fill="none" stroke="#12100B" stroke-width="0.7087" stroke-linecap="round" stroke-linejoin="round" stroke-miterlimit="10" x1="71.134" y1="72.969" x2="67.862" y2="71.078"/>
			</g>
			<g id="LINE_4473_">
				
					<line fill="none" stroke="#12100B" stroke-width="0.7087" stroke-linecap="round" stroke-linejoin="round" stroke-miterlimit="10" x1="74.405" y1="71.078" x2="71.134" y2="72.969"/>
			</g>
			<g id="LINE_4456_">
				
					<line fill="none" stroke="#12100B" stroke-width="0.7087" stroke-linecap="round" stroke-linejoin="round" stroke-miterlimit="10" x1="124.896" y1="90.671" x2="124.896" y2="87.203"/>
			</g>
			<g id="LINE_4455_">
				
					<line fill="none" stroke="#12100B" stroke-width="0.7087" stroke-linecap="round" stroke-linejoin="round" stroke-miterlimit="10" x1="52.057" y1="87.203" x2="52.057" y2="90.671"/>
			</g>
			<g id="LINE_4452_">
				
					<line fill="none" stroke="#12100B" stroke-width="0.7087" stroke-linecap="round" stroke-linejoin="round" stroke-miterlimit="10" x1="67.51" y1="87.203" x2="67.51" y2="85.902"/>
			</g>
			<g id="LINE_4451_">
				
					<line fill="none" stroke="#12100B" stroke-width="0.7087" stroke-linecap="round" stroke-linejoin="round" stroke-miterlimit="10" x1="55.682" y1="85.902" x2="55.682" y2="87.203"/>
			</g>
			<g id="LINE_4447_">
				
					<path fill="none" stroke="#12100B" stroke-width="0.7087" stroke-linecap="round" stroke-linejoin="round" stroke-miterlimit="10" d="
					M110.701,81.315"/>
			</g>
			<g id="LINE_4444_">
				
					<line fill="none" stroke="#12100B" stroke-width="0.7087" stroke-linecap="round" stroke-linejoin="round" stroke-miterlimit="10" x1="66.252" y1="81.315" x2="65.736" y2="80.796"/>
			</g>
			<g id="LINE_4443_">
				
					<line fill="none" stroke="#12100B" stroke-width="0.7087" stroke-linecap="round" stroke-linejoin="round" stroke-miterlimit="10" x1="56.938" y1="81.315" x2="57.454" y2="80.796"/>
			</g>
			<g id="LINE_4442_">
				
					<line fill="none" stroke="#12100B" stroke-width="0.7087" stroke-linecap="round" stroke-linejoin="round" stroke-miterlimit="10" x1="66.252" y1="85.902" x2="66.252" y2="81.315"/>
			</g>
			<g id="LINE_4441_">
				
					<line fill="none" stroke="#12100B" stroke-width="0.7087" stroke-linecap="round" stroke-linejoin="round" stroke-miterlimit="10" x1="56.938" y1="85.902" x2="56.938" y2="81.315"/>
			</g>
			<g id="LINE_4440_">
				
					<line fill="none" stroke="#12100B" stroke-width="0.7087" stroke-linecap="round" stroke-linejoin="round" stroke-miterlimit="10" x1="98.869" y1="81.913" x2="97.137" y2="83.646"/>
			</g>
			<g id="LINE_4439_">
				
					<line fill="none" stroke="#12100B" stroke-width="0.7087" stroke-linecap="round" stroke-linejoin="round" stroke-miterlimit="10" x1="78.086" y1="81.913" x2="79.817" y2="83.646"/>
			</g>
			<g id="LINE_4438_">
				
					<path fill="none" stroke="#12100B" stroke-width="0.7087" stroke-linecap="round" stroke-linejoin="round" stroke-miterlimit="10" d="
					M98.869,81.913c0-8.794,0-17.586,0-26.377"/>
			</g>
			<g id="LINE_4437_">
				
					<path fill="none" stroke="#12100B" stroke-width="0.7087" stroke-linecap="round" stroke-linejoin="round" stroke-miterlimit="10" d="
					M78.086,81.913c0-11.912,0-23.825,0-35.736"/>
			</g>
			<g id="LINE_4434_">
				
					<line fill="none" stroke="#12100B" stroke-width="0.7087" stroke-linecap="round" stroke-linejoin="round" stroke-miterlimit="10" x1="91.827" y1="71.429" x2="91.979" y2="71.429"/>
			</g>
			<g id="LINE_4433_">
				
					<line fill="none" stroke="#12100B" stroke-width="0.7087" stroke-linecap="round" stroke-linejoin="round" stroke-miterlimit="10" x1="91.827" y1="66.264" x2="91.979" y2="66.264"/>
			</g>
			<g id="LINE_4428_">
				
					<line fill="none" stroke="#12100B" stroke-width="0.7087" stroke-linecap="round" stroke-linejoin="round" stroke-miterlimit="10" x1="91.827" y1="57.556" x2="91.979" y2="57.556"/>
			</g>
			<g id="LINE_4427_">
				
					<line fill="none" stroke="#12100B" stroke-width="0.7087" stroke-linecap="round" stroke-linejoin="round" stroke-miterlimit="10" x1="91.827" y1="52.39" x2="91.979" y2="52.39"/>
			</g>
			<g id="LINE_4426_">
				
					<line fill="none" stroke="#12100B" stroke-width="0.7087" stroke-linecap="round" stroke-linejoin="round" stroke-miterlimit="10" x1="84.141" y1="87.203" x2="84.141" y2="83.646"/>
			</g>
			<g id="LINE_4421_">
				
					<line fill="none" stroke="#12100B" stroke-width="0.7087" stroke-linecap="round" stroke-linejoin="round" stroke-miterlimit="10" x1="92.812" y1="87.203" x2="92.812" y2="83.646"/>
			</g>
			<g id="LWPOLYLINE_5452_">
				
					<path fill="none" stroke="#12100B" stroke-width="0.7087" stroke-linecap="round" stroke-linejoin="round" stroke-miterlimit="10" d="
					M53.79,74.905"/>
			</g>
			<g id="LINE_4400_">
				
					<line fill="none" stroke="#12100B" stroke-width="0.7087" stroke-linecap="round" stroke-linejoin="round" stroke-miterlimit="10" x1="117.96" y1="87.203" x2="117.96" y2="90.671"/>
			</g>
			<g id="LINE_4398_">
				
					<line fill="none" stroke="#12100B" stroke-width="0.7087" stroke-linecap="round" stroke-linejoin="round" stroke-miterlimit="10" x1="58.994" y1="90.671" x2="58.994" y2="87.203"/>
			</g>
			<g id="LINE_4394_">
				
					<path fill="none" stroke="#12100B" stroke-width="0.7087" stroke-linecap="round" stroke-linejoin="round" stroke-miterlimit="10" d="
					M120.016,82"/>
				
					<path fill="none" stroke="#12100B" stroke-width="0.7087" stroke-linecap="round" stroke-linejoin="round" stroke-miterlimit="10" d="
					M124.896,82"/>
			</g>
			<g id="LINE_4393_">
				
					<line fill="none" stroke="#12100B" stroke-width="0.7087" stroke-linecap="round" stroke-linejoin="round" stroke-miterlimit="10" x1="124.896" y1="82" x2="98.781" y2="82"/>
			</g>
			<g id="LINE_4392_">
				
					<line fill="none" stroke="#12100B" stroke-width="0.7087" stroke-linecap="round" stroke-linejoin="round" stroke-miterlimit="10" x1="78.173" y1="82" x2="66.252" y2="82"/>
			</g>
			<g id="LINE_4391_">
				
					<line fill="none" stroke="#12100B" stroke-width="0.7087" stroke-linecap="round" stroke-linejoin="round" stroke-miterlimit="10" x1="56.938" y1="82" x2="52.057" y2="82"/>
			</g>
		</g>
		
			<line fill="none" stroke="#12100B" stroke-width="0.7087" stroke-linecap="round" stroke-linejoin="round" stroke-miterlimit="10" x1="102.225" y1="83.646" x2="146.74" y2="83.646"/>
		
			<line fill="none" stroke="#12100B" stroke-width="0.7087" stroke-linecap="round" stroke-linejoin="round" stroke-miterlimit="10" x1="128.125" y1="87.203" x2="146.74" y2="87.203"/>
	</g>
	
		<line fill="none" stroke="#12100B" stroke-width="0.7087" stroke-linecap="round" stroke-linejoin="round" stroke-miterlimit="10" x1="144.847" y1="73.953" x2="144.847" y2="94.953"/>
	<text transform="matrix(0 -1 1 0 141.3809 81.7227)" font-family="'ArialRoundedMTBold'" font-size="12">1.5 mm</text>
</g>
</svg>
