<?xml version="1.0" encoding="UTF-8" standalone="no"?><!DOCTYPE svg PUBLIC "-//W3C//DTD SVG 1.1//EN" "http://www.w3.org/Graphics/SVG/1.1/DTD/svg11.dtd"><svg width="100%" height="100%" viewBox="0 0 800 572" version="1.1" xmlns="http://www.w3.org/2000/svg" xmlns:xlink="http://www.w3.org/1999/xlink" xml:space="preserve" xmlns:serif="http://www.serif.com/" style="fill-rule:evenodd;clip-rule:evenodd;stroke-linecap:round;"><g><g id="g11868"><g id="Base"><path id="path9817" d="M173.532,414.914l4.451,1.791l5.986,-0.112l6.588,-1.986l6.172,-3.545l4.809,-4.559l2.697,-4.873l0.404,-2.885" style="fill:none;stroke:#000;stroke-width:1.38px;"/><path id="path9819" d="M204.594,398.206l-1.825,-3.63l-4.186,-2.063l-5.902,-0.151l-6.68,1.801l-6.378,3.472l-5.043,4.579l-2.898,4.942l-0.303,4.512l2.153,3.246" style="fill:none;stroke:#000;stroke-width:1.38px;"/><path id="path9821" d="M163.396,406.967l-2.098,-2.433" style="fill:none;stroke:#000;stroke-width:1.38px;"/><path id="path9823" d="M204.639,398.744l-0.045,-0.538" style="fill:none;stroke:#000;stroke-width:1.38px;"/><path id="path9825" d="M199.886,400.419l-0.793,3.347l-2.535,3.469l-3.877,3.05l-4.615,2.16l-4.639,0.935l-3.941,-0.441l-2.621,-1.757l-0.332,-0.503" style="fill:none;stroke:#000;stroke-width:1.38px;"/><path id="path9827" d="M202.14,382.849l-0.592,-1.261" style="fill:none;stroke:#000;stroke-width:1.38px;"/><path id="path9829" d="M200.226,372.554l-0.585,-1.906l-0.973,-1.72l-1.348,-1.505l-1.704,-1.266l-2.032,-1.003l-2.331,-0.725l-2.592,-0.431l-2.812,-0.132l-2.986,0.172l-3.113,0.477l-3.188,0.771l-3.209,1.055l-3.179,1.322l-3.094,1.566l-2.957,1.786l-2.773,1.974l-2.541,2.13l-2.269,2.251l-1.957,2.333l-1.616,2.377l-1.249,2.382l-0.862,2.347l-0.464,2.274l-0.058,2.164l0.345,2.02l0.74,1.845l1.123,1.639l0.9,0.921" style="fill:none;stroke:#000;stroke-width:1.38px;"/><path id="path9831" d="M187.727,358.252l-4.222,-3.635l-6.758,-1.342l-8.231,1.195l-8.374,3.558l-7.151,5.346l-4.766,6.259l-1.629,6.152l0.037,0.739" style="fill:none;stroke:#000;stroke-width:1.38px;"/><path id="path9833" d="M202.037,382.645l1.007,3.014" style="fill:none;stroke:#000;stroke-width:1.38px;"/><path id="path9835" d="M161.298,404.534l-0.876,-5.382l2.526,-6.279l5.554,-6.17l7.696,-5.051l8.584,-3.107l8.071,-0.664l6.261,1.862l2.923,2.902" style="fill:none;stroke:#000;stroke-width:1.38px;"/><path id="path9837" d="M146.633,376.524l0.974,3.239" style="fill:none;stroke:#000;stroke-width:1.38px;"/><path id="path9839" d="M160.636,403.569l0.656,0.996" style="fill:none;stroke:#000;stroke-width:1.38px;"/><path id="path9841" d="M201.548,381.588l-4.242,-3.596l-6.839,-1.271l-8.361,1.286l-8.532,3.656l-7.309,5.433l-4.899,6.322l-1.714,6.18l0.984,3.971" style="fill:none;stroke:#000;stroke-width:1.38px;"/><path id="path9843" d="M199.317,398.425l0.569,1.994" style="fill:none;stroke:#000;stroke-width:1.38px;"/><path id="path9845" d="M176.533,410.679l-0.49,-2.971l1.401,-3.476l3.077,-3.426l4.267,-2.825l4.769,-1.77l4.505,-0.432l3.523,0.968l1.732,1.678" style="fill:none;stroke:#000;stroke-width:1.38px;"/><path id="path9847" d="M175.772,337.876l-4.221,-3.682l-6.715,-1.405l-8.152,1.123l-8.273,3.49l-7.045,5.292l-4.671,6.229l-1.561,6.152l0.043,0.741" style="fill:none;stroke:#000;stroke-width:1.38px;"/><path id="path9849" d="M135.177,355.816l0.994,3.256" style="fill:none;stroke:#000;stroke-width:1.38px;"/><path id="path9851" d="M246.386,321.008l0.285,-0.101" style="fill:none;stroke:#000;stroke-width:1.38px;"/><path id="path9853" d="M318.064,296.59l1.006,-0.572l0.843,-0.975l0.666,-1.363l0.476,-1.733l0.278,-2.076l0.074,-2.386l-0.133,-2.659l-0.338,-2.889l-0.538,-3.07l-0.73,-3.201l-0.91,-3.278l-1.074,-3.3l-1.222,-3.266l-1.347,-3.178l-1.451,-3.034l-1.529,-2.842l-1.582,-2.602l-1.608,-2.319l-1.607,-1.998l-1.58,-1.648l-1.527,-1.271l-1.448,-0.877l-1.348,-0.469l-1.226,-0.057l-0.577,0.129" style="fill:none;stroke:#000;stroke-width:1.38px;"/><path id="path9855" d="M82.453,317.302l-1.1,2.685l0.283,4.693" style="fill:none;stroke:#000;stroke-width:1.38px;"/><path id="path9857" d="M101.329,370.423l0.521,-0.417l0.362,-0.839l0.196,-1.25l0.025,-1.644l-0.147,-2.013l-0.318,-2.352l-0.484,-2.652l-0.643,-2.91l-0.792,-3.12l-0.928,-3.278l-1.048,-3.38l-1.152,-3.427l-1.235,-3.415l-1.298,-3.345l-1.339,-3.218l-1.356,-3.039l-1.352,-2.808l-1.324,-2.531l-1.275,-2.214l-1.205,-1.862l-1.115,-1.48l-1.008,-1.078l-0.885,-0.66l-0.748,-0.234l-0.328,0.045" style="fill:none;stroke:#000;stroke-width:1.38px;"/><path id="path9859" d="M81.636,324.68l0.393,2.444l0.546,2.7l0.69,2.914l0.822,3.081l0.941,3.204l1.046,3.277l1.136,3.3l1.207,3.273l1.262,3.198l1.296,3.073l1.312,2.903l1.308,2.686l1.282,2.429l1.239,2.132l1.174,1.801l1.092,1.44l0.993,1.055l0.876,0.65l0.745,0.232l0.333,-0.048" style="fill:none;stroke:#000;stroke-width:1.38px;"/><path id="path9861" d="M130.946,351.701l-3.495,-0.284l-3.243,-0.658l-2.936,-1.023l-2.583,-1.376l-2.186,-1.709l-1.752,-2.015l-1.287,-2.294l-0.798,-2.536l-0.293,-2.739l0.22,-2.898l0.733,-3.011l1.236,-3.075l1.722,-3.089l2.181,-3.05l2.605,-2.961l2.988,-2.821l3.32,-2.634l3.597,-2.403l3.814,-2.13l3.967,-1.822l4.052,-1.483l4.07,-1.12l4.019,-0.74l3.901,-0.348l3.719,0.048l3.476,0.441l3.177,0.825l2.828,1.192l2.436,1.539l2.005,1.858l1.547,2.146l1.066,2.396l0.572,2.608l0.073,0.807" style="fill:none;stroke:#000;stroke-width:1.38px;"/><path id="path9863" d="M175.697,317.341l-1.921,9.23l-1.645,3.094" style="fill:none;stroke:#000;stroke-width:1.38px;"/><path id="path9865" d="M113.522,343.589l6.309,5.937l0.529,0.261" style="fill:none;stroke:#000;stroke-width:1.38px;"/><path id="path9867" d="M174.31,311.112l-1.606,-2.155l-2.069,-1.862l-2.503,-1.535l-2.899,-1.182l-3.249,-0.807l-3.548,-0.417l-3.79,-0.024l-3.97,0.385l-4.085,0.781l-4.131,1.166l-4.108,1.533l-4.015,1.875l-3.855,2.184l-3.631,2.459l-3.344,2.69l-3.002,2.876l-2.611,3.013l-2.177,3.1l-1.708,3.135l-1.214,3.116l-0.701,3.048l-0.182,2.93l0.34,2.763l0.85,2.555l0.42,0.844" style="fill:none;stroke:#000;stroke-width:1.38px;"/><path id="path9869" d="M172.411,329.882l1.538,-2.795l1.148,-2.793l0.743,-2.754l0.325,-2.68l-0.099,-2.57l-0.524,-2.425l-0.946,-2.248l-0.286,-0.505" style="fill:none;stroke:#000;stroke-width:1.38px;"/><path id="path9871" d="M120.36,349.787l10.221,2.25l0.392,0" style="fill:none;stroke:#000;stroke-width:1.38px;"/><path id="path9873" d="M168.273,325.093l-4.22,-3.71l-6.688,-1.444l-8.102,1.079l-8.21,3.447l-6.978,5.258l-4.612,6.21l-1.52,6.15l1.054,4.008" style="fill:none;stroke:#000;stroke-width:1.38px;"/><path id="path9875" d="M57.54,309.984l1.888,8.18l3.123,7.995l4.341,7.711l5.527,7.33l6.661,6.855l7.73,6.289l5.392,3.637" style="fill:none;stroke:#000;stroke-width:1.38px;"/><path id="path9877" d="M110.708,367.228l6.966,2.481l7.233,2.107l7.46,1.72l7.647,1.321l2.659,0.359" style="fill:none;stroke:#000;stroke-width:1.38px;"/><path id="path9879" d="M199.825,371.37l10.307,-3.166l9.832,-3.878l9.254,-4.545l8.583,-5.159l7.828,-5.713l6.997,-6.201l0.288,-0.283" style="fill:none;stroke:#000;stroke-width:1.38px;"/><path id="path9881" d="M42.143,209.908l2.462,9.767l4.346,9.479l6.196,9.025l7.974,8.407l9.646,7.63l11.173,6.704l12.523,5.644l12.039,4.016" style="fill:none;stroke:#000;stroke-width:1.38px;"/><path id="path9883" d="M275.951,194.762l-0.807,-9.881l-2.642,-9.604l-4.4,-9.185l-6.055,-8.633l-7.588,-7.963l-8.982,-7.188l-10.224,-6.323l-11.302,-5.379l-12.207,-4.375l-3.632,-1.059" style="fill:none;stroke:#000;stroke-width:1.38px;"/><path id="path9885" d="M99.934,132.092l-11.785,5.632l-10.798,6.538l-9.646,7.363l-8.337,8.095l-6.884,8.721l-5.301,9.227l-3.607,9.604l-1.823,9.837l0.028,9.92l0.362,2.879" style="fill:none;stroke:#000;stroke-width:1.38px;"/><path id="path9887" d="M203.832,343.477l7.612,-2.534" style="fill:none;stroke:#000;stroke-width:1.38px;"/><path id="path9889" d="M204.531,360.026l-0.699,-16.549" style="fill:none;stroke:#000;stroke-width:1.38px;"/><path id="path9891" d="M213.621,275.593l6.791,-2.834" style="fill:none;stroke:#000;stroke-width:1.38px;"/><path id="path9893" d="M213.832,282.015l-0.211,-6.422" style="fill:none;stroke:#000;stroke-width:1.38px;"/><path id="path9895" d="M213.81,282.871l0.023,-0.856" style="fill:none;stroke:#000;stroke-width:1.38px;"/><path id="path9897" d="M213.686,283.625l0.124,-0.754" style="fill:none;stroke:#000;stroke-width:1.38px;"/><path id="path9899" d="M213.459,284.277l0.227,-0.652" style="fill:none;stroke:#000;stroke-width:1.38px;"/><path id="path9901" d="M213.129,284.828l0.33,-0.551" style="fill:none;stroke:#000;stroke-width:1.38px;"/><path id="path9903" d="M212.718,285.294l0.411,-0.466" style="fill:none;stroke:#000;stroke-width:1.38px;"/><path id="path9905" d="M212.247,285.692l0.471,-0.398" style="fill:none;stroke:#000;stroke-width:1.38px;"/><path id="path9907" d="M212.036,285.824l0.211,-0.132" style="fill:none;stroke:#000;stroke-width:1.38px;"/><path id="path9909" d="M201.131,279.821l7.219,-2.297" style="fill:none;stroke:#000;stroke-width:1.38px;"/><path id="path9911" d="M201.489,288.297l-0.358,-8.476" style="fill:none;stroke:#000;stroke-width:1.38px;"/><path id="path9913" d="M201.647,289.482l-0.158,-1.185" style="fill:none;stroke:#000;stroke-width:1.38px;"/><path id="path9915" d="M202.009,290.434l-0.362,-0.952" style="fill:none;stroke:#000;stroke-width:1.38px;"/><path id="path9917" d="M234.488,265.429l1.033,-0.628" style="fill:none;stroke:#000;stroke-width:1.38px;"/><path id="path9919" d="M225.69,267.762l6.34,-6.075" style="fill:none;stroke:#000;stroke-width:1.38px;"/><path id="path9921" d="M225.748,270.231l-0.058,-2.469" style="fill:none;stroke:#000;stroke-width:1.38px;"/><path id="path9923" d="M223.342,271.406l2.406,-1.175" style="fill:none;stroke:#000;stroke-width:1.38px;"/><path id="path9925" d="M223.437,275.162l-0.095,-3.756" style="fill:none;stroke:#000;stroke-width:1.38px;"/><path id="path9927" d="M226.128,280.506l-0.136,-1.384" style="fill:none;stroke:#000;stroke-width:1.38px;"/><path id="path9929" d="M226.567,281.592l-0.439,-1.086" style="fill:none;stroke:#000;stroke-width:1.38px;"/><path id="path9931" d="M196.384,281.171l-1.208,-1.325" style="fill:none;stroke:#000;stroke-width:1.38px;"/><path id="path9933" d="M195.176,279.846l-1.661,-0.976" style="fill:none;stroke:#000;stroke-width:1.38px;"/><path id="path9935" d="M191.427,278.255l2.088,0.615" style="fill:none;stroke:#000;stroke-width:1.38px;"/><path id="path9937" d="M188.941,278.011l2.486,0.244" style="fill:none;stroke:#000;stroke-width:1.38px;"/><path id="path9939" d="M186.047,278.122l2.894,-0.11" style="fill:none;stroke:#000;stroke-width:1.38px;"/><path id="path9941" d="M182.733,278.569l3.314,-0.447" style="fill:none;stroke:#000;stroke-width:1.38px;"/><path id="path9943" d="M179.471,279.259l3.262,-0.69" style="fill:none;stroke:#000;stroke-width:1.38px;"/><path id="path9945" d="M176.579,280.155l2.892,-0.896" style="fill:none;stroke:#000;stroke-width:1.38px;"/><path id="path9947" d="M174.069,281.274l2.51,-1.119" style="fill:none;stroke:#000;stroke-width:1.38px;"/><path id="path9949" d="M171.952,282.63l2.117,-1.356" style="fill:none;stroke:#000;stroke-width:1.38px;"/><path id="path9951" d="M170.289,284.199l1.663,-1.569" style="fill:none;stroke:#000;stroke-width:1.38px;"/><path id="path9953" d="M169.14,285.953l1.149,-1.754" style="fill:none;stroke:#000;stroke-width:1.38px;"/><path id="path9955" d="M168.89,286.729l0.25,-0.776" style="fill:none;stroke:#000;stroke-width:1.38px;"/><path id="path9957" d="M149.975,276.544l15.661,-0.441l15.535,-1.835l15.117,-3.191l14.421,-4.483l13.461,-5.681l12.264,-6.762l10.859,-7.708l9.28,-8.503l7.562,-9.134l5.744,-9.595l3.861,-9.885l1.953,-10.004l0.258,-4.56" style="fill:none;stroke:#000;stroke-width:1.38px;"/><path id="path9959" d="M227.846,350.492l-0.025,-1.062" style="fill:none;stroke:#000;stroke-width:1.38px;"/><path id="path9961" d="M233.319,337.655l-0.45,-0.546" style="fill:none;stroke:#000;stroke-width:1.38px;"/><path id="path9963" d="M232.869,337.109l-0.623,-0.292" style="fill:none;stroke:#000;stroke-width:1.38px;"/><path id="path9965" d="M231.467,336.76l0.779,0.057" style="fill:none;stroke:#000;stroke-width:1.38px;"/><path id="path9967" d="M230.551,336.916l0.916,-0.155" style="fill:none;stroke:#000;stroke-width:1.38px;"/><path id="path9969" d="M229.495,337.283l1.056,-0.367" style="fill:none;stroke:#000;stroke-width:1.38px;"/><path id="path9971" d="M228.297,337.857l1.198,-0.574" style="fill:none;stroke:#000;stroke-width:1.38px;"/><path id="path9973" d="M226.555,338.897l1.742,-1.04" style="fill:none;stroke:#000;stroke-width:1.38px;"/><path id="path9975" d="M225.093,340.027l1.462,-1.13" style="fill:none;stroke:#000;stroke-width:1.38px;"/><path id="path9977" d="M223.782,341.366l1.311,-1.339" style="fill:none;stroke:#000;stroke-width:1.38px;"/><path id="path9979" d="M223.135,342.199l0.647,-0.833" style="fill:none;stroke:#000;stroke-width:1.38px;"/><path id="path9981" d="M216.448,343.68l5.985,-2.62" style="fill:none;stroke:#000;stroke-width:1.38px;"/><path id="path9983" d="M216.834,355.638l-0.386,-11.958" style="fill:none;stroke:#000;stroke-width:1.38px;"/><path id="path9985" d="M108.502,270.58l8.472,2.139l8.745,1.679l8.96,1.207l9.12,0.726l6.176,0.213" style="fill:none;stroke:#000;stroke-width:1.38px;"/><path id="path9987" d="M233.045,160.738l-0.717,-6.286l-1.916,-6.107l-3.07,-5.835l-4.159,-5.477l-5.174,-5.039l-6.098,-4.53l-6.922,-3.961l-7.635,-3.337l-8.231,-2.67l-8.703,-1.969l-9.049,-1.243l-9.261,-0.503l-9.342,0.243l-9.288,0.986l-9.101,1.715l-8.783,2.421l-8.337,3.096l-7.766,3.73l-7.079,4.313l-0.712,0.494" style="fill:none;stroke:#000;stroke-width:1.38px;"/><path id="path9989" d="M80.06,170.601l1.394,6.252l2.618,6.069l3.815,5.785l4.965,5.4l6.043,4.918l7.029,4.346l7.905,3.694l8.649,2.971l9.247,2.191l9.684,1.369l9.952,0.517l10.044,-0.344l9.956,-1.2l9.693,-2.033l9.258,-2.829l8.662,-3.569l7.92,-4.243l7.044,-4.838l6.057,-5.343l4.975,-5.753l3.823,-6.061l2.622,-6.263l1.392,-6.361l0.237,-4.538" style="fill:none;stroke:#000;stroke-width:1.38px;"/><path id="path9991" d="M233.464,185.745l-0.5,6.368l-1.714,6.343l-2.916,6.214l-4.084,5.979l-5.198,5.64l-6.236,5.201l-7.175,4.667l-8,4.048l-8.689,3.352l-9.23,2.595l-9.61,1.788l-9.82,0.946l-9.857,0.089l-9.718,-0.772l-9.409,-1.615l-8.934,-2.427l-8.306,-3.191l-7.538,-3.894l-6.647,-4.523l-5.652,-5.069l-4.571,-5.524l-3.429,-5.88l-2.242,-6.136l-0.863,-4.474" style="fill:none;stroke:#000;stroke-width:1.38px;"/><path id="path9993" d="M101.702,130.779l-5.786,4.535l-5.004,4.93l-4.146,5.263l-3.226,5.532l-2.251,5.728l-1.233,5.851l-0.186,5.893l0.19,2.09" style="fill:none;stroke:#000;stroke-width:1.38px;"/><path id="path9995" d="M81.485,156.106l-5.276,5.71l-4.396,6.041l-3.457,6.311l-2.468,6.514l-1.438,6.649l-0.376,6.708l0.372,4.647" style="fill:none;stroke:#000;stroke-width:1.38px;"/><path id="path9997" d="M252.369,186.527l-0.563,-6.686l-1.626,-6.54l-2.657,-6.324l-3.642,-6.038l-4.576,-5.692l-5.448,-5.288l-4.273,-3.418" style="fill:none;stroke:#000;stroke-width:1.38px;"/><path id="path9999" d="M64.446,198.686l1.84,7.823l3.35,7.594l4.831,7.234l6.251,6.747l7.586,6.134l8.806,5.407l9.885,4.575l10.799,3.653l11.527,2.657l12.052,1.607l12.359,0.523l12.443,-0.574l12.3,-1.66l11.934,-2.714l11.354,-3.714l10.572,-4.641l9.61,-5.478l8.486,-6.21l7.227,-6.823l5.861,-7.312l4.413,-7.668l2.915,-7.891l1.392,-7.98l0.131,-3.448" style="fill:none;stroke:#000;stroke-width:1.38px;"/><path id="path10001" d="M168.556,287.978l0.334,-1.249" style="fill:none;stroke:#000;stroke-width:1.38px;"/><path id="path10003" d="M168.643,290.451l-0.087,-2.473" style="fill:none;stroke:#000;stroke-width:1.38px;"/><path id="path10005" d="M169.567,293.713l-0.924,-3.262" style="fill:none;stroke:#000;stroke-width:1.38px;"/><path id="path10007" d="M179.744,303.635l3.6,0.194" style="fill:none;stroke:#000;stroke-width:1.38px;"/><path id="path10009" d="M176.79,302.755l2.954,0.88" style="fill:none;stroke:#000;stroke-width:1.38px;"/><path id="path10011" d="M176.79,302.755l-2.414,-1.563" style="fill:none;stroke:#000;stroke-width:1.38px;"/><path id="path10013" d="M174.376,301.192l-1.661,-2.232" style="fill:none;stroke:#000;stroke-width:1.38px;"/><path id="path10015" d="M172.715,298.96l-0.695,-2.889" style="fill:none;stroke:#000;stroke-width:1.38px;"/><path id="path10017" d="M172.02,296.071l0.112,-2.151" style="fill:none;stroke:#000;stroke-width:1.38px;"/><path id="path10019" d="M172.132,293.92l0.631,-1.959" style="fill:none;stroke:#000;stroke-width:1.38px;"/><path id="path10021" d="M172.763,291.961l1.147,-1.772" style="fill:none;stroke:#000;stroke-width:1.38px;"/><path id="path10023" d="M173.91,290.189l1.658,-1.594" style="fill:none;stroke:#000;stroke-width:1.38px;"/><path id="path10025" d="M175.568,288.595l2.111,-1.386" style="fill:none;stroke:#000;stroke-width:1.38px;"/><path id="path10027" d="M177.679,287.209l2.504,-1.152" style="fill:none;stroke:#000;stroke-width:1.38px;"/><path id="path10029" d="M180.183,286.057l2.885,-0.931" style="fill:none;stroke:#000;stroke-width:1.38px;"/><path id="path10031" d="M183.068,285.126l3.254,-0.725" style="fill:none;stroke:#000;stroke-width:1.38px;"/><path id="path10033" d="M186.322,284.401l3.309,-0.479" style="fill:none;stroke:#000;stroke-width:1.38px;"/><path id="path10035" d="M189.631,283.922l2.89,-0.137" style="fill:none;stroke:#000;stroke-width:1.38px;"/><path id="path10037" d="M192.521,283.785l2.484,0.225" style="fill:none;stroke:#000;stroke-width:1.38px;"/><path id="path10039" d="M195.005,284.01l2.085,0.601" style="fill:none;stroke:#000;stroke-width:1.38px;"/><path id="path10041" d="M198.748,285.576l-1.658,-0.965" style="fill:none;stroke:#000;stroke-width:1.38px;"/><path id="path10043" d="M199.953,286.893l-1.205,-1.317" style="fill:none;stroke:#000;stroke-width:1.38px;"/><path id="path10045" d="M200.711,288.569l-0.758,-1.676" style="fill:none;stroke:#000;stroke-width:1.38px;"/><path id="path10047" d="M201.026,290.607l-0.315,-2.038" style="fill:none;stroke:#000;stroke-width:1.38px;"/><path id="path10049" d="M200.758,293.638l0.268,-3.031" style="fill:none;stroke:#000;stroke-width:1.38px;"/><path id="path10051" d="M199.681,296.288l1.077,-2.65" style="fill:none;stroke:#000;stroke-width:1.38px;"/><path id="path10053" d="M197.832,298.596l1.849,-2.308" style="fill:none;stroke:#000;stroke-width:1.38px;"/><path id="path10055" d="M195.244,300.595l2.588,-1.999" style="fill:none;stroke:#000;stroke-width:1.38px;"/><path id="path10057" d="M191.877,302.201l3.367,-1.606" style="fill:none;stroke:#000;stroke-width:1.38px;"/><path id="path10059" d="M187.681,303.322l4.196,-1.121" style="fill:none;stroke:#000;stroke-width:1.38px;"/><path id="path10061" d="M183.344,303.83l4.337,-0.508" style="fill:none;stroke:#000;stroke-width:1.38px;"/><path id="path10063" d="M187.172,299.177l1.303,-0.32" style="fill:none;stroke:#000;stroke-width:1.38px;"/><path id="path10065" d="M188.475,298.857l1.135,-0.446" style="fill:none;stroke:#000;stroke-width:1.38px;"/><path id="path10067" d="M189.61,298.411l0.967,-0.568" style="fill:none;stroke:#000;stroke-width:1.38px;"/><path id="path10069" d="M190.577,297.843l0.803,-0.689" style="fill:none;stroke:#000;stroke-width:1.38px;"/><path id="path10071" d="M191.38,297.154l0.62,-0.848" style="fill:none;stroke:#000;stroke-width:1.38px;"/><path id="path10073" d="M192,296.306l0.421,-1.046" style="fill:none;stroke:#000;stroke-width:1.38px;"/><path id="path10075" d="M192.421,295.26l0.223,-1.244" style="fill:none;stroke:#000;stroke-width:1.38px;"/><path id="path10077" d="M192.644,294.016l0.024,-1.442" style="fill:none;stroke:#000;stroke-width:1.38px;"/><path id="path10079" d="M192.667,292.574l-0.157,-1.189" style="fill:none;stroke:#000;stroke-width:1.38px;"/><path id="path10081" d="M192.51,291.385l-0.345,-0.974" style="fill:none;stroke:#000;stroke-width:1.38px;"/><path id="path10083" d="M192.165,290.411l-0.533,-0.759" style="fill:none;stroke:#000;stroke-width:1.38px;"/><path id="path10085" d="M191.632,289.652l-0.724,-0.544" style="fill:none;stroke:#000;stroke-width:1.38px;"/><path id="path10087" d="M190.022,288.759l0.886,0.349" style="fill:none;stroke:#000;stroke-width:1.38px;"/><path id="path10089" d="M188.999,288.584l1.023,0.174" style="fill:none;stroke:#000;stroke-width:1.38px;"/><path id="path10091" d="M187.837,288.581l1.162,0" style="fill:none;stroke:#000;stroke-width:1.38px;"/><path id="path10093" d="M186.536,288.748l1.301,-0.167" style="fill:none;stroke:#000;stroke-width:1.38px;"/><path id="path10095" d="M185.289,289.049l1.247,-0.301" style="fill:none;stroke:#000;stroke-width:1.38px;"/><path id="path10097" d="M184.175,289.474l1.114,-0.425" style="fill:none;stroke:#000;stroke-width:1.38px;"/><path id="path10099" d="M183.197,290.022l0.978,-0.548" style="fill:none;stroke:#000;stroke-width:1.38px;"/><path id="path10101" d="M182.356,290.698l0.841,-0.676" style="fill:none;stroke:#000;stroke-width:1.38px;"/><path id="path10103" d="M181.691,291.519l0.665,-0.821" style="fill:none;stroke:#000;stroke-width:1.38px;"/><path id="path10105" d="M181.238,292.506l0.453,-0.987" style="fill:none;stroke:#000;stroke-width:1.38px;"/><path id="path10107" d="M180.999,293.659l0.239,-1.153" style="fill:none;stroke:#000;stroke-width:1.38px;"/><path id="path10109" d="M180.973,294.978l0.026,-1.319" style="fill:none;stroke:#000;stroke-width:1.38px;"/><path id="path10111" d="M181.149,296.253l-0.176,-1.275" style="fill:none;stroke:#000;stroke-width:1.38px;"/><path id="path10113" d="M181.513,297.3l-0.364,-1.047" style="fill:none;stroke:#000;stroke-width:1.38px;"/><path id="path10115" d="M182.064,298.12l-0.551,-0.82" style="fill:none;stroke:#000;stroke-width:1.38px;"/><path id="path10117" d="M182.802,298.711l-0.738,-0.591" style="fill:none;stroke:#000;stroke-width:1.38px;"/><path id="path10119" d="M182.802,298.711l0.897,0.388" style="fill:none;stroke:#000;stroke-width:1.38px;"/><path id="path10121" d="M183.699,299.099l1.029,0.208" style="fill:none;stroke:#000;stroke-width:1.38px;"/><path id="path10123" d="M184.728,299.307l1.158,0.026" style="fill:none;stroke:#000;stroke-width:1.38px;"/><path id="path10125" d="M185.886,299.334l1.286,-0.156" style="fill:none;stroke:#000;stroke-width:1.38px;"/><path id="path10127" d="M213.833,160.421l-0.319,4.766l-1.241,4.748l-2.154,4.655l-3.039,4.482l-3.882,4.233l-4.666,3.912l-5.379,3.521l-6.004,3.067l-6.53,2.559l-6.946,2.004l-7.244,1.413l-7.416,0.795l-7.461,0.163l-7.377,-0.47l-7.164,-1.095l-6.83,-1.699l-6.38,-2.271l-5.823,-2.801l-5.171,-3.281l-4.436,-3.701l-3.635,-4.056l-2.78,-4.342l-1.888,-4.552l-0.97,-4.655" style="fill:none;stroke:#000;stroke-width:1.38px;"/><path id="path10129" d="M315.864,409.097l4.079,1.353l5.48,-0.457l6.025,-2.185l5.641,-3.57l4.387,-4.406l2.449,-4.565l0.346,-1.82" style="fill:none;stroke:#000;stroke-width:1.38px;"/><path id="path10131" d="M344.171,391.764l-1.937,-3.024l-4.046,-1.425l-5.527,0.417l-6.124,2.205l-5.734,3.642l-4.415,4.488l-2.392,4.608l-0.002,3.99l1.87,2.432" style="fill:none;stroke:#000;stroke-width:1.38px;"/><path id="path10133" d="M305.549,401.817l-1.792,-1.846" style="fill:none;stroke:#000;stroke-width:1.38px;"/><path id="path10135" d="M344.271,393.447l-0.1,-1.683" style="fill:none;stroke:#000;stroke-width:1.38px;"/><path id="path10137" d="M87.188,335.177l-0.065,-2.511l0.44,-0.744" style="fill:none;stroke:#000;stroke-width:1.38px;"/><path id="path10139" d="M339.924,395.015l-1.05,3.154l-2.592,3.265l-3.725,2.868l-4.277,2.026l-4.168,0.87l-3.408,-0.427l-2.04,-1.553" style="fill:none;stroke:#000;stroke-width:1.38px;"/><path id="path10141" d="M340.713,377.338l-0.555,-1.002" style="fill:none;stroke:#000;stroke-width:1.38px;"/><path id="path10143" d="M337.982,367.224l-0.657,-1.634l-1.01,-1.433l-1.348,-1.21l-1.665,-0.964l-1.957,-0.703l-2.22,-0.428l-2.445,-0.146l-2.633,0.141l-2.777,0.426l-2.875,0.704l-2.928,0.971l-2.93,1.224l-2.884,1.455l-2.791,1.663l-2.651,1.844l-2.466,1.992l-2.242,2.109l-1.98,2.19l-1.687,2.234l-1.366,2.242l-1.025,2.213l-0.668,2.148l-0.301,2.047l0.068,1.916l0.435,1.752l0.792,1.562l1.136,1.347l0.502,0.439" style="fill:none;stroke:#000;stroke-width:1.38px;"/><path id="path10145" d="M183.068,285.126l-3.597,-5.867" style="fill:none;stroke:#000;stroke-width:1.38px;"/><path id="path10147" d="M180.183,286.057l-3.604,-5.902" style="fill:none;stroke:#000;stroke-width:1.38px;"/><path id="path10149" d="M186.322,284.401l-3.589,-5.832" style="fill:none;stroke:#000;stroke-width:1.38px;"/><path id="path10151" d="M177.679,287.209l-3.61,-5.935" style="fill:none;stroke:#000;stroke-width:1.38px;"/><path id="path10153" d="M189.631,283.922l-3.584,-5.8" style="fill:none;stroke:#000;stroke-width:1.38px;"/><path id="path10155" d="M192.521,283.785l-3.58,-5.774" style="fill:none;stroke:#000;stroke-width:1.38px;"/><path id="path10157" d="M175.568,288.595l-3.616,-5.965" style="fill:none;stroke:#000;stroke-width:1.38px;"/><path id="path10159" d="M325.193,354.455l-4.034,-2.931l-6.303,-0.682l-7.577,1.702l-7.625,3.822l-6.431,5.324l-4.197,5.955l-1.312,4.999" style="fill:none;stroke:#000;stroke-width:1.38px;"/><path id="path10161" d="M340.705,377.33l0.98,2.346" style="fill:none;stroke:#000;stroke-width:1.38px;"/><path id="path10163" d="M303.757,399.971l-1.003,-4.722l2.105,-5.784l4.907,-5.922l6.932,-5.099l7.831,-3.442l7.454,-1.229l5.878,1.165l2.844,2.392" style="fill:none;stroke:#000;stroke-width:1.38px;"/><path id="path10165" d="M287.714,372.644l1.09,4.141" style="fill:none;stroke:#000;stroke-width:1.38px;"/><path id="path10167" d="M195.005,284.01l-3.578,-5.755" style="fill:none;stroke:#000;stroke-width:1.38px;"/><path id="path10169" d="M303.054,399.074l0.781,0.984" style="fill:none;stroke:#000;stroke-width:1.38px;"/><path id="path10171" d="M340.158,376.336l-4.046,-2.891l-6.372,-0.615l-7.691,1.784l-7.766,3.909l-6.575,5.399l-4.321,6.006l-1.387,5.64l1.054,3.506" style="fill:none;stroke:#000;stroke-width:1.38px;"/><path id="path10173" d="M173.91,290.189l-3.621,-5.99" style="fill:none;stroke:#000;stroke-width:1.38px;"/><path id="path10175" d="M197.09,284.611l-3.575,-5.741" style="fill:none;stroke:#000;stroke-width:1.38px;"/><path id="path10177" d="M172.763,291.961l-3.623,-6.008" style="fill:none;stroke:#000;stroke-width:1.38px;"/><path id="path10179" d="M198.748,285.576l-3.572,-5.73" style="fill:none;stroke:#000;stroke-width:1.38px;"/><path id="path10181" d="M339.327,392.564l0.597,2.451" style="fill:none;stroke:#000;stroke-width:1.38px;"/><path id="path10183" d="M318.664,405.218l-0.556,-2.607l1.172,-3.2l2.725,-3.286l3.846,-2.844l4.351,-1.944l4.156,-0.734l3.297,0.588l1.672,1.373" style="fill:none;stroke:#000;stroke-width:1.38px;"/><path id="path10185" d="M172.132,293.92l-3.576,-5.942" style="fill:none;stroke:#000;stroke-width:1.38px;"/><path id="path10187" d="M208.924,297.622l1.239,-0.169" style="fill:none;stroke:#000;stroke-width:1.38px;"/><path id="path10189" d="M207.833,297.578l1.091,0.045" style="fill:none;stroke:#000;stroke-width:1.38px;"/><path id="path10191" d="M206.89,297.322l0.943,0.256" style="fill:none;stroke:#000;stroke-width:1.38px;"/><path id="path10193" d="M206.89,297.322l-0.767,-0.48" style="fill:none;stroke:#000;stroke-width:1.38px;"/><path id="path10195" d="M206.123,296.842l-0.564,-0.716" style="fill:none;stroke:#000;stroke-width:1.38px;"/><path id="path10197" d="M205.559,296.126l-0.36,-0.95" style="fill:none;stroke:#000;stroke-width:1.38px;"/><path id="path10199" d="M205.199,295.176l-0.155,-1.184" style="fill:none;stroke:#000;stroke-width:1.38px;"/><path id="path10201" d="M205.044,293.992l-0.337,-8.472" style="fill:none;stroke:#000;stroke-width:1.38px;"/><path id="path10203" d="M204.707,285.52l7.24,-2.319" style="fill:none;stroke:#000;stroke-width:1.38px;"/><path id="path10205" d="M212.197,290.53l-0.25,-7.329" style="fill:none;stroke:#000;stroke-width:1.38px;"/><path id="path10207" d="M212.257,291.095l-0.06,-0.565" style="fill:none;stroke:#000;stroke-width:1.38px;"/><path id="path10209" d="M212.394,291.541l-0.137,-0.446" style="fill:none;stroke:#000;stroke-width:1.38px;"/><path id="path10211" d="M212.608,291.868l-0.214,-0.327" style="fill:none;stroke:#000;stroke-width:1.38px;"/><path id="path10213" d="M212.898,292.076l-0.29,-0.208" style="fill:none;stroke:#000;stroke-width:1.38px;"/><path id="path10215" d="M212.898,292.076l0.36,0.106" style="fill:none;stroke:#000;stroke-width:1.38px;"/><path id="path10217" d="M213.258,292.181l0.421,0.024" style="fill:none;stroke:#000;stroke-width:1.38px;"/><path id="path10219" d="M213.679,292.196l0.482,-0.074" style="fill:none;stroke:#000;stroke-width:1.38px;"/><path id="path10221" d="M214.161,292.121l0.544,-0.165" style="fill:none;stroke:#000;stroke-width:1.38px;"/><path id="path10223" d="M214.705,291.957l0.595,-0.263" style="fill:none;stroke:#000;stroke-width:1.38px;"/><path id="path10225" d="M215.3,291.694l0.534,-0.331" style="fill:none;stroke:#000;stroke-width:1.38px;"/><path id="path10227" d="M215.834,291.363l0.474,-0.399" style="fill:none;stroke:#000;stroke-width:1.38px;"/><path id="path10229" d="M216.308,290.964l0.414,-0.466" style="fill:none;stroke:#000;stroke-width:1.38px;"/><path id="path10231" d="M216.722,290.498l0.333,-0.55" style="fill:none;stroke:#000;stroke-width:1.38px;"/><path id="path10233" d="M217.055,289.948l0.23,-0.652" style="fill:none;stroke:#000;stroke-width:1.38px;"/><path id="path10235" d="M217.285,289.296l0.127,-0.754" style="fill:none;stroke:#000;stroke-width:1.38px;"/><path id="path10237" d="M217.412,288.542l0.024,-0.855" style="fill:none;stroke:#000;stroke-width:1.38px;"/><path id="path10239" d="M217.436,287.687l-0.194,-6.42" style="fill:none;stroke:#000;stroke-width:1.38px;"/><path id="path10241" d="M217.242,281.267l6.833,-2.821" style="fill:none;stroke:#000;stroke-width:1.38px;"/><path id="path10243" d="M224.407,291.726l-0.332,-13.28" style="fill:none;stroke:#000;stroke-width:1.38px;"/><path id="path10245" d="M218.098,294.362l6.309,-2.636" style="fill:none;stroke:#000;stroke-width:1.38px;"/><path id="path10247" d="M218.098,294.362l-0.064,-2.132" style="fill:none;stroke:#000;stroke-width:1.38px;"/><path id="path10249" d="M216.624,293.913l1.41,-1.683" style="fill:none;stroke:#000;stroke-width:1.38px;"/><path id="path10251" d="M215.182,295.209l1.442,-1.296" style="fill:none;stroke:#000;stroke-width:1.38px;"/><path id="path10253" d="M213.545,296.225l1.637,-1.016" style="fill:none;stroke:#000;stroke-width:1.38px;"/><path id="path10255" d="M211.546,297.065l1.999,-0.84" style="fill:none;stroke:#000;stroke-width:1.38px;"/><path id="path10257" d="M210.163,297.452l1.383,-0.387" style="fill:none;stroke:#000;stroke-width:1.38px;"/><path id="path10259" d="M199.953,286.893l-3.569,-5.722" style="fill:none;stroke:#000;stroke-width:1.38px;"/><path id="path10261" d="M181.169,293.455l1.161,0.041" style="fill:none;stroke:#000;stroke-width:1.38px;"/><path id="path10263" d="M188.869,289.484l0.158,-0.895" style="fill:none;stroke:#000;stroke-width:1.38px;"/><path id="path10265" d="M188.45,290.526l0.419,-1.042" style="fill:none;stroke:#000;stroke-width:1.38px;"/><path id="path10267" d="M187.831,291.369l0.619,-0.843" style="fill:none;stroke:#000;stroke-width:1.38px;"/><path id="path10269" d="M187.028,292.051l0.803,-0.682" style="fill:none;stroke:#000;stroke-width:1.38px;"/><path id="path10271" d="M186.06,292.61l0.968,-0.559" style="fill:none;stroke:#000;stroke-width:1.38px;"/><path id="path10273" d="M184.925,293.045l1.135,-0.435" style="fill:none;stroke:#000;stroke-width:1.38px;"/><path id="path10275" d="M183.619,293.352l1.306,-0.307" style="fill:none;stroke:#000;stroke-width:1.38px;"/><path id="path10277" d="M182.33,293.495l1.289,-0.144" style="fill:none;stroke:#000;stroke-width:1.38px;"/><path id="path10279" d="M172.02,296.071l-3.377,-5.62" style="fill:none;stroke:#000;stroke-width:1.38px;"/><path id="path10281" d="M211.947,283.201l-3.597,-5.677" style="fill:none;stroke:#000;stroke-width:1.38px;"/><path id="path10283" d="M204.707,285.52l-3.576,-5.699" style="fill:none;stroke:#000;stroke-width:1.38px;"/><path id="path10285" d="M192.51,291.385l-1.233,-1.999" style="fill:none;stroke:#000;stroke-width:1.38px;"/><path id="path10287" d="M236.253,282.057l-0.156,-0.333" style="fill:none;stroke:#000;stroke-width:1.38px;"/><path id="path10289" d="M236.439,282.139l-0.186,-0.081" style="fill:none;stroke:#000;stroke-width:1.38px;"/><path id="path10291" d="M236.439,282.139l0.242,0" style="fill:none;stroke:#000;stroke-width:1.38px;"/><path id="path10293" d="M236.681,282.136l0.298,-0.089" style="fill:none;stroke:#000;stroke-width:1.38px;"/><path id="path10295" d="M236.979,282.046l0.354,-0.174" style="fill:none;stroke:#000;stroke-width:1.38px;"/><path id="path10297" d="M237.333,281.871l0.822,-0.557" style="fill:none;stroke:#000;stroke-width:1.38px;"/><path id="path10299" d="M238.155,281.314l1.087,-0.885" style="fill:none;stroke:#000;stroke-width:1.38px;"/><path id="path10301" d="M239.741,283.651l-0.499,-3.222" style="fill:none;stroke:#000;stroke-width:1.38px;"/><path id="path10303" d="M237.538,285.258l2.203,-1.607" style="fill:none;stroke:#000;stroke-width:1.38px;"/><path id="path10305" d="M235.456,286.536l2.082,-1.278" style="fill:none;stroke:#000;stroke-width:1.38px;"/><path id="path10307" d="M233.407,287.525l2.049,-0.989" style="fill:none;stroke:#000;stroke-width:1.38px;"/><path id="path10309" d="M231.959,287.917l1.448,-0.392" style="fill:none;stroke:#000;stroke-width:1.38px;"/><path id="path10311" d="M231.424,287.916l0.535,0.001" style="fill:none;stroke:#000;stroke-width:1.38px;"/><path id="path10313" d="M230.96,287.814l0.464,0.102" style="fill:none;stroke:#000;stroke-width:1.38px;"/><path id="path10315" d="M230.96,287.814l-0.393,-0.204" style="fill:none;stroke:#000;stroke-width:1.38px;"/><path id="path10317" d="M230.567,287.609l-0.32,-0.306" style="fill:none;stroke:#000;stroke-width:1.38px;"/><path id="path10319" d="M230.247,287.303l-0.439,-1.088" style="fill:none;stroke:#000;stroke-width:1.38px;"/><path id="path10321" d="M229.808,286.215l-0.177,-1.84" style="fill:none;stroke:#000;stroke-width:1.38px;"/><path id="path10323" d="M229.631,284.375l-0.098,-4.677" style="fill:none;stroke:#000;stroke-width:1.38px;"/><path id="path10325" d="M227.113,280.859l2.42,-1.161" style="fill:none;stroke:#000;stroke-width:1.38px;"/><path id="path10327" d="M227.113,280.859l-0.086,-3.754" style="fill:none;stroke:#000;stroke-width:1.38px;"/><path id="path10329" d="M227.027,277.105l2.427,-1.161" style="fill:none;stroke:#000;stroke-width:1.38px;"/><path id="path10331" d="M229.454,275.944l-0.051,-2.469" style="fill:none;stroke:#000;stroke-width:1.38px;"/><path id="path10333" d="M229.403,273.475l6.415,-6.023" style="fill:none;stroke:#000;stroke-width:1.38px;"/><path id="path10335" d="M235.9,272.579l-0.082,-5.127" style="fill:none;stroke:#000;stroke-width:1.38px;"/><path id="path10337" d="M235.9,272.579l3.438,-1.977" style="fill:none;stroke:#000;stroke-width:1.38px;"/><path id="path10339" d="M239.389,274.359l-0.051,-3.757" style="fill:none;stroke:#000;stroke-width:1.38px;"/><path id="path10341" d="M235.96,276.335l3.429,-1.976" style="fill:none;stroke:#000;stroke-width:1.38px;"/><path id="path10343" d="M236.035,281.048l-0.075,-4.713" style="fill:none;stroke:#000;stroke-width:1.38px;"/><path id="path10345" d="M236.097,281.724l-0.062,-0.676" style="fill:none;stroke:#000;stroke-width:1.38px;"/><path id="path10347" d="M96.056,355.823l-1.161,-0.662l-1.642,-2.428l-1.863,-3.804l-1.795,-4.585l-1.452,-4.658l-0.883,-4.012l-0.072,-0.497" style="fill:none;stroke:#000;stroke-width:1.38px;"/><path id="path10349" d="M87.563,331.922l1.167,0.67l1.66,2.466l1.89,3.881l1.818,4.678l1.45,4.719l0.849,3.998l0.115,2.638l-0.456,0.851" style="fill:none;stroke:#000;stroke-width:1.38px;"/><path id="path10351" d="M172.715,298.96l-3.148,-5.247" style="fill:none;stroke:#000;stroke-width:1.38px;"/><path id="path10353" d="M205.044,293.992l-3.555,-5.695" style="fill:none;stroke:#000;stroke-width:1.38px;"/><path id="path10355" d="M192.667,292.574l-2.256,-3.662" style="fill:none;stroke:#000;stroke-width:1.38px;"/><path id="path10357" d="M235.818,267.452l-3.788,-5.765" style="fill:none;stroke:#000;stroke-width:1.38px;"/><path id="path10359" d="M229.403,273.475l-3.713,-5.713" style="fill:none;stroke:#000;stroke-width:1.38px;"/><path id="path10361" d="M192.644,294.016l-3.309,-5.374" style="fill:none;stroke:#000;stroke-width:1.38px;"/><path id="path10363" d="M224.075,278.446l-3.663,-5.687" style="fill:none;stroke:#000;stroke-width:1.38px;"/><path id="path10365" d="M213.621,275.593l3.621,5.674" style="fill:none;stroke:#000;stroke-width:1.38px;"/><path id="path10367" d="M182.064,298.12l-0.624,-1.029" style="fill:none;stroke:#000;stroke-width:1.38px;"/><path id="path10369" d="M192.421,295.26l-3.552,-5.776" style="fill:none;stroke:#000;stroke-width:1.38px;"/><path id="path10371" d="M217.436,287.687l-3.604,-5.672" style="fill:none;stroke:#000;stroke-width:1.38px;"/><path id="path10373" d="M182.802,298.711l-1.701,-2.802" style="fill:none;stroke:#000;stroke-width:1.38px;"/><path id="path10375" d="M192,296.306l-3.55,-5.78" style="fill:none;stroke:#000;stroke-width:1.38px;"/><path id="path10377" d="M183.699,299.099l-2.719,-4.476" style="fill:none;stroke:#000;stroke-width:1.38px;"/><path id="path10379" d="M225.748,270.231l3.706,5.713" style="fill:none;stroke:#000;stroke-width:1.38px;"/><path id="path10381" d="M191.38,297.154l-3.549,-5.785" style="fill:none;stroke:#000;stroke-width:1.38px;"/><path id="path10383" d="M184.728,299.307l-3.559,-5.852" style="fill:none;stroke:#000;stroke-width:1.38px;"/><path id="path10385" d="M190.577,297.843l-3.549,-5.792" style="fill:none;stroke:#000;stroke-width:1.38px;"/><path id="path10387" d="M185.886,299.334l-3.556,-5.839" style="fill:none;stroke:#000;stroke-width:1.38px;"/><path id="path10389" d="M189.61,298.411l-3.55,-5.801" style="fill:none;stroke:#000;stroke-width:1.38px;"/><path id="path10391" d="M187.172,299.177l-3.553,-5.825" style="fill:none;stroke:#000;stroke-width:1.38px;"/><path id="path10393" d="M227.027,277.105l-3.685,-5.699" style="fill:none;stroke:#000;stroke-width:1.38px;"/><path id="path10395" d="M188.475,298.857l-3.55,-5.812" style="fill:none;stroke:#000;stroke-width:1.38px;"/><path id="path10397" d="M227.113,280.859l-3.676,-5.697" style="fill:none;stroke:#000;stroke-width:1.38px;"/><path id="path10399" d="M205.199,295.176l-3.552,-5.694" style="fill:none;stroke:#000;stroke-width:1.38px;"/><path id="path10401" d="M217.412,288.542l-3.602,-5.671" style="fill:none;stroke:#000;stroke-width:1.38px;"/><path id="path10403" d="M239.338,270.602l-3.817,-5.801" style="fill:none;stroke:#000;stroke-width:1.38px;"/><path id="path10405" d="M205.559,296.126l-3.55,-5.692" style="fill:none;stroke:#000;stroke-width:1.38px;"/><path id="path10407" d="M212.608,291.868l-0.221,-0.35" style="fill:none;stroke:#000;stroke-width:1.38px;"/><path id="path10409" d="M217.285,289.296l-3.599,-5.671" style="fill:none;stroke:#000;stroke-width:1.38px;"/><path id="path10411" d="M212.898,292.076l-0.645,-1.023" style="fill:none;stroke:#000;stroke-width:1.38px;"/><path id="path10413" d="M213.258,292.181l-1.062,-1.683" style="fill:none;stroke:#000;stroke-width:1.38px;"/><path id="path10415" d="M217.055,289.948l-3.596,-5.671" style="fill:none;stroke:#000;stroke-width:1.38px;"/><path id="path10417" d="M229.631,284.375l-2.327,-3.606" style="fill:none;stroke:#000;stroke-width:1.38px;"/><path id="path10419" d="M213.679,292.196l-1.506,-2.387" style="fill:none;stroke:#000;stroke-width:1.38px;"/><path id="path10421" d="M216.722,290.498l-3.593,-5.67" style="fill:none;stroke:#000;stroke-width:1.38px;"/><path id="path10423" d="M214.161,292.121l-2.019,-3.198" style="fill:none;stroke:#000;stroke-width:1.38px;"/><path id="path10425" d="M216.308,290.964l-3.59,-5.67" style="fill:none;stroke:#000;stroke-width:1.38px;"/><path id="path10427" d="M214.705,291.957l-2.6,-4.116" style="fill:none;stroke:#000;stroke-width:1.38px;"/><path id="path10429" d="M215.834,291.363l-3.587,-5.671" style="fill:none;stroke:#000;stroke-width:1.38px;"/><path id="path10431" d="M215.3,291.694l-3.238,-5.122" style="fill:none;stroke:#000;stroke-width:1.38px;"/><path id="path10433" d="M218.098,294.362l-0.795,-1.256" style="fill:none;stroke:#000;stroke-width:1.38px;"/><path id="path10435" d="M229.808,286.215l-3.68,-5.709" style="fill:none;stroke:#000;stroke-width:1.38px;"/><path id="path10437" d="M312.212,335.314l-4.039,-2.977l-6.269,-0.74l-7.509,1.638l-7.535,3.764l-6.334,5.281l-4.108,5.935l-1.252,5.003" style="fill:none;stroke:#000;stroke-width:1.38px;"/><path id="path10439" d="M275.166,353.218l1.125,4.164" style="fill:none;stroke:#000;stroke-width:1.38px;"/><path id="path10441" d="M230.247,287.303l-3.68,-5.711" style="fill:none;stroke:#000;stroke-width:1.38px;"/><path id="path10443" d="M236.439,282.139l-0.354,-0.544" style="fill:none;stroke:#000;stroke-width:1.38px;"/><path id="path10445" d="M236.681,282.136l-0.636,-0.976" style="fill:none;stroke:#000;stroke-width:1.38px;"/><path id="path10447" d="M236.979,282.046l-0.951,-1.46" style="fill:none;stroke:#000;stroke-width:1.38px;"/><path id="path10449" d="M237.333,281.871l-1.317,-2.021" style="fill:none;stroke:#000;stroke-width:1.38px;"/><path id="path10451" d="M238.155,281.314l-2.169,-3.323" style="fill:none;stroke:#000;stroke-width:1.38px;"/><path id="path10453" d="M239.242,280.429l-2.838,-4.342" style="fill:none;stroke:#000;stroke-width:1.38px;"/><path id="path10455" d="M269.102,349.411l-3.192,-0.076l-2.956,-0.432l-2.674,-0.782l-2.348,-1.121l-1.983,-1.444l-1.584,-1.748l-1.158,-2.024l-0.71,-2.271l-0.249,-2.482l0.22,-2.654l0.689,-2.783l1.147,-2.868l1.59,-2.906l2.009,-2.896l2.395,-2.837l2.743,-2.731l3.046,-2.579l3.298,-2.383l3.496,-2.148l3.634,-1.875l3.711,-1.572l3.726,-1.243l3.679,-0.893l3.571,-0.53l3.403,-0.158l3.18,0.213l2.905,0.58l2.584,0.934l2.224,1.273l1.829,1.588l1.406,1.876l0.965,2.131l0.51,2.352l0.074,2.122" style="fill:none;stroke:#000;stroke-width:1.38px;"/><path id="path10457" d="M310.282,317.042l-2.535,8.616" style="fill:none;stroke:#000;stroke-width:1.38px;"/><path id="path10459" d="M304.965,306.109l-2.411,-1.153l-2.761,-0.802l-3.068,-0.436l-3.327,-0.062l-3.53,0.316l-3.675,0.691l-3.761,1.054l-3.783,1.401l-3.741,1.726l-3.637,2.021l-3.471,2.282l-3.248,2.506l-2.97,2.686l-2.642,2.822l-0.779,0.936" style="fill:none;stroke:#000;stroke-width:1.38px;"/><path id="path10461" d="M258.161,322.098l-2.145,2.927l-1.727,2.951l-1.284,2.925l-0.821,2.851l-0.349,2.731l0.128,2.568l0.6,2.363l1.026,2.072" style="fill:none;stroke:#000;stroke-width:1.38px;"/><path id="path10463" d="M304.058,323.29l-4.041,-3.004l-6.248,-0.777l-7.466,1.599l-7.478,3.728l-6.273,5.254l-4.052,5.922l-1.198,5.63l1.129,3.551" style="fill:none;stroke:#000;stroke-width:1.38px;"/><path id="path10465" d="M308.729,309.57l-3.764,-3.461" style="fill:none;stroke:#000;stroke-width:1.38px;"/><path id="path10467" d="M253.589,343.486l1.375,1.743l1.737,1.483l2.073,1.203l2.379,0.908l2.65,0.604l2.885,0.291l3.079,-0.024l1.226,-0.09" style="fill:none;stroke:#000;stroke-width:1.38px;"/><path id="path10469" d="M307.139,327.377l1.461,-2.69l1.09,-2.666l0.704,-2.607l0.304,-2.511l-0.102,-2.381l-0.507,-2.218l-0.91,-2.021l-0.45,-0.713" style="fill:none;stroke:#000;stroke-width:1.38px;"/><path id="path10471" d="M230.28,133.454l-1.163,-2.944l-1.247,-2.8l-1.308,-2.611l-1.347,-2.377l-1.365,-2.106l-1.358,-1.799l-1.331,-1.466l-1.28,-1.108l-1.21,-0.735l-1.12,-0.353l-1.012,0.034l-0.136,0.036" style="fill:none;stroke:#000;stroke-width:1.38px;"/><path id="path10473" d="M12.596,176.5l-0.929,2.415l0.508,5.87l0.069,0.41" style="fill:none;stroke:#000;stroke-width:1.38px;"/><path id="path10475" d="M29.105,225.882l0.444,-0.356l0.306,-0.746l0.161,-1.129l0.013,-1.494l-0.136,-1.838l-0.283,-2.153l-0.428,-2.434l-0.565,-2.677l-0.693,-2.876l-0.811,-3.027l-0.915,-3.128l-1.005,-3.177l-1.076,-3.171l-1.131,-3.113l-1.166,-3.003l-1.181,-2.841l-1.176,-2.634l-1.153,-2.381l-1.109,-2.091l-1.048,-1.767l-0.969,-1.415l-0.876,-1.043l-0.768,-0.654l-0.648,-0.26l-0.297,0.026" style="fill:none;stroke:#000;stroke-width:1.38px;"/><path id="path10477" d="M12.244,185.195l0.471,2.474l0.598,2.679l0.713,2.845l0.818,2.966l0.911,3.041l0.988,3.071l1.052,3.053l1.099,2.99l1.129,2.882l1.143,2.728l1.139,2.534l1.118,2.3l1.079,2.029l1.024,1.727l0.952,1.397l0.866,1.041l0.765,0.669l0.652,0.283l0.344,-0.024" style="fill:none;stroke:#000;stroke-width:1.38px;"/><path id="path10479" d="M214.88,346.584l-3.436,-5.641" style="fill:none;stroke:#000;stroke-width:1.38px;"/><path id="path10481" d="M207.246,349.139l7.634,-2.555" style="fill:none;stroke:#000;stroke-width:1.38px;"/><path id="path10483" d="M207.246,349.139l-3.414,-5.662" style="fill:none;stroke:#000;stroke-width:1.38px;"/><path id="path10485" d="M207.904,365.675l7.532,-2.544" style="fill:none;stroke:#000;stroke-width:1.38px;"/><path id="path10487" d="M207.904,365.675l-0.658,-16.536" style="fill:none;stroke:#000;stroke-width:1.38px;"/><path id="path10489" d="M215.436,363.131l-0.556,-16.547" style="fill:none;stroke:#000;stroke-width:1.38px;"/><path id="path10491" d="M207.904,365.675l-3.373,-5.649" style="fill:none;stroke:#000;stroke-width:1.38px;"/><path id="path10493" d="M227.975,349.284l0.488,-0.355" style="fill:none;stroke:#000;stroke-width:1.38px;"/><path id="path10495" d="M227.543,349.691l0.432,-0.407" style="fill:none;stroke:#000;stroke-width:1.38px;"/><path id="path10497" d="M227.166,350.15l0.377,-0.459" style="fill:none;stroke:#000;stroke-width:1.38px;"/><path id="path10499" d="M226.863,350.676l0.303,-0.526" style="fill:none;stroke:#000;stroke-width:1.38px;"/><path id="path10501" d="M226.652,351.285l0.211,-0.609" style="fill:none;stroke:#000;stroke-width:1.38px;"/><path id="path10503" d="M226.533,351.977l0.119,-0.692" style="fill:none;stroke:#000;stroke-width:1.38px;"/><path id="path10505" d="M226.507,352.752l0.026,-0.775" style="fill:none;stroke:#000;stroke-width:1.38px;"/><path id="path10507" d="M226.647,358.465l-0.14,-5.713" style="fill:none;stroke:#000;stroke-width:1.38px;"/><path id="path10509" d="M220.248,361.265l6.399,-2.8" style="fill:none;stroke:#000;stroke-width:1.38px;"/><path id="path10511" d="M220.248,361.265l-0.355,-11.949" style="fill:none;stroke:#000;stroke-width:1.38px;"/><path id="path10513" d="M219.893,349.316l6.023,-2.605" style="fill:none;stroke:#000;stroke-width:1.38px;"/><path id="path10515" d="M225.964,348.674l-0.048,-1.963" style="fill:none;stroke:#000;stroke-width:1.38px;"/><path id="path10517" d="M225.964,348.674l1.308,-1.653" style="fill:none;stroke:#000;stroke-width:1.38px;"/><path id="path10519" d="M227.272,347.021l1.323,-1.332" style="fill:none;stroke:#000;stroke-width:1.38px;"/><path id="path10521" d="M228.595,345.689l1.476,-1.121" style="fill:none;stroke:#000;stroke-width:1.38px;"/><path id="path10523" d="M230.071,344.568l1.758,-1.029" style="fill:none;stroke:#000;stroke-width:1.38px;"/><path id="path10525" d="M231.829,343.539l1.209,-0.564" style="fill:none;stroke:#000;stroke-width:1.38px;"/><path id="path10527" d="M233.038,342.975l1.066,-0.359" style="fill:none;stroke:#000;stroke-width:1.38px;"/><path id="path10529" d="M234.104,342.616l0.925,-0.148" style="fill:none;stroke:#000;stroke-width:1.38px;"/><path id="path10531" d="M235.029,342.468l0.786,0.065" style="fill:none;stroke:#000;stroke-width:1.38px;"/><path id="path10533" d="M236.443,342.83l-0.628,-0.298" style="fill:none;stroke:#000;stroke-width:1.38px;"/><path id="path10535" d="M236.896,343.38l-0.453,-0.55" style="fill:none;stroke:#000;stroke-width:1.38px;"/><path id="path10537" d="M237.174,344.185l-0.278,-0.805" style="fill:none;stroke:#000;stroke-width:1.38px;"/><path id="path10539" d="M237.279,345.244l-0.105,-1.059" style="fill:none;stroke:#000;stroke-width:1.38px;"/><path id="path10541" d="M237.399,352.827l-0.12,-7.583" style="fill:none;stroke:#000;stroke-width:1.38px;"/><path id="path10543" d="M231.338,356.16l6.061,-3.333" style="fill:none;stroke:#000;stroke-width:1.38px;"/><path id="path10545" d="M231.338,356.16l-0.136,-6.55" style="fill:none;stroke:#000;stroke-width:1.38px;"/><path id="path10547" d="M231.202,349.61l-0.046,-0.505" style="fill:none;stroke:#000;stroke-width:1.38px;"/><path id="path10549" d="M231.156,349.105l-0.115,-0.387" style="fill:none;stroke:#000;stroke-width:1.38px;"/><path id="path10551" d="M231.041,348.718l-0.183,-0.268" style="fill:none;stroke:#000;stroke-width:1.38px;"/><path id="path10553" d="M230.858,348.45l-0.252,-0.151" style="fill:none;stroke:#000;stroke-width:1.38px;"/><path id="path10555" d="M230.291,348.251l0.315,0.048" style="fill:none;stroke:#000;stroke-width:1.38px;"/><path id="path10557" d="M229.919,348.29l0.372,-0.039" style="fill:none;stroke:#000;stroke-width:1.38px;"/><path id="path10559" d="M229.49,348.414l0.429,-0.124" style="fill:none;stroke:#000;stroke-width:1.38px;"/><path id="path10561" d="M229.004,348.624l0.486,-0.21" style="fill:none;stroke:#000;stroke-width:1.38px;"/><path id="path10563" d="M228.463,348.929l0.541,-0.305" style="fill:none;stroke:#000;stroke-width:1.38px;"/><path id="path10565" d="M225.916,346.711l-3.483,-5.651" style="fill:none;stroke:#000;stroke-width:1.38px;"/><path id="path10567" d="M219.893,349.316l-3.445,-5.636" style="fill:none;stroke:#000;stroke-width:1.38px;"/><path id="path10569" d="M220.248,361.265l-3.414,-5.627" style="fill:none;stroke:#000;stroke-width:1.38px;"/><path id="path10571" d="M228.595,345.689l-3.502,-5.662" style="fill:none;stroke:#000;stroke-width:1.38px;"/><path id="path10573" d="M227.272,347.021l-3.49,-5.655" style="fill:none;stroke:#000;stroke-width:1.38px;"/><path id="path10575" d="M230.071,344.568l-3.516,-5.671" style="fill:none;stroke:#000;stroke-width:1.38px;"/><path id="path10577" d="M231.829,343.539l-3.532,-5.682" style="fill:none;stroke:#000;stroke-width:1.38px;"/><path id="path10579" d="M233.038,342.975l-3.543,-5.692" style="fill:none;stroke:#000;stroke-width:1.38px;"/><path id="path10581" d="M234.104,342.616l-3.553,-5.7" style="fill:none;stroke:#000;stroke-width:1.38px;"/><path id="path10583" d="M235.029,342.468l-3.562,-5.708" style="fill:none;stroke:#000;stroke-width:1.38px;"/><path id="path10585" d="M235.815,342.532l-3.569,-5.715" style="fill:none;stroke:#000;stroke-width:1.38px;"/><path id="path10587" d="M236.443,342.83l-3.574,-5.721" style="fill:none;stroke:#000;stroke-width:1.38px;"/><path id="path10589" d="M236.896,343.38l-3.577,-5.725" style="fill:none;stroke:#000;stroke-width:1.38px;"/><path id="path10591" d="M231.156,349.105l-0.469,-0.757" style="fill:none;stroke:#000;stroke-width:1.38px;"/><path id="path10593" d="M231.202,349.61l-0.833,-1.347" style="fill:none;stroke:#000;stroke-width:1.38px;"/><path id="path10595" d="M231.338,356.16l-3.492,-5.668" style="fill:none;stroke:#000;stroke-width:1.38px;"/><path id="path10597" d="M16.917,193.977l-0.251,-2.702l0.397,-1.142l0.023,0" style="fill:none;stroke:#000;stroke-width:1.38px;"/><path id="path10599" d="M20.819,225.444l-0.833,2.322l0.522,5.425" style="fill:none;stroke:#000;stroke-width:1.38px;"/><path id="path10601" d="M37.012,272.965l0.411,-0.342l0.276,-0.719l0.134,-1.086l-0.01,-1.439l-0.154,-1.768l-0.298,-2.073l-0.436,-2.342l-0.569,-2.576l-0.692,-2.767l-0.804,-2.912l-0.904,-3.009l-0.987,-3.055l-1.054,-3.05l-1.105,-2.994l-1.135,-2.888l-1.147,-2.733l-1.141,-2.533l-1.113,-2.291l-1.07,-2.012l-1.007,-1.7l-0.928,-1.364l-0.836,-1.005l-0.729,-0.634l-0.612,-0.253l-0.283,0.024" style="fill:none;stroke:#000;stroke-width:1.38px;"/><path id="path10603" d="M20.508,233.191l0.444,2.317l0.566,2.528l0.681,2.698l0.783,2.827l0.876,2.912l0.953,2.953l1.016,2.949l1.064,2.9l1.095,2.808l1.111,2.672l1.108,2.495l1.09,2.28l1.054,2.029l1.002,1.745l0.935,1.434l0.851,1.097l0.755,0.742l0.646,0.373l0.474,0.024" style="fill:none;stroke:#000;stroke-width:1.38px;"/><path id="path10605" d="M24.513,212.345l-0.999,-0.656l-1.423,-2.29l-1.621,-3.559l-1.568,-4.272l-1.274,-4.324l-0.711,-3.267" style="fill:none;stroke:#000;stroke-width:1.38px;"/><path id="path10607" d="M17.085,190.126l1.006,0.665l1.44,2.329l1.645,3.632l1.587,4.353l1.27,4.373l0.752,3.688l0.116,2.417l-0.387,0.762" style="fill:none;stroke:#000;stroke-width:1.38px;"/><path id="path10609" d="M25.075,241.974l-0.222,-2.483l0.37,-0.947" style="fill:none;stroke:#000;stroke-width:1.38px;"/><path id="path10611" d="M32.509,259.925l-0.946,-0.632l-1.367,-2.206l-1.572,-3.427l-1.532,-4.112l-1.257,-4.162l-0.76,-3.412" style="fill:none;stroke:#000;stroke-width:1.38px;"/><path id="path10613" d="M25.223,238.544l0.952,0.64l1.382,2.24l1.595,3.493l1.549,4.188l1.256,4.208l0.759,3.55l0.145,2.328l-0.352,0.734" style="fill:none;stroke:#000;stroke-width:1.38px;"/><path id="path10615" d="M178.557,190.011l6.676,-2.428l6.174,-2.948l5.569,-3.416l4.874,-3.823l4.102,-4.161l3.268,-4.428l2.387,-4.619l1.476,-4.732l0.55,-4.768l-0.008,-1.172" style="fill:none;stroke:#000;stroke-width:1.38px;"/><path id="path10617" d="M171.056,178.512l-4.733,1.239l-4.908,0.84l-5.001,0.429l-5.01,0l-4.933,-0.412l-4.774,-0.823l-4.536,-1.22l-4.221,-1.597l-3.838,-1.944l-3.392,-2.257l-2.893,-2.532l-2.349,-2.764l-1.77,-2.948l-1.166,-3.085l-0.516,-2.796" style="fill:none;stroke:#000;stroke-width:1.38px;"/><path id="path10619" d="M98.343,160.941l0.981,4.685l1.901,4.549l2.797,4.339l3.655,4.053l4.462,3.696l5.199,3.277l5.854,2.796l6.413,2.266l6.865,1.693l7.2,1.089l7.414,0.464l7.497,-0.17l7.452,-0.802l7.278,-1.418l5.246,-1.447" style="fill:none;stroke:#000;stroke-width:1.38px;"/><path id="path10621" d="M213.626,153.516l-0.602,-4.705l-1.506,-4.57l-2.378,-4.365l-3.203,-4.095l-3.972,-3.764l-4.673,-3.378l-5.298,-2.944l-5.84,-2.469l-6.289,-1.961l-6.645,-1.425l-6.9,-0.871l-7.052,-0.305l-7.101,0.264l-7.045,0.829l-6.886,1.383l-6.624,1.918l-6.263,2.425l-5.807,2.899l-5.262,3.333l-4.633,3.719l-3.929,4.052l-3.16,4.324l-2.333,4.534l-1.462,4.673l-0.56,4.741l0.14,3.183" style="fill:none;stroke:#000;stroke-width:1.38px;"/><path id="path10623" d="M194.831,153.64l-0.175,3.211l-0.799,3.2l-1.413,3.137l-2.01,3.023l-2.577,2.858l-3.104,2.644l-3.583,2.386l-4.005,2.087l-4.36,1.751l-1.75,0.575" style="fill:none;stroke:#000;stroke-width:1.38px;"/><path id="path10625" d="M117.016,158.651l0.003,-3.202l0.622,-3.19l1.226,-3.129l1.808,-3.018l2.357,-2.861l2.867,-2.661l3.329,-2.42l3.739,-2.144l4.089,-1.836l4.377,-1.502l4.595,-1.145l4.746,-0.772l4.823,-0.387l4.828,0.002l4.76,0.393l4.619,0.778l4.409,1.152l4.129,1.51l3.787,1.845l3.384,2.155l2.927,2.431l2.421,2.673l1.876,2.874l1.297,3.031l0.692,3.14l0.104,1.272" style="fill:none;stroke:#000;stroke-width:1.38px;"/><path id="path10627" d="M117.711,162.065l0.668,-3.188l1.267,-3.122l1.845,-3.007l2.388,-2.846l2.892,-2.643l3.349,-2.398l3.751,-2.12l4.096,-1.809l4.375,-1.473l4.589,-1.114l4.733,-0.739l4.804,-0.355l4.803,0.036l4.729,0.427l4.583,0.811l4.368,1.183l4.085,1.54l3.738,1.874l3.334,2.18l2.874,2.455l2.367,2.692l1.821,2.89l1.243,3.043l0.208,0.743" style="fill:none;stroke:#000;stroke-width:1.38px;"/><path id="path10629" d="M145.486,145.394l3.394,-0.868l3.51,-0.59l3.571,-0.303l3.578,-0.012l3.529,0.281l3.426,0.569l3.27,0.849l3.064,1.116l2.809,1.366l2.51,1.597l2.172,1.804l1.796,1.982l1.392,2.131l0.964,2.246l0.517,2.327l0.077,0.888" style="fill:none;stroke:#000;stroke-width:1.38px;"/><path id="path10631" d="M127.699,164.476l0.017,-2.373l0.474,-2.364l0.92,-2.318l1.351,-2.236l1.757,-2.118l2.134,-1.969l2.477,-1.79l2.78,-1.583l3.039,-1.352l2.838,-0.979" style="fill:none;stroke:#000;stroke-width:1.38px;"/><path id="path10633" d="M185.065,160.778l-0.112,2.378l-0.571,2.369l-1.023,2.323l-1.461,2.238l-1.877,2.116l-2.264,1.96l-2.616,1.771l-2.925,1.551l-3.187,1.305l-3.397,1.038l-1.114,0.27" style="fill:none;stroke:#000;stroke-width:1.38px;"/><path id="path10635" d="M151.153,181.022l-3.567,-0.463l-3.421,-0.761l-3.219,-1.045l-2.963,-1.312l-2.661,-1.556l-2.315,-1.773l-1.932,-1.961l-1.521,-2.115l-1.087,-2.236l-0.636,-2.319l-0.132,-1.005" style="fill:none;stroke:#000;stroke-width:1.38px;"/><path id="path10637" d="M163.396,406.967l10.136,7.947" style="fill:none;stroke:#000;stroke-width:1.38px;"/><path id="path10639" d="M204.594,398.206l-1.55,-12.547" style="fill:none;stroke:#000;stroke-width:1.38px;"/><path id="path10641" d="M153.442,397.674l8.125,7.309" style="fill:none;stroke:#000;stroke-width:1.38px;"/><path id="path10643" d="M202.286,383.104l-2.06,-10.55" style="fill:none;stroke:#000;stroke-width:1.38px;"/><path id="path10645" d="M147.607,379.763l3.482,6.301" style="fill:none;stroke:#000;stroke-width:1.38px;"/><path id="path10647" d="M160.104,402.374l1.194,2.16" style="fill:none;stroke:#000;stroke-width:1.38px;"/><path id="path10649" d="M202.037,382.645l-1.248,-2.128" style="fill:none;stroke:#000;stroke-width:1.38px;"/><path id="path10651" d="M191.367,364.456l-3.64,-6.204" style="fill:none;stroke:#000;stroke-width:1.38px;"/><path id="path10653" d="M189.84,361.829l0.079,-1.172l-0.05,-1.503l-0.221,-1.444l-0.384,-1.375l-0.539,-1.296l-0.686,-1.21l-0.825,-1.12l-0.957,-1.022l-1.081,-0.921l-1.203,-0.817l-1.321,-0.709l-1.435,-0.596l-1.543,-0.478l-1.645,-0.355l-1.734,-0.224l-1.809,-0.094l-1.868,0.038l-1.912,0.17l-1.94,0.297l-1.953,0.421l-1.954,0.54l-1.943,0.655l-1.92,0.764l-1.886,0.869l-1.839,0.967l-1.782,1.059l-1.713,1.145l-1.633,1.225l-1.543,1.297l-1.443,1.365l-1.333,1.424l-1.211,1.478l-1.081,1.523l-0.94,1.561l-0.788,1.589l-0.625,1.604l-0.454,1.605l-0.277,1.588l-0.098,1.554l0.078,1.505l0.249,1.441l0.41,1.367l0.565,1.285l0.709,1.196l0.847,1.103l0.975,1.003l1.097,0.901l1.216,0.795l1.118,0.588" style="fill:none;stroke:#000;stroke-width:1.38px;"/><path id="path10655" d="M136.171,359.072l6.31,11.416" style="fill:none;stroke:#000;stroke-width:1.38px;"/><path id="path10657" d="M182.371,349.123l-6.599,-11.247" style="fill:none;stroke:#000;stroke-width:1.38px;"/><path id="path10659" d="M308.892,299.715l9.172,-3.125" style="fill:none;stroke:#000;stroke-width:1.38px;"/><path id="path10661" d="M101.329,370.423l32.421,-11.045" style="fill:none;stroke:#000;stroke-width:1.38px;"/><path id="path10663" d="M179.287,343.866l67.112,-22.863" style="fill:none;stroke:#000;stroke-width:1.38px;"/><path id="path10665" d="M91.629,314.275l-9.176,3.027" style="fill:none;stroke:#000;stroke-width:1.38px;"/><path id="path10667" d="M299.632,245.655l-21.959,7.245" style="fill:none;stroke:#000;stroke-width:1.38px;"/><path id="path10669" d="M177.929,341.524l0.07,-1.149l-0.056,-1.495l-0.224,-1.438l-0.384,-1.371l-0.538,-1.294l-0.683,-1.211l-0.821,-1.122l-0.951,-1.026l-1.075,-0.928l-1.195,-0.824l-1.312,-0.717l-1.423,-0.606l-1.531,-0.489l-1.628,-0.367l-1.717,-0.24l-1.79,-0.11l-1.848,0.024l-1.892,0.151l-1.919,0.279l-1.933,0.403l-1.933,0.524l-1.923,0.637l-1.899,0.748l-1.864,0.853l-1.818,0.951l-1.76,1.045l-1.692,1.131l-1.612,1.212l-1.523,1.286l-1.422,1.353l-1.311,1.414l-1.192,1.467l-1.062,1.514l-0.921,1.551l-0.77,1.578l-0.61,1.593l-0.441,1.594l-0.268,1.578l-0.092,1.545l0.081,1.498l0.249,1.436l0.409,1.365l0.56,1.285l0.704,1.198l0.84,1.107l0.967,1.009l1.089,0.909l1.207,0.804l1.148,0.617" style="fill:none;stroke:#000;stroke-width:1.38px;"/><path id="path10671" d="M109.466,336.126l4.056,7.463" style="fill:none;stroke:#000;stroke-width:1.38px;"/><path id="path10673" d="M83.904,289.086l10.456,19.241" style="fill:none;stroke:#000;stroke-width:1.38px;"/><path id="path10675" d="M174.31,311.112l-6.575,-11.027" style="fill:none;stroke:#000;stroke-width:1.38px;"/><path id="path10677" d="M128.997,346.091l2.087,3.778" style="fill:none;stroke:#000;stroke-width:1.38px;"/><path id="path10679" d="M170.46,328.821l-2.187,-3.728" style="fill:none;stroke:#000;stroke-width:1.38px;"/><path id="path10681" d="M275.185,252.804l0.766,-58.042" style="fill:none;stroke:#000;stroke-width:1.38px;"/><path id="path10683" d="M42.143,209.908l15.397,100.076" style="fill:none;stroke:#000;stroke-width:1.38px;"/><path id="path10685" d="M233.464,185.745l-0.419,-25.007" style="fill:none;stroke:#000;stroke-width:1.38px;"/><path id="path10687" d="M80.06,170.601l3.066,24.868" style="fill:none;stroke:#000;stroke-width:1.38px;"/><path id="path10689" d="M252.381,189.843l-0.012,-3.316" style="fill:none;stroke:#000;stroke-width:1.38px;"/><path id="path10691" d="M64.446,198.686l0.451,3.292" style="fill:none;stroke:#000;stroke-width:1.38px;"/><path id="path10693" d="M94.324,308.262l0.02,0.033" style="fill:none;stroke:#000;stroke-width:1.38px;"/><path id="path10695" d="M94.343,308.295l0.224,0.542l0.139,0.622l0.04,0.612l-0.049,0.608l-0.205,0.812l-0.498,0.987l-0.934,1.015l-0.66,0.443l-0.789,0.345" style="fill:none;stroke:#000;stroke-width:1.38px;"/><path id="path10697" d="M305.549,401.817l10.315,7.28" style="fill:none;stroke:#000;stroke-width:1.38px;"/><path id="path10699" d="M344.171,391.764l-2.486,-12.088" style="fill:none;stroke:#000;stroke-width:1.38px;"/><path id="path10701" d="M295.409,393.325l8.485,6.849" style="fill:none;stroke:#000;stroke-width:1.38px;"/><path id="path10703" d="M340.839,377.536l-2.857,-10.312" style="fill:none;stroke:#000;stroke-width:1.38px;"/><path id="path10705" d="M277.75,252.875l-0.822,0.177l-0.761,-0.001l-0.647,-0.12l-0.728,-0.276l-0.569,-0.347l-0.441,-0.384l-0.295,-0.346l-0.162,-0.237l-0.052,-0.07" style="fill:none;stroke:#000;stroke-width:1.38px;"/><path id="path10707" d="M288.804,376.785l4.221,6.545" style="fill:none;stroke:#000;stroke-width:1.38px;"/><path id="path10709" d="M302.519,398.051l1.238,1.92" style="fill:none;stroke:#000;stroke-width:1.38px;"/><path id="path10711" d="M340.705,377.33l-1.284,-1.894" style="fill:none;stroke:#000;stroke-width:1.38px;"/><path id="path10713" d="M329.572,360.913l-4.379,-6.458" style="fill:none;stroke:#000;stroke-width:1.38px;"/><path id="path10715" d="M327.196,357.383l0.026,-0.922l-0.096,-1.383l-0.256,-1.319l-0.409,-1.241l-0.552,-1.157l-0.685,-1.067l-0.811,-0.972l-0.926,-0.873l-1.037,-0.771l-1.143,-0.667l-1.248,-0.561l-1.35,-0.45l-1.448,-0.335l-1.54,-0.215l-1.62,-0.091l-1.685,0.036l-1.735,0.16l-1.768,0.283l-1.787,0.401l-1.794,0.514l-1.789,0.621l-1.775,0.723l-1.748,0.82l-1.714,0.91l-1.667,0.995l-1.612,1.074l-1.546,1.145l-1.47,1.212l-1.386,1.27l-1.292,1.324l-1.189,1.37l-1.078,1.412l-0.957,1.447l-0.827,1.474l-0.687,1.495l-0.536,1.503l-0.376,1.498l-0.208,1.476l-0.04,1.435l0.126,1.378l0.285,1.308l0.435,1.227l0.576,1.141l0.706,1.048l0.828,0.952l0.94,0.851l1.049,0.75l1.152,0.645l1.198,0.517" style="fill:none;stroke:#000;stroke-width:1.38px;"/><path id="path10717" d="M276.291,357.382l7.184,11.139" style="fill:none;stroke:#000;stroke-width:1.38px;"/><path id="path10719" d="M319.677,346.323l-7.465,-11.009" style="fill:none;stroke:#000;stroke-width:1.38px;"/><path id="path10721" d="M314.261,338.308l0.019,-0.904l-0.102,-1.376l-0.259,-1.313l-0.41,-1.238l-0.55,-1.156l-0.683,-1.068l-0.806,-0.975l-0.922,-0.877l-1.032,-0.777l-1.137,-0.674l-1.241,-0.569l-1.341,-0.459l-1.437,-0.346l-1.526,-0.225l-1.604,-0.103l-1.669,0.024l-1.718,0.146l-1.751,0.268l-1.77,0.386l-1.776,0.498l-1.772,0.607l-1.756,0.709l-1.731,0.806l-1.695,0.897l-1.648,0.982l-1.593,1.063l-1.527,1.135l-1.451,1.201l-1.367,1.262l-1.273,1.316l-1.17,1.363l-1.059,1.405l-0.939,1.439l-0.809,1.468l-0.67,1.487l-0.521,1.495l-0.362,1.489l-0.199,1.467l-0.033,1.427l0.13,1.373l0.286,1.304l0.434,1.225l0.572,1.141l0.701,1.051l0.823,0.956l0.935,0.857l1.042,0.757l1.145,0.653l1.224,0.54" style="fill:none;stroke:#000;stroke-width:1.38px;"/><path id="path10723" d="M269.102,349.411l1.897,-0.057" style="fill:none;stroke:#000;stroke-width:1.38px;"/><path id="path10725" d="M306.889,327.296l0.858,-1.638" style="fill:none;stroke:#000;stroke-width:1.38px;"/><path id="path10727" d="M268.431,345.193l2.572,3.989" style="fill:none;stroke:#000;stroke-width:1.38px;"/><path id="path10729" d="M306.739,327.244l-2.681,-3.954" style="fill:none;stroke:#000;stroke-width:1.38px;"/><path id="path10731" d="M245.773,331.194l7.816,12.292" style="fill:none;stroke:#000;stroke-width:1.38px;"/><path id="path10733" d="M308.729,309.57l-2.161,-3.143" style="fill:none;stroke:#000;stroke-width:1.38px;"/><path id="path10735" d="M29.105,225.882l14.789,-4.59" style="fill:none;stroke:#000;stroke-width:1.38px;"/><path id="path10737" d="M216.403,115.225l-17.905,5.383" style="fill:none;stroke:#000;stroke-width:1.38px;"/><path id="path10739" d="M56.24,163.378l-43.644,13.122" style="fill:none;stroke:#000;stroke-width:1.38px;"/><path id="path10741" d="M306.579,306.444l-0.482,-0.911l-0.258,-0.991l-0.019,-1.02l0.218,-0.998l0.447,-0.924l0.65,-0.803l0.821,-0.641l0.95,-0.446" style="fill:none;stroke:#000;stroke-width:1.38px;"/><path id="path10743" d="M37.012,272.965l14.138,-4.514" style="fill:none;stroke:#000;stroke-width:1.38px;"/><path id="path10745" d="M26.347,223.732l-5.528,1.712" style="fill:none;stroke:#000;stroke-width:1.38px;"/><path id="path10747" d="M213.833,160.421l-0.207,-6.905" style="fill:none;stroke:#000;stroke-width:1.38px;"/><path id="path10749" d="M98.343,160.941l0.755,6.876" style="fill:none;stroke:#000;stroke-width:1.38px;"/><path id="path10751" d="M277.686,252.895l-0.224,0.084l-0.976,0.543l-1.123,0.845l-1.315,1.149l-1.459,1.377l-1.58,1.55l-1.705,1.698l-1.851,1.845l-1.963,1.938l-3.497,3.369l-3.766,3.486l-4.005,3.528l-4.367,3.623l-4.594,3.566l-4.803,3.462l-7.477,4.848l-7.892,4.422l-5.59,2.706l-5.759,2.434l-5.906,2.139l-7.848,2.31l-8.038,1.799l-8.333,1.331l-8.462,0.88" style="fill:none;stroke:#000;stroke-width:1.38px;"/><path id="path10753" d="M115.411,350.878l-1.657,-1.024l-1.58,-1.183l-1.507,-1.34l-1.48,-1.546l-1.394,-1.684l-2.234,-3.208l-2.053,-3.512l-1.899,-3.661l-1.793,-3.663l-0.917,-1.883l-0.893,-1.803l-0.893,-1.752l-0.868,-1.637l-0.848,-1.53l-0.81,-1.39l-0.781,-1.279l-0.71,-1.119l-0.605,-0.931l-0.499,-0.776l-0.378,-0.642l-0.216,-0.484l-0.03,-0.315l0.151,-0.196l0.095,-0.04" style="fill:none;stroke:#000;stroke-width:1.38px;"/><path id="path10755" d="M131.078,353.309l-2.858,0.153l-3.731,-0.115l-3.634,-0.527l-2.794,-0.766l-2.65,-1.176" style="fill:none;stroke:#000;stroke-width:1.38px;"/><path id="path10757" d="M174.564,325.732l-0.27,1.047l-0.867,2.488l-0.451,1.015" style="fill:none;stroke:#000;stroke-width:1.38px;"/><path id="path10759" d="M175.153,307.827l-0.637,0.151l-0.571,0.346l-0.428,0.53l-0.188,0.618" style="fill:none;stroke:#000;stroke-width:1.38px;"/><path id="path10761" d="M306.417,299.179l0.013,0l0.9,0.189l0.707,0.165l0.516,0.124l0.294,0.055l0.058,0" style="fill:none;stroke:#000;stroke-width:1.38px;"/><path id="path10763" d="M252.891,317.399l1.488,-1.015l2.805,-1.914l2.932,-1.977l3.315,-2.167l3.411,-2.11l3.481,-1.984l3.729,-1.888l3.795,-1.651l3.813,-1.371l3.932,-1.097l3.882,-0.787l3.756,-0.496l3.397,-0.232l3.192,-0.045l2.899,0.102l2.029,0.168l1.67,0.244" style="fill:none;stroke:#000;stroke-width:1.38px;"/><path id="path10765" d="M167.738,300.091l-0.731,-1.125l-1.292,-1.632l-1.517,-1.562l-1.827,-1.562l-2.044,-1.475l-2.327,-1.431l-2.514,-1.333l-4.079,-1.828l-4.423,-1.648" style="fill:none;stroke:#000;stroke-width:1.38px;"/><path id="path10767" d="M109.464,336.122l0.159,0.293" style="fill:none;stroke:#000;stroke-width:1.38px;"/><path id="path10769" d="M94.352,308.312l0.319,0.541l0.522,0.807l0.665,1l0.767,1.168l0.849,1.332l0.912,1.489l0.982,1.678l1.022,1.828l0.99,1.849l1.013,1.964l1.057,2.112l1.082,2.206l1.961,4.024l1.048,2.114l1.091,2.133l0.832,1.565" style="fill:none;stroke:#000;stroke-width:1.38px;"/><path id="path10771" d="M146.984,286.495l-2.484,-0.866l-4.147,-1.455l-4.151,-1.387l-4.139,-1.233l-5.554,-1.282l-5.528,-0.828l-4.238,-0.389l-4.081,-0.327l-3.836,-0.419" style="fill:none;stroke:#000;stroke-width:1.38px;"/><path id="path10773" d="M108.826,278.309l-1.954,-0.268l-4.589,-0.575l-4.289,-0.448l-4.063,-0.302l-3.706,-0.086l-1.806,0.067l-1.681,0.175l-1.56,0.318l-1.378,0.51l-1.238,0.853l-0.494,0.593l-0.372,0.723l-0.272,1.235l0.059,1.581l0.401,1.765l0.735,2.001l0.803,1.716l0.479,0.911" style="fill:none;stroke:#000;stroke-width:1.38px;"/><path id="path10775" d="M248.109,334.915l-0.558,0.091l-1.907,0.098l-1.531,-0.189l-1.428,-0.433l-1.344,-0.698l-1.192,-0.941l-0.942,-1.063l-0.788,-1.245l-0.641,-1.456l-0.46,-1.624l-0.348,-2.909l-0.008,-0.319" style="fill:none;stroke:#000;stroke-width:1.38px;"/><path id="path10777" d="M149.975,276.544l4.818,1.687l2.328,0.963l2.225,1.033l2.69,1.43l2.479,1.543l2.318,1.709l2.057,1.82" style="fill:none;stroke:#000;stroke-width:1.38px;"/><path id="path10779" d="M87.939,296.544l-1.656,-2.2l-2.002,-2.964l-1.744,-3.003l-1.392,-2.953l-0.792,-2.259l-0.463,-2.106l-0.1,-1.889l0.249,-1.633l0.496,-1.237l0.716,-1.048l0.901,-0.878l1.871,-1.178l2.239,-0.871l2.537,-0.639l3.796,-0.605l4.23,-0.37l4.621,-0.168l4.965,0l2.091,0.041" style="fill:none;stroke:#000;stroke-width:1.38px;"/><path id="path10781" d="M175.122,302.791l1.58,-0.067" style="fill:none;stroke:#000;stroke-width:1.38px;"/><path id="path10783" d="M195.479,300.462l5.265,-1.229l6.105,-1.791" style="fill:none;stroke:#000;stroke-width:1.38px;"/><path id="path10785" d="M217.206,293.339l0.179,-0.084" style="fill:none;stroke:#000;stroke-width:1.38px;"/><path id="path10787" d="M224.391,289.648l1.963,-1.163l3.347,-2.035" style="fill:none;stroke:#000;stroke-width:1.38px;"/><path id="path10789" d="M238.913,279.91l3.49,-2.825l4.258,-3.711l4.017,-3.762l3.751,-3.742l3.463,-3.65l3.154,-3.487l2.323,-2.656l2.104,-2.431l1.864,-2.122l1.255,-1.364l1.112,-1.1l0.963,-0.793l0.809,-0.438l0.597,-0.06l0.488,0.268l0.383,0.608l0.289,0.983l0.199,1.342l0.049,0.546" style="fill:none;stroke:#000;stroke-width:1.38px;"/><path id="path10791" d="M175.217,301.7l-0.095,1.091" style="fill:none;stroke:#000;stroke-width:1.38px;"/><path id="path10793" d="M243.893,160.905l5.444,7.133l4.066,7.618l2.601,7.992l1.071,8.246l-0.505,8.372l-2.1,8.363l-3.687,8.215l-5.239,7.924l-6.725,7.494l-8.116,6.925l-9.383,6.228l-10.496,5.41l-11.433,4.487l-12.168,3.476l-12.685,2.395l-12.974,1.267l-13.024,0.115l-12.836,-1.04l-12.415,-2.17l-11.771,-3.255l-10.92,-4.273l-9.883,-5.204l-8.684,-6.033l-7.348,-6.746l-5.907,-7.333l-4.387,-7.786l-2.82,-8.102l-1.233,-8.279l0.346,-8.322l1.892,-8.23l3.382,-8.014l3.677,-6.099" style="fill:none;stroke:#000;stroke-width:1.38px;"/><path id="path10795" d="M64.897,201.978l1.837,7.823l3.345,7.594l4.822,7.235l6.238,6.746l7.57,6.134l8.786,5.407l9.863,4.576l10.774,3.654l11.5,2.658l12.023,1.608l12.329,0.525l12.413,-0.573l12.27,-1.658l11.905,-2.712l11.325,-3.712l10.547,-4.639l9.586,-5.476l8.465,-6.208l7.21,-6.822l5.846,-7.31l4.403,-7.668l2.908,-7.89l1.389,-7.979l0.13,-3.486" style="fill:none;stroke:#000;stroke-width:1.38px;"/><path id="path10797" d="M170.455,304.672l0.497,-0.444l0.886,-0.579l1.049,-0.453l1.071,-0.277l1.164,-0.127" style="fill:none;stroke:#000;stroke-width:1.38px;"/><path id="path10799" d="M149.975,276.544l-0.985,2.001l-0.908,2.459l-0.691,2.533l-0.366,2.211l-0.041,0.747" style="fill:none;stroke:#000;stroke-width:1.38px;"/><path id="path10801" d="M108.502,270.58l0.726,2.263l0.145,2.62l-0.457,2.568l-0.09,0.278" style="fill:none;stroke:#000;stroke-width:1.38px;"/><path id="path10803" d="M94.323,308.259l0.029,0.053" style="fill:none;stroke:#000;stroke-width:1.38px;"/><path id="path10805" d="M115.411,350.878l1.336,-1.252l1.372,-0.739l0.619,-0.136" style="fill:none;stroke:#000;stroke-width:1.38px;"/><path id="path10807" d="M175.153,307.827l-0.118,-1.845l-0.008,-1.804l0.095,-1.387" style="fill:none;stroke:#000;stroke-width:1.38px;"/><path id="path10809" d="M306.417,299.179l-1.364,1.165l-0.845,1.601l-0.191,1.785l0.491,1.687l0.457,0.692" style="fill:none;stroke:#000;stroke-width:1.38px;"/><path id="path10811" d="M252.891,317.399l1.334,0.253l1.421,0.842l1.283,1.297l0.946,1.55l0.286,0.757" style="fill:none;stroke:#000;stroke-width:1.38px;"/><path id="path10813" d="M306.579,306.443l0.015,0.031l-0.086,0.026l-0.283,-0.06l-0.513,-0.136l-0.737,-0.191l-0.009,0" style="fill:none;stroke:#000;stroke-width:1.38px;"/><path id="path10815" d="M258.161,322.098l-2.326,1.428l-2.206,1.056l-1.289,0.423l-1.226,0.235l-1.208,0.043l-1.154,-0.153l-1.117,-0.343l-1.081,-0.522l-1.079,-0.706l-1.058,-0.867" style="fill:none;stroke:#000;stroke-width:1.38px;"/><path id="path10817" d="M244.417,322.692l-0.149,2.855l0.294,2.582l0.388,1.364l0.538,1.214l0.289,0.495" style="fill:none;stroke:#000;stroke-width:1.38px;"/><path id="path10819" d="M246.671,320.907l0.123,-0.046l1.319,-0.575l2.269,-1.256l2.509,-1.63" style="fill:none;stroke:#000;stroke-width:1.38px;"/><path id="path10821" d="M244.417,322.692l-0.201,-0.945" style="fill:none;stroke:#000;stroke-width:1.38px;"/><path id="path10823" d="M244.417,322.692l-0.706,-0.773" style="fill:none;stroke:#000;stroke-width:1.38px;"/></g></g><g id="g12420"><g id="Base1" serif:id="Base"><path id="path12081" d="M669.915,237.891l-15.498,-13.398" style="fill:none;stroke:#000;stroke-width:0.98px;"/><path id="path12083" d="M609.111,245.814c6.625,1.554 14.557,2.378 22.686,2.357c18.239,-0.047 34.159,-4.341 38.118,-10.28" style="fill:none;stroke:#000;stroke-width:0.98px;"/><path id="path12085" d="M593.613,232.416l15.498,13.398" style="fill:none;stroke:#000;stroke-width:0.98px;"/><path id="path12087" d="M654.417,224.493c-6.624,-1.554 -14.557,-2.378 -22.686,-2.357c-18.238,0.048 -34.159,4.341 -38.118,10.28" style="fill:none;stroke:#000;stroke-width:0.98px;"/><path id="path12089" d="M618.411,235.188c0,0 0,0 0,0c0.006,2.44 6.039,4.432 13.365,4.413c1.633,-0.004 3.253,-0.108 4.778,-0.307" style="fill:none;stroke:#000;stroke-width:0.98px;"/><path id="path12091" d="M669.955,253.428l-0.04,-15.537" style="fill:none;stroke:#000;stroke-width:0.98px;"/><path id="path12093" d="M609.151,261.352c6.625,1.554 14.557,2.378 22.686,2.357c18.239,-0.048 34.159,-4.341 38.118,-10.281" style="fill:none;stroke:#000;stroke-width:0.98px;"/><path id="path12095" d="M609.111,245.814l0.04,15.538" style="fill:none;stroke:#000;stroke-width:0.98px;"/><path id="path12097" d="M593.653,247.954l-0.04,-15.538" style="fill:none;stroke:#000;stroke-width:0.98px;"/><path id="path12099" d="M609.151,261.352l-15.498,-13.398" style="fill:none;stroke:#000;stroke-width:0.98px;"/><path id="path12101" d="M605.849,289.915c0.002,1.034 0.56,2.059 1.647,3.025" style="fill:none;stroke:#000;stroke-width:0.98px;"/><path id="path12103" d="M636.554,239.294c5.151,-0.671 8.568,-2.337 8.564,-4.175" style="fill:none;stroke:#000;stroke-width:0.98px;"/><path id="path12105" d="M645.118,235.119c-0.008,-2.44 -6.04,-4.432 -13.365,-4.412c-7.325,0.019 -13.347,2.042 -13.342,4.481" style="fill:none;stroke:#000;stroke-width:0.98px;"/><path id="path12107" d="M613.614,298.382c2.849,2.534 10.18,4.21 18.323,4.189c8.142,-0.022 15.465,-1.736 18.301,-4.285" style="fill:none;stroke:#000;stroke-width:0.98px;"/><path id="path12109" d="M656.328,292.813c1.082,-0.972 1.634,-2 1.631,-3.034" style="fill:none;stroke:#000;stroke-width:0.98px;"/><path id="path12111" d="M607.496,292.94c3.798,3.379 13.573,5.614 24.43,5.585c10.857,-0.028 20.621,-2.314 24.402,-5.712" style="fill:none;stroke:#000;stroke-width:0.98px;"/><path id="path12113" d="M711.064,194.211c-1.352,1.215 -2.043,2.499 -2.039,3.792c0.015,5.951 14.73,10.81 32.597,10.763c3.984,-0.011 7.935,-0.264 11.654,-0.749" style="fill:none;stroke:#000;stroke-width:0.98px;"/><path id="path12115" d="M772.105,194.051c-4.749,-4.223 -16.968,-7.017 -30.539,-6.981c-13.571,0.035 -25.776,2.892 -30.502,7.141" style="fill:none;stroke:#000;stroke-width:0.98px;"/><path id="path12117" d="M780.693,204.031c-0.004,-1.552 -0.841,-3.088 -2.47,-4.538" style="fill:none;stroke:#000;stroke-width:0.98px;"/><path id="path12119" d="M753.276,208.017c16.57,-2.159 25.039,-8.441 18.829,-13.966" style="fill:none;stroke:#000;stroke-width:0.98px;"/><path id="path12121" d="M702.527,204.235c0,0 0,0 0,0c0.018,7.141 17.676,12.972 39.116,12.916c4.782,-0.013 9.522,-0.317 13.986,-0.899" style="fill:none;stroke:#000;stroke-width:0.98px;"/><path id="path12123" d="M779.829,233.595c0.622,-0.933 0.935,-1.885 0.932,-2.839" style="fill:none;stroke:#000;stroke-width:0.98px;"/><path id="path12125" d="M755.629,216.252c15.077,-1.965 25.078,-6.841 25.064,-12.221" style="fill:none;stroke:#000;stroke-width:0.98px;"/><path id="path12127" d="M704.974,199.684c-1.623,1.458 -2.451,2.999 -2.447,4.551" style="fill:none;stroke:#000;stroke-width:0.98px;"/><path id="path12129" d="M779.869,249.133l-0.04,-15.538" style="fill:none;stroke:#000;stroke-width:0.98px;"/><path id="path12131" d="M719.065,257.057c6.624,1.554 14.557,2.378 22.686,2.357c18.238,-0.048 34.159,-4.342 38.118,-10.281" style="fill:none;stroke:#000;stroke-width:0.98px;"/><path id="path12133" d="M719.025,241.519l0.04,15.538" style="fill:none;stroke:#000;stroke-width:0.98px;"/><path id="path12135" d="M702.595,230.96c0.011,4.206 6.14,8.145 16.43,10.559" style="fill:none;stroke:#000;stroke-width:0.98px;"/><path id="path12137" d="M703.567,243.659l-0.026,-9.865" style="fill:none;stroke:#000;stroke-width:0.98px;"/><path id="path12139" d="M728.24,197.953c0.007,2.44 6.04,4.432 13.365,4.412c1.634,-0.004 3.254,-0.108 4.779,-0.307" style="fill:none;stroke:#000;stroke-width:0.98px;"/><path id="path12141" d="M719.065,257.057l-15.498,-13.398" style="fill:none;stroke:#000;stroke-width:0.98px;"/><path id="path12143" d="M746.384,202.058c5.151,-0.671 8.568,-2.337 8.563,-4.175" style="fill:none;stroke:#000;stroke-width:0.98px;"/><path id="path12145" d="M754.947,197.883c-0.007,-2.44 -6.04,-4.431 -13.364,-4.412c-7.325,0.019 -13.348,2.042 -13.343,4.482" style="fill:none;stroke:#000;stroke-width:0.98px;"/><path id="path12147" d="M715.762,285.619c0.003,1.035 0.561,2.059 1.647,3.026" style="fill:none;stroke:#000;stroke-width:0.98px;"/><path id="path12149" d="M723.527,294.086c2.849,2.534 10.181,4.21 18.323,4.189c8.143,-0.021 15.466,-1.736 18.302,-4.284" style="fill:none;stroke:#000;stroke-width:0.98px;"/><path id="path12151" d="M766.242,288.517c1.081,-0.972 1.634,-1.999 1.631,-3.034" style="fill:none;stroke:#000;stroke-width:0.98px;"/><path id="path12153" d="M717.409,288.645c3.799,3.378 13.574,5.613 24.431,5.585c10.857,-0.028 20.62,-2.314 24.402,-5.713" style="fill:none;stroke:#000;stroke-width:0.98px;"/><path id="path12155" d="M534.135,228.38c20.103,-2.62 33.437,-9.121 33.419,-16.295" style="fill:none;stroke:#000;stroke-width:0.98px;"/><path id="path12157" d="M502.09,212.256c0.006,2.44 6.039,4.432 13.364,4.413c1.634,-0.004 3.254,-0.108 4.779,-0.307" style="fill:none;stroke:#000;stroke-width:0.98px;"/><path id="path12159" d="M463.391,235.354c0,0 0,0 0,0c0.024,9.521 23.568,17.295 52.155,17.22c6.376,-0.016 12.696,-0.422 18.647,-1.198" style="fill:none;stroke:#000;stroke-width:0.98px;"/><path id="path12161" d="M463.332,212.358c0.025,9.521 23.568,17.295 52.155,17.22c6.376,-0.016 12.696,-0.423 18.648,-1.198" style="fill:none;stroke:#000;stroke-width:0.98px;"/><path id="path12163" d="M567.554,212.085c-0.025,-9.521 -23.568,-17.295 -52.155,-17.22c-28.588,0.074 -52.091,7.971 -52.067,17.493c0,0 0,0 0,0" style="fill:none;stroke:#000;stroke-width:0.98px;"/><path id="path12165" d="M534.193,251.376c20.104,-2.62 33.438,-9.121 33.42,-16.295" style="fill:none;stroke:#000;stroke-width:0.98px;"/><path id="path12167" d="M553.693,253.493c0.621,-0.933 0.934,-1.885 0.932,-2.84" style="fill:none;stroke:#000;stroke-width:0.98px;"/><path id="path12169" d="M477.43,263.556l-0.025,-9.864" style="fill:none;stroke:#000;stroke-width:0.98px;"/><path id="path12171" d="M553.732,269.03l-0.039,-15.537" style="fill:none;stroke:#000;stroke-width:0.98px;"/><path id="path12173" d="M492.928,276.954c6.625,1.554 14.557,2.378 22.686,2.357c18.239,-0.048 34.159,-4.342 38.118,-10.281" style="fill:none;stroke:#000;stroke-width:0.98px;"/><path id="path12175" d="M492.889,261.416l0.039,15.538" style="fill:none;stroke:#000;stroke-width:0.98px;"/><path id="path12177" d="M476.458,250.857c0.011,4.206 6.141,8.145 16.431,10.559" style="fill:none;stroke:#000;stroke-width:0.98px;"/><path id="path12179" d="M492.928,276.954l-15.498,-13.398" style="fill:none;stroke:#000;stroke-width:0.98px;"/><path id="path12181" d="M520.233,216.362c5.151,-0.671 8.568,-2.337 8.563,-4.175" style="fill:none;stroke:#000;stroke-width:0.98px;"/><path id="path12183" d="M528.796,212.187c-0.007,-2.44 -6.04,-4.432 -13.364,-4.413c-7.325,0.02 -13.348,2.043 -13.342,4.482" style="fill:none;stroke:#000;stroke-width:0.98px;"/><path id="path12185" d="M489.626,305.517c0.002,1.034 0.56,2.058 1.647,3.025" style="fill:none;stroke:#000;stroke-width:0.98px;"/><path id="path12187" d="M497.391,313.984c2.849,2.534 10.18,4.21 18.323,4.188c8.142,-0.021 15.465,-1.735 18.301,-4.284" style="fill:none;stroke:#000;stroke-width:0.98px;"/><path id="path12189" d="M540.105,308.414c1.082,-0.972 1.634,-1.999 1.632,-3.033" style="fill:none;stroke:#000;stroke-width:0.98px;"/><path id="path12191" d="M491.273,308.542c3.798,3.379 13.573,5.614 24.431,5.585c10.856,-0.028 20.62,-2.314 24.401,-5.712" style="fill:none;stroke:#000;stroke-width:0.98px;"/><path id="path12193" d="M605.768,258.428l0.081,31.487" style="fill:none;stroke:#000;stroke-width:0.98px;"/><path id="path12195" d="M657.959,289.779l-0.075,-29.453" style="fill:none;stroke:#000;stroke-width:0.98px;"/><path id="path12197" d="M607.496,292.94l6.118,5.442" style="fill:none;stroke:#000;stroke-width:0.98px;"/><path id="path12199" d="M650.238,298.286l6.09,-5.473" style="fill:none;stroke:#000;stroke-width:0.98px;"/><path id="path12201" d="M778.223,199.493l-6.118,-5.442" style="fill:none;stroke:#000;stroke-width:0.98px;"/><path id="path12203" d="M711.064,194.211l-6.09,5.473" style="fill:none;stroke:#000;stroke-width:0.98px;"/><path id="path12205" d="M780.761,230.756l-0.068,-26.725" style="fill:none;stroke:#000;stroke-width:0.98px;"/><path id="path12207" d="M702.527,204.235l0.068,26.725" style="fill:none;stroke:#000;stroke-width:0.98px;"/><path id="path12209" d="M715.682,254.132l0.08,31.487" style="fill:none;stroke:#000;stroke-width:0.98px;"/><path id="path12211" d="M767.873,285.483l-0.075,-29.452" style="fill:none;stroke:#000;stroke-width:0.98px;"/><path id="path12213" d="M717.409,288.645l6.118,5.441" style="fill:none;stroke:#000;stroke-width:0.98px;"/><path id="path12215" d="M760.152,293.991l6.09,-5.474" style="fill:none;stroke:#000;stroke-width:0.98px;"/><path id="path12217" d="M567.613,235.081l-0.059,-22.996" style="fill:none;stroke:#000;stroke-width:0.98px;"/><path id="path12219" d="M463.332,212.358l0.059,22.996" style="fill:none;stroke:#000;stroke-width:0.98px;"/><path id="path12221" d="M554.625,250.653l-0.011,-4.057" style="fill:none;stroke:#000;stroke-width:0.98px;"/><path id="path12223" d="M476.448,246.8l0.01,4.057" style="fill:none;stroke:#000;stroke-width:0.98px;"/><path id="path12225" d="M489.545,274.03l0.081,31.487" style="fill:none;stroke:#000;stroke-width:0.98px;"/><path id="path12227" d="M541.737,305.381l-0.076,-29.453" style="fill:none;stroke:#000;stroke-width:0.98px;"/><path id="path12229" d="M491.273,308.542l6.118,5.442" style="fill:none;stroke:#000;stroke-width:0.98px;"/><path id="path12231" d="M534.015,313.888l6.09,-5.474" style="fill:none;stroke:#000;stroke-width:0.98px;"/></g></g><g id="text12460"><text x="364.58px" y="382.449px" style="font-family:'Calibri-Bold', 'Calibri', sans-serif;font-weight:700;font-size:76.574px;">A</text></g><g id="text12464"><text x="503.568px" y="382.674px" style="font-family:'Calibri-Bold', 'Calibri', sans-serif;font-weight:700;font-size:76.574px;">B</text></g><g id="text12468"><text x="742.547px" y="381.888px" style="font-family:'Calibri-Bold', 'Calibri', sans-serif;font-weight:700;font-size:76.574px;">C</text></g><g id="text12472"><text x="633.486px" y="382.674px" style="font-family:'Calibri-Bold', 'Calibri', sans-serif;font-weight:700;font-size:76.574px;">D</text></g></g></svg>