<?xml version="1.0" encoding="UTF-8" standalone="no"?><!DOCTYPE svg PUBLIC "-//W3C//DTD SVG 1.1//EN" "http://www.w3.org/Graphics/SVG/1.1/DTD/svg11.dtd"><svg width="100%" height="100%" viewBox="0 0 400 286" version="1.1" xmlns="http://www.w3.org/2000/svg" xmlns:xlink="http://www.w3.org/1999/xlink" xml:space="preserve" xmlns:serif="http://www.serif.com/" style="fill-rule:evenodd;clip-rule:evenodd;stroke-linecap:round;"><g id="g34955"><path id="path10597" d="M126.098,73.66l1.561,-0.979" style="fill:none;stroke:#000;stroke-opacity:0.968627;stroke-width:0.57px;"/><path id="path10599" d="M110.529,70.732l15.569,2.928" style="fill:none;stroke:#000;stroke-opacity:0.968627;stroke-width:0.57px;"/><path id="path10601" d="M112.091,69.753l-1.562,0.979" style="fill:none;stroke:#000;stroke-opacity:0.968627;stroke-width:0.57px;"/><path id="path10603" d="M127.659,72.681l-15.568,-2.928" style="fill:none;stroke:#000;stroke-opacity:0.968627;stroke-width:0.57px;"/><path id="path10605" d="M126.098,73.66l4.578,17.489" style="fill:none;stroke:#000;stroke-opacity:0.968627;stroke-width:0.57px;"/><path id="path10607" d="M127.659,72.681l4.578,17.489" style="fill:none;stroke:#000;stroke-opacity:0.968627;stroke-width:0.57px;"/><path id="path10609" d="M130.676,91.149l1.561,-0.979" style="fill:none;stroke:#000;stroke-opacity:0.968627;stroke-width:0.57px;"/><path id="path10611" d="M115.107,88.221l3.892,0.732" style="fill:none;stroke:#000;stroke-opacity:0.968627;stroke-width:0.57px;"/><path id="path10613" d="M110.529,70.732l4.578,17.489" style="fill:none;stroke:#000;stroke-opacity:0.968627;stroke-width:0.57px;"/><path id="path10615" d="M126.784,90.417l3.892,0.732" style="fill:none;stroke:#000;stroke-opacity:0.968627;stroke-width:0.57px;"/><path id="path10617" d="M126.784,90.417l-3.656,-13.966" style="fill:none;stroke:#000;stroke-opacity:0.968627;stroke-width:0.57px;"/><path id="path10619" d="M123.128,76.451l-7.785,-1.465" style="fill:none;stroke:#000;stroke-opacity:0.968627;stroke-width:0.57px;"/><path id="path10621" d="M115.343,74.986l3.656,13.967" style="fill:none;stroke:#000;stroke-opacity:0.968627;stroke-width:0.57px;"/><path id="path10623" d="M125.707,87.027c-1.825,-0.343 -3.75,0.072 -5.537,1.192" style="fill:none;stroke:#000;stroke-opacity:0.968627;stroke-width:0.57px;"/><path id="path10625" d="M120.17,88.219c-1.798,1.127 -3.375,2.92 -4.533,5.151" style="fill:none;stroke:#000;stroke-opacity:0.968627;stroke-width:0.57px;"/><path id="path10627" d="M137.383,89.224c-1.824,-0.344 -3.75,0.071 -5.536,1.191" style="fill:none;stroke:#000;stroke-opacity:0.968627;stroke-width:0.57px;"/><path id="path10629" d="M131.847,90.415c-3.988,2.5 -6.644,8.118 -6.523,13.795" style="fill:none;stroke:#000;stroke-opacity:0.968627;stroke-width:0.57px;"/><path id="path10631" d="M132.493,115.224c5.103,0.96 10.406,-4.119 11.747,-11.25c1.342,-7.132 -1.754,-13.791 -6.857,-14.75" style="fill:none;stroke:#000;stroke-opacity:0.968627;stroke-width:0.57px;"/><path id="path10633" d="M121.814,86.295c-0.563,-0.106 -1.139,-0.14 -1.719,-0.102" style="fill:none;stroke:#000;stroke-opacity:0.968627;stroke-width:0.57px;"/><path id="path10635" d="M115.225,88.243c-3.428,2.79 -5.579,7.917 -5.47,13.039" style="fill:none;stroke:#000;stroke-opacity:0.968627;stroke-width:0.57px;"/><path id="path10637" d="M123.422,94.834l-7.785,-1.464" style="fill:none;stroke:#000;stroke-opacity:0.968627;stroke-width:0.57px;"/><path id="path10639" d="M126.901,90.439c-1.365,1.111 -2.557,2.617 -3.479,4.395" style="fill:none;stroke:#000;stroke-opacity:0.968627;stroke-width:0.57px;"/><path id="path10641" d="M133.491,88.491c-0.563,-0.105 -1.139,-0.14 -1.72,-0.102" style="fill:none;stroke:#000;stroke-opacity:0.968627;stroke-width:0.57px;"/><path id="path10643" d="M137.888,94.12l-5.932,-1.116" style="fill:none;stroke:#000;stroke-opacity:0.968627;stroke-width:0.57px;"/><path id="path10645" d="M131.956,93.004c-0.067,-0.18 -0.137,-0.358 -0.211,-0.532" style="fill:none;stroke:#000;stroke-opacity:0.968627;stroke-width:0.57px;"/><path id="path10647" d="M125.907,87.068c-0.067,-0.014 -0.133,-0.028 -0.2,-0.041" style="fill:none;stroke:#000;stroke-opacity:0.968627;stroke-width:0.57px;"/><path id="path10649" d="M125.324,104.21c0.122,5.737 3.053,10.24 7.169,11.014" style="fill:none;stroke:#000;stroke-opacity:0.968627;stroke-width:0.57px;"/><path id="path10651" d="M109.755,101.282c0.122,5.736 3.053,10.24 7.169,11.014" style="fill:none;stroke:#000;stroke-opacity:0.968627;stroke-width:0.57px;"/><path id="path10653" d="M137.034,91.081c-4.374,-0.823 -8.92,3.53 -10.069,9.643c-0.2,1.063 -0.29,2.142 -0.268,3.202" style="fill:none;stroke:#000;stroke-opacity:0.968627;stroke-width:0.57px;"/><path id="path10655" d="M138.247,94.852c-0.752,-1.701 -1.869,-3.018 -3.223,-3.8" style="fill:none;stroke:#000;stroke-opacity:0.968627;stroke-width:0.57px;"/><path id="path10657" d="M125.357,88.885c-2.997,-0.564 -6.196,1.28 -8.256,4.76" style="fill:none;stroke:#000;stroke-opacity:0.968627;stroke-width:0.57px;"/><path id="path10659" d="M125.887,91.37c-0.689,-1.089 -1.553,-1.945 -2.539,-2.514" style="fill:none;stroke:#000;stroke-opacity:0.968627;stroke-width:0.57px;"/><path id="path10661" d="M126.7,103.172c0.551,-1.541 0.861,-3.188 0.907,-4.825" style="fill:none;stroke:#000;stroke-opacity:0.968627;stroke-width:0.57px;"/><path id="path10663" d="M126.697,103.926c0.105,4.917 2.617,8.778 6.145,9.441" style="fill:none;stroke:#000;stroke-opacity:0.968627;stroke-width:0.57px;"/><path id="path10665" d="M132.842,113.367c4.374,0.823 8.92,-3.53 10.069,-9.643c1.15,-6.113 -1.503,-11.821 -5.877,-12.643" style="fill:none;stroke:#000;stroke-opacity:0.968627;stroke-width:0.57px;"/><path id="path10667" d="M126.468,89.21c-0.361,-0.145 -0.732,-0.254 -1.111,-0.325" style="fill:none;stroke:#000;stroke-opacity:0.968627;stroke-width:0.57px;"/><path id="path10669" d="M138.247,94.852l-7.606,-1.431" style="fill:none;stroke:#000;stroke-opacity:0.968627;stroke-width:0.57px;"/><path id="path10671" d="M118.999,88.953l1.562,-0.979" style="fill:none;stroke:#000;stroke-opacity:0.968627;stroke-width:0.57px;"/><path id="path10673" d="M120.561,87.974l-3.306,-12.628" style="fill:none;stroke:#000;stroke-opacity:0.968627;stroke-width:0.57px;"/><path id="path10675" d="M130.751,93.314l1.205,-0.31" style="fill:none;stroke:#000;stroke-opacity:0.968627;stroke-width:0.57px;"/><path id="path10677" d="M149.58,83.185l-8.646,7.855" style="fill:none;stroke:#000;stroke-opacity:0.968627;stroke-width:0.57px;"/><path id="path10679" d="M149.58,83.185l0.791,1.825" style="fill:none;stroke:#000;stroke-opacity:0.968627;stroke-width:0.57px;"/><path id="path10681" d="M150.371,85.01l-8.187,7.438" style="fill:none;stroke:#000;stroke-opacity:0.968627;stroke-width:0.57px;"/><path id="path10683" d="M141.795,81.721l-7.598,6.903" style="fill:none;stroke:#000;stroke-opacity:0.968627;stroke-width:0.57px;"/><path id="path10685" d="M141.795,81.721l7.785,1.464" style="fill:none;stroke:#000;stroke-opacity:0.968627;stroke-width:0.57px;"/><path id="path10687" d="M132.905,91.751l3.84,0.722" style="fill:none;stroke:#000;stroke-opacity:0.968627;stroke-width:0.57px;"/><path id="path10693" d="M168.503,96.999c-0.761,-0.143 -1.546,-0.133 -2.332,0.03" style="fill:none;stroke:#000;stroke-opacity:0.968627;stroke-width:0.57px;"/><path id="path10695" d="M166.171,97.029c-3.646,0.753 -6.81,4.684 -7.737,9.614c-1.15,6.113 1.503,11.82 5.877,12.643" style="fill:none;stroke:#000;stroke-opacity:0.968627;stroke-width:0.57px;"/><path id="path10697" d="M116.924,112.296l15.569,2.928" style="fill:none;stroke:#000;stroke-opacity:0.968627;stroke-width:0.57px;"/><path id="path10699" d="M125.707,87.027l-3.893,-0.732" style="fill:none;stroke:#000;stroke-opacity:0.968627;stroke-width:0.57px;"/><path id="path10701" d="M137.383,89.224l-3.892,-0.733" style="fill:none;stroke:#000;stroke-opacity:0.968627;stroke-width:0.57px;"/><path id="path10703" d="M291.161,212.734l-0.048,-1.732l-0.151,-3.23l-0.229,-3.236l-0.307,-3.238l-0.385,-3.237l-0.463,-3.232l-0.539,-3.224l-0.616,-3.212l-0.691,-3.198l-0.766,-3.178l-0.839,-3.157l-0.913,-3.131l-0.986,-3.102l-1.056,-3.07l-1.127,-3.034l-1.195,-2.995l-1.264,-2.953l-1.331,-2.908l-1.396,-2.859l-1.461,-2.807l-1.524,-2.752l-1.585,-2.693l-1.645,-2.632l-1.705,-2.568l-1.761,-2.5l-1.816,-2.429l-1.87,-2.356l-1.922,-2.279l-1.971,-2.199l-2.019,-2.116l-2.065,-2.031l-2.108,-1.943l-2.149,-1.852l-2.187,-1.758l-2.222,-1.661l-2.255,-1.563l-2.285,-1.462l-2.311,-1.359l-2.335,-1.254l-2.355,-1.147l-2.371,-1.04l-2.386,-0.93l-2.395,-0.82l-2.402,-0.709l-2.405,-0.597l-1.932,-0.399" style="fill:none;stroke:#000;stroke-opacity:0.968627;stroke-width:0.57px;"/><path id="path10705" d="M217.226,129.238l0.821,0.165l1.757,0.428l1.761,0.528l1.758,0.626l1.755,0.723l1.75,0.819l1.745,0.915l1.738,1.009l1.729,1.103l1.718,1.196l1.705,1.289l1.689,1.379l1.671,1.469l1.651,1.557l1.627,1.644l1.602,1.729l1.572,1.812l1.541,1.892l1.507,1.97l1.47,2.046l1.43,2.118l1.388,2.189l1.343,2.255l1.297,2.318l1.247,2.379l1.195,2.436l1.142,2.489l1.086,2.538l1.028,2.584l0.968,2.626l0.908,2.663l0.844,2.697l0.78,2.726l0.715,2.751l0.648,2.772l0.58,2.789l0.511,2.801l0.442,2.809l0.371,2.812l0.302,2.812l0.23,2.805l0.159,2.797l0.082,2.513" style="fill:none;stroke:#000;stroke-opacity:0.968627;stroke-width:0.57px;"/><path id="path10707" d="M164.311,119.286l52.915,9.952" style="fill:none;stroke:#000;stroke-opacity:0.968627;stroke-width:0.57px;"/><path id="path10709" d="M221.417,106.952l-52.914,-9.953" style="fill:none;stroke:#000;stroke-opacity:0.968627;stroke-width:0.57px;"/></g></svg>