<?xml version="1.0" encoding="UTF-8" standalone="no"?>
<!DOCTYPE svg PUBLIC "-//W3C//DTD SVG 1.1//EN" "http://www.w3.org/Graphics/SVG/1.1/DTD/svg11.dtd">
<svg width="100%" height="100%" viewBox="0 0 456 568" version="1.1" xmlns="http://www.w3.org/2000/svg" xmlns:xlink="http://www.w3.org/1999/xlink" xml:space="preserve" xmlns:serif="http://www.serif.com/" style="fill-rule:evenodd;clip-rule:evenodd;stroke-linecap:round;stroke-linejoin:round;stroke-miterlimit:10;">
    <g id="INSERT">
        <path id="LWPOLYLINE" d="M121.987,18.147L123.825,21.153L123.833,21.342" style="fill:none;stroke:black;stroke-width:1.42px;"/>
        <path id="LWPOLYLINE_1_" d="M119.904,16.421L121.533,19.09L120.302,21.83L116.379,24.208L116.192,24.282" style="fill:none;stroke:black;stroke-width:1.42px;"/>
        <path id="LWPOLYLINE_2_" d="M86.766,16.893L90.896,14.592L96.971,13.064L104.038,12.538L111.005,13.096L116.791,14.652L119.904,16.421" style="fill:none;stroke:black;stroke-width:1.42px;"/>
        <path id="LWPOLYLINE_3_" d="M117.83,27.006L115.879,27.685L113.724,28.268L111.401,28.741L108.948,29.1L106.406,29.337L103.813,29.45L101.214,29.434L98.651,29.293L96.167,29.025L93.801,28.639L91.592,28.138L89.577,27.533L87.787,26.832L86.251,26.047L84.992,25.191L84.033,24.278L83.385,23.325L83.061,22.344L83.021,21.926" style="fill:none;stroke:black;stroke-width:1.42px;"/>
        <path id="LWPOLYLINE_4_" d="M116.192,24.282L110.129,25.879L102.982,26.455L95.898,25.918L90.021,24.355L86.283,22.021L85.267,19.293L86.766,16.893" style="fill:none;stroke:black;stroke-width:1.42px;"/>
        <path id="LWPOLYLINE_5_" d="M124.096,39.827L122.532,42.95L118.122,45.575" style="fill:none;stroke:black;stroke-width:1.42px;"/>
        <path id="LWPOLYLINE_6_" d="M123.833,21.342L122.263,24.419L117.83,27.006" style="fill:none;stroke:black;stroke-width:1.42px;"/>
        <path id="LWPOLYLINE_7_" d="M83.021,21.926L84.555,18.854L84.748,18.677" style="fill:none;stroke:black;stroke-width:1.42px;"/>
        <path id="LWPOLYLINE_8_" d="M118.122,45.575L116.18,46.265L114.035,46.855L111.723,47.336L109.281,47.701L106.75,47.942L104.169,48.057L101.583,48.04L99.031,47.897L96.559,47.626L94.204,47.234L92.005,46.727L89.998,46.112L88.216,45.399L86.686,44.604L85.434,43.736L84.478,42.81L83.833,41.841L83.51,40.846L83.47,40.421" style="fill:none;stroke:black;stroke-width:1.42px;"/>
        <path id="LINE" d="M110.857,22.266L113.65,18.309" style="fill:none;stroke:black;stroke-width:1.42px;"/>
        <path id="LINE_1_" d="M113.65,18.309L106.208,15.512" style="fill:none;stroke:black;stroke-width:1.42px;"/>
        <path id="LINE_2_" d="M106.208,15.512L95.973,16.642" style="fill:none;stroke:black;stroke-width:1.42px;"/>
        <path id="LINE_3_" d="M95.973,16.642L93.112,20.586" style="fill:none;stroke:black;stroke-width:1.42px;"/>
        <path id="LINE_4_" d="M93.112,20.586L100.555,23.413" style="fill:none;stroke:black;stroke-width:1.42px;"/>
        <path id="LINE_5_" d="M100.555,23.413L110.857,22.266" style="fill:none;stroke:black;stroke-width:1.42px;"/>
        <path id="LINE_6_" d="M106.337,22.507L100.021,23.209" style="fill:none;stroke:black;stroke-width:1.42px;"/>
        <path id="LINE_7_" d="M106.873,22.71L106.337,22.507" style="fill:none;stroke:black;stroke-width:1.42px;"/>
        <path id="LWPOLYLINE_9_" d="M115.279,53.771L114.42,55.52L111.957,57.004" style="fill:none;stroke:black;stroke-width:1.42px;"/>
        <path id="LWPOLYLINE_10_" d="M111.957,57.004L108.213,58.023L103.805,58.393L99.435,58.05L95.804,57.054L93.486,55.563L92.829,54.104" style="fill:none;stroke:black;stroke-width:1.42px;"/>
        <path id="LINE_8_" d="M95.973,16.642L96.08,21.713" style="fill:none;stroke:black;stroke-width:1.42px;"/>
        <path id="LINE_9_" d="M106.208,15.512L106.337,22.507" style="fill:none;stroke:black;stroke-width:1.42px;"/>
        <path id="LWPOLYLINE_11_" d="M116.607,135.013L115.768,136.867L113.357,138.443" style="fill:none;stroke:black;stroke-width:1.42px;"/>
        <path id="LWPOLYLINE_12_" d="M113.357,138.443L109.694,139.524L105.377,139.914L101.098,139.554L97.541,138.498L95.269,136.917L94.621,135.371" style="fill:none;stroke:black;stroke-width:1.42px;"/>
        <path id="LINE_10_" d="M67.246,434.916L68.132,463.17" style="fill:none;stroke:black;stroke-width:1.42px;"/>
        <path id="LINE_11_" d="M253.021,525.874L67.246,434.916" style="fill:none;stroke:black;stroke-width:1.42px;"/>
        <path id="LINE_12_" d="M253.021,525.874L252.43,555.236" style="fill:none;stroke:black;stroke-width:1.42px;"/>
        <path id="LINE_13_" d="M252.43,555.236L68.132,463.17" style="fill:none;stroke:black;stroke-width:1.42px;"/>
        <path id="LWPOLYLINE_13_" d="M122.896,435.069L125.286,432.788L125.921,430.613" style="fill:none;stroke:black;stroke-width:1.42px;"/>
        <path id="LINE_14_" d="M294.081,452.92L291.395,451.686" style="fill:none;stroke:black;stroke-width:1.42px;"/>
        <path id="LINE_15_" d="M292.754,464.114L315.018,474.417" style="fill:none;stroke:black;stroke-width:1.42px;"/>
        <path id="LINE_16_" d="M315.018,474.417L362.861,440.34" style="fill:none;stroke:black;stroke-width:1.42px;"/>
        <path id="LWPOLYLINE_14_" d="M197.415,388.101L199.599,385.974L200.106,384.197" style="fill:none;stroke:black;stroke-width:1.42px;"/>
        <path id="LINE_17_" d="M190.397,359.26L319.957,416.667" style="fill:none;stroke:black;stroke-width:1.42px;"/>
        <path id="LINE_18_" d="M363.475,435.949L372.843,440.1" style="fill:none;stroke:black;stroke-width:1.42px;"/>
        <path id="LINE_19_" d="M372.843,440.1L253.021,525.874" style="fill:none;stroke:black;stroke-width:1.42px;"/>
        <path id="LINE_20_" d="M67.246,434.916L190.397,359.26" style="fill:none;stroke:black;stroke-width:1.42px;"/>
        <path id="LWPOLYLINE_15_" d="M266.672,424.1L267.889,422.819L268.135,421.884" style="fill:none;stroke:black;stroke-width:1.42px;"/>
        <path id="LWPOLYLINE_16_" d="M271.709,474.96L273.912,472.542L274.349,470.815" style="fill:none;stroke:black;stroke-width:1.42px;"/>
        <path id="LINE_21_" d="M372.843,440.1L371.352,468.401" style="fill:none;stroke:black;stroke-width:1.42px;"/>
        <path id="LINE_22_" d="M371.352,468.401L252.43,555.236" style="fill:none;stroke:black;stroke-width:1.42px;"/>
        <path id="LINE_23_" d="M294.646,448.18L292.754,464.114" style="fill:none;stroke:black;stroke-width:1.42px;"/>
        <path id="LINE_24_" d="M316.788,460.381L294.646,448.18" style="fill:none;stroke:black;stroke-width:1.42px;"/>
        <path id="LINE_25_" d="M316.788,460.381L315.018,474.417" style="fill:none;stroke:black;stroke-width:1.42px;"/>
        <path id="LINE_26_" d="M342.875,414.821L364.797,426.501" style="fill:none;stroke:black;stroke-width:1.42px;"/>
        <path id="LINE_27_" d="M364.797,426.501L316.788,460.381" style="fill:none;stroke:black;stroke-width:1.42px;"/>
        <path id="LINE_28_" d="M294.646,448.18L342.875,414.821" style="fill:none;stroke:black;stroke-width:1.42px;"/>
        <path id="LWPOLYLINE_17_" d="M249.902,470.197L250.816,472.916L253.526,475.253L257.607,476.839L262.412,477.414L267.169,476.886L271.121,475.341L271.709,474.96" style="fill:none;stroke:black;stroke-width:1.42px;"/>
        <path id="LWPOLYLINE_18_" d="M274.349,470.815L273.455,468.098L270.78,465.762L266.754,464.171L262.006,463.57L257.276,464.051L253.305,465.541L250.71,467.81L249.902,470.197" style="fill:none;stroke:black;stroke-width:1.42px;"/>
        <path id="LINE_29_" d="M364.797,426.501L362.861,440.34" style="fill:none;stroke:black;stroke-width:1.42px;"/>
        <path id="LINE_30_" d="M291.874,435.889L291.395,451.686" style="fill:none;stroke:black;stroke-width:1.42px;"/>
        <path id="LINE_31_" d="M304.279,441.517L291.874,435.889" style="fill:none;stroke:black;stroke-width:1.42px;"/>
        <path id="LINE_32_" d="M291.874,435.889L320.501,416.296" style="fill:none;stroke:black;stroke-width:1.42px;"/>
        <path id="LINE_33_" d="M320.501,416.296L332.841,421.759" style="fill:none;stroke:black;stroke-width:1.42px;"/>
        <path id="LWPOLYLINE_19_" d="M102.155,431.11L103.151,433.635L105.876,435.725L109.902,437.041L114.589,437.369L119.188,436.66L122.896,435.069" style="fill:none;stroke:black;stroke-width:1.42px;"/>
        <path id="LWPOLYLINE_20_" d="M125.921,430.613L124.947,428.09L122.26,426.004L118.289,424.68L113.653,424.325L109.079,424.986L105.277,426.569L102.846,428.826L102.155,431.11" style="fill:none;stroke:black;stroke-width:1.42px;"/>
        <path id="LWPOLYLINE_21_" d="M254.654,421.561L255.159,423.007L256.65,424.25L258.895,425.094L261.537,425.404L264.156,425.125L266.336,424.31L266.672,424.1" style="fill:none;stroke:black;stroke-width:1.42px;"/>
        <path id="LWPOLYLINE_22_" d="M268.135,421.884L267.638,420.437L266.157,419.195L263.93,418.349L261.303,418.035L258.693,418.297L256.506,419.098L255.084,420.31L254.654,421.561" style="fill:none;stroke:black;stroke-width:1.42px;"/>
        <path id="LWPOLYLINE_23_" d="M177.174,384.155L178.084,386.531L180.67,388.537L184.522,389.849L189.036,390.259L193.487,389.697L197.164,388.256L197.415,388.101" style="fill:none;stroke:black;stroke-width:1.42px;"/>
        <path id="LWPOLYLINE_24_" d="M200.106,384.197L199.216,381.824L196.661,379.822L192.856,378.502L188.39,378.073L183.965,378.594L180.267,379.989L177.882,382.042L177.174,384.155" style="fill:none;stroke:black;stroke-width:1.42px;"/>
        <path id="LWPOLYLINE_25_" d="M284.826,295.188L284.612,296.554L284.05,297.892L283.145,299.182L281.915,300.397L280.376,301.523L278.552,302.54L276.474,303.43L274.172,304.177L271.687,304.772L269.058,305.202L266.329,305.46L263.54,305.544L260.744,305.451L257.979,305.185L255.298,304.744L252.74,304.143L250.347,303.384L248.16,302.49L246.214,301.468L244.536,300.334L243.156,299.116L242.098,297.826L241.372,296.483L240.992,295.116L240.932,294.226" style="fill:none;stroke:black;stroke-width:1.42px;"/>
        <path id="LWPOLYLINE_26_" d="M242.001,227.66L242.2,226.348L242.751,225.065L243.646,223.828L244.867,222.665L246.396,221.586L248.205,220.611L250.268,219.757L252.552,219.031L255.02,218.449L257.632,218.022L260.351,217.753L263.13,217.644L265.928,217.701L268.702,217.922L271.406,218.3L274.004,218.834L276.447,219.513L278.145,220.109" style="fill:none;stroke:black;stroke-width:1.42px;"/>
        <path id="LWPOLYLINE_27_" d="M286.667,228.595L286.451,229.91L285.881,231.2L284.964,232.437L283.714,233.608L282.148,234.689L280.294,235.668L278.179,236.523L275.84,237.244L273.31,237.816L270.636,238.229L267.857,238.477L265.019,238.557L262.173,238.467L259.359,238.209L256.63,237.786L254.025,237.205L251.59,236.479L249.363,235.614L247.379,234.63L245.672,233.541L244.268,232.368L243.189,231.125L242.448,229.833L242.061,228.516L242.001,227.66" style="fill:none;stroke:black;stroke-width:1.42px;"/>
        <path id="LWPOLYLINE_28_" d="M278.145,220.109L280.155,220.98L281.937,221.951L283.465,223.015L284.716,224.156L285.67,225.354L286.312,226.592L286.632,227.854L286.667,228.595" style="fill:none;stroke:black;stroke-width:1.42px;"/>
        <path id="LWPOLYLINE_29_" d="M242.359,251.774L242.307,249.992L242.167,248.598L242.105,248.113L242.101,248.081" style="fill:none;stroke:black;stroke-width:1.42px;"/>
        <path id="LWPOLYLINE_30_" d="M241.725,290.908L241.613,292.414L241.504,292.899L241.372,293.202" style="fill:none;stroke:black;stroke-width:1.42px;"/>
        <path id="LINE_34_" d="M241.725,290.908L242.359,251.774" style="fill:none;stroke:black;stroke-width:1.42px;"/>
        <path id="LWPOLYLINE_31_" d="M275.167,221.81L269.003,220.249L262.118,219.906L255.577,220.835L250.392,222.894L247.382,225.767L246.837,227.715" style="fill:none;stroke:black;stroke-width:1.42px;"/>
        <path id="LWPOLYLINE_32_" d="M281.826,228.446L280.533,225.234L276.698,222.471L275.167,221.81" style="fill:none;stroke:black;stroke-width:1.42px;"/>
        <path id="LWPOLYLINE_33_" d="M246.837,227.715L248.167,230.934L252.067,233.705L257.93,235.579L264.825,236.255L271.64,235.619L277.282,233.777L280.849,231.028L281.826,228.446" style="fill:none;stroke:black;stroke-width:1.42px;"/>
        <path id="LWPOLYLINE_34_" d="M280.229,231.64L276.295,228.903L275.005,228.352" style="fill:none;stroke:black;stroke-width:1.42px;"/>
        <path id="LWPOLYLINE_35_" d="M275.005,228.352L268.854,226.786L261.979,226.442L255.447,227.375L250.272,229.44L248.2,231.065" style="fill:none;stroke:black;stroke-width:1.42px;"/>
        <path id="LWPOLYLINE_36_" d="M252.042,233.605L253.658,231.473L256.921,229.835L261.32,228.943L266.165,228.938L270.703,229.818L274.225,231.448L276.173,233.576L276.375,234.163" style="fill:none;stroke:black;stroke-width:1.42px;"/>
        <path id="LWPOLYLINE_37_" d="M229.119,240.309L229.099,240.336L227.277,242.767L225.952,244.81L225.237,246.271" style="fill:none;stroke:black;stroke-width:1.42px;"/>
        <path id="LWPOLYLINE_38_" d="M225.237,246.271L223.196,250.822L220.755,254.965L217.937,258.674L214.765,261.915L211.271,264.664L209.029,266.076" style="fill:none;stroke:black;stroke-width:1.42px;"/>
        <path id="LINE_35_" d="M151.583,164.783L117.042,182.45" style="fill:none;stroke:black;stroke-width:1.42px;"/>
        <path id="LINE_36_" d="M263.897,205.495L227.6,225.833" style="fill:none;stroke:black;stroke-width:1.42px;"/>
        <path id="LINE_37_" d="M263.46,211.987L263.897,205.495" style="fill:none;stroke:black;stroke-width:1.42px;"/>
        <path id="LINE_38_" d="M263.46,211.987L259.618,214.152" style="fill:none;stroke:black;stroke-width:1.42px;"/>
        <path id="LWPOLYLINE_39_" d="M259.618,214.152L259.546,215.295L259.297,216.21L258.962,217.152L258.681,217.913" style="fill:none;stroke:black;stroke-width:1.42px;"/>
        <path id="LINE_39_" d="M229.407,196.418L253.553,205.649" style="fill:none;stroke:black;stroke-width:1.42px;"/>
        <path id="LINE_40_" d="M233.118,194.39L229.407,196.418" style="fill:none;stroke:black;stroke-width:1.42px;"/>
        <path id="LINE_41_" d="M236.073,195.519L233.118,194.39" style="fill:none;stroke:black;stroke-width:1.42px;"/>
        <path id="LINE_42_" d="M248.632,188.639L236.073,195.519" style="fill:none;stroke:black;stroke-width:1.42px;"/>
        <path id="LINE_43_" d="M248.632,188.639L253.678,190.543" style="fill:none;stroke:black;stroke-width:1.42px;"/>
        <path id="LINE_44_" d="M253.678,190.543L248.165,193.575" style="fill:none;stroke:black;stroke-width:1.42px;"/>
        <path id="LINE_45_" d="M248.165,193.575L267.964,201.076" style="fill:none;stroke:black;stroke-width:1.42px;"/>
        <path id="LINE_46_" d="M261.616,204.627L267.964,201.076" style="fill:none;stroke:black;stroke-width:1.42px;"/>
        <path id="LINE_47_" d="M263.897,205.495L261.616,204.627" style="fill:none;stroke:black;stroke-width:1.42px;"/>
        <path id="LWPOLYLINE_40_" d="M227.6,225.833L226.454,226.259L225.038,226.438L223.571,226.346L222.371,226.025" style="fill:none;stroke:black;stroke-width:1.42px;"/>
        <path id="LINE_48_" d="M222.371,226.025L203.854,218.748" style="fill:none;stroke:black;stroke-width:1.42px;"/>
        <path id="LWPOLYLINE_41_" d="M203.854,218.748L202.566,218.415L201.105,218.345L199.706,218.541L198.654,218.937" style="fill:none;stroke:black;stroke-width:1.42px;"/>
        <path id="LINE_49_" d="M198.654,218.937L184.975,226.45" style="fill:none;stroke:black;stroke-width:1.42px;"/>
        <path id="LWPOLYLINE_42_" d="M184.975,226.45L183.812,226.875L182.385,227.057L180.923,226.964L179.732,226.644" style="fill:none;stroke:black;stroke-width:1.42px;"/>
        <path id="LINE_50_" d="M179.732,226.644L172.683,223.828" style="fill:none;stroke:black;stroke-width:1.42px;"/>
        <path id="LINE_51_" d="M177.503,221.203L172.683,223.828" style="fill:none;stroke:black;stroke-width:1.42px;"/>
        <path id="LINE_52_" d="M180.036,222.21L177.503,221.203" style="fill:none;stroke:black;stroke-width:1.42px;"/>
        <path id="LINE_53_" d="M193.273,214.985L180.036,222.21" style="fill:none;stroke:black;stroke-width:1.42px;"/>
        <path id="LINE_54_" d="M193.273,214.985L194.523,215.477" style="fill:none;stroke:black;stroke-width:1.42px;"/>
        <path id="LINE_55_" d="M201.498,211.669L194.523,215.477" style="fill:none;stroke:black;stroke-width:1.42px;"/>
        <path id="LINE_56_" d="M201.498,211.669L225.746,221.151" style="fill:none;stroke:black;stroke-width:1.42px;"/>
        <path id="LINE_57_" d="M225.746,221.151L253.553,205.649" style="fill:none;stroke:black;stroke-width:1.42px;"/>
        <path id="LINE_58_" d="M120.834,258.967L120.418,232.736" style="fill:none;stroke:black;stroke-width:1.42px;"/>
        <path id="LINE_59_" d="M128.355,206.136L121.549,203.419" style="fill:none;stroke:black;stroke-width:1.42px;"/>
        <path id="LWPOLYLINE_43_" d="M128.355,206.136L128.574,209.482L129.137,212.907L130.036,216.359L131.255,219.787L132.776,223.137L134.575,226.354L136.623,229.391L138.889,232.199L141.339,234.739L143.934,236.963L146.634,238.843L149.398,240.346L152.18,241.447L154.94,242.131L157.633,242.379L160.217,242.19L162.649,241.569L164.552,240.712" style="fill:none;stroke:black;stroke-width:1.42px;"/>
        <path id="LINE_60_" d="M207.438,266.991L207.578,266.911" style="fill:none;stroke:black;stroke-width:1.42px;"/>
        <path id="LWPOLYLINE_44_" d="M156.68,258.789L157.661,258.694L158.688,258.445L159.499,258.167L160.555,257.745" style="fill:none;stroke:black;stroke-width:1.42px;"/>
        <path id="LINE_61_" d="M173.356,250.546L173.458,250.492" style="fill:none;stroke:black;stroke-width:1.42px;"/>
        <path id="LWPOLYLINE_45_" d="M167.073,239.054L164.614,239.61L162.009,239.729L159.304,239.417L156.539,238.671L153.757,237.508L151.004,235.949L148.319,234.018L145.748,231.747L143.33,229.172L141.099,226.328L139.093,223.266L137.341,220.03L135.871,216.675L134.707,213.245L133.864,209.8L133.359,206.39L133.203,203.591" style="fill:none;stroke:black;stroke-width:1.42px;"/>
        <path id="LWPOLYLINE_46_" d="M164.552,240.712L166.489,239.407L168.203,237.751L169.667,235.771L170.86,233.486L171.765,230.936L172.366,228.147L172.655,225.17L172.683,223.828" style="fill:none;stroke:black;stroke-width:1.42px;"/>
        <path id="LINE_62_" d="M128.355,206.136L133.203,203.591" style="fill:none;stroke:black;stroke-width:1.42px;"/>
        <path id="LWPOLYLINE_47_" d="M144.071,195.633L144.299,199.329L144.909,203.112L145.891,206.922L147.228,210.702L148.901,214.393L150.881,217.94L153.141,221.285L155.644,224.38L158.351,227.171L161.223,229.619L164.211,231.684L167.273,233.333L170.303,234.52" style="fill:none;stroke:black;stroke-width:1.42px;"/>
        <path id="LINE_63_" d="M130.75,202.617L144.071,195.633" style="fill:none;stroke:black;stroke-width:1.42px;"/>
        <path id="LWPOLYLINE_48_" d="M180.208,222.118L175.832,216.871L171.855,211.197L168.327,205.174L165.297,198.886L162.807,192.417L160.892,185.853L159.579,179.286L159.138,175.878" style="fill:none;stroke:black;stroke-width:1.42px;"/>
        <path id="LINE_64_" d="M138.002,186.837L159.138,175.878" style="fill:none;stroke:black;stroke-width:1.42px;"/>
        <path id="LWPOLYLINE_49_" d="M171.956,229.788L168.793,227.765L165.741,225.327L162.847,222.516L160.153,219.376L157.706,215.954L155.537,212.305L153.684,208.488L152.174,204.556L151.031,200.569L150.272,196.595L149.913,192.69L149.882,191.482" style="fill:none;stroke:black;stroke-width:1.42px;"/>
        <path id="LINE_65_" d="M142.863,195.158L149.882,191.482" style="fill:none;stroke:black;stroke-width:1.42px;"/>
        <path id="LWPOLYLINE_50_" d="M229.407,196.418L229.178,199.917L228.587,203.218L227.64,206.276L226.353,209.044L224.747,211.488L222.845,213.573L220.676,215.268L219.691,215.862" style="fill:none;stroke:black;stroke-width:1.42px;"/>
        <path id="LINE_66_" d="M159.138,175.878L155.089,174.323" style="fill:none;stroke:black;stroke-width:1.42px;"/>
        <path id="LINE_67_" d="M155.089,174.323L155.047,167.995" style="fill:none;stroke:black;stroke-width:1.42px;"/>
        <path id="LINE_68_" d="M155.047,167.995L177.992,176.766" style="fill:none;stroke:black;stroke-width:1.42px;"/>
        <path id="LWPOLYLINE_51_" d="M241.372,293.202L241.265,292.468L241.144,292.041" style="fill:none;stroke:black;stroke-width:1.42px;"/>
        <path id="LWPOLYLINE_52_" d="M286.426,237.304L288.869,236.961L289.901,237.025" style="fill:none;stroke:black;stroke-width:1.42px;"/>
        <path id="LINE_69_" d="M295.383,231.92L295.667,231.933" style="fill:none;stroke:black;stroke-width:1.42px;"/>
        <path id="LWPOLYLINE_53_" d="M295.667,231.933L296.087,232.788L296.201,233.35" style="fill:none;stroke:black;stroke-width:1.42px;"/>
        <path id="LWPOLYLINE_54_" d="M268.998,205.211L269.219,207.031L269.16,208.291L268.97,209.527L268.923,209.75" style="fill:none;stroke:black;stroke-width:1.42px;"/>
        <path id="LWPOLYLINE_55_" d="M261.865,215.969L261.845,215.954L260.707,215.144L259.618,214.152" style="fill:none;stroke:black;stroke-width:1.42px;"/>
        <path id="LINE_70_" d="M267.964,201.076L268.998,205.211" style="fill:none;stroke:black;stroke-width:1.42px;"/>
        <path id="LWPOLYLINE_56_" d="M277.423,219.814L276.765,218.842L276.305,218.469" style="fill:none;stroke:black;stroke-width:1.42px;"/>
        <path id="LWPOLYLINE_57_" d="M188.062,161.731L188.295,162.027L188.322,162.176" style="fill:none;stroke:black;stroke-width:1.42px;"/>
        <path id="LINE_71_" d="M185.235,164.127L187.823,162.783" style="fill:none;stroke:black;stroke-width:1.42px;"/>
        <path id="LINE_72_" d="M185.235,164.127L186.386,165.161" style="fill:none;stroke:black;stroke-width:1.42px;"/>
        <path id="LINE_73_" d="M186.386,165.161L191.546,167.11" style="fill:none;stroke:black;stroke-width:1.42px;"/>
        <path id="LINE_74_" d="M178.883,173.723L191.546,167.11" style="fill:none;stroke:black;stroke-width:1.42px;"/>
        <path id="LINE_75_" d="M181.731,174.81L178.883,173.723" style="fill:none;stroke:black;stroke-width:1.42px;"/>
        <path id="LINE_76_" d="M177.992,176.766L181.731,174.81" style="fill:none;stroke:black;stroke-width:1.42px;"/>
        <path id="LINE_77_" d="M155.047,167.995L126.857,182.48" style="fill:none;stroke:black;stroke-width:1.42px;"/>
        <path id="LWPOLYLINE_58_" d="M121.549,203.419L120.685,202.898L120.34,202.259L120.338,202.205" style="fill:none;stroke:black;stroke-width:1.42px;"/>
        <path id="LINE_78_" d="M135.058,193.885L121.266,201.071" style="fill:none;stroke:black;stroke-width:1.42px;"/>
        <path id="LWPOLYLINE_59_" d="M135.058,193.885L135.777,193.316L135.965,192.782" style="fill:none;stroke:black;stroke-width:1.42px;"/>
        <path id="LINE_79_" d="M134.75,191.577L117.312,184.722" style="fill:none;stroke:black;stroke-width:1.42px;"/>
        <path id="LWPOLYLINE_60_" d="M117.312,184.722L116.463,184.215L116.127,183.598L116.124,183.549" style="fill:none;stroke:black;stroke-width:1.42px;"/>
        <path id="LWPOLYLINE_61_" d="M151.583,164.783L152.695,164.4L154.047,164.242L155.43,164.326L156.548,164.609" style="fill:none;stroke:black;stroke-width:1.42px;"/>
        <path id="LINE_80_" d="M160.535,166.13L156.548,164.609" style="fill:none;stroke:black;stroke-width:1.42px;"/>
        <path id="LWPOLYLINE_62_" d="M160.535,166.13L161.753,166.429L163.145,166.496L164.487,166.317L165.503,165.957" style="fill:none;stroke:black;stroke-width:1.42px;"/>
        <path id="LINE_81_" d="M171.486,162.872L165.503,165.957" style="fill:none;stroke:black;stroke-width:1.42px;"/>
        <path id="LWPOLYLINE_63_" d="M171.486,162.872L172.213,162.258L172.333,161.86" style="fill:none;stroke:black;stroke-width:1.42px;"/>
        <path id="LWPOLYLINE_64_" d="M209.874,149.925L208.984,148.641L207.731,147.415L206.141,146.267L204.234,145.218L202.045,144.283L199.609,143.473L196.964,142.807L194.151,142.287L191.213,141.927L188.198,141.729L185.151,141.699L182.121,141.835L179.152,142.136L176.293,142.598L173.589,143.209L171.08,143.97L168.807,144.86L166.806,145.869L165.109,146.983L163.745,148.181L162.735,149.448L162.096,150.76L161.841,152.1L161.836,152.336" style="fill:none;stroke:black;stroke-width:1.42px;"/>
        <path id="LWPOLYLINE_65_" d="M209.874,149.925L210.451,150.477L211.032,150.75" style="fill:none;stroke:black;stroke-width:1.42px;"/>
        <path id="LINE_82_" d="M213.682,151.728L211.032,150.75" style="fill:none;stroke:black;stroke-width:1.42px;"/>
        <path id="LWPOLYLINE_66_" d="M213.682,151.728L214.897,152.021L216.271,152.085L217.588,151.909L218.573,151.559" style="fill:none;stroke:black;stroke-width:1.42px;"/>
        <path id="LINE_83_" d="M224.329,148.556L218.573,151.559" style="fill:none;stroke:black;stroke-width:1.42px;"/>
        <path id="LWPOLYLINE_67_" d="M224.329,148.556L225.398,148.186L226.72,148.031L228.087,148.111L229.206,148.389" style="fill:none;stroke:black;stroke-width:1.42px;"/>
        <path id="LINE_84_" d="M234.574,150.353L229.206,148.389" style="fill:none;stroke:black;stroke-width:1.42px;"/>
        <path id="LINE_85_" d="M231.058,152.202L234.574,150.353" style="fill:none;stroke:black;stroke-width:1.42px;"/>
        <path id="LINE_86_" d="M228.639,151.313L231.058,152.202" style="fill:none;stroke:black;stroke-width:1.42px;"/>
        <path id="LINE_87_" d="M215.332,158.286L228.639,151.313" style="fill:none;stroke:black;stroke-width:1.42px;"/>
        <path id="LINE_88_" d="M207.197,155.267L215.332,158.286" style="fill:none;stroke:black;stroke-width:1.42px;"/>
        <path id="LINE_89_" d="M206.379,154.625L207.197,155.267" style="fill:none;stroke:black;stroke-width:1.42px;"/>
        <path id="LINE_90_" d="M206.379,154.625L207.045,152.366" style="fill:none;stroke:black;stroke-width:1.42px;"/>
        <path id="LINE_91_" d="M188.062,161.731L187.671,161.42" style="fill:none;stroke:black;stroke-width:1.42px;"/>
        <path id="LINE_92_" d="M142.863,195.158L144.071,195.633" style="fill:none;stroke:black;stroke-width:1.42px;"/>
        <path id="LINE_93_" d="M133.203,203.591L130.75,202.617" style="fill:none;stroke:black;stroke-width:1.42px;"/>
        <path id="LINE_94_" d="M126.857,182.48L149.882,191.482" style="fill:none;stroke:black;stroke-width:1.42px;"/>
        <path id="LWPOLYLINE_68_" d="M120.338,202.205L120.615,201.553L121.266,201.071" style="fill:none;stroke:black;stroke-width:1.42px;"/>
        <path id="LINE_95_" d="M289.945,228.685L289.761,235.196" style="fill:none;stroke:black;stroke-width:1.42px;"/>
        <path id="LINE_96_" d="M286.55,227.377L289.945,228.685" style="fill:none;stroke:black;stroke-width:1.42px;"/>
        <path id="LINE_97_" d="M278.264,220.154L278.378,208.155" style="fill:none;stroke:black;stroke-width:1.42px;"/>
        <path id="LINE_98_" d="M289.711,212.686L290.808,194.355" style="fill:none;stroke:black;stroke-width:1.42px;"/>
        <path id="LINE_99_" d="M278.56,189.288L290.808,194.355" style="fill:none;stroke:black;stroke-width:1.42px;"/>
        <path id="LINE_100_" d="M278.56,189.288L278.679,176.791" style="fill:none;stroke:black;stroke-width:1.42px;"/>
        <path id="LINE_101_" d="M278.679,176.791L291.757,181.623" style="fill:none;stroke:black;stroke-width:1.42px;"/>
        <path id="LINE_102_" d="M307.502,221.814L307.933,196.473" style="fill:none;stroke:black;stroke-width:1.42px;"/>
        <path id="LWPOLYLINE_69_" d="M324.443,226.095L324.336,229.877L322.913,232.865L321.466,234.103" style="fill:none;stroke:black;stroke-width:1.42px;"/>
        <path id="LINE_103_" d="M324.908,213.615L324.443,226.095" style="fill:none;stroke:black;stroke-width:1.42px;"/>
        <path id="LWPOLYLINE_70_" d="M324.908,213.615L325.181,212.459L325.234,212.358" style="fill:none;stroke:black;stroke-width:1.42px;"/>
        <path id="LWPOLYLINE_71_" d="M133.358,236.63L133.261,236.509" style="fill:none;stroke:black;stroke-width:1.42px;"/>
        <path id="LWPOLYLINE_72_" d="M82.14,221.158L82.38,222.627L83.019,224.066L84.047,225.453L85.452,226.766L87.21,227.979L89.294,229.077L91.673,230.039L94.305,230.85L97.151,231.493L100.162,231.963L103.289,232.249L106.481,232.346L109.687,232.251L110.683,232.184" style="fill:none;stroke:black;stroke-width:1.42px;"/>
        <path id="LWPOLYLINE_73_" d="M83.112,258.9L83.349,260.404L83.983,261.875L85.003,263.294L86.396,264.634L88.138,265.876L90.202,267L92.557,267.981L95.165,268.81L97.982,269.471L100.964,269.948L104.061,270.242L107.221,270.341L110.394,270.242L113.528,269.953L116.569,269.476L119.469,268.82L122.18,267.99L124.659,267.011L126.865,265.89L128.762,264.649L129.495,264.067" style="fill:none;stroke:black;stroke-width:1.42px;"/>
        <path id="LWPOLYLINE_74_" d="M120.587,210.605L117.824,209.944L114.895,209.454L111.846,209.139L108.729,209.004L105.585,209.054L102.469,209.283L99.427,209.693L96.505,210.275L93.751,211.021L91.206,211.917L88.913,212.954L86.906,214.112L85.22,215.377L83.88,216.725L82.91,218.141L82.325,219.595L82.139,221.069L82.14,221.158" style="fill:none;stroke:black;stroke-width:1.42px;"/>
        <path id="LWPOLYLINE_75_" d="M110.683,232.184L113.251,231.792L117.229,230.531L121.007,228.776L122.123,228.187" style="fill:none;stroke:black;stroke-width:1.42px;"/>
        <path id="LWPOLYLINE_76_" d="M123.357,227.519L122.702,227.988L121.866,228.906L120.972,230.404L120.521,231.747L120.418,232.736" style="fill:none;stroke:black;stroke-width:1.42px;"/>
        <path id="LWPOLYLINE_77_" d="M120.834,258.967L120.856,259.286L121.162,260.22L121.792,260.901L122.127,261.082" style="fill:none;stroke:black;stroke-width:1.42px;"/>
        <path id="LWPOLYLINE_78_" d="M268.923,209.75L268.22,212.355L268.21,212.385" style="fill:none;stroke:black;stroke-width:1.42px;"/>
        <path id="LWPOLYLINE_79_" d="M276.305,218.469L274.222,217.579L273.293,217.41" style="fill:none;stroke:black;stroke-width:1.42px;"/>
        <path id="LINE_104_" d="M219.691,215.862L215.993,217.336" style="fill:none;stroke:black;stroke-width:1.42px;"/>
        <path id="LWPOLYLINE_80_" d="M198.061,213.548L194.971,211.336L192.018,208.736L189.252,205.788L186.712,202.54L184.438,199.038L182.464,195.337L180.824,191.497L179.536,187.575L178.631,183.631L178.115,179.726L177.992,176.766" style="fill:none;stroke:black;stroke-width:1.42px;"/>
        <path id="LINE_105_" d="M181.731,174.81L182.315,181.386" style="fill:none;stroke:black;stroke-width:1.42px;"/>
        <path id="LINE_106_" d="M182.315,181.386L194.951,174.73" style="fill:none;stroke:black;stroke-width:1.42px;"/>
        <path id="LINE_107_" d="M194.951,174.73L196.622,181.319" style="fill:none;stroke:black;stroke-width:1.42px;"/>
        <path id="LINE_108_" d="M198.401,188.542L196.622,181.319" style="fill:none;stroke:black;stroke-width:1.42px;"/>
        <path id="LWPOLYLINE_81_" d="M206.404,197.997L204.739,197.017L203.173,195.827L201.374,194.012L199.857,191.87L199.032,190.259L198.401,188.542" style="fill:none;stroke:black;stroke-width:1.42px;"/>
        <path id="LWPOLYLINE_82_" d="M206.404,197.997L208.944,200.554L211.629,202.816L214.419,204.759L217.288,206.355L220.194,207.585L223.099,208.428L225.97,208.875L226.385,208.908" style="fill:none;stroke:black;stroke-width:1.42px;"/>
        <path id="LWPOLYLINE_83_" d="M122.123,228.187L123.357,227.519" style="fill:none;stroke:black;stroke-width:1.42px;"/>
        <path id="LWPOLYLINE_84_" d="M115.173,216.384L117.968,218.097L119.08,220.199L119.089,220.375" style="fill:none;stroke:black;stroke-width:1.42px;"/>
        <path id="LWPOLYLINE_85_" d="M120.587,210.605L120.723,210.64" style="fill:none;stroke:black;stroke-width:1.42px;"/>
        <path id="LWPOLYLINE_86_" d="M120.723,210.64L120.964,210.697" style="fill:none;stroke:black;stroke-width:1.42px;"/>
        <path id="LINE_109_" d="M253.678,190.543L253.66,195.658" style="fill:none;stroke:black;stroke-width:1.42px;"/>
        <path id="LWPOLYLINE_87_" d="M135.965,192.782L135.672,192.148L134.855,191.622L134.75,191.577" style="fill:none;stroke:black;stroke-width:1.42px;"/>
        <path id="LWPOLYLINE_88_" d="M95.418,220.801L96.303,218.644L98.91,216.794L102.821,215.542L107.421,215.079L111.997,215.477L115.173,216.384" style="fill:none;stroke:black;stroke-width:1.42px;"/>
        <path id="LWPOLYLINE_89_" d="M119.089,220.375L118.188,222.535L115.552,224.387L111.594,225.637L106.941,226.082L102.338,225.652L98.521,224.412L96.095,222.567L95.418,220.801" style="fill:none;stroke:black;stroke-width:1.42px;"/>
        <path id="LWPOLYLINE_90_" d="M325.234,212.358L325.813,211.708L326.151,211.48" style="fill:none;stroke:black;stroke-width:1.42px;"/>
        <path id="LINE_110_" d="M228.716,202.324L218.481,192.481" style="fill:none;stroke:black;stroke-width:1.42px;"/>
        <path id="LINE_111_" d="M273.133,193.476L267.201,196.776" style="fill:none;stroke:black;stroke-width:1.42px;"/>
        <path id="LWPOLYLINE_91_" d="M336.309,205.972L336.784,207.006L336.903,207.732" style="fill:none;stroke:black;stroke-width:1.42px;"/>
        <path id="LWPOLYLINE_92_" d="M326.151,211.48L327.53,210.963L329.79,210.794L331.286,211.003" style="fill:none;stroke:black;stroke-width:1.42px;"/>
        <path id="LWPOLYLINE_93_" d="M335.737,205.911L336.224,205.908L336.309,205.972" style="fill:none;stroke:black;stroke-width:1.42px;"/>
        <path id="LWPOLYLINE_94_" d="M308.606,190.21L308.596,192.382L308.323,194.201L308.186,194.758" style="fill:none;stroke:black;stroke-width:1.42px;"/>
        <path id="LWPOLYLINE_95_" d="M307.933,196.473L308.166,194.828L308.186,194.758" style="fill:none;stroke:black;stroke-width:1.42px;"/>
        <path id="LWPOLYLINE_96_" d="M300.57,182.842L300.076,183.021L299.129,183.131L296.785,182.95L291.757,181.623" style="fill:none;stroke:black;stroke-width:1.42px;"/>
        <path id="LWPOLYLINE_97_" d="M116.124,183.549L116.396,182.917L117.042,182.45" style="fill:none;stroke:black;stroke-width:1.42px;"/>
        <path id="LWPOLYLINE_98_" d="M317.735,189.339L317.927,190.727L317.927,190.793" style="fill:none;stroke:black;stroke-width:1.42px;"/>
        <path id="LINE_112_" d="M317.434,216.043L317.927,190.793" style="fill:none;stroke:black;stroke-width:1.42px;"/>
        <path id="LINE_113_" d="M278.679,176.791L273.246,179.781" style="fill:none;stroke:black;stroke-width:1.42px;"/>
        <path id="LINE_114_" d="M268.496,178.016L273.246,179.781" style="fill:none;stroke:black;stroke-width:1.42px;"/>
        <path id="LINE_115_" d="M281.688,170.788L268.496,178.016" style="fill:none;stroke:black;stroke-width:1.42px;"/>
        <path id="LINE_116_" d="M274.747,168.238L281.688,170.788" style="fill:none;stroke:black;stroke-width:1.42px;"/>
        <path id="LINE_117_" d="M278.239,166.337L274.747,168.238" style="fill:none;stroke:black;stroke-width:1.42px;"/>
        <path id="LINE_118_" d="M283.789,168.367L278.239,166.337" style="fill:none;stroke:black;stroke-width:1.42px;"/>
        <path id="LWPOLYLINE_99_" d="M283.789,168.367L284.699,168.859L285.124,169.461L285.144,169.645" style="fill:none;stroke:black;stroke-width:1.42px;"/>
        <path id="LWPOLYLINE_100_" d="M301.803,176.038L305.822,178.091L306.024,178.262" style="fill:none;stroke:black;stroke-width:1.42px;"/>
        <path id="LINE_119_" d="M300.57,182.842L306.24,179.674" style="fill:none;stroke:black;stroke-width:1.42px;"/>
        <path id="LINE_120_" d="M285.083,169.911L301.803,176.038" style="fill:none;stroke:black;stroke-width:1.42px;"/>
        <path id="LINE_121_" d="M268.354,184.389L268.496,178.016" style="fill:none;stroke:black;stroke-width:1.42px;"/>
        <path id="LINE_122_" d="M273.246,179.781L273.133,193.476" style="fill:none;stroke:black;stroke-width:1.42px;"/>
        <path id="LWPOLYLINE_101_" d="M218.481,192.481L217.271,191.326L216.495,190.878L215.978,190.742L215.647,190.781L215.426,190.925L215.334,191.055" style="fill:none;stroke:black;stroke-width:1.42px;"/>
        <path id="LWPOLYLINE_102_" d="M215.334,191.055L216.38,188.733L216.911,186.561L216.913,184.575L216.383,182.803L215.337,181.279L213.784,180.024L211.755,179.065L209.834,178.518" style="fill:none;stroke:black;stroke-width:1.42px;"/>
        <path id="LINE_123_" d="M209.834,178.518L206.086,167.917" style="fill:none;stroke:black;stroke-width:1.42px;"/>
        <path id="LINE_124_" d="M206.086,167.917L207.197,155.267" style="fill:none;stroke:black;stroke-width:1.42px;"/>
        <path id="LWPOLYLINE_103_" d="M263.301,182.36L262.558,184.896L261.571,187.242L260.354,189.37L258.917,191.261L257.279,192.894L255.455,194.25L254.629,194.738" style="fill:none;stroke:black;stroke-width:1.42px;"/>
        <path id="LINE_125_" d="M263.301,182.36L263.299,182.5" style="fill:none;stroke:black;stroke-width:1.42px;"/>
        <path id="LINE_126_" d="M263.299,182.5L268.354,184.389" style="fill:none;stroke:black;stroke-width:1.42px;"/>
        <path id="LWPOLYLINE_104_" d="M265.25,200.044L265.782,199.269L267.201,196.776" style="fill:none;stroke:black;stroke-width:1.42px;"/>
        <path id="LINE_127_" d="M267.201,196.776L267.204,200.788" style="fill:none;stroke:black;stroke-width:1.42px;"/>
        <path id="LWPOLYLINE_105_" d="M314.263,187.013L316.482,187.913L317.037,188.338" style="fill:none;stroke:black;stroke-width:1.42px;"/>
        <path id="LWPOLYLINE_106_" d="M324.454,227.991L321.314,225.563L318.906,222.113L317.601,218.191L317.434,216.043" style="fill:none;stroke:black;stroke-width:1.42px;"/>
        <path id="LWPOLYLINE_107_" d="M321.466,234.103L318.476,234.888L315.108,234.098L311.887,231.861L309.317,228.528L307.801,224.623L307.502,221.814" style="fill:none;stroke:black;stroke-width:1.42px;"/>
        <path id="LINE_128_" d="M275.296,200.134L278.56,189.288" style="fill:none;stroke:black;stroke-width:1.42px;"/>
        <path id="LWPOLYLINE_108_" d="M317.037,188.338L317.733,189.332" style="fill:none;stroke:black;stroke-width:1.42px;"/>
        <path id="LWPOLYLINE_109_" d="M306.024,178.262L306.583,179.092L306.481,179.477L306.24,179.674" style="fill:none;stroke:black;stroke-width:1.42px;"/>
        <path id="LINE_129_" d="M155.089,174.323L133.943,185.249" style="fill:none;stroke:black;stroke-width:1.42px;"/>
        <path id="LINE_130_" d="M307.791,251.198L334.87,261.761" style="fill:none;stroke:black;stroke-width:1.42px;"/>
        <path id="LWPOLYLINE_110_" d="M121.417,213.69L121.482,213.98L121.713,214.577L122.106,215.449L122.289,216.103" style="fill:none;stroke:black;stroke-width:1.42px;"/>
        <path id="LINE_131_" d="M254.629,194.738L253.66,195.23" style="fill:none;stroke:black;stroke-width:1.42px;"/>
        <path id="LWPOLYLINE_111_" d="M237.668,194.644L234.646,193.068L231.706,191.084L228.893,188.728L226.25,186.032L223.82,183.042L221.638,179.805L219.736,176.368L218.15,172.787L216.898,169.116L216.003,165.412L215.479,161.731L215.332,158.286" style="fill:none;stroke:black;stroke-width:1.42px;"/>
        <path id="LWPOLYLINE_112_" d="M260.279,189.459L257.311,189.297L254.276,188.673L251.225,187.6L248.205,186.093L245.259,184.18L242.438,181.888L239.781,179.254L237.333,176.321L235.128,173.135L233.205,169.744L231.587,166.2L230.304,162.557L229.377,158.873L228.818,155.209L228.637,151.615L228.639,151.313" style="fill:none;stroke:black;stroke-width:1.42px;"/>
        <path id="LINE_132_" d="M268.461,179.527L263.301,182.36" style="fill:none;stroke:black;stroke-width:1.42px;"/>
        <path id="LINE_133_" d="M287.107,205.065L290.808,194.355" style="fill:none;stroke:black;stroke-width:1.42px;"/>
        <path id="LINE_134_" d="M289.711,212.686L288.32,212.308" style="fill:none;stroke:black;stroke-width:1.42px;"/>
        <path id="LINE_135_" d="M288.32,212.308L288.077,212.226" style="fill:none;stroke:black;stroke-width:1.42px;"/>
        <path id="LWPOLYLINE_113_" d="M276.67,207.437L275.47,206.325L274.854,204.339L274.92,201.792L275.296,200.134" style="fill:none;stroke:black;stroke-width:1.42px;"/>
        <path id="LWPOLYLINE_114_" d="M288.077,212.226L286.968,211.152L286.468,209.208L286.657,206.706L287.107,205.065" style="fill:none;stroke:black;stroke-width:1.42px;"/>
        <path id="LINE_136_" d="M268.458,179.669L263.299,182.5" style="fill:none;stroke:black;stroke-width:1.42px;"/>
        <path id="LINE_137_" d="M274.747,168.238L273.626,175.205" style="fill:none;stroke:black;stroke-width:1.42px;"/>
        <path id="LINE_138_" d="M285.144,169.645L285.083,169.911" style="fill:none;stroke:black;stroke-width:1.42px;"/>
        <path id="LINE_139_" d="M191.529,173.431L181.917,178.48" style="fill:none;stroke:black;stroke-width:1.42px;"/>
        <path id="LINE_140_" d="M191.546,167.11L191.529,173.431" style="fill:none;stroke:black;stroke-width:1.42px;"/>
        <path id="LINE_141_" d="M191.529,173.431L194.951,174.73" style="fill:none;stroke:black;stroke-width:1.42px;"/>
        <path id="LWPOLYLINE_115_" d="M161.836,152.336L162.017,153.604L162.542,154.859L163.409,156.079L164.602,157.245L166.108,158.341L167.905,159.355L169.967,160.265L171.011,160.652" style="fill:none;stroke:black;stroke-width:1.42px;"/>
        <path id="LWPOLYLINE_116_" d="M262.004,186.243L259.431,186.506L256.76,186.352L254.03,185.781L251.287,184.806L248.57,183.439L245.923,181.707L243.388,179.636L241.001,177.258L238.805,174.611L236.831,171.735L235.106,168.678L233.662,165.484L232.519,162.206L231.696,158.893L231.207,155.595L231.058,152.366L231.058,152.202" style="fill:none;stroke:black;stroke-width:1.42px;"/>
        <path id="LWPOLYLINE_117_" d="M262.6,184.597L259.921,184.396L257.189,183.78L254.445,182.758L251.739,181.354L249.104,179.582L246.586,177.479L244.226,175.071L242.056,172.399L240.112,169.506L238.424,166.434L237.018,163.235L235.914,159.954L235.134,156.644L234.687,153.355L234.574,150.353" style="fill:none;stroke:black;stroke-width:1.42px;"/>
        <path id="LWPOLYLINE_118_" d="M188.322,162.176L188.292,162.338L188.057,162.634L187.823,162.783" style="fill:none;stroke:black;stroke-width:1.42px;"/>
        <path id="LWPOLYLINE_119_" d="M172.333,161.86L172.269,161.567L171.823,161.061L171.011,160.652" style="fill:none;stroke:black;stroke-width:1.42px;"/>
        <path id="LWPOLYLINE_120_" d="M206.446,156.489L205.683,155.383L204.61,154.327L203.245,153.34L201.612,152.436L199.736,151.63L197.646,150.935L195.379,150.362L192.968,149.916L190.447,149.607L187.863,149.438L185.253,149.413L182.656,149.532L180.113,149.796L177.667,150.194L175.351,150.726L173.206,151.382L171.263,152.152L169.555,153.025L168.108,153.987L166.948,155.021L166.604,155.403" style="fill:none;stroke:black;stroke-width:1.42px;"/>
        <path id="LWPOLYLINE_121_" d="M165.315,152.304L165.486,153.457L165.989,154.593L166.818,155.691L167.959,156.74L169.395,157.715L171.102,158.605L173.055,159.395L175.223,160.068L177.569,160.618L180.056,161.03L182.644,161.304L185.288,161.433L187.671,161.42" style="fill:none;stroke:black;stroke-width:1.42px;"/>
        <path id="LWPOLYLINE_122_" d="M207.045,152.366L206.886,151.213L206.396,150.079L205.586,148.983L204.47,147.942L203.063,146.97L201.391,146.083L199.479,145.297L197.362,144.619L195.065,144.065L192.632,143.64L190.1,143.352L187.505,143.205L184.888,143.2L182.291,143.339L179.755,143.62L177.322,144.037L175.025,144.586L172.904,145.255L170.99,146.038L169.315,146.918L167.905,147.887L166.784,148.926L165.97,150.02L165.477,151.148L165.315,152.301" style="fill:none;stroke:black;stroke-width:1.42px;"/>
        <path id="LINE_142_" d="M206.255,161.033L206.379,154.625" style="fill:none;stroke:black;stroke-width:1.42px;"/>
        <path id="LWPOLYLINE_123_" d="M211.206,202.005L210.791,202.174" style="fill:none;stroke:black;stroke-width:1.42px;"/>
        <path id="LWPOLYLINE_124_" d="M204.418,196.747L204.421,195.69L204.202,193.97L203.392,191.676" style="fill:none;stroke:black;stroke-width:1.42px;"/>
        <path id="LWPOLYLINE_125_" d="M200.732,182.664L203.121,188.43L203.392,191.676" style="fill:none;stroke:black;stroke-width:1.42px;"/>
        <path id="LWPOLYLINE_126_" d="M202.03,179.49L201.836,180.743L201.309,181.948L200.732,182.664" style="fill:none;stroke:black;stroke-width:1.42px;"/>
        <path id="LINE_143_" d="M202.03,179.49L207.781,176.826" style="fill:none;stroke:black;stroke-width:1.42px;"/>
        <path id="LWPOLYLINE_127_" d="M209.834,178.518L208.174,177.111L207.781,176.826" style="fill:none;stroke:black;stroke-width:1.42px;"/>
        <path id="LWPOLYLINE_128_" d="M170.221,158.167L171.791,155.468L175.612,153.256L181.077,151.874L187.336,151.533L193.41,152.287L198.361,154.017L201.414,156.457L202.02,157.685" style="fill:none;stroke:black;stroke-width:1.42px;"/>
        <path id="LWPOLYLINE_129_" d="M202.02,157.685L202.05,165.328L202.05,173.662L202.03,179.49" style="fill:none;stroke:black;stroke-width:1.42px;"/>
        <path id="LINE_144_" d="M200.685,191.778L200.732,182.664" style="fill:none;stroke:black;stroke-width:1.42px;"/>
        <path id="LWPOLYLINE_130_" d="M200.685,191.778L199.706,190.07L198.707,189.021L198.55,188.89" style="fill:none;stroke:black;stroke-width:1.42px;"/>
        <path id="LINE_145_" d="M206.255,161.033L202.02,157.685" style="fill:none;stroke:black;stroke-width:1.42px;"/>
        <path id="LINE_146_" d="M207.781,176.826L206.086,167.917" style="fill:none;stroke:black;stroke-width:1.42px;"/>
        <path id="LINE_147_" d="M200.685,191.778L203.392,191.676" style="fill:none;stroke:black;stroke-width:1.42px;"/>
        <path id="LINE_148_" d="M121.987,18.147L119.904,16.421" style="fill:none;stroke:black;stroke-width:1.42px;"/>
        <path id="LINE_149_" d="M86.766,16.893L84.748,18.677" style="fill:none;stroke:black;stroke-width:1.42px;"/>
        <path id="LINE_150_" d="M124.096,39.827L123.833,21.342" style="fill:none;stroke:black;stroke-width:1.42px;"/>
        <path id="LINE_151_" d="M83.021,21.926L83.47,40.421" style="fill:none;stroke:black;stroke-width:1.42px;"/>
        <path id="LINE_152_" d="M115.279,53.771L115.161,46.564" style="fill:none;stroke:black;stroke-width:1.42px;"/>
        <path id="LINE_153_" d="M92.669,46.896L92.829,54.104" style="fill:none;stroke:black;stroke-width:1.42px;"/>
        <path id="LINE_154_" d="M92.829,54.104L94.621,135.371" style="fill:none;stroke:black;stroke-width:1.42px;"/>
        <path id="LINE_155_" d="M116.607,135.013L115.279,53.771" style="fill:none;stroke:black;stroke-width:1.42px;"/>
        <path id="LINE_156_" d="M284.826,295.188L286.667,228.595" style="fill:none;stroke:black;stroke-width:1.42px;"/>
        <path id="LINE_157_" d="M240.975,291.726L240.932,294.226" style="fill:none;stroke:black;stroke-width:1.42px;"/>
        <path id="LINE_158_" d="M242.001,227.66L241.705,246.008" style="fill:none;stroke:black;stroke-width:1.42px;"/>
        <path id="LINE_159_" d="M207.578,266.911L209.029,266.076" style="fill:none;stroke:black;stroke-width:1.42px;"/>
        <path id="LWPOLYLINE_131_" d="M154.822,258.843L156.884,260.344L159.869,262.337L162.896,264.157L165.958,265.792L169.047,267.239L172.151,268.492L175.263,269.54L178.372,270.391L181.468,271.026L184.54,271.457L187.579,271.67L190.572,271.67L193.51,271.454L196.383,271.026L199.181,270.385L201.896,269.535L204.518,268.477L207.041,267.214L207.428,266.996" style="fill:none;stroke:black;stroke-width:1.42px;"/>
        <path id="LWPOLYLINE_132_" d="M133.253,236.501L134.979,238.562L137.005,240.749L139.119,242.792L141.31,244.686L143.571,246.413L145.888,247.966L148.253,249.339L150.653,250.517L153.074,251.491L155.503,252.259L157.925,252.811L160.327,253.141L162.688,253.251L164.998,253.136L167.239,252.798L169.397,252.247L171.46,251.481L173.386,250.532" style="fill:none;stroke:black;stroke-width:1.42px;"/>
        <path id="LWPOLYLINE_133_" d="M173.386,250.532L173.418,250.512L173.469,250.484" style="fill:none;stroke:black;stroke-width:1.42px;"/>
        <path id="LINE_160_" d="M173.356,250.546L186.958,242.966" style="fill:none;stroke:black;stroke-width:1.42px;"/>
        <path id="LINE_161_" d="M197.322,270.81L236.167,286.822" style="fill:none;stroke:black;stroke-width:1.42px;"/>
        <path id="LWPOLYLINE_134_" d="M236.13,286.804L237.512,287.557L238.934,288.735L240.207,290.253L240.706,291.088L241.046,291.9" style="fill:none;stroke:black;stroke-width:1.42px;"/>
        <path id="LINE_162_" d="M295.383,231.92L286.431,237.138" style="fill:none;stroke:black;stroke-width:1.42px;"/>
        <path id="LINE_163_" d="M307.154,239.924L295.667,231.933" style="fill:none;stroke:black;stroke-width:1.42px;"/>
        <path id="LINE_164_" d="M304.478,279.833L308.701,243.346" style="fill:none;stroke:black;stroke-width:1.42px;"/>
        <path id="LWPOLYLINE_135_" d="M308.701,243.346L308.576,241.897L307.896,240.609L307.154,239.924" style="fill:none;stroke:black;stroke-width:1.42px;"/>
        <path id="LINE_165_" d="M285.156,283.288L293.283,286.573" style="fill:none;stroke:black;stroke-width:1.42px;"/>
        <path id="LWPOLYLINE_136_" d="M120.338,202.205L120.386,203.71L120.613,206.557L121.012,209.435L121.581,212.33L122.314,215.226L123.209,218.111L123.78,219.717" style="fill:none;stroke:black;stroke-width:1.42px;"/>
        <path id="LINE_166_" d="M82.14,221.158L83.112,258.9" style="fill:none;stroke:black;stroke-width:1.42px;"/>
        <path id="LWPOLYLINE_137_" d="M293.283,286.573L294.705,286.838L296.117,286.529L296.472,286.35" style="fill:none;stroke:black;stroke-width:1.42px;"/>
        <path id="LINE_167_" d="M296.472,286.35L296.546,286.304" style="fill:none;stroke:black;stroke-width:1.42px;"/>
        <path id="LWPOLYLINE_138_" d="M271.372,215.039L271.093,214.828L270.521,214.286L269.982,213.613L269.522,212.84L269.172,212.022L268.956,211.222L268.871,210.5L268.896,209.914L268.928,209.728" style="fill:none;stroke:black;stroke-width:1.42px;"/>
        <path id="LINE_168_" d="M276.305,218.469L271.372,215.039" style="fill:none;stroke:black;stroke-width:1.42px;"/>
        <path id="LINE_169_" d="M296.546,286.304L302.765,282.509" style="fill:none;stroke:black;stroke-width:1.42px;"/>
        <path id="LWPOLYLINE_139_" d="M123.78,219.717L124.004,220.368L124.342,221.643L124.536,222.868L124.591,224.002L124.519,225.006L124.34,225.861L124.087,226.547L123.788,227.057L123.463,227.417L123.216,227.601" style="fill:none;stroke:black;stroke-width:1.42px;"/>
        <path id="LWPOLYLINE_140_" d="M302.765,282.509L303.821,281.53L304.413,280.215L304.478,279.833" style="fill:none;stroke:black;stroke-width:1.42px;"/>
        <path id="LINE_170_" d="M132.404,264.411L139.179,264.236" style="fill:none;stroke:black;stroke-width:1.42px;"/>
        <path id="LWPOLYLINE_141_" d="M128.417,263.719L129.087,263.963L130.281,264.257L131.52,264.396L132.404,264.411" style="fill:none;stroke:black;stroke-width:1.42px;"/>
        <path id="LINE_171_" d="M347.543,216.252L336.309,205.972" style="fill:none;stroke:black;stroke-width:1.42px;"/>
        <path id="LINE_172_" d="M335.737,205.911L326.151,211.48" style="fill:none;stroke:black;stroke-width:1.42px;"/>
        <path id="LWPOLYLINE_142_" d="M139.179,264.236L139.871,264.196L141.108,264.013L142.32,263.667L143.132,263.317" style="fill:none;stroke:black;stroke-width:1.42px;"/>
        <path id="LINE_173_" d="M122.13,261.082L128.417,263.719" style="fill:none;stroke:black;stroke-width:1.42px;"/>
        <path id="LINE_174_" d="M344.074,255.707L348.679,219.342" style="fill:none;stroke:black;stroke-width:1.42px;"/>
        <path id="LINE_175_" d="M143.132,263.317L149.729,260.014" style="fill:none;stroke:black;stroke-width:1.42px;"/>
        <path id="LWPOLYLINE_143_" d="M348.679,219.342L348.572,217.92L347.918,216.65L347.543,216.252" style="fill:none;stroke:black;stroke-width:1.42px;"/>
        <path id="LWPOLYLINE_144_" d="M116.125,183.549L116.181,185.475L116.416,189.136L116.818,192.834L117.388,196.563L118.12,200.3L119.012,204.048L120.062,207.787L120.911,210.466" style="fill:none;stroke:black;stroke-width:1.42px;"/>
        <path id="LWPOLYLINE_145_" d="M149.729,260.014L150.131,259.827L150.992,259.504L152.012,259.221L153.167,258.995L154.418,258.843L155.723,258.784L156.693,258.795" style="fill:none;stroke:black;stroke-width:1.42px;"/>
        <path id="LINE_176_" d="M317.037,188.338L306.024,178.262" style="fill:none;stroke:black;stroke-width:1.42px;"/>
        <path id="LINE_177_" d="M307.719,251.819L333.692,261.955" style="fill:none;stroke:black;stroke-width:1.42px;"/>
        <path id="LWPOLYLINE_146_" d="M120.911,210.466L121.243,211.738L121.396,212.929L121.414,213.712" style="fill:none;stroke:black;stroke-width:1.42px;"/>
        <path id="LWPOLYLINE_147_" d="M333.692,261.955L335.088,262.199L336.47,261.88L336.781,261.721" style="fill:none;stroke:black;stroke-width:1.42px;"/>
        <path id="LINE_178_" d="M336.781,261.721L336.853,261.676" style="fill:none;stroke:black;stroke-width:1.42px;"/>
        <path id="LINE_179_" d="M336.853,261.676L342.398,258.291" style="fill:none;stroke:black;stroke-width:1.42px;"/>
        <path id="LINE_180_" d="M276.67,207.437L288.077,212.226" style="fill:none;stroke:black;stroke-width:1.42px;"/>
        <path id="LWPOLYLINE_148_" d="M342.398,258.291L343.435,257.332L344.014,256.044L344.074,255.707" style="fill:none;stroke:black;stroke-width:1.42px;"/>
        <path id="LWPOLYLINE_149_" d="M285.133,169.928L285.144,169.645" style="fill:none;stroke:black;stroke-width:1.42px;"/>
        <path id="LINE_181_" d="M161.836,152.336L161.906,166.449" style="fill:none;stroke:black;stroke-width:1.42px;"/>
        <path id="LWPOLYLINE_150_" d="M188.313,165.882L188.328,161.995" style="fill:none;stroke:black;stroke-width:1.42px;"/>
        <path id="LWPOLYLINE_151_" d="M211.213,202L210.803,202.169" style="fill:none;stroke:black;stroke-width:1.42px;"/>
        <path id="LINE_182_" d="M242.101,248.081L241.705,246.008" style="fill:none;stroke:black;stroke-width:1.42px;"/>
        <path id="LINE_183_" d="M241.372,293.202L240.999,291.572" style="fill:none;stroke:black;stroke-width:1.42px;"/>
        <path id="LWPOLYLINE_152_" d="M207.578,266.911L212.314,263.61L216.515,259.467L220.117,254.528L223.059,248.856L225.301,242.528L226.8,235.629L227.531,228.252L227.6,225.833" style="fill:none;stroke:black;stroke-width:1.42px;"/>
        <path id="LINE_184_" d="M241.914,233.044L229.119,240.309" style="fill:none;stroke:black;stroke-width:1.42px;"/>
        <path id="LINE_185_" d="M127.415,261.721L120.834,258.967" style="fill:none;stroke:black;stroke-width:1.42px;"/>
        <path id="LWPOLYLINE_153_" d="M120.418,232.736L123.368,231.49L125.26,228.627L125.79,224.591L124.866,220.021L124.765,219.742" style="fill:none;stroke:black;stroke-width:1.42px;"/>
        <path id="LWPOLYLINE_154_" d="M124.765,219.742L121.638,205.552L121.549,203.419" style="fill:none;stroke:black;stroke-width:1.42px;"/>
        <path id="LWPOLYLINE_155_" d="M179.732,226.644L179.497,230.899L178.793,234.888L177.634,238.542L176.041,241.808L174.039,244.629L171.667,246.967L168.959,248.787L165.966,250.057L162.733,250.765L159.315,250.899L155.765,250.464L152.138,249.468L148.493,247.922L144.886,245.864L141.373,243.316L138.007,240.326L134.839,236.941L131.92,233.208L129.293,229.191L126.998,224.946L126.892,224.728" style="fill:none;stroke:black;stroke-width:1.42px;"/>
        <path id="LINE_186_" d="M126.892,224.728L127.415,261.721" style="fill:none;stroke:black;stroke-width:1.42px;"/>
        <path id="LWPOLYLINE_156_" d="M222.371,226.025L221.854,233.715L220.479,240.905L218.28,247.477L215.292,253.331L211.582,258.371L207.205,262.526L202.246,265.738L196.786,267.964L190.915,269.178L184.726,269.366L178.325,268.541L171.808,266.717L165.275,263.934L158.825,260.235L156.68,258.789" style="fill:none;stroke:black;stroke-width:1.42px;"/>
        <path id="LINE_187_" d="M160.555,257.745L160.53,253.151" style="fill:none;stroke:black;stroke-width:1.42px;"/>
        <path id="LWPOLYLINE_157_" d="M178.886,247.464L182.977,247.373L186.856,246.604L190.462,245.168L193.743,243.085L196.634,240.381L199.092,237.1L201.073,233.288L202.542,229.008L203.474,224.325L203.849,219.314L203.854,218.748" style="fill:none;stroke:black;stroke-width:1.42px;"/>
        <path id="LWPOLYLINE_158_" d="M133.261,236.509L133.102,236.307" style="fill:none;stroke:black;stroke-width:1.42px;"/>
        <path id="LWPOLYLINE_159_" d="M133.102,236.307L133.012,236.195L132.076,234.913L131.131,233.476L130.188,231.883L128.46,228.491L126.892,224.728" style="fill:none;stroke:black;stroke-width:1.42px;"/>
        <path id="LWPOLYLINE_160_" d="M173.458,250.492L176.208,248.595L178.638,246.207L180.714,243.351L182.404,240.07L183.688,236.407L184.535,232.413L184.939,228.143L184.975,226.45" style="fill:none;stroke:black;stroke-width:1.42px;"/>
        <path id="LWPOLYLINE_161_" d="M198.654,218.937L198.406,223.289L197.71,227.387L196.572,231.178L195.016,234.604L193.067,237.622L190.749,240.192L188.099,242.275L186.958,242.966" style="fill:none;stroke:black;stroke-width:1.42px;"/>
        <path id="LWPOLYLINE_162_" d="M225.237,246.271L227.041,248.528L229.236,250.012L229.437,250.097" style="fill:none;stroke:black;stroke-width:1.42px;"/>
        <path id="LINE_188_" d="M229.437,250.097L235.715,252.612" style="fill:none;stroke:black;stroke-width:1.42px;"/>
        <path id="LWPOLYLINE_163_" d="M235.715,252.612L237.149,253.046L238.591,253.201L239.92,253.067L241.176,252.634L242.359,251.774" style="fill:none;stroke:black;stroke-width:1.42px;"/>
        <path id="LWPOLYLINE_164_" d="M235.248,284.806L237.303,285.942L239.237,287.57L240.594,289.132L241.725,290.908" style="fill:none;stroke:black;stroke-width:1.42px;"/>
        <path id="LINE_189_" d="M199.768,270.201L235.248,284.806" style="fill:none;stroke:black;stroke-width:1.42px;"/>
        <path id="LWPOLYLINE_165_" d="M238.096,248.021L237.184,248.801L236.408,249.97L235.889,251.344L235.715,252.612" style="fill:none;stroke:black;stroke-width:1.42px;"/>
        <path id="LWPOLYLINE_166_" d="M242.101,248.081L242.048,248.459L242.001,248.588L241.66,248.991L241.604,249.025L240.8,249.189L239.466,248.856L238.096,248.021" style="fill:none;stroke:black;stroke-width:1.42px;"/>
        <path id="LINE_190_" d="M286.329,240.843L296.522,247.971" style="fill:none;stroke:black;stroke-width:1.42px;"/>
        <path id="LINE_191_" d="M296.522,247.971L292.416,284.563" style="fill:none;stroke:black;stroke-width:1.42px;"/>
        <path id="LINE_192_" d="M292.416,284.563L285.201,281.65" style="fill:none;stroke:black;stroke-width:1.42px;"/>
        <path id="LWPOLYLINE_167_" d="M241.755,242.938L238.245,247.474L238.096,248.021" style="fill:none;stroke:black;stroke-width:1.42px;"/>
        <path id="LWPOLYLINE_168_" d="M231.815,245.516L230.903,246.292L230.128,247.46L229.611,248.832L229.437,250.097" style="fill:none;stroke:black;stroke-width:1.42px;"/>
        <path id="LINE_193_" d="M238.096,248.021L231.815,245.516" style="fill:none;stroke:black;stroke-width:1.42px;"/>
        <path id="LINE_194_" d="M231.815,245.516L241.805,239.814" style="fill:none;stroke:black;stroke-width:1.42px;"/>
        <path id="LWPOLYLINE_169_" d="M231.815,245.516L230.707,244.817L229.783,243.716L229.184,242.389L229.007,241.04L229.119,240.309" style="fill:none;stroke:black;stroke-width:1.42px;"/>
        <path id="LWPOLYLINE_170_" d="M299.634,243.816L298.689,244.556L297.757,245.628L296.986,246.858L296.522,247.971" style="fill:none;stroke:black;stroke-width:1.42px;"/>
        <path id="LINE_195_" d="M299.634,243.816L289.901,237.025" style="fill:none;stroke:black;stroke-width:1.42px;"/>
        <path id="LINE_196_" d="M297.506,284.634L301.667,248.056" style="fill:none;stroke:black;stroke-width:1.42px;"/>
        <path id="LWPOLYLINE_171_" d="M297.506,284.634L296.41,285.049L295.038,285.176L293.602,284.987L292.416,284.563" style="fill:none;stroke:black;stroke-width:1.42px;"/>
        <path id="LWPOLYLINE_172_" d="M301.667,248.056L300.561,248.463L299.174,248.583L297.722,248.394L296.522,247.971" style="fill:none;stroke:black;stroke-width:1.42px;"/>
        <path id="LWPOLYLINE_173_" d="M301.667,248.056L301.577,246.726L301.043,245.384L300.151,244.241L299.634,243.816" style="fill:none;stroke:black;stroke-width:1.42px;"/>
        <path id="LINE_197_" d="M289.901,237.025L296.201,233.35" style="fill:none;stroke:black;stroke-width:1.42px;"/>
        <path id="LINE_198_" d="M296.201,233.35L305.919,240.11" style="fill:none;stroke:black;stroke-width:1.42px;"/>
        <path id="LINE_199_" d="M305.919,240.11L299.634,243.816" style="fill:none;stroke:black;stroke-width:1.42px;"/>
        <path id="LINE_200_" d="M301.667,248.056L307.942,244.335" style="fill:none;stroke:black;stroke-width:1.42px;"/>
        <path id="LINE_201_" d="M307.942,244.335L303.728,280.839" style="fill:none;stroke:black;stroke-width:1.42px;"/>
        <path id="LINE_202_" d="M303.728,280.839L297.506,284.634" style="fill:none;stroke:black;stroke-width:1.42px;"/>
        <path id="LWPOLYLINE_174_" d="M305.919,240.11L306.934,241.087L307.651,242.354L307.96,243.711L307.942,244.335" style="fill:none;stroke:black;stroke-width:1.42px;"/>
        <path id="LWPOLYLINE_175_" d="M236.165,286.822L235.894,286.661L235.407,285.922L235.248,284.806" style="fill:none;stroke:black;stroke-width:1.42px;"/>
        <path id="LWPOLYLINE_176_" d="M307.154,239.924L306.538,239.846L305.919,240.11" style="fill:none;stroke:black;stroke-width:1.42px;"/>
        <path id="LWPOLYLINE_177_" d="M304.478,279.833L304.107,280.546L303.728,280.839" style="fill:none;stroke:black;stroke-width:1.42px;"/>
        <path id="LWPOLYLINE_178_" d="M308.701,243.346L308.328,244.047L307.942,244.335" style="fill:none;stroke:black;stroke-width:1.42px;"/>
        <path id="LWPOLYLINE_179_" d="M292.416,284.563L292.555,285.689L293.025,286.421L293.283,286.573" style="fill:none;stroke:black;stroke-width:1.42px;"/>
        <path id="LINE_203_" d="M268.21,212.385L261.865,215.969" style="fill:none;stroke:black;stroke-width:1.42px;"/>
        <path id="LWPOLYLINE_180_" d="M262.675,217.699L262.001,216.416L261.865,215.969" style="fill:none;stroke:black;stroke-width:1.42px;"/>
        <path id="LINE_204_" d="M273.293,217.41L271.652,218.345" style="fill:none;stroke:black;stroke-width:1.42px;"/>
        <path id="LWPOLYLINE_181_" d="M123.779,219.717L124.122,219.816L124.765,219.742" style="fill:none;stroke:black;stroke-width:1.42px;"/>
        <path id="LINE_205_" d="M337.35,223.485L332.852,259.941" style="fill:none;stroke:black;stroke-width:1.42px;"/>
        <path id="LINE_206_" d="M332.852,259.941L307.905,250.221" style="fill:none;stroke:black;stroke-width:1.42px;"/>
        <path id="LINE_207_" d="M291.757,181.623L307.933,196.473" style="fill:none;stroke:black;stroke-width:1.42px;"/>
        <path id="LINE_208_" d="M325.234,212.358L337.35,223.485" style="fill:none;stroke:black;stroke-width:1.42px;"/>
        <path id="LINE_209_" d="M270.111,215.198L273.293,217.41" style="fill:none;stroke:black;stroke-width:1.42px;"/>
        <path id="LINE_210_" d="M265.717,217.691L270.111,215.198" style="fill:none;stroke:black;stroke-width:1.42px;"/>
        <path id="LWPOLYLINE_182_" d="M270.111,215.198L269.115,214.239L268.404,212.981L268.21,212.385" style="fill:none;stroke:black;stroke-width:1.42px;"/>
        <path id="LWPOLYLINE_183_" d="M132.431,262.546L129.61,262.345L127.415,261.721" style="fill:none;stroke:black;stroke-width:1.42px;"/>
        <path id="LWPOLYLINE_184_" d="M126.892,224.728L127.223,226.333L127.581,227.884L127.967,229.38L128.382,230.817L128.826,232.196L129.871,234.933L130.979,237.209L132.129,239.019" style="fill:none;stroke:black;stroke-width:1.42px;"/>
        <path id="LINE_211_" d="M132.431,262.546L132.129,239.019" style="fill:none;stroke:black;stroke-width:1.42px;"/>
        <path id="LWPOLYLINE_185_" d="M134.617,237.995L134.501,237.94L133.887,237.955L133.06,238.335L132.129,239.019" style="fill:none;stroke:black;stroke-width:1.42px;"/>
        <path id="LWPOLYLINE_186_" d="M296.546,286.304L297.238,285.546L297.506,284.634" style="fill:none;stroke:black;stroke-width:1.42px;"/>
        <path id="LWPOLYLINE_187_" d="M271.379,215.044L270.753,214.945L270.111,215.198" style="fill:none;stroke:black;stroke-width:1.42px;"/>
        <path id="LWPOLYLINE_188_" d="M303.728,280.839L303.364,281.914L302.765,282.509" style="fill:none;stroke:black;stroke-width:1.42px;"/>
        <path id="LWPOLYLINE_189_" d="M138.471,242.15L138.355,242.452" style="fill:none;stroke:black;stroke-width:1.42px;"/>
        <path id="LWPOLYLINE_190_" d="M132.129,239.019L133.668,240.242L135.368,241.271L138.355,242.452" style="fill:none;stroke:black;stroke-width:1.42px;"/>
        <path id="LINE_212_" d="M124.533,224.802L110.683,232.184" style="fill:none;stroke:black;stroke-width:1.42px;"/>
        <path id="LINE_213_" d="M122.289,216.103L122.628,216.24" style="fill:none;stroke:black;stroke-width:1.42px;"/>
        <path id="LINE_214_" d="M139.216,262.372L132.431,262.546" style="fill:none;stroke:black;stroke-width:1.42px;"/>
        <path id="LINE_215_" d="M138.355,242.452L138.997,242.628" style="fill:none;stroke:black;stroke-width:1.42px;"/>
        <path id="LINE_216_" d="M138.997,242.628L139.216,262.372" style="fill:none;stroke:black;stroke-width:1.42px;"/>
        <path id="LWPOLYLINE_191_" d="M144.091,261.298L141.728,262.089L139.216,262.372" style="fill:none;stroke:black;stroke-width:1.42px;"/>
        <path id="LINE_217_" d="M144.091,261.298L143.95,246.667" style="fill:none;stroke:black;stroke-width:1.42px;"/>
        <path id="LINE_218_" d="M134.75,191.577L134.829,193.858" style="fill:none;stroke:black;stroke-width:1.42px;"/>
        <path id="LINE_219_" d="M134.829,193.858L134.838,194" style="fill:none;stroke:black;stroke-width:1.42px;"/>
        <path id="LWPOLYLINE_192_" d="M120.477,205.868L119.314,201.201L118.411,196.542L117.771,191.924L117.402,187.366L117.312,184.722" style="fill:none;stroke:black;stroke-width:1.42px;"/>
        <path id="LINE_220_" d="M150.693,257.993L144.091,261.298" style="fill:none;stroke:black;stroke-width:1.42px;"/>
        <path id="LINE_221_" d="M150.633,250.506L150.693,257.993" style="fill:none;stroke:black;stroke-width:1.42px;"/>
        <path id="LWPOLYLINE_193_" d="M340.865,219.787L339.917,220.473L338.904,221.437L337.987,222.521L337.35,223.485" style="fill:none;stroke:black;stroke-width:1.42px;"/>
        <path id="LINE_222_" d="M340.865,219.787L331.286,211.003" style="fill:none;stroke:black;stroke-width:1.42px;"/>
        <path id="LWPOLYLINE_194_" d="M160.555,257.745L158.076,257.081L155.249,256.934L152.515,257.332L150.693,257.993" style="fill:none;stroke:black;stroke-width:1.42px;"/>
        <path id="LINE_223_" d="M337.828,260.021L342.381,223.569" style="fill:none;stroke:black;stroke-width:1.42px;"/>
        <path id="LWPOLYLINE_195_" d="M337.828,260.021L336.769,260.418L335.432,260.538L334.022,260.354L332.852,259.941" style="fill:none;stroke:black;stroke-width:1.42px;"/>
        <path id="LWPOLYLINE_196_" d="M342.381,223.569L341.312,223.959L339.96,224.071L338.539,223.893L337.35,223.485" style="fill:none;stroke:black;stroke-width:1.42px;"/>
        <path id="LINE_224_" d="M331.286,211.003L336.903,207.732" style="fill:none;stroke:black;stroke-width:1.42px;"/>
        <path id="LINE_225_" d="M336.903,207.732L346.464,216.483" style="fill:none;stroke:black;stroke-width:1.42px;"/>
        <path id="LINE_226_" d="M346.464,216.483L340.865,219.787" style="fill:none;stroke:black;stroke-width:1.42px;"/>
        <path id="LWPOLYLINE_197_" d="M342.381,223.569L342.304,222.262L341.785,220.944L340.907,219.826L340.865,219.787" style="fill:none;stroke:black;stroke-width:1.42px;"/>
        <path id="LINE_227_" d="M342.381,223.569L347.973,220.256" style="fill:none;stroke:black;stroke-width:1.42px;"/>
        <path id="LINE_228_" d="M347.973,220.256L343.373,256.636" style="fill:none;stroke:black;stroke-width:1.42px;"/>
        <path id="LINE_229_" d="M343.373,256.636L337.828,260.021" style="fill:none;stroke:black;stroke-width:1.42px;"/>
        <path id="LWPOLYLINE_198_" d="M346.464,216.483L347.352,217.584L347.884,218.895L347.978,220.204L347.973,220.256" style="fill:none;stroke:black;stroke-width:1.42px;"/>
        <path id="LWPOLYLINE_199_" d="M139.179,264.236L139.21,263.953L139.22,263.143L139.216,262.372" style="fill:none;stroke:black;stroke-width:1.42px;"/>
        <path id="LWPOLYLINE_200_" d="M132.404,264.411L132.43,264.125L132.437,263.317L132.431,262.546" style="fill:none;stroke:black;stroke-width:1.42px;"/>
        <path id="LWPOLYLINE_201_" d="M128.417,263.719L127.768,263.138L127.441,262.128L127.415,261.721" style="fill:none;stroke:black;stroke-width:1.42px;"/>
        <path id="LWPOLYLINE_202_" d="M211.897,202.915L213.637,202.145L215.143,201.106L216.43,199.753L217.402,198.178L218.13,196.157L218.463,193.908L218.481,192.481" style="fill:none;stroke:black;stroke-width:1.42px;"/>
        <path id="LWPOLYLINE_203_" d="M347.543,216.252L347.074,216.208L346.464,216.483" style="fill:none;stroke:black;stroke-width:1.42px;"/>
        <path id="LWPOLYLINE_204_" d="M143.132,263.317L143.784,262.673L144.08,261.622L144.091,261.298" style="fill:none;stroke:black;stroke-width:1.42px;"/>
        <path id="LWPOLYLINE_205_" d="M344.074,255.707L343.706,256.387L343.373,256.636" style="fill:none;stroke:black;stroke-width:1.42px;"/>
        <path id="LWPOLYLINE_206_" d="M348.679,219.342L348.309,220.01L347.973,220.256" style="fill:none;stroke:black;stroke-width:1.42px;"/>
        <path id="LWPOLYLINE_207_" d="M149.729,260.014L150.383,259.37L150.68,258.321L150.693,257.993" style="fill:none;stroke:black;stroke-width:1.42px;"/>
        <path id="LINE_230_" d="M308.606,190.21L300.57,182.842" style="fill:none;stroke:black;stroke-width:1.42px;"/>
        <path id="LWPOLYLINE_208_" d="M120.911,210.466L121.173,210.608L121.223,210.615" style="fill:none;stroke:black;stroke-width:1.42px;"/>
        <path id="LWPOLYLINE_209_" d="M122.289,216.103L122.542,215.927" style="fill:none;stroke:black;stroke-width:1.42px;"/>
        <path id="LINE_231_" d="M308.186,194.758L317.735,189.339" style="fill:none;stroke:black;stroke-width:1.42px;"/>
        <path id="LINE_232_" d="M307.502,221.814L317.434,216.043" style="fill:none;stroke:black;stroke-width:1.42px;"/>
        <path id="LINE_233_" d="M306.24,179.674L314.263,187.013" style="fill:none;stroke:black;stroke-width:1.42px;"/>
        <path id="LINE_234_" d="M314.263,187.013L308.606,190.21" style="fill:none;stroke:black;stroke-width:1.42px;"/>
        <path id="LWPOLYLINE_210_" d="M332.852,259.941L332.971,261.058L333.414,261.789L333.692,261.955" style="fill:none;stroke:black;stroke-width:1.42px;"/>
        <path id="LINE_235_" d="M287.107,205.065L275.296,200.134" style="fill:none;stroke:black;stroke-width:1.42px;"/>
        <path id="LWPOLYLINE_211_" d="M336.853,261.676L337.551,260.92L337.828,260.021" style="fill:none;stroke:black;stroke-width:1.42px;"/>
        <path id="LWPOLYLINE_212_" d="M343.373,256.636L343,257.7L342.398,258.291" style="fill:none;stroke:black;stroke-width:1.42px;"/>
        <path id="LWPOLYLINE_213_" d="M171.011,160.652L171.051,162.909" style="fill:none;stroke:black;stroke-width:1.42px;"/>
        <path id="LWPOLYLINE_214_" d="M171.051,162.909L171.057,163.068" style="fill:none;stroke:black;stroke-width:1.42px;"/>
        <path id="LINE_236_" d="M187.823,162.783L187.798,165.695" style="fill:none;stroke:black;stroke-width:1.42px;"/>
        <path id="LWPOLYLINE_215_" d="M215.334,191.055L215.625,192.772L215.72,194.42L215.55,196.383L215.019,198.195L214.263,199.555L213.189,200.753L211.942,201.638L211.206,202.005" style="fill:none;stroke:black;stroke-width:1.42px;"/>
        <g transform="matrix(0.00753829,-0.999972,0.999972,0.00753829,114.54,469.511)">
            <path d="M111.99,202.962L111.99,219.575L86.431,194.016L111.99,168.457L111.99,185.07L163.108,185.07L163.108,202.962L111.99,202.962Z" style="fill:rgb(235,235,235);stroke:black;stroke-width:1.91px;stroke-miterlimit:1.5;"/>
        </g>
        <g transform="matrix(-0.0099928,-0.99995,0.99995,-0.0099928,-127.241,274.247)">
            <path d="M111.99,202.962L111.99,219.575L86.431,194.016L111.99,168.457L111.99,185.07L163.108,185.07L163.108,202.962L111.99,202.962Z" style="fill:rgb(235,235,235);stroke:black;stroke-width:1.91px;stroke-miterlimit:1.5;"/>
        </g>
        <g transform="matrix(1,0,0,1,93.8778,86.7778)">
            <text x="244.468px" y="101.767px" style="font-family:'ArialMT', 'Arial', sans-serif;font-size:40.749px;">A</text>
        </g>
        <g transform="matrix(1,0,0,1,-109.656,-45.7555)">
            <text x="244.468px" y="101.767px" style="font-family:'ArialMT', 'Arial', sans-serif;font-size:40.749px;">T3</text>
        </g>
        <g transform="matrix(1,0,0,1,-10.2555,14.2)">
            <text x="53.557px" y="490.689px" style="font-family:'ArialMT', 'Arial', sans-serif;font-size:28.634px;">Sidewinder Mount</text>
        </g>
    </g>
</svg>
