<?xml version="1.0" encoding="utf-8"?>
<!-- Generator: Adobe Illustrator 15.1.0, SVG Export Plug-In . SVG Version: 6.00 Build 0)  -->
<!DOCTYPE svg PUBLIC "-//W3C//DTD SVG 1.1//EN" "http://www.w3.org/Graphics/SVG/1.1/DTD/svg11.dtd">
<svg version="1.1" id="Layer_1" xmlns="http://www.w3.org/2000/svg" xmlns:xlink="http://www.w3.org/1999/xlink" x="0px" y="0px"
	 width="198.43px" height="141.73px" viewBox="0 0 198.43 141.73" enable-background="new 0 0 198.43 141.73" xml:space="preserve">
<g>
	<g id="INSERT_27_">
		<g id="LINE_10972_">
			
				<line fill="none" stroke="#12100B" stroke-width="0.5669" stroke-linecap="round" stroke-linejoin="round" stroke-miterlimit="10" x1="89.889" y1="63.166" x2="89.914" y2="63.202"/>
		</g>
		<g id="LWPOLYLINE_11153_">
			
				<polyline fill="none" stroke="#12100B" stroke-width="0.5669" stroke-linecap="round" stroke-linejoin="round" stroke-miterlimit="10" points="
				96.166,63.285 95.922,63.176 95.228,63.074 94.194,62.996 92.984,62.955 91.779,62.954 90.766,62.996 90.1,63.073 89.889,63.166 
							"/>
		</g>
		<g id="LWPOLYLINE_11152_">
			
				<polyline fill="none" stroke="#12100B" stroke-width="0.5669" stroke-linecap="round" stroke-linejoin="round" stroke-miterlimit="10" points="
				89.914,63.202 90.32,63.313 91.162,63.408 92.307,63.477 93.57,63.503 94.744,63.484 95.639,63.426 96.112,63.334 96.166,63.285 
							"/>
		</g>
		<g id="LINE_10971_">
			
				<line fill="none" stroke="#12100B" stroke-width="0.5669" stroke-linecap="round" stroke-linejoin="round" stroke-miterlimit="10" x1="91.473" y1="63.213" x2="91.458" y2="63.193"/>
		</g>
		<g id="LWPOLYLINE_11151_">
			
				<polyline fill="none" stroke="#12100B" stroke-width="0.5669" stroke-linecap="round" stroke-linejoin="round" stroke-miterlimit="10" points="
				94.597,63.253 94.472,63.303 94.116,63.342 93.588,63.36 92.968,63.357 92.358,63.333 91.855,63.291 91.541,63.238 
				91.473,63.213 			"/>
		</g>
		<g id="LWPOLYLINE_11150_">
			
				<polyline fill="none" stroke="#12100B" stroke-width="0.5669" stroke-linecap="round" stroke-linejoin="round" stroke-miterlimit="10" points="
				91.458,63.193 91.582,63.143 91.934,63.105 92.455,63.086 93.064,63.088 93.669,63.111 94.174,63.152 94.5,63.204 94.597,63.253 
							"/>
		</g>
		<g id="LINE_10970_">
			
				<line fill="none" stroke="#12100B" stroke-width="0.5669" stroke-linecap="round" stroke-linejoin="round" stroke-miterlimit="10" x1="109.727" y1="62.026" x2="109.793" y2="62.078"/>
		</g>
		<g id="LWPOLYLINE_11149_">
			
				<polyline fill="none" stroke="#12100B" stroke-width="0.5669" stroke-linecap="round" stroke-linejoin="round" stroke-miterlimit="10" points="
				115.557,62.176 115.33,62.08 114.685,61.988 113.725,61.914 112.599,61.869 111.48,61.859 110.539,61.887 109.922,61.948 
				109.727,62.026 			"/>
		</g>
		<g id="LWPOLYLINE_11148_">
			
				<polyline fill="none" stroke="#12100B" stroke-width="0.5669" stroke-linecap="round" stroke-linejoin="round" stroke-miterlimit="10" points="
				109.793,62.078 110.262,62.174 111.112,62.259 112.213,62.318 113.384,62.344 114.434,62.329 115.192,62.277 115.541,62.199 
				115.557,62.176 			"/>
		</g>
		<g id="LINE_10969_">
			
				<line fill="none" stroke="#12100B" stroke-width="0.5669" stroke-linecap="round" stroke-linejoin="round" stroke-miterlimit="10" x1="111.218" y1="62.088" x2="111.183" y2="62.062"/>
		</g>
		<g id="LWPOLYLINE_11147_">
			
				<polyline fill="none" stroke="#12100B" stroke-width="0.5669" stroke-linecap="round" stroke-linejoin="round" stroke-miterlimit="10" points="
				114.097,62.137 113.98,62.178 113.649,62.208 113.158,62.221 112.583,62.213 112.018,62.188 111.552,62.148 111.26,62.101 
				111.218,62.088 			"/>
		</g>
		<g id="LWPOLYLINE_11146_">
			
				<polyline fill="none" stroke="#12100B" stroke-width="0.5669" stroke-linecap="round" stroke-linejoin="round" stroke-miterlimit="10" points="
				111.183,62.062 111.299,62.02 111.625,61.99 112.109,61.978 112.676,61.984 113.237,62.008 113.706,62.047 114.008,62.094 
				114.097,62.137 			"/>
		</g>
		<g id="LINE_10968_">
			
				<line fill="none" stroke="#12100B" stroke-width="0.2835" stroke-linecap="round" stroke-linejoin="round" stroke-miterlimit="10" x1="79.42" y1="106.396" x2="79.389" y2="110.04"/>
		</g>
		<g id="LINE_10967_">
			
				<line fill="none" stroke="#12100B" stroke-width="0.2835" stroke-linecap="round" stroke-linejoin="round" stroke-miterlimit="10" x1="79.42" y1="106.396" x2="73.972" y2="104.505"/>
		</g>
		<g id="LINE_10966_">
			
				<line fill="none" stroke="#12100B" stroke-width="0.2835" stroke-linecap="round" stroke-linejoin="round" stroke-miterlimit="10" x1="73.98" y1="102.366" x2="73.972" y2="104.505"/>
		</g>
		<g id="LINE_10965_">
			
				<line fill="none" stroke="#12100B" stroke-width="0.2835" stroke-linecap="round" stroke-linejoin="round" stroke-miterlimit="10" x1="79.438" y1="104.2" x2="73.98" y2="102.366"/>
		</g>
		<g id="LINE_10964_">
			
				<line fill="none" stroke="#12100B" stroke-width="0.2835" stroke-linecap="round" stroke-linejoin="round" stroke-miterlimit="10" x1="79.469" y1="100.522" x2="79.438" y2="104.2"/>
		</g>
		<g id="LINE_10963_">
			
				<line fill="none" stroke="#12100B" stroke-width="0.2835" stroke-linecap="round" stroke-linejoin="round" stroke-miterlimit="10" x1="79.469" y1="100.522" x2="73.994" y2="98.787"/>
		</g>
		<g id="LINE_10962_">
			
				<line fill="none" stroke="#12100B" stroke-width="0.2835" stroke-linecap="round" stroke-linejoin="round" stroke-miterlimit="10" x1="74.002" y1="96.63" x2="73.994" y2="98.787"/>
		</g>
		<g id="LINE_10961_">
			
				<line fill="none" stroke="#12100B" stroke-width="0.2835" stroke-linecap="round" stroke-linejoin="round" stroke-miterlimit="10" x1="79.486" y1="98.305" x2="74.002" y2="96.63"/>
		</g>
		<g id="LINE_10960_">
			
				<line fill="none" stroke="#12100B" stroke-width="0.2835" stroke-linecap="round" stroke-linejoin="round" stroke-miterlimit="10" x1="79.518" y1="94.592" x2="79.486" y2="98.305"/>
		</g>
		<g id="LINE_10959_">
			
				<line fill="none" stroke="#12100B" stroke-width="0.2835" stroke-linecap="round" stroke-linejoin="round" stroke-miterlimit="10" x1="79.518" y1="94.592" x2="74.017" y2="93.017"/>
		</g>
		<g id="LINE_10958_">
			
				<line fill="none" stroke="#12100B" stroke-width="0.2835" stroke-linecap="round" stroke-linejoin="round" stroke-miterlimit="10" x1="74.025" y1="90.84" x2="74.017" y2="93.017"/>
		</g>
		<g id="LINE_10957_">
			
				<line fill="none" stroke="#12100B" stroke-width="0.2835" stroke-linecap="round" stroke-linejoin="round" stroke-miterlimit="10" x1="79.536" y1="92.354" x2="74.025" y2="90.84"/>
		</g>
		<g id="LINE_10956_">
			
				<line fill="none" stroke="#12100B" stroke-width="0.2835" stroke-linecap="round" stroke-linejoin="round" stroke-miterlimit="10" x1="79.566" y1="88.605" x2="79.536" y2="92.354"/>
		</g>
		<g id="LINE_10955_">
			
				<line fill="none" stroke="#12100B" stroke-width="0.2835" stroke-linecap="round" stroke-linejoin="round" stroke-miterlimit="10" x1="79.566" y1="88.605" x2="74.039" y2="87.193"/>
		</g>
		<g id="LINE_10954_">
			
				<line fill="none" stroke="#12100B" stroke-width="0.2835" stroke-linecap="round" stroke-linejoin="round" stroke-miterlimit="10" x1="74.048" y1="84.996" x2="74.039" y2="87.193"/>
		</g>
		<g id="LINE_10953_">
			
				<line fill="none" stroke="#12100B" stroke-width="0.2835" stroke-linecap="round" stroke-linejoin="round" stroke-miterlimit="10" x1="79.586" y1="86.346" x2="74.048" y2="84.996"/>
		</g>
		<g id="LINE_10952_">
			
				<line fill="none" stroke="#12100B" stroke-width="0.2835" stroke-linecap="round" stroke-linejoin="round" stroke-miterlimit="10" x1="79.617" y1="82.561" x2="79.586" y2="86.346"/>
		</g>
		<g id="LINE_10951_">
			
				<line fill="none" stroke="#12100B" stroke-width="0.2835" stroke-linecap="round" stroke-linejoin="round" stroke-miterlimit="10" x1="79.617" y1="82.561" x2="74.063" y2="81.315"/>
		</g>
		<g id="LINE_10950_">
			
				<line fill="none" stroke="#12100B" stroke-width="0.2835" stroke-linecap="round" stroke-linejoin="round" stroke-miterlimit="10" x1="74.071" y1="79.098" x2="74.063" y2="81.315"/>
		</g>
		<g id="LINE_10949_">
			
				<line fill="none" stroke="#12100B" stroke-width="0.2835" stroke-linecap="round" stroke-linejoin="round" stroke-miterlimit="10" x1="79.637" y1="80.279" x2="74.071" y2="79.098"/>
		</g>
		<g id="LINE_10948_">
			
				<line fill="none" stroke="#12100B" stroke-width="0.2835" stroke-linecap="round" stroke-linejoin="round" stroke-miterlimit="10" x1="79.668" y1="76.459" x2="79.637" y2="80.279"/>
		</g>
		<g id="LINE_10947_">
			
				<line fill="none" stroke="#12100B" stroke-width="0.2835" stroke-linecap="round" stroke-linejoin="round" stroke-miterlimit="10" x1="79.668" y1="76.459" x2="74.086" y2="75.383"/>
		</g>
		<g id="LINE_10946_">
			
				<line fill="none" stroke="#12100B" stroke-width="0.2835" stroke-linecap="round" stroke-linejoin="round" stroke-miterlimit="10" x1="74.094" y1="73.144" x2="74.086" y2="75.383"/>
		</g>
		<g id="LINE_10945_">
			
				<line fill="none" stroke="#12100B" stroke-width="0.2835" stroke-linecap="round" stroke-linejoin="round" stroke-miterlimit="10" x1="79.688" y1="74.154" x2="74.094" y2="73.144"/>
		</g>
		<g id="LINE_10944_">
			
				<line fill="none" stroke="#12100B" stroke-width="0.2835" stroke-linecap="round" stroke-linejoin="round" stroke-miterlimit="10" x1="79.719" y1="70.297" x2="79.688" y2="74.154"/>
		</g>
		<g id="LINE_10943_">
			
				<line fill="none" stroke="#12100B" stroke-width="0.2835" stroke-linecap="round" stroke-linejoin="round" stroke-miterlimit="10" x1="79.719" y1="70.297" x2="74.109" y2="69.395"/>
		</g>
		<g id="LINE_10942_">
			
				<line fill="none" stroke="#12100B" stroke-width="0.2835" stroke-linecap="round" stroke-linejoin="round" stroke-miterlimit="10" x1="74.119" y1="66.756" x2="74.109" y2="69.395"/>
		</g>
		<g id="LINE_10941_">
			
				<line fill="none" stroke="#12100B" stroke-width="0.2835" stroke-linecap="round" stroke-linejoin="round" stroke-miterlimit="10" x1="74.119" y1="66.756" x2="92.056" y2="69.393"/>
		</g>
		<g id="LINE_10940_">
			
				<line fill="none" stroke="#12100B" stroke-width="0.2835" stroke-linecap="round" stroke-linejoin="round" stroke-miterlimit="10" x1="92.056" y1="69.393" x2="91.201" y2="117.066"/>
		</g>
		<g id="LINE_10939_">
			
				<line fill="none" stroke="#12100B" stroke-width="0.2835" stroke-linecap="round" stroke-linejoin="round" stroke-miterlimit="10" x1="73.948" y1="110.522" x2="91.201" y2="117.066"/>
		</g>
		<g id="LINE_10938_">
			
				<line fill="none" stroke="#12100B" stroke-width="0.2835" stroke-linecap="round" stroke-linejoin="round" stroke-miterlimit="10" x1="73.957" y1="108.052" x2="73.948" y2="110.522"/>
		</g>
		<g id="LINE_10937_">
			
				<line fill="none" stroke="#12100B" stroke-width="0.2835" stroke-linecap="round" stroke-linejoin="round" stroke-miterlimit="10" x1="79.389" y1="110.04" x2="73.957" y2="108.052"/>
		</g>
		<g id="LWPOLYLINE_11145_">
			
				<polyline fill="none" stroke="#12100B" stroke-width="0.2835" stroke-linecap="round" stroke-linejoin="round" stroke-miterlimit="10" points="
				115.473,66.225 116.472,66.389 116.854,66.563 116.856,66.575 			"/>
		</g>
		<g id="LWPOLYLINE_11144_">
			
				<polyline fill="none" stroke="#12100B" stroke-width="0.2835" stroke-linecap="round" stroke-linejoin="round" stroke-miterlimit="10" points="
				107.885,67.439 108.388,67.529 108.559,67.624 			"/>
		</g>
		<g id="LWPOLYLINE_11143_">
			
				<polyline fill="none" stroke="#12100B" stroke-width="0.2835" stroke-linecap="round" stroke-linejoin="round" stroke-miterlimit="10" points="
				104.437,65.287 104.885,65.363 105.029,65.439 			"/>
		</g>
		<g id="LINE_10936_">
			
				<line fill="none" stroke="#12100B" stroke-width="0.2835" stroke-linecap="round" stroke-linejoin="round" stroke-miterlimit="10" x1="106.439" y1="64.623" x2="96.124" y2="65.305"/>
		</g>
		<g id="LINE_10935_">
			
				<line fill="none" stroke="#12100B" stroke-width="0.2835" stroke-linecap="round" stroke-linejoin="round" stroke-miterlimit="10" x1="89.847" y1="65.719" x2="74.119" y2="66.756"/>
		</g>
		<g id="LINE_10934_">
			
				<line fill="none" stroke="#12100B" stroke-width="0.2835" stroke-linecap="round" stroke-linejoin="round" stroke-miterlimit="10" x1="124.851" y1="66.756" x2="115.431" y2="65.665"/>
		</g>
		<g id="LINE_10933_">
			
				<line fill="none" stroke="#12100B" stroke-width="0.2835" stroke-linecap="round" stroke-linejoin="round" stroke-miterlimit="10" x1="109.634" y1="64.994" x2="106.439" y2="64.623"/>
		</g>
		<g id="LINE_10932_">
			
				<line fill="none" stroke="#12100B" stroke-width="0.2835" stroke-linecap="round" stroke-linejoin="round" stroke-miterlimit="10" x1="92.056" y1="69.393" x2="124.851" y2="66.756"/>
		</g>
		<g id="LWPOLYLINE_11142_">
			
				<polyline fill="none" stroke="#12100B" stroke-width="0.2835" stroke-linecap="round" stroke-linejoin="round" stroke-miterlimit="10" points="
				86.336,66.52 86.757,66.605 86.854,66.674 			"/>
		</g>
		<g id="LWPOLYLINE_11141_">
			
				<polyline fill="none" stroke="#12100B" stroke-width="0.2835" stroke-linecap="round" stroke-linejoin="round" stroke-miterlimit="10" points="
				96.413,67.656 97.36,67.842 97.631,68.016 			"/>
		</g>
		<g id="LINE_10931_">
			
				<line fill="none" stroke="#12100B" stroke-width="0.2835" stroke-linecap="round" stroke-linejoin="round" stroke-miterlimit="10" x1="124.851" y1="66.756" x2="123.022" y2="108.813"/>
		</g>
		<g id="LINE_10930_">
			
				<line fill="none" stroke="#12100B" stroke-width="0.2835" stroke-linecap="round" stroke-linejoin="round" stroke-miterlimit="10" x1="91.201" y1="117.066" x2="123.022" y2="108.813"/>
		</g>
		<g id="LWPOLYLINE_11140_">
			
				<polyline fill="none" stroke="#12100B" stroke-width="0.2835" stroke-linecap="round" stroke-linejoin="round" stroke-miterlimit="10" points="
				110.173,97.812 110.021,98.69 109.642,99.482 109.096,100.064 108.467,100.344 107.988,100.322 			"/>
		</g>
		<g id="LWPOLYLINE_11139_">
			
				<polyline fill="none" stroke="#12100B" stroke-width="0.2835" stroke-linecap="round" stroke-linejoin="round" stroke-miterlimit="10" points="
				105.777,83.703 105.62,84.613 105.227,85.418 104.654,85.992 103.994,86.246 103.611,86.227 			"/>
		</g>
		<g id="LWPOLYLINE_11138_">
			
				<polyline fill="none" stroke="#12100B" stroke-width="0.2835" stroke-linecap="round" stroke-linejoin="round" stroke-miterlimit="10" points="
				115.354,82.346 115.201,83.221 114.83,83.994 114.297,84.545 113.686,84.785 113.362,84.771 			"/>
		</g>
		<g id="LWPOLYLINE_11137_">
			
				<polyline fill="none" stroke="#12100B" stroke-width="0.2835" stroke-linecap="round" stroke-linejoin="round" stroke-miterlimit="10" points="
				100.052,110.337 99.896,111.241 99.497,112.069 98.915,112.692 98.241,113.012 97.584,112.977 			"/>
		</g>
		<g id="LWPOLYLINE_11136_">
			
				<polyline fill="none" stroke="#12100B" stroke-width="0.2835" stroke-linecap="round" stroke-linejoin="round" stroke-miterlimit="10" points="
				100.353,98.275 100.195,99.19 99.793,100.016 99.206,100.623 98.526,100.915 97.975,100.885 			"/>
		</g>
		<g id="LWPOLYLINE_11135_">
			
				<polyline fill="none" stroke="#12100B" stroke-width="0.2835" stroke-linecap="round" stroke-linejoin="round" stroke-miterlimit="10" points="
				118.91,105.771 118.763,106.61 118.408,107.373 117.901,107.942 117.32,108.228 116.84,108.211 			"/>
		</g>
		<g id="LWPOLYLINE_11134_">
			
				<polyline fill="none" stroke="#12100B" stroke-width="0.2835" stroke-linecap="round" stroke-linejoin="round" stroke-miterlimit="10" points="
				119.358,94.561 119.21,95.409 118.853,96.17 118.342,96.726 117.757,96.987 117.358,96.973 			"/>
		</g>
		<g id="LWPOLYLINE_11133_">
			
				<polyline fill="none" stroke="#12100B" stroke-width="0.2835" stroke-linecap="round" stroke-linejoin="round" stroke-miterlimit="10" points="
				88.248,67.838 88.28,67.781 88.375,67.727 88.532,67.674 88.747,67.625 89.018,67.58 89.339,67.54 89.708,67.505 89.818,67.496 
							"/>
		</g>
		<g id="LINE_10929_">
			
				<line fill="none" stroke="#12100B" stroke-width="0.2835" stroke-linecap="round" stroke-linejoin="round" stroke-miterlimit="10" x1="96.075" y1="67.614" x2="96.413" y2="67.656"/>
		</g>
		<g id="LWPOLYLINE_11132_">
			
				<polyline fill="none" stroke="#12100B" stroke-width="0.2835" stroke-linecap="round" stroke-linejoin="round" stroke-miterlimit="10" points="
				97.631,68.016 97.593,68.078 97.479,68.138 97.291,68.194 97.032,68.247 96.706,68.295 96.317,68.336 95.873,68.371 
				95.379,68.398 94.844,68.418 94.276,68.43 93.688,68.434 93.085,68.428 92.48,68.414 91.883,68.393 91.304,68.363 90.752,68.327 
				90.238,68.284 89.769,68.235 89.352,68.182 88.995,68.123 88.703,68.063 88.481,67.999 88.332,67.936 88.257,67.871 
				88.248,67.838 			"/>
		</g>
		<g id="LWPOLYLINE_11131_">
			
				<polyline fill="none" stroke="#12100B" stroke-width="0.2835" stroke-linecap="round" stroke-linejoin="round" stroke-miterlimit="10" points="
				99.239,96.327 99.82,96.676 100.212,97.326 100.354,98.177 100.353,98.275 			"/>
		</g>
		<g id="LWPOLYLINE_11130_">
			
				<polyline fill="none" stroke="#12100B" stroke-width="0.2835" stroke-linecap="round" stroke-linejoin="round" stroke-miterlimit="10" points="
				97.975,100.885 97.397,100.521 97.014,99.854 96.886,98.986 97.034,98.058 97.437,97.218 98.027,96.601 98.711,96.305 
				99.239,96.327 			"/>
		</g>
		<g id="LWPOLYLINE_11129_">
			
				<polyline fill="none" stroke="#12100B" stroke-width="0.2835" stroke-linecap="round" stroke-linejoin="round" stroke-miterlimit="10" points="
				96.917,99.354 97.063,99.041 97.183,98.685 97.27,98.301 97.328,97.89 97.354,97.519 97.357,97.362 			"/>
		</g>
		<g id="LWPOLYLINE_11128_">
			
				<polyline fill="none" stroke="#12100B" stroke-width="0.2835" stroke-linecap="round" stroke-linejoin="round" stroke-miterlimit="10" points="
				104.557,81.642 105.149,81.945 105.576,82.561 105.771,83.389 105.777,83.703 			"/>
		</g>
		<g id="LWPOLYLINE_11127_">
			
				<polyline fill="none" stroke="#12100B" stroke-width="0.2835" stroke-linecap="round" stroke-linejoin="round" stroke-miterlimit="10" points="
				103.611,86.227 103.021,85.91 102.601,85.278 102.418,84.432 102.503,83.506 102.843,82.648 103.383,81.997 104.035,81.656 
				104.557,81.642 			"/>
		</g>
		<g id="LWPOLYLINE_11126_">
			
				<polyline fill="none" stroke="#12100B" stroke-width="0.2835" stroke-linecap="round" stroke-linejoin="round" stroke-miterlimit="10" points="
				99.061,108.514 99.608,108.886 99.956,109.55 100.052,110.337 			"/>
		</g>
		<g id="LWPOLYLINE_11125_">
			
				<polyline fill="none" stroke="#12100B" stroke-width="0.2835" stroke-linecap="round" stroke-linejoin="round" stroke-miterlimit="10" points="
				97.584,112.977 97.039,112.589 96.699,111.908 96.62,111.041 96.814,110.127 97.252,109.313 97.861,108.728 98.544,108.466 
				99.061,108.514 			"/>
		</g>
		<g id="LWPOLYLINE_11124_">
			
				<polyline fill="none" stroke="#12100B" stroke-width="0.2835" stroke-linecap="round" stroke-linejoin="round" stroke-miterlimit="10" points="
				96.624,111.311 96.65,111.264 96.799,110.938 96.915,110.581 97.003,110.188 97.06,109.786 97.076,109.598 			"/>
		</g>
		<g id="LINE_10928_">
			
				<line fill="none" stroke="#12100B" stroke-width="0.2835" stroke-linecap="round" stroke-linejoin="round" stroke-miterlimit="10" x1="74.094" y1="73.144" x2="79.699" y2="72.646"/>
		</g>
		<g id="LWPOLYLINE_11123_">
			
				<polyline fill="none" stroke="#12100B" stroke-width="0.2835" stroke-linecap="round" stroke-linejoin="round" stroke-miterlimit="10" points="
				103.976,67.51 104.158,67.423 104.67,67.357 105.429,67.326 106.316,67.332 107.196,67.373 107.885,67.439 			"/>
		</g>
		<g id="LWPOLYLINE_11122_">
			
				<polyline fill="none" stroke="#12100B" stroke-width="0.2835" stroke-linecap="round" stroke-linejoin="round" stroke-miterlimit="10" points="
				108.559,67.624 108.374,67.712 107.853,67.777 107.076,67.809 106.168,67.802 105.276,67.757 104.546,67.682 104.091,67.588 
				103.976,67.51 			"/>
		</g>
		<g id="LINE_10927_">
			
				<line fill="none" stroke="#12100B" stroke-width="0.2835" stroke-linecap="round" stroke-linejoin="round" stroke-miterlimit="10" x1="74.071" y1="79.098" x2="79.651" y2="78.486"/>
		</g>
		<g id="LINE_10926_">
			
				<line fill="none" stroke="#12100B" stroke-width="0.2835" stroke-linecap="round" stroke-linejoin="round" stroke-miterlimit="10" x1="74.048" y1="84.996" x2="79.604" y2="84.271"/>
		</g>
		<g id="LINE_10925_">
			
				<line fill="none" stroke="#12100B" stroke-width="0.2835" stroke-linecap="round" stroke-linejoin="round" stroke-miterlimit="10" x1="74.025" y1="90.84" x2="79.556" y2="90.004"/>
		</g>
		<g id="LWPOLYLINE_11121_">
			
				<polyline fill="none" stroke="#12100B" stroke-width="0.2835" stroke-linecap="round" stroke-linejoin="round" stroke-miterlimit="10" points="
				109.137,95.932 109.676,96.252 110.04,96.867 110.174,97.679 110.173,97.812 			"/>
		</g>
		<g id="LWPOLYLINE_11120_">
			
				<polyline fill="none" stroke="#12100B" stroke-width="0.2835" stroke-linecap="round" stroke-linejoin="round" stroke-miterlimit="10" points="
				107.988,100.322 107.452,99.988 107.094,99.358 106.971,98.531 107.104,97.639 107.471,96.825 108.014,96.221 108.645,95.921 
				109.137,95.932 			"/>
		</g>
		<g id="LINE_10924_">
			
				<line fill="none" stroke="#12100B" stroke-width="0.2835" stroke-linecap="round" stroke-linejoin="round" stroke-miterlimit="10" x1="74.002" y1="96.63" x2="79.508" y2="95.686"/>
		</g>
		<g id="LINE_10923_">
			
				<line fill="none" stroke="#12100B" stroke-width="0.2835" stroke-linecap="round" stroke-linejoin="round" stroke-miterlimit="10" x1="73.98" y1="102.366" x2="79.461" y2="101.316"/>
		</g>
		<g id="LWPOLYLINE_11119_">
			
				<polyline fill="none" stroke="#12100B" stroke-width="0.2835" stroke-linecap="round" stroke-linejoin="round" stroke-miterlimit="10" points="
				82.371,66.605 82.548,66.52 83.048,66.453 83.791,66.416 84.659,66.413 85.521,66.445 86.242,66.508 86.336,66.52 			"/>
		</g>
		<g id="LWPOLYLINE_11118_">
			
				<polyline fill="none" stroke="#12100B" stroke-width="0.2835" stroke-linecap="round" stroke-linejoin="round" stroke-miterlimit="10" points="
				86.854,66.674 86.676,66.76 86.168,66.826 85.41,66.863 84.522,66.865 83.649,66.83 82.933,66.765 82.485,66.68 82.371,66.605 
							"/>
		</g>
		<g id="LWPOLYLINE_11117_">
			
				<polyline fill="none" stroke="#12100B" stroke-width="0.2835" stroke-linecap="round" stroke-linejoin="round" stroke-miterlimit="10" points="
				114.216,80.35 114.767,80.629 115.164,81.212 115.348,82.004 115.354,82.346 			"/>
		</g>
		<g id="LWPOLYLINE_11116_">
			
				<polyline fill="none" stroke="#12100B" stroke-width="0.2835" stroke-linecap="round" stroke-linejoin="round" stroke-miterlimit="10" points="
				113.362,84.771 112.814,84.479 112.421,83.883 112.247,83.074 112.321,82.184 112.631,81.354 113.127,80.717 113.729,80.375 
				114.216,80.35 			"/>
		</g>
		<g id="LINE_10922_">
			
				<line fill="none" stroke="#12100B" stroke-width="0.2835" stroke-linecap="round" stroke-linejoin="round" stroke-miterlimit="10" x1="73.957" y1="108.052" x2="79.415" y2="106.896"/>
		</g>
		<g id="LWPOLYLINE_11115_">
			
				<polyline fill="none" stroke="#12100B" stroke-width="0.2835" stroke-linecap="round" stroke-linejoin="round" stroke-miterlimit="10" points="
				108.141,66.339 108.171,66.29 108.26,66.244 108.405,66.201 108.605,66.16 108.856,66.125 109.155,66.094 109.498,66.067 
				109.6,66.061 			"/>
		</g>
		<g id="LINE_10921_">
			
				<line fill="none" stroke="#12100B" stroke-width="0.2835" stroke-linecap="round" stroke-linejoin="round" stroke-miterlimit="10" x1="115.411" y1="66.218" x2="115.473" y2="66.225"/>
		</g>
		<g id="LWPOLYLINE_11114_">
			
				<polyline fill="none" stroke="#12100B" stroke-width="0.2835" stroke-linecap="round" stroke-linejoin="round" stroke-miterlimit="10" points="
				116.856,66.575 116.819,66.629 116.712,66.679 116.537,66.726 116.295,66.768 115.991,66.806 115.63,66.838 115.216,66.863 
				114.757,66.883 114.26,66.895 113.733,66.898 113.187,66.896 112.627,66.887 112.066,66.869 111.513,66.846 110.977,66.816 
				110.465,66.779 109.988,66.738 109.554,66.692 109.167,66.643 108.836,66.59 108.565,66.535 108.359,66.479 108.22,66.424 
				108.149,66.367 108.141,66.339 			"/>
		</g>
		<g id="LWPOLYLINE_11113_">
			
				<polyline fill="none" stroke="#12100B" stroke-width="0.2835" stroke-linecap="round" stroke-linejoin="round" stroke-miterlimit="10" points="
				118.372,92.719 118.878,93.012 119.225,93.593 119.36,94.368 119.358,94.561 			"/>
		</g>
		<g id="LWPOLYLINE_11112_">
			
				<polyline fill="none" stroke="#12100B" stroke-width="0.2835" stroke-linecap="round" stroke-linejoin="round" stroke-miterlimit="10" points="
				117.358,96.973 116.855,96.668 116.513,96.074 116.387,95.283 116.498,94.423 116.829,93.63 117.327,93.032 117.91,92.724 
				118.372,92.719 			"/>
		</g>
		<g id="LWPOLYLINE_11111_">
			
				<polyline fill="none" stroke="#12100B" stroke-width="0.2835" stroke-linecap="round" stroke-linejoin="round" stroke-miterlimit="10" points="
				118.016,104.033 118.498,104.345 118.813,104.936 118.911,105.711 118.91,105.771 			"/>
		</g>
		<g id="LWPOLYLINE_11110_">
			
				<polyline fill="none" stroke="#12100B" stroke-width="0.2835" stroke-linecap="round" stroke-linejoin="round" stroke-miterlimit="10" points="
				116.84,108.211 116.36,107.889 116.05,107.284 115.961,106.494 116.107,105.645 116.466,104.872 116.979,104.3 117.563,104.019 
				118.016,104.033 			"/>
		</g>
		<g id="LWPOLYLINE_11109_">
			
				<polyline fill="none" stroke="#12100B" stroke-width="0.2835" stroke-linecap="round" stroke-linejoin="round" stroke-miterlimit="10" points="
				100.847,65.344 101.014,65.271 101.48,65.217 102.173,65.189 102.984,65.195 103.788,65.23 104.437,65.287 			"/>
		</g>
		<g id="LWPOLYLINE_11108_">
			
				<polyline fill="none" stroke="#12100B" stroke-width="0.2835" stroke-linecap="round" stroke-linejoin="round" stroke-miterlimit="10" points="
				105.029,65.439 104.861,65.513 104.387,65.566 103.679,65.594 102.852,65.587 102.038,65.55 101.37,65.486 100.954,65.409 
				100.847,65.344 			"/>
		</g>
		<g id="LINE_10920_">
			
				<line fill="none" stroke="#12100B" stroke-width="0.2835" stroke-linecap="round" stroke-linejoin="round" stroke-miterlimit="10" x1="71.164" y1="109.466" x2="73.756" y2="110.449"/>
		</g>
		<g id="LINE_10919_">
			
				<line fill="none" stroke="#12100B" stroke-width="0.2835" stroke-linecap="round" stroke-linejoin="round" stroke-miterlimit="10" x1="71.164" y1="109.466" x2="71.17" y2="105.283"/>
		</g>
		<g id="LINE_10918_">
			
				<line fill="none" stroke="#12100B" stroke-width="0.2835" stroke-linecap="round" stroke-linejoin="round" stroke-miterlimit="10" x1="71.17" y1="105.283" x2="71.199" y2="88.268"/>
		</g>
		<g id="LINE_10917_">
			
				<line fill="none" stroke="#12100B" stroke-width="0.2835" stroke-linecap="round" stroke-linejoin="round" stroke-miterlimit="10" x1="71.199" y1="88.268" x2="71.229" y2="70.78"/>
		</g>
		<g id="LINE_10916_">
			
				<line fill="none" stroke="#12100B" stroke-width="0.2835" stroke-linecap="round" stroke-linejoin="round" stroke-miterlimit="10" x1="71.229" y1="70.78" x2="71.235" y2="66.332"/>
		</g>
		<g id="LINE_10915_">
			
				<line fill="none" stroke="#12100B" stroke-width="0.2835" stroke-linecap="round" stroke-linejoin="round" stroke-miterlimit="10" x1="71.235" y1="66.332" x2="73.921" y2="66.727"/>
		</g>
		<g id="LINE_10914_">
			
				<line fill="none" stroke="#12100B" stroke-width="0.2835" stroke-linecap="round" stroke-linejoin="round" stroke-miterlimit="10" x1="73.756" y1="110.449" x2="73.921" y2="66.727"/>
		</g>
		<g id="LWPOLYLINE_11107_">
			
				<polyline fill="none" stroke="#12100B" stroke-width="0.2835" stroke-linecap="round" stroke-linejoin="round" stroke-miterlimit="10" points="
				75.326,104.976 75.181,105.999 75.365,106.94 75.852,107.649 			"/>
		</g>
		<g id="LINE_10913_">
			
				<line fill="none" stroke="#12100B" stroke-width="0.2835" stroke-linecap="round" stroke-linejoin="round" stroke-miterlimit="10" x1="73.921" y1="66.727" x2="89.848" y2="65.679"/>
		</g>
		<g id="LINE_10912_">
			
				<line fill="none" stroke="#12100B" stroke-width="0.2835" stroke-linecap="round" stroke-linejoin="round" stroke-miterlimit="10" x1="96.124" y1="65.266" x2="106.233" y2="64.6"/>
		</g>
		<g id="LINE_10911_">
			
				<line fill="none" stroke="#12100B" stroke-width="0.2835" stroke-linecap="round" stroke-linejoin="round" stroke-miterlimit="10" x1="106.233" y1="64.6" x2="106.232" y2="64.637"/>
		</g>
		<g id="LINE_10910_">
			
				<line fill="none" stroke="#12100B" stroke-width="0.2835" stroke-linecap="round" stroke-linejoin="round" stroke-miterlimit="10" x1="73.948" y1="110.407" x2="73.756" y2="110.449"/>
		</g>
		<g id="LINE_10909_">
			
				<line fill="none" stroke="#12100B" stroke-width="0.2835" stroke-linecap="round" stroke-linejoin="round" stroke-miterlimit="10" x1="79.602" y1="70.771" x2="79.568" y2="70.272"/>
		</g>
		<g id="LINE_10908_">
			
				<line fill="none" stroke="#12100B" stroke-width="0.2835" stroke-linecap="round" stroke-linejoin="round" stroke-miterlimit="10" x1="71.235" y1="66.332" x2="74.819" y2="66.104"/>
		</g>
		<g id="LINE_10907_">
			
				<line fill="none" stroke="#12100B" stroke-width="0.2835" stroke-linecap="round" stroke-linejoin="round" stroke-miterlimit="10" x1="74.819" y1="66.104" x2="88.3" y2="65.243"/>
		</g>
		<g id="LINE_10906_">
			
				<line fill="none" stroke="#12100B" stroke-width="0.2835" stroke-linecap="round" stroke-linejoin="round" stroke-miterlimit="10" x1="88.3" y1="65.243" x2="89.856" y2="65.144"/>
		</g>
		<g id="LINE_10905_">
			
				<line fill="none" stroke="#12100B" stroke-width="0.2835" stroke-linecap="round" stroke-linejoin="round" stroke-miterlimit="10" x1="96.136" y1="64.742" x2="100.552" y2="64.461"/>
		</g>
		<g id="LINE_10904_">
			
				<line fill="none" stroke="#12100B" stroke-width="0.2835" stroke-linecap="round" stroke-linejoin="round" stroke-miterlimit="10" x1="100.552" y1="64.461" x2="103.442" y2="64.276"/>
		</g>
		<g id="LINE_10903_">
			
				<line fill="none" stroke="#12100B" stroke-width="0.2835" stroke-linecap="round" stroke-linejoin="round" stroke-miterlimit="10" x1="103.442" y1="64.276" x2="106.233" y2="64.6"/>
		</g>
		<g id="LINE_10902_">
			
				<line fill="none" stroke="#12100B" stroke-width="0.2835" stroke-linecap="round" stroke-linejoin="round" stroke-miterlimit="10" x1="78.613" y1="76.256" x2="77.37" y2="78.736"/>
		</g>
		<g id="LINE_10901_">
			
				<line fill="none" stroke="#12100B" stroke-width="0.2835" stroke-linecap="round" stroke-linejoin="round" stroke-miterlimit="10" x1="76.27" y1="81.811" x2="75.6" y2="84.793"/>
		</g>
		<g id="LINE_10900_">
			
				<line fill="none" stroke="#12100B" stroke-width="0.2835" stroke-linecap="round" stroke-linejoin="round" stroke-miterlimit="10" x1="75.301" y1="87.516" x2="75.328" y2="90.643"/>
		</g>
		<g id="LINE_10899_">
			
				<line fill="none" stroke="#12100B" stroke-width="0.2835" stroke-linecap="round" stroke-linejoin="round" stroke-miterlimit="10" x1="75.723" y1="93.506" x2="76.473" y2="96.206"/>
		</g>
		<g id="LINE_10898_">
			
				<line fill="none" stroke="#12100B" stroke-width="0.2835" stroke-linecap="round" stroke-linejoin="round" stroke-miterlimit="10" x1="78.518" y1="100.221" x2="79.379" y2="101.332"/>
		</g>
		<g id="LWPOLYLINE_11106_">
			
				<polyline fill="none" stroke="#12100B" stroke-width="0.2835" stroke-linecap="round" stroke-linejoin="round" stroke-miterlimit="10" points="
				78.958,72.713 79.432,71.803 79.602,70.771 			"/>
		</g>
		<g id="LWPOLYLINE_11105_">
			
				<polyline fill="none" stroke="#12100B" stroke-width="0.2835" stroke-linecap="round" stroke-linejoin="round" stroke-miterlimit="10" points="
				75.695,69.649 75.383,70.67 75.405,71.732 75.759,72.667 75.986,72.977 			"/>
		</g>
		<g id="LWPOLYLINE_11104_">
			
				<polyline fill="none" stroke="#12100B" stroke-width="0.2835" stroke-linecap="round" stroke-linejoin="round" stroke-miterlimit="10" points="
				65.898,73.287 65.475,73.173 65.07,72.993 64.689,72.752 64.34,72.451 64.027,72.097 63.756,71.693 63.53,71.248 63.355,70.769 
				63.233,70.262 63.167,69.736 63.157,69.199 63.205,68.662 63.308,68.133 63.465,67.62 63.675,67.132 63.932,66.677 
				64.234,66.262 64.574,65.895 64.947,65.58 65.348,65.324 65.768,65.13 66.202,65 66.643,64.938 67.082,64.943 67.229,64.961 			
				"/>
		</g>
		<g id="LWPOLYLINE_11103_">
			
				<polyline fill="none" stroke="#12100B" stroke-width="0.2835" stroke-linecap="round" stroke-linejoin="round" stroke-miterlimit="10" points="
				66.724,97.849 65.537,95.92 64.575,93.771 63.861,91.437 63.41,88.959 63.234,86.382 63.338,83.754 63.722,81.123 64.379,78.541 
				65.295,76.056 66.453,73.714 66.619,73.424 			"/>
		</g>
		<g id="LINE_10897_">
			
				<line fill="none" stroke="#12100B" stroke-width="0.2835" stroke-linecap="round" stroke-linejoin="round" stroke-miterlimit="10" x1="71.181" y1="99.295" x2="66.724" y2="97.849"/>
		</g>
		<g id="LINE_10896_">
			
				<line fill="none" stroke="#12100B" stroke-width="0.2835" stroke-linecap="round" stroke-linejoin="round" stroke-miterlimit="10" x1="78.087" y1="90.227" x2="76.928" y2="87.932"/>
		</g>
		<g id="LINE_10895_">
			
				<line fill="none" stroke="#12100B" stroke-width="0.2835" stroke-linecap="round" stroke-linejoin="round" stroke-miterlimit="10" x1="75.719" y1="84.777" x2="75.643" y2="84.531"/>
		</g>
		<g id="LINE_10894_">
			
				<line fill="none" stroke="#12100B" stroke-width="0.2835" stroke-linecap="round" stroke-linejoin="round" stroke-miterlimit="10" x1="77.854" y1="95.969" x2="76.015" y2="94.706"/>
		</g>
		<g id="LINE_10893_">
			
				<line fill="none" stroke="#12100B" stroke-width="0.2835" stroke-linecap="round" stroke-linejoin="round" stroke-miterlimit="10" x1="78.641" y1="107.06" x2="79.08" y2="106.279"/>
		</g>
		<g id="LWPOLYLINE_11102_">
			
				<polyline fill="none" stroke="#12100B" stroke-width="0.2835" stroke-linecap="round" stroke-linejoin="round" stroke-miterlimit="10" points="
				74.033,65.932 75.454,65.241 76.898,64.717 78.354,64.361 79.807,64.176 81.244,64.157 82.227,64.242 			"/>
		</g>
		<g id="LWPOLYLINE_11101_">
			
				<polyline fill="none" stroke="#12100B" stroke-width="0.2835" stroke-linecap="round" stroke-linejoin="round" stroke-miterlimit="10" points="
				65.252,105.708 64.877,105.533 64.529,105.299 64.217,105.008 63.943,104.665 63.715,104.276 63.534,103.848 63.404,103.386 
				63.329,102.897 63.309,102.393 63.343,101.878 63.432,101.363 63.575,100.855 63.77,100.364 64.01,99.897 64.296,99.463 
				64.619,99.066 64.977,98.717 65.362,98.418 65.769,98.174 66.189,97.99 66.617,97.869 66.724,97.849 			"/>
		</g>
		<g id="LINE_10892_">
			
				<line fill="none" stroke="#12100B" stroke-width="0.2835" stroke-linecap="round" stroke-linejoin="round" stroke-miterlimit="10" x1="89.729" y1="65.152" x2="89.859" y2="64.936"/>
		</g>
		<g id="LINE_10891_">
			
				<line fill="none" stroke="#12100B" stroke-width="0.5669" stroke-linecap="round" stroke-linejoin="round" stroke-miterlimit="10" x1="96.06" y1="68.357" x2="96.166" y2="63.285"/>
		</g>
		<g id="LINE_10890_">
			
				<line fill="none" stroke="#12100B" stroke-width="0.5669" stroke-linecap="round" stroke-linejoin="round" stroke-miterlimit="10" x1="89.889" y1="63.166" x2="89.807" y2="68.24"/>
		</g>
		<g id="LINE_10889_">
			
				<line fill="none" stroke="#12100B" stroke-width="0.5669" stroke-linecap="round" stroke-linejoin="round" stroke-miterlimit="10" x1="115.388" y1="66.854" x2="115.557" y2="62.176"/>
		</g>
		<g id="LINE_10888_">
			
				<line fill="none" stroke="#12100B" stroke-width="0.5669" stroke-linecap="round" stroke-linejoin="round" stroke-miterlimit="10" x1="109.727" y1="62.026" x2="109.58" y2="66.695"/>
		</g>
		<g id="LINE_10887_">
			
				<line fill="none" stroke="#12100B" stroke-width="0.2835" stroke-linecap="round" stroke-linejoin="round" stroke-miterlimit="10" x1="75.109" y1="66.085" x2="67.229" y2="64.961"/>
		</g>
		<g id="LINE_10886_">
			
				<line fill="none" stroke="#12100B" stroke-width="0.2835" stroke-linecap="round" stroke-linejoin="round" stroke-miterlimit="10" x1="65.898" y1="73.287" x2="71.223" y2="74.299"/>
		</g>
		<g id="LINE_10885_">
			
				<line fill="none" stroke="#12100B" stroke-width="0.2835" stroke-linecap="round" stroke-linejoin="round" stroke-miterlimit="10" x1="89.457" y1="65.169" x2="82.227" y2="64.242"/>
		</g>
		<g id="LINE_10884_">
			
				<line fill="none" stroke="#12100B" stroke-width="0.2835" stroke-linecap="round" stroke-linejoin="round" stroke-miterlimit="10" x1="65.252" y1="105.708" x2="71.166" y2="107.901"/>
		</g>
		<g id="LINE_10883_">
			
				<line fill="none" stroke="#12100B" stroke-width="0.2835" stroke-linecap="round" stroke-linejoin="round" stroke-miterlimit="10" x1="100.743" y1="64.449" x2="96.153" y2="63.906"/>
		</g>
	</g>
	
		<line fill="none" stroke="#12100B" stroke-width="0.2835" stroke-linecap="round" stroke-linejoin="round" stroke-miterlimit="10" x1="115.473" y1="66.225" x2="135.5" y2="66.237"/>
	
		<line fill="none" stroke="#12100B" stroke-width="0.2835" stroke-linecap="round" stroke-linejoin="round" stroke-miterlimit="10" x1="116.387" y1="62.018" x2="135.5" y2="61.859"/>
	
		<line fill="none" stroke="#12100B" stroke-width="0.2835" stroke-linecap="round" stroke-linejoin="round" stroke-miterlimit="10" x1="134.526" y1="70.521" x2="134.526" y2="33.351"/>
	<text transform="matrix(0 -1 1 0 130.6563 57.6768)" font-family="'ArialRoundedMTBold'" font-size="10.9112">3 mm</text>
</g>
</svg>
