<?xml version="1.0" encoding="UTF-8" standalone="no"?><!DOCTYPE svg PUBLIC "-//W3C//DTD SVG 1.1//EN" "http://www.w3.org/Graphics/SVG/1.1/DTD/svg11.dtd"><svg width="100%" height="100%" viewBox="0 0 199 142" version="1.1" xmlns="http://www.w3.org/2000/svg" xmlns:xlink="http://www.w3.org/1999/xlink" xml:space="preserve" xmlns:serif="http://www.serif.com/" style="fill-rule:evenodd;clip-rule:evenodd;stroke-linecap:round;stroke-linejoin:round;stroke-miterlimit:10;"><g id="INSERT_13_"><path id="LWPOLYLINE_5867_" d="M95.531,48.125l-1.118,0.464l-1.066,0.763l-0.953,1.016l-0.784,1.213l-0.569,1.338l-0.321,1.386l-0.055,1.352l0.215,1.241l0.472,1.057l0.701,0.812l0.89,0.519l1.028,0.196l1.105,-0.136l1.118,-0.463l1.067,-0.763l0.952,-1.017l0.784,-1.213" style="fill:none;stroke:#12100b;stroke-width:0.71px;"/><path id="LWPOLYLINE_5866_" d="M99.566,54.552l0.321,-1.386l0.055,-1.353l-0.214,-1.24l-0.472,-1.057l-0.702,-0.812l-0.89,-0.519l-1.028,-0.197l-1.105,0.137" style="fill:none;stroke:#12100b;stroke-width:0.71px;"/><path id="LWPOLYLINE_5865_" d="M95.933,48.952l0.982,-0.122l0.914,0.175l0.792,0.462l0.623,0.721l0.42,0.941l0.19,1.102l-0.048,1.203l-0.285,1.232l-0.506,1.189l-0.698,1.079l-0.846,0.904l-0.949,0.679l-0.994,0.411l-0.982,0.122l-0.914,-0.175l-0.791,-0.462l-0.624,-0.722l-0.419,-0.939l-0.192,-1.104l0.049,-1.202l0.286,-1.231l0.506,-1.191l0.697,-1.078l0.846,-0.904l0.948,-0.678l0.995,-0.412Z" style="fill:none;stroke:#12100b;stroke-width:0.71px;"/><path id="LINE_4768_" d="M93.581,55.963l0.118,-2.916" style="fill:none;stroke:#12100b;stroke-width:0.71px;"/><path id="LINE_4767_" d="M93.699,53.047l2.15,-2.022" style="fill:none;stroke:#12100b;stroke-width:0.71px;"/><path id="LINE_4766_" d="M97.88,51.918l-0.118,2.915" style="fill:none;stroke:#12100b;stroke-width:0.71px;"/><path id="LINE_4765_" d="M95.612,56.855l-2.031,-0.892" style="fill:none;stroke:#12100b;stroke-width:0.71px;"/><path id="LINE_4764_" d="M95.849,51.025l2.031,0.893" style="fill:none;stroke:#12100b;stroke-width:0.71px;"/><path id="LINE_4763_" d="M97.762,54.833l-2.15,2.022" style="fill:none;stroke:#12100b;stroke-width:0.71px;"/><path id="LWPOLYLINE_5864_" d="M87.587,56.15l0.701,0.813l0.891,0.519" style="fill:none;stroke:#12100b;stroke-width:0.71px;"/><path id="LWPOLYLINE_5863_" d="M93.898,46.381l-1.027,-0.197l-1.104,0.137l-1.119,0.463l-1.067,0.763l-0.952,1.017l-0.783,1.213l-0.57,1.338l-0.321,1.386l-0.055,1.353l0.215,1.24l0.472,1.056" style="fill:none;stroke:#12100b;stroke-width:0.71px;"/><path id="LINE_4762_" d="M95.612,56.855l-1.424,-0.682" style="fill:none;stroke:#12100b;stroke-width:0.71px;"/><path id="LINE_4761_" d="M94.188,56.173l-0.604,-0.266" style="fill:none;stroke:#12100b;stroke-width:0.71px;"/><path id="LINE_4760_" d="M94.188,56.173l2.15,-2.022" style="fill:none;stroke:#12100b;stroke-width:0.71px;"/><path id="LINE_4759_" d="M96.338,54.151l0.116,-2.86" style="fill:none;stroke:#12100b;stroke-width:0.71px;"/><path id="LINE_4758_" d="M97.762,54.833l-1.424,-0.682" style="fill:none;stroke:#12100b;stroke-width:0.71px;"/><path id="LINE_4757_" d="M82.916,39.727l-0.051,-0.116" style="fill:none;stroke:#12100b;stroke-width:0.71px;"/><path id="LWPOLYLINE_5862_" d="M82.625,39.066l-0.056,-0.125l0.064,-0.132" style="fill:none;stroke:#12100b;stroke-width:0.71px;"/><path id="LWPOLYLINE_5861_" d="M88.133,41.555l-0.008,0l-0.012,-0.002" style="fill:none;stroke:#12100b;stroke-width:0.71px;"/><path id="LWPOLYLINE_5860_" d="M85.954,41.191l-0.016,-0.003l-0.665,-0.183" style="fill:none;stroke:#12100b;stroke-width:0.71px;"/><path id="LINE_4756_" d="M85.211,52.809l0.012,-0.205" style="fill:none;stroke:#12100b;stroke-width:0.71px;"/><path id="LINE_4755_" d="M85.617,45.477l0.11,-1.978" style="fill:none;stroke:#12100b;stroke-width:0.71px;"/><path id="LWPOLYLINE_5859_" d="M82.635,62.71l0.515,-0.185l0.265,-0.163l0.233,-0.143l0.448,-0.417l0.374,-0.522" style="fill:none;stroke:#12100b;stroke-width:0.71px;"/><path id="LINE_4754_" d="M84.742,54.684l0.469,-1.875" style="fill:none;stroke:#12100b;stroke-width:0.71px;"/><path id="LWPOLYLINE_5858_" d="M83.283,51.674l-0.037,-0.005l-0.035,-0.029" style="fill:none;stroke:#12100b;stroke-width:0.71px;"/><path id="LWPOLYLINE_5857_" d="M82.443,51.002l-0.011,-0.009l-0.268,-0.501l-0.054,-0.2" style="fill:none;stroke:#12100b;stroke-width:0.71px;"/><path id="LWPOLYLINE_5856_" d="M82.062,50.111l-0.054,-0.2l-0.041,-0.637l0.077,-0.665l0.066,-0.227" style="fill:none;stroke:#12100b;stroke-width:0.71px;"/><path id="LWPOLYLINE_5855_" d="M82.171,48.175l0.066,-0.228l0.3,-0.633l0.393,-0.574l0.162,-0.168" style="fill:none;stroke:#12100b;stroke-width:0.71px;"/><path id="LWPOLYLINE_5854_" d="M83.238,46.418l0.162,-0.168l0.188,-0.113" style="fill:none;stroke:#12100b;stroke-width:0.71px;"/><path id="LWPOLYLINE_5853_" d="M84.297,45.711l0.187,-0.112l0.118,-0.013" style="fill:none;stroke:#12100b;stroke-width:0.71px;"/><path id="LWPOLYLINE_5852_" d="M85.587,45.476l0.016,-0.002l0.014,0.003" style="fill:none;stroke:#12100b;stroke-width:0.71px;"/><path id="LINE_4753_" d="M78.201,63.739l4.434,-1.029" style="fill:none;stroke:#12100b;stroke-width:0.71px;"/><path id="LINE_4752_" d="M84.837,54.656l-0.095,0.028" style="fill:none;stroke:#12100b;stroke-width:0.71px;"/><path id="LWPOLYLINE_5851_" d="M76.848,64.053l0.735,-0.17l0.618,-0.144" style="fill:none;stroke:#12100b;stroke-width:0.71px;"/><path id="LWPOLYLINE_5850_" d="M85.727,43.499l-0.008,-0.125l-0.037,-0.122l-0.152,-0.228l-0.232,-0.174l-0.18,-0.075" style="fill:none;stroke:#12100b;stroke-width:0.71px;"/><path id="LINE_4751_" d="M85.118,42.775l2.147,-0.544" style="fill:none;stroke:#12100b;stroke-width:0.71px;"/><path id="LINE_4750_" d="M75.111,63.53l0.803,0.436" style="fill:none;stroke:#12100b;stroke-width:0.71px;"/><path id="LWPOLYLINE_5849_" d="M76.012,64.009l0.014,0.005l0.079,0.024l0.092,0.016l0.153,0.026l0.205,0.004l0.055,0.001l0.139,-0.019l0.099,-0.013" style="fill:none;stroke:#12100b;stroke-width:0.71px;"/><path id="LINE_4749_" d="M75.914,63.966l0.098,0.043" style="fill:none;stroke:#12100b;stroke-width:0.71px;"/><path id="LWPOLYLINE_5848_" d="M76.012,46.252l-0.001,0.045l0.02,0.045l0.043,0.043l0.063,0.042" style="fill:none;stroke:#12100b;stroke-width:0.71px;"/><path id="LWPOLYLINE_5847_" d="M75.26,65.235l-0.035,-0.247l-0.116,-0.232l-0.175,-0.181l-0.211,-0.104" style="fill:none;stroke:#12100b;stroke-width:0.71px;"/><path id="LWPOLYLINE_5846_" d="M70,60.646l1.723,0.287l1.508,0.467l1.107,0.6l0.601,0.678l0.049,0.674" style="fill:none;stroke:#12100b;stroke-width:0.71px;"/><path id="LWPOLYLINE_5846_1" serif:id="LWPOLYLINE_5846_" d="M69.593,66.885l1.807,-0.018l1.508,0.467l1.107,0.6l0.601,0.678l0.049,0.674" style="fill:none;stroke:#12100b;stroke-width:0.71px;"/><path id="LWPOLYLINE_5845_" d="M74.988,63.352l0.016,0.091l0.107,0.087" style="fill:none;stroke:#12100b;stroke-width:0.71px;"/><path id="LINE_4747_" d="M75.162,69.192l0.098,-3.957" style="fill:none;stroke:#12100b;stroke-width:0.71px;"/><path id="LINE_4747_1" serif:id="LINE_4747_" d="M74.367,69.598l0.132,-5.006" style="fill:none;stroke:#12100b;stroke-width:0.71px;"/><path id="LINE_4747_2" serif:id="LINE_4747_" d="M69.599,66.808l0.149,-5.936" style="fill:none;stroke:#12100b;stroke-width:0.71px;"/><path id="LWPOLYLINE_5844_" d="M70,60.646l-0.209,-0.036l-0.019,-0.006l-0.153,-0.053l-0.03,-0.016" style="fill:none;stroke:#12100b;stroke-width:0.71px;"/><path id="LINE_4746_" d="M69.589,60.535l-0.737,-0.4" style="fill:none;stroke:#12100b;stroke-width:0.71px;"/><path id="LINE_4746_1" serif:id="LINE_4746_" d="M69.488,66.893l-0.737,-0.4" style="fill:none;stroke:#12100b;stroke-width:0.71px;"/><path id="LWPOLYLINE_5842_" d="M68.852,60.135l-0.11,-0.09" style="fill:none;stroke:#12100b;stroke-width:0.71px;"/><path id="LWPOLYLINE_5841_" d="M74.794,69.684l0.189,-0.088l0.13,-0.173l0.049,-0.231" style="fill:none;stroke:#12100b;stroke-width:0.71px;"/><path id="LINE_4745_" d="M83.013,41.915l-0.356,0.013" style="fill:none;stroke:#12100b;stroke-width:0.71px;"/><path id="LINE_4744_" d="M85.894,45.588l-0.144,-0.067" style="fill:none;stroke:#12100b;stroke-width:0.71px;"/><path id="LINE_4743_" d="M85.75,45.521l-0.133,-0.044" style="fill:none;stroke:#12100b;stroke-width:0.71px;"/><path id="LWPOLYLINE_5840_" d="M90.209,43.841l0,0.037l0.019,0.126l0.048,0.117l0.183,0.203" style="fill:none;stroke:#12100b;stroke-width:0.71px;"/><path id="LINE_4742_" d="M78.875,39.072l-0.199,-0.395" style="fill:none;stroke:#12100b;stroke-width:0.71px;"/><path id="LWPOLYLINE_5839_" d="M78.676,38.677l-0.039,-0.134l-0.006,-0.096l0.004,-0.119l0.001,-0.034" style="fill:none;stroke:#12100b;stroke-width:0.71px;"/><path id="LWPOLYLINE_5838_" d="M90.459,44.324l0.95,0.869l0.527,0.72l0.172,0.365" style="fill:none;stroke:#12100b;stroke-width:0.71px;"/><path id="LWPOLYLINE_5837_" d="M87.019,54.539l-0.484,0.068l-1.105,-0.016" style="fill:none;stroke:#12100b;stroke-width:0.71px;"/><path id="LWPOLYLINE_5836_" d="M74.938,60.688l-0.002,0.025l-0.019,0.309l0.001,0.007" style="fill:none;stroke:#12100b;stroke-width:0.71px;"/><path id="LWPOLYLINE_5835_" d="M80.947,64.811l2.68,0.447l1.164,0.122l1.632,0.172l2.371,0.112l0.474,0.023l2.824,-0.028l0.684,-0.048l2.054,-0.142l1.725,-0.232l0.861,-0.116l2.37,-0.496l0.175,-0.053l1.924,-0.582l0.888,-0.378l0.889,-0.378l1.295,-0.789l0.117,-0.071" style="fill:none;stroke:#12100b;stroke-width:0.71px;"/><path id="LWPOLYLINE_5834_" d="M105.074,62.374l1.014,-0.943l0.197,-0.335l0.394,-0.67l0.115,-0.781l0.039,-0.26" style="fill:none;stroke:#12100b;stroke-width:0.71px;"/><path id="LWPOLYLINE_5833_" d="M100.17,53.821l0.672,0.23l1.81,0.822l1.47,0.903l1.096,0.964l0.694,1.002l0.276,1.014l-0.148,1.003l-0.569,0.968l-0.977,0.908l-1.361,0.83l-1.712,0.728l-2.023,0.612l-2.284,0.478l-2.491,0.335l-2.639,0.184l-2.721,0.026l-2.742,-0.13l-2.693,-0.284l-2.583,-0.431" style="fill:none;stroke:#12100b;stroke-width:0.71px;"/><path id="LWPOLYLINE_5832_" d="M81.245,63.983l-0.103,0.125l-0.095,0.203l-0.068,0.246l-0.032,0.254" style="fill:none;stroke:#12100b;stroke-width:0.71px;"/><path id="LINE_4741_" d="M80.947,64.811l-0.19,3.963" style="fill:none;stroke:#12100b;stroke-width:0.71px;"/><path id="LWPOLYLINE_5831_" d="M78.636,38.294l0.051,-0.19l0.01,-0.017l0.018,-0.024l0.084,-0.127l0.07,-0.059l0.016,-0.013l0.08,-0.066l0.15,-0.068l0.01,-0.004l0.061,-0.027l0.21,-0.034l0.008,-0.001" style="fill:none;stroke:#12100b;stroke-width:0.71px;"/><path id="LWPOLYLINE_5830_" d="M90.52,42.991l-0.083,0.1l-0.024,0.044l-0.004,0.008l-0.059,0.11l-0.034,0.09l-0.005,0.017l-0.03,0.078l-0.035,0.151l-0.008,0.029l-0.005,0.02l-0.024,0.203" style="fill:none;stroke:#12100b;stroke-width:0.71px;"/><path id="LWPOLYLINE_5829_" d="M88.365,43.32l0.959,1.342l0.445,1.795l-0.053,0.9" style="fill:none;stroke:#12100b;stroke-width:0.71px;"/><path id="LWPOLYLINE_5828_" d="M86.839,53.379l-0.498,0.477l-1.599,0.828" style="fill:none;stroke:#12100b;stroke-width:0.71px;"/><path id="LWPOLYLINE_5827_" d="M84.837,54.656l0.185,-0.042l0.019,-0.005l0.185,-0.017l0.04,-0.004l0.164,0.003" style="fill:none;stroke:#12100b;stroke-width:0.71px;"/><path id="LWPOLYLINE_5826_" d="M88.365,43.32l-0.11,-0.168l-0.036,-0.228l0.001,-0.015" style="fill:none;stroke:#12100b;stroke-width:0.71px;"/><path id="LINE_4740_" d="M85.897,43.536l-0.147,1.985" style="fill:none;stroke:#12100b;stroke-width:0.71px;"/><path id="LINE_4739_" d="M85.227,52.605l-0.016,0.204" style="fill:none;stroke:#12100b;stroke-width:0.71px;"/><path id="LWPOLYLINE_5825_" d="M88.22,42.909l0.005,-0.11l0.008,-0.119l0.001,-0.022l0.021,-0.22l0.008,-0.058l0.02,-0.169l0.014,-0.071l0.017,-0.098l0.019,-0.099" style="fill:none;stroke:#12100b;stroke-width:0.71px;"/><path id="LWPOLYLINE_5824_" d="M85.118,42.775l0.235,0.049l0.224,0.117l0.181,0.172l0.111,0.206l0.028,0.217" style="fill:none;stroke:#12100b;stroke-width:0.71px;"/><path id="LWPOLYLINE_5823_" d="M80.757,68.774l0.01,0.227l0.05,0.159l0.083,0.068" style="fill:none;stroke:#12100b;stroke-width:0.71px;"/><path id="LINE_4738_" d="M73.18,58.933l1.889,-0.439" style="fill:none;stroke:#12100b;stroke-width:0.71px;"/><path id="LWPOLYLINE_5822_" d="M73.882,42.348l-0.112,0.032l-0.112,0.043" style="fill:none;stroke:#12100b;stroke-width:0.71px;"/><path id="LINE_4737_" d="M79.415,42.681l0.072,-1.634" style="fill:none;stroke:#12100b;stroke-width:0.71px;"/><path id="LINE_4736_" d="M73.006,59.003l0.174,-0.07" style="fill:none;stroke:#12100b;stroke-width:0.71px;"/><path id="LWPOLYLINE_5821_" d="M79.487,41.047l0.009,-0.127l0.013,-0.135l0.04,-0.272l0.054,-0.242l0.057,-0.174" style="fill:none;stroke:#12100b;stroke-width:0.71px;"/><path id="LWPOLYLINE_5820_" d="M78.293,64.597l0,-0.255l-0.017,-0.252l-0.032,-0.211l-0.043,-0.14" style="fill:none;stroke:#12100b;stroke-width:0.71px;"/><path id="LWPOLYLINE_5819_" d="M72.229,59.57l0.243,-0.194l0.019,-0.016l0.093,-0.074l0.137,-0.097l0.037,-0.026l0.06,-0.043l0.143,-0.089l0.045,-0.028" style="fill:none;stroke:#12100b;stroke-width:0.71px;"/><path id="LWPOLYLINE_5818_" d="M85.117,60.256l-0.007,0.011l-0.217,0.333l-0.008,0.012l-0.076,0.117l-0.131,0.212l-0.053,0.087l-0.155,0.252" style="fill:none;stroke:#12100b;stroke-width:0.71px;"/><path id="LWPOLYLINE_5817_" d="M82.516,41.646l-0.356,0.013l-0.306,0.105l-0.006,0.002l-0.205,0.175l-0.006,0.008l-0.057,0.107l-0.023,0.113" style="fill:none;stroke:#12100b;stroke-width:0.71px;"/><path id="LINE_4735_" d="M81.557,42.18l-0.001,0.004" style="fill:none;stroke:#12100b;stroke-width:0.71px;"/><path id="LINE_4734_" d="M81.557,42.169l0,0.011" style="fill:none;stroke:#12100b;stroke-width:0.71px;"/><path id="LINE_4733_" d="M85.273,41.005l-0.212,-0.02" style="fill:none;stroke:#12100b;stroke-width:0.71px;"/><path id="LWPOLYLINE_5816_" d="M82.916,39.727l0.065,0.107l0.023,0.035l0.077,0.215l0.051,0.254l0.012,0.256" style="fill:none;stroke:#12100b;stroke-width:0.71px;"/><path id="LINE_4732_" d="M83.144,40.594l-0.035,0.844" style="fill:none;stroke:#12100b;stroke-width:0.71px;"/><path id="LWPOLYLINE_5815_" d="M68.732,59.948l0.005,0.046l0.005,0.051" style="fill:none;stroke:#12100b;stroke-width:0.71px;"/><path id="LINE_4731_" d="M73.682,40.475l-0.033,0.085" style="fill:none;stroke:#12100b;stroke-width:0.71px;"/><path id="LWPOLYLINE_5814_" d="M81.192,38.521l-0.362,0.023" style="fill:none;stroke:#12100b;stroke-width:0.71px;"/><path id="LINE_4730_" d="M73.199,40.344l0.041,-0.079" style="fill:none;stroke:#12100b;stroke-width:0.71px;"/><path id="LINE_4729_" d="M79.984,41.327l-0.069,1.237" style="fill:none;stroke:#12100b;stroke-width:0.71px;"/><path id="LINE_4728_" d="M79.984,41.316l0,0.011" style="fill:none;stroke:#12100b;stroke-width:0.71px;"/><path id="LWPOLYLINE_5813_" d="M80.158,40.366l-0.058,0.175l-0.053,0.242l-0.002,0.005l-0.039,0.267l-0.001,0.008l-0.013,0.13l-0.008,0.123" style="fill:none;stroke:#12100b;stroke-width:0.71px;"/><path id="LWPOLYLINE_5812_" d="M69.545,38.179l0.68,-0.685l0.347,-0.392l0.328,-0.398l0.356,-0.466" style="fill:none;stroke:#12100b;stroke-width:0.71px;"/><path id="LINE_4727_" d="M71.256,36.238l0.334,-0.47" style="fill:none;stroke:#12100b;stroke-width:0.71px;"/><path id="LINE_4726_" d="M71.59,35.768l-2.551,-1.223" style="fill:none;stroke:#12100b;stroke-width:0.71px;"/><path id="LINE_4725_" d="M64.263,39.039l2.55,1.221" style="fill:none;stroke:#12100b;stroke-width:0.71px;"/><path id="LWPOLYLINE_5811_" d="M69.039,34.545l-0.556,0.365l-0.54,0.377l-0.453,0.338l-0.439,0.349l-0.744,0.653" style="fill:none;stroke:#12100b;stroke-width:0.71px;"/><path id="LWPOLYLINE_5810_" d="M66.307,36.627l-0.679,0.686l-0.349,0.391l-0.327,0.398l-0.356,0.465l-0.333,0.472" style="fill:none;stroke:#12100b;stroke-width:0.71px;"/><path id="LINE_4724_" d="M66.813,40.26l0.556,-0.364" style="fill:none;stroke:#12100b;stroke-width:0.71px;"/><path id="LWPOLYLINE_5809_" d="M67.369,39.896l0.539,-0.377l0.454,-0.337l0.439,-0.349l0.744,-0.654" style="fill:none;stroke:#12100b;stroke-width:0.71px;"/><path id="LWPOLYLINE_5808_" d="M69.545,38.179l-0.67,0.721l-0.609,0.854l-0.504,0.937l-0.382,0.992l-0.249,1.012l-0.106,0.97" style="fill:none;stroke:#12100b;stroke-width:0.71px;"/><path id="LWPOLYLINE_5807_" d="M67.025,43.665l0.03,0.933l0.17,0.9l0.309,0.804l0.438,0.682l0.553,0.541l0.625,0.371" style="fill:none;stroke:#12100b;stroke-width:0.71px;"/><path id="LINE_4723_" d="M69.15,47.896l0.381,0.116" style="fill:none;stroke:#12100b;stroke-width:0.71px;"/><path id="LWPOLYLINE_5806_" d="M69.523,42.99l0.109,-0.721l0.259,-0.71l0.391,-0.648l0.494,-0.536l0.561,-0.385l0.585,-0.206l0.566,-0.011l0.506,0.185l0.408,0.366l0.012,0.024" style="fill:none;stroke:#12100b;stroke-width:0.71px;"/><path id="LWPOLYLINE_5805_" d="M69.783,44.254l-0.208,-0.586l-0.052,-0.678" style="fill:none;stroke:#12100b;stroke-width:0.71px;"/><path id="LWPOLYLINE_5804_" d="M76.205,39.793l-0.089,-0.471l-0.309,-0.803l-0.438,-0.683l-0.553,-0.541l-0.627,-0.371" style="fill:none;stroke:#12100b;stroke-width:0.71px;"/><path id="LWPOLYLINE_5803_" d="M74.189,36.924l-0.699,-0.212l-0.779,-0.045l-0.813,0.133l-0.82,0.307l-0.801,0.473l-0.732,0.599" style="fill:none;stroke:#12100b;stroke-width:0.71px;"/><path id="LWPOLYLINE_5802_" d="M66.813,40.26l0.086,0.656l0.068,0.652l0.041,0.559l0.024,0.557l-0.007,0.981" style="fill:none;stroke:#12100b;stroke-width:0.71px;"/><path id="LINE_4722_" d="M64,45.517l2.551,1.222" style="fill:none;stroke:#12100b;stroke-width:0.71px;"/><path id="LWPOLYLINE_5801_" d="M64.263,39.039l-0.136,0.549l-0.117,0.564l-0.084,0.498l-0.067,0.514l-0.072,0.949" style="fill:none;stroke:#12100b;stroke-width:0.71px;"/><path id="LWPOLYLINE_5800_" d="M63.787,42.113l-0.006,0.981l0.024,0.554l0.041,0.561l0.068,0.653l0.086,0.655" style="fill:none;stroke:#12100b;stroke-width:0.71px;"/><path id="LWPOLYLINE_5799_" d="M66.551,46.739l0.135,-0.549l0.117,-0.564l0.084,-0.501l0.066,-0.511l0.072,-0.949" style="fill:none;stroke:#12100b;stroke-width:0.71px;"/><path id="LWPOLYLINE_5798_" d="M74.189,36.924l-0.705,-0.311l-0.416,-0.185l-0.432,-0.193l-0.515,-0.23l-0.531,-0.237" style="fill:none;stroke:#12100b;stroke-width:0.71px;"/><path id="LWPOLYLINE_5797_" d="M66.551,46.739l0.53,0.238l0.516,0.23l0.432,0.192l0.416,0.186l0.705,0.311" style="fill:none;stroke:#12100b;stroke-width:0.71px;"/><path id="LWPOLYLINE_5796_" d="M70.545,40.626l0,0.011l-0.186,0.722l-0.328,0.686l-0.447,0.597l-0.01,0.007" style="fill:none;stroke:#12100b;stroke-width:0.71px;"/><path id="LINE_4721_" d="M76.104,37.752l-2.551,-1.223" style="fill:none;stroke:#12100b;stroke-width:0.71px;"/><path id="LWPOLYLINE_5795_" d="M70.951,35.372l-0.638,-0.279l-0.328,-0.143l-0.305,-0.132l-0.332,-0.141l-0.309,-0.132" style="fill:none;stroke:#12100b;stroke-width:0.71px;"/><path id="LWPOLYLINE_5794_" d="M74.189,36.924l0.641,0.28l0.326,0.142l0.307,0.133l0.33,0.141l0.311,0.132" style="fill:none;stroke:#12100b;stroke-width:0.71px;"/><path id="LWPOLYLINE_5793_" d="M73.553,36.529l-0.532,-0.238l-0.515,-0.229l-0.432,-0.193l-0.418,-0.185l-0.705,-0.312" style="fill:none;stroke:#12100b;stroke-width:0.71px;"/><path id="LWPOLYLINE_5792_" d="M76.305,39.767l-0.006,-0.15l-0.042,-0.557l-0.068,-0.654l-0.085,-0.654" style="fill:none;stroke:#12100b;stroke-width:0.71px;"/><path id="LINE_4720_" d="M69.15,47.896l0.378,0.165" style="fill:none;stroke:#12100b;stroke-width:0.71px;"/><path id="LWPOLYLINE_5791_" d="M91.469,74.4l0.035,-0.062l0.048,-0.249" style="fill:none;stroke:#12100b;stroke-width:0.71px;"/><path id="LWPOLYLINE_5790_" d="M87.088,75.258l0.706,0.051l0.185,0.005" style="fill:none;stroke:#12100b;stroke-width:0.71px;"/><path id="LWPOLYLINE_5789_" d="M84.193,73.939l0.026,0.121l0.273,0.364l0.548,0.332l0.776,0.271l0.945,0.19l0.327,0.041" style="fill:none;stroke:#12100b;stroke-width:0.71px;"/><path id="LWPOLYLINE_5788_" d="M87.979,75.314l0.855,-0.018l0.962,-0.116l0.807,-0.212l0.585,-0.288l0.281,-0.28" style="fill:none;stroke:#12100b;stroke-width:0.71px;"/><path id="LINE_4719_" d="M87.088,75.258l0.404,0.183" style="fill:none;stroke:#12100b;stroke-width:0.71px;"/><path id="LINE_4718_" d="M87.492,75.441l0.487,-0.127" style="fill:none;stroke:#12100b;stroke-width:0.71px;"/><path id="LINE_4717_" d="M83.789,73.755l-0.586,16.702" style="fill:none;stroke:#12100b;stroke-width:0.71px;"/><path id="LINE_4716_" d="M83.203,90.457l3.704,1.688" style="fill:none;stroke:#12100b;stroke-width:0.71px;"/><path id="LINE_4715_" d="M86.907,92.145l0.585,-16.704" style="fill:none;stroke:#12100b;stroke-width:0.71px;"/><path id="LINE_4714_" d="M86.907,92.145l4.464,-1.169" style="fill:none;stroke:#12100b;stroke-width:0.71px;"/><path id="LINE_4713_" d="M91.371,90.976l0.585,-16.703" style="fill:none;stroke:#12100b;stroke-width:0.71px;"/><path id="LINE_4712_" d="M91.956,74.273l-0.487,0.127" style="fill:none;stroke:#12100b;stroke-width:0.71px;"/><path id="LINE_4711_" d="M91.956,74.273l-0.404,-0.184" style="fill:none;stroke:#12100b;stroke-width:0.71px;"/><path id="LINE_4710_" d="M84.204,73.646l-0.415,0.109" style="fill:none;stroke:#12100b;stroke-width:0.71px;"/><path id="LWPOLYLINE_5787_" d="M74.131,127.781l-0.031,0.023l-0.459,0.454l-0.077,0.111l-0.207,0.3" style="fill:none;stroke:#12100b;stroke-width:0.71px;"/><path id="LWPOLYLINE_5786_" d="M77.301,130.004l-0.36,-0.197l-0.035,-0.02l-0.539,-0.379l-0.078,-0.079l-0.303,-0.309l-0.006,-0.007l-0.033,-0.06" style="fill:none;stroke:#12100b;stroke-width:0.71px;"/><path id="LWPOLYLINE_5785_" d="M87.635,113.457l-0.221,-0.011l-0.726,-0.05l-0.568,-0.041l-1.275,-0.143l-0.07,-0.011l-0.976,-0.15l-0.811,-0.16l-0.388,-0.078l-1.143,-0.284l-0.103,-0.031l-0.682,-0.205l-0.744,-0.268l-0.217,-0.078l-0.848,-0.38l-0.133,-0.072l-0.445,-0.245l-0.486,-0.333l-0.12,-0.083l-0.482,-0.439l-0.065,-0.082l-0.209,-0.262l-0.179,-0.352l-0.053,-0.103l-0.084,-0.455" style="fill:none;stroke:#12100b;stroke-width:0.71px;"/><path id="LWPOLYLINE_5784_" d="M73.357,128.669l0.033,0.376l0.021,0.255l0.015,0.165l0.158,0.228l0.272,0.395l0.111,0.159l0.109,0.082l0.653,0.491l0.154,0.116l0.084,0.063l0.629,0.335l0.386,0.151l0.082,0.032l1.141,0.447l0.085,0.021l0.481,0.126l1.088,0.285l0.274,0.071l0.642,0.108l0.826,0.138l0.779,0.131l0.35,0.03l0.723,0.064l1.346,0.118l0.36,0.005l0.222,0.002l1.879,0.022l0.089,-0.006l0.257,-0.016l1.695,-0.111l0.367,-0.023l0.298,-0.043l1.21,-0.175l0.79,-0.114l0.279,-0.067l0.692,-0.165l1.154,-0.274l0.244,-0.087l0.218,-0.077l1.086,-0.385l0.306,-0.16l0.113,-0.059l1.035,-0.54l0.032,-0.026l0.125,-0.102l0.741,-0.605l0.173,-0.142l0.095,-0.145l0.306,-0.47l0.232,-0.353l0.045,-0.152l0.059,-0.201l-0.004,-0.078l-0.033,-0.72l-0.004,-0.09l-0.006,-0.107l-0.303,-0.574" style="fill:none;stroke:#12100b;stroke-width:0.71px;"/><path id="LWPOLYLINE_5783_" d="M74.184,124.435l-0.065,0.061l-0.019,0.02l-0.364,0.346l-0.139,0.252l-0.028,0.049l-0.01,0.096l-0.051,0.492l-0.021,0.204l0.05,0.098l0.176,0.34l0.18,0.348l0.107,0.095l0.215,0.188l0.551,0.485l0.015,0.013l0.208,0.113l1.055,0.567l0.044,0.024l0.023,0.012l1.284,0.455l0.392,0.139l0.029,0.011l1.119,0.269l0.603,0.147l0.241,0.038l0.885,0.139l1.107,0.174l0.261,0.021l0.477,0.037l1.685,0.133l0.242,0.001l0.026,0l1.945,0.006l0.243,0.001l0.261,-0.012l0.36,-0.017l1.079,-0.099l0.965,-0.09l0.333,-0.031l0.588,-0.104l1.351,-0.237l0.317,-0.056l0.124,-0.033l1.621,-0.442l0.013,-0.003l0.038,-0.011" style="fill:none;stroke:#12100b;stroke-width:0.71px;"/><path id="LWPOLYLINE_5782_" d="M93.7,128.674l1.329,-0.539l0.066,-0.027l0.303,-0.123l0.779,-0.481l0.286,-0.177l0.237,-0.146l0.369,-0.374l0.372,-0.377l0.164,-0.166l0.123,-0.202l0.104,-0.171l0.107,-0.442l0.044,-0.18l0.092,-0.376l-0.081,-0.317l-0.029,-0.112l-0.145,-0.565l-0.13,-0.174" style="fill:none;stroke:#12100b;stroke-width:0.71px;"/><path id="LWPOLYLINE_5781_" d="M74.273,121.146l-0.035,0.035l-0.035,0.036l-0.209,0.215l-0.196,0.396l-0.062,0.124l-0.129,0.26l0.038,0.245l0.043,0.287l0.039,0.262l0.072,0.094l0.326,0.425l0.162,0.212l0.051,0.067l0.688,0.485l0.077,0.055l0.303,0.214l0.765,0.345l0.205,0.093l0.524,0.237l0.565,0.175l0.609,0.188l0.364,0.113l0.566,0.119l1.113,0.235l0.379,0.08l0.213,0.027l1.681,0.212l0.173,0.022l0.253,0.032l1.684,0.085l0.325,0.015l0.445,0.023l0.763,0l0.426,-0.021l0.405,-0.02l1.553,-0.077l0.809,-0.101l1.08,-0.137l0.434,-0.055l0.77,-0.161l0.573,-0.119l0.56,-0.117l0.94,-0.297l0.104,-0.032l0.882,-0.279l0.532,-0.255l0.025,-0.013l0.976,-0.468l0.186,-0.138l0.227,-0.168l0.707,-0.525l0.027,-0.02l0.315,-0.338l0.019,-0.02l0.21,-0.38l0.321,-0.58l0.011,-0.019l0.007,-0.184l0.027,-0.791l0.001,-0.017l0,-0.012l-0.336,-0.734" style="fill:none;stroke:#12100b;stroke-width:0.71px;"/><path id="LWPOLYLINE_5780_" d="M74.439,117.892l-0.037,0.041l-0.037,0.042l-0.449,0.49l-0.016,0.066l-0.05,0.21l-0.1,0.424l-0.021,0.093l0.107,0.275l0.109,0.275l0.096,0.245l0.277,0.275l0.116,0.113l0.387,0.386l0.379,0.224l0.064,0.038l0.796,0.47l0.162,0.064l0.419,0.167l0.806,0.32l0.073,0.02l0.564,0.154l0.983,0.268l0.269,0.073l0.725,0.127l0.728,0.129l0.715,0.126l0.805,0.078l0.322,0.031l1.264,0.121l0.655,0.03l0.179,0.007l0.079,0.004l1.712,-0.012l0.353,-0.003l0.368,-0.003l1.226,-0.102l0.778,-0.064l0.362,-0.031l0.75,-0.123l1.176,-0.194l0.374,-0.061l0.245,-0.065l1.481,-0.393l0.155,-0.041l0.18,-0.048l1.22,-0.495l0.19,-0.078l0.289,-0.117l0.704,-0.426l0.392,-0.236l0.084,-0.051l0.426,-0.408l0.463,-0.441l0.063,-0.06l0.12,-0.244l0.289,-0.582l0.079,-0.159l-0.001,-0.042l-0.016,-0.8l0,-0.009l-0.003,-0.153l-0.087,-0.259l-0.232,-0.366" style="fill:none;stroke:#12100b;stroke-width:0.71px;"/><path id="LWPOLYLINE_5779_" d="M74.564,114.609l-0.025,0.03l-0.111,0.134l-0.387,0.467l-0.043,0.051l-0.04,0.254l-0.052,0.329l-0.034,0.212l0.03,0.123l0.021,0.084l0.138,0.221l0.298,0.478l0.057,0.09l0.088,0.07l0.761,0.607l0.008,0.007l0.101,0.081l0.948,0.486l0.264,0.136l0.01,0.003l1.039,0.361l0.469,0.162l0.202,0.07l0.844,0.196l0.921,0.212l0.241,0.055l0.534,0.076l1.465,0.21l0.273,0.04l0.09,0.007l0.817,0.074l1.122,0.042l0.125,0.003l1.204,0.045l0.629,-0.023l0.585,-0.023l1.198,-0.046l0.177,-0.021l0.989,-0.114l0.911,-0.106l0.305,-0.035l1.06,-0.216l0.413,-0.085l0.729,-0.148l0.746,-0.237l0.148,-0.047l1.029,-0.327l0.416,-0.196l0.187,-0.088l0.738,-0.346l0.263,-0.185l0.36,-0.253l0.572,-0.401l0.027,-0.031l0.375,-0.454l0.247,-0.298l0.132,-0.16l0.152,-0.519l0.032,-0.107l0.11,-0.373l-0.011,-0.29l-0.05,-0.141l-0.03,-0.087l-0.253,-0.725l-0.013,-0.035l-0.011,-0.015" style="fill:none;stroke:#12100b;stroke-width:0.71px;"/><path id="LWPOLYLINE_5778_" d="M74.705,111.359l-0.1,0.079l-0.142,0.109l-0.23,0.406l-0.143,0.253l-0.069,0.119l-0.033,0.253l0.09,0.32l0.091,0.326l0.04,0.141l0.279,0.316l0.158,0.177l0.251,0.285l0.458,0.306l0.036,0.023l0.474,0.317l0.563,0.249l0.269,0.119l0.68,0.302l0.315,0.093l0.683,0.201l0.816,0.24l0.026,0.008l1.14,0.22l0.553,0.107l0.418,0.081l0.873,0.118l0.396,0.033l0.146,0.012l1.876,0.155l0.043,0l0.121,0.001l1.85,0.01l0.443,0.003l0.156,-0.011l1.352,-0.094l0.905,-0.064l0.119,-0.017l0.871,-0.131l1.305,-0.195l0.095,-0.024l0.396,-0.098l1.62,-0.397l0.046,-0.018l0.035,-0.011l1.41,-0.516l0.028,-0.01l0.289,-0.155l0.859,-0.46l0.28,-0.151l0.21,-0.178l0.429,-0.363l0.404,-0.342l0.046,-0.072l0.202,-0.33l0.351,-0.571l0.021,-0.076l0.034,-0.131l0.037,-0.139l-0.052,-0.669l-0.005,-0.067l-0.02,-0.259l-0.27,-0.482l-0.013,-0.024" style="fill:none;stroke:#12100b;stroke-width:0.71px;"/><path id="LWPOLYLINE_5777_" d="M76.553,107.094l-0.299,0.102l-0.461,0.255l-0.114,0.065l-0.579,0.321l-0.225,0.226l-0.07,0.071l-0.44,0.443l-0.041,0.079l-0.113,0.22l-0.001,0.018l-0.024,0.395l-0.024,0.379l0.008,0.014l0.137,0.248l0.291,0.524l0.016,0.014l0.118,0.099l0.729,0.619l0.056,0.046l0.005,0.004l0.988,0.517l0.237,0.124l0.126,0.065" style="fill:none;stroke:#12100b;stroke-width:0.71px;"/><path id="LWPOLYLINE_5776_" d="M76.873,111.942l0.92,0.318l0.646,0.223l0.161,0.056l0.683,0.16l1.063,0.25l0.068,0.011l0.562,0.085l1.621,0.246l0.048,0.004l0.152,0.011l1.928,0.141l0.3,0.023l2.281,0l0.215,-0.009l0.114,-0.004" style="fill:none;stroke:#12100b;stroke-width:0.71px;"/><path id="LINE_4709_" d="M85.909,131.442l-0.431,0.009" style="fill:none;stroke:#12100b;stroke-width:0.71px;"/><path id="LWPOLYLINE_5775_" d="M78.486,130.493l-0.421,-0.152l-0.235,-0.104l-0.529,-0.233" style="fill:none;stroke:#12100b;stroke-width:0.71px;"/><path id="LWPOLYLINE_5774_" d="M76.604,109.129l-0.009,-0.027l-0.097,-0.293" style="fill:none;stroke:#12100b;stroke-width:0.71px;"/><path id="LWPOLYLINE_5773_" d="M95.357,112.713l-0.447,0.359l-0.047,0.028l-0.2,0.119l-0.475,0.283l-0.505,0.23l-0.346,0.159l-0.1,0.035l-0.716,0.252l-0.151,0.053l-1.065,0.29l-0.111,0.023l-0.05,0.011l-0.988,0.201l-0.424,0.062l-0.786,0.115l-0.222,0.021l-0.536,0.05l-0.496,0.046l-1.092,0.049l-0.184,0.007l-0.274,-0.001l-1.003,-0.002l-0.134,-0.007l-1.124,-0.057l-0.309,-0.03l-0.129,-0.013l-0.78,-0.077l-0.711,-0.106l-0.446,-0.068l-0.314,-0.065l-0.622,-0.13l-0.142,-0.029l-0.982,-0.27l-0.102,-0.037l-0.182,-0.065l-0.584,-0.208l-0.273,-0.127l-0.467,-0.215l-0.219,-0.135l-0.154,-0.095l-0.227,-0.14l-0.396,-0.34l-0.056,-0.048l-0.118,-0.162l-0.037,-0.05" style="fill:none;stroke:#12100b;stroke-width:0.71px;"/><path id="LWPOLYLINE_5772_" d="M95.255,115.965l-0.523,0.406l-0.019,0.016l-0.144,0.083l-0.59,0.343l-0.387,0.171l-0.477,0.212l-0.006,0.002l-0.675,0.234l-0.295,0.101l-1.022,0.271l-0.054,0.014l-0.049,0.01l-1.105,0.219l-0.249,0.035l-0.967,0.137l-0.101,0.009l-0.476,0.042l-0.68,0.059l-0.908,0.036l-0.369,0.015l-0.15,-0.001l-1.076,-0.008l-0.051,-0.001l-1.255,-0.069l-0.188,-0.019l-0.07,-0.008l-0.955,-0.098l-0.538,-0.084l-0.612,-0.096l-0.206,-0.044l-0.566,-0.121l-0.298,-0.063l-0.944,-0.267l-0.026,-0.008l-0.198,-0.071l-0.659,-0.241l-0.162,-0.077l-0.564,-0.269l-0.158,-0.1l-0.122,-0.077l-0.307,-0.195l-0.319,-0.285l-0.118,-0.106l-0.084,-0.123l-0.045,-0.063" style="fill:none;stroke:#12100b;stroke-width:0.71px;"/><path id="LWPOLYLINE_5771_" d="M95.117,119.24l-0.523,0.395l-0.079,0.059l-0.037,0.021l-0.711,0.401l-0.264,0.114l-0.53,0.231l-0.08,0.035l-0.545,0.183l-0.443,0.148l-0.871,0.225l-0.153,0.04l-0.059,0.014l-1.162,0.224l-0.072,0.01l-1.128,0.153l-0.021,0.003l-0.394,0.032l-0.865,0.073l-0.722,0.025l-0.556,0.02l-0.026,0l-1.014,-0.013l-0.235,-0.003l-1.252,-0.074l-0.07,-0.008l-0.012,-0.001l-1.125,-0.122l-0.369,-0.06l-0.776,-0.125l-0.101,-0.022l-0.51,-0.113l-0.449,-0.098l-0.795,-0.231l-0.164,-0.047l-0.113,-0.042l-0.732,-0.274l-0.055,-0.027l-0.659,-0.322l-0.097,-0.064l-0.092,-0.06l-0.383,-0.25l-0.247,-0.229l-0.175,-0.162l-0.055,-0.084l-0.044,-0.07" style="fill:none;stroke:#12100b;stroke-width:0.71px;"/><path id="LWPOLYLINE_5770_" d="M94.982,122.507l-0.045,0.047l-0.48,0.35l-0.082,0.06l-0.062,0.046" style="fill:none;stroke:#12100b;stroke-width:0.71px;"/><path id="LWPOLYLINE_5769_" d="M94.313,123.01l-0.761,0.418l-0.136,0.056l-0.58,0.246l-0.17,0.073l-0.403,0.132l-0.594,0.194l-0.717,0.18l-0.207,0.052l-0.168,0.041l-1.063,0.2l-0.104,0.019l-1.085,0.141l-0.139,0.018l-0.211,0.017l-1.051,0.082l-0.536,0.017l-0.646,0.019l-0.096,0.003l-0.854,-0.015l-0.42,-0.007l-1.151,-0.073l-0.05,-0.004l-0.047,-0.003l-1.202,-0.135l-0.202,-0.035l-0.933,-0.155l-0.456,-0.103l-0.596,-0.134l-0.651,-0.193l-0.298,-0.089l-0.033,-0.013l-0.745,-0.286l-0.054,-0.021l-0.701,-0.351l-0.044,-0.03l-0.063,-0.041l-0.452,-0.304l-0.18,-0.176l-0.226,-0.218l-0.029,-0.047l-0.054,-0.088" style="fill:none;stroke:#12100b;stroke-width:0.71px;"/><path id="LWPOLYLINE_5768_" d="M94.821,125.793l-0.069,0.069l-0.431,0.306l-0.052,0.037l-0.154,0.109l-0.774,0.415l-0.01,0.003l-0.631,0.261l-0.257,0.107l-0.262,0.084l-0.744,0.238l-0.565,0.138l-0.262,0.063l-0.274,0.067l-0.9,0.164l-0.274,0.048l-0.971,0.121l-0.259,0.034l-0.028,0.002l-1.237,0.09l-0.35,0.009l-0.707,0.019l-0.222,0.006l-0.666,-0.015l-0.607,-0.013l-0.966,-0.066l-0.109,-0.008l-0.169,-0.012l-1.197,-0.141l-0.035,-0.006l-0.983,-0.169l-0.111,-0.02l-0.297,-0.069l-0.745,-0.173l-0.504,-0.153l-0.378,-0.115l-0.057,-0.018l-0.645,-0.254l-0.175,-0.068l-0.671,-0.346l-0.016,-0.009l-0.022,-0.014l-0.521,-0.364l-0.116,-0.116l-0.275,-0.278l-0.004,-0.006l-0.043,-0.075" style="fill:none;stroke:#12100b;stroke-width:0.71px;"/><path id="LWPOLYLINE_5767_" d="M94.675,129.063l-0.286,0.25l-0.2,0.125l-0.023,0.015l-0.499,0.315l-0.444,0.211l-0.423,0.201l-0.231,0.084l-0.476,0.174l-0.293,0.105l-1.001,0.277l-0.113,0.032l-0.207,0.043l-0.954,0.197l-0.163,0.023l-0.977,0.146l-0.325,0.032l-0.232,0.023l-0.623,0.062l-0.96,0.048l-0.336,0.016" style="fill:none;stroke:#12100b;stroke-width:0.71px;"/><path id="LWPOLYLINE_5766_" d="M85.478,131.451l-0.212,0.001l-0.616,-0.013l-0.591,-0.011l-0.983,-0.065l-0.17,-0.01l-0.093,-0.007l-1.201,-0.139l-0.051,-0.008l-1.04,-0.176l-0.042,-0.006l-0.315,-0.073l-0.733,-0.168l-0.521,-0.155l-0.424,-0.128" style="fill:none;stroke:#12100b;stroke-width:0.71px;"/><path id="LINE_4708_" d="M76.607,109.141l-0.003,-0.012" style="fill:none;stroke:#12100b;stroke-width:0.71px;"/><path id="LWPOLYLINE_5765_" d="M98.699,109.188l-0.045,0.47l-0.023,0.254" style="fill:none;stroke:#12100b;stroke-width:0.71px;"/><path id="LWPOLYLINE_5764_" d="M98.342,110.451l-0.238,0.442l-0.342,0.313l-0.64,0.583l-0.213,0.121l-1.121,0.639l-0.015,0.008l-1.402,0.526l-0.377,0.142l-1.228,0.3l-0.889,0.218l-0.864,0.134l-1.158,0.18l-0.721,0.057l-1.646,0.131l-0.298,0.002l-1.972,0.008l-0.176,0.001l-1.757,-0.127l-0.674,-0.049l-1.177,-0.176l-1.055,-0.158l-0.679,-0.162l-1.307,-0.312l-0.265,-0.094l-1.362,-0.49l-0.069,-0.024l-1.008,-0.538l-0.199,-0.106l-0.595,-0.501l-0.317,-0.267l-0.206,-0.365l-0.238,-0.421" style="fill:none;stroke:#12100b;stroke-width:0.71px;"/><path id="LWPOLYLINE_5763_" d="M98.479,113.241l-0.252,0.438l-0.312,0.54l-0.24,0.219l-0.62,0.564l-0.242,0.143l-1.107,0.646l-1.409,0.542l-0.347,0.134l-1.253,0.314l-0.844,0.211l-0.907,0.14l-1.365,0.211l-0.503,0.037l-1.875,0.14l-0.069,0l-1.972,-0.002l-0.411,-0.001l-1.525,-0.113l-0.669,-0.049l-1.186,-0.174l-1.074,-0.159l-0.666,-0.157l-1.326,-0.312l-0.254,-0.09l-1.371,-0.486l-0.065,-0.023l-1.006,-0.54l-0.326,-0.176l-0.49,-0.427l-0.391,-0.342l-0.152,-0.289l-0.262,-0.497l0.008,-0.145" style="fill:none;stroke:#12100b;stroke-width:0.71px;"/><path id="LWPOLYLINE_5762_" d="M98.371,116.127l-0.009,0.328l-0.253,0.461l-0.284,0.52l-0.264,0.24l-0.716,0.65l-0.113,0.064l-1.128,0.64l-0.138,0.079l-1.252,0.468l-0.525,0.196l-1.053,0.263l-0.844,0.21l-0.908,0.142l-1.379,0.216l-0.484,0.037l-1.892,0.144l-0.052,0l-1.972,0.002l-0.406,0l-1.528,-0.113l-0.901,-0.068l-0.961,-0.147l-1.284,-0.195l-0.466,-0.114l-1.506,-0.365l-0.092,-0.032l-1.369,-0.487l-0.029,-0.01l-1.051,-0.552l-0.302,-0.158l-0.522,-0.444l-0.383,-0.325l-0.17,-0.304l-0.269,-0.481" style="fill:none;stroke:#12100b;stroke-width:0.71px;"/><path id="LWPOLYLINE_5761_" d="M98.21,119.788l-0.205,0.367l-0.287,0.517l-0.263,0.243l-0.714,0.658l-0.101,0.058l-1.12,0.643l-0.149,0.085l-1.231,0.467l-0.519,0.195l-1.059,0.262l-1.047,0.259l-0.69,0.104l-1.605,0.243l-0.255,0.018l-1.946,0.139l-0.178,0.013l-1.792,0.001l-0.353,0l-1.585,-0.113l-0.849,-0.059l-1.016,-0.151l-1.242,-0.184l-0.513,-0.122l-1.471,-0.349l-0.132,-0.045l-1.314,-0.453l-0.06,-0.031l-1.104,-0.557l-0.226,-0.115l-0.606,-0.487l-0.343,-0.278l-0.214,-0.351l-0.271,-0.448l0.002,-0.194" style="fill:none;stroke:#12100b;stroke-width:0.71px;"/><path id="LWPOLYLINE_5760_" d="M98.135,122.027l-0.028,0.573l-0.02,0.422l-0.208,0.37l-0.345,0.61l-0.173,0.154l-0.808,0.719l-0.023,0.021l-1.108,0.619l-0.284,0.159l-1.067,0.402l-0.48,0.182l-1.098,0.277l-0.995,0.252l-0.736,0.114l-1.552,0.242l-0.305,0.023l-1.943,0.147l-0.123,0.008l-1.847,0.012l-0.205,0.001l-1.736,-0.111l-0.705,-0.045l-1.162,-0.163l-1.118,-0.159l-0.638,-0.146l-1.407,-0.322l-0.201,-0.07l-1.386,-0.48l-0.137,-0.047l-0.967,-0.508l-0.386,-0.203l-0.465,-0.395l-0.44,-0.372l-0.143,-0.255l-0.294,-0.531l0.005,-0.112" style="fill:none;stroke:#12100b;stroke-width:0.71px;"/><path id="LWPOLYLINE_5759_" d="M97.99,125.837l-0.02,0.401l-0.21,0.391l-0.317,0.591l-0.191,0.175l-0.79,0.722l-1.123,0.643l-0.249,0.142l-1.09,0.424l-0.367,0.144l-1.208,0.317l-0.859,0.227l-0.87,0.141l-1.406,0.23l-0.445,0.037l-1.938,0.158l-0.027,0.002l-1.944,0.01l-0.506,0.003l-1.434,-0.102l-1.002,-0.07l-0.873,-0.13l-1.383,-0.205l-0.386,-0.092l-1.6,-0.379l-0.022,-0.008l-1.366,-0.488l-0.311,-0.111l-0.809,-0.438l-0.514,-0.279l-0.369,-0.314l-0.417,-0.356l-0.161,-0.273l-0.303,-0.513" style="fill:none;stroke:#12100b;stroke-width:0.71px;"/><path id="LWPOLYLINE_5758_" d="M97.817,129.572l-0.168,0.295l-0.391,0.684l-0.097,0.085l-0.813,0.718l-0.103,0.091l-0.982,0.561l-0.199,0.113l-1.156,0.448l-0.589,0.228l-0.963,0.243l-1.128,0.285l-0.589,0.092l-1.696,0.264l-0.152,0.011l-1.944,0.147l-0.267,0.02l-1.7,-0.001l-0.755,-0.001l-0.189,-0.007" style="fill:none;stroke:#12100b;stroke-width:0.71px;"/><path id="LWPOLYLINE_5757_" d="M96.463,107.152l0.252,0.127l0.328,0.207l0.309,0.195l0.097,0.071l0.475,0.399l0.073,0.062l0.418,0.479l0.103,0.179l0.181,0.317" style="fill:none;stroke:#12100b;stroke-width:0.71px;"/><path id="LINE_4707_" d="M84.884,133.867l0.365,0.008" style="fill:none;stroke:#12100b;stroke-width:0.71px;"/><path id="LWPOLYLINE_5756_" d="M73.357,128.669l0.011,0.711l0.163,0.449l0.281,0.443l0.382,0.426l0.484,0.41l0.611,0.413l0.721,0.395l0.813,0.366l0.898,0.335l0.967,0.3l1.042,0.269l1.965,0.385l1.104,0.157l1.137,0.12" style="fill:none;stroke:#12100b;stroke-width:0.71px;"/><path id="LWPOLYLINE_5755_" d="M98.699,109.188l-0.065,0.65l-0.199,0.443l-0.323,0.432l-0.435,0.408l-0.543,0.385l-0.624,0.347l-0.721,0.32l-0.844,0.301l-0.931,0.262l-1.026,0.228l-1.088,0.184l-0.99,0.127l-1.027,0.095l-1.113,0.063l-1.135,0.024" style="fill:none;stroke:#12100b;stroke-width:0.71px;"/><path id="LWPOLYLINE_5754_" d="M96.374,109.337l-0.388,0.932l-1.038,0.838l-1.619,0.691l-2.089,0.494l-2.417,0.265l-2.58,0.016l-2.566,-0.233l-2.38,-0.466l-2.029,-0.667l-1.541,-0.823l-0.948,-0.923l-0.172,-0.32" style="fill:none;stroke:#12100b;stroke-width:0.71px;"/><path id="LWPOLYLINE_5753_" d="M79.645,97.082l1.201,-0.692l1.736,-0.51l2.115,-0.282l2.307,-0.032l2.294,0.225l2.077,0.459l1.676,0.653l1.125,0.789l0.475,0.856l-0.217,0.845l-0.892,0.76l-1.484,0.607l-1.948,0.402l-2.236,0.158l-1.165,-0.016l-1.161,-0.081l-2.21,-0.346l-1.899,-0.563l-1.416,-0.729l-0.808,-0.832l-0.131,-0.859l0.561,-0.812Z" style="fill:none;stroke:#12100b;stroke-width:0.71px;"/><path id="LWPOLYLINE_5752_" d="M87.537,109.616l2.236,-0.159l1.948,-0.4l1.485,-0.608l0.891,-0.761l0.217,-0.844" style="fill:none;stroke:#12100b;stroke-width:0.71px;"/><path id="LWPOLYLINE_5751_" d="M78.748,106.189l0.13,0.86l0.81,0.832l1.416,0.729l1.897,0.563l2.21,0.346l1.162,0.081l1.164,0.016" style="fill:none;stroke:#12100b;stroke-width:0.71px;"/><path id="LINE_4706_" d="M83.902,97.202l6.022,0.253" style="fill:none;stroke:#12100b;stroke-width:0.71px;"/><path id="LINE_4705_" d="M89.924,97.455l-0.113,2.213" style="fill:none;stroke:#12100b;stroke-width:0.71px;"/><path id="LINE_4704_" d="M83.789,99.415l0.113,-2.213" style="fill:none;stroke:#12100b;stroke-width:0.71px;"/><path id="LINE_4703_" d="M89.811,99.668l-6.022,-0.253" style="fill:none;stroke:#12100b;stroke-width:0.71px;"/><path id="LWPOLYLINE_5750_" d="M94.396,104.823l0.829,0.443l0.948,0.922l0.29,0.96l-0.388,0.932l-1.038,0.84l-1.619,0.69l-2.089,0.494l-2.417,0.264l-2.58,0.017l-2.566,-0.233l-2.379,-0.465l-2.03,-0.667l-1.542,-0.825l-0.948,-0.923l-0.289,-0.959l0.387,-0.932l1.039,-0.839l0.825,-0.353" style="fill:none;stroke:#12100b;stroke-width:0.71px;"/><path id="LWPOLYLINE_5749_" d="M94.027,133.808l1.038,-0.84l0.388,-0.932" style="fill:none;stroke:#12100b;stroke-width:0.71px;"/><path id="LWPOLYLINE_5748_" d="M75.74,131.769l0.118,0.391l0.949,0.924l1.541,0.822l2.029,0.668l2.379,0.466l2.566,0.232l2.58,-0.016l2.417,-0.264l2.089,-0.494l1.619,-0.69" style="fill:none;stroke:#12100b;stroke-width:0.71px;"/><path id="LINE_4702_" d="M83.813,99.416l0.089,-2.214" style="fill:none;stroke:#12100b;stroke-width:0.71px;"/><path id="LWPOLYLINE_5747_" d="M85.026,142.783l1.165,0.017l2.237,-0.158l1.947,-0.402l1.484,-0.607l0.892,-0.76l0.218,-0.846" style="fill:none;stroke:#12100b;stroke-width:0.71px;"/><path id="LWPOLYLINE_5746_" d="M77.402,139.373l0.129,0.859l0.81,0.832l1.417,0.73l1.896,0.562l2.211,0.346l1.161,0.081" style="fill:none;stroke:#12100b;stroke-width:0.71px;"/><path id="LWPOLYLINE_5745_" d="M82.764,38.82c0,0 1.492,1.961 6.662,1.99c5.474,0.03 6.554,-1.367 6.554,-1.367c0.229,-4.629 0.414,-9.262 0.521,-13.896" style="fill:none;stroke:#12100b;stroke-width:0.71px;"/><path id="LINE_4700_" d="M82.621,39.058l0.356,-7.223" style="fill:none;stroke:#12100b;stroke-width:0.71px;"/><path id="LINE_4699_" d="M82.966,32.289c0.097,-3.918 0.195,-7.836 0.292,-11.754" style="fill:none;stroke:#12100b;stroke-width:0.71px;"/><path id="LINE_4698_" d="M98.997,55.89l0.018,-0.035" style="fill:none;stroke:#12100b;stroke-width:0.71px;"/><path id="LINE_4697_" d="M99.566,54.552l-0.045,0.114" style="fill:none;stroke:#12100b;stroke-width:0.71px;"/><path id="LINE_4696_" d="M89.179,57.482l3.764,1.804" style="fill:none;stroke:#12100b;stroke-width:0.71px;"/><path id="LINE_4695_" d="M93.898,46.381l3.766,1.804" style="fill:none;stroke:#12100b;stroke-width:0.71px;"/><path id="LINE_4694_" d="M86.918,53.417l-3.904,-1.872" style="fill:none;stroke:#12100b;stroke-width:0.71px;"/><path id="LINE_4693_" d="M89.794,47.396l-3.414,-1.636" style="fill:none;stroke:#12100b;stroke-width:0.71px;"/><path id="LWPOLYLINE_5743_" d="M76.1,45.129l-0.028,0.371l-0.033,0.374l-0.004,0.046l-0.023,0.332" style="fill:none;stroke:#12100b;stroke-width:0.71px;"/><path id="LINE_4692_" d="M76.012,46.252l-0.34,5.681" style="fill:none;stroke:#12100b;stroke-width:0.71px;"/><path id="LINE_4690_" d="M76.715,43.308l5.942,-1.38" style="fill:none;stroke:#12100b;stroke-width:0.71px;"/><path id="LINE_4689_" d="M85.617,45.477l0.05,0.021" style="fill:none;stroke:#12100b;stroke-width:0.71px;"/><path id="LINE_4688_" d="M100.204,39.779l-0.03,11.254" style="fill:none;stroke:#12100b;stroke-width:0.71px;"/><path id="LINE_4687_" d="M100.192,40.288l-0.028,16.746" style="fill:none;stroke:#12100b;stroke-width:0.71px;"/><path id="LWPOLYLINE_5740_" d="M74.938,60.688l0.532,-8.858l0.487,-7.868" style="fill:none;stroke:#12100b;stroke-width:0.71px;"/><path id="LWPOLYLINE_5739_" d="M106.833,59.385l-0.046,-0.238l-0.285,-1.049l-0.719,-1.035l-0.131,-0.187l-1.125,-0.989l-1.509,-0.928l-0.168,-0.09l-1.836,-0.833l-0.844,-0.289" style="fill:none;stroke:#12100b;stroke-width:0.71px;"/><path id="LWPOLYLINE_5738_" d="M76.404,43.411l0.155,-0.059l0.156,-0.044" style="fill:none;stroke:#12100b;stroke-width:0.71px;"/><path id="LWPOLYLINE_5737_" d="M75.957,43.962l0.05,-0.199l0.124,-0.175l0.07,-0.067" style="fill:none;stroke:#12100b;stroke-width:0.71px;"/><path id="LWPOLYLINE_5736_" d="M76.201,43.521l0.156,-0.097l0.039,-0.01" style="fill:none;stroke:#12100b;stroke-width:0.71px;"/><path id="LWPOLYLINE_5735_" d="M106.833,59.385l-0.081,4.075l-0.026,0.13" style="fill:none;stroke:#12100b;stroke-width:0.71px;"/><path id="LWPOLYLINE_5734_" d="M100.204,39.779l-0.048,-0.231l-0.418,-0.806l-0.132,-0.183l-0.825,-0.764l-1.205,-0.702l-0.159,-0.085l-1.29,-0.514" style="fill:none;stroke:#12100b;stroke-width:0.71px;"/><path id="LWPOLYLINE_5733_" d="M82.775,35.92l-0.517,0.118l-1.442,0.521l-0.175,0.075l-1.126,0.638l-0.63,0.592" style="fill:none;stroke:#12100b;stroke-width:0.71px;"/><path id="LINE_4686_" d="M78.918,37.832l-0.119,0.104" style="fill:none;stroke:#12100b;stroke-width:0.71px;"/><path id="LWPOLYLINE_5732_" d="M106.539,64.508l-0.057,0.237l-0.653,1.005l-0.145,0.185l-1.072,0.932l-1.466,0.846l-0.184,0.085l-1.806,0.729l-2.119,0.606l-2.38,0.468l-2.583,0.317l-2.723,0.159l-2.799,-0.002l-2.805,-0.163l-2.744,-0.32l-2.103,-0.364" style="fill:none;stroke:#12100b;stroke-width:0.71px;"/><path id="LWPOLYLINE_5731_" d="M74.794,69.684l0.533,-0.235l0.714,-0.207l0.746,-0.138l0.726,-0.078l0.85,-0.034l0.78,0.018l0.861,0.075l0.896,0.143" style="fill:none;stroke:#12100b;stroke-width:0.71px;"/><path id="LINE_4685_" d="M81.139,64.112l-0.092,0.199" style="fill:none;stroke:#12100b;stroke-width:0.71px;"/><path id="LWPOLYLINE_5730_" d="M81.046,64.313l0.093,-0.201" style="fill:none;stroke:#12100b;stroke-width:0.71px;"/><path id="LINE_4684_" d="M81.245,63.983l-0.102,0.125" style="fill:none;stroke:#12100b;stroke-width:0.71px;"/><path id="LWPOLYLINE_5729_" d="M81.139,64.112l0.106,-0.129" style="fill:none;stroke:#12100b;stroke-width:0.71px;"/><path id="LINE_4683_" d="M100.165,56.37l0.139,0.673" style="fill:none;stroke:#12100b;stroke-width:0.71px;"/><path id="LINE_4682_" d="M100.237,56.72l0.118,0.164" style="fill:none;stroke:#12100b;stroke-width:0.71px;"/><path id="LINE_4681_" d="M85.061,40.985l-2.905,0.674" style="fill:none;stroke:#12100b;stroke-width:0.71px;"/><path id="LWPOLYLINE_5728_" d="M71.745,40.611l-0.518,0.208l-0.098,0.05l-0.617,0.516l-0.445,0.719l-0.194,0.798" style="fill:none;stroke:#12100b;stroke-width:0.71px;"/><path id="LINE_4680_" d="M69.873,42.902l-1.141,17.046" style="fill:none;stroke:#12100b;stroke-width:0.71px;"/><path id="LINE_4679_" d="M73.682,40.475l7.148,-1.931" style="fill:none;stroke:#12100b;stroke-width:0.71px;"/><path id="LINE_4678_" d="M71.745,40.611l1.495,-0.346" style="fill:none;stroke:#12100b;stroke-width:0.71px;"/><path id="LINE_4677_" d="M73.24,40.265l0.442,0.211" style="fill:none;stroke:#12100b;stroke-width:0.71px;"/><path id="LWPOLYLINE_5727_" d="M73.681,40.476l-0.482,-0.132l0.483,0.131" style="fill:none;stroke:#12100b;stroke-width:0.71px;"/><path id="LINE_4676_" d="M101.59,68.864l0.03,-0.524" style="fill:none;stroke:#12100b;stroke-width:0.71px;"/><path id="LWPOLYLINE_5726_" d="M75.162,69.521l0.121,0.243l0.264,0.376l1.431,1.126l0.354,0.193l2.094,0.95l2.664,0.749l3.059,0.499l3.251,0.216l3.228,-0.081l2.468,-0.284l2.646,-0.595l2.071,-0.828l0.373,-0.171l1.401,-1.042l0.294,-0.356l0.582,-1.186l0.127,-0.466" style="fill:none;stroke:#12100b;stroke-width:0.71px;"/><path id="LINE_4675_" d="M84.193,73.939l0.017,-0.435" style="fill:none;stroke:#12100b;stroke-width:0.71px;"/><path id="LINE_4674_" d="M91.552,74.089l0.009,-0.296" style="fill:none;stroke:#12100b;stroke-width:0.71px;"/><path id="LINE_4673_" d="M84.125,133.855l0.759,0.012" style="fill:none;stroke:#12100b;stroke-width:0.71px;"/><path id="LWPOLYLINE_5723_" d="M88.791,133.69l-1.021,0.078l-0.923,0.069" style="fill:none;stroke:#12100b;stroke-width:0.71px;"/><path id="LINE_4672_" d="M86.58,133.857l-1.331,0.018" style="fill:none;stroke:#12100b;stroke-width:0.71px;"/><path id="LINE_4671_" d="M98.287,118.841l-0.077,0.947" style="fill:none;stroke:#12100b;stroke-width:0.71px;"/><path id="LWPOLYLINE_5722_" d="M98.342,110.451l0.093,-0.17l0.196,-0.369" style="fill:none;stroke:#12100b;stroke-width:0.71px;"/><path id="LINE_4670_" d="M98.125,122.219l-0.038,0.803" style="fill:none;stroke:#12100b;stroke-width:0.71px;"/><path id="LINE_4669_" d="M98.11,122.525l-0.003,0.075" style="fill:none;stroke:#12100b;stroke-width:0.71px;"/><path id="LINE_4668_" d="M98.479,113.241l0.06,-0.915" style="fill:none;stroke:#12100b;stroke-width:0.71px;"/><path id="LINE_4667_" d="M98.371,116.127l0.101,-0.941" style="fill:none;stroke:#12100b;stroke-width:0.71px;"/><path id="LINE_4666_" d="M73.487,125.955l-0.007,0.882" style="fill:none;stroke:#12100b;stroke-width:0.71px;"/><path id="LINE_4665_" d="M73.752,120.123l-0.023,-0.865" style="fill:none;stroke:#12100b;stroke-width:0.71px;"/><path id="LINE_4664_" d="M73.607,122.212l0,1.203" style="fill:none;stroke:#12100b;stroke-width:0.71px;"/><path id="LINE_4663_" d="M98.576,112.187l-0.068,0.618" style="fill:none;stroke:#12100b;stroke-width:0.71px;"/><path id="LINE_4662_" d="M74.134,110.466l0.028,-0.798" style="fill:none;stroke:#12100b;stroke-width:0.71px;"/><path id="LINE_4661_" d="M98.16,121.215l-0.025,0.812" style="fill:none;stroke:#12100b;stroke-width:0.71px;"/><path id="LINE_4660_" d="M73.988,112.581l0.008,0.957" style="fill:none;stroke:#12100b;stroke-width:0.71px;"/><path id="LINE_4659_" d="M97.901,128.587l-0.084,0.985" style="fill:none;stroke:#12100b;stroke-width:0.71px;"/><path id="LINE_4658_" d="M73.872,116.086l-0.006,0.906" style="fill:none;stroke:#12100b;stroke-width:0.71px;"/><path id="LINE_4657_" d="M97.99,125.837l0.085,-0.944" style="fill:none;stroke:#12100b;stroke-width:0.71px;"/><path id="LINE_4656_" d="M94.314,106.844l0.337,-8.296" style="fill:none;stroke:#12100b;stroke-width:0.71px;"/><path id="LINE_4655_" d="M78.748,106.189l0.336,-8.295" style="fill:none;stroke:#12100b;stroke-width:0.71px;"/><path id="LINE_4654_" d="M96.463,107.148l-0.089,2.189" style="fill:none;stroke:#12100b;stroke-width:0.71px;"/><path id="LINE_4653_" d="M95.458,131.895l-0.005,0.141" style="fill:none;stroke:#12100b;stroke-width:0.71px;"/><path id="LINE_4652_" d="M76.578,106.313l-0.08,2.496" style="fill:none;stroke:#12100b;stroke-width:0.71px;"/><path id="LINE_4651_" d="M77.639,133.528l-0.237,5.845" style="fill:none;stroke:#12100b;stroke-width:0.71px;"/><path id="LINE_4650_" d="M93.206,134.157l-0.237,5.87" style="fill:none;stroke:#12100b;stroke-width:0.71px;"/><path id="LWPOLYLINE_5721_" d="M80.757,68.774l2.149,0.372l1.712,0.201l1.095,0.128l2.869,0.167l0.052,0l2.81,0.002l1.188,-0.07l1.597,-0.094l2.207,-0.27l0.436,-0.054l2.434,-0.478l0.526,-0.151l1.641,-0.468l1.203,-0.487l0.643,-0.259l1.483,-0.855l0.064,-0.057l1.018,-0.885l0.306,-0.472l0.349,-0.536l0.187,-0.918" style="fill:none;stroke:#12100b;stroke-width:0.71px;"/><path id="LINE_4649_" d="M74.988,63.352l0.684,-11.419" style="fill:none;stroke:#12100b;stroke-width:0.71px;"/><path id="LWPOLYLINE_5719_" d="M75.965,44.06l0.043,0.094l0.015,0.067l0.073,0.308l0.009,0.133l-0.001,0.389l-0.004,0.078" style="fill:none;stroke:#12100b;stroke-width:0.71px;"/><path id="LWPOLYLINE_5718_" d="M90.52,42.991l1.424,-0.052l1.932,-0.202l1.748,-0.344" style="fill:none;stroke:#12100b;stroke-width:0.71px;"/><path id="LWPOLYLINE_5717_" d="M95.624,42.393l1.494,-0.473l1.181,-0.583l0.82,-0.669l0.427,-0.73l0.017,-0.76l-0.395,-0.76l-0.789,-0.731l-1.153,-0.671l-1.103,-0.44" style="fill:none;stroke:#12100b;stroke-width:0.71px;"/><path id="LWPOLYLINE_5716_" d="M82.771,35.988l-0.345,0.079l-1.407,0.508l-1.079,0.612l-0.536,0.477" style="fill:none;stroke:#12100b;stroke-width:0.71px;"/><path id="LINE_4648_" d="M73.199,40.344l-1.303,0.302" style="fill:none;stroke:#12100b;stroke-width:0.71px;"/><path id="LINE_4647_" d="M80.158,40.366l2.758,-0.639" style="fill:none;stroke:#12100b;stroke-width:0.71px;"/><path id="LINE_4646_" d="M87.265,42.231l1.068,-0.288" style="fill:none;stroke:#12100b;stroke-width:0.71px;"/><path id="LINE_4645_" d="M73.649,40.56l-0.45,-0.216" style="fill:none;stroke:#12100b;stroke-width:0.71px;"/><path id="LINE_4644_" d="M76.865,43.342l1.684,0.913" style="fill:none;stroke:#12100b;stroke-width:0.71px;"/><path id="LINE_4643_" d="M85.273,41.005l-2.757,0.641" style="fill:none;stroke:#12100b;stroke-width:0.71px;"/><path id="LINE_4642_" d="M82.516,41.646l0.497,0.269" style="fill:none;stroke:#12100b;stroke-width:0.71px;"/><path id="LINE_4641_" d="M88.333,41.943l2.187,1.048" style="fill:none;stroke:#12100b;stroke-width:0.71px;"/><path id="LINE_4640_" d="M78.549,44.255l8.716,-2.024" style="fill:none;stroke:#12100b;stroke-width:0.71px;"/><path id="LINE_4639_" d="M79.404,37.664l1.788,0.857" style="fill:none;stroke:#12100b;stroke-width:0.71px;"/><path id="LINE_4638_" d="M83.013,41.915l-6.148,1.427" style="fill:none;stroke:#12100b;stroke-width:0.71px;"/><path id="LINE_4637_" d="M71.896,40.646l1.618,0.877" style="fill:none;stroke:#12100b;stroke-width:0.71px;"/><path id="LINE_4636_" d="M73.514,41.523l6.146,-1.426" style="fill:none;stroke:#12100b;stroke-width:0.71px;"/><path id="LINE_4635_" d="M81.192,38.521l-7.543,2.039" style="fill:none;stroke:#12100b;stroke-width:0.71px;"/><path id="LINE_4634_" d="M79.66,40.097l0.498,0.269" style="fill:none;stroke:#12100b;stroke-width:0.71px;"/><path id="LWPOLYLINE_5715_" d="M78.918,45.079l-0.518,0.246l-0.435,0.455" style="fill:none;stroke:#12100b;stroke-width:0.71px;"/><path id="LWPOLYLINE_5714_" d="M77.965,45.78l-0.279,0.587l-0.075,0.441" style="fill:none;stroke:#12100b;stroke-width:0.71px;"/><path id="LINE_4633_" d="M85.727,43.499l-6.809,1.58" style="fill:none;stroke:#12100b;stroke-width:0.71px;"/><path id="LINE_4632_" d="M77.611,46.808l-0.763,17.245" style="fill:none;stroke:#12100b;stroke-width:0.71px;"/><path id="LWPOLYLINE_5713_" d="M84.47,61.28l0.157,-2.828l0.21,-3.796" style="fill:none;stroke:#12100b;stroke-width:0.71px;"/><path id="LWPOLYLINE_5712_" d="M78.549,44.255l-0.687,0.325l-0.053,0.025l-0.534,0.556l-0.089,0.094l-0.314,0.655l-0.087,0.183l-0.107,0.628" style="fill:none;stroke:#12100b;stroke-width:0.71px;"/><path id="LWPOLYLINE_5711_" d="M78.918,45.079l-0.023,-0.252l-0.078,-0.244l-0.121,-0.201l-0.147,-0.127" style="fill:none;stroke:#12100b;stroke-width:0.71px;"/><path id="LWPOLYLINE_5710_" d="M76.678,46.721l0.191,0.068l0.245,0.041l0.261,0.006l0.236,-0.028" style="fill:none;stroke:#12100b;stroke-width:0.71px;"/><path id="LWPOLYLINE_5709_" d="M76.865,43.342l-0.159,0.045l-0.159,0.061" style="fill:none;stroke:#12100b;stroke-width:0.71px;"/><path id="LINE_4631_" d="M76.137,46.427l0.541,0.294" style="fill:none;stroke:#12100b;stroke-width:0.71px;"/><path id="LWPOLYLINE_5708_" d="M76.547,43.448l0.014,0.118l-0.018,0.298l-0.01,0.184l-0.028,0.175l-0.093,0.463l-0.012,0.061l-0.023,0.107" style="fill:none;stroke:#12100b;stroke-width:0.71px;"/><path id="LWPOLYLINE_5707_" d="M76.377,44.854l-0.103,0.512l-0.032,0.201l-0.053,0.323l-0.008,0.065l-0.044,0.472" style="fill:none;stroke:#12100b;stroke-width:0.71px;"/><path id="LWPOLYLINE_5706_" d="M76.137,46.427l-0.342,5.681l-0.684,11.422" style="fill:none;stroke:#12100b;stroke-width:0.71px;"/><path id="LINE_4630_" d="M75.914,63.966l0.764,-17.245" style="fill:none;stroke:#12100b;stroke-width:0.71px;"/><path id="LWPOLYLINE_5705_" d="M76.547,43.448l-0.217,0.079l-0.184,0.141l-0.126,0.185l-0.02,0.078l-0.035,0.129" style="fill:none;stroke:#12100b;stroke-width:0.71px;"/><path id="LWPOLYLINE_5703_" d="M72.229,59.57l0.373,-9.203l0.32,-7.958" style="fill:none;stroke:#12100b;stroke-width:0.71px;"/><path id="LWPOLYLINE_5702_" d="M70.869,43.463l-0.289,5.708l-0.58,11.475" style="fill:none;stroke:#12100b;stroke-width:0.71px;"/><path id="LWPOLYLINE_5701_" d="M75.965,44.06l-0.485,7.869l-0.562,9.1" style="fill:none;stroke:#12100b;stroke-width:0.71px;"/><path id="LWPOLYLINE_5700_" d="M74.918,61.029l-0.514,-0.494l-0.057,-0.056l-0.927,-0.502l-0.121,-0.041l-1.07,-0.366" style="fill:none;stroke:#12100b;stroke-width:0.71px;"/><path id="LWPOLYLINE_5699_" d="M72.922,42.409l-0.293,-0.022l-0.316,-0.025l-0.365,0.039l-0.485,0.171l-0.344,0.275l-0.183,0.301l-0.067,0.315" style="fill:none;stroke:#12100b;stroke-width:0.71px;"/><path id="LWPOLYLINE_5697_" d="M74.723,64.471l0.118,-0.061l0.481,-0.2l0.69,-0.201" style="fill:none;stroke:#12100b;stroke-width:0.71px;"/><path id="LINE_4629_" d="M76.715,43.308l0.15,0.034" style="fill:none;stroke:#12100b;stroke-width:0.71px;"/><path id="LWPOLYLINE_5695_" d="M100.204,39.779l-0.012,0.509l-0.005,0.301" style="fill:none;stroke:#12100b;stroke-width:0.71px;"/><path id="LWPOLYLINE_5694_" d="M100.187,40.589l-0.438,0.747l-0.018,0.029l-0.873,0.713l-0.372,0.184l-0.884,0.436l-1.003,0.318l-0.588,0.186l-1.795,0.354l-0.066,0.012l-2.056,0.215l-0.647,0.02l-1.238,0.038" style="fill:none;stroke:#12100b;stroke-width:0.71px;"/><path id="LWPOLYLINE_5693_" d="M85.43,54.591l-0.213,3.857l-0.1,1.808" style="fill:none;stroke:#12100b;stroke-width:0.71px;"/><path id="LWPOLYLINE_5692_" d="M85.117,60.256l0.131,0.019l2.026,0.223l0.547,0.023l1.522,0.066l1.56,-0.035l0.484,-0.011l1.954,-0.182l0.472,-0.081l1.332,-0.228l1.214,-0.326l0.38,-0.103l1.338,-0.534l0.27,-0.162l0.766,-0.461l0.534,-0.526l0.169,-0.166l0.348,-0.738" style="fill:none;stroke:#12100b;stroke-width:0.71px;"/><path id="LINE_4628_" d="M75.965,44.06l-0.008,-0.098" style="fill:none;stroke:#12100b;stroke-width:0.71px;"/><path id="LWPOLYLINE_5691_" d="M76.396,43.414l0.008,-0.003l0.054,0.014l0.053,0.013l0.036,0.01" style="fill:none;stroke:#12100b;stroke-width:0.71px;"/><path id="LWPOLYLINE_5690_" d="M78.201,63.739l0.269,-0.006l0.919,0.021l0.929,0.082l0.927,0.147" style="fill:none;stroke:#12100b;stroke-width:0.71px;"/><path id="LWPOLYLINE_5689_" d="M100.166,55.983l0.776,0.501l0.881,0.879l0.459,0.908l0.023,0.908l-0.414,0.88l-0.838,0.824l-1.236,0.742l-1.592,0.637l-1.902,0.51l-2.148,0.37l-2.329,0.215l-2.436,0.056l-2.464,-0.106l-2.416,-0.266l-1.895,-0.331" style="fill:none;stroke:#12100b;stroke-width:0.71px;"/><path id="LINE_4627_" d="M90.459,44.324l-2.094,-1.004" style="fill:none;stroke:#12100b;stroke-width:0.71px;"/><path id="LINE_4626_" d="M88.22,42.909l-2.323,0.627" style="fill:none;stroke:#12100b;stroke-width:0.71px;"/><path id="LWPOLYLINE_5688_" d="M76.869,64.533l-0.021,0.003l-0.045,0.021l-0.061,0.047l-0.07,0.063l-0.071,0.059l-0.163,0.09l-0.053,0.016" style="fill:none;stroke:#12100b;stroke-width:0.71px;"/><path id="LWPOLYLINE_5687_" d="M80.947,64.811l-0.808,-0.13l-0.202,-0.018l-0.608,-0.054l-0.738,-0.015l-0.064,-0.002l-0.234,0.005" style="fill:none;stroke:#12100b;stroke-width:0.71px;"/><path id="LWPOLYLINE_5686_" d="M75.162,69.192l0.489,-0.214l0.394,-0.115l0.26,-0.075l0.683,-0.126l0.178,-0.019l0.487,-0.052l0.781,-0.031l0.005,0l0.707,0.016l0.618,0.053l0.172,0.016l0.821,0.129" style="fill:none;stroke:#12100b;stroke-width:0.71px;"/><path id="LWPOLYLINE_5685_" d="M76.385,64.832l-0.231,0.067l-0.371,0.108l-0.42,0.175l-0.103,0.053" style="fill:none;stroke:#12100b;stroke-width:0.71px;"/><path id="LWPOLYLINE_5684_" d="M78.293,64.597l-0.689,-0.025l-0.299,-0.015l-0.436,-0.024" style="fill:none;stroke:#12100b;stroke-width:0.71px;"/><path id="LWPOLYLINE_5683_" d="M76.385,64.832l-0.024,-0.252l-0.078,-0.244l-0.123,-0.201l-0.148,-0.126" style="fill:none;stroke:#12100b;stroke-width:0.71px;"/><path id="LWPOLYLINE_5682_" d="M73.658,42.423l-0.312,7.96l-0.34,8.62" style="fill:none;stroke:#12100b;stroke-width:0.71px;"/><path id="LINE_4625_" d="M79.487,41.047l-5.605,1.301" style="fill:none;stroke:#12100b;stroke-width:0.71px;"/><path id="LWPOLYLINE_5681_" d="M76.869,64.533l0.012,-0.119l0,-0.123l-0.011,-0.121l-0.022,-0.117" style="fill:none;stroke:#12100b;stroke-width:0.71px;"/><path id="LWPOLYLINE_5680_" d="M73.514,41.523l0.146,0.127l0.121,0.202l0.078,0.244l0.023,0.252" style="fill:none;stroke:#12100b;stroke-width:0.71px;"/><path id="LWPOLYLINE_5679_" d="M73.658,42.423l-0.233,0.029l-0.259,-0.005l-0.244,-0.038" style="fill:none;stroke:#12100b;stroke-width:0.71px;"/><path id="LWPOLYLINE_5678_" d="M70.469,43.353l0.08,0.036l0.096,0.031l0.107,0.024l0.117,0.019" style="fill:none;stroke:#12100b;stroke-width:0.71px;"/><path id="LWPOLYLINE_5677_" d="M73.195,41.63l-0.746,0.005l-0.043,0l-0.48,0.096l-0.525,0.239l-0.124,0.055l-0.464,0.426l-0.075,0.132l-0.175,0.315l-0.094,0.455" style="fill:none;stroke:#12100b;stroke-width:0.71px;"/><path id="LWPOLYLINE_5676_" d="M72.922,42.409l0.012,-0.141l0.005,-0.082l0.057,-0.227l0.088,-0.19l0.111,-0.139" style="fill:none;stroke:#12100b;stroke-width:0.71px;"/><path id="LWPOLYLINE_5675_" d="M73.658,42.423l-0.052,-0.214l-0.006,-0.026l-0.108,-0.235l-0.107,-0.146l-0.026,-0.034l-0.009,-0.014l-0.059,-0.047l-0.058,-0.046l-0.038,-0.031" style="fill:none;stroke:#12100b;stroke-width:0.71px;"/><path id="LWPOLYLINE_5674_" d="M73.514,41.523l-0.16,0.045l-0.159,0.062" style="fill:none;stroke:#12100b;stroke-width:0.71px;"/><path id="LINE_4624_" d="M69.992,43.095l0.477,0.258" style="fill:none;stroke:#12100b;stroke-width:0.71px;"/><path id="LWPOLYLINE_5673_" d="M71.896,40.646l-0.533,0.213l-0.146,0.123l-0.529,0.446l-0.071,0.114l-0.415,0.677l-0.014,0.062l-0.196,0.814" style="fill:none;stroke:#12100b;stroke-width:0.71px;"/><path id="LINE_4623_" d="M81.557,42.169l0.018,0.011" style="fill:none;stroke:#12100b;stroke-width:0.71px;"/><path id="LWPOLYLINE_5672_" d="M70.469,43.353l-0.293,5.708l-0.587,11.474" style="fill:none;stroke:#12100b;stroke-width:0.71px;"/><path id="LWPOLYLINE_5671_" d="M69.873,42.902l0.011,0.098l0.108,0.095" style="fill:none;stroke:#12100b;stroke-width:0.71px;"/><path id="LINE_4622_" d="M71.896,40.646l-0.151,-0.035" style="fill:none;stroke:#12100b;stroke-width:0.71px;"/><path id="LINE_4621_" d="M69.992,43.095l-1.14,17.04" style="fill:none;stroke:#12100b;stroke-width:0.71px;"/><path id="LINE_4620_" d="M79.274,38.964l-0.598,-0.287" style="fill:none;stroke:#12100b;stroke-width:0.71px;"/><path id="LWPOLYLINE_5670_" d="M73.18,58.933l0.754,0.281l1.024,0.556l0.032,0.028" style="fill:none;stroke:#12100b;stroke-width:0.71px;"/><path id="LINE_4619_" d="M83.144,40.594l-3.16,0.733" style="fill:none;stroke:#12100b;stroke-width:0.71px;"/><path id="LINE_4618_" d="M79.487,41.047l0.497,0.269" style="fill:none;stroke:#12100b;stroke-width:0.71px;"/><path id="LWPOLYLINE_5669_" d="M90.23,73.006l1.673,-0.042l1.569,-0.181l1.062,-0.122l1.815,-0.409l1.006,-0.227l1.359,-0.546l0.847,-0.339l0.85,-0.635l0.593,-0.442l0.329,-0.673l0.257,-0.526" style="fill:none;stroke:#12100b;stroke-width:0.71px;"/><path id="LWPOLYLINE_5668_" d="M75.369,69.437l0.783,0.619l0.516,0.407l1.388,0.633l0.842,0.384l1.69,0.478l1.149,0.325l1.852,0.304l1.409,0.231l1.874,0.125l1.592,0.107l1.766,-0.044" style="fill:none;stroke:#12100b;stroke-width:0.71px;"/><path id="LINE_4617_" d="M68.742,60.045l-0.15,6.369" style="fill:none;stroke:#12100b;stroke-width:0.71px;"/></g><path d="M63.218,75.666l5.879,0l0,8.223l3.347,0l-6.287,6.144l-6.287,-6.144l3.347,0l0,-8.223l0.001,0Zm2.939,13.008l3.913,-3.824l-1.957,0l0,-8.223l-3.913,0l0,8.223l-1.957,0l3.914,3.824Z" style="fill-rule:nonzero;"/></svg>