<?xml version="1.0" encoding="UTF-8" standalone="no"?><!DOCTYPE svg PUBLIC "-//W3C//DTD SVG 1.1//EN" "http://www.w3.org/Graphics/SVG/1.1/DTD/svg11.dtd"><svg width="100%" height="100%" viewBox="0 0 199 142" version="1.1" xmlns="http://www.w3.org/2000/svg" xmlns:xlink="http://www.w3.org/1999/xlink" xml:space="preserve" xmlns:serif="http://www.serif.com/" style="fill-rule:evenodd;clip-rule:evenodd;stroke-linecap:round;stroke-linejoin:round;stroke-miterlimit:10;"><g id="INSERT_12_"><path id="LINE_4616_" d="M88.232,89.476l0.31,0.131" style="fill:none;stroke:#12100b;stroke-width:0.71px;"/><path id="LWPOLYLINE_5667_" d="M81.984,90.035l0.679,-0.685l0.348,-0.392l0.328,-0.397" style="fill:none;stroke:#12100b;stroke-width:0.71px;"/><path id="LWPOLYLINE_5666_" d="M83.339,88.561l0.355,-0.466l0.334,-0.472" style="fill:none;stroke:#12100b;stroke-width:0.71px;"/><path id="LINE_4615_" d="M84.028,87.623l-2.55,-1.222" style="fill:none;stroke:#12100b;stroke-width:0.71px;"/><path id="LINE_4614_" d="M76.702,90.895l2.55,1.222" style="fill:none;stroke:#12100b;stroke-width:0.71px;"/><path id="LWPOLYLINE_5665_" d="M81.478,86.401l-0.556,0.366l-0.54,0.377l-0.453,0.336l-0.439,0.349l-0.744,0.654" style="fill:none;stroke:#12100b;stroke-width:0.71px;"/><path id="LINE_4613_" d="M78.746,88.483l-0.679,0.685" style="fill:none;stroke:#12100b;stroke-width:0.71px;"/><path id="LWPOLYLINE_5664_" d="M77.719,89.561l-0.328,0.397l-0.355,0.466l-0.334,0.471" style="fill:none;stroke:#12100b;stroke-width:0.71px;"/><path id="LWPOLYLINE_5663_" d="M79.252,92.117l0.556,-0.365l0.54,-0.377l0.453,-0.338" style="fill:none;stroke:#12100b;stroke-width:0.71px;"/><path id="LWPOLYLINE_5662_" d="M80.801,91.037l0.439,-0.349l0.744,-0.653" style="fill:none;stroke:#12100b;stroke-width:0.71px;"/><path id="LWPOLYLINE_5661_" d="M81.984,90.035l-0.671,0.721l-0.609,0.854l-0.503,0.938l-0.382,0.99l-0.249,1.014l-0.106,0.969" style="fill:none;stroke:#12100b;stroke-width:0.71px;"/><path id="LWPOLYLINE_5660_" d="M79.464,95.521l0.029,0.932l0.171,0.901l0.309,0.804l0.438,0.683l0.553,0.54l0.626,0.371" style="fill:none;stroke:#12100b;stroke-width:0.71px;"/><path id="LINE_4612_" d="M81.59,99.752l0.381,0.115" style="fill:none;stroke:#12100b;stroke-width:0.71px;"/><path id="LWPOLYLINE_5659_" d="M81.963,94.846l0.108,-0.721l0.259,-0.711l0.391,-0.646l0.494,-0.537l0.561,-0.385l0.585,-0.205l0.566,-0.012l0.506,0.184l0.408,0.368l0.013,0.022" style="fill:none;stroke:#12100b;stroke-width:0.71px;"/><path id="LWPOLYLINE_5658_" d="M82.222,96.11l-0.208,-0.587l-0.051,-0.677" style="fill:none;stroke:#12100b;stroke-width:0.71px;"/><path id="LWPOLYLINE_5657_" d="M88.644,91.649l-0.089,-0.47l-0.309,-0.805l-0.438,-0.683l-0.553,-0.54l-0.626,-0.371" style="fill:none;stroke:#12100b;stroke-width:0.71px;"/><path id="LWPOLYLINE_5656_" d="M86.629,88.78l-0.699,-0.212l-0.781,-0.046l-0.812,0.134l-0.82,0.308l-0.801,0.473l-0.732,0.598" style="fill:none;stroke:#12100b;stroke-width:0.71px;"/><path id="LWPOLYLINE_5655_" d="M79.252,92.117l0.086,0.654l0.068,0.654l0.041,0.558l0.024,0.557l-0.007,0.981" style="fill:none;stroke:#12100b;stroke-width:0.71px;"/><path id="LINE_4611_" d="M76.439,97.373l2.55,1.222" style="fill:none;stroke:#12100b;stroke-width:0.71px;"/><path id="LWPOLYLINE_5654_" d="M76.702,90.895l-0.136,0.548l-0.117,0.565l-0.084,0.498l-0.067,0.514l-0.072,0.949" style="fill:none;stroke:#12100b;stroke-width:0.71px;"/><path id="LWPOLYLINE_5653_" d="M76.226,93.969l-0.006,0.98l0.023,0.555l0.042,0.561l0.068,0.654l0.086,0.654" style="fill:none;stroke:#12100b;stroke-width:0.71px;"/><path id="LWPOLYLINE_5652_" d="M78.989,98.595l0.135,-0.548l0.118,-0.566l0.084,-0.5l0.067,-0.511l0.071,-0.949" style="fill:none;stroke:#12100b;stroke-width:0.71px;"/><path id="LWPOLYLINE_5651_" d="M86.629,88.78l-0.705,-0.311l-0.417,-0.185l-0.432,-0.192l-0.515,-0.231l-0.532,-0.238" style="fill:none;stroke:#12100b;stroke-width:0.71px;"/><path id="LWPOLYLINE_5650_" d="M78.989,98.595l0.531,0.238l0.516,0.23l0.432,0.193l0.417,0.184l0.705,0.312" style="fill:none;stroke:#12100b;stroke-width:0.71px;"/><path id="LWPOLYLINE_5649_" d="M82.984,92.482l-0.001,0.011l-0.185,0.722l-0.328,0.685l-0.447,0.598l-0.009,0.008" style="fill:none;stroke:#12100b;stroke-width:0.71px;"/><path id="LINE_4610_" d="M88.542,89.607l-2.551,-1.222" style="fill:none;stroke:#12100b;stroke-width:0.71px;"/><path id="LWPOLYLINE_5648_" d="M82.751,86.948l-0.327,-0.141l-0.306,-0.132l-0.331,-0.142l-0.309,-0.132" style="fill:none;stroke:#12100b;stroke-width:0.71px;"/><path id="LWPOLYLINE_5647_" d="M86.629,88.78l0.64,0.281l0.326,0.141l0.306,0.132l0.331,0.142" style="fill:none;stroke:#12100b;stroke-width:0.71px;"/><path id="LINE_4609_" d="M85.991,88.385l-0.531,-0.238" style="fill:none;stroke:#12100b;stroke-width:0.71px;"/><path id="LWPOLYLINE_5646_" d="M88.744,91.622l-0.007,-0.148l-0.041,-0.559l-0.068,-0.653l-0.086,-0.655" style="fill:none;stroke:#12100b;stroke-width:0.71px;"/><path id="LINE_4608_" d="M81.59,99.752l0.377,0.165" style="fill:none;stroke:#12100b;stroke-width:0.71px;"/><path id="LWPOLYLINE_5645_" d="M81.171,111.805l0.005,0.045l0.006,0.05" style="fill:none;stroke:#12100b;stroke-width:0.71px;"/><path id="LWPOLYLINE_5644_" d="M87.376,112.543l-0.001,0.025l-0.019,0.31l0.001,0.008" style="fill:none;stroke:#12100b;stroke-width:0.71px;"/><path id="LINE_4607_" d="M97.649,104.665l0.012,-0.205" style="fill:none;stroke:#12100b;stroke-width:0.71px;"/><path id="LINE_4606_" d="M98.056,97.332l0.109,-1.978" style="fill:none;stroke:#12100b;stroke-width:0.71px;"/><path id="LWPOLYLINE_5643_" d="M95.073,114.566l0.517,-0.184l0.264,-0.163l0.233,-0.145l0.449,-0.417l0.373,-0.52" style="fill:none;stroke:#12100b;stroke-width:0.71px;"/><path id="LINE_4605_" d="M97.181,106.54l0.468,-1.875" style="fill:none;stroke:#12100b;stroke-width:0.71px;"/><path id="LWPOLYLINE_5642_" d="M95.722,103.53l-0.037,-0.005l-0.036,-0.03" style="fill:none;stroke:#12100b;stroke-width:0.71px;"/><path id="LWPOLYLINE_5641_" d="M94.882,102.858l-0.011,-0.009l-0.267,-0.5l-0.054,-0.201" style="fill:none;stroke:#12100b;stroke-width:0.71px;"/><path id="LWPOLYLINE_5640_" d="M94.501,101.967l-0.055,-0.2l-0.041,-0.637l0.078,-0.664l0.067,-0.228" style="fill:none;stroke:#12100b;stroke-width:0.71px;"/><path id="LWPOLYLINE_5639_" d="M94.61,100.031l0.067,-0.228l0.299,-0.632l0.393,-0.574l0.161,-0.169" style="fill:none;stroke:#12100b;stroke-width:0.71px;"/><path id="LWPOLYLINE_5638_" d="M95.677,98.274l0.162,-0.169l0.187,-0.112" style="fill:none;stroke:#12100b;stroke-width:0.71px;"/><path id="LWPOLYLINE_5637_" d="M96.735,97.567l0.188,-0.113l0.117,-0.013" style="fill:none;stroke:#12100b;stroke-width:0.71px;"/><path id="LWPOLYLINE_5636_" d="M98.026,97.332l0.016,-0.002l0.014,0.002" style="fill:none;stroke:#12100b;stroke-width:0.71px;"/><path id="LINE_4604_" d="M90.641,115.595l4.432,-1.029" style="fill:none;stroke:#12100b;stroke-width:0.71px;"/><path id="LINE_4603_" d="M97.276,106.512l-0.095,0.028" style="fill:none;stroke:#12100b;stroke-width:0.71px;"/><path id="LWPOLYLINE_5635_" d="M89.286,115.909l0.736,-0.171l0.619,-0.143" style="fill:none;stroke:#12100b;stroke-width:0.71px;"/><path id="LWPOLYLINE_5634_" d="M95.354,91.582l-0.345,-0.784l0.394,-0.829l1.155,-0.703l1.773,-0.491l2.182,-0.218l2.322,0.078l2.187,0.366l1.786,0.61l1.17,0.78l0.414,0.857l-0.395,0.829l-1.154,0.702l-1.776,0.491l-2.179,0.218l-2.325,-0.078l-2.187,-0.365l-0.664,-0.184" style="fill:none;stroke:#12100b;stroke-width:0.71px;"/><path id="LWPOLYLINE_5633_" d="M98.165,95.354l-0.008,-0.124l-0.037,-0.122l-0.15,-0.227l-0.233,-0.176l-0.179,-0.074" style="fill:none;stroke:#12100b;stroke-width:0.71px;"/><path id="LINE_4602_" d="M97.558,94.631l2.146,-0.543" style="fill:none;stroke:#12100b;stroke-width:0.71px;"/><path id="LWPOLYLINE_5632_" d="M88.451,115.865l0.014,0.004l0.079,0.025l0.092,0.015l0.153,0.027l0.204,0.003l0.057,0.002l0.138,-0.018l0.098,-0.014" style="fill:none;stroke:#12100b;stroke-width:0.71px;"/><path id="LINE_4601_" d="M88.352,115.822l0.099,0.043" style="fill:none;stroke:#12100b;stroke-width:0.71px;"/><path id="LINE_4600_" d="M87.55,115.387l0.802,0.435" style="fill:none;stroke:#12100b;stroke-width:0.71px;"/><path id="LWPOLYLINE_5631_" d="M88.451,98.108l-0.001,0.044l0.021,0.045l0.042,0.044l0.062,0.041" style="fill:none;stroke:#12100b;stroke-width:0.71px;"/><path id="LINE_4599_" d="M87.602,121.049l0.097,-3.958" style="fill:none;stroke:#12100b;stroke-width:0.71px;"/><path id="LWPOLYLINE_5630_" d="M87.699,117.091l-0.036,-0.247l-0.115,-0.232l-0.175,-0.181l-0.212,-0.105" style="fill:none;stroke:#12100b;stroke-width:0.71px;"/><path id="LINE_4598_" d="M79.444,112.141l-0.066,-0.046" style="fill:none;stroke:#12100b;stroke-width:0.71px;"/><path id="LWPOLYLINE_5629_" d="M82.439,112.503l1.722,0.286l1.509,0.467l1.106,0.599l0.602,0.678l0.049,0.675" style="fill:none;stroke:#12100b;stroke-width:0.71px;"/><path id="LWPOLYLINE_5628_" d="M87.427,115.208l0.016,0.092l0.107,0.087" style="fill:none;stroke:#12100b;stroke-width:0.71px;"/><path id="LWPOLYLINE_5627_" d="M82.439,112.503l-0.21,-0.037l-0.018,-0.006l-0.153,-0.054l-0.03,-0.014" style="fill:none;stroke:#12100b;stroke-width:0.71px;"/><path id="LINE_4597_" d="M82.028,112.392l-0.737,-0.4" style="fill:none;stroke:#12100b;stroke-width:0.71px;"/><path id="LWPOLYLINE_5625_" d="M81.291,111.992l-0.109,-0.092" style="fill:none;stroke:#12100b;stroke-width:0.71px;"/><path id="LINE_4596_" d="M95.452,93.771l-0.355,0.013" style="fill:none;stroke:#12100b;stroke-width:0.71px;"/><path id="LWPOLYLINE_5624_" d="M87.233,121.539l0.189,-0.088l0.13,-0.172l0.05,-0.23" style="fill:none;stroke:#12100b;stroke-width:0.71px;"/><path id="LWPOLYLINE_5623_" d="M102.647,95.696l0,0.037l0.02,0.126l0.049,0.119l0.181,0.202" style="fill:none;stroke:#12100b;stroke-width:0.71px;"/><path id="LINE_4595_" d="M91.313,90.928l-0.199,-0.395" style="fill:none;stroke:#12100b;stroke-width:0.71px;"/><path id="LWPOLYLINE_5622_" d="M91.114,90.533l-0.039,-0.134l-0.006,-0.096l0.004,-0.118l0.002,-0.035" style="fill:none;stroke:#12100b;stroke-width:0.71px;"/><path id="LWPOLYLINE_5621_" d="M102.897,96.18l0.952,0.869l0.525,0.721l0.174,0.365" style="fill:none;stroke:#12100b;stroke-width:0.71px;"/><path id="LWPOLYLINE_5620_" d="M99.458,106.396l-0.484,0.067l-1.106,-0.017" style="fill:none;stroke:#12100b;stroke-width:0.71px;"/><path id="LINE_4594_" d="M98.333,97.443l-0.145,-0.066" style="fill:none;stroke:#12100b;stroke-width:0.71px;"/><path id="LINE_4593_" d="M98.188,97.377l-0.132,-0.045" style="fill:none;stroke:#12100b;stroke-width:0.71px;"/><path id="LINE_4592_" d="M93.386,116.666l-0.19,3.965" style="fill:none;stroke:#12100b;stroke-width:0.71px;"/><path id="LWPOLYLINE_5619_" d="M119.271,111.241l-0.039,0.26l-0.115,0.781l-0.392,0.669l-0.198,0.335l-1.013,0.943l-0.118,0.073l-1.295,0.788l-0.889,0.379l-0.889,0.378l-1.924,0.581l-0.173,0.052l-2.372,0.498l-0.861,0.115l-1.724,0.232l-2.053,0.143l-0.684,0.047l-2.826,0.028l-0.473,-0.022l-2.371,-0.113l-1.633,-0.172l-1.164,-0.123l-2.679,-0.447" style="fill:none;stroke:#12100b;stroke-width:0.71px;"/><path id="LWPOLYLINE_5618_" d="M112.608,105.677l0.672,0.229l1.811,0.823l1.471,0.904l1.094,0.964l0.696,1.001l0.275,1.014l-0.148,1.003l-0.569,0.968l-0.976,0.909l-1.363,0.829l-1.711,0.729l-2.023,0.611l-2.283,0.479l-2.492,0.335l-2.637,0.182l-2.723,0.028l-2.742,-0.13l-2.693,-0.284l-2.582,-0.431" style="fill:none;stroke:#12100b;stroke-width:0.71px;"/><path id="LWPOLYLINE_5617_" d="M93.685,115.84l-0.104,0.125l-0.095,0.201l-0.068,0.246l-0.032,0.254" style="fill:none;stroke:#12100b;stroke-width:0.71px;"/><path id="LWPOLYLINE_5616_" d="M91.075,90.15l0.051,-0.19l0.011,-0.017l0.016,-0.025l0.084,-0.126l0.071,-0.059l0.015,-0.013l0.08,-0.067l0.151,-0.067l0.01,-0.004l0.06,-0.026l0.211,-0.035l0.008,0" style="fill:none;stroke:#12100b;stroke-width:0.71px;"/><path id="LWPOLYLINE_5615_" d="M102.958,94.848l-0.082,0.099l-0.023,0.044l-0.004,0.007l-0.061,0.111l-0.033,0.089l-0.006,0.019l-0.029,0.078l-0.035,0.149l-0.008,0.03l-0.004,0.02l-0.026,0.202" style="fill:none;stroke:#12100b;stroke-width:0.71px;"/><path id="LWPOLYLINE_5614_" d="M100.804,95.177l0.959,1.341l0.445,1.795l-0.053,0.901" style="fill:none;stroke:#12100b;stroke-width:0.71px;"/><path id="LWPOLYLINE_5613_" d="M99.276,105.234l-0.496,0.479l-1.599,0.827" style="fill:none;stroke:#12100b;stroke-width:0.71px;"/><path id="LWPOLYLINE_5612_" d="M97.276,106.512l0.186,-0.042l0.017,-0.004l0.186,-0.019l0.039,-0.004l0.164,0.003" style="fill:none;stroke:#12100b;stroke-width:0.71px;"/><path id="LWPOLYLINE_5611_" d="M100.804,95.177l-0.11,-0.169l-0.037,-0.228l0.002,-0.014" style="fill:none;stroke:#12100b;stroke-width:0.71px;"/><path id="LINE_4591_" d="M98.337,95.393l-0.149,1.984" style="fill:none;stroke:#12100b;stroke-width:0.71px;"/><path id="LINE_4590_" d="M97.665,104.462l-0.016,0.203" style="fill:none;stroke:#12100b;stroke-width:0.71px;"/><path id="LWPOLYLINE_5610_" d="M100.772,93.799l-0.019,0.099l-0.018,0.098l-0.013,0.07l-0.02,0.169l-0.008,0.059l-0.021,0.22l0,0.022l-0.008,0.118l-0.006,0.112" style="fill:none;stroke:#12100b;stroke-width:0.71px;"/><path id="LWPOLYLINE_5609_" d="M93.196,120.631l0.01,0.225l0.051,0.16l0.083,0.067" style="fill:none;stroke:#12100b;stroke-width:0.71px;"/><path id="LWPOLYLINE_5608_" d="M97.558,94.631l0.234,0.05l0.225,0.117l0.179,0.171l0.112,0.206l0.029,0.218" style="fill:none;stroke:#12100b;stroke-width:0.71px;"/><path id="LINE_4589_" d="M85.618,110.789l1.89,-0.439" style="fill:none;stroke:#12100b;stroke-width:0.71px;"/><path id="LWPOLYLINE_5607_" d="M86.321,94.204l-0.112,0.032l-0.111,0.042" style="fill:none;stroke:#12100b;stroke-width:0.71px;"/><path id="LINE_4588_" d="M91.854,94.537l0.073,-1.634" style="fill:none;stroke:#12100b;stroke-width:0.71px;"/><path id="LINE_4587_" d="M85.444,110.858l0.174,-0.069" style="fill:none;stroke:#12100b;stroke-width:0.71px;"/><path id="LWPOLYLINE_5606_" d="M91.927,92.903l0.008,-0.128l0.013,-0.134l0.04,-0.272l0.054,-0.242l0.058,-0.174" style="fill:none;stroke:#12100b;stroke-width:0.71px;"/><path id="LWPOLYLINE_5605_" d="M90.732,116.453l0,-0.255l-0.016,-0.252l-0.033,-0.212l-0.042,-0.139" style="fill:none;stroke:#12100b;stroke-width:0.71px;"/><path id="LWPOLYLINE_5604_" d="M84.668,111.427l0.243,-0.195l0.019,-0.015l0.093,-0.074l0.137,-0.098l0.037,-0.025l0.061,-0.043l0.141,-0.09l0.045,-0.029" style="fill:none;stroke:#12100b;stroke-width:0.71px;"/><path id="LWPOLYLINE_5603_" d="M97.556,112.112l-0.006,0.011l-0.219,0.332l-0.008,0.013l-0.076,0.117l-0.131,0.213l-0.053,0.087l-0.154,0.252" style="fill:none;stroke:#12100b;stroke-width:0.71px;"/><path id="LWPOLYLINE_5602_" d="M94.954,93.502l-0.355,0.014l-0.305,0.103l-0.008,0.003l-0.205,0.176l-0.006,0.007l-0.055,0.106l-0.025,0.114" style="fill:none;stroke:#12100b;stroke-width:0.71px;"/><path id="LINE_4586_" d="M93.995,94.036l0,0.004" style="fill:none;stroke:#12100b;stroke-width:0.71px;"/><path id="LINE_4585_" d="M93.995,94.025l0,0.011" style="fill:none;stroke:#12100b;stroke-width:0.71px;"/><path id="LINE_4584_" d="M97.712,92.861l-0.213,-0.02" style="fill:none;stroke:#12100b;stroke-width:0.71px;"/><path id="LWPOLYLINE_5601_" d="M95.354,91.582l0.067,0.107l0.021,0.037l0.079,0.213l0.05,0.254l0.012,0.257" style="fill:none;stroke:#12100b;stroke-width:0.71px;"/><path id="LINE_4583_" d="M95.583,92.45l-0.035,0.844" style="fill:none;stroke:#12100b;stroke-width:0.71px;"/><path id="LINE_4582_" d="M86.12,92.331l-0.032,0.084" style="fill:none;stroke:#12100b;stroke-width:0.71px;"/><path id="LWPOLYLINE_5600_" d="M93.632,90.378l-0.363,0.022" style="fill:none;stroke:#12100b;stroke-width:0.71px;"/><path id="LINE_4581_" d="M85.638,92.199l0.042,-0.078" style="fill:none;stroke:#12100b;stroke-width:0.71px;"/><path id="LINE_4580_" d="M92.423,93.173l0,0.011" style="fill:none;stroke:#12100b;stroke-width:0.71px;"/><path id="LWPOLYLINE_5599_" d="M92.597,92.223l-0.059,0.174l-0.053,0.242l-0.001,0.006l-0.04,0.265l0,0.01l-0.013,0.13l-0.008,0.123" style="fill:none;stroke:#12100b;stroke-width:0.71px;"/><path id="LINE_4579_" d="M92.423,93.184l-0.069,1.237" style="fill:none;stroke:#12100b;stroke-width:0.71px;"/><path id="LWPOLYLINE_5597_" d="M101.6,73.593l0.269,-0.006l1.039,-0.021l0.244,-0.024l1.004,-0.098l0.209,-0.039l0.922,-0.173l0.174,-0.052l0.805,-0.243l0.129,-0.061l0.65,-0.306l0.086,-0.067l0.469,-0.357l0.045,-0.068l0.261,-0.395l0.006,-0.067l0.041,-0.42" style="fill:none;stroke:#12100b;stroke-width:0.71px;"/><path id="LWPOLYLINE_5596_" d="M94.586,70.968l0.049,0.137l0.126,0.351l0.118,0.131l0.312,0.347l0.175,0.116l0.492,0.327l0.224,0.101l0.658,0.295l0.258,0.081l0.799,0.249l0.281,0.059l0.914,0.194l0.287,0.038l0.996,0.127l0.286,0.015l1.039,0.057" style="fill:none;stroke:#12100b;stroke-width:0.71px;"/><path id="LWPOLYLINE_5593_" d="M107.97,99.981l-1.117,0.463l-1.067,0.763l-0.953,1.018l-0.783,1.213l-0.571,1.337l-0.32,1.386l-0.055,1.353l0.215,1.24l0.471,1.057l0.701,0.812l0.891,0.52l1.027,0.196l1.106,-0.138l1.119,-0.463l1.066,-0.762l0.951,-1.017l0.786,-1.213" style="fill:none;stroke:#12100b;stroke-width:0.71px;"/><path id="LWPOLYLINE_5592_" d="M112.005,106.408l0.32,-1.386l0.057,-1.352l-0.215,-1.241l-0.473,-1.057l-0.701,-0.811l-0.89,-0.52l-1.028,-0.197l-1.105,0.137" style="fill:none;stroke:#12100b;stroke-width:0.71px;"/><path id="LWPOLYLINE_5591_" d="M108.372,100.809l0.982,-0.122l0.915,0.174l0.791,0.462l0.623,0.722l0.42,0.939l0.191,1.104l-0.049,1.202l-0.285,1.231l-0.506,1.191l-0.697,1.078" style="fill:none;stroke:#12100b;stroke-width:0.71px;"/><path id="LWPOLYLINE_5590_" d="M110.757,108.79l-0.848,0.904l-0.947,0.678l-0.994,0.412l-0.983,0.122l-0.914,-0.175l-0.791,-0.461l-0.625,-0.722l-0.418,-0.94l-0.191,-1.103l0.049,-1.202l0.285,-1.233l0.506,-1.189l0.697,-1.078l0.846,-0.905l0.949,-0.677l0.994,-0.412" style="fill:none;stroke:#12100b;stroke-width:0.71px;"/><path id="LWPOLYLINE_5589_" d="M100.026,108.007l0.702,0.811l0.89,0.52" style="fill:none;stroke:#12100b;stroke-width:0.71px;"/><path id="LWPOLYLINE_5588_" d="M106.337,98.236l-1.027,-0.196l-1.104,0.137l-1.119,0.464l-1.066,0.761l-0.954,1.018l-0.783,1.213l-0.568,1.338l-0.322,1.385l-0.055,1.353l0.215,1.241l0.472,1.057" style="fill:none;stroke:#12100b;stroke-width:0.71px;"/><path id="LINE_4578_" d="M106.021,107.818l0.117,-2.915" style="fill:none;stroke:#12100b;stroke-width:0.71px;"/><path id="LINE_4577_" d="M106.138,104.903l2.15,-2.022" style="fill:none;stroke:#12100b;stroke-width:0.71px;"/><path id="LINE_4576_" d="M110.319,103.774l-0.119,2.915" style="fill:none;stroke:#12100b;stroke-width:0.71px;"/><path id="LINE_4575_" d="M108.052,108.711l-2.031,-0.893" style="fill:none;stroke:#12100b;stroke-width:0.71px;"/><path id="LINE_4573_" d="M108.288,102.881l2.031,0.893" style="fill:none;stroke:#12100b;stroke-width:0.71px;"/><path id="LINE_4571_" d="M110.2,106.689l-2.148,2.022" style="fill:none;stroke:#12100b;stroke-width:0.71px;"/><path id="LINE_4568_" d="M106.022,107.763l0.606,0.266" style="fill:none;stroke:#12100b;stroke-width:0.71px;"/><path id="LINE_4567_" d="M106.628,108.029l2.148,-2.022" style="fill:none;stroke:#12100b;stroke-width:0.71px;"/><path id="LINE_4562_" d="M108.776,106.007l0.118,-2.86" style="fill:none;stroke:#12100b;stroke-width:0.71px;"/><path id="LINE_4560_" d="M108.052,108.711l-1.424,-0.682" style="fill:none;stroke:#12100b;stroke-width:0.71px;"/><path id="LINE_4558_" d="M110.2,106.689l-1.424,-0.682" style="fill:none;stroke:#12100b;stroke-width:0.71px;"/><path id="LWPOLYLINE_5587_" d="M107.953,71.196c0.888,-18.798 1.686,-37.755 -1.076,-56.443" style="fill:none;stroke:#12100b;stroke-width:0.71px;"/><path id="LINE_4555_" d="M94.586,70.968l0.639,-12.945" style="fill:none;stroke:#12100b;stroke-width:0.71px;"/><path id="LINE_4554_" d="M95.213,58.478l0.314,-12.661" style="fill:none;stroke:#12100b;stroke-width:0.71px;"/><path id="LWPOLYLINE_5586_" d="M95.527,45.836c0.242,-8.202 -0.24,-16.417 -1.303,-24.552" style="fill:none;stroke:#12100b;stroke-width:0.71px;"/><path id="LINE_4541_" d="M111.437,107.746l0.017,-0.034" style="fill:none;stroke:#12100b;stroke-width:0.71px;"/><path id="LINE_4540_" d="M112.005,106.408l-0.045,0.113" style="fill:none;stroke:#12100b;stroke-width:0.71px;"/><path id="LINE_4539_" d="M101.618,109.338l3.764,1.805" style="fill:none;stroke:#12100b;stroke-width:0.71px;"/><path id="LINE_4538_" d="M106.337,98.236l3.766,1.805" style="fill:none;stroke:#12100b;stroke-width:0.71px;"/><path id="LINE_4537_" d="M99.356,105.272l-3.904,-1.871" style="fill:none;stroke:#12100b;stroke-width:0.71px;"/><path id="LINE_4536_" d="M102.233,99.251l-3.414,-1.635" style="fill:none;stroke:#12100b;stroke-width:0.71px;"/><path id="LWPOLYLINE_5585_" d="M88.539,96.985l-0.028,0.371l-0.032,0.374l-0.004,0.046l-0.024,0.332" style="fill:none;stroke:#12100b;stroke-width:0.71px;"/><path id="LINE_4535_" d="M73.258,119.137l0.234,-3.94" style="fill:none;stroke:#12100b;stroke-width:0.71px;"/><path id="LWPOLYLINE_5584_" d="M73.527,115.002l0.083,-0.455l0.063,-0.23l0.151,-0.183l0.509,-0.593l0.875,-0.521l0.178,-0.079l1.162,-0.409l1.41,-0.29l1.42,-0.147" style="fill:none;stroke:#12100b;stroke-width:0.71px;"/><path id="LINE_4534_" d="M88.451,98.108l-0.34,5.681" style="fill:none;stroke:#12100b;stroke-width:0.71px;"/><path id="LINE_4533_" d="M89.154,95.163l5.943,-1.379" style="fill:none;stroke:#12100b;stroke-width:0.71px;"/><path id="LWPOLYLINE_5583_" d="M73.258,119.137l0.038,0.242l0.294,0.659l0.13,0.196l0.678,0.62l0.185,0.105l1.001,0.543l1.291,0.455l1.511,0.343l1.652,0.212l1.703,0.071l1.666,-0.074l1.538,-0.217l1.329,-0.346l0.959,-0.407" style="fill:none;stroke:#12100b;stroke-width:0.71px;"/><path id="LWPOLYLINE_5582_" d="M88.843,95.267l0.155,-0.06l0.156,-0.044" style="fill:none;stroke:#12100b;stroke-width:0.71px;"/><path id="LINE_4532_" d="M112.644,91.635l-0.032,11.249" style="fill:none;stroke:#12100b;stroke-width:0.71px;"/><path id="LINE_4531_" d="M112.632,92.145l-0.029,16.745" style="fill:none;stroke:#12100b;stroke-width:0.71px;"/><path id="LINE_4530_" d="M98.056,97.332l0.05,0.022" style="fill:none;stroke:#12100b;stroke-width:0.71px;"/><path id="LWPOLYLINE_5581_" d="M88.397,95.818l0.049,-0.199l0.123,-0.176l0.071,-0.066" style="fill:none;stroke:#12100b;stroke-width:0.71px;"/><path id="LWPOLYLINE_5580_" d="M88.64,95.377l0.157,-0.098l0.038,-0.008" style="fill:none;stroke:#12100b;stroke-width:0.71px;"/><path id="LWPOLYLINE_5579_" d="M87.376,112.543l0.533,-8.856l0.488,-7.869" style="fill:none;stroke:#12100b;stroke-width:0.71px;"/><path id="LWPOLYLINE_5578_" d="M119.271,111.241l-0.08,4.074l-0.027,0.13" style="fill:none;stroke:#12100b;stroke-width:0.71px;"/><path id="LWPOLYLINE_5577_" d="M119.271,111.241l-0.044,-0.237l-0.286,-1.05l-0.718,-1.036l-0.131,-0.186l-1.125,-0.99l-1.511,-0.928l-0.168,-0.088l-1.836,-0.834l-0.844,-0.288" style="fill:none;stroke:#12100b;stroke-width:0.71px;"/><path id="LWPOLYLINE_5576_" d="M112.644,91.635l-0.049,-0.231l-0.418,-0.805l-0.131,-0.185l-0.826,-0.763l-1.205,-0.702l-0.159,-0.085l-1.507,-0.599l-1.772,-0.489l-1.967,-0.357l-2.082,-0.211l-2.115,-0.058l-2.064,0.099l-1.932,0.251l-1.721,0.395l-1.44,0.519l-0.176,0.076l-1.126,0.639l-0.631,0.591" style="fill:none;stroke:#12100b;stroke-width:0.71px;"/><path id="LINE_4529_" d="M91.357,89.688l-0.12,0.104" style="fill:none;stroke:#12100b;stroke-width:0.71px;"/><path id="LWPOLYLINE_5575_" d="M118.979,116.363l-0.057,0.238l-0.654,1.004l-0.145,0.185l-1.072,0.933l-1.466,0.846l-0.184,0.084l-1.806,0.73l-2.119,0.606l-2.379,0.467l-2.584,0.317l-2.723,0.161l-2.799,-0.002l-2.806,-0.164l-2.743,-0.321l-2.102,-0.364" style="fill:none;stroke:#12100b;stroke-width:0.71px;"/><path id="LWPOLYLINE_5574_" d="M87.233,121.539l0.533,-0.234l0.713,-0.207l0.747,-0.138l0.726,-0.078l0.851,-0.033l0.778,0.018l0.861,0.074l0.898,0.142" style="fill:none;stroke:#12100b;stroke-width:0.71px;"/><path id="LINE_4528_" d="M93.578,115.968l-0.092,0.198" style="fill:none;stroke:#12100b;stroke-width:0.71px;"/><path id="LWPOLYLINE_5573_" d="M93.485,116.169l0.093,-0.201" style="fill:none;stroke:#12100b;stroke-width:0.71px;"/><path id="LINE_4527_" d="M93.685,115.84l-0.104,0.125" style="fill:none;stroke:#12100b;stroke-width:0.71px;"/><path id="LWPOLYLINE_5572_" d="M93.578,115.968l0.107,-0.128" style="fill:none;stroke:#12100b;stroke-width:0.71px;"/><path id="LINE_4526_" d="M112.604,108.227l0.139,0.671" style="fill:none;stroke:#12100b;stroke-width:0.71px;"/><path id="LINE_4525_" d="M112.677,108.575l0.117,0.165" style="fill:none;stroke:#12100b;stroke-width:0.71px;"/><path id="LINE_4524_" d="M97.499,92.841l-2.904,0.675" style="fill:none;stroke:#12100b;stroke-width:0.71px;"/><path id="LWPOLYLINE_5571_" d="M84.184,92.468l-0.519,0.207l-0.098,0.05l-0.617,0.516l-0.444,0.72l-0.193,0.798" style="fill:none;stroke:#12100b;stroke-width:0.71px;"/><path id="LINE_4514_" d="M86.12,92.331l7.149,-1.931" style="fill:none;stroke:#12100b;stroke-width:0.71px;"/><path id="LINE_4512_" d="M82.313,94.759l-1.142,17.046" style="fill:none;stroke:#12100b;stroke-width:0.71px;"/><path id="LINE_4509_" d="M84.184,92.468l1.496,-0.347" style="fill:none;stroke:#12100b;stroke-width:0.71px;"/><path id="LINE_4472_" d="M85.68,92.121l0.44,0.21" style="fill:none;stroke:#12100b;stroke-width:0.71px;"/><path id="LWPOLYLINE_5570_" d="M86.12,92.331l-0.482,-0.132l0.482,0.132" style="fill:none;stroke:#12100b;stroke-width:0.71px;"/><path id="LINE_4471_" d="M114.028,120.721l0.032,-0.526" style="fill:none;stroke:#12100b;stroke-width:0.71px;"/><path id="LWPOLYLINE_5569_" d="M87.601,121.378l0.121,0.241l0.264,0.377l1.431,1.125l0.354,0.194l2.093,0.951l2.664,0.749l3.061,0.499l3.25,0.215l3.228,-0.082l2.467,-0.284l2.647,-0.593l2.07,-0.829l0.373,-0.17l1.402,-1.042l0.293,-0.357l0.582,-1.186l0.127,-0.465" style="fill:none;stroke:#12100b;stroke-width:0.71px;"/><path id="LWPOLYLINE_5568_" d="M79.378,112.095l0.827,-0.08l0.812,-0.146l0.014,-0.003" style="fill:none;stroke:#12100b;stroke-width:0.71px;"/><path id="LWPOLYLINE_5567_" d="M81.174,111.769l-0.079,0.046l-0.051,0.036l-0.037,0.02" style="fill:none;stroke:#12100b;stroke-width:0.71px;"/><path id="LWPOLYLINE_5566_" d="M93.196,120.631l2.15,0.372l1.712,0.2l1.093,0.128l2.87,0.167l0.052,0l2.811,0.002l1.187,-0.07l1.598,-0.094l2.205,-0.271l0.438,-0.053l2.433,-0.478l0.526,-0.15l1.64,-0.469l1.203,-0.486l0.645,-0.261l1.481,-0.855l0.065,-0.055l1.017,-0.887l0.307,-0.471l0.35,-0.537l0.185,-0.918" style="fill:none;stroke:#12100b;stroke-width:0.71px;"/><path id="LWPOLYLINE_5565_" d="M87.699,117.091l-1.001,0.426l-0.697,0.18l-0.693,0.181l-1.449,0.204l-0.16,0.022l-1.741,0.078l-0.535,-0.022l-1.247,-0.052l-1.21,-0.156l-0.517,-0.066l-1.58,-0.359l-0.135,-0.048l-1.214,-0.427l-0.523,-0.284l-0.524,-0.285l-0.619,-0.566l-0.069,-0.063l-0.293,-0.657l0.035,-0.195" style="fill:none;stroke:#12100b;stroke-width:0.71px;"/><path id="LWPOLYLINE_5564_" d="M88.404,95.915l0.042,0.095l0.016,0.067l0.072,0.308l0.011,0.133l-0.002,0.388l-0.004,0.079" style="fill:none;stroke:#12100b;stroke-width:0.71px;"/><path id="LWPOLYLINE_5563_" d="M91.356,96.936l-0.517,0.245l-0.436,0.456" style="fill:none;stroke:#12100b;stroke-width:0.71px;"/><path id="LWPOLYLINE_5562_" d="M90.403,97.637l-0.278,0.587l-0.074,0.44" style="fill:none;stroke:#12100b;stroke-width:0.71px;"/><path id="LINE_4470_" d="M98.165,95.354l-6.809,1.582" style="fill:none;stroke:#12100b;stroke-width:0.71px;"/><path id="LINE_4469_" d="M90.051,98.664l-0.765,17.245" style="fill:none;stroke:#12100b;stroke-width:0.71px;"/><path id="LWPOLYLINE_5561_" d="M96.909,113.137l0.156,-2.828l0.211,-3.797" style="fill:none;stroke:#12100b;stroke-width:0.71px;"/><path id="LWPOLYLINE_5560_" d="M102.958,94.848l1.426,-0.053l1.931,-0.201l1.748,-0.345" style="fill:none;stroke:#12100b;stroke-width:0.71px;"/><path id="LWPOLYLINE_5559_" d="M108.063,94.249l1.495,-0.474l1.179,-0.582l0.821,-0.67l0.427,-0.729l0.016,-0.76l-0.395,-0.761l-0.789,-0.73l-1.152,-0.672l-1.471,-0.586l-1.73,-0.476l-1.92,-0.349l-2.033,-0.206l-2.067,-0.057l-2.015,0.097l-1.885,0.245l-1.68,0.385l-1.406,0.508l-1.078,0.611l-0.537,0.478" style="fill:none;stroke:#12100b;stroke-width:0.71px;"/><path id="LINE_4468_" d="M85.638,92.199l-1.303,0.303" style="fill:none;stroke:#12100b;stroke-width:0.71px;"/><path id="LINE_4467_" d="M92.597,92.223l2.757,-0.641" style="fill:none;stroke:#12100b;stroke-width:0.71px;"/><path id="LINE_4466_" d="M99.704,94.088l1.068,-0.289" style="fill:none;stroke:#12100b;stroke-width:0.71px;"/><path id="LINE_4465_" d="M86.088,92.415l-0.45,-0.216" style="fill:none;stroke:#12100b;stroke-width:0.71px;"/><path id="LINE_4464_" d="M89.305,95.198l1.683,0.913" style="fill:none;stroke:#12100b;stroke-width:0.71px;"/><path id="LINE_4463_" d="M97.712,92.861l-2.758,0.641" style="fill:none;stroke:#12100b;stroke-width:0.71px;"/><path id="LINE_4462_" d="M94.954,93.502l0.498,0.269" style="fill:none;stroke:#12100b;stroke-width:0.71px;"/><path id="LINE_4461_" d="M100.772,93.799l2.186,1.049" style="fill:none;stroke:#12100b;stroke-width:0.71px;"/><path id="LINE_4460_" d="M90.988,96.111l8.716,-2.023" style="fill:none;stroke:#12100b;stroke-width:0.71px;"/><path id="LINE_4459_" d="M91.843,89.521l1.789,0.857" style="fill:none;stroke:#12100b;stroke-width:0.71px;"/><path id="LINE_4458_" d="M95.452,93.771l-6.147,1.427" style="fill:none;stroke:#12100b;stroke-width:0.71px;"/><path id="LINE_4457_" d="M84.335,92.502l1.618,0.878" style="fill:none;stroke:#12100b;stroke-width:0.71px;"/><path id="LINE_4454_" d="M85.953,93.38l6.147,-1.427" style="fill:none;stroke:#12100b;stroke-width:0.71px;"/><path id="LINE_4453_" d="M93.632,90.378l-7.544,2.037" style="fill:none;stroke:#12100b;stroke-width:0.71px;"/><path id="LINE_4436_" d="M92.1,91.953l0.497,0.27" style="fill:none;stroke:#12100b;stroke-width:0.71px;"/><path id="LWPOLYLINE_5558_" d="M90.988,96.111l-0.686,0.326l-0.054,0.024l-0.534,0.557l-0.09,0.093l-0.312,0.656l-0.087,0.181l-0.109,0.628" style="fill:none;stroke:#12100b;stroke-width:0.71px;"/><path id="LWPOLYLINE_5557_" d="M91.356,96.936l-0.022,-0.252l-0.077,-0.246l-0.121,-0.2l-0.148,-0.127" style="fill:none;stroke:#12100b;stroke-width:0.71px;"/><path id="LWPOLYLINE_5556_" d="M89.116,98.576l0.192,0.069l0.246,0.041l0.259,0.006l0.238,-0.028" style="fill:none;stroke:#12100b;stroke-width:0.71px;"/><path id="LWPOLYLINE_5555_" d="M89.305,95.198l-0.16,0.045l-0.159,0.061" style="fill:none;stroke:#12100b;stroke-width:0.71px;"/><path id="LINE_4435_" d="M88.575,98.282l0.541,0.294" style="fill:none;stroke:#12100b;stroke-width:0.71px;"/><path id="LWPOLYLINE_5554_" d="M88.986,95.304l0.013,0.119l-0.017,0.298l-0.01,0.183l-0.028,0.175l-0.093,0.463l-0.012,0.061l-0.023,0.107" style="fill:none;stroke:#12100b;stroke-width:0.71px;"/><path id="LWPOLYLINE_5553_" d="M88.816,96.71l-0.103,0.512l-0.032,0.202l-0.053,0.322l-0.008,0.065l-0.045,0.471" style="fill:none;stroke:#12100b;stroke-width:0.71px;"/><path id="LINE_4432_" d="M89.116,98.576l-0.764,17.246" style="fill:none;stroke:#12100b;stroke-width:0.71px;"/><path id="LWPOLYLINE_5552_" d="M88.575,98.282l-0.341,5.683l-0.684,11.422" style="fill:none;stroke:#12100b;stroke-width:0.71px;"/><path id="LWPOLYLINE_5551_" d="M88.986,95.304l-0.217,0.079l-0.184,0.14l-0.126,0.185l-0.021,0.078l-0.034,0.129" style="fill:none;stroke:#12100b;stroke-width:0.71px;"/><path id="LWPOLYLINE_5550_" d="M73.258,119.137l0.296,0.663l0.07,0.063l0.625,0.573l0.528,0.286l0.529,0.287l1.226,0.431l0.136,0.048l1.595,0.363l0.522,0.067l1.221,0.157l1.26,0.053l0.539,0.022l1.758,-0.079l0.161,-0.022l1.463,-0.205l0.701,-0.183l0.702,-0.182l1.012,-0.43" style="fill:none;stroke:#12100b;stroke-width:0.71px;"/><path id="LWPOLYLINE_5549_" d="M87.161,116.326l-0.915,0.39l-1.269,0.33l-1.469,0.206l-1.591,0.071l-1.627,-0.067l-1.577,-0.203l-1.443,-0.328l-1.233,-0.434l-0.955,-0.519l-0.629,-0.575l-0.268,-0.6l0.108,-0.594l0.477,-0.557l0.821,-0.488l1.121,-0.395l1.362,-0.28l1.37,-0.142" style="fill:none;stroke:#12100b;stroke-width:0.71px;"/><path id="LWPOLYLINE_5548_" d="M84.668,111.427l0.373,-9.203l0.32,-7.959" style="fill:none;stroke:#12100b;stroke-width:0.71px;"/><path id="LINE_4431_" d="M87.427,115.208l0.684,-11.419" style="fill:none;stroke:#12100b;stroke-width:0.71px;"/><path id="LWPOLYLINE_5547_" d="M83.308,95.318l-0.289,5.709l-0.58,11.476" style="fill:none;stroke:#12100b;stroke-width:0.71px;"/><path id="LWPOLYLINE_5546_" d="M88.404,95.915l-0.485,7.87l-0.562,9.101" style="fill:none;stroke:#12100b;stroke-width:0.71px;"/><path id="LWPOLYLINE_5545_" d="M87.357,112.886l-0.513,-0.494l-0.058,-0.057l-0.927,-0.502l-0.121,-0.041l-1.07,-0.365" style="fill:none;stroke:#12100b;stroke-width:0.71px;"/><path id="LWPOLYLINE_5544_" d="M85.361,94.265l-0.294,-0.023l-0.316,-0.023l-0.364,0.039l-0.486,0.17l-0.343,0.274l-0.183,0.302l-0.067,0.314" style="fill:none;stroke:#12100b;stroke-width:0.71px;"/><path id="LWPOLYLINE_5543_" d="M87.161,116.326l0.119,-0.06l0.481,-0.201l0.69,-0.2" style="fill:none;stroke:#12100b;stroke-width:0.71px;"/><path id="LWPOLYLINE_5542_" d="M81.182,111.9l-0.016,0.004l-0.853,0.153l-0.869,0.084" style="fill:none;stroke:#12100b;stroke-width:0.71px;"/><path id="LINE_4430_" d="M89.154,95.163l0.151,0.035" style="fill:none;stroke:#12100b;stroke-width:0.71px;"/><path id="LWPOLYLINE_5541_" d="M88.835,95.271l0.008,-0.004l0.054,0.014l0.053,0.014l0.036,0.009" style="fill:none;stroke:#12100b;stroke-width:0.71px;"/><path id="LWPOLYLINE_5540_" d="M112.644,91.635l-0.012,0.51l-0.006,0.299" style="fill:none;stroke:#12100b;stroke-width:0.71px;"/><path id="LWPOLYLINE_5539_" d="M112.626,92.444l-0.438,0.748l-0.017,0.029" style="fill:none;stroke:#12100b;stroke-width:0.71px;"/><path id="LWPOLYLINE_5538_" d="M112.171,93.221l-0.873,0.713l-0.373,0.183l-0.885,0.438l-1.002,0.317l-0.588,0.186l-1.795,0.354l-0.066,0.013" style="fill:none;stroke:#12100b;stroke-width:0.71px;"/><path id="LWPOLYLINE_5537_" d="M106.589,95.425l-2.057,0.215l-0.646,0.019l-1.239,0.037" style="fill:none;stroke:#12100b;stroke-width:0.71px;"/><path id="LWPOLYLINE_5536_" d="M97.868,106.446l-0.213,3.859l-0.099,1.807" style="fill:none;stroke:#12100b;stroke-width:0.71px;"/><path id="LINE_4429_" d="M97.556,112.112l0.131,0.019" style="fill:none;stroke:#12100b;stroke-width:0.71px;"/><path id="LWPOLYLINE_5535_" d="M97.687,112.131l2.027,0.223l0.547,0.023l1.521,0.066l1.561,-0.035l0.482,-0.012l1.955,-0.18l0.473,-0.081l1.33,-0.229l1.215,-0.327l0.381,-0.102l1.338,-0.534l0.269,-0.162l0.766,-0.461l0.535,-0.525l0.168,-0.166l0.348,-0.739" style="fill:none;stroke:#12100b;stroke-width:0.71px;"/><path id="LINE_4418_" d="M88.397,95.818l0.007,0.097" style="fill:none;stroke:#12100b;stroke-width:0.71px;"/><path id="LWPOLYLINE_5534_" d="M90.641,115.595l0.268,-0.005l0.919,0.019l0.929,0.082l0.928,0.149" style="fill:none;stroke:#12100b;stroke-width:0.71px;"/><path id="LWPOLYLINE_5533_" d="M112.604,107.84l0.778,0.5l0.881,0.879l0.459,0.908l0.021,0.908l-0.414,0.88l-0.838,0.824l-1.234,0.742l-1.594,0.636l-1.9,0.512l-2.149,0.369l-2.33,0.215l-2.435,0.056l-2.463,-0.107l-2.416,-0.266l-1.897,-0.33" style="fill:none;stroke:#12100b;stroke-width:0.71px;"/><path id="LINE_4416_" d="M102.897,96.18l-2.093,-1.003" style="fill:none;stroke:#12100b;stroke-width:0.71px;"/><path id="LINE_4404_" d="M100.659,94.766l-2.322,0.627" style="fill:none;stroke:#12100b;stroke-width:0.71px;"/><path id="LWPOLYLINE_5532_" d="M89.308,116.389l-0.022,0.003l-0.044,0.02l-0.06,0.048l-0.071,0.063l-0.071,0.058l-0.163,0.091l-0.054,0.016" style="fill:none;stroke:#12100b;stroke-width:0.71px;"/><path id="LWPOLYLINE_5531_" d="M93.386,116.666l-0.809,-0.129l-0.201,-0.017l-0.607,-0.054l-0.739,-0.017l-0.064,-0.001l-0.234,0.005" style="fill:none;stroke:#12100b;stroke-width:0.71px;"/><path id="LWPOLYLINE_5530_" d="M87.602,121.049l0.488,-0.215l0.394,-0.114l0.26,-0.076l0.683,-0.126l0.178,-0.019l0.488,-0.053l0.779,-0.03l0.006,0l0.707,0.017l0.617,0.052l0.172,0.015l0.822,0.131" style="fill:none;stroke:#12100b;stroke-width:0.71px;"/><path id="LWPOLYLINE_5527_" d="M88.823,116.688l-0.23,0.068l-0.37,0.107l-0.42,0.175l-0.104,0.053" style="fill:none;stroke:#12100b;stroke-width:0.71px;"/><path id="LWPOLYLINE_5526_" d="M90.732,116.453l-0.69,-0.025l-0.299,-0.016l-0.435,-0.023" style="fill:none;stroke:#12100b;stroke-width:0.71px;"/><path id="LWPOLYLINE_5525_" d="M88.823,116.688l-0.022,-0.251l-0.079,-0.245l-0.123,-0.2l-0.148,-0.127" style="fill:none;stroke:#12100b;stroke-width:0.71px;"/><path id="LWPOLYLINE_5524_" d="M86.098,94.278l-0.313,7.961l-0.341,8.619" style="fill:none;stroke:#12100b;stroke-width:0.71px;"/><path id="LINE_4403_" d="M91.927,92.903l-5.606,1.301" style="fill:none;stroke:#12100b;stroke-width:0.71px;"/><path id="LWPOLYLINE_5523_" d="M85.953,93.38l0.147,0.127l0.121,0.2l0.077,0.245l0.023,0.252" style="fill:none;stroke:#12100b;stroke-width:0.71px;"/><path id="LWPOLYLINE_5522_" d="M89.286,115.909l0.024,0.116l0.01,0.122l-0.001,0.123l-0.011,0.119" style="fill:none;stroke:#12100b;stroke-width:0.71px;"/><path id="LWPOLYLINE_5519_" d="M86.098,94.278l-0.234,0.031l-0.259,-0.005l-0.244,-0.039" style="fill:none;stroke:#12100b;stroke-width:0.71px;"/><path id="LWPOLYLINE_5470_" d="M85.634,93.486l0.038,0.031l0.058,0.046l0.059,0.047l0.009,0.013l0.025,0.034l0.108,0.148l0.108,0.234l0.006,0.025l0.053,0.214" style="fill:none;stroke:#12100b;stroke-width:0.71px;"/><path id="LWPOLYLINE_5469_" d="M85.953,93.38l-0.16,0.045l-0.159,0.061" style="fill:none;stroke:#12100b;stroke-width:0.71px;"/><path id="LWPOLYLINE_5467_" d="M85.634,93.486l-0.11,0.137l-0.089,0.191l-0.056,0.223l-0.007,0.086l-0.011,0.142" style="fill:none;stroke:#12100b;stroke-width:0.71px;"/><path id="LWPOLYLINE_5466_" d="M82.908,95.209l0.08,0.035l0.095,0.031l0.108,0.026l0.117,0.017" style="fill:none;stroke:#12100b;stroke-width:0.71px;"/><path id="LWPOLYLINE_5462_" d="M85.634,93.486l-0.746,0.005l-0.043,0.001l-0.48,0.096l-0.525,0.238l-0.123,0.056l-0.466,0.425l-0.073,0.131l-0.177,0.317l-0.093,0.454" style="fill:none;stroke:#12100b;stroke-width:0.71px;"/><path id="LINE_4401_" d="M82.432,94.95l0.476,0.259" style="fill:none;stroke:#12100b;stroke-width:0.71px;"/><path id="LWPOLYLINE_5458_" d="M84.335,92.502l-0.532,0.213l-0.147,0.124l-0.53,0.444l-0.07,0.115l-0.415,0.676l-0.015,0.064l-0.194,0.812" style="fill:none;stroke:#12100b;stroke-width:0.71px;"/><path id="LINE_4397_" d="M93.995,94.025l0.02,0.01" style="fill:none;stroke:#12100b;stroke-width:0.71px;"/><path id="LWPOLYLINE_5457_" d="M82.028,112.392l0.587,-11.476l0.293,-5.707" style="fill:none;stroke:#12100b;stroke-width:0.71px;"/><path id="LINE_4396_" d="M82.432,94.95l-1.141,17.042" style="fill:none;stroke:#12100b;stroke-width:0.71px;"/><path id="LWPOLYLINE_5456_" d="M82.313,94.759l0.01,0.096l0.109,0.095" style="fill:none;stroke:#12100b;stroke-width:0.71px;"/><path id="LINE_4395_" d="M84.335,92.502l-0.151,-0.034" style="fill:none;stroke:#12100b;stroke-width:0.71px;"/><path id="LINE_4390_" d="M91.714,90.82l-0.6,-0.287" style="fill:none;stroke:#12100b;stroke-width:0.71px;"/><path id="LWPOLYLINE_5455_" d="M85.618,110.789l0.754,0.281l1.025,0.556l0.033,0.027" style="fill:none;stroke:#12100b;stroke-width:0.71px;"/><path id="LINE_4389_" d="M92.423,93.184l3.16,-0.734" style="fill:none;stroke:#12100b;stroke-width:0.71px;"/><path id="LWPOLYLINE_5454_" d="M102.669,124.862l1.674,-0.042l1.568,-0.18l1.063,-0.123l1.814,-0.409l1.006,-0.227l1.359,-0.545l0.846,-0.341l0.852,-0.634l0.591,-0.443l0.33,-0.673l0.256,-0.524" style="fill:none;stroke:#12100b;stroke-width:0.71px;"/><path id="LWPOLYLINE_5453_" d="M87.809,121.293l0.782,0.618l0.516,0.408l1.388,0.633l0.842,0.384l1.689,0.477l1.151,0.326l1.851,0.303l1.409,0.232l1.875,0.126l1.591,0.106l1.766,-0.044" style="fill:none;stroke:#12100b;stroke-width:0.71px;"/><path id="LINE_4388_" d="M91.927,92.903l0.496,0.27" style="fill:none;stroke:#12100b;stroke-width:0.71px;"/><path id="LINE_3943_" d="M81.182,111.9l-0.151,-0.034" style="fill:none;stroke:#12100b;stroke-width:0.71px;"/></g><path d="M113.804,69.333l5.88,0l0,8.221l3.347,0l-6.287,6.145l-6.286,-6.145l3.347,0l0,-8.221l-0.001,0Zm2.939,13.007l3.913,-3.824l-1.957,0l0,-8.221l-3.912,0l0,8.221l-1.957,0l3.913,3.824Z" style="fill-rule:nonzero;"/><path d="M122.489,22.527c0,0.111 -0.006,0.208 -0.018,0.29c-0.012,0.082 -0.032,0.148 -0.062,0.198c-0.03,0.05 -0.063,0.086 -0.101,0.109c-0.039,0.023 -0.078,0.035 -0.119,0.035l-4.166,0l0,3.867l3.938,0c0.041,0 0.08,0.011 0.119,0.031c0.037,0.021 0.071,0.054 0.101,0.101c0.03,0.047 0.05,0.11 0.062,0.188c0.012,0.08 0.018,0.181 0.018,0.304c0,0.111 -0.006,0.206 -0.018,0.286c-0.012,0.078 -0.032,0.144 -0.062,0.193c-0.03,0.049 -0.063,0.088 -0.101,0.113c-0.039,0.027 -0.078,0.04 -0.119,0.04l-3.938,0l0,4.737c0,0.041 -0.012,0.081 -0.035,0.119c-0.023,0.038 -0.064,0.067 -0.123,0.088c-0.059,0.021 -0.135,0.037 -0.229,0.053c-0.094,0.014 -0.217,0.021 -0.369,0.021c-0.141,0 -0.261,-0.008 -0.36,-0.021c-0.1,-0.016 -0.179,-0.032 -0.237,-0.053c-0.058,-0.021 -0.1,-0.05 -0.123,-0.088c-0.023,-0.038 -0.035,-0.078 -0.035,-0.119l0,-10.527c0,-0.229 0.061,-0.388 0.18,-0.479c0.121,-0.091 0.248,-0.137 0.383,-0.137l5.115,0c0.041,0 0.08,0.012 0.119,0.035c0.037,0.023 0.071,0.062 0.101,0.114c0.03,0.052 0.05,0.122 0.062,0.206c0.011,0.087 0.017,0.185 0.017,0.296Z" style="fill-rule:nonzero;"/><path d="M133.356,119.141c0,0.094 -0.003,0.176 -0.009,0.246c-0.006,0.07 -0.017,0.132 -0.03,0.185c-0.016,0.053 -0.034,0.1 -0.058,0.141c-0.024,0.041 -0.064,0.091 -0.123,0.149c-0.059,0.058 -0.182,0.148 -0.369,0.269c-0.187,0.121 -0.421,0.236 -0.698,0.352c-0.279,0.113 -0.598,0.211 -0.959,0.289c-0.359,0.08 -0.754,0.119 -1.182,0.119c-0.738,0 -1.404,-0.123 -2,-0.369c-0.594,-0.246 -1.102,-0.609 -1.52,-1.09c-0.42,-0.48 -0.742,-1.073 -0.967,-1.779c-0.227,-0.706 -0.339,-1.52 -0.339,-2.439c0,-0.943 0.122,-1.784 0.364,-2.522c0.244,-0.738 0.585,-1.363 1.024,-1.876c0.439,-0.513 0.966,-0.904 1.577,-1.174c0.613,-0.27 1.291,-0.404 2.035,-0.404c0.328,0 0.647,0.031 0.958,0.092c0.311,0.063 0.598,0.14 0.861,0.233c0.263,0.093 0.498,0.202 0.703,0.325c0.205,0.123 0.347,0.225 0.427,0.303c0.078,0.08 0.13,0.14 0.153,0.181c0.023,0.041 0.042,0.09 0.058,0.146c0.014,0.056 0.025,0.121 0.035,0.197c0.008,0.076 0.013,0.167 0.013,0.272c0,0.117 -0.006,0.217 -0.018,0.299c-0.012,0.082 -0.029,0.151 -0.054,0.206c-0.023,0.057 -0.051,0.098 -0.084,0.123c-0.031,0.027 -0.072,0.04 -0.119,0.04c-0.082,0 -0.197,-0.058 -0.344,-0.171c-0.148,-0.115 -0.338,-0.24 -0.57,-0.379c-0.232,-0.137 -0.516,-0.264 -0.848,-0.377c-0.334,-0.115 -0.732,-0.172 -1.197,-0.172c-0.508,0 -0.969,0.102 -1.383,0.303c-0.416,0.203 -0.771,0.5 -1.065,0.893c-0.294,0.393 -0.522,0.872 -0.685,1.438c-0.163,0.566 -0.243,1.211 -0.243,1.938c0,0.721 0.078,1.357 0.234,1.912c0.155,0.553 0.38,1.017 0.671,1.389c0.292,0.372 0.65,0.653 1.074,0.844c0.424,0.191 0.904,0.285 1.439,0.285c0.454,0 0.85,-0.056 1.189,-0.167c0.338,-0.111 0.627,-0.235 0.865,-0.374c0.238,-0.137 0.435,-0.262 0.588,-0.373c0.152,-0.111 0.273,-0.167 0.361,-0.167c0.042,0 0.077,0.009 0.107,0.026c0.029,0.018 0.053,0.052 0.07,0.102c0.017,0.05 0.031,0.118 0.039,0.206c0.015,0.084 0.019,0.196 0.019,0.33Z" style="fill-rule:nonzero;"/><text x="134.82px" y="120.47px" style="font-family:'ArialMT', 'Arial', sans-serif;font-size:16px;">2</text><g><path d="M65.902,82.625c-0.023,0.082 -0.059,0.148 -0.105,0.197c-0.047,0.051 -0.111,0.088 -0.193,0.115c-0.082,0.025 -0.183,0.045 -0.303,0.057c-0.12,0.012 -0.268,0.018 -0.444,0.018c-0.182,0 -0.335,-0.006 -0.461,-0.018c-0.126,-0.012 -0.23,-0.031 -0.312,-0.057c-0.082,-0.027 -0.144,-0.064 -0.185,-0.115c-0.041,-0.049 -0.073,-0.115 -0.097,-0.197l-2.382,-8.587l-0.018,0l-2.197,8.587c-0.018,0.082 -0.047,0.148 -0.088,0.197c-0.041,0.051 -0.1,0.088 -0.176,0.115c-0.076,0.025 -0.174,0.045 -0.294,0.057c-0.12,0.012 -0.274,0.018 -0.461,0.018c-0.193,0 -0.354,-0.006 -0.483,-0.018c-0.129,-0.012 -0.234,-0.031 -0.316,-0.057c-0.082,-0.027 -0.145,-0.064 -0.189,-0.115c-0.044,-0.049 -0.075,-0.115 -0.092,-0.197l-3.006,-10.503c-0.035,-0.135 -0.054,-0.24 -0.057,-0.316c-0.003,-0.076 0.021,-0.135 0.07,-0.176c0.049,-0.041 0.13,-0.067 0.242,-0.079c0.112,-0.012 0.261,-0.018 0.448,-0.018c0.182,0 0.325,0.004 0.431,0.014c0.105,0.008 0.186,0.024 0.242,0.048c0.056,0.024 0.094,0.056 0.114,0.097c0.02,0.041 0.037,0.094 0.048,0.158l2.558,9.527l0.009,0l2.426,-9.51c0.018,-0.064 0.04,-0.119 0.066,-0.162c0.026,-0.045 0.069,-0.078 0.127,-0.102c0.058,-0.024 0.142,-0.041 0.25,-0.053c0.108,-0.012 0.25,-0.018 0.426,-0.018c0.164,0 0.294,0.006 0.391,0.018c0.097,0.012 0.174,0.029 0.233,0.053c0.059,0.024 0.101,0.057 0.127,0.102c0.026,0.043 0.048,0.098 0.066,0.162l2.61,9.51l0.018,0l2.505,-9.519c0.018,-0.059 0.035,-0.11 0.053,-0.153c0.018,-0.045 0.054,-0.078 0.11,-0.102c0.056,-0.024 0.135,-0.041 0.237,-0.053c0.102,-0.012 0.239,-0.018 0.409,-0.018c0.176,0 0.315,0.008 0.417,0.021c0.103,0.016 0.177,0.043 0.224,0.084c0.047,0.041 0.069,0.1 0.066,0.176c-0.003,0.076 -0.019,0.182 -0.048,0.316l-3.016,10.496Z" style="fill-rule:nonzero;"/><path d="M70.463,79.962c0,-0.322 0.044,-0.628 0.132,-0.919c0.088,-0.289 0.226,-0.57 0.413,-0.844c0.188,-0.271 0.432,-0.535 0.734,-0.791c0.302,-0.254 0.667,-0.511 1.094,-0.769c-0.234,-0.316 -0.435,-0.604 -0.602,-0.861c-0.167,-0.257 -0.305,-0.498 -0.413,-0.721c-0.108,-0.223 -0.186,-0.435 -0.233,-0.638c-0.047,-0.201 -0.07,-0.405 -0.07,-0.61c0,-0.363 0.062,-0.71 0.185,-1.042c0.123,-0.33 0.321,-0.623 0.593,-0.879c0.272,-0.254 0.623,-0.457 1.05,-0.605c0.428,-0.15 0.946,-0.225 1.556,-0.225c0.516,0 0.962,0.056 1.34,0.167c0.378,0.111 0.691,0.27 0.94,0.475c0.249,0.205 0.437,0.452 0.563,0.743c0.126,0.289 0.189,0.613 0.189,0.971c0,0.346 -0.056,0.662 -0.167,0.949c-0.111,0.287 -0.29,0.565 -0.536,0.835c-0.246,0.27 -0.561,0.538 -0.945,0.804c-0.384,0.268 -0.848,0.547 -1.393,0.84c0.199,0.24 0.416,0.491 0.65,0.752c0.234,0.261 0.479,0.522 0.734,0.786c0.255,0.264 0.516,0.522 0.782,0.778c0.267,0.254 0.529,0.499 0.787,0.733c0.117,-0.158 0.223,-0.339 0.316,-0.54c0.094,-0.203 0.176,-0.416 0.246,-0.643c0.07,-0.225 0.123,-0.455 0.158,-0.689c0.035,-0.234 0.053,-0.472 0.053,-0.712l0,-0.316c0,-0.059 0.01,-0.106 0.031,-0.146c0.021,-0.037 0.054,-0.07 0.101,-0.096c0.047,-0.027 0.116,-0.046 0.207,-0.058c0.091,-0.012 0.209,-0.018 0.356,-0.018c0.129,0 0.239,0.003 0.33,0.009c0.091,0.006 0.166,0.02 0.224,0.039c0.059,0.021 0.101,0.053 0.127,0.098c0.026,0.043 0.04,0.104 0.04,0.18l0,0.22c0,0.328 -0.028,0.65 -0.083,0.967c-0.055,0.317 -0.132,0.626 -0.229,0.927c-0.097,0.303 -0.217,0.591 -0.36,0.866c-0.143,0.275 -0.303,0.53 -0.479,0.765c0.264,0.211 0.494,0.387 0.69,0.527c0.196,0.14 0.363,0.255 0.501,0.343c0.138,0.088 0.252,0.149 0.343,0.185c0.091,0.036 0.166,0.053 0.224,0.053c0.058,0 0.114,-0.003 0.167,-0.009c0.053,-0.006 0.095,0.003 0.127,0.026c0.032,0.023 0.057,0.07 0.075,0.141c0.018,0.071 0.026,0.179 0.026,0.325c0,0.146 -0.003,0.264 -0.009,0.352c-0.006,0.088 -0.016,0.153 -0.031,0.198c-0.015,0.043 -0.04,0.08 -0.075,0.109c-0.035,0.029 -0.1,0.056 -0.193,0.079c-0.093,0.023 -0.217,0.035 -0.369,0.035c-0.117,0 -0.246,-0.021 -0.387,-0.062c-0.141,-0.041 -0.305,-0.112 -0.492,-0.215c-0.187,-0.103 -0.406,-0.242 -0.655,-0.418c-0.249,-0.176 -0.541,-0.398 -0.875,-0.668c-0.246,0.199 -0.505,0.384 -0.778,0.554c-0.273,0.17 -0.563,0.315 -0.87,0.435c-0.308,0.121 -0.63,0.215 -0.967,0.281c-0.337,0.067 -0.702,0.102 -1.094,0.102c-0.369,0 -0.719,-0.032 -1.05,-0.097c-0.331,-0.065 -0.637,-0.156 -0.918,-0.276c-0.281,-0.12 -0.533,-0.271 -0.756,-0.453c-0.223,-0.182 -0.412,-0.388 -0.567,-0.619c-0.155,-0.231 -0.275,-0.491 -0.36,-0.778c-0.085,-0.287 -0.128,-0.598 -0.128,-0.932Zm1.573,-0.15c0,0.305 0.051,0.583 0.154,0.835c0.103,0.252 0.253,0.47 0.453,0.655c0.199,0.184 0.448,0.328 0.747,0.43c0.299,0.104 0.645,0.154 1.037,0.154c0.24,0 0.475,-0.024 0.703,-0.074c0.228,-0.05 0.447,-0.117 0.655,-0.203c0.208,-0.084 0.406,-0.187 0.593,-0.307c0.187,-0.12 0.36,-0.248 0.519,-0.383c-0.305,-0.264 -0.608,-0.537 -0.91,-0.822c-0.302,-0.283 -0.593,-0.569 -0.875,-0.856c-0.282,-0.287 -0.552,-0.572 -0.813,-0.856c-0.261,-0.284 -0.5,-0.562 -0.716,-0.831c-0.293,0.188 -0.538,0.374 -0.734,0.558c-0.196,0.186 -0.354,0.369 -0.475,0.555c-0.12,0.184 -0.207,0.37 -0.259,0.558c-0.052,0.188 -0.079,0.382 -0.079,0.587Zm1.02,-6.117c0,0.158 0.022,0.319 0.066,0.483c0.044,0.164 0.111,0.336 0.202,0.515c0.091,0.179 0.202,0.37 0.334,0.575c0.132,0.205 0.289,0.434 0.47,0.686c0.428,-0.24 0.787,-0.462 1.077,-0.663c0.29,-0.203 0.523,-0.397 0.699,-0.585c0.176,-0.188 0.303,-0.375 0.382,-0.563c0.079,-0.188 0.119,-0.387 0.119,-0.598c0,-0.17 -0.031,-0.332 -0.092,-0.487c-0.061,-0.155 -0.16,-0.293 -0.294,-0.414c-0.135,-0.119 -0.305,-0.215 -0.51,-0.285c-0.205,-0.07 -0.451,-0.105 -0.738,-0.105c-0.311,0 -0.573,0.039 -0.787,0.119c-0.214,0.078 -0.39,0.184 -0.527,0.316c-0.138,0.131 -0.239,0.285 -0.303,0.461c-0.064,0.176 -0.098,0.358 -0.098,0.545Z" style="fill-rule:nonzero;"/><path d="M89.843,82.326c0,0.111 -0.006,0.207 -0.018,0.285c-0.012,0.08 -0.031,0.146 -0.057,0.198c-0.026,0.052 -0.059,0.091 -0.097,0.114c-0.038,0.023 -0.083,0.035 -0.136,0.035l-6.715,0c-0.152,0 -0.275,-0.047 -0.369,-0.141c-0.094,-0.094 -0.141,-0.243 -0.141,-0.448l0,-0.325c0,-0.076 0.004,-0.146 0.013,-0.211c0.009,-0.065 0.028,-0.133 0.057,-0.207c0.029,-0.072 0.07,-0.154 0.123,-0.246c0.053,-0.09 0.117,-0.197 0.193,-0.32l5.247,-8.209l-5.186,0c-0.059,0 -0.108,-0.012 -0.149,-0.035c-0.041,-0.023 -0.075,-0.06 -0.101,-0.109c-0.026,-0.049 -0.045,-0.115 -0.057,-0.193c-0.012,-0.08 -0.018,-0.172 -0.018,-0.277c0,-0.117 0.006,-0.217 0.018,-0.299c0.012,-0.082 0.031,-0.149 0.057,-0.202c0.026,-0.053 0.06,-0.091 0.101,-0.114c0.041,-0.023 0.091,-0.035 0.149,-0.035l6.328,0c0.158,0 0.283,0.046 0.374,0.137c0.091,0.091 0.136,0.229 0.136,0.417l0,0.343c0,0.094 -0.006,0.178 -0.018,0.25c-0.012,0.074 -0.032,0.148 -0.062,0.225c-0.03,0.077 -0.069,0.158 -0.119,0.246c-0.05,0.088 -0.116,0.19 -0.198,0.308l-5.221,8.174l5.555,0c0.1,0 0.176,0.05 0.229,0.149c0.053,0.099 0.082,0.261 0.082,0.49Z" style="fill-rule:nonzero;"/></g></svg>