<?xml version="1.0" encoding="UTF-8" standalone="no"?>
<!DOCTYPE svg PUBLIC "-//W3C//DTD SVG 1.1//EN" "http://www.w3.org/Graphics/SVG/1.1/DTD/svg11.dtd">
<svg width="100%" height="100%" viewBox="0 0 456 568" version="1.1" xmlns="http://www.w3.org/2000/svg" xmlns:xlink="http://www.w3.org/1999/xlink" xml:space="preserve" xmlns:serif="http://www.serif.com/" style="fill-rule:evenodd;clip-rule:evenodd;stroke-linecap:round;stroke-linejoin:round;stroke-miterlimit:10;">
    <path id="LWPOLYLINE" d="M406.152,372.416L403.283,369.827L399.829,367.816L395.846,366.413L391.387,365.649L386.527,365.544L381.348,366.099L375.93,367.315L370.361,369.17L364.738,371.638L359.159,374.678L353.71,378.243L348.493,382.268L343.596,386.687L339.098,391.427L335.077,396.403L331.6,401.534L328.725,406.725L326.497,411.899L324.95,416.961L324.122,421.658" style="fill:none;stroke:black;stroke-width:1.42px;"/>
    <path id="LWPOLYLINE_1_" d="M423.4,391.672L420.545,389.104L417.098,387.12L413.107,385.752L408.637,385.027L403.759,384.966L398.55,385.569L393.094,386.835L387.48,388.746L381.811,391.269L376.173,394.365L370.668,397.986L365.387,402.067L360.423,406.54L355.859,411.329L351.775,416.352L348.232,421.521L345.295,426.751L343.008,431.95L341.407,437.033L340.535,441.746" style="fill:none;stroke:black;stroke-width:1.42px;"/>
    <path id="LWPOLYLINE_2_" d="M344.62,458.722L347.326,461.406L350.616,463.512L354.425,465.013L358.693,465.891L363.354,466.134L368.328,465.744L373.54,464.731L378.909,463.116L384.35,460.926L389.786,458.194L395.133,454.966L400.309,451.285L405.241,447.215L409.85,442.812L414.074,438.142L417.843,433.273L421.101,428.283L423.797,423.242L425.888,418.225L427.34,413.314L428.121,408.58L428.219,404.103L427.627,399.949L426.348,396.187L424.395,392.884L423.4,391.672" style="fill:none;stroke:black;stroke-width:1.42px;"/>
    <path id="LWPOLYLINE_3_" d="M324.122,421.658L323.936,425.082L324.136,428.332L324.716,431.374L325.674,434.19L326.993,436.751L328.342,438.652" style="fill:none;stroke:black;stroke-width:1.42px;"/>
    <path id="LWPOLYLINE_4_" d="M340.535,441.746L340.316,445.176L340.484,448.427L341.043,451.469L341.977,454.278L343.281,456.83L344.62,458.722" style="fill:none;stroke:black;stroke-width:1.42px;"/>
    <path id="LWPOLYLINE_5_" d="M345.052,440.137L345.884,435.744L347.354,431.176L349.434,426.506L352.094,421.816L355.292,417.185L358.977,412.686L363.085,408.4L367.549,404.403L372.294,400.755L377.236,397.525L382.294,394.761L387.381,392.51L392.414,390.813L397.305,389.691L401.975,389.163L406.346,389.232L410.35,389.892L413.924,391.135L417.011,392.927L419.551,395.226" style="fill:none;stroke:black;stroke-width:1.42px;"/>
    <path id="LWPOLYLINE_6_" d="M348.739,455.494L347.297,453.4L346.177,451.062L345.391,448.493L344.949,445.718L344.855,442.757L345.052,440.137" style="fill:none;stroke:black;stroke-width:1.42px;"/>
    <path id="LWPOLYLINE_7_" d="M419.551,395.226L421.543,398.015L422.938,401.238L423.719,404.84L423.879,408.76L423.417,412.935L422.348,417.301L420.691,421.784L418.473,426.326L415.73,430.847L412.511,435.28L408.859,439.564L404.833,443.633L400.493,447.42L395.904,450.876L391.139,453.944L386.264,456.575L381.355,458.738L376.49,460.388L371.736,461.502L367.171,462.06L362.865,462.052L358.889,461.471L355.301,460.327L352.168,458.627L349.54,456.402L348.739,455.494" style="fill:none;stroke:black;stroke-width:1.42px;"/>
    <path id="LWPOLYLINE_8_" d="M419.286,394.967L421.116,397.881L422.346,401.215L422.958,404.908L422.951,408.905L422.325,413.138L421.093,417.542L419.281,422.048L416.92,426.587L414.044,431.092L410.704,435.489L406.945,439.719L402.831,443.714L398.419,447.411L393.777,450.764L388.979,453.715L384.09,456.219L379.188,458.241L374.343,459.746L369.636,460.708L365.137,461.11L360.917,460.943L357.041,460.205L353.573,458.905L350.57,457.057L348.866,455.548" style="fill:none;stroke:black;stroke-width:1.42px;"/>
    <path id="LWPOLYLINE_9_" d="M412.96,416.006L413.191,413.657L413.15,411.422L412.833,409.323L412.247,407.377L411.391,405.604L410.279,404.026L410.104,403.822" style="fill:none;stroke:black;stroke-width:1.42px;"/>
    <path id="LWPOLYLINE_10_" d="M361.059,434.449L361.578,431.824L362.469,429.1L363.723,426.319L365.316,423.529L367.225,420.776L369.421,418.106L371.865,415.56L374.518,413.185L377.334,411.016L380.271,409.094L383.275,407.445L386.303,406.098L389.297,405.077L392.212,404.394L395.003,404.062L397.619,404.086L400.021,404.461L402.172,405.18L404.038,406.231L405.586,407.597L405.719,407.747" style="fill:none;stroke:black;stroke-width:1.42px;"/>
    <path id="LWPOLYLINE_11_" d="M358.73,447.544L360.512,449.28L362.673,450.642L365.176,451.605L367.98,452.16L371.042,452.298L374.313,452.019L377.736,451.333L381.262,450.248L384.839,448.786L388.404,446.964L391.91,444.816L395.297,442.373L398.52,439.676L401.523,436.76L404.266,433.674L406.702,430.465L408.795,427.179L410.512,423.87L411.824,420.59L412.71,417.386L412.96,416.006" style="fill:none;stroke:black;stroke-width:1.42px;"/>
    <path id="LWPOLYLINE_12_" d="M410.104,403.822L408.26,402.135L406.029,400.829L403.45,399.919L400.559,399.431L397.404,399.369L394.038,399.737L390.508,400.534L386.877,401.741L383.206,403.349L379.553,405.323L375.98,407.637L372.547,410.253L369.313,413.121L366.326,416.202L363.643,419.437L361.303,422.775L359.348,426.161L357.805,429.535L356.702,432.845L356.051,436.04L355.865,439.061L356.143,441.864L356.876,444.403L358.053,446.638L358.73,447.544" style="fill:none;stroke:black;stroke-width:1.42px;"/>
    <path id="LWPOLYLINE_13_" d="M409.24,402.84L407.395,401.155L405.165,399.846L402.586,398.936L399.695,398.446L396.542,398.382L393.173,398.748L389.646,399.545L386.018,400.751L382.348,402.353L378.695,404.328L375.126,406.64L371.695,409.253L368.461,412.122L365.479,415.198L362.796,418.433L360.46,421.767L358.504,425.152L356.965,428.529L355.861,431.839L355.214,435.029L355.029,438.051L355.309,440.853L356.043,443.392L357.223,445.632L357.898,446.538" style="fill:none;stroke:black;stroke-width:1.42px;"/>
    <path id="LWPOLYLINE_14_" d="M388.992,405.225L387.555,407.946L385.813,410.635L383.79,413.26L381.518,415.77L379.033,418.13L376.372,420.304L373.579,422.26L370.695,423.966L367.766,425.396L364.835,426.527L363.477,426.949" style="fill:none;stroke:black;stroke-width:1.42px;"/>
    <path id="LWPOLYLINE_15_" d="M363.305,443.848L360.952,437.555L361.059,434.449" style="fill:none;stroke:black;stroke-width:1.42px;"/>
    <path id="LWPOLYLINE_16_" d="M405.719,407.747L406.898,409.43L407.719,411.372L408.173,413.546L408.25,415.907L407.955,418.425L407.292,421.058L406.273,423.762L404.915,426.499L403.239,429.222L401.273,431.892L399.049,434.47L396.598,436.911L393.959,439.178L391.176,441.238L388.288,443.062L385.342,444.617L382.382,445.878L379.454,446.829L376.605,447.454L373.876,447.739L371.316,447.678L368.962,447.274L366.852,446.533L365.02,445.458L363.496,444.073L363.305,443.848" style="fill:none;stroke:black;stroke-width:1.42px;"/>
    <path id="LWPOLYLINE_17_" d="M117.073,197.289L118.855,199.764L120.863,202.55" style="fill:none;stroke:black;stroke-width:0.71px;"/>
    <path id="LINE" d="M156.208,251.681L159.289,255.317" style="fill:none;stroke:black;stroke-width:0.71px;"/>
    <path id="LWPOLYLINE_18_" d="M248.693,172.78L244.486,169.289L239.613,166.511L234.146,164.501L228.167,163.297L221.775,162.928L215.074,163.404L208.174,164.727L201.193,166.876L194.249,169.821L187.461,173.513L180.95,177.891L174.823,182.88L169.191,188.396L164.148,194.34L159.781,200.61L156.162,207.098L153.35,213.692L151.384,220.279L150.297,226.749L150.097,232.992L150.782,238.908L152.332,244.403L154.711,249.39L156.208,251.681" style="fill:none;stroke:black;stroke-width:0.71px;"/>
    <path id="LINE_1_" d="M225.794,251.325L234.707,244.045" style="fill:none;stroke:black;stroke-width:0.71px;"/>
    <path id="LWPOLYLINE_19_" d="M257.766,192.104L257.07,188.111L255.957,184.312L254.434,180.74L252.511,177.422L250.197,174.389L248.693,172.78" style="fill:none;stroke:black;stroke-width:0.71px;"/>
    <path id="LWPOLYLINE_20_" d="M125.468,208.927L126.061,209.782" style="fill:none;stroke:black;stroke-width:0.71px;"/>
    <path id="LWPOLYLINE_21_" d="M163.015,149.169L166.373,145.483L169.8,142.098L173.269,139.041L176.749,136.331L180.214,133.993L181.648,133.13" style="fill:none;stroke:black;stroke-width:0.71px;"/>
    <path id="LWPOLYLINE_22_" d="M146.214,143.361L147.473,144.735L156.092,154.149" style="fill:none;stroke:black;stroke-width:0.71px;"/>
    <path id="LINE_2_" d="M156.092,154.149L163.015,149.169" style="fill:none;stroke:black;stroke-width:0.71px;"/>
    <path id="LWPOLYLINE_23_" d="M159.291,157.643L160.615,159.09L169.866,169.197" style="fill:none;stroke:black;stroke-width:0.71px;"/>
    <path id="LWPOLYLINE_24_" d="M169.866,169.197L174.25,163.629L178.817,158.54L183.499,153.999L188.226,150.07L192.934,146.803L197.553,144.239L202.022,142.408L202.963,142.109" style="fill:none;stroke:black;stroke-width:0.71px;"/>
    <path id="LWPOLYLINE_25_" d="M174.967,166.443L181.358,162.473L187.972,159.181L194.699,156.613L201.426,154.813L208.045,153.805L214.448,153.6L220.532,154.197L224.865,155.169" style="fill:none;stroke:black;stroke-width:0.71px;"/>
    <path id="LINE_3_" d="M181.448,265.092L181.725,256.993" style="fill:none;stroke:black;stroke-width:0.71px;"/>
    <path id="LWPOLYLINE_26_" d="M181.448,265.092L177.576,264.559L173.868,263.696L170.351,262.507L167.047,260.999L163.981,259.179L163.674,258.971" style="fill:none;stroke:black;stroke-width:0.71px;"/>
    <path id="LINE_4_" d="M163.674,258.971L157.58,260.746" style="fill:none;stroke:black;stroke-width:0.71px;"/>
    <path id="LWPOLYLINE_27_" d="M159.289,255.317L159.673,255.795L159.7,255.837" style="fill:none;stroke:black;stroke-width:0.71px;"/>
    <path id="LWPOLYLINE_28_" d="M267.688,198.28L265.752,198.5L263.923,198.398L262.255,197.969L260.789,197.231L259.855,196.485" style="fill:none;stroke:black;stroke-width:0.71px;"/>
    <path id="LWPOLYLINE_29_" d="M267.688,198.28L270.29,197.914L272.802,197.835L275.197,198.048L277.441,198.545L279.51,199.321L281.373,200.365L283.01,201.662L283.055,201.704" style="fill:none;stroke:black;stroke-width:0.71px;"/>
    <path id="LINE_5_" d="M256.291,242.973L234.707,244.045" style="fill:none;stroke:black;stroke-width:0.71px;"/>
    <path id="LINE_6_" d="M225.794,251.325L217.422,256.57" style="fill:none;stroke:black;stroke-width:0.71px;"/>
    <path id="LINE_7_" d="M217.422,256.57L217.807,248.979" style="fill:none;stroke:black;stroke-width:0.71px;"/>
    <path id="LWPOLYLINE_30_" d="M181.725,256.993L178.179,256.126L174.846,254.907L171.755,253.34L168.937,251.438L166.413,249.216L164.631,247.227" style="fill:none;stroke:black;stroke-width:0.71px;"/>
    <path id="LWPOLYLINE_31_" d="M255.4,219.172L257.954,215.679L261.445,212.962L265.313,211.456L268.941,211.396L271.753,212.79L272.096,213.134" style="fill:none;stroke:black;stroke-width:0.71px;"/>
    <path id="LWPOLYLINE_32_" d="M242.958,180.404L245.705,184.061L247.785,188.189L249.17,192.72L249.846,197.578L249.807,202.688L249.057,207.969L247.613,213.336L245.506,218.71L242.762,224.008L239.434,229.152L235.568,234.063L231.227,238.67L226.474,242.905L221.381,246.702L217.807,248.979" style="fill:none;stroke:black;stroke-width:0.71px;"/>
    <path id="LWPOLYLINE_33_" d="M164.631,247.227L162.083,243.402L160.206,239.098L159.04,234.383L158.604,229.33L158.917,224.02L159.974,218.538L161.766,212.977L164.264,207.428L167.43,201.987L171.214,196.747L175.552,191.796L180.371,187.219L185.589,183.096L191.119,179.497L196.864,176.481L202.726,174.1L208.604,172.389L214.403,171.377L220.021,171.076L225.37,171.487L230.361,172.597L234.914,174.384L238.96,176.813L242.436,179.84L242.958,180.404" style="fill:none;stroke:black;stroke-width:0.71px;"/>
    <path id="LWPOLYLINE_34_" d="M241.785,179.193L244.279,183.04L246.098,187.33L247.215,191.994L247.621,196.957L247.311,202.137L246.299,207.457L244.604,212.832L242.253,218.181L239.289,223.421L235.757,228.477L231.709,233.273L227.21,237.738L222.326,241.803L217.13,245.41L215.595,246.351" style="fill:none;stroke:black;stroke-width:0.71px;"/>
    <path id="LINE_8_" d="M217.807,248.979L215.595,246.351" style="fill:none;stroke:black;stroke-width:0.71px;"/>
    <path id="LWPOLYLINE_35_" d="M179.557,254.321L176.174,253.501L172.983,252.358L170.011,250.901L167.28,249.137L164.814,247.081L163.63,245.884" style="fill:none;stroke:black;stroke-width:0.71px;"/>
    <path id="LINE_9_" d="M181.725,256.993L179.557,254.321" style="fill:none;stroke:black;stroke-width:0.71px;"/>
    <path id="LWPOLYLINE_36_" d="M179.672,250.857L179.548,250.269L179.435,250.094" style="fill:none;stroke:black;stroke-width:0.71px;"/>
    <path id="LINE_10_" d="M179.672,250.857L179.557,254.321" style="fill:none;stroke:black;stroke-width:0.71px;"/>
    <path id="LINE_11_" d="M215.74,243.439L215.595,246.351" style="fill:none;stroke:black;stroke-width:0.71px;"/>
    <path id="LWPOLYLINE_37_" d="M216.905,241.642L216.3,242.175L215.89,242.825L215.74,243.439" style="fill:none;stroke:black;stroke-width:0.71px;"/>
    <path id="LWPOLYLINE_38_" d="M178.885,249.742L176.086,248.767L173.467,247.527L171.051,246.029L168.855,244.282L166.893,242.299L166.319,241.616" style="fill:none;stroke:black;stroke-width:0.71px;"/>
    <path id="LWPOLYLINE_39_" d="M129.841,274.933L127.578,280.835L127.563,281.288" style="fill:none;stroke:black;stroke-width:0.71px;"/>
    <path id="LINE_12_" d="M130.628,273.97L129.841,274.933" style="fill:none;stroke:black;stroke-width:0.71px;"/>
    <path id="LINE_13_" d="M158.069,266.852L150.698,266.317" style="fill:none;stroke:black;stroke-width:0.71px;"/>
    <path id="LWPOLYLINE_40_" d="M159.413,290.924L164.596,288.452L167.777,284.895L168.539,281.981" style="fill:none;stroke:black;stroke-width:0.71px;"/>
    <path id="LWPOLYLINE_41_" d="M127.239,316.118L127.415,318.081L127.975,320.018L128.912,321.902L130.212,323.703L131.857,325.385L133.819,326.927L136.068,328.299L138.569,329.479L141.278,330.451L144.153,331.193L147.147,331.696L150.209,331.948L153.291,331.951L156.34,331.698L159.306,331.199L162.14,330.461L164.798,329.493L167.234,328.316L169.411,326.945L171.292,325.41L172.85,323.733L174.06,321.936L174.902,320.057L175.367,318.126L175.457,317.063" style="fill:none;stroke:black;stroke-width:0.71px;"/>
    <path id="LWPOLYLINE_42_" d="M176.579,282.299L176.446,280.359L175.925,278.442L175.027,276.579L173.767,274.798L172.166,273.129L170.25,271.596L168.049,270.223L165.6,269.032L162.941,268.04L160.113,267.261L158.069,266.852" style="fill:none;stroke:black;stroke-width:0.71px;"/>
    <path id="LWPOLYLINE_43_" d="M127.563,281.288L127.742,283.233L128.311,285.157L129.265,287.027L130.588,288.813L132.259,290.487L134.255,292.016L136.542,293.382L139.084,294.559L141.839,295.524L144.764,296.266L147.807,296.77L150.921,297.025L154.054,297.033L157.154,296.787L160.169,296.295L163.05,295.567L165.752,294.611L168.228,293.447L170.44,292.093L172.351,290.573L173.933,288.91L175.161,287.132L176.016,285.27L176.486,283.353L176.579,282.299" style="fill:none;stroke:black;stroke-width:0.71px;"/>
    <path id="LWPOLYLINE_44_" d="M237.15,181.187L239.633,184.507L241.509,188.253L242.76,192.364L243.366,196.771L243.322,201.407L242.637,206.194L241.322,211.06L239.404,215.931L236.911,220.731L233.884,225.39L230.371,229.836L226.425,234.004L222.108,237.83L217.484,241.256L216.905,241.642" style="fill:none;stroke:black;stroke-width:0.71px;"/>
    <path id="LWPOLYLINE_45_" d="M166.319,241.616L164.001,238.159L162.29,234.27L161.219,230.008L160.811,225.441L161.077,220.642L162.015,215.69L163.616,210.664L165.854,205.651L168.695,200.735L172.094,195.997L175.995,191.519L180.332,187.377L181.335,186.52" style="fill:none;stroke:black;stroke-width:0.71px;"/>
    <path id="LWPOLYLINE_46_" d="M181.335,186.52L186.103,182.884L191.136,179.731L196.348,177.112L201.651,175.074L206.956,173.646L212.171,172.85L217.211,172.695L221.996,173.184L226.446,174.3L230.491,176.023L234.068,178.322L237.122,181.153L237.15,181.187" style="fill:none;stroke:black;stroke-width:0.71px;"/>
    <path id="LWPOLYLINE_47_" d="M209.096,173.251L207.465,177.872L205.303,182.438L202.64,186.882L199.518,191.146L195.979,195.167L192.076,198.894L187.861,202.27L185.194,204.118" style="fill:none;stroke:black;stroke-width:0.71px;"/>
    <path id="LWPOLYLINE_48_" d="M157.313,284.287L152.846,284.971L148.27,284.501L144.318,282.955L141.619,280.58L140.599,277.756L140.595,277.518" style="fill:none;stroke:black;stroke-width:0.71px;"/>
    <path id="LWPOLYLINE_49_" d="M159.506,287.099L164.698,284.63L167.885,281.078L168.648,278.166" style="fill:none;stroke:black;stroke-width:0.71px;"/>
    <path id="LWPOLYLINE_50_" d="M135.629,281.3L136.881,285.349L140.556,288.811L146.078,291.125L152.567,291.914L158.977,291.048L159.413,290.924" style="fill:none;stroke:black;stroke-width:0.71px;"/>
    <path id="LWPOLYLINE_51_" d="M135.68,277.48L136.934,281.526L140.615,284.986L146.147,287.298L152.648,288.086L159.069,287.225L159.506,287.099" style="fill:none;stroke:black;stroke-width:0.71px;"/>
    <path id="LWPOLYLINE_52_" d="M168.648,278.166L167.466,274.129L163.889,270.673L158.49,268.332L152.11,267.461L145.738,268.197L140.36,270.427L136.818,273.812L135.68,277.48" style="fill:none;stroke:black;stroke-width:0.71px;"/>
    <path id="LWPOLYLINE_53_" d="M169.919,167.257L174.949,160.945L180.192,155.247L185.56,150.258L190.957,146.057L196.289,142.709L201.469,140.263L206.411,138.749L211.037,138.182L211.259,138.178" style="fill:none;stroke:black;stroke-width:0.71px;"/>
    <path id="LINE_14_" d="M159.353,154.925L169.919,167.257" style="fill:none;stroke:black;stroke-width:0.71px;"/>
    <path id="LWPOLYLINE_54_" d="M200.585,126.413L195.975,126.879L191.048,128.286L185.885,130.62L180.57,133.851L175.19,137.936L169.841,142.809L164.613,148.395L159.597,154.6L159.353,154.925" style="fill:none;stroke:black;stroke-width:0.71px;"/>
    <path id="LINE_15_" d="M211.259,138.178L200.585,126.413" style="fill:none;stroke:black;stroke-width:0.71px;"/>
    <path id="LINE_16_" d="M211.259,138.178L211.131,141.01" style="fill:none;stroke:black;stroke-width:0.71px;"/>
    <path id="LINE_17_" d="M169.919,167.257L169.866,169.197" style="fill:none;stroke:black;stroke-width:0.71px;"/>
    <path id="LWPOLYLINE_55_" d="M175.021,164.625L181.543,160.667L188.278,157.39L195.113,154.844L201.943,153.063L208.658,152.076L215.153,151.89L221.328,152.506L224.964,153.283" style="fill:none;stroke:black;stroke-width:0.71px;"/>
    <path id="LINE_18_" d="M224.964,153.283L224.865,155.169" style="fill:none;stroke:black;stroke-width:0.71px;"/>
    <path id="LINE_19_" d="M175.021,164.625L174.967,166.443" style="fill:none;stroke:black;stroke-width:0.71px;"/>
    <path id="LINE_20_" d="M214.507,141.758L207.936,140.557" style="fill:none;stroke:black;stroke-width:0.71px;"/>
    <path id="LINE_21_" d="M224.964,153.283L214.507,141.758" style="fill:none;stroke:black;stroke-width:0.71px;"/>
    <path id="LWPOLYLINE_56_" d="M207.936,140.557L203.538,141.885L198.946,143.955L194.217,146.75L189.417,150.233L184.607,154.369L179.855,159.103L175.228,164.374L175.021,164.625" style="fill:none;stroke:black;stroke-width:0.71px;"/>
    <path id="LWPOLYLINE_57_" d="M163.743,278L162.754,280.798L160.085,283.118L157.313,284.287" style="fill:none;stroke:black;stroke-width:0.71px;"/>
    <path id="LWPOLYLINE_58_" d="M140.595,277.518L141.552,274.719L144.175,272.399L148.047,270.917L152.562,270.505L157.014,271.22L160.71,272.958L163.074,275.445L163.743,278" style="fill:none;stroke:black;stroke-width:0.71px;"/>
    <path id="LWPOLYLINE_59_" d="M136.365,299.823L136.293,299.979L136.084,300.622L135.938,301.378L135.836,302.281L135.771,303.321L135.738,304.245L135.717,305.279" style="fill:none;stroke:black;stroke-width:0.71px;"/>
    <path id="LWPOLYLINE_60_" d="M135.717,305.279L135.709,306.551L135.728,307.981L135.789,309.478L135.929,311.083L136.146,312.508L136.479,313.925L136.972,315.34L137.634,316.665L138.511,317.907L139.591,318.967L140.807,319.776L142.184,320.335L142.29,320.365" style="fill:none;stroke:black;stroke-width:0.71px;"/>
    <path id="LINE_22_" d="M159.353,154.925L159.291,157.643" style="fill:none;stroke:black;stroke-width:0.71px;"/>
    <path id="LINE_23_" d="M130.204,222.903L99.365,231.524" style="fill:none;stroke:black;stroke-width:0.71px;"/>
    <path id="LWPOLYLINE_61_" d="M163.674,258.971L166.439,261.421L169.302,263.717L172.349,265.882L175.484,267.817L176.942,268.618" style="fill:none;stroke:black;stroke-width:0.71px;"/>
    <path id="LINE_24_" d="M175.826,305.66L181.842,303.827" style="fill:none;stroke:black;stroke-width:0.71px;"/>
    <path id="LWPOLYLINE_62_" d="M137.396,311.417L141.392,308.353L143.501,307.45" style="fill:none;stroke:black;stroke-width:0.71px;"/>
    <path id="LINE_25_" d="M137.333,315.878L137.396,311.417" style="fill:none;stroke:black;stroke-width:0.71px;"/>
    <path id="LINE_26_" d="M125.332,309.991L127.228,312.539" style="fill:none;stroke:black;stroke-width:0.71px;"/>
    <path id="LINE_27_" d="M146.276,139.666L156.154,151.194" style="fill:none;stroke:black;stroke-width:0.71px;"/>
    <path id="LWPOLYLINE_63_" d="M195.747,124.829L189.598,124.237L183.153,124.438L176.511,125.43L169.775,127.205L163.053,129.737L156.453,132.991L150.079,136.916L146.276,139.666" style="fill:none;stroke:black;stroke-width:0.71px;"/>
    <path id="LWPOLYLINE_64_" d="M163.083,146.404L167.734,141.416L172.49,136.984L177.283,133.171L182.05,130.019L186.725,127.566L191.246,125.841L195.557,124.856L195.747,124.829" style="fill:none;stroke:black;stroke-width:0.71px;"/>
    <path id="LINE_28_" d="M156.154,151.194L163.083,146.404" style="fill:none;stroke:black;stroke-width:0.71px;"/>
    <path id="LINE_29_" d="M132.05,272.568L130.628,273.97" style="fill:none;stroke:black;stroke-width:0.71px;"/>
    <path id="LWPOLYLINE_65_" d="M150.698,266.317L147.795,266.492L144.955,266.884L142.212,267.486L139.61,268.29L137.182,269.287L134.965,270.46L132.992,271.796L132.05,272.568" style="fill:none;stroke:black;stroke-width:0.71px;"/>
    <path id="LWPOLYLINE_66_" d="M170.208,326.358L169.023,327.849L167.55,329.232L165.814,330.479L163.839,331.574L161.659,332.497L159.309,333.229L156.827,333.764L154.253,334.089L151.63,334.199L149,334.091L146.409,333.768L143.896,333.238L141.504,332.508L139.271,331.588L137.235,330.495L135.428,329.244L133.878,327.864L132.612,326.371L132.041,325.506" style="fill:none;stroke:black;stroke-width:0.71px;"/>
    <path id="LINE_30_" d="M163.083,146.404L163.015,149.169" style="fill:none;stroke:black;stroke-width:0.71px;"/>
    <path id="LINE_31_" d="M156.154,151.194L156.092,154.149" style="fill:none;stroke:black;stroke-width:0.71px;"/>
    <path id="LWPOLYLINE_67_" d="M80.272,271.359L79.974,270.555L79.974,270.521" style="fill:none;stroke:black;stroke-width:0.71px;"/>
    <path id="LWPOLYLINE_68_" d="M113.29,311.186L111.96,311.395L110.609,311.255L109.452,310.79L108.71,310.133" style="fill:none;stroke:black;stroke-width:0.71px;"/>
    <path id="LWPOLYLINE_69_" d="M185.427,276.258L185.894,276.771L186.468,277.292L187.685,278.201L188.501,278.703L189.351,279.147L190.047,279.447L190.732,279.678" style="fill:none;stroke:black;stroke-width:0.71px;"/>
    <path id="LINE_32_" d="M185.427,276.258L182.638,272.787" style="fill:none;stroke:black;stroke-width:0.71px;"/>
    <path id="LWPOLYLINE_70_" d="M176.942,268.618L177.911,269.156L178.879,269.747L179.847,270.389L180.764,271.057L181.479,271.633L182.113,272.213L182.638,272.787" style="fill:none;stroke:black;stroke-width:0.71px;"/>
    <path id="LINE_33_" d="M187.525,272.625L181.448,265.092" style="fill:none;stroke:black;stroke-width:0.71px;"/>
    <path id="LWPOLYLINE_71_" d="M187.525,272.625L191.441,273.358L195.385,273.714L199.458,273.697L203.519,273.3L207.426,272.559L211.281,271.482L215.162,270.029L218.932,268.237L221.697,266.657L224.375,264.882" style="fill:none;stroke:black;stroke-width:0.71px;"/>
    <path id="LINE_34_" d="M224.375,264.882L217.422,256.57" style="fill:none;stroke:black;stroke-width:0.71px;"/>
    <path id="LINE_35_" d="M236.441,263.917L225.794,251.325" style="fill:none;stroke:black;stroke-width:0.71px;"/>
    <path id="LWPOLYLINE_72_" d="M235.573,268.594L236.038,268.123L236.414,267.61L236.889,266.524L237.001,265.887L236.996,265.267L236.962,265.04" style="fill:none;stroke:black;stroke-width:0.71px;"/>
    <path id="LWPOLYLINE_73_" d="M190.732,279.678L194.909,280.639L199.149,281.177L203.417,281.297L207.522,281.026L211.631,280.387L215.707,279.392L219.713,278.055L223.746,276.325L227.672,274.24L231.441,271.818L235.007,269.075L235.573,268.594" style="fill:none;stroke:black;stroke-width:0.71px;"/>
    <path id="LINE_36_" d="M195.747,124.829L195.667,126.942" style="fill:none;stroke:black;stroke-width:0.71px;"/>
    <path id="LWPOLYLINE_74_" d="M125.332,309.991L124.51,309.292L123.33,308.85L121.976,308.737L120.752,308.94" style="fill:none;stroke:black;stroke-width:0.71px;"/>
    <path id="LWPOLYLINE_75_" d="M98.299,258.975L98.134,259.139L97.888,259.263L97.583,259.337L97.063,259.367L96.539,259.376L96.504,259.379" style="fill:none;stroke:black;stroke-width:0.71px;"/>
    <path id="LWPOLYLINE_76_" d="M98.618,258.491L98.607,258.508L98.299,258.975" style="fill:none;stroke:black;stroke-width:0.71px;"/>
    <path id="LINE_37_" d="M113.29,311.186L120.752,308.94" style="fill:none;stroke:black;stroke-width:0.71px;"/>
    <path id="LINE_38_" d="M146.276,139.666L146.214,143.361" style="fill:none;stroke:black;stroke-width:0.71px;"/>
    <path id="LWPOLYLINE_77_" d="M159.7,255.837L159.952,256.347L160.129,257.058L160.131,257.836L159.872,258.779L159.408,259.539L158.724,260.188L157.989,260.601L157.58,260.746" style="fill:none;stroke:black;stroke-width:0.71px;"/>
    <path id="LWPOLYLINE_78_" d="M130.204,222.903L130.67,222.729L131.088,222.491L131.608,222.07L132.033,221.596L132.515,220.835" style="fill:none;stroke:black;stroke-width:0.71px;"/>
    <path id="LWPOLYLINE_79_" d="M83.049,275.146L83.097,272.802L83.298,270.695L83.648,268.849L84.146,267.294L84.783,266.05L85.552,265.136L86.443,264.565L86.75,264.46" style="fill:none;stroke:black;stroke-width:0.71px;"/>
    <path id="LINE_39_" d="M80.272,271.359L83.049,275.146" style="fill:none;stroke:black;stroke-width:0.71px;"/>
    <path id="LINE_40_" d="M105.798,306.161L108.71,310.133" style="fill:none;stroke:black;stroke-width:0.71px;"/>
    <path id="LINE_41_" d="M127.272,312.601L127.228,312.539" style="fill:none;stroke:black;stroke-width:0.71px;"/>
    <path id="LINE_42_" d="M80.042,267.335L73.194,258.023" style="fill:none;stroke:black;stroke-width:0.71px;"/>
    <path id="LWPOLYLINE_80_" d="M193.357,308.88L192.051,309.086L190.705,308.946L189.531,308.484L188.758,307.831" style="fill:none;stroke:black;stroke-width:0.71px;"/>
    <path id="LINE_43_" d="M87.985,271.652L94.515,269.764" style="fill:none;stroke:black;stroke-width:0.71px;"/>
    <path id="LINE_44_" d="M193.357,308.88L237.396,295.368" style="fill:none;stroke:black;stroke-width:0.71px;"/>
    <path id="LWPOLYLINE_81_" d="M86.75,264.46L87.872,264.362L89.101,264.686L90.419,265.424L91.804,266.568L93.233,268.103L94.685,270.003L96.132,272.24L97.555,274.776L98.927,277.573L100.226,280.582L101.431,283.755L102.52,287.038L103.476,290.378L104.283,293.718L104.927,297.003L105.398,300.178L105.691,303.193L105.798,305.994L105.798,306.161" style="fill:none;stroke:black;stroke-width:0.71px;"/>
    <path id="LINE_45_" d="M83.049,275.146L87.944,273.727" style="fill:none;stroke:black;stroke-width:0.71px;"/>
    <path id="LWPOLYLINE_82_" d="M87.944,273.727L88.756,266.75L89.537,264.916" style="fill:none;stroke:black;stroke-width:0.71px;"/>
    <path id="LINE_46_" d="M186.424,304.871L188.758,307.831" style="fill:none;stroke:black;stroke-width:0.71px;"/>
    <path id="LWPOLYLINE_83_" d="M186.424,304.871L185.581,304.178L184.393,303.741L183.045,303.628L181.842,303.827" style="fill:none;stroke:black;stroke-width:0.71px;"/>
    <path id="LINE_47_" d="M169.625,209.708L163.523,210.97" style="fill:none;stroke:black;stroke-width:0.71px;"/>
    <path id="LWPOLYLINE_84_" d="M185.194,204.118L181.612,206.29L177.928,208.182L174.174,209.78L170.382,211.069L166.585,212.037L162.965,212.655" style="fill:none;stroke:black;stroke-width:0.71px;"/>
    <path id="LWPOLYLINE_85_" d="M207.32,173.621L205.654,178.213L203.44,182.74L200.716,187.134L197.523,191.329L193.912,195.26L189.937,198.871L185.658,202.104L181.14,204.915L176.452,207.255L171.663,209.091L169.625,209.708" style="fill:none;stroke:black;stroke-width:0.71px;"/>
    <path id="LWPOLYLINE_86_" d="M84.903,236.576L85.417,235.955L86.341,235.292L87.529,234.697L88.703,234.285" style="fill:none;stroke:black;stroke-width:0.71px;"/>
    <path id="LINE_48_" d="M98.316,231.598L88.703,234.285" style="fill:none;stroke:black;stroke-width:0.71px;"/>
    <path id="LINE_49_" d="M99.266,231.333L98.316,231.598" style="fill:none;stroke:black;stroke-width:0.71px;"/>
    <path id="LINE_50_" d="M91.497,213.745L89.757,210.794" style="fill:none;stroke:black;stroke-width:0.71px;"/>
    <path id="LINE_51_" d="M91.497,213.745L99.266,231.333" style="fill:none;stroke:black;stroke-width:0.71px;"/>
    <path id="LWPOLYLINE_87_" d="M259.855,196.485L259.576,196.198L258.643,194.905L258.077,193.577L257.766,192.104" style="fill:none;stroke:black;stroke-width:0.71px;"/>
    <path id="LWPOLYLINE_88_" d="M179.435,250.094L178.957,249.765L178.885,249.742" style="fill:none;stroke:black;stroke-width:0.71px;"/>
    <path id="LINE_52_" d="M82.641,257.269L82.57,257.383" style="fill:none;stroke:black;stroke-width:0.71px;"/>
    <path id="LWPOLYLINE_89_" d="M214.552,270.285L214.204,266.869L213.64,263.322L212.87,259.703L211.906,256.071L210.764,252.489L209.463,249.016L208.025,245.708L206.475,242.623L204.837,239.811L203.141,237.316L201.413,235.181L199.684,233.437L197.98,232.113L196.331,231.226L194.761,230.79L193.296,230.809L192.855,230.91" style="fill:none;stroke:black;stroke-width:0.71px;"/>
    <path id="LINE_53_" d="M176.392,229.292L187.574,242.869" style="fill:none;stroke:black;stroke-width:0.71px;"/>
    <path id="LWPOLYLINE_90_" d="M184.208,207.604L182.3,209.14L180.633,211.276L179.22,213.979L178.081,217.213L177.222,220.934L176.654,225.095L176.392,229.292" style="fill:none;stroke:black;stroke-width:0.71px;"/>
    <path id="LWPOLYLINE_91_" d="M184.52,206.413L184.505,206.977L184.389,207.39L184.208,207.604" style="fill:none;stroke:black;stroke-width:0.71px;"/>
    <path id="LWPOLYLINE_92_" d="M236.962,265.04L236.854,264.64L236.566,264.079L236.441,263.917" style="fill:none;stroke:black;stroke-width:0.71px;"/>
    <path id="LWPOLYLINE_93_" d="M239.158,293.64L238.842,294.451L238.042,295.104L237.396,295.368" style="fill:none;stroke:black;stroke-width:0.71px;"/>
    <path id="LWPOLYLINE_94_" d="M99.266,231.333L99.745,232.25L100.248,232.886L100.572,233.123" style="fill:none;stroke:black;stroke-width:0.71px;"/>
    <path id="LWPOLYLINE_95_" d="M283.055,201.704L284.593,203.45L285.794,205.466L286.645,207.715L287.127,210.165L287.238,212.771L286.98,215.498L286.354,218.296L285.374,221.126L284.055,223.942L282.419,226.7L280.488,229.359L278.299,231.877L275.883,234.214L273.273,236.336L270.518,238.21L267.654,239.807L264.729,241.101L261.784,242.072L258.868,242.703L256.291,242.973" style="fill:none;stroke:black;stroke-width:0.71px;"/>
    <path id="LWPOLYLINE_96_" d="M89.422,210.382L87.907,208.873L86.194,207.605L84.309,206.554L84.263,206.532" style="fill:none;stroke:black;stroke-width:0.71px;"/>
    <path id="LINE_54_" d="M89.757,210.794L89.422,210.382" style="fill:none;stroke:black;stroke-width:0.71px;"/>
    <path id="LINE_55_" d="M107.209,221.113L96.112,224.193" style="fill:none;stroke:black;stroke-width:0.71px;"/>
    <path id="LWPOLYLINE_97_" d="M107.209,221.113L108.531,222.516L110.66,223.502L113.259,223.916L115.913,223.691L118.201,222.864L119.761,221.565L120.346,220.004L120.348,219.934" style="fill:none;stroke:black;stroke-width:0.71px;"/>
    <path id="LINE_56_" d="M129.721,214.867L119.301,217.758" style="fill:none;stroke:black;stroke-width:0.71px;"/>
    <path id="LWPOLYLINE_98_" d="M255.518,227.929L254.221,225.126L254.443,221.595L255.4,219.172" style="fill:none;stroke:black;stroke-width:0.71px;"/>
    <path id="LWPOLYLINE_99_" d="M272.096,213.134L273.421,215.912L273.236,219.415L271.577,223.092L268.705,226.369L265.07,228.735L261.238,229.824L257.809,229.458L255.518,227.929" style="fill:none;stroke:black;stroke-width:0.71px;"/>
    <path id="LWPOLYLINE_100_" d="M185.194,204.118L185.174,204.132L185.04,204.262L184.9,204.482L184.651,205.168L184.537,205.799L184.52,206.413" style="fill:none;stroke:black;stroke-width:0.71px;"/>
    <path id="LINE_57_" d="M238.456,274.684L246.482,272.265" style="fill:none;stroke:black;stroke-width:0.71px;"/>
    <path id="LWPOLYLINE_101_" d="M122.581,204.915L122.641,205.439L122.84,207.121L122.931,208.695L122.915,209.484L122.841,210.189L122.731,210.669L122.573,211.047L122.243,211.345L121.883,211.289L121.473,210.909L121.108,210.319L120.785,209.574L120.5,208.658L120.337,207.939L120.22,207.234L120.124,206.262L120.1,205.356L120.185,203.987L120.382,202.788L120.543,202.098" style="fill:none;stroke:black;stroke-width:0.71px;"/>
    <path id="LWPOLYLINE_102_" d="M120.348,219.934L119.827,218.364L119.301,217.758" style="fill:none;stroke:black;stroke-width:0.71px;"/>
    <path id="LINE_58_" d="M119.301,217.758L119.328,221.976" style="fill:none;stroke:black;stroke-width:0.71px;"/>
    <path id="LWPOLYLINE_103_" d="M192.855,230.91L191.653,231.463L190.583,232.393L189.66,233.682L188.892,235.316L188.292,237.266L187.864,239.509L187.616,242.009L187.574,242.869" style="fill:none;stroke:black;stroke-width:0.71px;"/>
    <path id="LINE_59_" d="M187.574,242.869L203.766,238.188" style="fill:none;stroke:black;stroke-width:0.71px;"/>
    <path id="LWPOLYLINE_104_" d="M60.805,175.375L58.977,174.034L58.332,173.481" style="fill:none;stroke:black;stroke-width:0.71px;"/>
    <path id="LWPOLYLINE_105_" d="M58.332,173.481L59.01,171.866L59.681,170.794" style="fill:none;stroke:black;stroke-width:0.71px;"/>
    <path id="LWPOLYLINE_106_" d="M56.649,174.347L57.753,173.734L58.332,173.481" style="fill:none;stroke:black;stroke-width:0.71px;"/>
    <path id="LWPOLYLINE_107_" d="M248.203,270.606L247.889,271.39L247.104,272.016L246.482,272.265" style="fill:none;stroke:black;stroke-width:0.71px;"/>
    <path id="LINE_60_" d="M49.637,206.701L49.634,206.685" style="fill:none;stroke:black;stroke-width:0.71px;"/>
    <path id="LINE_61_" d="M49.89,206.775L49.637,206.701" style="fill:none;stroke:black;stroke-width:0.71px;"/>
    <path id="LINE_62_" d="M73.194,258.023L72.249,256.434" style="fill:none;stroke:black;stroke-width:0.71px;"/>
    <path id="LINE_63_" d="M96.888,273.542L87.205,276.351" style="fill:none;stroke:black;stroke-width:0.71px;"/>
    <path id="LINE_64_" d="M87.205,276.351L87.183,273.948" style="fill:none;stroke:black;stroke-width:0.71px;"/>
    <path id="LINE_65_" d="M87.205,276.351L85.744,274.365" style="fill:none;stroke:black;stroke-width:0.71px;"/>
    <path id="LINE_66_" d="M103.31,192.347L103.306,192.33" style="fill:none;stroke:black;stroke-width:0.71px;"/>
    <path id="LINE_67_" d="M103.607,192.417L103.31,192.347" style="fill:none;stroke:black;stroke-width:0.71px;"/>
    <path id="LINE_68_" d="M176.247,233.906L168.144,236.221" style="fill:none;stroke:black;stroke-width:0.71px;"/>
    <path id="LINE_69_" d="M176.247,233.906L176.392,229.292" style="fill:none;stroke:black;stroke-width:0.71px;"/>
    <path id="LINE_70_" d="M328.342,438.652L344.62,458.722" style="fill:none;stroke:black;stroke-width:1.42px;"/>
    <path id="LINE_71_" d="M423.4,391.672L406.152,372.416" style="fill:none;stroke:black;stroke-width:1.42px;"/>
    <path id="LINE_72_" d="M410.104,403.822L409.24,402.84" style="fill:none;stroke:black;stroke-width:1.42px;"/>
    <path id="LINE_73_" d="M357.898,446.538L358.73,447.544" style="fill:none;stroke:black;stroke-width:1.42px;"/>
    <path id="LINE_74_" d="M248.693,172.78L196.58,120.969" style="fill:none;stroke:black;stroke-width:0.71px;"/>
    <path id="LINE_75_" d="M151.336,244.912L156.208,251.681" style="fill:none;stroke:black;stroke-width:0.71px;"/>
    <path id="LINE_76_" d="M126.061,209.78L133.641,220.315" style="fill:none;stroke:black;stroke-width:0.71px;"/>
    <path id="LINE_77_" d="M133.641,220.315L133.673,220.359" style="fill:none;stroke:black;stroke-width:0.71px;"/>
    <path id="LINE_78_" d="M113.307,192.055L117.079,197.296" style="fill:none;stroke:black;stroke-width:0.71px;"/>
    <path id="LINE_79_" d="M175.457,317.063L176.579,282.299" style="fill:none;stroke:black;stroke-width:0.71px;"/>
    <path id="LINE_80_" d="M127.563,281.288L127.239,316.118" style="fill:none;stroke:black;stroke-width:0.71px;"/>
    <path id="LWPOLYLINE_108_" d="M133.548,298.208L133.701,298.246L134.058,298.379L134.544,298.618L135.137,298.964L135.831,299.43L136.61,300.014L137.441,300.703L138.312,301.48L139.191,302.328L140.073,303.24L140.944,304.197L141.786,305.188L143.348,307.217L144.706,309.263L145.811,311.279L146.618,313.235L146.956,314.466L147.106,315.534L147.104,316.397L147.05,316.82L146.972,317.179L146.879,317.481L146.781,317.733L146.621,318.059L146.366,318.451L145.942,318.938L145.266,319.478L144.558,319.864L143.654,320.18L142.581,320.361L141.361,320.335" style="fill:none;stroke:black;stroke-width:0.71px;"/>
    <path id="LINE_81_" d="M168.539,281.981L168.648,278.166" style="fill:none;stroke:black;stroke-width:0.71px;"/>
    <path id="LINE_82_" d="M135.68,277.48L135.629,281.3" style="fill:none;stroke:black;stroke-width:0.71px;"/>
    <path id="LWPOLYLINE_109_" d="M82.557,257.403L82.19,258.04L81.714,259.033L81.29,260.131L80.924,261.329L80.62,262.611L80.376,263.963L80.192,265.377L80.064,266.846L79.991,268.367L79.969,269.939L79.974,270.519" style="fill:none;stroke:black;stroke-width:0.71px;"/>
    <path id="LWPOLYLINE_110_" d="M132.921,219.554L132.902,219.561L132.856,219.63L132.828,219.748L132.811,219.861L132.792,219.986L132.766,220.121L132.73,220.273L132.691,220.409L132.622,220.6L132.513,220.842" style="fill:none;stroke:black;stroke-width:0.71px;"/>
    <path id="LWPOLYLINE_111_" d="M133.527,220.162L133.328,219.904L133.118,219.667L132.983,219.565L132.921,219.554" style="fill:none;stroke:black;stroke-width:0.71px;"/>
    <path id="LWPOLYLINE_112_" d="M133.641,220.316L133.609,220.272" style="fill:none;stroke:black;stroke-width:0.71px;"/>
    <path id="LWPOLYLINE_113_" d="M159.391,255.459L159.179,255.203" style="fill:none;stroke:black;stroke-width:0.71px;"/>
    <path id="LWPOLYLINE_114_" d="M196.5,120.891L196.185,120.583" style="fill:none;stroke:black;stroke-width:0.71px;"/>
    <path id="LWPOLYLINE_115_" d="M196.185,120.583L196.114,120.516" style="fill:none;stroke:black;stroke-width:0.71px;"/>
    <path id="LWPOLYLINE_116_" d="M196.114,120.516L196.061,120.464L194.691,119.239L193.247,118.09L191.728,117.02L190.139,116.03L188.48,115.124L186.757,114.302L184.972,113.567L183.127,112.922L181.227,112.367L179.274,111.905L177.274,111.537L175.229,111.263L173.145,111.085L171.023,111.003L168.873,111.019L166.694,111.13L164.495,111.34L162.277,111.646L160.046,112.048L157.809,112.545L155.566,113.138L153.326,113.823L151.092,114.599L148.869,115.466L146.661,116.421L144.474,117.463L142.311,118.589L140.176,119.797L138.075,121.085L136.012,122.448L133.991,123.886L132.017,125.395L130.092,126.97L128.221,128.611L126.409,130.313L124.659,132.071L122.974,133.886L121.357,135.749L119.814,137.66L118.346,139.612L116.956,141.603L115.647,143.629L114.423,145.685L113.286,147.767L112.238,149.87L111.282,151.991L110.418,154.125L109.649,156.269L108.978,158.415L108.404,160.562L107.93,162.704L107.555,164.837L107.283,166.956L107.111,169.056L107.041,171.133L107.073,173.183L107.205,175.201L107.438,177.182L107.771,179.123L108.201,181.021L108.729,182.869L109.354,184.666L110.069,186.407L110.878,188.09L111.775,189.712L112.759,191.269L113.349,192.113" style="fill:none;stroke:black;stroke-width:0.71px;"/>
    <path id="LINE_83_" d="M179.435,250.094L160.895,227.314" style="fill:none;stroke:black;stroke-width:0.71px;"/>
    <path id="LWPOLYLINE_117_" d="M239.158,293.64L239.221,292.508L239.296,290.295L239.318,288.026L239.284,285.707L239.198,283.338L239.057,280.926L238.859,278.474L238.611,275.986L238.309,273.464L237.955,270.915L237.551,268.342L237.096,265.75L236.962,265.043" style="fill:none;stroke:black;stroke-width:0.71px;"/>
    <path id="LINE_84_" d="M283.055,201.704L270.561,189.909" style="fill:none;stroke:black;stroke-width:0.71px;"/>
    <path id="LINE_85_" d="M89.757,210.794L71.701,187.427" style="fill:none;stroke:black;stroke-width:0.71px;"/>
    <path id="LWPOLYLINE_118_" d="M270.555,189.905L269.932,189.351L269.4,188.929" style="fill:none;stroke:black;stroke-width:0.71px;"/>
    <path id="LWPOLYLINE_119_" d="M269.4,188.929L268.954,188.604L267.907,187.937L266.794,187.354L265.618,186.859L264.387,186.452L263.1,186.136L261.764,185.914L260.386,185.787L258.971,185.755L257.523,185.821L256.434,185.933" style="fill:none;stroke:black;stroke-width:0.71px;"/>
    <path id="LWPOLYLINE_120_" d="M120.867,202.557L120.907,202.61" style="fill:none;stroke:black;stroke-width:0.71px;"/>
    <path id="LWPOLYLINE_121_" d="M248.203,270.608L248.25,269.742L248.301,268.04L248.293,266.292L248.229,264.503L248.114,262.679L247.941,260.82L247.718,258.937L247.443,257.031L247.117,255.106L246.738,253.169L246.314,251.228L245.842,249.282L245.324,247.344L244.762,245.413L244.182,243.575" style="fill:none;stroke:black;stroke-width:0.71px;"/>
    <path id="LWPOLYLINE_122_" d="M70.81,171.969L70.522,170.665L70.097,169.954" style="fill:none;stroke:black;stroke-width:0.71px;"/>
    <path id="LINE_86_" d="M71.036,185.53L70.81,171.969" style="fill:none;stroke:black;stroke-width:0.71px;"/>
    <path id="LINE_87_" d="M70.097,169.954L63.189,161.09" style="fill:none;stroke:black;stroke-width:0.71px;"/>
    <path id="LWPOLYLINE_123_" d="M71.701,187.427L71.223,186.555L71.036,185.546" style="fill:none;stroke:black;stroke-width:0.71px;"/>
    <path id="LINE_88_" d="M49.637,206.701L72.249,256.434" style="fill:none;stroke:black;stroke-width:0.71px;"/>
    <path id="LWPOLYLINE_124_" d="M51.525,161.303L51.145,161.423L50.591,161.688L50.109,162.023L49.698,162.417L49.356,162.855L49.082,163.329L48.87,163.84L48.713,164.396L48.609,165.021L48.565,165.751L48.568,166.083" style="fill:none;stroke:black;stroke-width:0.71px;"/>
    <path id="LINE_89_" d="M58.883,159.4L51.528,161.302" style="fill:none;stroke:black;stroke-width:0.71px;"/>
    <path id="LWPOLYLINE_125_" d="M63.189,161.09L62.893,160.739L62.431,160.291L61.946,159.928L61.424,159.642L60.867,159.435L60.286,159.313L59.689,159.285L59.097,159.353L58.881,159.402" style="fill:none;stroke:black;stroke-width:0.71px;"/>
    <path id="LINE_90_" d="M48.568,166.083L49.634,206.685" style="fill:none;stroke:black;stroke-width:0.71px;"/>
    <path id="LWPOLYLINE_126_" d="M120.533,202.066L120.472,202.234L119.686,203.909L118.572,205.591L117.142,207.213" style="fill:none;stroke:black;stroke-width:0.71px;"/>
    <path id="LINE_91_" d="M103.31,192.347L117.785,223.075" style="fill:none;stroke:black;stroke-width:0.71px;"/>
    <path id="LWPOLYLINE_127_" d="M106.218,147.161L105.646,147.361L105.119,147.651L104.66,148.007L104.269,148.418L103.946,148.873L103.687,149.367L103.485,149.905L103.34,150.502L103.25,151.182L103.226,151.822" style="fill:none;stroke:black;stroke-width:0.71px;"/>
    <path id="LINE_92_" d="M112.189,145.617L106.225,147.158" style="fill:none;stroke:black;stroke-width:0.71px;"/>
    <path id="LWPOLYLINE_128_" d="M114.407,145.727L114.012,145.608L113.427,145.512L112.834,145.51L112.188,145.618" style="fill:none;stroke:black;stroke-width:0.71px;"/>
    <path id="LINE_93_" d="M103.226,151.822L103.306,192.33" style="fill:none;stroke:black;stroke-width:0.71px;"/>
    <path id="LINE_94_" d="M196.58,120.969L196.505,120.895" style="fill:none;stroke:black;stroke-width:0.71px;"/>
    <path id="LWPOLYLINE_129_" d="M151.329,244.899L151.533,245.183" style="fill:none;stroke:black;stroke-width:0.71px;"/>
    <path id="LWPOLYLINE_130_" d="M133.647,220.325L134.167,221.038L135.338,222.606L136.702,224.42L138.273,226.532L139.998,228.893L141.936,231.588L144.025,234.542L145.888,237.196L147.846,239.987L149.943,242.961L151.329,244.899" style="fill:none;stroke:black;stroke-width:0.71px;"/>
    <path id="LWPOLYLINE_131_" d="M127.5,299.96L127.571,299.119L127.673,298.372L127.995,297.136L128.249,296.625L128.574,296.221L128.997,295.921L129.522,295.752L130.251,295.728L131.173,295.91L132.073,296.232L133.131,296.738L134.32,297.422L135.651,298.305L136.792,299.14L137.972,300.072L139.6,301.461L141.214,302.96L142.388,304.129L143.508,305.313L144.594,306.536L145.613,307.769L147.374,310.165L148.845,312.626L149.462,313.939L149.952,315.268L150.295,316.653L150.439,318.049L150.306,319.648L149.78,321.234L149.015,322.464L147.952,323.566L147.487,323.932L145.985,324.821L144.286,325.45L142.313,325.813L140.27,325.84L138.06,325.484L135.913,324.722L133.943,323.581L132.16,322.052L130.707,320.272L129.502,318.166L128.631,315.936L128.287,314.716L128.008,313.456L127.663,311.139L127.549,309.919L127.474,308.702L127.408,306.795L127.39,304.947L127.393,303.879L127.403,302.889L127.42,301.945L127.445,301.086L127.5,299.96Z" style="fill:none;stroke:black;stroke-width:0.71px;"/>
    <path id="LINE_95_" d="M178.885,249.742L160.923,227.667" style="fill:none;stroke:black;stroke-width:0.71px;"/>
    <path id="LINE_96_" d="M185.194,204.118L216.905,241.642" style="fill:none;stroke:black;stroke-width:0.71px;"/>
    <path id="LWPOLYLINE_132_" d="M132.895,302.198L133.046,303.102L133.248,304.45L133.45,306.077L133.582,307.369L133.724,308.835L133.879,310.262L134.098,311.768L134.177,312.201L134.571,313.848L135.148,315.435L135.888,316.813L136.842,318.033L137.952,319.01L139.254,319.756L140.61,320.206L141.408,320.341" style="fill:none;stroke:black;stroke-width:0.71px;"/>
    <path id="LWPOLYLINE_133_" d="M133.555,298.212L133.419,298.2" style="fill:none;stroke:black;stroke-width:0.71px;"/>
    <path id="LWPOLYLINE_134_" d="M133.419,298.2L133.173,298.215L132.863,298.354L132.68,298.593L132.576,298.917L132.548,299.791L132.675,300.864L132.895,302.198" style="fill:none;stroke:black;stroke-width:0.71px;"/>
    <path id="LWPOLYLINE_135_" d="M157.837,265.494L158.99,266.243L160.49,267.361" style="fill:none;stroke:black;stroke-width:0.71px;"/>
    <path id="LWPOLYLINE_136_" d="M126.773,272.838L128.134,271.396L129.669,270.152L131.957,268.726L134.4,267.557L136.936,266.585L140.123,265.555L143.369,264.7L146.677,264.078L149.578,263.8L152.508,263.882L154.45,264.19L156.343,264.762L157.837,265.494" style="fill:none;stroke:black;stroke-width:0.71px;"/>
    <path id="LWPOLYLINE_137_" d="M99.694,232.129L102.417,233.339L105.296,235.403L108.286,238.299L111.337,241.984L114.397,246.405L117.415,251.489L120.338,257.153L123.116,263.304L125.699,269.836L126.773,272.838" style="fill:none;stroke:black;stroke-width:0.71px;"/>
    <path id="LWPOLYLINE_138_" d="M157.58,260.746L155.214,258.055L152.943,255.305L150.771,252.535L148.704,249.792L146.601,246.911L144.595,244.103L142.692,241.403L140.896,238.844L138.93,236.051L137.11,233.491L135.525,231.292L134.097,229.326L132.852,227.602L131.813,226.133L131.104,225.067L130.585,224.178L130.278,223.458L130.204,222.903" style="fill:none;stroke:black;stroke-width:0.71px;"/>
    <path id="LWPOLYLINE_139_" d="M181.842,303.827L181.86,299.104L181.597,294.055L181.051,288.743L180.232,283.227L179.145,277.574L177.804,271.848L176.942,268.618" style="fill:none;stroke:black;stroke-width:0.71px;"/>
    <path id="LWPOLYLINE_140_" d="M100.521,233.167L100.107,233.654L99.89,234.134L99.777,234.659L99.767,235.36L99.883,236.077L100.191,237.008L100.646,237.924" style="fill:none;stroke:black;stroke-width:0.71px;"/>
    <path id="LWPOLYLINE_141_" d="M100.572,233.123L100.521,233.167" style="fill:none;stroke:black;stroke-width:0.71px;"/>
    <path id="LWPOLYLINE_142_" d="M126.451,274.464L126.605,273.431L126.773,272.838" style="fill:none;stroke:black;stroke-width:0.71px;"/>
    <path id="LWPOLYLINE_143_" d="M127.425,291.272L127.146,288.612L126.956,286.633L126.777,284.618L126.616,282.542L126.485,280.446L126.39,277.873L126.409,275.271L126.451,274.464" style="fill:none;stroke:black;stroke-width:0.71px;"/>
    <path id="LWPOLYLINE_144_" d="M127.425,291.272L125.791,284.724L123.86,278.201L121.668,271.815L119.25,265.679L116.65,259.898L113.914,254.569L111.089,249.784L108.223,245.616L105.367,242.137L102.566,239.394L100.646,237.924" style="fill:none;stroke:black;stroke-width:0.71px;"/>
    <path id="LWPOLYLINE_145_" d="M106.822,253.315L109.032,256.237L111.229,259.663L113.379,263.535L115.445,267.794L117.391,272.366L119.182,277.176L120.791,282.141L122.188,287.178L123.348,292.199L124.256,297.121L124.892,301.859L125.25,306.335L125.332,309.991" style="fill:none;stroke:black;stroke-width:0.71px;"/>
    <path id="LINE_97_" d="M100.646,237.924L106.822,253.315" style="fill:none;stroke:black;stroke-width:0.71px;"/>
    <path id="LINE_98_" d="M127.228,312.539L127.425,291.272" style="fill:none;stroke:black;stroke-width:0.71px;"/>
    <path id="LWPOLYLINE_146_" d="M126.451,274.464L127.746,274.88L128.874,275.16L129.656,275.253L129.697,275.252" style="fill:none;stroke:black;stroke-width:0.71px;"/>
    <path id="LINE_99_" d="M127.425,291.272L127.47,291.333" style="fill:none;stroke:black;stroke-width:0.71px;"/>
    <path id="LWPOLYLINE_147_" d="M157.191,266.768L157.675,265.784L157.837,265.494" style="fill:none;stroke:black;stroke-width:0.71px;"/>
    <path id="LWPOLYLINE_148_" d="M130.461,274.227L129.854,274.36L128.918,274.125L127.802,273.563L126.773,272.838" style="fill:none;stroke:black;stroke-width:0.71px;"/>
    <path id="LWPOLYLINE_149_" d="M96.504,259.379L96.643,259.252L96.749,259.179L96.82,259.133L96.863,259.104L96.896,259.071L96.903,259.055L96.899,259.038L96.884,259.022L96.859,259.009L96.836,259" style="fill:none;stroke:black;stroke-width:0.71px;"/>
    <path id="LWPOLYLINE_150_" d="M96.504,259.379L98.514,262.115L100.511,265.308L102.464,268.905L104.339,272.847L106.104,277.071L107.729,281.501L109.185,286.066L110.45,290.688L111.501,295.288L112.321,299.791L112.895,304.116L113.217,308.197L113.29,311.186" style="fill:none;stroke:black;stroke-width:0.71px;"/>
    <path id="LWPOLYLINE_151_" d="M108.71,310.133L108.594,306.645L108.247,302.883L107.672,298.914L106.879,294.8L105.879,290.612L104.691,286.42L103.334,282.294L101.831,278.303L100.208,274.517L98.49,270.996L96.709,267.798L94.895,264.977L93.076,262.578L91.284,260.638L89.547,259.186L87.894,258.243L86.351,257.82L84.941,257.923L83.689,258.545L82.611,259.673L81.723,261.286L81.039,263.354L80.567,265.845L80.314,268.714L80.272,271.359" style="fill:none;stroke:black;stroke-width:0.71px;"/>
    <path id="LWPOLYLINE_152_" d="M91.14,257.033L89.591,255.938L88.116,255.239L86.73,254.941L85.449,255.047L84.287,255.553L83.256,256.45L82.641,257.269" style="fill:none;stroke:black;stroke-width:0.71px;"/>
    <path id="LWPOLYLINE_153_" d="M96.836,259L95.968,258.765L95.131,258.583L94.344,258.422L93.449,258.205L92.666,257.938L91.841,257.528L91.14,257.033" style="fill:none;stroke:black;stroke-width:0.71px;"/>
    <path id="LWPOLYLINE_154_" d="M120.752,308.94L120.645,305.106L120.279,300.973L119.66,296.607L118.797,292.084L117.705,287.483L116.401,282.875L114.907,278.34L113.249,273.957L111.455,269.799L109.556,265.935L107.585,262.429L105.573,259.339L103.8,257.007" style="fill:none;stroke:black;stroke-width:0.71px;"/>
    <path id="LWPOLYLINE_155_" d="M106.822,253.315L106.61,254.478L105.941,255.595L104.919,256.494L103.8,257.007" style="fill:none;stroke:black;stroke-width:0.71px;"/>
    <path id="LINE_100_" d="M103.8,257.007L98.618,258.491" style="fill:none;stroke:black;stroke-width:0.71px;"/>
    <path id="LWPOLYLINE_156_" d="M133.59,220.245L133.647,220.325" style="fill:none;stroke:black;stroke-width:0.71px;"/>
    <path id="LINE_101_" d="M84.903,236.576L75.692,215.552" style="fill:none;stroke:black;stroke-width:0.71px;"/>
    <path id="LINE_102_" d="M91.977,254.3L84.903,236.576" style="fill:none;stroke:black;stroke-width:0.71px;"/>
    <path id="LWPOLYLINE_157_" d="M80.565,262.739L81.006,259.672L81.697,257.071L82.626,254.977L83.784,253.427L85.15,252.452L86.708,252.07L88.432,252.292L90.296,253.121L91.977,254.3" style="fill:none;stroke:black;stroke-width:0.71px;"/>
    <path id="LINE_103_" d="M49.89,206.775L73.194,258.023" style="fill:none;stroke:black;stroke-width:0.71px;"/>
    <path id="LINE_104_" d="M48.847,166.817L49.89,206.775" style="fill:none;stroke:black;stroke-width:0.71px;"/>
    <path id="LWPOLYLINE_158_" d="M50.119,165.832L49.601,165.367L49.177,165.406L48.911,165.943L48.847,166.817" style="fill:none;stroke:black;stroke-width:0.71px;"/>
    <path id="LINE_105_" d="M56.649,174.347L50.119,165.832" style="fill:none;stroke:black;stroke-width:0.71px;"/>
    <path id="LINE_106_" d="M57.01,190.097L56.649,174.347" style="fill:none;stroke:black;stroke-width:0.71px;"/>
    <path id="LINE_107_" d="M73.762,212.126L57.01,190.097" style="fill:none;stroke:black;stroke-width:0.71px;"/>
    <path id="LWPOLYLINE_159_" d="M73.762,212.126L75.404,214.918L75.692,215.552" style="fill:none;stroke:black;stroke-width:0.71px;"/>
    <path id="LWPOLYLINE_160_" d="M188.758,307.831L188.809,303.007L188.598,297.88L188.129,292.494L187.404,286.9L186.43,281.153L185.427,276.258" style="fill:none;stroke:black;stroke-width:0.71px;"/>
    <path id="LWPOLYLINE_161_" d="M190.732,279.678L191.745,285.408L192.525,291.004L193.066,296.422L193.365,301.613L193.42,306.536L193.357,308.88" style="fill:none;stroke:black;stroke-width:0.71px;"/>
    <path id="LWPOLYLINE_162_" d="M237.396,295.368L237.551,290.796L237.475,285.96L237.163,280.897L236.621,275.647L235.85,270.25L235.573,268.594" style="fill:none;stroke:black;stroke-width:0.71px;"/>
    <path id="LWPOLYLINE_163_" d="M182.638,272.787L183.895,278.436L184.913,284.005L185.683,289.437L186.196,294.674L186.449,299.666L186.441,304.358L186.424,304.871" style="fill:none;stroke:black;stroke-width:0.71px;"/>
    <path id="LINE_108_" d="M88.703,234.285L97.759,256.936" style="fill:none;stroke:black;stroke-width:0.71px;"/>
    <path id="LINE_109_" d="M97.139,257.132L97.759,256.936" style="fill:none;stroke:black;stroke-width:0.71px;"/>
    <path id="LWPOLYLINE_164_" d="M91.977,254.3L92.56,255.013L93.279,255.6L93.968,255.956L94.761,256.244L95.508,256.481L96.285,256.753L97.139,257.132" style="fill:none;stroke:black;stroke-width:0.71px;"/>
    <path id="LWPOLYLINE_165_" d="M96.776,240.074L96.282,238.497L96.064,236.891L96.112,235.6L96.382,234.354L96.788,233.385L97.363,232.509L98.316,231.598" style="fill:none;stroke:black;stroke-width:0.71px;"/>
    <path id="LINE_110_" d="M102.938,255.455L96.776,240.074" style="fill:none;stroke:black;stroke-width:0.71px;"/>
    <path id="LINE_111_" d="M97.759,256.936L102.938,255.455" style="fill:none;stroke:black;stroke-width:0.71px;"/>
    <path id="LWPOLYLINE_166_" d="M100.646,237.924L100.102,238.491L99.155,239.104L97.954,239.67L96.776,240.074" style="fill:none;stroke:black;stroke-width:0.71px;"/>
    <path id="LWPOLYLINE_167_" d="M106.822,253.315L106.273,253.873L105.322,254.482L104.117,255.048L102.938,255.455" style="fill:none;stroke:black;stroke-width:0.71px;"/>
    <path id="LWPOLYLINE_168_" d="M91.14,257.033L91.802,255.856L92,254.573L91.977,254.3" style="fill:none;stroke:black;stroke-width:0.71px;"/>
    <path id="LWPOLYLINE_169_" d="M96.836,259L96.983,258.103L97.139,257.132" style="fill:none;stroke:black;stroke-width:0.71px;"/>
    <path id="LWPOLYLINE_170_" d="M97.139,257.132L97.513,257.894L97.704,258.219L97.937,258.565L98.121,258.793L98.299,258.975" style="fill:none;stroke:black;stroke-width:0.71px;"/>
    <path id="LWPOLYLINE_171_" d="M196.505,120.895L192.549,117.61L188.001,114.975L182.928,113.037L177.409,111.835L171.533,111.396L165.396,111.73L159.101,112.838L152.75,114.706L146.456,117.304L140.321,120.591L134.456,124.514L128.958,129.003L123.923,133.985L119.437,139.372L115.573,145.072L112.398,150.985L109.961,157.013L108.3,163.052L107.438,168.998L107.385,174.758L108.133,180.233L109.666,185.339L111.95,189.995L113.307,192.055" style="fill:none;stroke:black;stroke-width:0.71px;"/>
    <path id="LWPOLYLINE_172_" d="M79.409,213.121L78.15,213.576L76.993,214.21L76.122,214.921L75.692,215.552" style="fill:none;stroke:black;stroke-width:0.71px;"/>
    <path id="LINE_112_" d="M79.409,213.121L88.703,234.285" style="fill:none;stroke:black;stroke-width:0.71px;"/>
    <path id="LWPOLYLINE_173_" d="M97.759,256.936L98.295,258.03L98.618,258.491" style="fill:none;stroke:black;stroke-width:0.71px;"/>
    <path id="LWPOLYLINE_174_" d="M103.8,257.007L103.229,256.104L102.938,255.455" style="fill:none;stroke:black;stroke-width:0.71px;"/>
    <path id="LINE_113_" d="M89.422,210.382L79.409,213.121" style="fill:none;stroke:black;stroke-width:0.71px;"/>
    <path id="LWPOLYLINE_175_" d="M257.036,187.986L267.688,198.28" style="fill:none;stroke:black;stroke-width:0.71px;"/>
    <path id="LWPOLYLINE_176_" d="M100.521,233.167L99.698,232.828L98.779,232.094L98.316,231.598" style="fill:none;stroke:black;stroke-width:0.71px;"/>
    <path id="LINE_114_" d="M215.74,243.439L184.52,206.413" style="fill:none;stroke:black;stroke-width:0.71px;"/>
    <path id="LWPOLYLINE_177_" d="M270.561,189.909L269.034,188.683L267.303,187.688L265.387,186.936L263.307,186.437L261.088,186.198L258.76,186.225L256.598,186.474" style="fill:none;stroke:black;stroke-width:0.71px;"/>
    <path id="LWPOLYLINE_178_" d="M73.762,212.126L73.99,210.999L74.673,209.916L75.704,209.047L76.826,208.554" style="fill:none;stroke:black;stroke-width:0.71px;"/>
    <path id="LWPOLYLINE_179_" d="M79.409,213.121L77.245,209.134L76.826,208.554" style="fill:none;stroke:black;stroke-width:0.71px;"/>
    <path id="LINE_115_" d="M76.826,208.554L84.263,206.532" style="fill:none;stroke:black;stroke-width:0.71px;"/>
    <path id="LWPOLYLINE_180_" d="M71.701,187.427L71.6,188.035L71.098,188.339L70.583,188.523L70.414,188.571" style="fill:none;stroke:black;stroke-width:0.71px;"/>
    <path id="LINE_116_" d="M84.263,206.532L70.414,188.571" style="fill:none;stroke:black;stroke-width:0.71px;"/>
    <path id="LINE_117_" d="M62.75,190.145L76.826,208.554" style="fill:none;stroke:black;stroke-width:0.71px;"/>
    <path id="LWPOLYLINE_181_" d="M62.435,190.202L61.7,190.334L60.462,190.445L58.099,190.339L57.01,190.097" style="fill:none;stroke:black;stroke-width:0.71px;"/>
    <path id="LINE_118_" d="M62.75,190.145L62.435,190.202" style="fill:none;stroke:black;stroke-width:0.71px;"/>
    <path id="LINE_119_" d="M69.822,188.71L62.75,190.145" style="fill:none;stroke:black;stroke-width:0.71px;"/>
    <path id="LINE_120_" d="M70.414,188.571L69.822,188.71" style="fill:none;stroke:black;stroke-width:0.71px;"/>
    <path id="LINE_121_" d="M226.101,251.102L226.369,252.003" style="fill:none;stroke:black;stroke-width:0.71px;"/>
    <path id="LWPOLYLINE_182_" d="M246.482,272.265L246.583,268.723L246.443,264.937L246.068,260.958L245.457,256.839L244.619,252.638L243.564,248.41L242.313,244.217L242.133,243.677" style="fill:none;stroke:black;stroke-width:0.71px;"/>
    <path id="LINE_122_" d="M103.607,192.417L118,222.969" style="fill:none;stroke:black;stroke-width:0.71px;"/>
    <path id="LINE_123_" d="M103.533,152.61L103.607,192.417" style="fill:none;stroke:black;stroke-width:0.71px;"/>
    <path id="LWPOLYLINE_183_" d="M104.922,151.602L104.379,151.152L103.924,151.202L103.626,151.743L103.533,152.61" style="fill:none;stroke:black;stroke-width:0.71px;"/>
    <path id="LINE_124_" d="M109.398,157.072L104.922,151.602" style="fill:none;stroke:black;stroke-width:0.71px;"/>
    <path id="LINE_125_" d="M59.681,170.794L67.396,169.263" style="fill:none;stroke:black;stroke-width:0.71px;"/>
    <path id="LWPOLYLINE_184_" d="M68.519,173.836L68.416,172.623L68.158,171.311L67.788,170.108L67.396,169.263" style="fill:none;stroke:black;stroke-width:0.71px;"/>
    <path id="LINE_126_" d="M68.519,173.836L60.805,175.375" style="fill:none;stroke:black;stroke-width:0.71px;"/>
    <path id="LWPOLYLINE_185_" d="M120.863,202.55L124.245,207.234L124.548,207.653L125.468,208.927" style="fill:none;stroke:black;stroke-width:0.71px;"/>
    <path id="LINE_127_" d="M60.805,175.375L61.022,185.726" style="fill:none;stroke:black;stroke-width:0.71px;"/>
    <path id="LWPOLYLINE_186_" d="M57.01,190.097L58.696,187.37L59.99,186.26L60.774,185.826L61.022,185.726" style="fill:none;stroke:black;stroke-width:0.71px;"/>
    <path id="LWPOLYLINE_187_" d="M50.119,165.832L50.335,164.704L51.003,163.628L52.019,162.773L53.129,162.297" style="fill:none;stroke:black;stroke-width:0.71px;"/>
    <path id="LINE_128_" d="M53.129,162.297L59.681,170.794" style="fill:none;stroke:black;stroke-width:0.71px;"/>
    <path id="LINE_129_" d="M68.701,184.151L68.519,173.836" style="fill:none;stroke:black;stroke-width:0.71px;"/>
    <path id="LINE_130_" d="M61.628,185.579L68.701,184.151" style="fill:none;stroke:black;stroke-width:0.71px;"/>
    <path id="LINE_131_" d="M61.022,185.726L61.628,185.579" style="fill:none;stroke:black;stroke-width:0.71px;"/>
    <path id="LINE_132_" d="M60.497,160.392L53.129,162.297" style="fill:none;stroke:black;stroke-width:0.71px;"/>
    <path id="LINE_133_" d="M67.396,169.263L60.497,160.392" style="fill:none;stroke:black;stroke-width:0.71px;"/>
    <path id="LWPOLYLINE_188_" d="M67.396,169.263L68.599,169.165L69.617,169.516L70.097,169.954" style="fill:none;stroke:black;stroke-width:0.71px;"/>
    <path id="LWPOLYLINE_189_" d="M68.519,173.836L69.678,173.443L70.482,172.823L70.807,172.073L70.81,171.969" style="fill:none;stroke:black;stroke-width:0.71px;"/>
    <path id="LWPOLYLINE_190_" d="M68.997,184.083L69.544,183.995L70.161,184.078L70.867,184.728L71.036,185.53" style="fill:none;stroke:black;stroke-width:0.71px;"/>
    <path id="LINE_134_" d="M68.701,184.151L68.997,184.083" style="fill:none;stroke:black;stroke-width:0.71px;"/>
    <path id="LWPOLYLINE_191_" d="M60.497,160.392L61.694,160.298L62.709,160.652L63.189,161.09" style="fill:none;stroke:black;stroke-width:0.71px;"/>
    <path id="LWPOLYLINE_192_" d="M62.435,190.202L61.991,189.265L61.563,188.062L61.217,186.782L61.022,185.726" style="fill:none;stroke:black;stroke-width:0.71px;"/>
    <path id="LWPOLYLINE_193_" d="M62.75,190.145L62.33,189.21L61.968,187.994L61.721,186.69L61.628,185.579" style="fill:none;stroke:black;stroke-width:0.71px;"/>
    <path id="LWPOLYLINE_194_" d="M69.822,188.71L69.399,187.777L69.037,186.563L68.792,185.26L68.701,184.151" style="fill:none;stroke:black;stroke-width:0.71px;"/>
    <path id="LWPOLYLINE_195_" d="M70.414,188.571L69.876,187.666L69.417,186.475L69.107,185.187L68.997,184.083" style="fill:none;stroke:black;stroke-width:0.71px;"/>
    <path id="LWPOLYLINE_196_" d="M51.528,161.302L52.467,161.605L53.129,162.297" style="fill:none;stroke:black;stroke-width:0.71px;"/>
    <path id="LINE_135_" d="M48.847,166.817L48.568,166.077" style="fill:none;stroke:black;stroke-width:0.71px;"/>
    <path id="LWPOLYLINE_197_" d="M60.497,160.392L59.452,159.469L58.883,159.4" style="fill:none;stroke:black;stroke-width:0.71px;"/>
    <path id="LINE_136_" d="M165.116,232.501L176.392,229.292" style="fill:none;stroke:black;stroke-width:0.71px;"/>
    <path id="LWPOLYLINE_198_" d="M184.208,207.604L181.972,208.297L178.656,209.29L175.399,210.232L172.182,211.14L168.981,212.031L165.782,212.921L163.19,213.643L162.57,213.812" style="fill:none;stroke:black;stroke-width:0.71px;"/>
    <path id="LWPOLYLINE_199_" d="M104.922,151.602L105.157,150.482L105.828,149.416L106.829,148.573L107.912,148.107" style="fill:none;stroke:black;stroke-width:0.71px;"/>
    <path id="LINE_137_" d="M107.912,148.107L111.224,152.133" style="fill:none;stroke:black;stroke-width:0.71px;"/>
    <path id="LINE_138_" d="M113.886,146.562L107.912,148.107" style="fill:none;stroke:black;stroke-width:0.71px;"/>
    <path id="LWPOLYLINE_200_" d="M106.224,147.159L107.224,147.437L107.912,148.107" style="fill:none;stroke:black;stroke-width:0.71px;"/>
    <path id="LWPOLYLINE_201_" d="M103.533,152.61L103.229,151.885L103.226,151.822" style="fill:none;stroke:black;stroke-width:0.71px;"/>
    <path id="LWPOLYLINE_202_" d="M113.886,146.562L112.791,145.671L112.189,145.617" style="fill:none;stroke:black;stroke-width:0.71px;"/>
    <g transform="matrix(0.646242,0.763132,-0.763132,0.646242,360.323,-115.765)">
        <path d="M284.579,340.134L284.579,357.533L257.812,330.766L284.579,303.998L284.579,321.397L352.241,321.397L352.241,340.134L284.579,340.134Z" style="fill:rgb(235,235,235);stroke:black;stroke-width:1.54px;stroke-miterlimit:1.5;"/>
    </g>
    <text x="244.468px" y="101.767px" style="font-family:'ArialMT', 'Arial', sans-serif;font-size:40.749px;">B</text>
    <g transform="matrix(1,0,0,1,117.544,241.4)">
        <text x="244.468px" y="101.767px" style="font-family:'ArialMT', 'Arial', sans-serif;font-size:40.749px;">P</text>
    </g>
</svg>
