<?xml version="1.0" encoding="UTF-8" standalone="no"?>
<!DOCTYPE svg PUBLIC "-//W3C//DTD SVG 1.1//EN" "http://www.w3.org/Graphics/SVG/1.1/DTD/svg11.dtd">
<svg width="100%" height="100%" viewBox="0 0 456 568" version="1.1" xmlns="http://www.w3.org/2000/svg" xmlns:xlink="http://www.w3.org/1999/xlink" xml:space="preserve" xmlns:serif="http://www.serif.com/" style="fill-rule:evenodd;clip-rule:evenodd;stroke-linecap:round;stroke-linejoin:round;stroke-miterlimit:10;">
    <path id="LWPOLYLINE" d="M235.891,137.581L239.512,141.404L242.6,145.649L245.129,150.278L247.089,155.245L248.467,160.508L249.119,164.654" style="fill:none;stroke:black;stroke-width:0.71px;"/>
    <path id="LWPOLYLINE_1_" d="M113.371,240.538L109.943,234.051L107.605,226.862L106.416,219.082L106.408,210.832L107.597,202.248L109.978,193.476L113.519,184.665L118.169,175.972L123.854,167.55L130.478,159.555L137.927,152.127L146.066,145.401L154.753,139.499L163.83,134.523L173.132,130.56L182.494,127.671L191.751,125.903L200.744,125.272L209.32,125.781L217.334,127.406L224.663,130.105L231.193,133.82L235.891,137.581" style="fill:none;stroke:black;stroke-width:0.71px;"/>
    <path id="LWPOLYLINE_2_" d="M104.098,222.793L104.879,224.116L105.408,225.125L105.945,226.203L106.854,228.086L107.771,229.985L108.715,231.871L108.734,231.909" style="fill:none;stroke:black;stroke-width:0.71px;"/>
    <path id="LWPOLYLINE_3_" d="M104.098,222.793L103.34,221.64" style="fill:none;stroke:black;stroke-width:0.71px;"/>
    <path id="LWPOLYLINE_4_" d="M87.245,197.149L86.531,196.064" style="fill:none;stroke:black;stroke-width:0.71px;"/>
    <path id="LWPOLYLINE_5_" d="M141.39,259.166L135.67,257.563L130.318,255.358L125.388,252.568L120.929,249.211L116.987,245.31L113.608,240.9L113.371,240.538" style="fill:none;stroke:black;stroke-width:0.71px;"/>
    <path id="LINE" d="M217.387,234.075L207.539,241.978" style="fill:none;stroke:black;stroke-width:0.71px;"/>
    <path id="LWPOLYLINE_6_" d="M263.286,190.008L267.025,191.705L267.622,192.28" style="fill:none;stroke:black;stroke-width:0.71px;"/>
    <path id="LINE_1_" d="M149.551,257.09L149.636,252.848" style="fill:none;stroke:black;stroke-width:0.71px;"/>
    <path id="LWPOLYLINE_7_" d="M146.029,259.989L146.95,259.93L147.9,259.535L148.73,258.867L149.31,258.032L149.547,257.161L149.551,257.09" style="fill:none;stroke:black;stroke-width:0.71px;"/>
    <path id="LINE_2_" d="M146.029,259.989L141.39,259.166" style="fill:none;stroke:black;stroke-width:0.71px;"/>
    <path id="LWPOLYLINE_8_" d="M262.055,172.861L259.529,173.14L257.141,172.993L254.963,172.418L253.053,171.437L252.055,170.654" style="fill:none;stroke:black;stroke-width:0.71px;"/>
    <path id="LWPOLYLINE_9_" d="M262.055,172.861L265.411,172.398L268.652,172.308L271.74,172.588L274.629,173.239L277.291,174.244L279.689,175.594L281.723,177.197" style="fill:none;stroke:black;stroke-width:0.71px;"/>
    <path id="LWPOLYLINE_10_" d="M217.387,234.075L219.691,232.232L222.166,230.685L224.735,229.484L227.329,228.657L229.865,228.234L232.279,228.219L234.236,228.544L236.003,229.176" style="fill:none;stroke:black;stroke-width:0.71px;"/>
    <path id="LINE_3_" d="M207.539,241.978L199.93,246.958" style="fill:none;stroke:black;stroke-width:0.71px;"/>
    <path id="LWPOLYLINE_11_" d="M196.916,245.933L197.064,246.682L197.212,246.91" style="fill:none;stroke:black;stroke-width:0.71px;"/>
    <path id="LINE_4_" d="M196.916,245.933L197.23,238.905" style="fill:none;stroke:black;stroke-width:0.71px;"/>
    <path id="LWPOLYLINE_12_" d="M229.328,148.613L224.798,144.47L219.494,141.103L213.494,138.574L206.894,136.94L199.795,136.235L192.315,136.482L184.578,137.685L176.713,139.83L168.86,142.889L161.154,146.809L153.733,151.529L146.727,156.966L140.26,163.024L134.445,169.597L129.381,176.568L125.157,183.813L121.838,191.204L119.478,198.614L118.108,205.913L117.743,212.981L118.377,219.703L119.99,225.966L122.542,231.675L125.37,235.972" style="fill:none;stroke:black;stroke-width:0.71px;"/>
    <path id="LWPOLYLINE_13_" d="M128.134,239.558L131.064,242.887L134.409,245.817L138.135,248.328L142.208,250.403L146.594,252.028L150.08,252.95" style="fill:none;stroke:black;stroke-width:0.71px;"/>
    <path id="LWPOLYLINE_14_" d="M232.386,151.954L227.852,147.813L222.548,144.449L216.543,141.928L209.936,140.302L202.828,139.605L195.334,139.862L187.582,141.078L179.703,143.238L171.832,146.312L164.109,150.249L156.668,154.985L149.643,160.439L143.156,166.513L137.321,173.102L132.239,180.088L127.997,187.346L124.663,194.751L122.288,202.172L120.904,209.483L120.528,216.558L121.153,223.284L122.76,229.55L125.309,235.262L128.134,239.558" style="fill:none;stroke:black;stroke-width:0.71px;"/>
    <path id="LINE_5_" d="M198.868,240.889L197.23,238.905" style="fill:none;stroke:black;stroke-width:0.71px;"/>
    <path id="LWPOLYLINE_15_" d="M202.487,240.89L201.576,241.329L200.604,241.513L199.736,241.422L199.087,241.101L198.868,240.889" style="fill:none;stroke:black;stroke-width:0.71px;"/>
    <path id="LWPOLYLINE_16_" d="M202.487,240.89L209.264,236.088L215.619,230.7L221.46,224.804L226.703,218.485L231.27,211.832L235.087,204.941L238.1,197.914L240.25,190.852L241.505,183.86L241.838,177.045L241.229,170.514L239.68,164.368L237.202,158.709L233.825,153.635L232.386,151.954" style="fill:none;stroke:black;stroke-width:0.71px;"/>
    <path id="LWPOLYLINE_17_" d="M150.198,247.107L146.47,245.761L142.984,244.06L139.771,242.011L136.852,239.628L134.254,236.929L133.382,235.858" style="fill:none;stroke:black;stroke-width:0.71px;"/>
    <path id="LWPOLYLINE_18_" d="M129.146,228.357L132.557,230.53L136.267,232.316L140.243,233.705L144.452,234.687L148.86,235.256L152.013,235.41" style="fill:none;stroke:black;stroke-width:0.71px;"/>
    <path id="LWPOLYLINE_19_" d="M227.836,156.487L231.167,160.886L233.689,165.844L235.384,171.275L236.225,177.092L236.21,183.198L235.352,189.501L233.664,195.902L231.184,202.304L227.948,208.615L224.017,214.738L219.444,220.587L214.301,226.078L208.666,231.128L202.739,235.583" style="fill:none;stroke:black;stroke-width:0.71px;"/>
    <path id="LWPOLYLINE_20_" d="M133.382,235.858L130.377,231.183L128.187,225.939L126.854,220.205L126.411,214.074L126.874,207.64L128.245,201.012L130.506,194.301L133.628,187.621L137.558,181.088L142.237,174.815L147.582,168.915L153.502,163.488L159.896,158.632L166.65,154.431L173.647,150.956L180.764,148.262L187.877,146.396L194.865,145.383L201.61,145.233L207.999,145.943L213.929,147.491L219.306,149.845L224.05,152.956L227.836,156.487" style="fill:none;stroke:black;stroke-width:0.71px;"/>
    <path id="LWPOLYLINE_21_" d="M187.192,225.207L193.417,221.118L199.29,216.469L204.727,211.33L209.646,205.771L213.974,199.877L217.647,193.731L220.604,187.424L222.802,181.048L224.198,174.698L224.765,168.471L224.488,162.462L223.362,156.767L221.398,151.478L221.171,151.006" style="fill:none;stroke:black;stroke-width:0.71px;"/>
    <path id="LWPOLYLINE_22_" d="M150.198,247.107L151.091,247.259L151.305,247.236" style="fill:none;stroke:black;stroke-width:0.71px;"/>
    <path id="LWPOLYLINE_23_" d="M201.685,236.106L202.739,235.583" style="fill:none;stroke:black;stroke-width:0.71px;"/>
    <path id="LWPOLYLINE_24_" d="M105.289,170.741L105.292,170.071" style="fill:none;stroke:black;stroke-width:0.71px;"/>
    <path id="LWPOLYLINE_25_" d="M89.811,198.728L88.431,198.184L87.414,197.376L87.245,197.149" style="fill:none;stroke:black;stroke-width:0.71px;"/>
    <path id="LWPOLYLINE_26_" d="M103.34,221.64L103.006,220.705" style="fill:none;stroke:black;stroke-width:0.71px;"/>
    <path id="LWPOLYLINE_27_" d="M147.187,232.754L143.136,231.97L139.29,230.804L135.682,229.262L132.341,227.354L129.299,225.094L127.551,223.501" style="fill:none;stroke:black;stroke-width:0.71px;"/>
    <path id="LWPOLYLINE_28_" d="M152.013,235.41L157.329,235.23L162.767,234.522L168.272,233.293L173.788,231.56L179.258,229.344L184.632,226.666L187.192,225.207" style="fill:none;stroke:black;stroke-width:0.71px;"/>
    <path id="LWPOLYLINE_29_" d="M216.601,148.516L219.243,153.11L221.105,158.174L222.163,163.626L222.41,169.377L221.846,175.335L220.492,181.411L218.372,187.508L215.524,193.539L211.992,199.413L207.833,205.043L203.11,210.349L197.894,215.253L192.262,219.685L186.297,223.576L180.083,226.87L173.715,229.517L167.284,231.476L160.886,232.71L154.618,233.199L148.576,232.931L147.187,232.754" style="fill:none;stroke:black;stroke-width:0.71px;"/>
    <path id="LWPOLYLINE_30_" d="M209.023,146.209L209.808,151.766L209.786,157.579L208.969,163.563L207.373,169.621L205.027,175.664L201.973,181.602L198.258,187.348L193.941,192.817L189.088,197.929L183.769,202.61L178.063,206.792L172.053,210.414L165.83,213.417L159.48,215.759L153.102,217.4L146.788,218.311L140.634,218.476L135.539,218.011" style="fill:none;stroke:black;stroke-width:0.71px;"/>
    <path id="LINE_6_" d="M135.539,218.011L126.417,215.522" style="fill:none;stroke:black;stroke-width:0.71px;"/>
    <path id="LWPOLYLINE_31_" d="M101.798,205.162L94.852,200.495L89.811,198.728" style="fill:none;stroke:black;stroke-width:0.71px;"/>
    <path id="LWPOLYLINE_32_" d="M47.63,242.297L47.854,244.767L48.587,247.2L49.818,249.555L51.527,251.794L53.694,253.879L56.282,255.775L59.249,257.451L62.548,258.877L66.126,260.03L69.921,260.887L73.874,261.437L77.914,261.668L81.978,261.576L85.994,261.164L89.896,260.439L93.623,259.414L97.107,258.108L100.296,256.542L103.136,254.743L105.584,252.741L107.6,250.573L109.155,248.272L110.228,245.877L110.338,245.534" style="fill:none;stroke:black;stroke-width:0.71px;"/>
    <path id="LWPOLYLINE_33_" d="M92.266,208.947L93.928,212.407L93.977,213.102" style="fill:none;stroke:black;stroke-width:0.71px;"/>
    <path id="LWPOLYLINE_34_" d="M138.051,212.913L143.349,213.36L148.867,213.131L154.521,212.235L160.222,210.688L165.887,208.518L171.43,205.755L176.771,202.449L181.83,198.644L186.531,194.4L190.806,189.779L194.59,184.851L197.825,179.683L200.461,174.357L202.454,168.951L203.773,163.544L204.391,158.22L204.296,153.061L203.48,148.148L202.635,145.32" style="fill:none;stroke:black;stroke-width:0.71px;"/>
    <path id="LWPOLYLINE_35_" d="M63.706,213.514L64.813,209.946L68.121,206.908L73.096,204.87L78.958,204.144L84.802,204.836L89.72,206.84L92.266,208.947" style="fill:none;stroke:black;stroke-width:0.71px;"/>
    <path id="LWPOLYLINE_36_" d="M93.977,213.102L92.813,216.668L89.427,219.704L84.344,221.721L78.374,222.386L72.478,221.59L67.605,219.462L64.533,216.351L63.706,213.514" style="fill:none;stroke:black;stroke-width:0.71px;"/>
    <path id="LINE_7_" d="M126.638,209.063L138.051,212.913" style="fill:none;stroke:black;stroke-width:0.71px;"/>
    <path id="LINE_8_" d="M110.338,245.534L110.588,244.608" style="fill:none;stroke:black;stroke-width:0.71px;"/>
    <path id="LINE_9_" d="M151.677,247.214L151.676,247.206" style="fill:none;stroke:black;stroke-width:0.71px;"/>
    <path id="LWPOLYLINE_37_" d="M151.565,252.54L151.537,252.685L151.307,252.927L150.822,253.033L150.08,252.95" style="fill:none;stroke:black;stroke-width:0.71px;"/>
    <path id="LWPOLYLINE_38_" d="M151.676,247.206L151.369,247.224L151.305,247.236" style="fill:none;stroke:black;stroke-width:0.71px;"/>
    <path id="LWPOLYLINE_39_" d="M143.429,237.195L143.467,237.219L144.049,237.648L144.732,238.357" style="fill:none;stroke:black;stroke-width:0.71px;"/>
    <path id="LWPOLYLINE_40_" d="M85.268,195.25L85.286,195.191L85.47,195.003L85.667,195.061L85.938,195.288L86.531,196.064" style="fill:none;stroke:black;stroke-width:0.71px;"/>
    <path id="LWPOLYLINE_41_" d="M252.055,170.654L251.471,170.067L250.255,168.354L249.523,166.6L249.119,164.654" style="fill:none;stroke:black;stroke-width:0.71px;"/>
    <path id="LINE_10_" d="M187.907,234.952L190.776,231.837" style="fill:none;stroke:black;stroke-width:0.71px;"/>
    <path id="LWPOLYLINE_42_" d="M281.723,177.197L283.742,179.449L285.327,182.05L286.454,184.959L287.105,188.127L287.277,191.504L286.967,195.034L286.188,198.665L284.945,202.337L283.264,205.994L281.176,209.582L278.708,213.044L275.9,216.329L272.797,219.388L269.447,222.172L265.898,224.643L262.208,226.758L258.426,228.489L254.614,229.806L250.832,230.688L247.136,231.12L243.584,231.094L240.23,230.606L237.126,229.662L236.003,229.176" style="fill:none;stroke:black;stroke-width:0.71px;"/>
    <path id="LWPOLYLINE_43_" d="M201.685,236.106L200.69,236.442L199.556,236.863L199.042,237.079" style="fill:none;stroke:black;stroke-width:0.71px;"/>
    <path id="LWPOLYLINE_44_" d="M191.19,227.592L191.033,226.261L191.158,224.722L191.391,223.755L191.4,223.724" style="fill:none;stroke:black;stroke-width:0.71px;"/>
    <path id="LWPOLYLINE_45_" d="M191.19,227.592L191.226,227.753L191.416,228.994L191.42,230.165L191.211,231.173L190.776,231.837" style="fill:none;stroke:black;stroke-width:0.71px;"/>
    <path id="LWPOLYLINE_46_" d="M246.094,211.627L244.408,207.984L244.701,203.381L246.938,198.548L250.77,194.262L255.583,191.214L260.604,189.891L263.286,190.008" style="fill:none;stroke:black;stroke-width:0.71px;"/>
    <path id="LWPOLYLINE_47_" d="M267.622,192.28L269.364,195.877L269.145,200.426L267.012,205.211L263.302,209.491L258.602,212.603L253.626,214.063L249.154,213.637L246.094,211.627" style="fill:none;stroke:black;stroke-width:0.71px;"/>
    <path id="LWPOLYLINE_48_" d="M197.212,246.91L197.818,247.321L198.65,247.402L199.576,247.144L199.93,246.958" style="fill:none;stroke:black;stroke-width:0.71px;"/>
    <path id="LWPOLYLINE_49_" d="M187.828,235.466L187.788,235.401L187.828,235.082L187.907,234.952" style="fill:none;stroke:black;stroke-width:0.71px;"/>
    <path id="LINE_11_" d="M200.734,147.445L194.16,148.783" style="fill:none;stroke:black;stroke-width:0.71px;"/>
    <path id="LWPOLYLINE_50_" d="M202.085,146.534L201.609,147.03L201.021,147.363L200.734,147.445" style="fill:none;stroke:black;stroke-width:0.71px;"/>
    <path id="LWPOLYLINE_51_" d="M179.738,196.525L179.65,196.4" style="fill:none;stroke:black;stroke-width:0.71px;"/>
    <path id="LINE_12_" d="M142.503,196.537L142.505,196.517" style="fill:none;stroke:black;stroke-width:0.71px;"/>
    <path id="LWPOLYLINE_52_" d="M283.037,399.614L284.021,393.786L285.864,387.718L288.533,381.507L291.995,375.26L296.189,369.086L301.052,363.09L306.498,357.377L312.436,352.052L318.757,347.2L325.355,342.913L332.117,339.26L338.92,336.304L345.648,334.091L352.188,332.651L358.428,332.011L364.266,332.167L369.605,333.115L374.371,334.829L378.482,337.27L381.721,340.216" style="fill:none;stroke:black;stroke-width:1.42px;"/>
    <path id="LWPOLYLINE_53_" d="M276.975,401.743L276.797,406.163L277.109,410.35L277.911,414.274L279.186,417.895L280.922,421.194L282.329,423.2" style="fill:none;stroke:black;stroke-width:1.42px;"/>
    <path id="LWPOLYLINE_54_" d="M364.204,310.563L360.338,307.097L355.703,304.38L350.355,302.469L344.389,301.405L337.886,301.21L330.957,301.902L323.716,303.473L316.286,305.909L308.794,309.17L301.368,313.199L294.146,317.936L287.248,323.298L280.8,329.184L274.909,335.501L269.684,342.13L265.213,348.952L261.563,355.854L258.798,362.714L256.957,369.415L256.107,375.24" style="fill:none;stroke:black;stroke-width:1.42px;"/>
    <path id="LWPOLYLINE_55_" d="M386.729,335.451L382.887,332.024L378.254,329.359L372.9,327.51L366.904,326.519L360.359,326.407L353.371,327.192L346.053,328.865L338.535,331.405L330.941,334.772L323.406,338.917L316.063,343.763L309.038,349.233L302.462,355.225L296.443,361.639L291.089,368.358L286.493,375.262L282.729,382.235L279.852,389.149L277.911,395.893L276.975,401.743" style="fill:none;stroke:black;stroke-width:1.42px;"/>
    <path id="LWPOLYLINE_56_" d="M282.329,423.2L285.874,426.866L290.188,429.772L295.191,431.884L300.795,433.178L306.91,433.643L313.439,433.282L320.275,432.108L327.323,430.145L334.469,427.427L341.609,424.001L348.643,419.923L355.469,415.243L361.986,410.042L368.098,404.391L373.721,398.372L378.771,392.069L383.173,385.573L386.857,378.983L389.764,372.39L391.841,365.893L393.057,359.594L393.38,353.589L392.797,347.97L391.305,342.835L388.917,338.264L386.729,335.451" style="fill:none;stroke:black;stroke-width:1.42px;"/>
    <path id="LWPOLYLINE_57_" d="M256.107,375.24L255.984,379.648L256.348,383.833L257.193,387.757L258.505,391.389L260.271,394.704L261.691,396.723" style="fill:none;stroke:black;stroke-width:1.42px;"/>
    <path id="LWPOLYLINE_58_" d="M287.883,419.085L286.039,416.325L284.6,413.251L283.584,409.889L283.004,406.268L282.869,402.417L283.037,399.614" style="fill:none;stroke:black;stroke-width:1.42px;"/>
    <path id="LWPOLYLINE_59_" d="M381.721,340.216L384.402,343.931L386.297,348.212L387.377,352.978L387.641,358.154L387.087,363.657L385.74,369.395L383.619,375.286L380.766,381.233L377.223,387.157L373.052,392.962L368.318,398.569L363.086,403.893L357.439,408.858L351.457,413.391L345.227,417.428L338.841,420.903L332.391,423.77L325.973,425.981L319.68,427.493L313.611,428.286L307.859,428.343L302.516,427.647L297.662,426.212L293.385,424.044L289.755,421.175L287.883,419.085" style="fill:none;stroke:black;stroke-width:1.42px;"/>
    <path id="LWPOLYLINE_60_" d="M381.525,340.077L383.961,343.984L385.598,348.428L386.418,353.338L386.422,358.626L385.615,364.214L384.02,370.009L381.662,375.926L378.587,381.872L374.841,387.762L370.49,393.512L365.59,399.03L360.223,404.247L354.464,409.073L348.396,413.452L342.109,417.309L335.698,420.587L329.25,423.243L322.866,425.225L316.639,426.509L310.663,427.061L305.035,426.87L299.839,425.93L295.165,424.255L291.089,421.852L287.742,418.829" style="fill:none;stroke:black;stroke-width:1.42px;"/>
    <path id="LWPOLYLINE_61_" d="M373.29,367.893L373.577,364.79L373.5,361.828L373.066,359.038L372.271,356.451L371.122,354.089L369.629,351.977L369.382,351.69" style="fill:none;stroke:black;stroke-width:1.42px;"/>
    <path id="LWPOLYLINE_62_" d="M304.462,392.083L305.084,388.606L306.215,384.995L307.826,381.309L309.9,377.606L312.402,373.948L315.292,370.403L318.52,367.026L322.036,363.878L325.775,361.005L329.68,358.458L333.682,356.283L337.711,354.514L341.704,353.177L345.596,352.297L349.314,351.882L352.807,351.937L356.014,352.462L358.886,353.443L361.376,354.863L363.452,356.694L363.641,356.905" style="fill:none;stroke:black;stroke-width:1.42px;"/>
    <path id="LWPOLYLINE_63_" d="M301.313,408.905L303.654,411.266L306.498,413.132L309.796,414.479L313.493,415.29L317.521,415.555L321.825,415.276L326.335,414.456L330.98,413.118L335.686,411.276L340.386,408.968L345.009,406.225L349.486,403.093L353.746,399.614L357.732,395.844L361.379,391.839L364.631,387.657L367.441,383.364L369.764,379.022L371.563,374.696L372.809,370.453L373.29,367.893" style="fill:none;stroke:black;stroke-width:1.42px;"/>
    <path id="LWPOLYLINE_64_" d="M369.382,351.69L366.915,349.43L363.934,347.667L360.486,346.432L356.625,345.751L352.412,345.635L347.915,346.096L343.204,347.124L338.357,348.708L333.458,350.823L328.588,353.44L323.834,356.507L319.273,359.976L314.984,363.792L311.042,367.886L307.509,372.189L304.445,376.628L301.904,381.124L299.925,385.604L298.535,389.997L297.757,394.223L297.6,398.218L298.061,401.917L299.125,405.257L300.775,408.196L301.313,408.905" style="fill:none;stroke:black;stroke-width:1.42px;"/>
    <path id="LWPOLYLINE_65_" d="M368.255,350.409L365.785,348.149L362.807,346.383L359.357,345.147L355.499,344.462L351.285,344.343L346.788,344.802L342.08,345.826L337.236,347.407L332.341,349.522L327.475,352.132L322.725,355.196L318.167,358.661L313.885,362.473L309.943,366.565L306.416,370.865L303.357,375.3L300.82,379.794L298.846,384.274L297.458,388.665L296.684,392.889L296.527,396.882L296.99,400.583L298.057,403.927L299.708,406.862L300.245,407.573" style="fill:none;stroke:black;stroke-width:1.42px;"/>
    <path id="LWPOLYLINE_66_" d="M342.663,352.975L340.939,356.544L338.802,360.082L336.281,363.541L333.425,366.865L330.27,370.009L326.861,372.917L323.261,375.55L319.52,377.87L315.689,379.837L311.832,381.425L308.007,382.6L307.134,382.815" style="fill:none;stroke:black;stroke-width:1.42px;"/>
    <path id="LWPOLYLINE_67_" d="M307.438,404.147L304.359,395.686L304.462,392.083" style="fill:none;stroke:black;stroke-width:1.42px;"/>
    <path id="LWPOLYLINE_68_" d="M363.641,356.905L365.218,359.156L366.325,361.742L366.941,364.626L367.063,367.751L366.693,371.079L365.84,374.552L364.52,378.113L362.75,381.711L360.566,385.288L357.997,388.792L355.087,392.169L351.878,395.368L348.422,398.339L344.766,401.038L340.971,403.427L337.092,405.462L333.188,407.118L329.316,408.37L325.541,409.192L321.92,409.567L318.503,409.495L315.354,408.969L312.521,407.995L310.046,406.589L307.975,404.766L307.438,404.147" style="fill:none;stroke:black;stroke-width:1.42px;"/>
    <path id="LINE_13_" d="M235.891,137.581L196.893,101.417" style="fill:none;stroke:black;stroke-width:0.71px;"/>
    <path id="LINE_14_" d="M111.834,238.164L113.371,240.538" style="fill:none;stroke:black;stroke-width:0.71px;"/>
    <path id="LINE_15_" d="M125.37,235.972L128.134,239.558" style="fill:none;stroke:black;stroke-width:0.71px;"/>
    <path id="LINE_16_" d="M232.386,151.954L229.328,148.613" style="fill:none;stroke:black;stroke-width:0.71px;"/>
    <path id="LWPOLYLINE_69_" d="M105.292,170.107L105.289,170.7" style="fill:none;stroke:black;stroke-width:0.71px;"/>
    <path id="LWPOLYLINE_70_" d="M105.289,170.7L105.215,172.753L104.966,175.87L104.554,179.438L104.014,183.406L103.401,187.697L102.782,192.305L102.238,197.146L101.856,202.123L101.708,207.205L101.795,211.036L102.074,214.769L102.553,218.344L103.006,220.721" style="fill:none;stroke:black;stroke-width:0.71px;"/>
    <path id="LINE_17_" d="M47.925,217.094L47.63,242.297" style="fill:none;stroke:black;stroke-width:0.71px;"/>
    <path id="LWPOLYLINE_71_" d="M79.907,196.607L78.604,196.606L76.178,196.695L73.765,196.907L71.381,197.24L69.039,197.695L66.75,198.268L64.53,198.96L62.39,199.767L60.344,200.689L58.405,201.726L56.586,202.871L54.905,204.123L53.373,205.475L52.009,206.918L50.828,208.44L49.839,210.026L49.055,211.661L48.475,213.326L48.103,215.008L47.935,216.693L47.925,217.074" style="fill:none;stroke:black;stroke-width:0.71px;"/>
    <path id="LWPOLYLINE_72_" d="M197.209,101.714L196.415,100.981L194.237,99.151L193.784,98.8" style="fill:none;stroke:black;stroke-width:0.71px;"/>
    <path id="LWPOLYLINE_73_" d="M193.784,98.8L193.631,98.683" style="fill:none;stroke:black;stroke-width:0.71px;"/>
    <path id="LWPOLYLINE_74_" d="M193.631,98.683L191.926,97.456L189.486,95.902L186.925,94.494L184.245,93.235L181.454,92.13L178.558,91.185L175.565,90.4L172.481,89.783L169.315,89.332L166.077,89.05L162.772,88.941L159.413,89.005L156.006,89.242L152.563,89.652L149.094,90.236L145.609,90.99L142.115,91.915L138.624,93.005L135.146,94.26L131.69,95.677L128.268,97.25L124.886,98.977L121.555,100.851L118.287,102.869L115.087,105.023L111.966,107.309L108.933,109.719L105.998,112.247L103.166,114.886L100.446,117.63L97.847,120.469L95.374,123.396L93.037,126.402L90.839,129.479L88.79,132.621L86.892,135.815L85.152,139.055L83.574,142.332L82.164,145.635L80.924,148.956L79.858,152.283L78.968,155.611L78.258,158.929L77.729,162.227L77.382,165.495L77.216,168.724L77.232,171.904L77.43,175.029L77.806,178.087L78.359,181.072L79.087,183.973L79.985,186.786L81.051,189.501L82.278,192.112L83.186,193.795" style="fill:none;stroke:black;stroke-width:0.71px;"/>
    <path id="LWPOLYLINE_75_" d="M83.186,193.795L83.398,194.165" style="fill:none;stroke:black;stroke-width:0.71px;"/>
    <path id="LWPOLYLINE_76_" d="M83.398,194.165L83.663,194.614L84.291,195.629" style="fill:none;stroke:black;stroke-width:0.71px;"/>
    <path id="LWPOLYLINE_77_" d="M112.936,241.824L113.743,241.576L114.189,241.521" style="fill:none;stroke:black;stroke-width:0.71px;"/>
    <path id="LWPOLYLINE_78_" d="M110.587,244.615L110.625,244.465" style="fill:none;stroke:black;stroke-width:0.71px;"/>
    <path id="LWPOLYLINE_79_" d="M110.625,244.465L110.877,243.799L111.369,243.023L111.985,242.406" style="fill:none;stroke:black;stroke-width:0.71px;"/>
    <path id="LWPOLYLINE_80_" d="M111.985,242.406L112.061,242.345L112.936,241.824" style="fill:none;stroke:black;stroke-width:0.71px;"/>
    <path id="LINE_18_" d="M151.563,252.58L151.677,247.214" style="fill:none;stroke:black;stroke-width:0.71px;"/>
    <path id="LWPOLYLINE_81_" d="M201.754,145.286L201.877,145.724L201.947,145.984" style="fill:none;stroke:black;stroke-width:0.71px;"/>
    <path id="LWPOLYLINE_82_" d="M201.947,145.984L202.405,148.002L202.769,150.349L202.966,152.758L202.998,155.219L202.866,157.724L202.785,158.566" style="fill:none;stroke:black;stroke-width:0.71px;"/>
    <path id="LINE_19_" d="M151.676,247.206L144.73,238.355" style="fill:none;stroke:black;stroke-width:0.71px;"/>
    <path id="LWPOLYLINE_83_" d="M85.265,195.186L85.147,195.276L84.741,195.558L83.841,195.985L83.146,196.212L82.26,196.417L81.174,196.561L79.906,196.607" style="fill:none;stroke:black;stroke-width:0.71px;"/>
    <path id="LWPOLYLINE_84_" d="M151.504,247.042L153.516,246.663L157.85,245.74L162.326,244.64L166.864,243.375L171.457,241.946L176.112,240.358L180.827,238.617L185.518,236.767L188.04,235.731" style="fill:none;stroke:black;stroke-width:0.71px;"/>
    <path id="LWPOLYLINE_85_" d="M178.823,198.027L177.557,198.994L175.079,200.759L172.536,202.411L169.939,203.939L167.295,205.344L164.615,206.616L161.907,207.753L159.183,208.75L156.45,209.603L153.718,210.31L150.999,210.868L148.299,211.275L145.63,211.53L143.001,211.631L140.419,211.578L137.899,211.371L135.445,211.008L133.064,210.494L130.77,209.829L130.046,209.58" style="fill:none;stroke:black;stroke-width:0.71px;"/>
    <path id="LINE_20_" d="M281.723,177.197L242.8,141.197" style="fill:none;stroke:black;stroke-width:0.71px;"/>
    <path id="LINE_21_" d="M129.292,209.038L127.088,206.251" style="fill:none;stroke:black;stroke-width:0.71px;"/>
    <path id="LWPOLYLINE_86_" d="M130.075,209.59L129.704,209.407L129.279,209.021" style="fill:none;stroke:black;stroke-width:0.71px;"/>
    <path id="LINE_22_" d="M187.834,235.476L197.212,246.91" style="fill:none;stroke:black;stroke-width:0.71px;"/>
    <path id="LWPOLYLINE_87_" d="M189.16,146.208L189.05,146.816L188.501,149.339L187.796,151.88L186.941,154.423L185.937,156.961L184.787,159.489L183.495,161.993L182.067,164.465L180.505,166.898L178.818,169.282L177.008,171.609L175.084,173.873L173.051,176.062L170.918,178.169L168.691,180.188L166.379,182.113L163.989,183.935L161.53,185.648L159.011,187.246L156.44,188.722L153.827,190.074L151.182,191.295L148.515,192.382L145.831,193.331L144.208,193.835" style="fill:none;stroke:black;stroke-width:0.71px;"/>
    <path id="LWPOLYLINE_88_" d="M179.738,196.523L179.726,196.657L179.647,196.969L179.378,197.458L179.14,197.741L178.823,198.027" style="fill:none;stroke:black;stroke-width:0.71px;"/>
    <path id="LWPOLYLINE_89_" d="M140.388,202.356L138.833,202.71L135.867,203.277L132.921,203.692L130.002,203.958L127.567,204.063" style="fill:none;stroke:black;stroke-width:0.71px;"/>
    <path id="LWPOLYLINE_90_" d="M144.208,193.835L143.583,194.143L143.042,194.707L142.663,195.52L142.503,196.537" style="fill:none;stroke:black;stroke-width:0.71px;"/>
    <path id="LINE_23_" d="M142.505,196.517L142.345,200.365" style="fill:none;stroke:black;stroke-width:0.71px;"/>
    <path id="LWPOLYLINE_91_" d="M142.345,200.365L142.332,200.487L142.227,200.83L142,201.229L141.655,201.632L141.224,201.979L140.752,202.234L140.388,202.356" style="fill:none;stroke:black;stroke-width:0.71px;"/>
    <path id="LWPOLYLINE_92_" d="M242.843,141.236L242.464,140.896L241.386,140.021" style="fill:none;stroke:black;stroke-width:0.71px;"/>
    <path id="LWPOLYLINE_93_" d="M241.386,140.021L241.07,139.792L239.561,138.826L237.939,138.006L236.221,137.332L235.364,137.064" style="fill:none;stroke:black;stroke-width:0.71px;"/>
    <path id="LINE_24_" d="M261.691,396.723L282.329,423.2" style="fill:none;stroke:black;stroke-width:1.42px;"/>
    <path id="LINE_25_" d="M386.729,335.451L364.204,310.563" style="fill:none;stroke:black;stroke-width:1.42px;"/>
    <path id="LINE_26_" d="M369.382,351.69L368.255,350.409" style="fill:none;stroke:black;stroke-width:1.42px;"/>
    <path id="LINE_27_" d="M300.245,407.573L301.313,408.905" style="fill:none;stroke:black;stroke-width:1.42px;"/>
    <path id="LWPOLYLINE_94_" d="M196.893,101.417L191.397,97.133L185.104,93.731L178.108,91.28L170.516,89.831L162.451,89.422L154.048,90.071L145.446,91.778L136.797,94.519L128.251,98.253L119.962,102.922L112.074,108.443L104.731,114.721L98.061,121.645L92.183,129.091L87.197,136.924L83.186,145.005L80.21,153.191L78.318,161.342L77.529,169.315L77.843,176.978L79.245,184.207L81.696,190.886L84.299,195.641" style="fill:none;stroke:black;stroke-width:0.71px;"/>
    <path id="LWPOLYLINE_95_" d="M108.734,231.909L110.513,235.891L111.506,237.645L111.842,238.177" style="fill:none;stroke:black;stroke-width:0.71px;"/>
    <path id="LWPOLYLINE_96_" d="M87.245,197.149L85.874,192.68L84.965,188.228L84.508,183.539L84.576,178.905L85.17,174.395L86.187,170.417L87.655,166.659L89.563,163.246L91.033,161.27L92.676,159.54L94.459,158.126L96.598,157.004L98.795,156.49L100.519,156.607L102.126,157.248L103.521,158.441L104.645,160.156L105.322,161.9L105.785,163.9L106.106,167.243L106.07,170.854L106.032,171.527L105.662,175.647L105.123,179.802L104.449,184.354L103.772,188.835L103.159,193.189L102.495,199.126L102.113,204.776L102.05,210.064L102.268,214.28L102.708,218.164L103.34,221.64" style="fill:none;stroke:black;stroke-width:0.71px;"/>
    <path id="LINE_28_" d="M202.739,235.583L202.487,240.89" style="fill:none;stroke:black;stroke-width:0.71px;"/>
    <path id="LINE_29_" d="M150.08,252.95L150.198,247.107" style="fill:none;stroke:black;stroke-width:0.71px;"/>
    <path id="LWPOLYLINE_97_" d="M187.192,225.207L189.692,224.323L191.4,223.724" style="fill:none;stroke:black;stroke-width:0.71px;"/>
    <path id="LWPOLYLINE_98_" d="M143.429,237.195L144.17,237.018L146.065,236.605L148.833,236.047L152.013,235.41" style="fill:none;stroke:black;stroke-width:0.71px;"/>
    <path id="LINE_30_" d="M151.305,247.236L143.429,237.195" style="fill:none;stroke:black;stroke-width:0.71px;"/>
    <path id="LINE_31_" d="M191.4,223.724L201.685,236.106" style="fill:none;stroke:black;stroke-width:0.71px;"/>
    <path id="LWPOLYLINE_99_" d="M105.292,170.071L105.291,169.761L105.184,167.387L104.93,165.409L104.523,163.683L103.925,162.146L103.079,160.813L102.013,159.839L101.787,159.701L100.459,159.222L99.008,159.212L97.201,159.792L95.423,160.932L93.272,163.104L91.401,165.865L90.196,168.261L89.202,170.825L88.401,173.568L87.813,176.406L87.409,179.564L87.248,182.782L87.325,186.094L87.65,189.434L88.49,194.041L89.811,198.728" style="fill:none;stroke:black;stroke-width:0.71px;"/>
    <path id="LWPOLYLINE_100_" d="M100.659,230.069L97.685,231.666L94.397,233.023L90.852,234.12L87.106,234.936L83.222,235.456L79.262,235.673L75.295,235.581L71.388,235.184L67.604,234.485L64.006,233.499L60.657,232.244L57.609,230.736L54.913,229.007L52.611,227.083L50.74,224.997L49.329,222.785L48.397,220.483L47.959,218.129L47.925,217.094" style="fill:none;stroke:black;stroke-width:0.71px;"/>
    <path id="LWPOLYLINE_101_" d="M110.338,245.534L109.658,245.412L108.818,244.935L107.915,244.168L106.959,243.134L105.959,241.824L104.963,240.294L103.762,238.116L102.634,235.678L101.587,232.973L100.659,230.069" style="fill:none;stroke:black;stroke-width:0.71px;"/>
    <path id="LWPOLYLINE_102_" d="M79.907,196.607L79.838,196.96L79.799,197.497" style="fill:none;stroke:black;stroke-width:0.71px;"/>
    <path id="LWPOLYLINE_103_" d="M79.799,197.497L76.506,197.571L73.248,197.892L70.075,198.456L67.035,199.253L64.179,200.272L61.546,201.498L59.184,202.912L57.127,204.493L55.409,206.219L54.058,208.06L53.099,209.988L52.549,211.975L52.419,213.99L52.712,215.996L53.425,217.965L54.55,219.862L56.071,221.658L57.963,223.322L60.197,224.828L62.737,226.147L65.543,227.259L68.569,228.144L71.763,228.788L75.073,229.18L78.445,229.313L81.823,229.185L85.149,228.797L88.371,228.158L91.432,227.279L94.285,226.173L96.883,224.86L97.389,224.562" style="fill:none;stroke:black;stroke-width:0.71px;"/>
    <path id="LWPOLYLINE_104_" d="M100.659,230.069L100.351,228.479L99.576,226.845L98.461,225.424L97.389,224.562" style="fill:none;stroke:black;stroke-width:0.71px;"/>
    <path id="LWPOLYLINE_105_" d="M97.389,224.562L98.664,223.91L100.141,223.383L101.695,223.022L103.374,222.823L104.098,222.793" style="fill:none;stroke:black;stroke-width:0.71px;"/>
    <path id="LWPOLYLINE_106_" d="M86.531,196.064L86.041,196.301L84.652,196.825L83.088,197.213L81.485,197.436L79.799,197.497" style="fill:none;stroke:black;stroke-width:0.71px;"/>
    <path id="LWPOLYLINE_107_" d="M108.734,231.909L108.239,231.384L107.284,230.771L107.141,230.702L105.624,230.148L103.866,229.82L102.14,229.791L100.659,230.069" style="fill:none;stroke:black;stroke-width:0.71px;"/>
    <path id="LINE_32_" d="M127.058,206.435L129.478,209.496" style="fill:none;stroke:black;stroke-width:0.71px;"/>
    <path id="LWPOLYLINE_108_" d="M129.478,209.496L134.285,210.965L139.435,211.764L144.848,211.886L150.437,211.336L156.12,210.125L161.81,208.275L167.422,205.817L172.872,202.79L178.079,199.238L179.171,198.403" style="fill:none;stroke:black;stroke-width:0.71px;"/>
    <path id="LWPOLYLINE_109_" d="M180.188,194.383L180.476,194.854L180.639,195.72L180.459,196.675L179.954,197.605L179.171,198.403" style="fill:none;stroke:black;stroke-width:0.71px;"/>
    <path id="LINE_33_" d="M180.188,194.383L173.231,186.116" style="fill:none;stroke:black;stroke-width:0.71px;"/>
    <path id="LWPOLYLINE_110_" d="M168.42,185.661L168.966,185.309L169.806,184.994L170.816,184.901L171.977,185.177L172.666,185.579L173.231,186.116" style="fill:none;stroke:black;stroke-width:0.71px;"/>
    <path id="LWPOLYLINE_111_" d="M168.42,185.661L164.859,188.254L161.159,190.601L157.346,192.685L153.447,194.489L149.493,195.998L147.231,196.719" style="fill:none;stroke:black;stroke-width:0.71px;"/>
    <path id="LINE_34_" d="M147.231,196.719L145.446,194.523" style="fill:none;stroke:black;stroke-width:0.71px;"/>
    <path id="LWPOLYLINE_112_" d="M145.446,194.523L151.071,192.542L156.59,189.964L161.922,186.831L166.987,183.19L171.713,179.095L176.028,174.607L179.866,169.792L183.169,164.722L185.889,159.471L187.978,154.117L189.404,148.74L189.669,147.302" style="fill:none;stroke:black;stroke-width:0.71px;"/>
    <path id="LINE_35_" d="M189.669,147.302L192.468,150.473" style="fill:none;stroke:black;stroke-width:0.71px;"/>
    <path id="LINE_36_" d="M192.468,150.473L200.953,160.086" style="fill:none;stroke:black;stroke-width:0.71px;"/>
    <path id="LWPOLYLINE_113_" d="M202.984,159.094L202.874,159.671L202.548,160.315L202.075,160.615L201.52,160.536L200.953,160.086" style="fill:none;stroke:black;stroke-width:0.71px;"/>
    <path id="LINE_37_" d="M202.984,159.094L201.83,145.254" style="fill:none;stroke:black;stroke-width:0.71px;"/>
    <path id="LWPOLYLINE_114_" d="M110.338,245.534L110.819,243.826L111.924,242.45L112.941,241.821" style="fill:none;stroke:black;stroke-width:0.71px;"/>
    <path id="LWPOLYLINE_115_" d="M202.785,158.568L202.884,158.958L202.984,159.094" style="fill:none;stroke:black;stroke-width:0.71px;"/>
    <path id="LWPOLYLINE_116_" d="M248.341,160.152L262.055,172.861" style="fill:none;stroke:black;stroke-width:0.71px;"/>
    <path id="LWPOLYLINE_117_" d="M152.109,243.208L148.974,243.814" style="fill:none;stroke:black;stroke-width:0.71px;"/>
    <path id="LWPOLYLINE_118_" d="M189.827,232.183L186.083,233.514L180.995,235.242L175.958,236.861L171.012,238.367L166.692,239.612L162.454,240.767L158.36,241.808L154.483,242.71L152.109,243.208" style="fill:none;stroke:black;stroke-width:0.71px;"/>
    <path id="LWPOLYLINE_119_" d="M190.776,231.837L189.827,232.183" style="fill:none;stroke:black;stroke-width:0.71px;"/>
    <path id="LWPOLYLINE_120_" d="M151.338,246.87L153.422,246.475L159.383,245.183L165.8,243.491L172.399,241.458L179.079,239.125L183.163,237.569L187.252,235.932L188.057,235.603" style="fill:none;stroke:black;stroke-width:0.71px;"/>
    <path id="LWPOLYLINE_121_" d="M152.109,243.208L153.087,242.294L153.679,240.869L153.789,239.161L153.397,237.441L152.568,235.981L152.013,235.41" style="fill:none;stroke:black;stroke-width:0.71px;"/>
    <path id="LWPOLYLINE_122_" d="M189.827,232.183L189.577,231.632L189.132,230.524L188.562,229.031L187.959,227.392L187.417,225.865L187.192,225.207" style="fill:none;stroke:black;stroke-width:0.71px;"/>
    <path id="LWPOLYLINE_123_" d="M178.823,198.027L178.927,198.121L179.171,198.403" style="fill:none;stroke:black;stroke-width:0.71px;"/>
    <path id="LWPOLYLINE_124_" d="M129.478,209.496C129.495,209.497 129.948,209.553 129.948,209.553L130.06,209.585" style="fill:none;stroke:black;stroke-width:0.71px;"/>
    <path id="LINE_38_" d="M242.8,141.197L235.889,137.441" style="fill:none;stroke:black;stroke-width:0.71px;"/>
    <path id="LINE_39_" d="M235.889,137.441L235.677,137.385" style="fill:none;stroke:black;stroke-width:0.71px;"/>
    <path id="LINE_40_" d="M198.868,240.889L199.042,237.079" style="fill:none;stroke:black;stroke-width:0.71px;"/>
    <path id="LINE_41_" d="M199.042,237.079L191.19,227.592" style="fill:none;stroke:black;stroke-width:0.71px;"/>
    <path id="LINE_42_" d="M187.907,234.952L196.916,245.933" style="fill:none;stroke:black;stroke-width:0.71px;"/>
    <path id="LINE_43_" d="M127.505,204.352L140.882,202.635" style="fill:none;stroke:black;stroke-width:0.71px;"/>
    <path id="LINE_44_" d="M140.882,202.635L147.864,211.316" style="fill:none;stroke:black;stroke-width:0.71px;"/>
    <path id="LWPOLYLINE_125_" d="M129.284,209.028L129.353,209.132L129.475,209.483" style="fill:none;stroke:black;stroke-width:0.71px;"/>
    <path id="LWPOLYLINE_126_" d="M202.658,158.385L202.044,158.625L201.499,159.059L201.11,159.615L200.953,160.086" style="fill:none;stroke:black;stroke-width:0.71px;"/>
    <path id="LINE_45_" d="M202.805,158.355L202.658,158.385" style="fill:none;stroke:black;stroke-width:0.71px;"/>
    <path id="LWPOLYLINE_127_" d="M194.16,148.783L193.578,149.002L193.058,149.397L192.669,149.911L192.468,150.473" style="fill:none;stroke:black;stroke-width:0.71px;"/>
    <path id="LINE_46_" d="M202.658,158.385L194.158,148.783" style="fill:none;stroke:black;stroke-width:0.71px;"/>
    <path id="LINE_47_" d="M200.734,147.445L202.652,149.595" style="fill:none;stroke:black;stroke-width:0.71px;"/>
    <path id="LWPOLYLINE_128_" d="M189.182,146.19L189.226,146.518L189.669,147.302" style="fill:none;stroke:black;stroke-width:0.71px;"/>
    <path id="LWPOLYLINE_129_" d="M145.446,194.523L144.813,193.947L144.245,193.827L144.212,193.835" style="fill:none;stroke:black;stroke-width:0.71px;"/>
    <path id="LWPOLYLINE_130_" d="M169.182,186.608L171.354,189.293L177.881,197.36" style="fill:none;stroke:black;stroke-width:0.71px;"/>
    <path id="LWPOLYLINE_131_" d="M177.881,197.36L173.791,200.372L169.544,203.118L165.17,205.577L160.698,207.735L156.155,209.577L154.699,210.094" style="fill:none;stroke:black;stroke-width:0.71px;"/>
    <path id="LWPOLYLINE_132_" d="M150.964,210.896L151.074,209.596L150.773,207.765" style="fill:none;stroke:black;stroke-width:0.71px;"/>
    <path id="LWPOLYLINE_133_" d="M150.773,207.765L149.78,204.458L147.771,197.787" style="fill:none;stroke:black;stroke-width:0.71px;"/>
    <path id="LWPOLYLINE_134_" d="M147.771,197.787L151.788,196.435L155.763,194.779L159.668,192.832L163.476,190.609L167.157,188.127L169.182,186.608" style="fill:none;stroke:black;stroke-width:0.71px;"/>
    <path id="LWPOLYLINE_135_" d="M179.65,196.4L179.462,195.935L179.519,195.372L179.807,194.797L180.188,194.383" style="fill:none;stroke:black;stroke-width:0.71px;"/>
    <path id="LWPOLYLINE_136_" d="M177.881,197.36L178.298,197.886L178.646,198.309" style="fill:none;stroke:black;stroke-width:0.71px;"/>
    <path id="LWPOLYLINE_137_" d="M190.55,145.979L190.055,146.458L189.738,147.035L189.669,147.302" style="fill:none;stroke:black;stroke-width:0.71px;"/>
    <path id="LINE_48_" d="M194.16,148.784L191.49,145.768" style="fill:none;stroke:black;stroke-width:0.71px;"/>
    <path id="LINE_49_" d="M198.721,145.191L200.731,147.447" style="fill:none;stroke:black;stroke-width:0.71px;"/>
    <path id="LWPOLYLINE_138_" d="M140.882,202.635L140.583,202.379L140.388,202.356" style="fill:none;stroke:black;stroke-width:0.71px;"/>
    <path id="LINE_50_" d="M172.704,188.125L179.65,196.4" style="fill:none;stroke:black;stroke-width:0.71px;"/>
    <path id="LWPOLYLINE_139_" d="M172.704,188.125L172.514,187.661L172.567,187.098L172.854,186.526L173.231,186.116" style="fill:none;stroke:black;stroke-width:0.71px;"/>
    <path id="LWPOLYLINE_140_" d="M169.182,186.608L168.765,186.083L168.42,185.661" style="fill:none;stroke:black;stroke-width:0.71px;"/>
    <path id="LWPOLYLINE_141_" d="M147.771,197.787L147.518,197.172L147.231,196.719" style="fill:none;stroke:black;stroke-width:0.71px;"/>
    <path id="LWPOLYLINE_142_" d="M179.263,196.24L172.704,188.125" style="fill:none;stroke:black;stroke-width:0.71px;"/>
    <path id="LINE_51_" d="M179.7,196.759L179.263,196.24" style="fill:none;stroke:black;stroke-width:0.71px;"/>
    <path id="LWPOLYLINE_143_" d="M145.685,198.5L148.676,208.475" style="fill:none;stroke:black;stroke-width:0.71px;"/>
    <path id="LWPOLYLINE_144_" d="M147.771,197.787L147.118,197.971L146.483,198.177L145.966,198.368L145.685,198.5" style="fill:none;stroke:black;stroke-width:0.71px;"/>
    <path id="LWPOLYLINE_145_" d="M150.773,207.765L150.119,207.951L149.483,208.155L148.964,208.344L148.676,208.475" style="fill:none;stroke:black;stroke-width:0.71px;"/>
    <path id="LINE_52_" d="M148.676,208.475L142.518,200.839" style="fill:none;stroke:black;stroke-width:0.71px;"/>
    <path id="LINE_53_" d="M142.518,200.839L142.678,196.991" style="fill:none;stroke:black;stroke-width:0.71px;"/>
    <path id="LWPOLYLINE_146_" d="M142.678,196.991L142.726,196.564L142.897,196.095L143.172,195.884L143.52,195.955L143.902,196.301" style="fill:none;stroke:black;stroke-width:0.71px;"/>
    <path id="LINE_54_" d="M143.902,196.301L145.685,198.5" style="fill:none;stroke:black;stroke-width:0.71px;"/>
    <path id="LWPOLYLINE_147_" d="M149.244,210.901L149.236,211.15" style="fill:none;stroke:black;stroke-width:0.71px;"/>
    <path id="LWPOLYLINE_148_" d="M142.518,200.839L142.375,201.411L142.009,201.956L141.479,202.388L140.882,202.635" style="fill:none;stroke:black;stroke-width:0.71px;"/>
    <path id="LWPOLYLINE_149_" d="M148.676,208.475L149.112,209.746L149.244,210.901" style="fill:none;stroke:black;stroke-width:0.71px;"/>
    <path id="LWPOLYLINE_150_" d="M149.978,211.01L149.37,210.909L149.244,210.901" style="fill:none;stroke:black;stroke-width:0.71px;"/>
    <path id="LWPOLYLINE_151_" d="M172.704,188.125L171.592,187.064L170.702,186.564L170.007,186.397L169.638,186.416L169.486,186.453L169.182,186.608" style="fill:none;stroke:black;stroke-width:0.71px;"/>
    <path id="LWPOLYLINE_152_" d="M179.263,196.24L179.149,196.334L178.84,196.584L178.387,196.95L177.881,197.36" style="fill:none;stroke:black;stroke-width:0.71px;"/>
    <path id="LWPOLYLINE_153_" d="M145.685,198.5L145.83,197.924L146.198,197.375L146.732,196.94L147.231,196.719" style="fill:none;stroke:black;stroke-width:0.71px;"/>
    <path id="LWPOLYLINE_154_" d="M179.194,197.703L179.43,197.128L179.428,196.584L179.263,196.24" style="fill:none;stroke:black;stroke-width:0.71px;"/>
    <path id="LWPOLYLINE_155_" d="M143.902,196.301L144.047,195.726L144.415,195.178L144.946,194.744L145.446,194.523" style="fill:none;stroke:black;stroke-width:0.71px;"/>
    <path id="LWPOLYLINE_156_" d="M142.678,196.991L142.507,196.596L142.503,196.537" style="fill:none;stroke:black;stroke-width:0.71px;"/>
    <path id="LWPOLYLINE_157_" d="M142.345,200.365L142.464,200.765L142.518,200.839" style="fill:none;stroke:black;stroke-width:0.71px;"/>
    <g transform="matrix(0.674081,0.738657,-0.738657,0.674081,307.124,58.2046)">
        <path d="M111.99,202.962L111.99,219.575L86.431,194.016L111.99,168.457L111.99,185.07L163.108,185.07L163.108,202.962L111.99,202.962Z" style="fill:rgb(235,235,235);stroke:black;stroke-width:1.91px;stroke-miterlimit:1.5;"/>
    </g>
    <text x="244.468px" y="101.767px" style="font-family:'ArialMT', 'Arial', sans-serif;font-size:40.749px;">D</text>
    <g transform="matrix(1,0,0,1,82.8333,183.022)">
        <text x="244.468px" y="101.767px" style="font-family:'ArialMT', 'Arial', sans-serif;font-size:40.749px;">P</text>
    </g>
</svg>
