<?xml version="1.0" encoding="UTF-8" standalone="no"?><!DOCTYPE svg PUBLIC "-//W3C//DTD SVG 1.1//EN" "http://www.w3.org/Graphics/SVG/1.1/DTD/svg11.dtd"><svg width="100%" height="100%" viewBox="0 0 456 568" version="1.1" xmlns="http://www.w3.org/2000/svg" xmlns:xlink="http://www.w3.org/1999/xlink" xml:space="preserve" xmlns:serif="http://www.serif.com/" style="fill-rule:evenodd;clip-rule:evenodd;stroke-linecap:round;stroke-linejoin:round;stroke-miterlimit:10;"><path id="LWPOLYLINE" d="M428.047,145.61l-0.316,-0.476l-2.277,-2.93l-2.577,-2.628" style="fill:none;stroke:#000;stroke-width:1.42px;"/><path id="LWPOLYLINE_314_" d="M431.684,153.115l-1.603,-3.85l-2.034,-3.655" style="fill:none;stroke:#000;stroke-width:1.42px;"/><path id="LINE" d="M431.684,153.115l-5.637,5.521" style="fill:none;stroke:#000;stroke-width:1.42px;"/><path id="LWPOLYLINE_2_" d="M420.872,152.61l0.316,0.477l2.285,2.93l2.574,2.619" style="fill:none;stroke:#000;stroke-width:1.42px;"/><path id="LWPOLYLINE_3_" d="M417.215,145.081l1.61,3.866l2.047,3.663" style="fill:none;stroke:#000;stroke-width:1.42px;"/><path id="LINE_1_" d="M422.877,139.576l-5.662,5.505" style="fill:none;stroke:#000;stroke-width:1.42px;"/><path id="LWPOLYLINE_4_" d="M409.717,143.57l0.481,0.158l3.357,0.825l3.66,0.528" style="fill:none;stroke:#000;stroke-width:1.42px;"/><path id="LWPOLYLINE_5_" d="M420.872,152.61l-1.039,-1.464l-1.165,-1.405l-1.279,-1.324l-1.369,-1.219l-1.428,-1.096l-1.478,-0.957l-1.498,-0.8l-1.491,-0.631l-0.408,-0.144" style="fill:none;stroke:#000;stroke-width:1.42px;"/><path id="LWPOLYLINE_6_" d="M416.973,158.996l0.313,-1.722l-0.547,-2.111l-1.324,-2.165l-1.889,-1.877l-2.156,-1.288l-2.077,-0.495l-1.673,0.372l-0.448,0.341" style="fill:none;stroke:#000;stroke-width:1.42px;"/><path id="LWPOLYLINE_7_" d="M422.954,163.85l0.42,-1.048l0.236,-1.175l0.049,-1.284l-0.145,-1.377l-0.33,-1.443l-0.514,-1.487l-0.683,-1.509l-0.852,-1.504l-0.263,-0.413" style="fill:none;stroke:#000;stroke-width:1.42px;"/><path id="LWPOLYLINE_8_" d="M413.948,166.002l1.441,0.411l1.389,0.224l1.306,0.038l1.213,-0.151l1.094,-0.338l0.959,-0.52l0.811,-0.696l0.642,-0.856l0.151,-0.264" style="fill:none;stroke:#000;stroke-width:1.42px;"/><path id="LWPOLYLINE_9_" d="M402.907,157.032l1.029,1.448l1.156,1.388l1.264,1.308l1.35,1.208l1.414,1.089l1.459,0.95l1.482,0.801l1.479,0.632l0.408,0.146" style="fill:none;stroke:#000;stroke-width:1.42px;"/><path id="LWPOLYLINE_10_" d="M402.907,157.032l-0.891,-1.482l-0.73,-1.495l-0.567,-1.482l-0.388,-1.45l-0.206,-1.392l-0.019,-1.31l0.166,-1.211l0.353,-1.091l0.133,-0.278" style="fill:none;stroke:#000;stroke-width:1.42px;"/><path id="LWPOLYLINE_11_" d="M409.717,143.57l-1.451,-0.401l-1.391,-0.213l-1.308,-0.023l-1.211,0.169l-1.086,0.355l-0.947,0.537l-0.795,0.709l-0.627,0.869l-0.143,0.269" style="fill:none;stroke:#000;stroke-width:1.42px;"/><path id="LWPOLYLINE_12_" d="M416.909,136.604l-0.481,-0.155l-3.345,-0.815l-3.637,-0.518" style="fill:none;stroke:#000;stroke-width:1.42px;"/><path id="LWPOLYLINE_1_" d="M422.877,139.576l-2.748,-1.632l-3.22,-1.34" style="fill:none;stroke:#000;stroke-width:1.42px;"/><path id="LWPOLYLINE_14_" d="M403.782,140.587l2.72,1.635l3.215,1.348" style="fill:none;stroke:#000;stroke-width:1.42px;"/><path id="LINE_2_" d="M409.446,135.116l-5.664,5.471" style="fill:none;stroke:#000;stroke-width:1.42px;"/><path id="LWPOLYLINE_15_" d="M426.047,158.636l-1.273,2.033l-1.127,1.908l-0.693,1.273" style="fill:none;stroke:#000;stroke-width:1.42px;"/><path id="LWPOLYLINE_16_" d="M430.092,156.851l0.578,-1.157l0.598,-1.38l0.416,-1.199" style="fill:none;stroke:#000;stroke-width:1.42px;"/><path id="LWPOLYLINE_17_" d="M426.999,162.04l0.912,-1.435l1.179,-1.955l1.002,-1.799" style="fill:none;stroke:#000;stroke-width:1.42px;"/><path id="LINE_3_" d="M426.999,162.04l-5.606,5.502" style="fill:none;stroke:#000;stroke-width:1.42px;"/><path id="LWPOLYLINE_18_" d="M422.954,163.85l-0.756,1.549l-0.543,1.34l-0.262,0.803" style="fill:none;stroke:#000;stroke-width:1.42px;"/><path id="LWPOLYLINE_19_" d="M400.758,145.841l0.672,-1.283l1.088,-1.906l1.264,-2.065" style="fill:none;stroke:#000;stroke-width:1.42px;"/><path id="LINE_4_" d="M416.53,159.598l0.443,-0.602" style="fill:none;stroke:#000;stroke-width:1.42px;"/><path id="LWPOLYLINE_20_" d="M407.172,150.051l-0.716,1.429l0.132,1.956l0.959,2.174l1.633,2.05l2.055,1.605l2.154,0.907l1.91,0.066l1.231,-0.64" style="fill:none;stroke:#000;stroke-width:1.42px;"/><path id="LWPOLYLINE_21_" d="M421.393,167.542l-3.83,-0.58l-3.615,-0.96" style="fill:none;stroke:#000;stroke-width:1.42px;"/><path id="LWPOLYLINE_22_" d="M402.907,157.032l-0.309,-0.48l-1.814,-3.339l-1.51,-3.626" style="fill:none;stroke:#000;stroke-width:1.42px;"/><path id="LWPOLYLINE_23_" d="M399.274,149.587l0.244,-0.817l0.506,-1.341l0.734,-1.588" style="fill:none;stroke:#000;stroke-width:1.42px;"/><path id="LWPOLYLINE_24_" d="M408.049,162.989l-2.695,-2.743l-2.447,-3.214" style="fill:none;stroke:#000;stroke-width:1.42px;"/><path id="LWPOLYLINE_25_" d="M413.948,166.002l-0.469,-0.166l-2.873,-1.278l-2.557,-1.569" style="fill:none;stroke:#000;stroke-width:1.42px;"/><path id="LWPOLYLINE_26_" d="M102.224,436.532l0.626,-3.029l0.346,-0.408" style="fill:none;stroke:#000;stroke-width:1.42px;"/><path id="LWPOLYLINE_27_" d="M102.404,438.54l0.555,-2.689l2.166,-1.145l3.441,0.597l3.322,1.687" style="fill:none;stroke:#000;stroke-width:1.42px;"/><path id="LWPOLYLINE_28_" d="M119.978,456.65l-3.77,-1.239l-4.243,-2.765l-4.054,-3.845l-3.239,-4.334l-1.913,-4.146l-0.355,-1.781" style="fill:none;stroke:#000;stroke-width:1.42px;"/><path id="LWPOLYLINE_29_" d="M112.894,434.77l1.536,1.04l1.537,1.183l1.509,1.305l1.46,1.407l1.383,1.481l1.288,1.539l1.168,1.569l1.03,1.573l0.877,1.55l0.71,1.505l0.53,1.433l0.343,1.339l0.151,1.221l-0.045,1.088l-0.239,0.938l-0.427,0.767l-0.268,0.307" style="fill:none;stroke:#000;stroke-width:1.42px;"/><path id="LWPOLYLINE_30_" d="M111.888,436.99l4.286,3.331l3.805,4.188l2.715,4.379l1.191,3.861l-0.512,2.733l-2.127,1.183l-1.268,-0.015" style="fill:none;stroke:#000;stroke-width:1.42px;"/><path id="LWPOLYLINE_31_" d="M113.364,423.272l0.704,-0.502l0.869,-0.314l1.024,-0.114l1.16,0.083l1.277,0.281l1.377,0.472l1.454,0.657l1.504,0.836l0.352,0.216" style="fill:none;stroke:#000;stroke-width:1.42px;"/><path id="LWPOLYLINE_32_" d="M103.196,433.095l0.697,-0.495l0.866,-0.307l1.017,-0.105l1.157,0.087l1.276,0.287l1.374,0.483l1.453,0.666l1.504,0.843l0.354,0.216" style="fill:none;stroke:#000;stroke-width:1.42px;"/><path id="LWPOLYLINE_33_" d="M125.437,456.015l-2.742,0.922l-0.718,-0.049" style="fill:none;stroke:#000;stroke-width:1.42px;"/><path id="LWPOLYLINE_34_" d="M123.085,424.887l1.537,1.031l1.535,1.177l1.507,1.296l1.453,1.403l1.381,1.479l1.281,1.534l1.163,1.566l1.024,1.569l0.87,1.55l0.704,1.505l0.521,1.433l0.336,1.342l0.142,1.226l-0.051,1.091l-0.245,0.939l-0.433,0.774l-0.273,0.311" style="fill:none;stroke:#000;stroke-width:1.42px;"/><path id="LINE_5_" d="M112.402,440.623l-5.053,-0.87" style="fill:none;stroke:#000;stroke-width:1.42px;"/><path id="LINE_6_" d="M107.349,439.753l0.732,5.075" style="fill:none;stroke:#000;stroke-width:1.42px;"/><path id="LINE_7_" d="M108.081,444.828l5.76,5.943" style="fill:none;stroke:#000;stroke-width:1.42px;"/><path id="LINE_8_" d="M113.841,450.771l5.058,0.903" style="fill:none;stroke:#000;stroke-width:1.42px;"/><path id="LINE_9_" d="M118.899,451.674l-0.704,-5.074" style="fill:none;stroke:#000;stroke-width:1.42px;"/><path id="LINE_10_" d="M118.195,446.6l-5.793,-5.977" style="fill:none;stroke:#000;stroke-width:1.42px;"/><path id="LINE_11_" d="M117.671,447.036l0.6,0.105" style="fill:none;stroke:#000;stroke-width:1.42px;"/><path id="LINE_12_" d="M111.918,441.099l5.753,5.937" style="fill:none;stroke:#000;stroke-width:1.42px;"/><path id="LINE_13_" d="M111.837,440.528l0.081,0.571" style="fill:none;stroke:#000;stroke-width:1.42px;"/><path id="LWPOLYLINE_35_" d="M148.593,398.996l1.561,-0.552l2.283,0.529l1.596,0.823" style="fill:none;stroke:#000;stroke-width:1.42px;"/><path id="LWPOLYLINE_36_" d="M154.033,399.796l2.653,2.031l2.335,2.575l1.644,2.715l0.694,2.417l-0.363,1.734l-0.219,0.265" style="fill:none;stroke:#000;stroke-width:1.42px;"/><path id="LINE_14_" d="M113.841,450.771l3.83,-3.735" style="fill:none;stroke:#000;stroke-width:1.42px;"/><path id="LINE_15_" d="M108.081,444.828l3.837,-3.729" style="fill:none;stroke:#000;stroke-width:1.42px;"/><path id="LWPOLYLINE_37_" d="M192.994,355.961l1.599,-0.601l2.295,0.473l1.599,0.791" style="fill:none;stroke:#000;stroke-width:1.42px;"/><path id="LWPOLYLINE_38_" d="M198.487,356.624l2.636,1.98l2.294,2.541l1.596,2.695l0.639,2.424l-0.416,1.77l-0.227,0.272" style="fill:none;stroke:#000;stroke-width:1.42px;"/><path id="LWPOLYLINE_39_" d="M224.11,286.716l-1.286,-1.43l-1.099,-1.547l-0.893,-1.639l-0.676,-1.701l-0.45,-1.739l-0.208,-1.749l0.026,-1.73l0.265,-1.682l0.499,-1.611l0.657,-1.388" style="fill:none;stroke:#000;stroke-width:0.71px;"/><path id="LWPOLYLINE_40_" d="M225.691,284.987l-3.029,-4.346l-1.093,-4.874l1.007,-4.632l2.941,-3.654l4.408,-2.109l5.18,-0.235l5.135,1.673l4.287,3.316l2.772,4.443l0.812,4.871l-1.278,4.537l-3.171,3.484l-4.572,1.875l-5.248,-0.034l-5.093,-1.942l-3.058,-2.373Z" style="fill:none;stroke:#000;stroke-width:0.71px;"/><path id="LINE_16_" d="M229.505,281.768l7.559,2.586" style="fill:none;stroke:#000;stroke-width:0.71px;"/><path id="LINE_17_" d="M237.064,284.354l5.338,-4.521" style="fill:none;stroke:#000;stroke-width:0.71px;"/><path id="LINE_18_" d="M242.402,279.833l-2.204,-7.085" style="fill:none;stroke:#000;stroke-width:0.71px;"/><path id="LINE_19_" d="M240.198,272.748l-7.532,-2.581" style="fill:none;stroke:#000;stroke-width:0.71px;"/><path id="LINE_20_" d="M232.666,270.167l-5.349,4.498" style="fill:none;stroke:#000;stroke-width:0.71px;"/><path id="LINE_21_" d="M227.317,274.665l2.188,7.103" style="fill:none;stroke:#000;stroke-width:0.71px;"/><path id="LWPOLYLINE_41_" d="M243.812,292.488l-0.948,1.372l-1.15,1.227l-1.327,1.062l-1.486,0.882l-1.618,0.682l-1.728,0.475l-1.807,0.261l-1.861,0.038l-1.882,-0.18l-1.872,-0.4l-0.177,-0.05" style="fill:none;stroke:#000;stroke-width:0.71px;"/><path id="LWPOLYLINE_42_" d="M227.956,297.857l-5.502,-2.662l-2.136,-1.813" style="fill:none;stroke:#000;stroke-width:0.71px;"/><path id="LWPOLYLINE_43_" d="M247.729,285.835l-0.952,1.378l-1.154,1.233l-1.334,1.064l-1.49,0.883l-1.63,0.685l-1.735,0.476l-1.818,0.259l-1.872,0.039l-1.89,-0.185l-1.883,-0.403l-1.846,-0.613l-1.776,-0.819l-1.679,-1.008l-1.554,-1.179l-1.006,-0.929" style="fill:none;stroke:#000;stroke-width:0.71px;"/><path id="LWPOLYLINE_44_" d="M220.945,270.5l0.92,-1.398l1.122,-1.254l1.305,-1.091l1.463,-0.911l1.599,-0.717l1.713,-0.508l1.795,-0.296l1.854,-0.078l1.879,0.142l1.875,0.359l1.845,0.569l1.781,0.773l1.686,0.962l1.573,1.136l1.433,1.295l1.266,1.43l1.082,1.544l0.877,1.633l0.665,1.698l0.435,1.734l0.201,1.74l-0.038,1.724l-0.273,1.679l-0.506,1.605l-0.73,1.507l-0.038,0.058" style="fill:none;stroke:#000;stroke-width:0.71px;"/><path id="LWPOLYLINE_45_" d="M220.318,293.382l-3.38,-4.864l-0.212,-0.499" style="fill:none;stroke:#000;stroke-width:0.71px;"/><path id="LINE_22_" d="M216.726,288.019l-0.173,-0.452" style="fill:none;stroke:#000;stroke-width:0.71px;"/><path id="LINE_23_" d="M215.997,280.37l1.187,-3.132" style="fill:none;stroke:#000;stroke-width:0.71px;"/><path id="LINE_24_" d="M232.666,270.167l-1.452,2.556" style="fill:none;stroke:#000;stroke-width:0.71px;"/><path id="LINE_25_" d="M231.214,272.723l-3.572,3.004" style="fill:none;stroke:#000;stroke-width:0.71px;"/><path id="LINE_26_" d="M238.731,275.297l-7.517,-2.574" style="fill:none;stroke:#000;stroke-width:0.71px;"/><path id="LINE_27_" d="M240.61,281.349l-1.879,-6.052" style="fill:none;stroke:#000;stroke-width:0.71px;"/><path id="LINE_28_" d="M240.198,272.748l-1.467,2.549" style="fill:none;stroke:#000;stroke-width:0.71px;"/><path id="LWPOLYLINE_46_" d="M215.898,316.545l0.586,0.196l3.929,1.131l4.045,0.892" style="fill:none;stroke:#000;stroke-width:0.71px;"/><path id="LWPOLYLINE_47_" d="M208.008,313.159l3.788,1.797l4.102,1.589" style="fill:none;stroke:#000;stroke-width:0.71px;"/><path id="LINE_29_" d="M208.008,313.159l2.476,-4.361" style="fill:none;stroke:#000;stroke-width:0.71px;"/><path id="LWPOLYLINE_48_" d="M217.04,310.375l-2.491,-0.68l-4.065,-0.897" style="fill:none;stroke:#000;stroke-width:0.71px;"/><path id="LINE_30_" d="M224.458,318.764l0.779,-1.328" style="fill:none;stroke:#000;stroke-width:0.71px;"/><path id="LWPOLYLINE_49_" d="M210.294,304.305l4.13,4.299l2.018,1.27" style="fill:none;stroke:#000;stroke-width:0.71px;"/><path id="LWPOLYLINE_50_" d="M210.484,308.798l-0.919,-4.249l-0.302,-1.217" style="fill:none;stroke:#000;stroke-width:0.71px;"/><path id="LWPOLYLINE_51_" d="M205.323,305.976l0.166,0.549l1.195,3.436l1.324,3.198" style="fill:none;stroke:#000;stroke-width:0.71px;"/><path id="LWPOLYLINE_52_" d="M204.14,301.547l0.075,0.313l1.108,4.116" style="fill:none;stroke:#000;stroke-width:0.71px;"/><path id="LWPOLYLINE_53_" d="M224.458,318.764l1.331,-1.012l0.072,-0.055" style="fill:none;stroke:#000;stroke-width:0.71px;"/><path id="LINE_31_" d="M265.193,272.007l-10.56,-9.49" style="fill:none;stroke:#000;stroke-width:0.71px;"/><path id="LWPOLYLINE_56_" d="M207.807,302.182l-0.212,-0.027l-0.034,-0.007" style="fill:none;stroke:#000;stroke-width:0.71px;"/><path id="LWPOLYLINE_57_" d="M216.564,286.775l0.007,0.8" style="fill:none;stroke:#000;stroke-width:0.71px;"/><path id="LWPOLYLINE_58_" d="M216.571,287.575l-0.015,0.547" style="fill:none;stroke:#000;stroke-width:0.71px;"/><path id="LWPOLYLINE_59_" d="M216.556,288.122l0.177,-0.084" style="fill:none;stroke:#000;stroke-width:0.71px;"/><path id="LWPOLYLINE_60_" d="M214.786,289.047c0.016,-0.002 0.367,-0.085 0.367,-0.085l0.477,-0.19l0.461,-0.25l0.438,-0.295l0.121,-0.093" style="fill:none;stroke:#000;stroke-width:0.71px;"/><path id="LWPOLYLINE_61_" d="M216.651,288.134l0.082,-0.063" style="fill:none;stroke:#000;stroke-width:0.71px;"/><path id="LWPOLYLINE_62_" d="M207.561,301.543c0.004,0.015 0.118,0.342 0.118,0.342l0.14,0.18" style="fill:none;stroke:#000;stroke-width:0.71px;"/><path id="LWPOLYLINE_63_" d="M207.561,302.148l-0.041,0.002l-0.186,-0.003" style="fill:none;stroke:#000;stroke-width:0.71px;"/><path id="LWPOLYLINE_64_" d="M264.377,264.923l-0.522,0.341l-0.643,0.191l-0.661,0.011l-0.518,-0.144" style="fill:none;stroke:#000;stroke-width:0.71px;"/><path id="LINE_32_" d="M226.999,264.712l0.578,0.35" style="fill:none;stroke:#000;stroke-width:0.71px;"/><path id="LWPOLYLINE_65_" d="M215.449,275.826l5.451,-5.248" style="fill:none;stroke:#000;stroke-width:0.71px;"/><path id="LWPOLYLINE_66_" d="M225.649,266.008l1.35,-1.296" style="fill:none;stroke:#000;stroke-width:0.71px;"/><path id="LINE_33_" d="M216.564,286.775l-1.115,-10.949" style="fill:none;stroke:#000;stroke-width:0.71px;"/><path id="LINE_34_" d="M203.962,208.875l0.041,-0.039" style="fill:none;stroke:#000;stroke-width:0.71px;"/><path id="LWPOLYLINE_67_" d="M271.534,257.682l-0.049,0.463l-0.306,0.438" style="fill:none;stroke:#000;stroke-width:0.71px;"/><path id="LINE_35_" d="M227.925,297.855l0.056,0.017" style="fill:none;stroke:#000;stroke-width:0.71px;"/><path id="LINE_36_" d="M227.91,297.844l0.015,0.011" style="fill:none;stroke:#000;stroke-width:0.71px;"/><path id="LINE_37_" d="M215.69,277.334l3.062,-2.91" style="fill:none;stroke:#000;stroke-width:0.71px;"/><path id="LINE_38_" d="M246.872,287.292l0.778,2.092" style="fill:none;stroke:#000;stroke-width:0.71px;"/><path id="LWPOLYLINE_68_" d="M248.826,260.449l2.038,0.121l1.969,0.706l1.8,1.241" style="fill:none;stroke:#000;stroke-width:0.71px;"/><path id="LWPOLYLINE_69_" d="M246.217,260.827l0.026,-0.006l1.078,-0.195l1.505,-0.177" style="fill:none;stroke:#000;stroke-width:0.71px;"/><path id="LINE_39_" d="M247.771,289.265l-11.357,11.004" style="fill:none;stroke:#000;stroke-width:0.71px;"/><path id="LINE_40_" d="M246.981,287.11l0.79,2.155" style="fill:none;stroke:#000;stroke-width:0.71px;"/><path id="LINE_41_" d="M267.855,274.403l-2.662,-2.396" style="fill:none;stroke:#000;stroke-width:0.71px;"/><path id="LINE_42_" d="M236.414,300.269l-8.433,-2.397" style="fill:none;stroke:#000;stroke-width:0.71px;"/><path id="LINE_43_" d="M226.999,264.712l-0.409,0.727" style="fill:none;stroke:#000;stroke-width:0.71px;"/><path id="LWPOLYLINE_70_" d="M268.729,275.905l-0.125,-0.499l-0.318,-0.536l-0.431,-0.467" style="fill:none;stroke:#000;stroke-width:0.71px;"/><path id="LINE_44_" d="M268.653,276.282l0.076,-0.377" style="fill:none;stroke:#000;stroke-width:0.71px;"/><path id="LINE_45_" d="M231.416,307.883l0.033,-0.008" style="fill:none;stroke:#000;stroke-width:0.71px;"/><path id="LINE_46_" d="M238.171,305.19l0.106,-0.119" style="fill:none;stroke:#000;stroke-width:0.71px;"/><path id="LINE_47_" d="M268.653,276.282l-0.855,1.413" style="fill:none;stroke:#000;stroke-width:0.71px;"/><path id="LINE_48_" d="M260.592,284.302l0.862,3.085" style="fill:none;stroke:#000;stroke-width:0.71px;"/><path id="LINE_49_" d="M215.101,293.997l0.548,0.792" style="fill:none;stroke:#000;stroke-width:0.71px;"/><path id="LWPOLYLINE_71_" d="M267.644,277.85c0.007,-0.006 0.121,-0.102 0.121,-0.102l0.034,-0.054" style="fill:none;stroke:#000;stroke-width:0.71px;"/><path id="LINE_50_" d="M229.237,307.081l0.004,0.003" style="fill:none;stroke:#000;stroke-width:0.71px;"/><path id="LINE_51_" d="M229.997,307.67l0,0.002" style="fill:none;stroke:#000;stroke-width:0.71px;"/><path id="LWPOLYLINE_72_" d="M291.31,290.065l0.477,-2.197l-0.752,-2.889l-1.857,-3.121l-2.669,-2.858l-3.055,-2.139l-2.957,-1.077l-2.386,0.149l-0.888,0.564" style="fill:none;stroke:#000;stroke-width:0.71px;"/><path id="LINE_52_" d="M261.48,288.19l-0.907,1.508" style="fill:none;stroke:#000;stroke-width:0.71px;"/><path id="LWPOLYLINE_73_" d="M261.48,288.19l0.08,-0.349l-0.106,-0.454" style="fill:none;stroke:#000;stroke-width:0.71px;"/><path id="LWPOLYLINE_74_" d="M214.227,299.726l-0.386,0.276l-0.585,0.248l-0.87,0.159l-0.87,-0.065" style="fill:none;stroke:#000;stroke-width:0.71px;"/><path id="LINE_53_" d="M217.392,296.793l-3.165,2.933" style="fill:none;stroke:#000;stroke-width:0.71px;"/><path id="LINE_54_" d="M217.392,296.793l1.142,0.954" style="fill:none;stroke:#000;stroke-width:0.71px;"/><path id="LWPOLYLINE_75_" d="M217.555,296.512l-0.163,0.281" style="fill:none;stroke:#000;stroke-width:0.71px;"/><path id="LWPOLYLINE_76_" d="M277.223,276.159l-0.847,1.898l0.363,2.703l1.517,3.082l2.423,2.975l2.957,2.408l3.028,1.461l2.624,0.287l1.641,-0.767" style="fill:none;stroke:#000;stroke-width:0.71px;"/><path id="LINE_56_" d="M223.744,316.491l0.004,0.002" style="fill:none;stroke:#000;stroke-width:0.71px;"/><path id="LINE_57_" d="M231.26,316.84l0.079,-0.056" style="fill:none;stroke:#000;stroke-width:0.71px;"/><path id="LINE_58_" d="M260.497,289.792l0.076,-0.094" style="fill:none;stroke:#000;stroke-width:0.71px;"/><path id="LINE_59_" d="M260.354,290.055l0.004,0.004" style="fill:none;stroke:#000;stroke-width:0.71px;"/><path id="LWPOLYLINE_77_" d="M206.983,187.697l1.845,-0.254l1.864,-0.082l1.849,0.085l1.811,0.254l1.735,0.419l1.641,0.576l1.517,0.726l1.368,0.862l0.461,0.352" style="fill:none;stroke:#000;stroke-width:0.71px;"/><path id="LWPOLYLINE_78_" d="M207.21,187.695l5.213,-0.196l4.803,1.279l3.41,2.324" style="fill:none;stroke:#000;stroke-width:0.71px;"/><path id="LINE_60_" d="M206.155,206.186l-0.171,-0.031" style="fill:none;stroke:#000;stroke-width:0.71px;"/><path id="LWPOLYLINE_79_" d="M205.984,206.155l-4.619,-1.614l-3.282,-2.824l-1.422,-3.579l0.651,-3.768l2.612,-3.365l4.159,-2.432l3.127,-0.878" style="fill:none;stroke:#000;stroke-width:0.71px;"/><path id="LINE_61_" d="M208.279,191.5l-5.776,3.883" style="fill:none;stroke:#000;stroke-width:0.71px;"/><path id="LINE_62_" d="M202.503,195.383l1.497,5.388" style="fill:none;stroke:#000;stroke-width:0.71px;"/><path id="LINE_63_" d="M204,200.771l6.132,1.261" style="fill:none;stroke:#000;stroke-width:0.71px;"/><path id="LINE_64_" d="M216.295,195.595l-0.737,-2.607" style="fill:none;stroke:#000;stroke-width:0.71px;"/><path id="LINE_65_" d="M215.558,192.988l-7.279,-1.488" style="fill:none;stroke:#000;stroke-width:0.71px;"/><path id="LWPOLYLINE_80_" d="M195.111,199.296l0,-1.351l0.242,-1.348l0.469,-1.323l0.695,-1.28l0.904,-1.212l1.104,-1.13l1.286,-1.027l1.44,-0.909l1.58,-0.776l1.694,-0.631l1.773,-0.476l0.685,-0.136" style="fill:none;stroke:#000;stroke-width:0.71px;"/><path id="LWPOLYLINE_81_" d="M204.533,208.233l-1.702,-0.501l-1.591,-0.658l-1.452,-0.803l-1.289,-0.935l-1.104,-1.05l-0.904,-1.15l-0.688,-1.23l-0.465,-1.293l-0.227,-1.317" style="fill:none;stroke:#000;stroke-width:0.71px;"/><path id="LINE_66_" d="M215.558,192.988l0.234,3.131" style="fill:none;stroke:#000;stroke-width:0.71px;"/><path id="LINE_67_" d="M208.579,195.3l-5.139,3.458" style="fill:none;stroke:#000;stroke-width:0.71px;"/><path id="LINE_68_" d="M215.267,196.669l-6.688,-1.369" style="fill:none;stroke:#000;stroke-width:0.71px;"/><path id="LINE_69_" d="M208.279,191.5l0.3,3.8" style="fill:none;stroke:#000;stroke-width:0.71px;"/><path id="LWPOLYLINE_82_" d="M218.348,320.977l-2.953,-0.577l-2.366,-1.412l-1.358,-1.894" style="fill:none;stroke:#000;stroke-width:0.71px;"/><path id="LINE_70_" d="M322.561,117.731l-0.023,0.052" style="fill:none;stroke:#000;stroke-width:0.71px;"/><path id="LINE_71_" d="M287.735,117.348l-14.76,12.923" style="fill:none;stroke:#000;stroke-width:0.71px;"/><path id="LINE_72_" d="M272.975,130.271l-0.008,0.004" style="fill:none;stroke:#000;stroke-width:0.71px;"/><path id="LWPOLYLINE_83_" d="M270.755,130.788l0.458,0.067l0.518,-0.03l0.528,-0.137l0.463,-0.228l0.245,-0.185" style="fill:none;stroke:#000;stroke-width:0.71px;"/><path id="LINE_73_" d="M270.74,130.783l0.015,0.005" style="fill:none;stroke:#000;stroke-width:0.71px;"/><path id="LINE_74_" d="M265.541,128.057l5.199,2.726" style="fill:none;stroke:#000;stroke-width:0.71px;"/><path id="LWPOLYLINE_84_" d="M265.424,128.914c0.003,0.009 0.109,0.264 0.109,0.264l0.121,0.271l0.174,0.425l0.276,0.813l0.246,0.792" style="fill:none;stroke:#000;stroke-width:0.71px;"/><path id="LWPOLYLINE_85_" d="M265.541,128.057l-0.057,0.081l0.042,0.358l0.144,0.631l0.246,0.9l0.347,1.165l0.087,0.287" style="fill:none;stroke:#000;stroke-width:0.71px;"/><path id="LWPOLYLINE_86_" d="M287.83,117.588l-0.027,-0.119l-0.068,-0.121" style="fill:none;stroke:#000;stroke-width:0.71px;"/><path id="LWPOLYLINE_87_" d="M291.236,114.115l0.284,-0.346l0.06,-0.322l-0.008,-0.038" style="fill:none;stroke:#000;stroke-width:0.71px;"/><path id="LWPOLYLINE_88_" d="M287.871,117.604l0.107,0.12l0.037,0.101l-0.037,0.085" style="fill:none;stroke:#000;stroke-width:0.71px;"/><path id="LINE_75_" d="M300.363,291.55l0.091,0.95" style="fill:none;stroke:#000;stroke-width:0.71px;"/><path id="LWPOLYLINE_89_" d="M298.673,293.022l-1.69,3.719l-3.486,2.974c-3.933,2.202 -9.293,3.256 -13.727,2.069" style="fill:none;stroke:#000;stroke-width:0.71px;"/><path id="LWPOLYLINE_90_" d="M300.806,301.982l-0.069,1.393l-0.298,1.38l-0.529,1.345l-0.749,1.291l-0.961,1.213l-1.153,1.117l-1.327,1.002l-1.482,0.871l-1.614,0.727l-1.717,0.568l-1.796,0.403l-1.841,0.231l-1.861,0.053l-1.848,-0.122l-1.804,-0.301l-1.735,-0.469l-1.633,-0.632l-1.509,-0.784l-1.361,-0.926l-1.187,-1.047l-0.999,-1.156l-0.793,-1.244l-0.572,-1.312l-0.347,-1.362l-0.102,-0.937" style="fill:none;stroke:#000;stroke-width:0.71px;"/><path id="LWPOLYLINE_91_" d="M300.454,292.5l-0.064,1.395l-0.303,1.383l-0.533,1.347l-0.752,1.292l-0.964,1.214l-1.158,1.119l-1.334,1.004l-1.49,0.873l-1.622,0.728l-1.724,0.569l-1.803,0.405l-1.853,0.23c-2.457,0.286 -4.784,0.32 -6.878,-0.097" style="fill:none;stroke:#000;stroke-width:0.71px;"/><path id="LINE_76_" d="M296.423,349.561l-61.889,-35.733" style="fill:none;stroke:#000;stroke-width:0.71px;"/><path id="LINE_77_" d="M296.423,349.561l0.688,17.236" style="fill:none;stroke:#000;stroke-width:0.71px;"/><path id="LINE_78_" d="M297.111,366.797l-104.22,-60.629" style="fill:none;stroke:#000;stroke-width:0.71px;"/><path id="LINE_79_" d="M351.083,207.188l57.152,30.462" style="fill:none;stroke:#000;stroke-width:0.71px;"/><path id="LINE_80_" d="M408.235,237.65l-111.812,111.911" style="fill:none;stroke:#000;stroke-width:0.71px;"/><path id="LINE_81_" d="M408.235,237.65l-0.291,17.555" style="fill:none;stroke:#000;stroke-width:0.71px;"/><path id="LINE_82_" d="M407.944,255.205l-110.833,111.592" style="fill:none;stroke:#000;stroke-width:0.71px;"/><path id="LWPOLYLINE_92_" d="M220.265,191.45l0.106,-0.112l1.172,-1.221l1.093,-1.144l0.381,-0.399" style="fill:none;stroke:#000;stroke-width:0.71px;"/><path id="LWPOLYLINE_93_" d="M223.017,188.574l0.145,-0.151" style="fill:none;stroke:#000;stroke-width:0.71px;"/><path id="LWPOLYLINE_94_" d="M234.081,177.018l2.506,-2.053l3.01,-1.465l3.478,-0.851l3.887,-0.217l4.238,0.425l4.519,1.063l4.725,1.686l4.859,2.285l4.908,2.847l4.873,3.367l4.756,3.828l4.564,4.226l4.287,4.551l3.944,4.804l3.535,4.972l3.059,5.055l1.864,3.602" style="fill:none;stroke:#000;stroke-width:0.71px;"/><path id="LWPOLYLINE_95_" d="M301.093,215.143l1.232,2.72l1.063,2.69l0.892,2.645l0.719,2.588l0.166,0.707" style="fill:none;stroke:#000;stroke-width:0.71px;"/><path id="LINE_83_" d="M305.165,226.493l0.189,0.865" style="fill:none;stroke:#000;stroke-width:0.71px;"/><path id="LWPOLYLINE_96_" d="M313.415,237.957l2.223,1.514l2.166,1.717l2.076,1.895l1.954,2.038l1.797,2.147l1.611,2.224l1.398,2.263l1.165,2.266l0.911,2.229l0.643,2.159l0.321,1.703" style="fill:none;stroke:#000;stroke-width:0.71px;"/><path id="LINE_84_" d="M329.68,260.112l0.129,1.509" style="fill:none;stroke:#000;stroke-width:0.71px;"/><path id="LWPOLYLINE_97_" d="M329.809,261.621l-1.225,5.067l-1.142,1.321" style="fill:none;stroke:#000;stroke-width:0.71px;"/><path id="LWPOLYLINE_98_" d="M313.415,237.957l-1.471,-1.033l-1.414,-1.201l-1.312,-1.34l-1.179,-1.44l-1.002,-1.497l-0.81,-1.514l-0.529,-1.31l-0.344,-1.264" style="fill:none;stroke:#000;stroke-width:0.71px;"/><path id="LWPOLYLINE_99_" d="M223.162,188.423l0.056,-0.059" style="fill:none;stroke:#000;stroke-width:0.71px;"/><path id="LINE_85_" d="M193.001,224.977l-0.049,-0.454" style="fill:none;stroke:#000;stroke-width:0.71px;"/><path id="LINE_86_" d="M192.952,224.523l-0.03,-0.507" style="fill:none;stroke:#000;stroke-width:0.71px;"/><path id="LINE_87_" d="M192.43,210.661l0.008,0.192" style="fill:none;stroke:#000;stroke-width:0.71px;"/><path id="LINE_88_" d="M305.343,227.2l-0.152,-0.698" style="fill:none;stroke:#000;stroke-width:0.71px;"/><path id="LWPOLYLINE_100_" d="M305.191,226.502l-0.653,-2.567l-0.836,-2.629l-1.006,-2.678l-1.176,-2.714l-0.359,-0.766" style="fill:none;stroke:#000;stroke-width:0.71px;"/><path id="LWPOLYLINE_101_" d="M301.161,215.148l-2.681,-5.065l-3.187,-5.043l-3.645,-4.936l-4.038,-4.747l-4.367,-4.477l-4.623,-4.13l-4.794,-3.715l-4.889,-3.237l-4.905,-2.709l-4.832,-2.133l-4.68,-1.528l-4.454,-0.898l-4.151,-0.259l-3.789,0.382l-3.361,1.012l-2.889,1.619l-0.805,0.635" style="fill:none;stroke:#000;stroke-width:0.71px;"/><path id="LWPOLYLINE_102_" d="M313.407,237.805l-1.471,-1.032l-1.414,-1.2l-1.312,-1.341l-1.175,-1.438l-1.006,-1.5l-0.809,-1.516l-0.53,-1.311l-0.347,-1.267" style="fill:none;stroke:#000;stroke-width:0.71px;"/><path id="LWPOLYLINE_103_" d="M313.407,237.805l2.223,1.516l2.167,1.719l2.079,1.892l1.951,2.038l1.796,2.149l1.61,2.224l1.4,2.262l1.164,2.267l0.912,2.229l0.643,2.158l0.343,1.861" style="fill:none;stroke:#000;stroke-width:0.71px;"/><path id="LINE_89_" d="M329.695,260.12l0.11,1.547" style="fill:none;stroke:#000;stroke-width:0.71px;"/><path id="LINE_90_" d="M351.231,194.479l0.068,-0.071" style="fill:none;stroke:#000;stroke-width:0.71px;"/><path id="LINE_91_" d="M235.071,175.919l-1.032,0.974" style="fill:none;stroke:#000;stroke-width:0.71px;"/><path id="LINE_92_" d="M234.039,176.893l-1.116,1.337" style="fill:none;stroke:#000;stroke-width:0.71px;"/><path id="LINE_93_" d="M326.251,217.515l-2.442,5.554" style="fill:none;stroke:#000;stroke-width:0.71px;"/><path id="LWPOLYLINE_104_" d="M326.251,217.515l-1.626,1.685" style="fill:none;stroke:#000;stroke-width:0.71px;"/><path id="LWPOLYLINE_105_" d="M297.107,151.055l4.201,0.797l4.171,1.021l4.109,1.237l4.019,1.444l3.902,1.638l0.704,0.326" style="fill:none;stroke:#000;stroke-width:0.71px;"/><path id="LINE_94_" d="M272.044,150.183l2.582,0.102" style="fill:none;stroke:#000;stroke-width:0.71px;"/><path id="LINE_95_" d="M256.914,163.467l2.358,-0.497" style="fill:none;stroke:#000;stroke-width:0.71px;"/><path id="LINE_96_" d="M259.272,162.97l1.804,-0.312" style="fill:none;stroke:#000;stroke-width:0.71px;"/><path id="LWPOLYLINE_106_" d="M261.076,162.658l5.928,-0.632l6.202,-0.098l6.373,0.443l6.447,0.975l6.412,1.494l6.273,1.989l6.03,2.452l4.571,2.258" style="fill:none;stroke:#000;stroke-width:0.71px;"/><path id="LWPOLYLINE_107_" d="M309.312,171.539l9.978,-8.953l1.463,-1.31" style="fill:none;stroke:#000;stroke-width:0.71px;"/><path id="LWPOLYLINE_108_" d="M259.336,164.193l4.307,0.802l4.522,1.399l4.677,1.981l4.749,2.533l4.744,3.044l4.67,3.508l4.515,3.917l3.267,3.195" style="fill:none;stroke:#000;stroke-width:0.71px;"/><path id="LWPOLYLINE_109_" d="M294.787,184.572l9.674,-8.681l1.392,-1.25" style="fill:none;stroke:#000;stroke-width:0.71px;"/><path id="LWPOLYLINE_110_" d="M259.272,162.962l4.394,0.878l4.612,1.476l4.757,2.052l4.824,2.601l4.817,3.111l4.741,3.573l4.583,3.98l2.737,2.652" style="fill:none;stroke:#000;stroke-width:0.71px;"/><path id="LWPOLYLINE_111_" d="M300.862,168.224l-5.83,-2.063l-5.986,-1.654l-6.067,-1.223l-6.069,-0.775l-5.985,-0.32l-5.822,0.141l-5.585,0.594l-0.246,0.038" style="fill:none;stroke:#000;stroke-width:0.71px;"/><path id="LINE_97_" d="M305.796,172.842l-4.934,-4.618" style="fill:none;stroke:#000;stroke-width:0.71px;"/><path id="LINE_98_" d="M294.737,183.285l11.059,-10.443" style="fill:none;stroke:#000;stroke-width:0.71px;"/><path id="LINE_99_" d="M294.737,183.285l0.05,1.287" style="fill:none;stroke:#000;stroke-width:0.71px;"/><path id="LINE_100_" d="M259.272,162.962l0.064,1.231" style="fill:none;stroke:#000;stroke-width:0.71px;"/><path id="LWPOLYLINE_112_" d="M256.841,162.151l6.005,-1.059l6.366,-0.491l6.625,0.086l6.779,0.661l6.812,1.229l6.734,1.777l6.545,2.294l6.243,2.776l0.302,0.151" style="fill:none;stroke:#000;stroke-width:0.71px;"/><path id="LINE_101_" d="M268.418,151.435l-11.577,10.716" style="fill:none;stroke:#000;stroke-width:0.71px;"/><path id="LWPOLYLINE_113_" d="M320.689,158.773l-6.197,-2.79l-6.507,-2.312l-6.703,-1.795l-6.795,-1.245l-6.763,-0.679l-6.625,-0.102l-6.37,0.475l-6.02,1.042l-0.291,0.068" style="fill:none;stroke:#000;stroke-width:0.71px;"/><path id="LINE_102_" d="M309.252,169.575l11.437,-10.802" style="fill:none;stroke:#000;stroke-width:0.71px;"/><path id="LINE_103_" d="M309.252,169.575l0.06,1.964" style="fill:none;stroke:#000;stroke-width:0.71px;"/><path id="LINE_104_" d="M256.841,162.151l0.073,1.316" style="fill:none;stroke:#000;stroke-width:0.71px;"/><path id="LINE_105_" d="M305.796,172.842l0.057,1.799" style="fill:none;stroke:#000;stroke-width:0.71px;"/><path id="LWPOLYLINE_114_" d="M276.634,148.653l5.668,-0.444l5.876,0.016l6.007,0.474l6.053,0.928l6.023,1.371l5.913,1.796l5.721,2.196l0.254,0.111" style="fill:none;stroke:#000;stroke-width:0.71px;"/><path id="LINE_106_" d="M318.149,155.101l0.064,2.417" style="fill:none;stroke:#000;stroke-width:0.71px;"/><path id="LINE_107_" d="M276.634,148.653l0.064,1.46" style="fill:none;stroke:#000;stroke-width:0.71px;"/><path id="LINE_108_" d="M282.922,138.011l-10.972,10.157" style="fill:none;stroke:#000;stroke-width:0.71px;"/><path id="LWPOLYLINE_115_" d="M318.149,155.101l-4.575,-3.895l-4.726,-3.477l-4.81,-3.005l-4.809,-2.491l-4.742,-1.939l-4.596,-1.357l-4.383,-0.76l-2.586,-0.166" style="fill:none;stroke:#000;stroke-width:0.71px;"/><path id="LINE_109_" d="M271.95,148.168l4.684,0.485" style="fill:none;stroke:#000;stroke-width:0.71px;"/><path id="LINE_110_" d="M320.689,158.773l0.064,2.503" style="fill:none;stroke:#000;stroke-width:0.71px;"/><path id="LWPOLYLINE_116_" d="M324.625,219.2l-0.896,1.098l-0.567,1.011" style="fill:none;stroke:#000;stroke-width:0.71px;"/><path id="LINE_111_" d="M271.95,148.168l0.094,2.015" style="fill:none;stroke:#000;stroke-width:0.71px;"/><path id="LINE_112_" d="M192.922,224.016l0.03,0.507" style="fill:none;stroke:#000;stroke-width:0.71px;"/><path id="LINE_113_" d="M192.952,224.523l0.064,0.555" style="fill:none;stroke:#000;stroke-width:0.71px;"/><path id="LINE_114_" d="M333.82,221.383l-6.027,5.845" style="fill:none;stroke:#000;stroke-width:0.71px;"/><path id="LINE_115_" d="M334.364,220.175l-0.026,0.285" style="fill:none;stroke:#000;stroke-width:0.71px;"/><path id="LWPOLYLINE_117_" d="M334.338,220.46l-0.344,0.734l-0.174,0.189" style="fill:none;stroke:#000;stroke-width:0.71px;"/><path id="LWPOLYLINE_118_" d="M335.4,211.114l1.913,-0.134l1.879,-0.297l1.82,-0.459l1.735,-0.611l1.622,-0.756l1.489,-0.891l1.331,-1.009l0.616,-0.563" style="fill:none;stroke:#000;stroke-width:0.71px;"/><path id="LWPOLYLINE_119_" d="M347.805,206.394l2.723,-4.15l0.416,-1.818" style="fill:none;stroke:#000;stroke-width:0.71px;"/><path id="LINE_116_" d="M350.944,200.426l0.053,-1.046" style="fill:none;stroke:#000;stroke-width:0.71px;"/><path id="LWPOLYLINE_120_" d="M340.361,207.792l-0.125,0.75l-0.382,0.679l-0.326,0.346" style="fill:none;stroke:#000;stroke-width:0.71px;"/><path id="LINE_117_" d="M340.331,205.932l0.03,1.86" style="fill:none;stroke:#000;stroke-width:0.71px;"/><path id="LINE_118_" d="M252.784,160.146l-1.005,1.565" style="fill:none;stroke:#000;stroke-width:0.71px;"/><path id="LINE_119_" d="M240.172,171.581l-3.146,-1.697" style="fill:none;stroke:#000;stroke-width:0.71px;"/><path id="LINE_120_" d="M252.784,160.146l1.384,-2.9" style="fill:none;stroke:#000;stroke-width:0.71px;"/><path id="LWPOLYLINE_121_" d="M235.691,169.354l0.23,0.015l0.557,0.234l0.548,0.281" style="fill:none;stroke:#000;stroke-width:0.71px;"/><path id="LWPOLYLINE_122_" d="M254.168,157.246l0.451,-1.579l0.4,-1.506l0.393,-1.435l0.012,-0.032" style="fill:none;stroke:#000;stroke-width:0.71px;"/><path id="LWPOLYLINE_123_" d="M226.995,184.27l-0.064,0.1" style="fill:none;stroke:#000;stroke-width:0.71px;"/><path id="LINE_121_" d="M305.116,301.863l-0.428,-2.65" style="fill:none;stroke:#000;stroke-width:0.71px;"/><path id="LWPOLYLINE_124_" d="M267.224,303.547l0.245,1.786l0.549,1.744l0.839,1.671l1.116,1.575l1.375,1.453l1.619,1.305l1.83,1.137l2.012,0.951l2.166,0.749l2.283,0.533l2.36,0.31l2.404,0.081l2.404,-0.147l2.371,-0.376l2.295,-0.598l2.182,-0.81l2.035,-1.008l1.852,-1.19l1.645,-1.353l1.406,-1.491l1.149,-1.611l0.87,-1.697l0.582,-1.763l0.28,-1.796l0.023,-1.139" style="fill:none;stroke:#000;stroke-width:0.71px;"/><path id="LWPOLYLINE_125_" d="M268.362,324.69l0.219,1.654l0.472,1.619l0.727,1.564l0.96,1.484l1.191,1.386l1.402,1.267l1.593,1.128l0.582,0.35" style="fill:none;stroke:#000;stroke-width:0.71px;"/><path id="LINE_122_" d="M268.15,298.518l-0.926,5.029" style="fill:none;stroke:#000;stroke-width:0.71px;"/><path id="LWPOLYLINE_126_" d="M304.688,299.213l-0.518,-1.477l-1.236,-2.474l-1.746,-2.421l-0.829,-0.883" style="fill:none;stroke:#000;stroke-width:0.71px;"/><path id="LWPOLYLINE_127_" d="M275.508,335.142l1.962,0.985l2.117,0.787l2.239,0.575l2.324,0.352l2.375,0.126l2.382,-0.103l2.352,-0.33l2.287,-0.554l2.182,-0.768l2.042,-0.967l1.871,-1.155l1.664,-1.316l1.436,-1.466l1.184,-1.584l0.915,-1.679l0.627,-1.747l0.333,-1.786l0.049,-1.469" style="fill:none;stroke:#000;stroke-width:0.71px;"/><path id="LWPOLYLINE_128_" d="M315.517,278.377l5.175,-4.345l0.7,-0.764" style="fill:none;stroke:#000;stroke-width:0.71px;"/><path id="LWPOLYLINE_129_" d="M308.828,287.1l-0.098,0.02" style="fill:none;stroke:#000;stroke-width:0.71px;"/><path id="LWPOLYLINE_130_" d="M334.364,220.175l-0.196,0.76l-0.348,0.448" style="fill:none;stroke:#000;stroke-width:0.71px;"/><path id="LWPOLYLINE_131_" d="M306.81,289.743l0.003,0.042" style="fill:none;stroke:#000;stroke-width:0.71px;"/><path id="LINE_123_" d="M333.82,221.383l-6.027,5.845" style="fill:none;stroke:#000;stroke-width:0.71px;"/><path id="LWPOLYLINE_132_" d="M351.401,236.437l-0.109,1.442l-0.359,1.423l-0.602,1.384l-0.831,1.32l-1.055,1.234l-1.26,1.13l-1.443,1.008l-1.604,0.868l-1.739,0.714l-1.13,0.359" style="fill:none;stroke:#000;stroke-width:0.71px;"/><path id="LINE_124_" d="M351,199.386l-0.053,1.041" style="fill:none;stroke:#000;stroke-width:0.71px;"/><path id="LWPOLYLINE_133_" d="M350.947,200.427l-0.295,1.435l-0.54,1.403l-0.787,1.346l-1.013,1.266l-1.225,1.166l-1.418,1.052l-1.587,0.913l-1.736,0.764l-1.849,0.601l-1.939,0.429l-1.993,0.249l-1.165,0.061" style="fill:none;stroke:#000;stroke-width:0.71px;"/><path id="LINE_125_" d="M350.997,199.172l0.003,0.214" style="fill:none;stroke:#000;stroke-width:0.71px;"/><path id="LWPOLYLINE_134_" d="M339.787,222.482l-0.238,-0.854l-0.5,-0.493l-0.241,-0.134" style="fill:none;stroke:#000;stroke-width:0.71px;"/><path id="LINE_126_" d="M340.115,242.523l-0.328,-20.041" style="fill:none;stroke:#000;stroke-width:0.71px;"/><path id="LINE_127_" d="M102.224,436.532l0.18,2.008" style="fill:none;stroke:#000;stroke-width:1.42px;"/><path id="LINE_128_" d="M119.978,456.65l1.999,0.238" style="fill:none;stroke:#000;stroke-width:1.42px;"/><path id="LINE_129_" d="M113.364,423.272l-10.168,9.823" style="fill:none;stroke:#000;stroke-width:1.42px;"/><path id="LINE_130_" d="M125.437,456.015l10.1,-9.902" style="fill:none;stroke:#000;stroke-width:1.42px;"/><path id="LINE_131_" d="M148.593,398.996l-26.251,25.444" style="fill:none;stroke:#000;stroke-width:1.42px;"/><path id="LINE_132_" d="M134.622,437.087l26.155,-25.554" style="fill:none;stroke:#000;stroke-width:1.42px;"/><path id="LINE_133_" d="M160.777,411.533l44.232,-43.227" style="fill:none;stroke:#000;stroke-width:1.42px;"/><path id="LINE_134_" d="M192.994,355.961l-44.401,43.035" style="fill:none;stroke:#000;stroke-width:1.42px;"/><path id="LINE_135_" d="M243.812,292.488l3.917,-6.653" style="fill:none;stroke:#000;stroke-width:0.71px;"/><path id="LINE_136_" d="M220.945,270.5l-3.761,6.738" style="fill:none;stroke:#000;stroke-width:0.71px;"/><path id="LINE_137_" d="M184.222,267.667l-119.4,112" style="fill:none;stroke:#000;stroke-width:0.71px;"/><path id="LINE_138_" d="M88.978,405.215l120.353,-114.715" style="fill:none;stroke:#000;stroke-width:0.71px;"/><path id="LWPOLYLINE_137_" d="M207.815,302.182l0.128,0.008" style="fill:none;stroke:#000;stroke-width:0.71px;"/><path id="LWPOLYLINE_138_" d="M176.958,259.488l-0.709,0.813l-0.682,1.051l-0.533,1.169l-0.385,1.281l-0.235,1.397l-0.076,1.502l0.08,1.597l0.238,1.675l0.393,1.739l0.545,1.788l0.62,1.67" style="fill:none;stroke:#000;stroke-width:0.71px;"/><path id="LWPOLYLINE_139_" d="M199.546,299.839l0.438,0.203l1.774,0.742l1.743,0.591l1.705,0.44l1.66,0.281l0.472,0.051" style="fill:none;stroke:#000;stroke-width:0.71px;"/><path id="LWPOLYLINE_140_" d="M197.417,215.181l-0.729,0.763l-0.98,1.252l-0.835,1.378l-0.692,1.499l-0.545,1.616l-0.397,1.728l-0.241,1.835l-0.091,1.935l0.061,2.021l0.219,2.1l0.366,2.166l0.519,2.223l0.661,2.273l0.802,2.307l0.124,0.329" style="fill:none;stroke:#000;stroke-width:0.71px;"/><path id="LINE_139_" d="M204.003,208.836l-6.589,6.346" style="fill:none;stroke:#000;stroke-width:0.71px;"/><path id="LINE_140_" d="M204.283,231.867l-27.358,27.654" style="fill:none;stroke:#000;stroke-width:0.71px;"/><path id="LWPOLYLINE_141_" d="M271.534,257.683l-0.023,-0.109l-0.499,-2.275l-0.655,-2.327l-0.8,-2.374l-0.953,-2.407l-1.089,-2.433l-1.229,-2.446l-1.357,-2.452l-1.483,-2.446l-1.602,-2.43l-1.713,-2.402l-1.819,-2.367l-1.909,-2.319l-2.004,-2.266l-2.079,-2.196l-2.149,-2.123l-2.211,-2.036l-2.261,-1.943l-2.306,-1.841l-2.333,-1.732l-2.36,-1.613l-2.37,-1.489l-2.374,-1.36l-2.363,-1.221l-2.352,-1.079l-2.322,-0.933l-2.287,-0.778l-2.246,-0.624l-2.189,-0.465l-2.129,-0.301l-2.056,-0.136l-1.974,0.032l-1.879,0.199l-1.777,0.365l-1.664,0.529l-1.542,0.686l-1.407,0.836l-0.51,0.361" style="fill:none;stroke:#000;stroke-width:0.71px;"/><path id="LWPOLYLINE_142_" d="M205.259,207.768l-0.177,0.135" style="fill:none;stroke:#000;stroke-width:0.71px;"/><path id="LWPOLYLINE_143_" d="M205.082,207.903l-0.591,0.485l-0.533,0.491" style="fill:none;stroke:#000;stroke-width:0.71px;"/><path id="LWPOLYLINE_144_" d="M184.21,267.676l0.454,-0.357l0.666,-0.339l0.85,-0.234l0.957,-0.087l1.051,0.057l1.145,0.198l1.23,0.344l1.292,0.488l1.347,0.629l1.383,0.768l1.4,0.896l1.398,1.017l1.384,1.123l1.346,1.222l1.293,1.298l1.229,1.366l1.141,1.414l1.052,1.445l0.938,1.457l0.82,1.452l0.688,1.427l0.556,1.385l0.415,1.32l0.273,1.244l0.136,1.147l0.004,0.883" style="fill:none;stroke:#000;stroke-width:0.71px;"/><path id="LWPOLYLINE_145_" d="M231.411,307.885l1.343,-0.364l1.72,-0.456l0.972,-0.318l0.993,-0.417l0.938,-0.526l0.794,-0.614" style="fill:none;stroke:#000;stroke-width:0.71px;"/><path id="LINE_141_" d="M215.649,294.789l13.592,12.295" style="fill:none;stroke:#000;stroke-width:0.71px;"/><path id="LWPOLYLINE_146_" d="M238.125,305.222l29.519,-27.37" style="fill:none;stroke:#000;stroke-width:0.71px;"/><path id="LWPOLYLINE_147_" d="M229.997,307.672l0.628,0.253l0.677,-0.01l0.147,-0.04" style="fill:none;stroke:#000;stroke-width:0.71px;"/><path id="LWPOLYLINE_148_" d="M229.237,307.081l0.76,0.589" style="fill:none;stroke:#000;stroke-width:0.71px;"/><path id="LINE_142_" d="M209.066,290.262l5.638,5.102" style="fill:none;stroke:#000;stroke-width:0.71px;"/><path id="LWPOLYLINE_150_" d="M214.704,295.364l0.245,0.182l0.416,0.171l0.284,0.039l0.321,-0.024l0.34,-0.112l0.155,-0.086" style="fill:none;stroke:#000;stroke-width:0.71px;"/><path id="LWPOLYLINE_151_" d="M208.658,289.362l0.019,0.168l0.075,0.277l0.136,0.25l0.178,0.207" style="fill:none;stroke:#000;stroke-width:0.71px;"/><path id="LWPOLYLINE_153_" d="M280.997,269.665l-1.327,-0.846l-1.398,-1.06l-1.449,-1.299l-1.41,-1.505l-1.323,-1.699l-1.142,-1.826l-0.881,-1.892l-0.533,-1.855" style="fill:none;stroke:#000;stroke-width:0.71px;"/><path id="LINE_144_" d="M207.815,302.061l2.075,1.881" style="fill:none;stroke:#000;stroke-width:0.71px;"/><path id="LINE_145_" d="M216.862,310.256l0.091,0.08" style="fill:none;stroke:#000;stroke-width:0.71px;"/><path id="LINE_146_" d="M216.953,310.336l6.795,6.157" style="fill:none;stroke:#000;stroke-width:0.71px;"/><path id="LWPOLYLINE_154_" d="M223.744,316.491l1.773,1.121l2.046,0.474l2.018,-0.266l1.679,-0.98" style="fill:none;stroke:#000;stroke-width:0.71px;"/><path id="LINE_147_" d="M231.339,316.784l29.158,-26.992" style="fill:none;stroke:#000;stroke-width:0.71px;"/><path id="LWPOLYLINE_156_" d="M260.286,289.987c0.019,0.014 0.038,0.035 0.038,0.035l0.034,0.037" style="fill:none;stroke:#000;stroke-width:0.71px;"/><path id="LINE_148_" d="M195.111,199.296l0.847,9.882" style="fill:none;stroke:#000;stroke-width:0.71px;"/><path id="LWPOLYLINE_157_" d="M301.226,124.7l-0.318,0.287l-0.364,0.354" style="fill:none;stroke:#000;stroke-width:0.71px;"/><path id="LINE_149_" d="M314.991,112.556l-13.765,12.144" style="fill:none;stroke:#000;stroke-width:0.71px;"/><path id="LINE_150_" d="M322.334,114.994l-3.796,-3.242" style="fill:none;stroke:#000;stroke-width:0.71px;"/><path id="LWPOLYLINE_158_" d="M322.561,117.731l0.371,-1.327l-0.125,-0.737l-0.186,-0.357l-0.287,-0.318" style="fill:none;stroke:#000;stroke-width:0.71px;"/><path id="LWPOLYLINE_159_" d="M318.526,111.743l-0.355,-0.233l-0.48,-0.155l-0.446,-0.022l-0.412,0.07l-0.397,0.145l-0.454,0.245l-0.65,0.473l-0.341,0.29" style="fill:none;stroke:#000;stroke-width:0.71px;"/><path id="LINE_151_" d="M317.574,127.725l4.964,-9.942" style="fill:none;stroke:#000;stroke-width:0.71px;"/><path id="LINE_152_" d="M259.942,112.635l5.482,16.279" style="fill:none;stroke:#000;stroke-width:0.71px;"/><path id="LWPOLYLINE_160_" d="M261.828,105.72l-1.161,1.365l-0.759,1.798l-0.254,1.951l0.288,1.801" style="fill:none;stroke:#000;stroke-width:0.71px;"/><path id="LINE_153_" d="M316.719,128.677l0.53,-0.508" style="fill:none;stroke:#000;stroke-width:0.71px;"/><path id="LINE_154_" d="M276.237,93.901l-14.409,11.819" style="fill:none;stroke:#000;stroke-width:0.71px;"/><path id="LWPOLYLINE_161_" d="M286.007,96.436l-0.196,-0.504l-0.462,-0.809l-0.525,-0.601l-0.613,-0.455l-0.752,-0.327l-0.336,-0.079" style="fill:none;stroke:#000;stroke-width:0.71px;"/><path id="LINE_155_" d="M283.088,93.655l-3.834,-0.643" style="fill:none;stroke:#000;stroke-width:0.71px;"/><path id="LINE_156_" d="M317.249,128.169l0.325,-0.444" style="fill:none;stroke:#000;stroke-width:0.71px;"/><path id="LINE_157_" d="M291.568,113.401l-5.561,-16.965" style="fill:none;stroke:#000;stroke-width:0.71px;"/><path id="LINE_158_" d="M265.394,128.821l2.62,14.305" style="fill:none;stroke:#000;stroke-width:0.71px;"/><path id="LWPOLYLINE_162_" d="M279.258,93.012l-0.786,-0.039l-0.786,0.143l-0.757,0.316l-0.692,0.469" style="fill:none;stroke:#000;stroke-width:0.71px;"/><path id="LWPOLYLINE_163_" d="M286.015,122.921l-0.012,-0.692l0.11,-0.75l0.197,-0.742l0.26,-0.686l0.318,-0.654l0.397,-0.66l0.468,-0.621l0.205,-0.225" style="fill:none;stroke:#000;stroke-width:0.71px;"/><path id="LWPOLYLINE_164_" d="M287.992,117.896l0.277,-0.278" style="fill:none;stroke:#000;stroke-width:0.71px;"/><path id="LWPOLYLINE_165_" d="M287.051,131.713l-1.036,-8.792" style="fill:none;stroke:#000;stroke-width:0.71px;"/><path id="LINE_159_" d="M288.269,117.618l2.838,-2.485" style="fill:none;stroke:#000;stroke-width:0.71px;"/><path id="LWPOLYLINE_166_" d="M291.107,115.133l0.386,-0.506l0.163,-0.615l-0.072,-0.574" style="fill:none;stroke:#000;stroke-width:0.71px;"/><path id="LINE_160_" d="M300.806,301.982l-0.352,-9.482" style="fill:none;stroke:#000;stroke-width:0.71px;"/><path id="LINE_161_" d="M271.405,301.045l0.114,2.239" style="fill:none;stroke:#000;stroke-width:0.71px;"/><path id="LWPOLYLINE_167_" d="M206.091,206.251l-0.911,1.044l-0.95,1.348" style="fill:none;stroke:#000;stroke-width:0.71px;"/><path id="LINE_162_" d="M220.261,191.451l-14.197,14.829" style="fill:none;stroke:#000;stroke-width:0.71px;"/><path id="LINE_163_" d="M234.081,177.022l-10.874,11.353" style="fill:none;stroke:#000;stroke-width:0.71px;"/><path id="LWPOLYLINE_168_" d="M294.941,295.84l0.987,-0.533l0.813,-0.605" style="fill:none;stroke:#000;stroke-width:0.71px;"/><path id="LINE_164_" d="M296.782,294.666l30.66,-26.657" style="fill:none;stroke:#000;stroke-width:0.71px;"/><path id="LINE_165_" d="M192.438,210.853l0.484,13.163" style="fill:none;stroke:#000;stroke-width:0.71px;"/><path id="LWPOLYLINE_169_" d="M195.395,202.651l-0.923,1.245l-0.783,1.359l-0.601,1.407l-0.408,1.439l-0.216,1.45l-0.034,1.083" style="fill:none;stroke:#000;stroke-width:0.71px;"/><path id="LINE_166_" d="M323.843,223.256l27.388,-28.777" style="fill:none;stroke:#000;stroke-width:0.71px;"/><path id="LINE_167_" d="M289.731,129.434l-54.66,46.485" style="fill:none;stroke:#000;stroke-width:0.71px;"/><path id="LINE_168_" d="M328.663,266.56l10.39,-11.558" style="fill:none;stroke:#000;stroke-width:0.71px;"/><path id="LWPOLYLINE_170_" d="M339.087,254.962l0.341,-0.411l0.68,-1.03l0.529,-1.135l0.382,-1.234l0.223,-1.334l0.068,-1.426l-0.098,-1.515l-0.265,-1.582l-0.431,-1.631l-0.586,-1.66l-0.733,-1.668l-0.87,-1.664l-1.002,-1.642l-1.116,-1.611l-1.225,-1.565l-1.315,-1.507l-1.402,-1.436l-1.476,-1.356l-1.534,-1.261l-1.584,-1.155l-0.92,-0.606" style="fill:none;stroke:#000;stroke-width:0.71px;"/><path id="LWPOLYLINE_171_" d="M326.758,226.534l-1.536,-1.249l-1.213,-1.617l-0.734,-1.807l-0.15,-0.873l-0.012,-0.775" style="fill:none;stroke:#000;stroke-width:0.71px;"/><path id="LWPOLYLINE_172_" d="M351.311,194.398l0.09,-0.102" style="fill:none;stroke:#000;stroke-width:0.71px;"/><path id="LWPOLYLINE_173_" d="M351.401,194.296l0.371,-0.414l1.047,-1.364l0.911,-1.486l0.768,-1.607l0.623,-1.72l0.474,-1.834l0.321,-1.936l0.166,-2.036l0.004,-2.123l-0.155,-2.2l-0.314,-2.267l-0.469,-2.323l-0.627,-2.367l-0.775,-2.399l-0.927,-2.42l-1.063,-2.434l-1.202,-2.436l-1.334,-2.428l-1.46,-2.409l-1.577,-2.382l-1.689,-2.347l-1.792,-2.296l-1.888,-2.241l-1.977,-2.173l-2.06,-2.099l-2.129,-2.013l-2.192,-1.921l-2.243,-1.819l-2.287,-1.71l-2.325,-1.594l-2.349,-1.469l-2.362,-1.341l-2.368,-1.203l-2.366,-1.061l-2.355,-0.915l-2.333,-0.763l-2.3,-0.606l-2.264,-0.446l-2.208,-0.281l-2.152,-0.116l-2.075,0.055l-1.992,0.221l-1.895,0.392l-1.792,0.552l-1.671,0.71l-1.551,0.861l-0.744,0.498" style="fill:none;stroke:#000;stroke-width:0.71px;"/><path id="LWPOLYLINE_174_" d="M290.824,128.586l-0.216,0.155" style="fill:none;stroke:#000;stroke-width:0.71px;"/><path id="LWPOLYLINE_175_" d="M290.608,128.741l-0.458,0.351l-0.381,0.312" style="fill:none;stroke:#000;stroke-width:0.71px;"/><path id="LINE_169_" d="M192.952,224.523l0.057,0.639" style="fill:none;stroke:#000;stroke-width:0.71px;"/><path id="LWPOLYLINE_176_" d="M194.366,236.722l0.042,0.223l0.337,1.832l0.295,1.69l0.109,0.693" style="fill:none;stroke:#000;stroke-width:0.71px;"/><path id="LWPOLYLINE_177_" d="M334.364,220.176l-0.003,-0.103" style="fill:none;stroke:#000;stroke-width:0.71px;"/><path id="LWPOLYLINE_178_" d="M334.361,220.073l-0.038,-1.061l-0.166,-2.157l-0.295,-2.059l-0.359,-1.688" style="fill:none;stroke:#000;stroke-width:0.71px;"/><path id="LINE_170_" d="M350.997,199.38l-0.05,-4.601" style="fill:none;stroke:#000;stroke-width:0.71px;"/><path id="LWPOLYLINE_179_" d="M226.999,184.283l-0.964,0.595l-1.535,1.074l-1.524,1.217l-1.504,1.352l-1.411,1.399" style="fill:none;stroke:#000;stroke-width:0.71px;"/><path id="LINE_171_" d="M235.691,169.354l-8.753,15.004" style="fill:none;stroke:#000;stroke-width:0.71px;"/><path id="LINE_172_" d="M246.066,153.199l-10.375,16.153" style="fill:none;stroke:#000;stroke-width:0.71px;"/><path id="LWPOLYLINE_180_" d="M336.157,210.239l0.488,-0.437" style="fill:none;stroke:#000;stroke-width:0.71px;"/><path id="LWPOLYLINE_181_" d="M336.645,209.802l0.09,-0.074l0.428,-0.316l0.316,-0.172l0.228,-0.065" style="fill:none;stroke:#000;stroke-width:0.71px;"/><path id="LWPOLYLINE_182_" d="M248.742,149.96l-0.487,0.473l-0.888,0.983l-0.825,1.073l-0.476,0.71" style="fill:none;stroke:#000;stroke-width:0.71px;"/><path id="LINE_173_" d="M266.309,133.822l-17.567,16.138" style="fill:none;stroke:#000;stroke-width:0.71px;"/><path id="LINE_174_" d="M287.871,131.018l-0.495,-12.401" style="fill:none;stroke:#000;stroke-width:0.71px;"/><path id="LINE_175_" d="M267.224,303.547l1.138,21.143" style="fill:none;stroke:#000;stroke-width:0.71px;"/><path id="LINE_176_" d="M305.849,323.043l-0.733,-21.18" style="fill:none;stroke:#000;stroke-width:0.71px;"/><path id="LWPOLYLINE_183_" d="M309.025,287.047l1.017,-0.32l1.467,-0.602l1.497,-0.775l1.52,-0.939l1.517,-1.09l1.516,-1.229l1.501,-1.357l1.482,-1.479l1.459,-1.588l1.429,-1.687l1.395,-1.781l1.346,-1.863l1.301,-1.933l1.244,-1.992l1.18,-2.045l1.111,-2.08l0.367,-0.728" style="fill:none;stroke:#000;stroke-width:0.71px;"/><path id="LWPOLYLINE_184_" d="M308.817,287.104l0.208,-0.057" style="fill:none;stroke:#000;stroke-width:0.71px;"/><path id="LINE_177_" d="M307.271,303.384l-0.458,-13.656" style="fill:none;stroke:#000;stroke-width:0.71px;"/><path id="LWPOLYLINE_185_" d="M333.223,231.884l0.408,-2.275l0.356,-2.513l0.238,-2.448l0.128,-2.371l0.011,-2.101" style="fill:none;stroke:#000;stroke-width:0.71px;"/><path id="LWPOLYLINE_186_" d="M306.81,289.728l0.125,-0.839l0.385,-0.767l0.617,-0.614l0.789,-0.388" style="fill:none;stroke:#000;stroke-width:0.71px;"/><path id="LINE_178_" d="M305.301,307.273l0.624,-0.616" style="fill:none;stroke:#000;stroke-width:0.71px;"/><path id="LWPOLYLINE_187_" d="M305.925,306.657l0.458,-0.524l0.453,-0.734l0.295,-0.789l0.14,-0.902l0,-0.356" style="fill:none;stroke:#000;stroke-width:0.71px;"/><path id="LINE_179_" d="M351.401,236.433l-0.401,-37.047" style="fill:none;stroke:#000;stroke-width:0.71px;"/><path id="LWPOLYLINE_190_" d="M209.074,289.973l-0.046,-1.471l-0.268,-1.598l-0.488,-1.703l-0.703,-1.776l-0.903,-1.822l-1.089,-1.838l-1.26,-1.823l-1.41,-1.781l-1.535,-1.71l-1.638,-1.609l-1.708,-1.48l-1.758,-1.331l-1.777,-1.156l-1.766,-0.968l-1.724,-0.761l-1.656,-0.542l-1.561,-0.315l-1.445,-0.084l-1.3,0.148l-1.138,0.377l-0.957,0.6l-0.763,0.813l-0.553,1.011l-0.34,1.194l-0.016,0.082" style="fill:none;stroke:#000;stroke-width:0.71px;"/><path id="LINE_180_" d="M204.555,295.051l2.02,-0.593" style="fill:none;stroke:#000;stroke-width:0.71px;"/><path id="LINE_181_" d="M206.575,294.458l5.47,4.951" style="fill:none;stroke:#000;stroke-width:0.71px;"/><path id="LINE_182_" d="M212.045,299.409l-0.529,0.935" style="fill:none;stroke:#000;stroke-width:0.71px;"/><path id="LINE_183_" d="M211.516,300.344l14.13,12.795" style="fill:none;stroke:#000;stroke-width:0.71px;"/><path id="LINE_184_" d="M225.646,313.139l-1.827,3.129" style="fill:none;stroke:#000;stroke-width:0.71px;"/><path id="LINE_185_" d="M223.819,316.268l-16.258,-14.725" style="fill:none;stroke:#000;stroke-width:0.71px;"/><path id="LWPOLYLINE_191_" d="M207.561,301.543l-7.161,-1.671l-0.62,-0.268" style="fill:none;stroke:#000;stroke-width:0.71px;"/><path id="LWPOLYLINE_192_" d="M176.463,274.943l-0.816,-2.481l-0.507,-2.355l-0.193,-2.191l0.129,-1.993l0.446,-1.761l0.76,-1.503l1.067,-1.22l1.349,-0.913l1.615,-0.592l1.856,-0.26l2.068,0.076l2.25,0.414l2.393,0.744l2.495,1.067l2.556,1.366l2.583,1.651l2.559,1.905l2.499,2.131l2.394,2.317l2.254,2.471l2.068,2.581l1.856,2.646l1.614,2.673l1.339,2.653l1.05,2.589l0.639,2.089" style="fill:none;stroke:#000;stroke-width:0.71px;"/><path id="LINE_186_" d="M214.786,289.047l16.312,14.747" style="fill:none;stroke:#000;stroke-width:0.71px;"/><path id="LINE_187_" d="M231.098,303.794l-1.785,3.059" style="fill:none;stroke:#000;stroke-width:0.71px;"/><path id="LINE_188_" d="M229.313,306.853l-14.212,-12.856" style="fill:none;stroke:#000;stroke-width:0.71px;"/><path id="LINE_189_" d="M215.101,293.997l-0.534,0.945" style="fill:none;stroke:#000;stroke-width:0.71px;"/><path id="LINE_190_" d="M214.567,294.942l-5.493,-4.969" style="fill:none;stroke:#000;stroke-width:0.71px;"/><path id="LWPOLYLINE_193_" d="M254.633,262.517l-0.748,-3.261l-1.176,-3.422l-1.584,-3.528l-1.963,-3.572l-2.31,-3.562l-2.624,-3.49l-2.892,-3.361l-3.111,-3.174l-3.283,-2.938l-3.391,-2.65l-3.452,-2.318l-3.452,-1.95l-3.395,-1.553l-3.282,-1.128l-3.116,-0.687l-2.895,-0.238l-2.64,0.215l-2.333,0.662l-1.992,1.095l-1.618,1.509l-1.229,1.896l-0.816,2.251l-0.393,2.571l0.034,2.847l0.041,0.438" style="fill:none;stroke:#000;stroke-width:0.71px;"/><path id="LWPOLYLINE_194_" d="M195.909,240.333l-1.327,-4.228l-0.802,-4.024l-0.269,-3.756l0.277,-3.431l0.816,-3.05l1.35,-2.615l1.864,-2.138l2.352,-1.624l2.806,-1.078l3.217,-0.513l3.577,0.062l3.882,0.643l4.125,1.215l4.295,1.77l4.405,2.299l4.431,2.788l4.39,3.235l4.272,3.628l4.08,3.958l3.826,4.225l3.502,4.42l3.122,4.541l2.689,4.584l2.211,4.55l1.702,4.443l1.164,4.26l0.167,0.825" style="fill:none;stroke:#000;stroke-width:0.71px;"/><path id="LWPOLYLINE_195_" d="M262.033,265.322l0.136,0.622l0.502,1.567l0.757,1.666l0.801,1.408l0.964,1.422" style="fill:none;stroke:#000;stroke-width:0.71px;"/><path id="LWPOLYLINE_196_" d="M216.564,286.775l-1.067,-2.743l-1.379,-2.819l-1.675,-2.844l-1.94,-2.828l-2.174,-2.763l-2.371,-2.65l-2.529,-2.495l-2.647,-2.301l-2.722,-2.064l-2.749,-1.8l-2.729,-1.501l-2.674,-1.182l-2.563,-0.841l-2.42,-0.492l-2.235,-0.13l-2.011,0.226l-1.761,0.583l-1.479,0.925l-0.484,0.438" style="fill:none;stroke:#000;stroke-width:0.71px;"/><path id="LWPOLYLINE_197_" d="M264.377,264.923l-1.093,-4.376l-1.652,-4.581l-2.19,-4.707l-2.692,-4.758l-3.153,-4.73l-3.561,-4.62l-3.906,-4.434l-4.189,-4.172l-4.401,-3.839l-4.54,-3.443l-4.599,-2.988l-4.586,-2.488l-4.488,-1.947l-4.321,-1.374l-4.087,-0.783l-3.781,-0.182l-3.418,0.418l-3.002,1.008l-2.537,1.578l-0.764,0.676" style="fill:none;stroke:#000;stroke-width:0.71px;"/><path id="LWPOLYLINE_198_" d="M204.003,208.836l2.386,-1.787l2.866,-1.225l3.301,-0.64l3.679,-0.04l4.008,0.564l4.268,1.16l4.458,1.745l4.578,2.299l4.617,2.818l4.582,3.293l4.469,3.711l4.285,4.07l4.019,4.36l3.692,4.575l3.302,4.713l2.858,4.771l2.363,4.753l1.837,4.65l1.279,4.473l0.309,1.499" style="fill:none;stroke:#000;stroke-width:0.71px;"/><path id="LINE_191_" d="M264.377,264.923l6.782,-6.325" style="fill:none;stroke:#000;stroke-width:0.71px;"/><path id="LWPOLYLINE_199_" d="M204.283,231.867l1.463,-1.149l1.767,-0.794l2.041,-0.427l2.287,-0.05l2.492,0.329l2.661,0.703l2.787,1.069l2.866,1.416l2.896,1.743l2.881,2.039l2.817,2.305l2.711,2.532l2.556,2.713l2.355,2.857l2.125,2.949l1.853,2.993l1.55,2.987l1.225,2.934l0.601,1.811" style="fill:none;stroke:#000;stroke-width:0.71px;"/><path id="LWPOLYLINE_200_" d="M246.217,260.827l-6.023,5.402" style="fill:none;stroke:#000;stroke-width:0.71px;"/><path id="LINE_192_" d="M232.587,302.035l-4.606,-4.163" style="fill:none;stroke:#000;stroke-width:0.71px;"/><path id="LWPOLYLINE_201_" d="M231.098,303.794l0.256,-0.372l0.382,-0.476l0.45,-0.505l0.401,-0.406" style="fill:none;stroke:#000;stroke-width:0.71px;"/><path id="LWPOLYLINE_202_" d="M206.575,294.458l-0.223,-0.387l-0.077,-0.436l0.035,-0.255" style="fill:none;stroke:#000;stroke-width:0.71px;"/><path id="LWPOLYLINE_203_" d="M209.074,289.973l-0.284,-0.279l-0.129,-0.344l-0.003,-0.107" style="fill:none;stroke:#000;stroke-width:0.71px;"/><path id="LWPOLYLINE_204_" d="M241.567,266.959l7.259,-6.51" style="fill:none;stroke:#000;stroke-width:0.71px;"/><path id="LINE_193_" d="M267.855,274.403l-29.866,27.887" style="fill:none;stroke:#000;stroke-width:0.71px;"/><path id="LWPOLYLINE_205_" d="M237.989,302.29l-1.224,0.718l-1.49,0.182l-1.516,-0.388l-1.172,-0.767" style="fill:none;stroke:#000;stroke-width:0.71px;"/><path id="LWPOLYLINE_206_" d="M238.811,304.17l0.064,-0.374l-0.141,-0.497l-0.325,-0.543l-0.42,-0.466" style="fill:none;stroke:#000;stroke-width:0.71px;"/><path id="LWPOLYLINE_207_" d="M231.098,303.794l1.916,1.203l2.178,0.463l2.099,-0.347l1.52,-0.943" style="fill:none;stroke:#000;stroke-width:0.71px;"/><path id="LWPOLYLINE_208_" d="M238.277,305.071l-0.926,0.693l-1.221,0.604l-1.611,0.499l-1.754,0.313l-1.426,0.159l-1.232,0.126" style="fill:none;stroke:#000;stroke-width:0.71px;"/><path id="LINE_194_" d="M230.107,307.465l-0.794,-0.612" style="fill:none;stroke:#000;stroke-width:0.71px;"/><path id="LINE_195_" d="M238.277,305.071l0.534,-0.901" style="fill:none;stroke:#000;stroke-width:0.71px;"/><path id="LINE_196_" d="M238.811,304.17l29.842,-27.888" style="fill:none;stroke:#000;stroke-width:0.71px;"/><path id="LWPOLYLINE_209_" d="M230.107,307.465l0.507,0.353l0.555,0.104l0.247,-0.039" style="fill:none;stroke:#000;stroke-width:0.71px;"/><path id="LWPOLYLINE_210_" d="M267.798,277.695l-22.159,20.551l-7.362,6.825" style="fill:none;stroke:#000;stroke-width:0.71px;"/><path id="LWPOLYLINE_211_" d="M261.454,287.387l-2.129,1.988l-8.541,7.977l-11.138,10.403l-7.668,7.158" style="fill:none;stroke:#000;stroke-width:0.71px;"/><path id="LWPOLYLINE_212_" d="M231.978,314.913l-0.665,0.449l-0.666,0.163l-0.782,-0.163l-0.817,-0.742l-0.492,-1.316" style="fill:none;stroke:#000;stroke-width:0.71px;"/><path id="LWPOLYLINE_213_" d="M228.556,313.304l1.067,-1.007l5.905,-5.586" style="fill:none;stroke:#000;stroke-width:0.71px;"/><path id="LWPOLYLINE_214_" d="M229.313,306.853l-0.083,0.206l0.007,0.022" style="fill:none;stroke:#000;stroke-width:0.71px;"/><path id="LWPOLYLINE_215_" d="M230.107,307.465l-0.106,0.191" style="fill:none;stroke:#000;stroke-width:0.71px;"/><path id="LWPOLYLINE_216_" d="M216.442,295.509l-0.555,0.126l-0.616,-0.136l-0.575,-0.41l-0.129,-0.147" style="fill:none;stroke:#000;stroke-width:0.71px;"/><path id="LWPOLYLINE_217_" d="M209.066,290.264l-0.034,-0.105l0.042,-0.186" style="fill:none;stroke:#000;stroke-width:0.71px;"/><path id="LWPOLYLINE_218_" d="M214.567,294.942l0.091,0.369l0.046,0.053" style="fill:none;stroke:#000;stroke-width:0.71px;"/><path id="LWPOLYLINE_221_" d="M281.731,270.369l2.789,1.63l1.75,1.291l1.702,1.443l1.618,1.564l1.516,1.668l1.384,1.739l1.233,1.785l1.062,1.8l0.87,1.786l0.666,1.743l0.453,1.673l0.231,1.573l0.007,1.452l-0.216,1.304l-0.434,1.137l-0.65,0.954l-0.851,0.753l-1.036,0.542l-1.206,0.324l-1.357,0.097l-1.486,-0.125l-1.592,-0.347l-1.671,-0.565l-1.724,-0.772l-1.75,-0.966l-1.751,-1.145l-1.721,-1.306l-1.663,-1.447l-1.581,-1.565l-1.474,-1.825l-2.584,-5.037" style="fill:none;stroke:#000;stroke-width:0.71px;"/><path id="LWPOLYLINE_222_" d="M273.5,276.563l-0.405,0.487l-0.332,0.585l-0.208,0.588l-10.306,12.221" style="fill:none;stroke:#000;stroke-width:0.71px;"/><path id="LWPOLYLINE_223_" d="M268.729,275.905l0.038,0.033l1.806,1.466l1.925,1.266" style="fill:none;stroke:#000;stroke-width:0.71px;"/><path id="LINE_198_" d="M273.5,276.563l6.613,-6.533" style="fill:none;stroke:#000;stroke-width:0.71px;"/><path id="LWPOLYLINE_226_" d="M273.5,276.563l-1.625,-1.064l-1.631,-1.32l-0.033,-0.028" style="fill:none;stroke:#000;stroke-width:0.71px;"/><path id="LWPOLYLINE_227_" d="M270.211,274.151l-0.749,-0.461l-0.333,-0.207l-0.072,-0.071" style="fill:none;stroke:#000;stroke-width:0.71px;"/><path id="LWPOLYLINE_228_" d="M269.042,273.393l-1.141,-1.534l-0.772,-1.107" style="fill:none;stroke:#000;stroke-width:0.71px;"/><path id="LWPOLYLINE_229_" d="M267.129,270.752l-1.543,-2.469l-0.68,-1.514l-0.458,-1.498l-0.071,-0.348" style="fill:none;stroke:#000;stroke-width:0.71px;"/><path id="LWPOLYLINE_230_" d="M271.159,258.598l0.436,1.583l0.718,1.659l0.877,1.526l1.07,1.501l1.229,1.436l1.357,1.333l1.176,0.983l1.214,0.87l0.877,0.541" style="fill:none;stroke:#000;stroke-width:0.71px;"/><path id="LINE_199_" d="M227.12,311.396l-12.893,-11.67" style="fill:none;stroke:#000;stroke-width:0.71px;"/><path id="LWPOLYLINE_231_" d="M227.12,311.396l-0.45,0.461l-0.442,0.501l-0.367,0.464l-0.215,0.317" style="fill:none;stroke:#000;stroke-width:0.71px;"/><path id="LWPOLYLINE_232_" d="M232,307.725l-4.328,4.096" style="fill:none;stroke:#000;stroke-width:0.71px;"/><path id="LINE_200_" d="M227.672,311.821l-0.552,-0.425" style="fill:none;stroke:#000;stroke-width:0.71px;"/><path id="LWPOLYLINE_233_" d="M280.113,270.03l0.408,-0.314l0.348,-0.091l0.132,0.04" style="fill:none;stroke:#000;stroke-width:0.71px;"/><path id="LWPOLYLINE_234_" d="M267.129,270.752l-0.487,0.416l-0.549,0.387l-0.521,0.299l-0.379,0.153" style="fill:none;stroke:#000;stroke-width:0.71px;"/><path id="LWPOLYLINE_235_" d="M213.929,298.038l-0.462,0.409l-0.529,0.41l-0.518,0.35l-0.375,0.202" style="fill:none;stroke:#000;stroke-width:0.71px;"/><path id="LWPOLYLINE_236_" d="M206.575,294.458l0.245,-0.278l0.348,-0.373l0.401,-0.412l0.397,-0.398l0.208,-0.202" style="fill:none;stroke:#000;stroke-width:0.71px;"/><path id="LINE_201_" d="M213.947,298.02l-5.773,-5.225" style="fill:none;stroke:#000;stroke-width:0.71px;"/><path id="LINE_202_" d="M213.947,298.02l-0.018,0.018" style="fill:none;stroke:#000;stroke-width:0.71px;"/><path id="LWPOLYLINE_237_" d="M232.009,315.686l0.068,-0.373l-0.099,-0.4" style="fill:none;stroke:#000;stroke-width:0.71px;"/><path id="LWPOLYLINE_238_" d="M226.436,313.746l0.4,0.893l0.575,0.803l0.631,0.558l0.745,0.398l1.24,0.187l1.01,-0.251l0.972,-0.648" style="fill:none;stroke:#000;stroke-width:0.71px;"/><path id="LWPOLYLINE_239_" d="M228.556,313.304l-0.521,0.364l-0.643,0.186l-0.665,-0.023l-0.291,-0.085" style="fill:none;stroke:#000;stroke-width:0.71px;"/><path id="LWPOLYLINE_240_" d="M270.211,274.151l-0.442,0.459l-0.447,0.504l-0.371,0.467l-0.222,0.324" style="fill:none;stroke:#000;stroke-width:0.71px;"/><path id="LWPOLYLINE_241_" d="M227.672,311.821l-0.359,0.534l-0.363,0.561l-0.318,0.501l-0.196,0.329" style="fill:none;stroke:#000;stroke-width:0.71px;"/><path id="LWPOLYLINE_242_" d="M228.556,313.304l-0.143,-0.492l-0.325,-0.535l-0.416,-0.456" style="fill:none;stroke:#000;stroke-width:0.71px;"/><path id="LWPOLYLINE_243_" d="M231.416,316.689l-1.718,0.993l-2.09,0.236l-2.137,-0.561l-1.652,-1.089" style="fill:none;stroke:#000;stroke-width:0.71px;"/><path id="LINE_203_" d="M225.646,313.139l0.79,0.607" style="fill:none;stroke:#000;stroke-width:0.71px;"/><path id="LINE_204_" d="M231.416,316.689l0.593,-1.003" style="fill:none;stroke:#000;stroke-width:0.71px;"/><path id="LINE_205_" d="M216.56,295.615l-2.613,2.405" style="fill:none;stroke:#000;stroke-width:0.71px;"/><path id="LINE_206_" d="M208.174,292.795l1.796,-1.712" style="fill:none;stroke:#000;stroke-width:0.71px;"/><path id="LWPOLYLINE_244_" d="M213.929,298.038l0.298,0.336l0.208,0.359l0.083,0.324l-0.041,0.225" style="fill:none;stroke:#000;stroke-width:0.71px;"/><path id="LWPOLYLINE_245_" d="M212.045,299.409l0.655,0.268l0.707,0.048l0.635,-0.161l0.435,-0.282" style="fill:none;stroke:#000;stroke-width:0.71px;"/><path id="LINE_207_" d="M214.477,299.282l0.007,-0.006" style="fill:none;stroke:#000;stroke-width:0.71px;"/><path id="LWPOLYLINE_246_" d="M213.947,298.02l0.295,0.336l0.208,0.361l0.079,0.328l-0.045,0.231" style="fill:none;stroke:#000;stroke-width:0.71px;"/><path id="LINE_208_" d="M214.484,299.276l3.037,-2.793" style="fill:none;stroke:#000;stroke-width:0.71px;"/><path id="LINE_209_" d="M214.227,299.726l0.25,-0.444" style="fill:none;stroke:#000;stroke-width:0.71px;"/><path id="LWPOLYLINE_247_" d="M208.174,292.795l-0.344,-0.252l-0.333,-0.134l-0.151,-0.016" style="fill:none;stroke:#000;stroke-width:0.71px;"/><path id="LWPOLYLINE_248_" d="M269.042,273.393l-0.495,0.406l-0.507,0.439l-0.185,0.165" style="fill:none;stroke:#000;stroke-width:0.71px;"/><path id="LWPOLYLINE_249_" d="M223.819,316.268l-0.079,0.202" style="fill:none;stroke:#000;stroke-width:0.71px;"/><path id="LWPOLYLINE_250_" d="M232.009,315.686l19.875,-18.542l9.596,-8.954" style="fill:none;stroke:#000;stroke-width:0.71px;"/><path id="LINE_210_" d="M260.573,289.698l-29.157,26.991" style="fill:none;stroke:#000;stroke-width:0.71px;"/><path id="LINE_211_" d="M231.339,316.784l0.077,-0.095" style="fill:none;stroke:#000;stroke-width:0.71px;"/><path id="LWPOLYLINE_251_" d="M260.438,289.847l2.882,1.549" style="fill:none;stroke:#000;stroke-width:0.71px;"/><path id="LINE_212_" d="M302.737,125.021l-0.276,0.248" style="fill:none;stroke:#000;stroke-width:0.71px;"/><path id="LINE_213_" d="M302.737,125.021l0.356,0.307" style="fill:none;stroke:#000;stroke-width:0.71px;"/><path id="LWPOLYLINE_252_" d="M302.737,125.021l-0.507,-0.333l-0.498,-0.138l-0.404,0.078l-0.102,0.072" style="fill:none;stroke:#000;stroke-width:0.71px;"/><path id="LINE_214_" d="M316.504,112.87l-13.767,12.151" style="fill:none;stroke:#000;stroke-width:0.71px;"/><path id="LINE_215_" d="M320.387,116.188l-3.883,-3.318" style="fill:none;stroke:#000;stroke-width:0.71px;"/><path id="LINE_216_" d="M309.884,126.327l10.503,-10.139" style="fill:none;stroke:#000;stroke-width:0.71px;"/><path id="LINE_217_" d="M321.181,118.089l-9.15,8.842" style="fill:none;stroke:#000;stroke-width:0.71px;"/><path id="LWPOLYLINE_253_" d="M322.33,118.064l0.234,-0.648l-0.15,-0.214l-0.507,0.259l-0.726,0.628" style="fill:none;stroke:#000;stroke-width:0.71px;"/><path id="LINE_218_" d="M317.366,128.004l4.964,-9.94" style="fill:none;stroke:#000;stroke-width:0.71px;"/><path id="LINE_219_" d="M316.685,128.662l0.681,-0.658" style="fill:none;stroke:#000;stroke-width:0.71px;"/><path id="LWPOLYLINE_254_" d="M320.387,116.188l0.446,0.46l0.31,0.532l0.114,0.514l-0.076,0.395" style="fill:none;stroke:#000;stroke-width:0.71px;"/><path id="LWPOLYLINE_255_" d="M316.504,112.87l-0.506,-0.331l-0.496,-0.137l-0.408,0.081l-0.053,0.035" style="fill:none;stroke:#000;stroke-width:0.71px;"/><path id="LINE_220_" d="M315.041,112.518l-0.05,0.038" style="fill:none;stroke:#000;stroke-width:0.71px;"/><path id="LWPOLYLINE_256_" d="M318.538,111.752l-0.582,0.067l-1.047,0.707l-0.405,0.344" style="fill:none;stroke:#000;stroke-width:0.71px;"/><path id="LWPOLYLINE_257_" d="M320.387,116.188l1.118,-0.931l0.711,-0.306l0.118,0.043" style="fill:none;stroke:#000;stroke-width:0.71px;"/><path id="LINE_221_" d="M267.235,113.136l5.74,17.135" style="fill:none;stroke:#000;stroke-width:0.71px;"/><path id="LWPOLYLINE_258_" d="M268.517,107.962l-0.825,1.036l-0.529,1.371l-0.151,1.487l0.223,1.28" style="fill:none;stroke:#000;stroke-width:0.71px;"/><path id="LINE_222_" d="M282.325,96.001l-13.808,11.961" style="fill:none;stroke:#000;stroke-width:0.71px;"/><path id="LWPOLYLINE_259_" d="M285.667,97.146l-0.586,-1.065l-0.854,-0.582l-0.995,-0.009l-0.907,0.511" style="fill:none;stroke:#000;stroke-width:0.71px;"/><path id="LINE_223_" d="M291.236,114.115l-5.569,-16.969" style="fill:none;stroke:#000;stroke-width:0.71px;"/><path id="LINE_224_" d="M291.243,114.138l-0.011,-0.023" style="fill:none;stroke:#000;stroke-width:0.71px;"/><path id="LINE_225_" d="M288.4,116.624l2.843,-2.486" style="fill:none;stroke:#000;stroke-width:0.71px;"/><path id="LWPOLYLINE_260_" d="M287.735,117.348l0.665,-0.724" style="fill:none;stroke:#000;stroke-width:0.71px;"/><path id="LINE_226_" d="M322.538,117.783l-0.208,0.281" style="fill:none;stroke:#000;stroke-width:0.71px;"/><path id="LINE_227_" d="M317.366,128.004l0.208,-0.279" style="fill:none;stroke:#000;stroke-width:0.71px;"/><path id="LWPOLYLINE_261_" d="M267.235,113.136l-0.48,0.322l-0.594,0.236l-0.612,0.118l-0.495,-0.018" style="fill:none;stroke:#000;stroke-width:0.71px;"/><path id="LINE_228_" d="M270.755,130.788l-5.701,-16.994" style="fill:none;stroke:#000;stroke-width:0.71px;"/><path id="LWPOLYLINE_262_" d="M265.054,113.794l-0.325,-1.981l0.252,-2.125l0.795,-1.932l1.107,-1.354" style="fill:none;stroke:#000;stroke-width:0.71px;"/><path id="LWPOLYLINE_263_" d="M268.517,107.962l-0.268,-0.545l-0.416,-0.489l-0.493,-0.36l-0.457,-0.166" style="fill:none;stroke:#000;stroke-width:0.71px;"/><path id="LWPOLYLINE_264_" d="M262.392,105.62l-1.218,1.47l-0.79,1.949l-0.231,2.118l0.314,1.822" style="fill:none;stroke:#000;stroke-width:0.71px;"/><path id="LINE_229_" d="M262.392,105.62l4.491,0.782" style="fill:none;stroke:#000;stroke-width:0.71px;"/><path id="LINE_230_" d="M265.054,113.794l-4.587,-0.815" style="fill:none;stroke:#000;stroke-width:0.71px;"/><path id="LINE_231_" d="M260.467,112.979l5.074,15.078" style="fill:none;stroke:#000;stroke-width:0.71px;"/><path id="LINE_232_" d="M266.883,106.402l13.812,-11.949" style="fill:none;stroke:#000;stroke-width:0.71px;"/><path id="LWPOLYLINE_265_" d="M282.325,96.001l-0.269,-0.541l-0.408,-0.487l-0.492,-0.356l-0.461,-0.164" style="fill:none;stroke:#000;stroke-width:0.71px;"/><path id="LINE_233_" d="M276.8,93.797l-14.408,11.823" style="fill:none;stroke:#000;stroke-width:0.71px;"/><path id="LINE_234_" d="M280.695,94.453l-3.895,-0.656" style="fill:none;stroke:#000;stroke-width:0.71px;"/><path id="LWPOLYLINE_266_" d="M260.467,112.979l-0.378,-0.149l-0.147,-0.195" style="fill:none;stroke:#000;stroke-width:0.71px;"/><path id="LWPOLYLINE_267_" d="M262.392,105.62l-0.409,0.015l-0.155,0.085" style="fill:none;stroke:#000;stroke-width:0.71px;"/><path id="LINE_235_" d="M317.249,128.169l0.117,-0.165" style="fill:none;stroke:#000;stroke-width:0.71px;"/><path id="LINE_236_" d="M272.967,130.275l1.625,12.035" style="fill:none;stroke:#000;stroke-width:0.71px;"/><path id="LWPOLYLINE_268_" d="M285.682,123.666l0.023,-1.388l0.358,-1.541l0.655,-1.521l0.896,-1.367l0.216,-0.261" style="fill:none;stroke:#000;stroke-width:0.71px;"/><path id="LINE_237_" d="M286.669,132.039l-0.987,-8.373" style="fill:none;stroke:#000;stroke-width:0.71px;"/><path id="LWPOLYLINE_269_" d="M276.8,93.797l-0.408,0.017l-0.155,0.087" style="fill:none;stroke:#000;stroke-width:0.71px;"/><path id="LINE_238_" d="M272.543,144.051l-1.803,-13.268" style="fill:none;stroke:#000;stroke-width:0.71px;"/><path id="LWPOLYLINE_270_" d="M280.695,94.453l1.403,-0.758l1.016,-0.036" style="fill:none;stroke:#000;stroke-width:0.71px;"/><path id="LWPOLYLINE_271_" d="M285.667,97.146l0.291,-0.349l0.057,-0.325l-0.008,-0.034" style="fill:none;stroke:#000;stroke-width:0.71px;"/><path id="LINE_239_" d="M266.35,131.479l2.825,15.438" style="fill:none;stroke:#000;stroke-width:0.71px;"/><path id="LWPOLYLINE_272_" d="M279.254,93.012l-1.47,0.182l-0.984,0.603" style="fill:none;stroke:#000;stroke-width:0.71px;"/><path id="LWPOLYLINE_273_" d="M286.015,122.925l-0.079,0.413l-0.254,0.328" style="fill:none;stroke:#000;stroke-width:0.71px;"/><path id="LWPOLYLINE_274_" d="M288.4,116.624l0.08,0.503l-0.121,0.389l-0.088,0.1" style="fill:none;stroke:#000;stroke-width:0.71px;"/><path id="LWPOLYLINE_275_" d="M291.243,114.138l0.076,0.503l-0.121,0.391l-0.091,0.101" style="fill:none;stroke:#000;stroke-width:0.71px;"/><path id="LWPOLYLINE_276_" d="M291.243,114.138l0.28,-0.367l0.054,-0.341l-0.009,-0.029" style="fill:none;stroke:#000;stroke-width:0.71px;"/><path id="LWPOLYLINE_277_" d="M274.241,256.037l-1.1,-4.451l-1.675,-4.652l-2.22,-4.779l-2.729,-4.824l-3.196,-4.791l-3.61,-4.675l-3.962,-4.48l-4.247,-4.212l-4.464,-3.87l-4.601,-3.465l-4.666,-3.002l-4.647,-2.49l-4.556,-1.939l-4.382,-1.358l-4.144,-0.758l-3.834,-0.147l-3.467,0.461l-3.044,1.059l-2.574,1.635l-1.037,0.956" style="fill:none;stroke:#000;stroke-width:0.71px;"/><path id="LWPOLYLINE_278_" d="M274.241,256.037l-0.885,0.547l-1.077,0.293l-0.926,0.018" style="fill:none;stroke:#000;stroke-width:0.71px;"/><path id="LWPOLYLINE_279_" d="M305.354,227.358l-17.124,15.786l-13.989,12.893" style="fill:none;stroke:#000;stroke-width:0.71px;"/><path id="LWPOLYLINE_280_" d="M296.752,294.69l0.866,-0.95l0.635,-1.169l0.394,-1.367l0.143,-1.544l-0.106,-1.698l-0.362,-1.822l-0.606,-1.919l-0.839,-1.985l-1.066,-2.017l-1.271,-2.017l-1.455,-1.985l-1.619,-1.919l-1.754,-1.823l-1.859,-1.697l-1.936,-1.54l-1.981,-1.364l-0.919,-0.561" style="fill:none;stroke:#000;stroke-width:0.71px;"/><path id="LWPOLYLINE_281_" d="M281.492,269.979l0.367,-0.977l0.564,-0.963l0.594,-0.726" style="fill:none;stroke:#000;stroke-width:0.71px;"/><path id="LWPOLYLINE_282_" d="M283.017,267.313l13.656,-13.207l16.742,-16.149" style="fill:none;stroke:#000;stroke-width:0.71px;"/><path id="LWPOLYLINE_283_" d="M283.017,267.313l-1.502,-0.966l-1.455,-1.149l-1.369,-1.303l-1.248,-1.414l-1.085,-1.49l-0.896,-1.524l-0.68,-1.511l-0.447,-1.462l-0.094,-0.457" style="fill:none;stroke:#000;stroke-width:0.71px;"/><path id="LWPOLYLINE_284_" d="M192.438,210.853l1.641,5.1l1.334,1.711" style="fill:none;stroke:#000;stroke-width:0.71px;"/><path id="LWPOLYLINE_285_" d="M197.735,214.875l-0.964,-1.124l-0.764,-1.206l-0.556,-1.27l-0.34,-1.317l-0.121,-1.344l0.102,-1.352l0.321,-1.343l0.212,-0.588" style="fill:none;stroke:#000;stroke-width:0.71px;"/><path id="LINE_240_" d="M325.14,215.899l-0.515,3.301" style="fill:none;stroke:#000;stroke-width:0.71px;"/><path id="LWPOLYLINE_286_" d="M317.022,215.865l1.35,-1.174l1.353,-0.908l1.271,-0.595l1.198,-0.305l1.029,0.01l0.869,0.312l0.616,0.595l0.363,0.877l0.069,1.222" style="fill:none;stroke:#000;stroke-width:0.71px;"/><path id="LWPOLYLINE_287_" d="M305.343,227.2l11.679,-11.335" style="fill:none;stroke:#000;stroke-width:0.71px;"/><path id="LWPOLYLINE_288_" d="M339.053,255.002l0.828,-1.176l0.578,-1.392l0.314,-1.591l0.046,-1.763l-0.227,-1.908l-0.491,-2.019l-0.749,-2.102l-1.002,-2.148l-1.229,-2.158l-1.444,-2.135l-1.634,-2.077l-1.792,-1.985l-1.928,-1.859l-2.027,-1.703l-2.098,-1.52l-1.131,-0.726" style="fill:none;stroke:#000;stroke-width:0.71px;"/><path id="LWPOLYLINE_289_" d="M325.067,226.74l-11.66,11.065" style="fill:none;stroke:#000;stroke-width:0.71px;"/><path id="LWPOLYLINE_290_" d="M317.022,215.865l1.187,3.595l2.408,3.552l3.252,2.953l1.198,0.775" style="fill:none;stroke:#000;stroke-width:0.71px;"/><path id="LWPOLYLINE_291_" d="M326.753,226.533l-0.475,-0.199l-0.64,0.03l-0.48,0.285l-0.091,0.091" style="fill:none;stroke:#000;stroke-width:0.71px;"/><path id="LWPOLYLINE_292_" d="M325.14,215.899l-1.786,3.004l-0.229,1.188" style="fill:none;stroke:#000;stroke-width:0.71px;"/><path id="LINE_241_" d="M323.125,220.091l-0.009,0.09" style="fill:none;stroke:#000;stroke-width:0.71px;"/><path id="LWPOLYLINE_293_" d="M351.299,194.408l1.898,-2.547l1.365,-3.024l0.813,-3.458l0.234,-3.837l-0.343,-4.155l-0.923,-4.405l-1.486,-4.586l-2.03,-4.691l-2.541,-4.714l-3.014,-4.662l-3.429,-4.529l-3.796,-4.322l-4.094,-4.042l-4.326,-3.692l-4.48,-3.282l-4.564,-2.817l-4.571,-2.306l-4.499,-1.76l-4.352,-1.187l-4.14,-0.594l-3.853,0.002l-3.508,0.596l-3.112,1.176l-2.662,1.733l-0.155,0.129" style="fill:none;stroke:#000;stroke-width:0.71px;"/><path id="LWPOLYLINE_294_" d="M194.434,236.96l0.284,1.473l0.442,2.351l0.046,0.269" style="fill:none;stroke:#000;stroke-width:0.71px;"/><path id="LINE_242_" d="M333.82,221.383l-1.062,-7.494" style="fill:none;stroke:#000;stroke-width:0.71px;"/><path id="LINE_243_" d="M339.51,209.583l-3.078,0.449" style="fill:none;stroke:#000;stroke-width:0.71px;"/><path id="LWPOLYLINE_295_" d="M338.244,208.112l0.575,-0.263l0.748,-0.183l0.42,0.006l0.374,0.12" style="fill:none;stroke:#000;stroke-width:0.71px;"/><path id="LINE_244_" d="M287.285,131.515l-0.48,-11.952" style="fill:none;stroke:#000;stroke-width:0.71px;"/><path id="LINE_245_" d="M286.805,119.563l-0.008,-0.241" style="fill:none;stroke:#000;stroke-width:0.71px;"/><path id="LINE_246_" d="M268.729,145.423l-15.945,14.723" style="fill:none;stroke:#000;stroke-width:0.71px;"/><path id="LWPOLYLINE_296_" d="M224.961,186.546l0.114,-0.411l0.264,-0.463l0.393,-0.423l0.62,-0.492l0.62,-0.408" style="fill:none;stroke:#000;stroke-width:0.71px;"/><path id="LINE_247_" d="M237.026,169.884l-6.065,10.393" style="fill:none;stroke:#000;stroke-width:0.71px;"/><path id="LINE_248_" d="M247.442,153.66l-10.416,16.224" style="fill:none;stroke:#000;stroke-width:0.71px;"/><path id="LINE_249_" d="M254.168,157.246l-6.726,-3.586" style="fill:none;stroke:#000;stroke-width:0.71px;"/><path id="LWPOLYLINE_297_" d="M226.931,184.37l-0.099,0.184" style="fill:none;stroke:#000;stroke-width:0.71px;"/><path id="LWPOLYLINE_298_" d="M247.442,153.66l-0.741,-0.356l-0.488,-0.143l-0.147,0.038" style="fill:none;stroke:#000;stroke-width:0.71px;"/><path id="LINE_250_" d="M255.424,152.694l12.268,-11.311" style="fill:none;stroke:#000;stroke-width:0.71px;"/><path id="LWPOLYLINE_299_" d="M247.442,153.66l2.492,-3.148l0.495,-0.476" style="fill:none;stroke:#000;stroke-width:0.71px;"/><path id="LINE_251_" d="M250.429,150.036l4.995,2.658" style="fill:none;stroke:#000;stroke-width:0.71px;"/><path id="LINE_252_" d="M266.563,135.203l-16.134,14.833" style="fill:none;stroke:#000;stroke-width:0.71px;"/><path id="LWPOLYLINE_300_" d="M339.51,209.583l-0.052,-0.189l-0.095,-0.099l-0.231,-0.109l-0.291,-0.054l-0.506,-0.012l-0.545,0.043l-0.144,0.019" style="fill:none;stroke:#000;stroke-width:0.71px;"/><path id="LWPOLYLINE_301_" d="M248.742,149.96l0.552,-0.221l0.749,0.122l0.386,0.175" style="fill:none;stroke:#000;stroke-width:0.71px;"/><path id="LWPOLYLINE_302_" d="M287.353,118.117l-0.177,0.728l-0.379,0.477" style="fill:none;stroke:#000;stroke-width:0.71px;"/><path id="LINE_253_" d="M300.617,296.922l4.071,2.291" style="fill:none;stroke:#000;stroke-width:0.71px;"/><path id="LINE_254_" d="M306.159,305.958l-0.873,0.863" style="fill:none;stroke:#000;stroke-width:0.71px;"/><path id="LWPOLYLINE_303_" d="M302.242,294.28l1.592,-3.245l0.858,-3.117l0.023,-0.148" style="fill:none;stroke:#000;stroke-width:0.71px;"/><path id="LWPOLYLINE_304_" d="M330.77,264.22l-1.702,3.119l-1.857,3.012l-1.978,2.858l-2.071,2.659l-2.137,2.419l-2.162,2.142l-2.159,1.829l-2.121,1.489l-2.049,1.125l-1.948,0.739l-1.811,0.342l-1.644,-0.063l-0.212,-0.04" style="fill:none;stroke:#000;stroke-width:0.71px;"/><path id="LINE_255_" d="M305.513,287.076l0.646,18.882" style="fill:none;stroke:#000;stroke-width:0.71px;"/><path id="LWPOLYLINE_305_" d="M307.271,303.384l-0.371,1.578l-0.741,0.996" style="fill:none;stroke:#000;stroke-width:0.71px;"/><path id="LWPOLYLINE_306_" d="M305.913,286.732l0.129,0.38l0.174,0.513l0.159,0.471l0.358,1.196l0.05,0.238" style="fill:none;stroke:#000;stroke-width:0.71px;"/><path id="LWPOLYLINE_307_" d="M306.783,289.53l0.027,0.213" style="fill:none;stroke:#000;stroke-width:0.71px;"/><path id="LWPOLYLINE_308_" d="M333.82,221.383l-0.019,2.327l-0.155,2.436l-0.279,2.541l-0.409,2.632l-0.041,0.223" style="fill:none;stroke:#000;stroke-width:0.71px;"/><path id="LWPOLYLINE_309_" d="M308.73,287.12l-0.098,0.007l-0.367,-0.027l-0.453,-0.123l-0.53,-0.228l-0.797,-0.503" style="fill:none;stroke:#000;stroke-width:0.71px;"/><path id="LWPOLYLINE_310_" d="M305.925,306.657l0.231,-0.524l0.003,-0.175" style="fill:none;stroke:#000;stroke-width:0.71px;"/><path id="LINE_256_" d="M338.788,220.991l-4.438,0.316" style="fill:none;stroke:#000;stroke-width:0.71px;"/><path id="LINE_257_" d="M333.449,230.608l2.708,-2.633" style="fill:none;stroke:#000;stroke-width:0.71px;"/><path id="LWPOLYLINE_311_" d="M336.157,227.975l0.798,-0.855l0.794,-1.012l0.725,-1.078l0.681,-1.184l0.632,-1.364" style="fill:none;stroke:#000;stroke-width:0.71px;"/><path id="LWPOLYLINE_312_" d="M338.788,220.991l-0.053,0.258l-0.049,0.117l-0.396,0.563l-0.069,0.078l-0.964,0.91l-1.626,1.186l-1.433,0.836" style="fill:none;stroke:#000;stroke-width:0.71px;"/><path id="LWPOLYLINE_313_" d="M334.18,225.124l0.809,0.633l0.661,0.804l0.409,0.845l0.098,0.569" style="fill:none;stroke:#000;stroke-width:0.71px;"/><text x="159.239px" y="469.273px" style="font-family:'ArialMT', 'Arial', sans-serif;font-size:40.749px;">T4</text><text x="389.52px" y="119.12px" style="font-family:'ArialMT', 'Arial', sans-serif;font-size:40.749px;">W</text><path d="M258.598,302.231l-10.006,-9.569l30.116,-0.671l0.671,30.115l-10.006,-9.569l-34.351,35.917l-10.776,-10.305l34.352,-35.918Z" style="fill:#ebebeb;stroke:#000;stroke-width:2.28px;stroke-miterlimit:1.5;"/><path d="M381.745,201.748l8.248,7.697l-24.53,0.847l-0.849,-24.529l8.249,7.697l19.914,-21.341l8.882,8.288l-19.914,21.341Z" style="fill:#ebebeb;stroke:#000;stroke-width:2.65px;stroke-miterlimit:1.5;"/><path d="M281.446,270.69l-17.619,20.668" style="fill:none;stroke:#000;stroke-width:0.75px;stroke-miterlimit:1.5;"/></svg>