<?xml version="1.0" encoding="UTF-8" standalone="no"?>
<!DOCTYPE svg PUBLIC "-//W3C//DTD SVG 1.1//EN" "http://www.w3.org/Graphics/SVG/1.1/DTD/svg11.dtd">
<svg width="100%" height="100%" viewBox="0 0 456 568" version="1.1" xmlns="http://www.w3.org/2000/svg" xmlns:xlink="http://www.w3.org/1999/xlink" xml:space="preserve" xmlns:serif="http://www.serif.com/" style="fill-rule:evenodd;clip-rule:evenodd;stroke-linecap:round;stroke-linejoin:round;stroke-miterlimit:10;">
    <g id="INSERT">
        <path id="LWPOLYLINE" d="M265.27,131.995L264.954,129.177L264.98,126.553L265.348,124.147L266.061,121.981L267.109,120.074L268.05,118.892" style="fill:none;stroke:black;stroke-width:1.42px;"/>
        <path id="LWPOLYLINE_1_" d="M331.967,192.669L335.771,192.6L339.125,191.931L341.968,190.666L344.25,188.821L345.934,186.418L346.982,183.491L347.371,180.083L347.091,176.245L346.139,172.038L344.523,167.529L342.273,162.791L339.416,157.904L335.999,152.949L332.079,148.011L327.721,143.177L322.998,138.529L317.993,134.147L312.791,130.106L307.482,126.478L303.939,124.321" style="fill:none;stroke:black;stroke-width:1.42px;"/>
        <path id="LWPOLYLINE_2_" d="M265.416,132.891L266.191,136.323L267.4,139.943L269.027,143.713L271.057,147.592L273.458,151.539L276.211,155.51L278.107,158" style="fill:none;stroke:black;stroke-width:1.42px;"/>
        <path id="LWPOLYLINE_3_" d="M307.768,184.029L311.854,186.299L315.887,188.256L319.833,189.878L323.648,191.147L327.294,192.048L330.738,192.572L331.967,192.669" style="fill:none;stroke:black;stroke-width:1.42px;"/>
        <path id="LWPOLYLINE_4_" d="M304.418,123.25L309.835,126.625L315.205,130.461L320.438,134.691L325.438,139.245L330.123,144.044L334.411,149.003L338.23,154.038L341.516,159.061L344.215,163.988L346.289,168.736L347.703,173.225L348.438,177.383L348.491,181.143L347.865,184.448L346.577,187.249L345.604,188.552" style="fill:none;stroke:black;stroke-width:1.42px;"/>
        <path id="LWPOLYLINE_5_" d="M303.939,124.321L298.658,121.506L293.508,119.247L288.583,117.575L283.963,116.516L279.719,116.082L275.92,116.278L272.626,117.091L269.889,118.505L267.739,120.49L266.212,123.011L265.324,126.021L265.083,129.467L265.416,132.891" style="fill:none;stroke:black;stroke-width:1.42px;"/>
        <path id="LWPOLYLINE_6_" d="M347.516,186.37L347.659,186.204L348.645,185.045L349.585,183.928" style="fill:none;stroke:black;stroke-width:1.42px;"/>
        <path id="LWPOLYLINE_7_" d="M268.05,118.892L270.368,116.995L273.279,115.687L276.743,114.993L280.708,114.931L285.113,115.507L289.885,116.719L294.949,118.549L300.219,120.973L304.418,123.25" style="fill:none;stroke:black;stroke-width:1.42px;"/>
        <path id="LWPOLYLINE_8_" d="M345.604,188.552L344.036,190.013L342.163,191.17L340.004,192.018L337.575,192.548L334.898,192.762L332.873,192.72" style="fill:none;stroke:black;stroke-width:1.42px;"/>
        <path id="LWPOLYLINE_9_" d="M332.041,138.554L330.502,138.836L328.891,138.546L327.418,137.735L326.245,136.526L325.471,135.06L325.171,133.469L325.333,132.096" style="fill:none;stroke:black;stroke-width:1.42px;"/>
        <path id="LINE" d="M334.761,141.503L332.041,138.554" style="fill:none;stroke:black;stroke-width:1.42px;"/>
        <path id="LWPOLYLINE_10_" d="M340.386,148.416L338.979,148.667L338.932,148.664" style="fill:none;stroke:black;stroke-width:1.42px;"/>
        <path id="LINE_1_" d="M342.548,151.46L340.386,148.416" style="fill:none;stroke:black;stroke-width:1.42px;"/>
        <path id="LWPOLYLINE_11_" d="M346.721,158.358L345.479,158.625L344.674,158.479" style="fill:none;stroke:black;stroke-width:1.42px;"/>
        <path id="LINE_2_" d="M348.182,161.294L346.721,158.358" style="fill:none;stroke:black;stroke-width:1.42px;"/>
        <path id="LWPOLYLINE_12_" d="M350.641,167.719L349.588,168.048L348.711,167.844" style="fill:none;stroke:black;stroke-width:1.42px;"/>
        <path id="LINE_3_" d="M351.314,170.353L350.641,167.719" style="fill:none;stroke:black;stroke-width:1.42px;"/>
        <path id="LWPOLYLINE_13_" d="M351.923,175.888L351.07,176.318L350.423,176.226L350.402,176.209" style="fill:none;stroke:black;stroke-width:1.42px;"/>
        <path id="LINE_4_" d="M351.779,178.055L351.861,177.267" style="fill:none;stroke:black;stroke-width:1.42px;"/>
        <path id="LWPOLYLINE_14_" d="M350.525,182.359L349.867,182.922L349.502,183.023" style="fill:none;stroke:black;stroke-width:1.42px;"/>
        <path id="LINE_5_" d="M349.585,183.928L350.525,182.359" style="fill:none;stroke:black;stroke-width:1.42px;"/>
        <path id="LINE_6_" d="M271.785,114.854L271.491,115.16" style="fill:none;stroke:black;stroke-width:1.42px;"/>
        <path id="LWPOLYLINE_15_" d="M275.279,112.486L273.994,113.624L272.782,114.61L271.829,115.328L271.244,115.714L271.068,115.775" style="fill:none;stroke:black;stroke-width:1.42px;"/>
        <path id="LINE_7_" d="M277.154,111.808L275.279,112.486" style="fill:none;stroke:black;stroke-width:1.42px;"/>
        <path id="LWPOLYLINE_16_" d="M282.182,111.112L280.74,112.079L279.305,112.813L278.084,113.234L277.223,113.319L276.852,113.172" style="fill:none;stroke:black;stroke-width:1.42px;"/>
        <path id="LINE_8_" d="M284.666,111.19L282.182,111.112" style="fill:none;stroke:black;stroke-width:1.42px;"/>
        <path id="LWPOLYLINE_17_" d="M290.923,112.243L289.365,113.033L287.753,113.507L286.32,113.621L285.236,113.392L284.671,112.979" style="fill:none;stroke:black;stroke-width:1.42px;"/>
        <path id="LINE_9_" d="M293.867,113.081L290.923,112.243" style="fill:none;stroke:black;stroke-width:1.42px;"/>
        <path id="LWPOLYLINE_18_" d="M300.96,115.841L299.328,116.463L297.605,116.689L296.034,116.506L294.796,115.967L293.993,115.145" style="fill:none;stroke:black;stroke-width:1.42px;"/>
        <path id="LINE_10_" d="M304.171,117.398L300.96,115.841" style="fill:none;stroke:black;stroke-width:1.42px;"/>
        <path id="LWPOLYLINE_19_" d="M311.635,121.7L309.982,122.174L308.221,122.178L306.592,121.73L305.286,120.912L304.41,119.824L304.166,119.233" style="fill:none;stroke:black;stroke-width:1.42px;"/>
        <path id="LINE_11_" d="M314.898,123.876L311.635,121.7" style="fill:none;stroke:black;stroke-width:1.42px;"/>
        <path id="LWPOLYLINE_20_" d="M322.236,129.443L320.613,129.802L318.891,129.63L317.296,128.965L316.011,127.92L315.143,126.611L314.775,125.159L314.802,124.359" style="fill:none;stroke:black;stroke-width:1.42px;"/>
        <path id="LINE_12_" d="M325.333,132.096L322.236,129.443" style="fill:none;stroke:black;stroke-width:1.42px;"/>
        <path id="LINE_13_" d="M283.748,101.859L284.048,101.548" style="fill:none;stroke:black;stroke-width:1.42px;"/>
        <path id="LWPOLYLINE_21_" d="M361.482,170.253L360.592,171.096L359.498,172.148L358.473,173.176" style="fill:none;stroke:black;stroke-width:1.42px;"/>
        <path id="LWPOLYLINE_22_" d="M364.165,167.349L365.479,165.495L366.443,163.347L367.044,160.919L367.271,158.233L367.121,155.312L366.673,152.552" style="fill:none;stroke:black;stroke-width:1.42px;"/>
        <path id="LWPOLYLINE_23_" d="M316.555,103.79L318.193,103.23L319.938,103.131L321.555,103.518L322.859,104.333L323.742,105.471L324.124,106.816L324.104,107.567" style="fill:none;stroke:black;stroke-width:1.42px;"/>
        <path id="LINE_14_" d="M313.346,102.255L316.555,103.79" style="fill:none;stroke:black;stroke-width:1.42px;"/>
        <path id="LWPOLYLINE_24_" d="M306.248,99.548L307.833,98.825L309.509,98.489L311.053,98.601L312.296,99.135L313.129,100.019L313.458,100.961" style="fill:none;stroke:black;stroke-width:1.42px;"/>
        <path id="LINE_15_" d="M303.298,98.732L306.248,99.548" style="fill:none;stroke:black;stroke-width:1.42px;"/>
        <path id="LWPOLYLINE_25_" d="M297.025,97.733L298.507,96.836L300.045,96.244L301.438,96.054L302.529,96.279L303.239,96.878L303.389,97.184" style="fill:none;stroke:black;stroke-width:1.42px;"/>
        <path id="LINE_16_" d="M294.529,97.681L297.025,97.733" style="fill:none;stroke:black;stroke-width:1.42px;"/>
        <path id="LWPOLYLINE_26_" d="M289.475,98.429L290.814,97.357L292.156,96.507L293.323,96.01L294.202,95.92L294.714,96.225L294.738,96.263" style="fill:none;stroke:black;stroke-width:1.42px;"/>
        <path id="LINE_17_" d="M287.583,99.13L289.475,98.429" style="fill:none;stroke:black;stroke-width:1.42px;"/>
        <path id="LWPOLYLINE_27_" d="M284.048,101.548L285.221,100.313L286.32,99.219L287.215,98.434L287.818,98.042L288.074,98.041" style="fill:none;stroke:black;stroke-width:1.42px;"/>
        <path id="LINE_18_" d="M282.872,102.943L283.748,101.859" style="fill:none;stroke:black;stroke-width:1.42px;"/>
        <path id="LWPOLYLINE_28_" d="M281.051,106.845L282.04,105.469L282.698,104.447" style="fill:none;stroke:black;stroke-width:1.42px;"/>
        <path id="LINE_19_" d="M280.648,108.835L281.051,106.845" style="fill:none;stroke:black;stroke-width:1.42px;"/>
        <path id="LINE_20_" d="M358.473,173.176L356.798,174.082" style="fill:none;stroke:black;stroke-width:1.42px;"/>
        <path id="LWPOLYLINE_29_" d="M361.51,170.305L362.086,169.699L362.289,169.493" style="fill:none;stroke:black;stroke-width:1.42px;"/>
        <path id="LINE_21_" d="M362.468,168.715L361.51,170.305" style="fill:none;stroke:black;stroke-width:1.42px;"/>
        <path id="LWPOLYLINE_30_" d="M363.768,164.37L364.533,163.906L364.962,163.882" style="fill:none;stroke:black;stroke-width:1.42px;"/>
        <path id="LINE_22_" d="M363.936,162.188L363.768,164.37" style="fill:none;stroke:black;stroke-width:1.42px;"/>
        <path id="LWPOLYLINE_31_" d="M363.38,156.623L364.344,156.271L364.859,156.323" style="fill:none;stroke:black;stroke-width:1.42px;"/>
        <path id="LINE_23_" d="M362.73,153.976L363.38,156.623" style="fill:none;stroke:black;stroke-width:1.42px;"/>
        <path id="LWPOLYLINE_32_" d="M360.325,147.536L361.482,147.26L361.805,147.288" style="fill:none;stroke:black;stroke-width:1.42px;"/>
        <path id="LINE_24_" d="M358.883,144.594L360.325,147.536" style="fill:none;stroke:black;stroke-width:1.42px;"/>
        <path id="LWPOLYLINE_33_" d="M354.761,137.693L355.787,137.456" style="fill:none;stroke:black;stroke-width:1.42px;"/>
        <path id="LINE_25_" d="M352.62,134.65L354.761,137.693" style="fill:none;stroke:black;stroke-width:1.42px;"/>
        <path id="LWPOLYLINE_34_" d="M347.038,127.748L348.518,127.492L350.023,127.823L351.334,128.699L352.299,129.987L352.84,131.543L352.926,133.219L352.62,134.65" style="fill:none;stroke:black;stroke-width:1.42px;"/>
        <path id="LINE_26_" d="M344.336,124.807L347.038,127.748" style="fill:none;stroke:black;stroke-width:1.42px;"/>
        <path id="LWPOLYLINE_35_" d="M337.663,118.373L339.246,118.055L340.904,118.302L342.4,119.087L343.563,120.292L344.294,121.78L344.539,123.406L344.336,124.807" style="fill:none;stroke:black;stroke-width:1.42px;"/>
        <path id="LINE_27_" d="M334.579,115.734L337.663,118.373" style="fill:none;stroke:black;stroke-width:1.42px;"/>
        <path id="LWPOLYLINE_36_" d="M327.268,110.204L328.902,109.783L330.645,109.883L332.244,110.5L333.523,111.543L334.37,112.889L334.717,114.401L334.579,115.734" style="fill:none;stroke:black;stroke-width:1.42px;"/>
        <path id="LINE_28_" d="M324.009,108.045L327.268,110.204" style="fill:none;stroke:black;stroke-width:1.42px;"/>
        <path id="LWPOLYLINE_37_" d="M323.707,102.014L319.695,99.869L315.746,98.034L311.891,96.525L308.171,95.354L304.618,94.533L301.596,94.094" style="fill:none;stroke:black;stroke-width:1.42px;"/>
        <path id="LWPOLYLINE_38_" d="M302.479,94.184L305.8,94.681L309.318,95.525L312.994,96.71L316.796,98.228L320.688,100.064L324.232,101.971" style="fill:none;stroke:black;stroke-width:1.42px;"/>
        <path id="LWPOLYLINE_39_" d="M366.673,152.552L365.43,148.086L363.523,143.359L360.986,138.446L357.848,133.431L354.167,128.398L350,123.436L345.418,118.627L340.501,114.058L335.334,109.804L330.006,105.941L324.605,102.533L323.707,102.014" style="fill:none;stroke:black;stroke-width:1.42px;"/>
        <path id="LWPOLYLINE_40_" d="M301.596,94.094L298.452,93.946L295.561,94.149L292.947,94.702L290.632,95.597L288.639,96.822L287.15,98.17" style="fill:none;stroke:black;stroke-width:1.42px;"/>
        <path id="LWPOLYLINE_41_" d="M324.232,101.971L329.544,105.241L334.805,108.97L339.919,113.094L344.8,117.541L349.364,122.236L353.537,127.098L357.243,132.043L360.418,136.983L363.018,141.84L365,146.526L366.333,150.969L366.488,151.681" style="fill:none;stroke:black;stroke-width:1.42px;"/>
        <path id="LWPOLYLINE_42_" d="M335.602,119.868L336.514,119.105L337.663,118.373" style="fill:none;stroke:black;stroke-width:1.42px;"/>
        <path id="LWPOLYLINE_43_" d="M332.402,138.398L332.041,138.554" style="fill:none;stroke:black;stroke-width:1.42px;"/>
        <path id="LWPOLYLINE_44_" d="M325.333,132.096L325.509,131.374L325.88,130.683L326.098,130.389" style="fill:none;stroke:black;stroke-width:1.42px;"/>
        <path id="LWPOLYLINE_45_" d="M335.158,120.31L335.496,119.97L335.602,119.868" style="fill:none;stroke:black;stroke-width:1.42px;"/>
        <path id="LWPOLYLINE_46_" d="M344.336,124.807L343.686,125.909L342.883,126.948L342.492,127.379" style="fill:none;stroke:black;stroke-width:1.42px;"/>
        <path id="LWPOLYLINE_47_" d="M333.461,137.479L333.264,137.707L332.688,138.223L332.402,138.398" style="fill:none;stroke:black;stroke-width:1.42px;"/>
        <path id="LWPOLYLINE_48_" d="M280.805,208.485L284.479,207.584L285.957,204.558L284.982,199.866L281.689,194.247L276.596,188.604L270.523,183.851L264.454,180.759L259.587,179.809" style="fill:none;stroke:black;stroke-width:1.42px;"/>
        <path id="LWPOLYLINE_49_" d="M261.254,196.432L266.748,201.72L272.826,205.837L278.559,208.146L280.805,208.485" style="fill:none;stroke:black;stroke-width:1.42px;"/>
        <path id="LWPOLYLINE_50_" d="M259.587,179.809L260.496,177.43" style="fill:none;stroke:black;stroke-width:1.42px;"/>
        <path id="LWPOLYLINE_51_" d="M260.496,177.43L262.189,177.653L264.04,178.127L266.01,178.844L268.074,179.789L270.193,180.95L272.338,182.309L274.473,183.842L276.559,185.526L278.561,187.332L280.449,189.229L282.191,191.188L283.764,193.176L285.13,195.161L286.277,197.108L287.186,198.987L287.838,200.768L288.227,202.42L288.344,203.918L288.191,205.24L287.773,206.362L287.262,207.095" style="fill:none;stroke:black;stroke-width:1.42px;"/>
        <path id="LWPOLYLINE_52_" d="M333.952,117.138L333.396,118.036L333.049,118.505" style="fill:none;stroke:black;stroke-width:1.42px;"/>
        <path id="LWPOLYLINE_53_" d="M314.802,124.359L314.898,123.876" style="fill:none;stroke:black;stroke-width:1.42px;"/>
        <path id="LWPOLYLINE_54_" d="M314.898,123.876L315.188,123.294L315.664,122.719L315.932,122.469" style="fill:none;stroke:black;stroke-width:1.42px;"/>
        <path id="LWPOLYLINE_55_" d="M325.016,112.425L325.318,112.052L326.227,111.08L327.268,110.204" style="fill:none;stroke:black;stroke-width:1.42px;"/>
        <path id="LWPOLYLINE_56_" d="M334.579,115.734L334.073,116.913L333.952,117.138" style="fill:none;stroke:black;stroke-width:1.42px;"/>
        <path id="LWPOLYLINE_57_" d="M323.982,128.577L323.748,128.773L323.042,129.199L322.236,129.443" style="fill:none;stroke:black;stroke-width:1.42px;"/>
        <path id="LWPOLYLINE_58_" d="M338.932,148.664L337.545,148.326L336.271,147.443L335.293,146.152L334.689,144.6L334.52,142.93L334.761,141.503" style="fill:none;stroke:black;stroke-width:1.42px;"/>
        <path id="LWPOLYLINE_59_" d="M334.761,141.503L334.857,140.643L335.137,139.833L335.318,139.493" style="fill:none;stroke:black;stroke-width:1.42px;"/>
        <path id="LWPOLYLINE_60_" d="M344.342,129.391L344.709,129.086L345.809,128.339L347.038,127.748" style="fill:none;stroke:black;stroke-width:1.42px;"/>
        <path id="LWPOLYLINE_61_" d="M352.62,134.65L351.829,135.646L350.911,136.582L350.479,136.972" style="fill:none;stroke:black;stroke-width:1.42px;"/>
        <path id="LWPOLYLINE_62_" d="M341.492,147.083L341.333,147.347L340.875,147.97L340.386,148.416" style="fill:none;stroke:black;stroke-width:1.42px;"/>
        <path id="LWPOLYLINE_63_" d="M321.419,168.675L322.078,167.682L322.48,166.479L322.616,165.086L322.482,163.525L322.081,161.821L321.416,160L320.498,158.094L319.343,156.13L317.969,154.144L316.396,152.167L314.652,150.231L312.764,148.368L310.766,146.61L308.686,144.985L306.563,143.521L304.43,142.238L302.318,141.162L300.271,140.308L298.316,139.688L296.484,139.313L295.152,139.193" style="fill:none;stroke:black;stroke-width:1.42px;"/>
        <path id="LWPOLYLINE_64_" d="M287.262,207.095L283.723,208.58L282.716,208.581" style="fill:none;stroke:black;stroke-width:1.42px;"/>
        <path id="LINE_29_" d="M260.496,177.43L295.152,139.193" style="fill:none;stroke:black;stroke-width:1.42px;"/>
        <path id="LINE_30_" d="M259.587,179.809L261.254,196.432" style="fill:none;stroke:black;stroke-width:1.42px;"/>
        <path id="LWPOLYLINE_65_" d="M326.098,130.389L327.33,128.92L328.788,127.238L330.673,125.131L332.796,122.818L335.158,120.31" style="fill:none;stroke:black;stroke-width:1.42px;"/>
        <path id="LWPOLYLINE_66_" d="M333.049,118.505L331.335,120.647L329.594,122.724L327.656,124.906L325.773,126.875L323.982,128.577" style="fill:none;stroke:black;stroke-width:1.42px;"/>
        <path id="LWPOLYLINE_67_" d="M335.318,139.493L336.387,137.853L337.751,136.067L339.609,133.937L341.805,131.705L344.342,129.391" style="fill:none;stroke:black;stroke-width:1.42px;"/>
        <path id="LWPOLYLINE_68_" d="M342.492,127.379L340.609,129.377L338.771,131.37L336.818,133.538L335.034,135.591L333.461,137.479" style="fill:none;stroke:black;stroke-width:1.42px;"/>
        <path id="LWPOLYLINE_69_" d="M324.104,107.567L324.009,108.045" style="fill:none;stroke:black;stroke-width:1.42px;"/>
        <path id="LWPOLYLINE_70_" d="M304.166,119.233L304.042,118.56L304.171,117.398" style="fill:none;stroke:black;stroke-width:1.42px;"/>
        <path id="LWPOLYLINE_71_" d="M304.171,117.398L304.586,116.948L305.186,116.476L305.5,116.262" style="fill:none;stroke:black;stroke-width:1.42px;"/>
        <path id="LWPOLYLINE_72_" d="M314.6,106.265L314.861,105.866L315.652,104.797L316.555,103.79" style="fill:none;stroke:black;stroke-width:1.42px;"/>
        <path id="LWPOLYLINE_73_" d="M324.009,108.045L323.643,109.269L323.086,110.449L322.789,110.949" style="fill:none;stroke:black;stroke-width:1.42px;"/>
        <path id="LWPOLYLINE_74_" d="M313.699,120.983L313.423,121.152L312.591,121.511L311.635,121.7" style="fill:none;stroke:black;stroke-width:1.42px;"/>
        <path id="LWPOLYLINE_75_" d="M322.789,110.949L321.88,112.319L320.004,114.868L318.063,117.146L316.107,119.087L314.193,120.642L313.699,120.983" style="fill:none;stroke:black;stroke-width:1.42px;"/>
        <path id="LWPOLYLINE_76_" d="M315.932,122.469L317.343,121.156L318.91,119.567L320.818,117.485L322.859,115.104L325.016,112.425" style="fill:none;stroke:black;stroke-width:1.42px;"/>
        <path id="LWPOLYLINE_77_" d="M355.787,137.456L356.096,137.451L357.391,137.798L358.445,138.683L359.145,139.97L359.439,141.517L359.316,143.177L358.883,144.594" style="fill:none;stroke:black;stroke-width:1.42px;"/>
        <path id="LWPOLYLINE_78_" d="M344.674,158.479L344.279,158.302L343.271,157.432L342.551,156.144L342.18,154.583L342.198,152.898L342.548,151.46" style="fill:none;stroke:black;stroke-width:1.42px;"/>
        <path id="LWPOLYLINE_79_" d="M342.548,151.46L342.602,150.476L342.818,149.549L342.968,149.164" style="fill:none;stroke:black;stroke-width:1.42px;"/>
        <path id="LWPOLYLINE_80_" d="M351.943,139.052L352.337,138.785L353.493,138.151L354.761,137.693" style="fill:none;stroke:black;stroke-width:1.42px;"/>
        <path id="LWPOLYLINE_81_" d="M358.883,144.594L357.963,145.466L356.949,146.288L356.484,146.632" style="fill:none;stroke:black;stroke-width:1.42px;"/>
        <path id="LWPOLYLINE_82_" d="M347.547,156.741L347.417,157.042L347.064,157.779L346.721,158.358" style="fill:none;stroke:black;stroke-width:1.42px;"/>
        <path id="LWPOLYLINE_83_" d="M342.968,149.164L343.906,147.348L345.191,145.461L347.025,143.309L349.273,141.161L351.943,139.052" style="fill:none;stroke:black;stroke-width:1.42px;"/>
        <path id="LWPOLYLINE_84_" d="M350.479,136.972L348.453,138.802L346.533,140.699L344.57,142.853L342.874,144.992L341.492,147.083" style="fill:none;stroke:black;stroke-width:1.42px;"/>
        <path id="LWPOLYLINE_85_" d="M313.458,100.961L313.479,101.155L313.346,102.255" style="fill:none;stroke:black;stroke-width:1.42px;"/>
        <path id="LWPOLYLINE_86_" d="M293.984,115.129L293.693,114.103L293.867,113.081" style="fill:none;stroke:black;stroke-width:1.42px;"/>
        <path id="LWPOLYLINE_87_" d="M293.867,113.081L294.426,112.748L295.148,112.361L295.514,112.172" style="fill:none;stroke:black;stroke-width:1.42px;"/>
        <path id="LWPOLYLINE_88_" d="M304.605,102.229L304.83,101.811L305.495,100.668L306.248,99.548" style="fill:none;stroke:black;stroke-width:1.42px;"/>
        <path id="LWPOLYLINE_89_" d="M313.346,102.255L313.098,103.485L312.654,104.696L312.404,105.213" style="fill:none;stroke:black;stroke-width:1.42px;"/>
        <path id="LWPOLYLINE_90_" d="M303.307,115.198L302.992,115.35L302.042,115.669L300.96,115.841" style="fill:none;stroke:black;stroke-width:1.42px;"/>
        <path id="LWPOLYLINE_91_" d="M305.5,116.262L307.447,114.788L309.406,112.937L311.364,110.736L312.546,109.232L313.693,107.632L314.6,106.265" style="fill:none;stroke:black;stroke-width:1.42px;"/>
        <path id="LWPOLYLINE_92_" d="M312.404,105.213L311.057,107.552L309.523,109.733L307.618,111.921L305.542,113.766L303.307,115.198" style="fill:none;stroke:black;stroke-width:1.42px;"/>
        <path id="LWPOLYLINE_93_" d="M357.469,148.642L357.878,148.41L359.057,147.882L360.325,147.536" style="fill:none;stroke:black;stroke-width:1.42px;"/>
        <path id="LWPOLYLINE_94_" d="M348.547,158.749L349.396,156.767L350.623,154.784L352.439,152.613L354.716,150.552L357.469,148.642" style="fill:none;stroke:black;stroke-width:1.42px;"/>
        <path id="LWPOLYLINE_95_" d="M348.182,161.294L348.229,160.205L348.417,159.177L348.547,158.749" style="fill:none;stroke:black;stroke-width:1.42px;"/>
        <path id="LWPOLYLINE_96_" d="M356.484,146.632L354.346,148.289L352.364,150.084L350.402,152.219L348.775,154.445L347.547,156.741" style="fill:none;stroke:black;stroke-width:1.42px;"/>
        <path id="LWPOLYLINE_97_" d="M361.805,147.288L362.518,147.554L363.273,148.367L363.665,149.571L363.671,151.03L363.309,152.612L362.73,153.976" style="fill:none;stroke:black;stroke-width:1.42px;"/>
        <path id="LWPOLYLINE_98_" d="M348.711,167.844L348.659,167.81L347.958,167.032L347.547,165.828L347.453,164.336L347.697,162.705L348.182,161.294" style="fill:none;stroke:black;stroke-width:1.42px;"/>
        <path id="LWPOLYLINE_99_" d="M362.73,153.976L361.698,154.713L360.613,155.417L360.125,155.716" style="fill:none;stroke:black;stroke-width:1.42px;"/>
        <path id="LWPOLYLINE_100_" d="M351.244,165.81L351.132,166.146L350.861,166.998L350.641,167.719" style="fill:none;stroke:black;stroke-width:1.42px;"/>
        <path id="LWPOLYLINE_101_" d="M303.389,97.184L303.489,97.779L303.298,98.732" style="fill:none;stroke:black;stroke-width:1.42px;"/>
        <path id="LWPOLYLINE_102_" d="M284.671,112.979L284.583,112.856L284.41,112.058L284.666,111.19" style="fill:none;stroke:black;stroke-width:1.42px;"/>
        <path id="LWPOLYLINE_103_" d="M284.666,111.19L285.369,110.946L286.212,110.618L286.621,110.446" style="fill:none;stroke:black;stroke-width:1.42px;"/>
        <path id="LWPOLYLINE_104_" d="M295.699,100.558L295.884,100.132L296.425,98.941L297.025,97.733" style="fill:none;stroke:black;stroke-width:1.42px;"/>
        <path id="LWPOLYLINE_105_" d="M303.298,98.732L303.143,99.935L302.801,101.143L302.592,101.668" style="fill:none;stroke:black;stroke-width:1.42px;"/>
        <path id="LWPOLYLINE_106_" d="M293.5,111.599L293.148,111.74L292.104,112.05L290.923,112.243" style="fill:none;stroke:black;stroke-width:1.42px;"/>
        <path id="LWPOLYLINE_107_" d="M295.514,112.172L297.293,111.084L299.075,109.635L301.027,107.595L302.883,105.131L304.605,102.229" style="fill:none;stroke:black;stroke-width:1.42px;"/>
        <path id="LWPOLYLINE_108_" d="M302.592,101.668L301.41,104.04L299.975,106.24L298.09,108.42L295.932,110.231L293.5,111.599" style="fill:none;stroke:black;stroke-width:1.42px;"/>
        <path id="LWPOLYLINE_109_" d="M360.574,157.524L360.982,157.324L362.157,156.883L363.38,156.623" style="fill:none;stroke:black;stroke-width:1.42px;"/>
        <path id="LWPOLYLINE_110_" d="M351.702,167.612L352.508,165.486L353.705,163.419L355.507,161.237L357.79,159.253L360.574,157.524" style="fill:none;stroke:black;stroke-width:1.42px;"/>
        <path id="LWPOLYLINE_111_" d="M351.314,170.353L351.395,169.187L351.584,168.077L351.702,167.612" style="fill:none;stroke:black;stroke-width:1.42px;"/>
        <path id="LWPOLYLINE_112_" d="M360.125,155.716L357.919,157.207L355.902,158.902L353.939,161.014L352.364,163.32L351.244,165.81" style="fill:none;stroke:black;stroke-width:1.42px;"/>
        <path id="LWPOLYLINE_113_" d="M364.859,156.323L365.104,156.448L365.529,157.114L365.585,158.16L365.286,159.464L364.671,160.911L363.936,162.188" style="fill:none;stroke:black;stroke-width:1.42px;"/>
        <path id="LWPOLYLINE_114_" d="M350.402,176.209L350.053,175.611L349.977,174.567L350.188,173.217L350.68,171.696L351.314,170.353" style="fill:none;stroke:black;stroke-width:1.42px;"/>
        <path id="LWPOLYLINE_115_" d="M363.936,162.188L362.824,162.788L361.691,163.381L361.198,163.638" style="fill:none;stroke:black;stroke-width:1.42px;"/>
        <path id="LWPOLYLINE_116_" d="M352.367,173.701L352.268,174.069L352.049,175.029L351.923,175.888" style="fill:none;stroke:black;stroke-width:1.42px;"/>
        <path id="LWPOLYLINE_117_" d="M286.621,110.446L288.563,109.411L290.438,107.997L292.406,105.975L294.176,103.5L295.699,100.558" style="fill:none;stroke:black;stroke-width:1.42px;"/>
        <path id="LWPOLYLINE_118_" d="M284.921,110.395L284.542,110.536L283.422,110.867L282.182,111.112" style="fill:none;stroke:black;stroke-width:1.42px;"/>
        <path id="LWPOLYLINE_119_" d="M293.991,100.519L292.95,102.881L291.604,105.071L289.738,107.241L287.512,109.041L284.921,110.395" style="fill:none;stroke:black;stroke-width:1.42px;"/>
        <path id="LWPOLYLINE_120_" d="M294.529,97.681L294.436,98.822L294.164,100L293.991,100.519" style="fill:none;stroke:black;stroke-width:1.42px;"/>
        <path id="LWPOLYLINE_121_" d="M294.738,96.263L294.811,96.881L294.529,97.681" style="fill:none;stroke:black;stroke-width:1.42px;"/>
        <path id="LWPOLYLINE_122_" d="M276.852,113.172L276.782,113.078L276.788,112.522L277.154,111.808" style="fill:none;stroke:black;stroke-width:1.42px;"/>
        <path id="LWPOLYLINE_123_" d="M277.154,111.808L277.993,111.625L278.357,111.522" style="fill:none;stroke:black;stroke-width:1.42px;"/>
        <path id="LWPOLYLINE_124_" d="M288.438,101.33L288.591,100.902L289.023,99.69L289.475,98.429" style="fill:none;stroke:black;stroke-width:1.42px;"/>
        <path id="LWPOLYLINE_125_" d="M351.846,177.395L351.923,176.846L352.145,175.677L352.27,175.185" style="fill:none;stroke:black;stroke-width:1.42px;"/>
        <path id="LINE_31_" d="M351.861,177.267L351.923,175.888" style="fill:none;stroke:black;stroke-width:1.42px;"/>
        <path id="LWPOLYLINE_126_" d="M361.086,165.13L361.492,164.956L362.621,164.579L363.768,164.37" style="fill:none;stroke:black;stroke-width:1.42px;"/>
        <path id="LWPOLYLINE_127_" d="M352.27,175.185L353.079,172.944L354.271,170.813L356.063,168.624L358.328,166.708L361.086,165.13" style="fill:none;stroke:black;stroke-width:1.42px;"/>
        <path id="LWPOLYLINE_128_" d="M361.198,163.638L358.966,164.976L356.939,166.58L354.984,168.669L353.438,171.044L352.367,173.701" style="fill:none;stroke:black;stroke-width:1.42px;"/>
        <path id="LWPOLYLINE_129_" d="M364.962,163.882L365.006,163.912L365.105,164.37L364.827,165.195L364.221,166.288L363.355,167.554L362.468,168.715" style="fill:none;stroke:black;stroke-width:1.42px;"/>
        <path id="LWPOLYLINE_130_" d="M349.494,183.013L349.461,182.629L349.721,181.807L350.241,180.658L350.984,179.297L351.779,178.055" style="fill:none;stroke:black;stroke-width:1.42px;"/>
        <path id="LWPOLYLINE_131_" d="M362.468,168.715L361.313,169.187L360.163,169.68L359.671,169.902" style="fill:none;stroke:black;stroke-width:1.42px;"/>
        <path id="LWPOLYLINE_132_" d="M350.891,179.924L350.791,180.318L350.598,181.371L350.525,182.359" style="fill:none;stroke:black;stroke-width:1.42px;"/>
        <path id="LWPOLYLINE_133_" d="M288.074,98.041L288.085,98.063L287.982,98.48L287.583,99.13" style="fill:none;stroke:black;stroke-width:1.42px;"/>
        <path id="LWPOLYLINE_134_" d="M271.068,115.775L271.063,115.751L271.285,115.425L271.785,114.854" style="fill:none;stroke:black;stroke-width:1.42px;"/>
        <path id="LWPOLYLINE_135_" d="M271.785,114.854L272.639,114.722" style="fill:none;stroke:black;stroke-width:1.42px;"/>
        <path id="LWPOLYLINE_136_" d="M283.264,104.45L283.393,104.033L283.73,102.828L284.048,101.548" style="fill:none;stroke:black;stroke-width:1.42px;"/>
        <path id="LWPOLYLINE_137_" d="M287.583,99.13L287.516,100.182L287.292,101.302L287.145,101.805" style="fill:none;stroke:black;stroke-width:1.42px;"/>
        <path id="LWPOLYLINE_138_" d="M278.357,111.522L278.945,111.329L279.391,111.161" style="fill:none;stroke:black;stroke-width:1.42px;"/>
        <path id="LWPOLYLINE_139_" d="M279.391,111.161L281.463,110.136L283.413,108.732L285.389,106.722L287.086,104.26L288.438,101.33" style="fill:none;stroke:black;stroke-width:1.42px;"/>
        <path id="LWPOLYLINE_140_" d="M287.145,101.805L286.212,104.116L284.927,106.271L283.081,108.424L280.813,110.233L278.411,111.502" style="fill:none;stroke:black;stroke-width:1.42px;"/>
        <path id="LWPOLYLINE_141_" d="M355.699,130.115L357.016,126.177L356.775,123.99" style="fill:none;stroke:black;stroke-width:1.42px;"/>
        <path id="LWPOLYLINE_142_" d="M339.883,104.017L333.391,101.302L331.05,100.88" style="fill:none;stroke:black;stroke-width:1.42px;"/>
        <path id="LWPOLYLINE_143_" d="M352.48,176.28L354.114,174.319L356.34,172.456L359.02,170.988" style="fill:none;stroke:black;stroke-width:1.42px;"/>
        <path id="LWPOLYLINE_144_" d="M352.07,176.932L351.964,177.136L351.779,177.517" style="fill:none;stroke:black;stroke-width:1.42px;"/>
        <path id="LWPOLYLINE_145_" d="M351.285,178.69L350.891,179.924" style="fill:none;stroke:black;stroke-width:1.42px;"/>
        <path id="LWPOLYLINE_146_" d="M359.02,170.988L359.407,170.831L360.473,170.494L361.51,170.305" style="fill:none;stroke:black;stroke-width:1.42px;"/>
        <path id="LWPOLYLINE_147_" d="M359.671,169.902L357.46,171.115L355.452,172.643L353.508,174.71L352.07,176.932" style="fill:none;stroke:black;stroke-width:1.42px;"/>
        <path id="LWPOLYLINE_148_" d="M358.473,173.176L357.305,173.537L356.169,173.945L355.689,174.142" style="fill:none;stroke:black;stroke-width:1.42px;"/>
        <path id="LWPOLYLINE_149_" d="M332.773,101.052L338.434,102.68L340.898,103.933" style="fill:none;stroke:black;stroke-width:1.42px;"/>
        <path id="LWPOLYLINE_150_" d="M356.775,123.99L356.284,122.205L355.537,120.326L354.54,118.379L353.311,116.4L351.873,114.417L350.247,112.466L348.456,110.58L346.536,108.788L344.516,107.117L342.427,105.6L340.305,104.26L339.883,104.017" style="fill:none;stroke:black;stroke-width:1.42px;"/>
        <path id="LWPOLYLINE_151_" d="M331.05,100.88L326.4,101.583L325.074,102.606" style="fill:none;stroke:black;stroke-width:1.42px;"/>
        <path id="LWPOLYLINE_152_" d="M340.898,103.933L346.947,108.258L352.09,113.719L355.504,119.427L356.422,122.293" style="fill:none;stroke:black;stroke-width:1.42px;"/>
        <path id="LWPOLYLINE_153_" d="M282.872,102.943L282.795,103.885L282.589,104.922L282.457,105.4" style="fill:none;stroke:black;stroke-width:1.42px;"/>
        <path id="LWPOLYLINE_154_" d="M279.702,110.548L280.404,109.748L282.04,107.317L283.264,104.45" style="fill:none;stroke:black;stroke-width:1.42px;"/>
        <path id="LWPOLYLINE_155_" d="M279.046,111.202L279.702,110.548" style="fill:none;stroke:black;stroke-width:1.42px;"/>
        <path id="LWPOLYLINE_156_" d="M282.457,105.4L281.592,107.622L280.354,109.72L280.04,110.149" style="fill:none;stroke:black;stroke-width:1.42px;"/>
        <path id="LWPOLYLINE_157_" d="M354.546,174.761L354.911,174.614L355.887,174.288L356.798,174.082" style="fill:none;stroke:black;stroke-width:1.42px;"/>
        <path id="LWPOLYLINE_158_" d="M353.934,175.036L354.546,174.761" style="fill:none;stroke:black;stroke-width:1.42px;"/>
        <path id="LWPOLYLINE_159_" d="M353.708,175.161L353.546,175.263L353.005,175.616" style="fill:none;stroke:black;stroke-width:1.42px;"/>
        <path id="LWPOLYLINE_160_" d="M355.689,174.142L353.708,175.161" style="fill:none;stroke:black;stroke-width:1.42px;"/>
        <path id="LWPOLYLINE_161_" d="M280.648,108.835L280.622,109.064" style="fill:none;stroke:black;stroke-width:1.42px;"/>
        <path id="LWPOLYLINE_162_" d="M280.622,109.064L280.604,109.205" style="fill:none;stroke:black;stroke-width:1.42px;"/>
        <path id="LWPOLYLINE_163_" d="M280.625,109.083L280.843,108.111L281.051,106.845" style="fill:none;stroke:black;stroke-width:1.42px;"/>
        <path id="LWPOLYLINE_164_" d="M376.169,50.617L379.68,52.429L383.188,54.582L386.639,57.039L389.967,59.758L393.12,62.698L396.045,65.806L398.695,69.031L401.023,72.318L402.994,75.612L404.574,78.858L405.741,82.005L406.473,84.997L406.761,87.79L406.609,90.334L406.014,92.595L404.994,94.536L404.379,95.322" style="fill:none;stroke:black;stroke-width:1.42px;"/>
        <path id="LWPOLYLINE_165_" d="M375.898,48.59L372.134,47.02L368.497,45.878L365.042,45.181L361.827,44.939L358.907,45.152L356.325,45.813L354.12,46.912L352.326,48.425L352.299,48.455" style="fill:none;stroke:black;stroke-width:1.42px;"/>
        <path id="LWPOLYLINE_166_" d="M420.583,81.433L421.93,79.467L422.821,77.14L423.239,74.486L423.176,71.545L422.629,68.366L421.605,64.999L420.122,61.498L418.195,57.922L415.857,54.332L413.148,50.785L410.114,47.341L406.802,44.063L403.271,41L399.577,38.208L395.787,35.731L391.958,33.613L390.234,32.782" style="fill:none;stroke:black;stroke-width:1.42px;"/>
        <path id="LWPOLYLINE_167_" d="M406.632,97.26L407.95,95.319L408.814,93.015L409.206,90.38L409.114,87.458L408.538,84.293L407.482,80.935L405.964,77.441L404.009,73.867L401.645,70.273L398.913,66.719L395.852,63.265L392.52,59.972L388.971,56.891L385.262,54.079L381.459,51.578L377.625,49.432L375.898,48.59" style="fill:none;stroke:black;stroke-width:1.42px;"/>
        <path id="LWPOLYLINE_168_" d="M352.299,48.455L350.945,50.36L350.053,52.622L349.626,55.199L349.667,58.05L350.18,61.129L351.145,64.386L352.546,67.771L354.367,71.23L356.572,74.712L359.127,78.163L361.995,81.53L365.126,84.762L368.482,87.812L372.002,90.632L375.643,93.18L379.339,95.417L383.042,97.309L386.693,98.825L390.236,99.939L393.616,100.635L396.781,100.898L399.677,100.721L402.262,100.107L404.488,99.058L406.32,97.592L406.632,97.26" style="fill:none;stroke:black;stroke-width:1.42px;"/>
        <path id="LWPOLYLINE_169_" d="M390.234,32.782L386.473,31.241L382.83,30.131L379.372,29.465L376.146,29.254L373.211,29.499L370.611,30.191L368.385,31.319L366.568,32.86L366.541,32.889" style="fill:none;stroke:black;stroke-width:1.42px;"/>
        <path id="LWPOLYLINE_170_" d="M355.061,49.857L353.919,51.693L353.202,53.848L352.914,56.284L353.059,58.961L353.631,61.839L354.62,64.868L356.007,68.003L357.77,71.195L359.88,74.396L362.307,77.554L365.012,80.625L367.95,83.558L371.079,86.312L374.352,88.844L377.716,91.115L381.124,93.092L384.523,94.741L387.857,96.037L391.084,96.96L394.143,97.491L396.992,97.623L399.58,97.35L401.871,96.675L403.827,95.604L404.789,94.812" style="fill:none;stroke:black;stroke-width:1.42px;"/>
        <path id="LWPOLYLINE_171_" d="M354.463,50.488L356.104,49.091L358.122,48.074L360.486,47.458L363.162,47.253L366.105,47.466L369.273,48.097L372.607,49.135L376.061,50.566L376.169,50.617" style="fill:none;stroke:black;stroke-width:1.42px;"/>
        <path id="LWPOLYLINE_172_" d="M404.379,95.322L402.768,96.743L400.789,97.781L398.475,98.423L395.863,98.663L392.999,98.498L389.923,97.934L386.691,96.979L383.348,95.653L379.945,93.975L376.537,91.974L373.178,89.68L369.914,87.128L366.797,84.357L363.874,81.41L361.189,78.331L358.784,75.167L356.699,71.965L354.96,68.776L353.602,65.649L352.643,62.63L352.102,59.767L351.986,57.107L352.309,54.693L353.059,52.564L354.229,50.754L354.463,50.488" style="fill:none;stroke:black;stroke-width:1.42px;"/>
        <path id="LWPOLYLINE_173_" d="M377.372,59.611L379.482,60.706L381.589,62.002L383.659,63.48L385.659,65.115L387.557,66.879L389.314,68.747L390.908,70.683L392.311,72.658L393.501,74.639L394.46,76.594L395.172,78.489L395.625,80.295L395.811,81.984L395.73,83.527L395.387,84.9L394.784,86.084L394.359,86.629" style="fill:none;stroke:black;stroke-width:1.42px;"/>
        <path id="LWPOLYLINE_174_" d="M376.898,56.069L374.277,54.97L371.74,54.167L369.329,53.67L367.085,53.49L365.039,53.625L363.227,54.076L361.674,54.83L360.41,55.874L360.331,55.959" style="fill:none;stroke:black;stroke-width:1.42px;"/>
        <path id="LWPOLYLINE_175_" d="M361.266,54.931L362.512,53.865L364.044,53.089L365.838,52.616L367.871,52.455L370.104,52.613L372.505,53.083L375.034,53.864L377.648,54.941L380.311,56.299L382.971,57.913L385.588,59.761L388.117,61.81L390.518,64.025L392.749,66.372L394.771,68.81L396.561,71.299L398.078,73.799L399.301,76.266L400.212,78.662L400.801,80.946L401.055,83.084L400.968,85.039L400.551,86.782L399.807,88.284L399.232,89.035" style="fill:none;stroke:black;stroke-width:1.42px;"/>
        <path id="LWPOLYLINE_176_" d="M398.311,90.074L399.236,88.723L399.842,87.118L400.118,85.283L400.061,83.248L399.666,81.043L398.936,78.708L397.889,76.278L396.537,73.792L394.9,71.292L393.011,68.819L390.893,66.414L388.585,64.117L386.124,61.967L383.553,59.998L380.913,58.244L378.245,56.734L376.898,56.069" style="fill:none;stroke:black;stroke-width:1.42px;"/>
        <path id="LWPOLYLINE_177_" d="M360.331,55.959L359.389,57.295L358.77,58.879L358.473,60.688L358.507,62.688L358.872,64.848L359.555,67.135L360.548,69.511L361.833,71.942L363.389,74.387L365.193,76.81L367.217,79.172L369.43,81.439L371.793,83.574L374.275,85.546L376.836,87.323L379.436,88.879L382.036,90.189L384.594,91.23L387.073,91.989L389.432,92.451L391.634,92.606L393.643,92.454L395.432,91.993L396.963,91.231L398.216,90.179L398.311,90.074" style="fill:none;stroke:black;stroke-width:1.42px;"/>
        <path id="LWPOLYLINE_178_" d="M364.177,59.519L365.165,58.672L366.382,58.054L367.807,57.678L369.414,57.55L371.186,57.673L373.087,58.047L375.093,58.663L377.166,59.516L377.372,59.611" style="fill:none;stroke:black;stroke-width:1.42px;"/>
        <path id="LWPOLYLINE_179_" d="M394.359,86.629L393.384,87.484L392.182,88.108L390.775,88.494L389.189,88.635L387.45,88.529L385.58,88.181L383.611,87.594L381.577,86.781L379.51,85.753L377.438,84.525L375.393,83.121L373.411,81.558L371.523,79.864L369.752,78.063L368.132,76.186L366.682,74.256L365.434,72.31L364.396,70.373L363.598,68.478L363.042,66.653L362.742,64.93L362.704,63.333L362.927,61.889L363.412,60.622L364.146,59.552L364.177,59.519" style="fill:none;stroke:black;stroke-width:1.42px;"/>
        <path id="LWPOLYLINE_180_" d="M63.838,395.282L67.42,397.684L71.09,400.373L74.783,403.302L78.436,406.419L81.988,409.674L85.382,413.014L88.558,416.379L91.463,419.717L94.051,422.966L96.28,426.074L98.109,428.991L99.518,431.671L100.479,434.067L100.985,436.146L101.026,437.876L100.606,439.225L100.256,439.722" style="fill:none;stroke:black;stroke-width:1.42px;"/>
        <path id="LWPOLYLINE_181_" d="M63.079,393.517L59.335,391.253L55.813,389.377L52.569,387.925L49.656,386.91L47.12,386.351L45.001,386.254L43.329,386.616L42.129,387.427L42.113,387.445" style="fill:none;stroke:black;stroke-width:1.42px;"/>
        <path id="LWPOLYLINE_182_" d="M120.111,422.213L120.841,420.895L121.07,419.164L120.8,417.038L120.029,414.55L118.765,411.741L117.024,408.653L114.836,405.34L112.23,401.854L109.254,398.249L105.955,394.594L102.391,390.941L98.615,387.36L94.692,383.907L90.692,380.643L86.688,377.623L82.735,374.897L80.988,373.77" style="fill:none;stroke:black;stroke-width:1.42px;"/>
        <path id="LWPOLYLINE_183_" d="M102.747,441.907L103.432,440.634L103.623,438.94L103.308,436.849L102.491,434.393L101.179,431.612L99.391,428.548L97.159,425.248L94.516,421.769L91.499,418.167L88.164,414.506L84.564,410.844L80.762,407.245L76.818,403.769L72.804,400.478L68.784,397.423L64.832,394.659L63.079,393.517" style="fill:none;stroke:black;stroke-width:1.42px;"/>
        <path id="LWPOLYLINE_184_" d="M42.113,387.445L41.408,388.698L41.197,390.359L41.479,392.403L42.249,394.791L43.488,397.484L45.176,400.443L47.285,403.616L49.778,406.957L52.618,410.412L55.757,413.929L59.153,417.455L62.75,420.937L66.493,424.322L70.328,427.559L74.198,430.603L78.042,433.402L81.803,435.917L85.423,438.104L88.852,439.937L92.028,441.378L94.904,442.407L97.433,443.001L99.574,443.154L101.291,442.854L102.556,442.104L102.747,441.907" style="fill:none;stroke:black;stroke-width:1.42px;"/>
        <path id="LWPOLYLINE_185_" d="M80.988,373.77L77.239,371.551L73.707,369.721L70.446,368.312L67.514,367.348L64.95,366.84L62.803,366.79L61.094,367.198L59.856,368.053L59.838,368.071" style="fill:none;stroke:black;stroke-width:1.42px;"/>
        <path id="LWPOLYLINE_186_" d="M45.25,389.106L44.892,390.507L44.988,392.264L45.536,394.352L46.521,396.738L47.929,399.379L49.733,402.234L51.903,405.26L54.406,408.406L57.204,411.63L60.247,414.876L63.497,418.099L66.899,421.249L70.404,424.277L73.96,427.141L77.509,429.795L81,432.2L84.382,434.314L87.599,436.108L90.604,437.554L93.345,438.626L95.783,439.302L97.874,439.575L99.588,439.434L100.667,439.019" style="fill:none;stroke:black;stroke-width:1.42px;"/>
        <path id="LWPOLYLINE_187_" d="M44.551,389.688L45.646,388.936L47.173,388.594L49.111,388.677L51.431,389.18L54.098,390.103L57.068,391.429L60.297,393.141L63.726,395.208L63.838,395.282" style="fill:none;stroke:black;stroke-width:1.42px;"/>
        <path id="LWPOLYLINE_188_" d="M100.256,439.722L99.18,440.49L97.68,440.843L95.786,440.784L93.524,440.316L90.939,439.446L88.066,438.19L84.955,436.573L81.653,434.62L78.212,432.358L74.686,429.83L71.125,427.068L67.587,424.119L64.123,421.025L60.786,417.835L57.627,414.591L54.692,411.35L52.028,408.159L49.675,405.066L47.673,402.116L46.052,399.358L44.841,396.838L44.06,394.591L43.723,392.656L43.841,391.068L44.413,389.853L44.551,389.688" style="fill:none;stroke:black;stroke-width:1.42px;"/>
        <path id="LWPOLYLINE_189_" d="M52.316,394.458L53.148,393.883L54.31,393.621L55.78,393.677L57.542,394.055L59.562,394.751L61.814,395.751L64.261,397.041L66.861,398.602L69.569,400.408L72.345,402.43L75.142,404.639L77.912,406.992L80.612,409.45L83.191,411.976L85.611,414.526L87.828,417.055L89.811,419.528L91.525,421.895L92.942,424.126L94.039,426.18L94.804,428.024L95.221,429.63L95.286,430.973L95.004,432.035L94.68,432.511" style="fill:none;stroke:black;stroke-width:1.42px;"/>
        <path id="LWPOLYLINE_190_" d="M93.533,433.808L94.016,432.921L94.151,431.741L93.933,430.286L93.369,428.574L92.457,426.638L91.222,424.51L89.675,422.216L87.84,419.799L85.752,417.3L83.444,414.756L80.95,412.208L78.312,409.706L75.577,407.286L72.79,404.989L69.996,402.854L67.243,400.917L65.879,400.022" style="fill:none;stroke:black;stroke-width:1.42px;"/>
        <path id="LWPOLYLINE_191_" d="M51.15,395.738L50.659,396.614L50.515,397.782L50.716,399.214L51.257,400.889L52.132,402.781L53.322,404.86L54.807,407.092L56.565,409.438L58.568,411.871L60.786,414.344L63.179,416.823L65.714,419.266L68.349,421.645L71.048,423.913L73.771,426.042L76.471,427.998L79.106,429.747L81.641,431.264L84.035,432.529L86.243,433.514L88.24,434.206L89.987,434.594L91.457,434.667L92.627,434.426L93.475,433.87L93.533,433.808" style="fill:none;stroke:black;stroke-width:1.42px;"/>
        <path id="LWPOLYLINE_192_" d="M65.879,400.022L63.268,398.44L60.812,397.126L58.544,396.102L56.507,395.385L54.728,394.979L53.237,394.897L52.054,395.135L51.199,395.688L51.15,395.738" style="fill:none;stroke:black;stroke-width:1.42px;"/>
        <path id="LWPOLYLINE_193_" d="M67.202,403.098L69.354,404.549L71.557,406.166L73.771,407.925L75.965,409.795L78.101,411.751L80.135,413.753L82.047,415.776L83.793,417.778L85.355,419.734L86.705,421.604L87.816,423.366L88.675,424.986L89.269,426.439L89.587,427.704L89.628,428.76L89.39,429.589L89.152,429.932" style="fill:none;stroke:black;stroke-width:1.42px;"/>
        <path id="LWPOLYLINE_194_" d="M55.472,399.681L56.13,399.222L57.051,399.016L58.215,399.063L59.612,399.364L61.215,399.914L62.997,400.708L64.935,401.731L66.993,402.966L67.202,403.098" style="fill:none;stroke:black;stroke-width:1.42px;"/>
        <path id="LWPOLYLINE_195_" d="M89.152,429.932L88.499,430.394L87.59,430.609L86.44,430.571L85.064,430.282L83.494,429.751L81.744,428.982L79.85,427.995L77.839,426.801L75.742,425.419L73.595,423.872L71.425,422.183L69.272,420.381L67.167,418.49L65.141,416.544L63.226,414.567L61.453,412.596L59.847,410.659L58.439,408.783L57.245,407.004L56.286,405.343L55.581,403.831L55.139,402.49L54.969,401.34L55.075,400.408L55.454,399.702L55.472,399.681" style="fill:none;stroke:black;stroke-width:1.42px;"/>
        <path id="LWPOLYLINE_196_" d="M134.686,281.84L136.468,284.064L138.067,286.249L139.167,287.924L140.014,289.499" style="fill:none;stroke:black;stroke-width:1.42px;"/>
        <path id="LINE_32_" d="M140.014,289.499L142.579,290.992" style="fill:none;stroke:black;stroke-width:1.42px;"/>
        <path id="LWPOLYLINE_197_" d="M142.579,290.992L142.487,290.018L142.632,289.212L142.914,288.519L143.402,287.816" style="fill:none;stroke:black;stroke-width:1.42px;"/>
        <path id="LINE_33_" d="M144.017,287.26L146.131,288.622" style="fill:none;stroke:black;stroke-width:1.42px;"/>
        <path id="LWPOLYLINE_198_" d="M146.131,288.622L147.534,290.765L148.722,292.824L149.478,294.362L149.948,295.745" style="fill:none;stroke:black;stroke-width:1.42px;"/>
        <path id="LINE_34_" d="M149.948,295.745L152.609,297.621" style="fill:none;stroke:black;stroke-width:1.42px;"/>
        <path id="LWPOLYLINE_199_" d="M152.609,297.621L152.859,296.903L153.153,296.556" style="fill:none;stroke:black;stroke-width:1.42px;"/>
        <path id="LINE_35_" d="M155.818,295.447L157.961,297.083" style="fill:none;stroke:black;stroke-width:1.42px;"/>
        <path id="LWPOLYLINE_200_" d="M157.961,297.083L158.915,299.044L159.632,300.876L160,302.202L160.07,303.329" style="fill:none;stroke:black;stroke-width:1.42px;"/>
        <path id="LINE_36_" d="M160.07,303.329L162.699,305.499" style="fill:none;stroke:black;stroke-width:1.42px;"/>
        <path id="LWPOLYLINE_201_" d="M162.699,305.499L163.14,305.143" style="fill:none;stroke:black;stroke-width:1.42px;"/>
        <path id="LINE_37_" d="M167.542,304.99L169.61,306.828" style="fill:none;stroke:black;stroke-width:1.42px;"/>
        <path id="LWPOLYLINE_202_" d="M169.61,306.828L170.068,308.513L170.274,310.03L170.236,311.083L169.901,311.898" style="fill:none;stroke:black;stroke-width:1.42px;"/>
        <path id="LINE_38_" d="M169.901,311.898L172.374,314.26" style="fill:none;stroke:black;stroke-width:1.42px;"/>
        <path id="LWPOLYLINE_203_" d="M172.374,314.26L173.268,314.147L174.353,314.254L175.535,314.483L178.62,315.438" style="fill:none;stroke:black;stroke-width:1.42px;"/>
        <path id="LINE_39_" d="M178.62,315.438L180.514,317.385" style="fill:none;stroke:black;stroke-width:1.42px;"/>
        <path id="LWPOLYLINE_204_" d="M180.514,317.385L180.449,318.715L180.138,319.846L179.732,320.529" style="fill:none;stroke:black;stroke-width:1.42px;"/>
        <path id="LINE_40_" d="M178.967,321.041L181.167,323.481" style="fill:none;stroke:black;stroke-width:1.42px;"/>
        <path id="LWPOLYLINE_205_" d="M181.167,323.481L182.326,323.684L183.64,324.101L185.031,324.637L188.519,326.284" style="fill:none;stroke:black;stroke-width:1.42px;"/>
        <path id="LINE_41_" d="M188.519,326.284L190.148,328.245" style="fill:none;stroke:black;stroke-width:1.42px;"/>
        <path id="LWPOLYLINE_206_" d="M190.148,328.245L189.565,329.157L189.324,329.413" style="fill:none;stroke:black;stroke-width:1.42px;"/>
        <path id="LINE_42_" d="M186.842,330.318L188.668,332.727" style="fill:none;stroke:black;stroke-width:1.42px;"/>
        <path id="LWPOLYLINE_207_" d="M188.668,332.727L190.033,333.23L191.515,333.938L193.042,334.751L196.771,337.001" style="fill:none;stroke:black;stroke-width:1.42px;"/>
        <path id="LINE_43_" d="M196.771,337.001L198.052,338.885" style="fill:none;stroke:black;stroke-width:1.42px;"/>
        <path id="LWPOLYLINE_208_" d="M198.052,338.885L196.988,339.338L195.711,339.57L194.547,339.57L193.165,339.3" style="fill:none;stroke:black;stroke-width:1.42px;"/>
        <path id="LINE_44_" d="M193.165,339.3L194.529,341.555" style="fill:none;stroke:black;stroke-width:1.42px;"/>
        <path id="LWPOLYLINE_209_" d="M194.529,341.555L196.038,342.338L197.617,343.292L199.211,344.34L202.993,347.081" style="fill:none;stroke:black;stroke-width:1.42px;"/>
        <path id="LINE_45_" d="M202.993,347.081L203.881,348.798" style="fill:none;stroke:black;stroke-width:1.42px;"/>
        <path id="LWPOLYLINE_210_" d="M203.881,348.798L202.387,348.783L200.717,348.545L199.264,348.177L197.652,347.557" style="fill:none;stroke:black;stroke-width:1.42px;"/>
        <path id="LINE_46_" d="M197.652,347.557L198.5,349.562" style="fill:none;stroke:black;stroke-width:1.42px;"/>
        <path id="LWPOLYLINE_211_" d="M198.5,349.562L200.079,350.577L201.678,351.739L203.263,352.968L206.934,356.058" style="fill:none;stroke:black;stroke-width:1.42px;"/>
        <path id="LINE_47_" d="M206.934,356.058L207.386,357.532" style="fill:none;stroke:black;stroke-width:1.42px;"/>
        <path id="LWPOLYLINE_212_" d="M207.386,357.532L205.54,357.058L203.552,356.37L201.893,355.665L200.12,354.726" style="fill:none;stroke:black;stroke-width:1.42px;"/>
        <path id="LINE_48_" d="M200.12,354.726L200.423,356.391" style="fill:none;stroke:black;stroke-width:1.42px;"/>
        <path id="LWPOLYLINE_213_" d="M200.423,356.391L201.999,357.591L203.546,358.899L205.054,360.249L208.439,363.542" style="fill:none;stroke:black;stroke-width:1.42px;"/>
        <path id="LINE_49_" d="M208.439,363.542L208.451,364.71" style="fill:none;stroke:black;stroke-width:1.42px;"/>
        <path id="LWPOLYLINE_214_" d="M208.451,364.71L206.339,363.804L204.134,362.711L202.34,361.702L200.493,360.496" style="fill:none;stroke:black;stroke-width:1.42px;"/>
        <path id="LINE_50_" d="M200.493,360.496L200.24,361.749" style="fill:none;stroke:black;stroke-width:1.42px;"/>
        <path id="LWPOLYLINE_215_" d="M200.24,361.749L201.752,363.078L203.178,364.469L204.54,365.878L207.498,369.221" style="fill:none;stroke:black;stroke-width:1.42px;"/>
        <path id="LINE_51_" d="M207.498,369.221L207.075,370.036" style="fill:none;stroke:black;stroke-width:1.42px;"/>
        <path id="LWPOLYLINE_216_" d="M207.075,370.036L204.795,368.754L202.475,367.306L200.625,366.049L198.788,364.636" style="fill:none;stroke:black;stroke-width:1.42px;"/>
        <path id="LINE_52_" d="M198.788,364.636L198.008,365.43" style="fill:none;stroke:black;stroke-width:1.42px;"/>
        <path id="LWPOLYLINE_217_" d="M198.008,365.43L199.379,366.825L200.628,368.236L201.787,369.638L204.202,372.883" style="fill:none;stroke:black;stroke-width:1.42px;"/>
        <path id="LINE_53_" d="M204.202,372.883L203.369,373.318" style="fill:none;stroke:black;stroke-width:1.42px;"/>
        <path id="LWPOLYLINE_218_" d="M203.369,373.318L201.028,371.718L198.693,369.995L196.87,368.542L195.121,366.989" style="fill:none;stroke:black;stroke-width:1.42px;"/>
        <path id="LINE_54_" d="M195.121,366.989L193.853,367.301" style="fill:none;stroke:black;stroke-width:1.42px;"/>
        <path id="LWPOLYLINE_219_" d="M193.853,367.301L195.035,368.698L196.053,370.068L196.964,371.403L198.741,374.409" style="fill:none;stroke:black;stroke-width:1.42px;"/>
        <path id="LINE_55_" d="M198.741,374.409L197.547,374.453" style="fill:none;stroke:black;stroke-width:1.42px;"/>
        <path id="LWPOLYLINE_220_" d="M197.547,374.453L195.241,372.618L192.992,370.691L191.277,369.118L189.683,367.492" style="fill:none;stroke:black;stroke-width:1.42px;"/>
        <path id="LINE_56_" d="M189.683,367.492L187.992,367.315" style="fill:none;stroke:black;stroke-width:1.42px;"/>
        <path id="LWPOLYLINE_221_" d="M187.992,367.315L188.936,368.654L189.689,369.927L190.318,371.138L191.4,373.782" style="fill:none;stroke:black;stroke-width:1.42px;"/>
        <path id="LINE_57_" d="M191.4,373.782L189.895,373.441" style="fill:none;stroke:black;stroke-width:1.42px;"/>
        <path id="LWPOLYLINE_222_" d="M189.895,373.441L187.725,371.45L185.651,369.413L184.107,367.78L182.737,366.154" style="fill:none;stroke:black;stroke-width:1.42px;"/>
        <path id="LINE_58_" d="M182.737,366.154L180.702,365.508" style="fill:none;stroke:black;stroke-width:1.42px;"/>
        <path id="LWPOLYLINE_223_" d="M180.702,365.508L181.373,366.733L181.832,367.854L182.161,368.895L182.514,371.071" style="fill:none;stroke:black;stroke-width:1.42px;"/>
        <path id="LINE_59_" d="M182.514,371.071L180.773,370.368" style="fill:none;stroke:black;stroke-width:1.42px;"/>
        <path id="LWPOLYLINE_224_" d="M180.773,370.368L178.82,368.306L177.003,366.239L175.697,364.626L174.6,363.06" style="fill:none;stroke:black;stroke-width:1.42px;"/>
        <path id="LINE_60_" d="M174.6,363.06L172.31,361.975" style="fill:none;stroke:black;stroke-width:1.42px;"/>
        <path id="LWPOLYLINE_225_" d="M172.31,361.975L172.68,363.04L172.833,363.964L172.856,364.796L172.48,366.422" style="fill:none;stroke:black;stroke-width:1.42px;"/>
        <path id="LINE_61_" d="M172.48,366.422L170.574,365.389" style="fill:none;stroke:black;stroke-width:1.42px;"/>
        <path id="LWPOLYLINE_226_" d="M170.574,365.389L168.913,363.343L167.422,361.338L166.398,359.8L165.616,358.367" style="fill:none;stroke:black;stroke-width:1.42px;"/>
        <path id="LINE_62_" d="M165.616,358.367L163.164,356.89" style="fill:none;stroke:black;stroke-width:1.42px;"/>
        <path id="LWPOLYLINE_227_" d="M163.164,356.89L163.234,357.753L163.076,358.446L162.793,359.032L162.699,359.167" style="fill:none;stroke:black;stroke-width:1.42px;"/>
        <path id="LINE_63_" d="M161.711,360.052L159.72,358.738" style="fill:none;stroke:black;stroke-width:1.42px;"/>
        <path id="LWPOLYLINE_228_" d="M159.72,358.738L158.415,356.788L157.306,354.917L156.941,354.226" style="fill:none;stroke:black;stroke-width:1.42px;"/>
        <path id="LWPOLYLINE_229_" d="M123.247,325.005L123.193,324.981L120.018,323.44" style="fill:none;stroke:black;stroke-width:1.42px;"/>
        <path id="LINE_64_" d="M120.018,323.44L118.459,321.599" style="fill:none;stroke:black;stroke-width:1.42px;"/>
        <path id="LWPOLYLINE_230_" d="M118.459,321.599L118.9,320.731L119.129,320.449" style="fill:none;stroke:black;stroke-width:1.42px;"/>
        <path id="LINE_65_" d="M121.217,319.599L119.435,317.308" style="fill:none;stroke:black;stroke-width:1.42px;"/>
        <path id="LWPOLYLINE_231_" d="M119.435,317.308L118.194,316.842L116.835,316.182L115.436,315.427L112.007,313.327" style="fill:none;stroke:black;stroke-width:1.42px;"/>
        <path id="LINE_66_" d="M112.007,313.327L110.73,311.53" style="fill:none;stroke:black;stroke-width:1.42px;"/>
        <path id="LWPOLYLINE_232_" d="M110.73,311.53L111.613,311.056L112.704,310.798L113.724,310.768L114.959,310.998" style="fill:none;stroke:black;stroke-width:1.42px;"/>
        <path id="LINE_67_" d="M114.959,310.998L113.571,308.81" style="fill:none;stroke:black;stroke-width:1.42px;"/>
        <path id="LWPOLYLINE_233_" d="M113.571,308.81L112.181,308.081L110.716,307.183L109.231,306.202L105.69,303.62" style="fill:none;stroke:black;stroke-width:1.42px;"/>
        <path id="LINE_68_" d="M105.69,303.62L104.749,301.94" style="fill:none;stroke:black;stroke-width:1.42px;"/>
        <path id="LWPOLYLINE_234_" d="M104.749,301.94L106.04,301.887L107.517,302.055L108.819,302.361L110.295,302.917" style="fill:none;stroke:black;stroke-width:1.42px;"/>
        <path id="LINE_69_" d="M110.295,302.917L109.36,300.926" style="fill:none;stroke:black;stroke-width:1.42px;"/>
        <path id="LWPOLYLINE_235_" d="M109.36,300.926L107.872,299.965L106.361,298.858L104.849,297.688L101.338,294.721" style="fill:none;stroke:black;stroke-width:1.42px;"/>
        <path id="LINE_70_" d="M101.338,294.721L100.779,293.23" style="fill:none;stroke:black;stroke-width:1.42px;"/>
        <path id="LWPOLYLINE_236_" d="M100.779,293.23L102.435,293.609L104.241,294.201L105.772,294.835L107.428,295.703" style="fill:none;stroke:black;stroke-width:1.42px;"/>
        <path id="LINE_71_" d="M107.428,295.703L106.996,293.992" style="fill:none;stroke:black;stroke-width:1.42px;"/>
        <path id="LWPOLYLINE_237_" d="M106.996,293.992L105.476,292.835L103.976,291.565L102.505,290.248L99.174,287.013" style="fill:none;stroke:black;stroke-width:1.42px;"/>
        <path id="LINE_72_" d="M99.174,287.013L99.026,285.775" style="fill:none;stroke:black;stroke-width:1.42px;"/>
        <path id="LWPOLYLINE_238_" d="M99.026,285.775L100.979,286.578L103.043,287.578L104.743,288.522L106.514,289.671" style="fill:none;stroke:black;stroke-width:1.42px;"/>
        <path id="LINE_73_" d="M106.514,289.671L106.608,288.319" style="fill:none;stroke:black;stroke-width:1.42px;"/>
        <path id="LWPOLYLINE_239_" d="M106.608,288.319L105.12,287.01L103.696,285.625L102.332,284.216L99.324,280.843" style="fill:none;stroke:black;stroke-width:1.42px;"/>
        <path id="LINE_74_" d="M99.324,280.843L99.603,279.917" style="fill:none;stroke:black;stroke-width:1.42px;"/>
        <path id="LWPOLYLINE_240_" d="M99.603,279.917L101.779,281.117L104.014,282.497L105.814,283.713L107.623,285.099" style="fill:none;stroke:black;stroke-width:1.42px;"/>
        <path id="LINE_75_" d="M107.623,285.099L108.249,284.169" style="fill:none;stroke:black;stroke-width:1.42px;"/>
        <path id="LWPOLYLINE_241_" d="M108.249,284.169L106.861,282.761L105.579,281.32L104.379,279.879L101.838,276.512" style="fill:none;stroke:black;stroke-width:1.42px;"/>
        <path id="LINE_76_" d="M101.838,276.512L102.538,275.941" style="fill:none;stroke:black;stroke-width:1.42px;"/>
        <path id="LWPOLYLINE_242_" d="M102.538,275.941L104.843,277.5L107.161,279.2L108.978,280.646L110.746,282.213" style="fill:none;stroke:black;stroke-width:1.42px;"/>
        <path id="LINE_77_" d="M110.746,282.213L111.889,281.758" style="fill:none;stroke:black;stroke-width:1.42px;"/>
        <path id="LWPOLYLINE_243_" d="M111.889,281.758L110.66,280.308L109.584,278.871L108.604,277.458L106.649,274.245" style="fill:none;stroke:black;stroke-width:1.42px;"/>
        <path id="LINE_78_" d="M106.649,274.245L107.755,274.068" style="fill:none;stroke:black;stroke-width:1.42px;"/>
        <path id="LWPOLYLINE_244_" d="M107.755,274.068L110.083,275.92L112.377,277.879L114.136,279.494L115.783,281.176" style="fill:none;stroke:black;stroke-width:1.42px;"/>
        <path id="LINE_79_" d="M115.783,281.176L117.4,281.22" style="fill:none;stroke:black;stroke-width:1.42px;"/>
        <path id="LWPOLYLINE_245_" d="M117.4,281.22L116.395,279.796L115.571,278.426L114.862,277.109L113.598,274.195" style="fill:none;stroke:black;stroke-width:1.42px;"/>
        <path id="LINE_80_" d="M113.598,274.195L115.065,274.427" style="fill:none;stroke:black;stroke-width:1.42px;"/>
        <path id="LWPOLYLINE_246_" d="M115.065,274.427L117.315,276.495L119.479,278.626L121.094,280.34L122.541,282.064" style="fill:none;stroke:black;stroke-width:1.42px;"/>
        <path id="LINE_81_" d="M122.541,282.064L124.57,282.62" style="fill:none;stroke:black;stroke-width:1.42px;"/>
        <path id="LWPOLYLINE_247_" d="M124.57,282.62L123.829,281.285L123.305,280.046L122.908,278.882L122.408,276.406" style="fill:none;stroke:black;stroke-width:1.42px;"/>
        <path id="LINE_82_" d="M122.408,276.406L124.173,277.044" style="fill:none;stroke:black;stroke-width:1.42px;"/>
        <path id="LWPOLYLINE_248_" d="M124.173,277.044L126.24,279.241L128.169,281.45L129.563,283.184L130.739,284.873" style="fill:none;stroke:black;stroke-width:1.42px;"/>
        <path id="LINE_83_" d="M130.739,284.873L133.086,285.917" style="fill:none;stroke:black;stroke-width:1.42px;"/>
        <path id="LWPOLYLINE_249_" d="M133.086,285.917L132.66,284.734L132.462,283.69L132.398,282.737L132.704,280.82" style="fill:none;stroke:black;stroke-width:1.42px;"/>
        <path id="LINE_84_" d="M132.704,280.82L134.686,281.84" style="fill:none;stroke:black;stroke-width:1.42px;"/>
        <path id="LWPOLYLINE_250_" d="M197.755,275L180.914,291.718L167.542,304.99" style="fill:none;stroke:black;stroke-width:1.42px;"/>
        <path id="LWPOLYLINE_251_" d="M199.782,276.844L182.96,293.559L169.61,306.828" style="fill:none;stroke:black;stroke-width:1.42px;"/>
        <path id="LINE_85_" d="M197.755,275L199.782,276.844" style="fill:none;stroke:black;stroke-width:1.42px;"/>
        <path id="LWPOLYLINE_252_" d="M208.551,285.466L191.871,302.176L178.62,315.438" style="fill:none;stroke:black;stroke-width:1.42px;"/>
        <path id="LWPOLYLINE_253_" d="M210.38,287.413L193.735,304.12L180.514,317.385" style="fill:none;stroke:black;stroke-width:1.42px;"/>
        <path id="LINE_86_" d="M208.551,285.466L210.38,287.413" style="fill:none;stroke:black;stroke-width:1.42px;"/>
        <path id="LWPOLYLINE_254_" d="M186.189,265.402L169.254,282.149L155.818,295.447" style="fill:none;stroke:black;stroke-width:1.42px;"/>
        <path id="LWPOLYLINE_255_" d="M188.313,267.051L171.389,283.793L157.961,297.083" style="fill:none;stroke:black;stroke-width:1.42px;"/>
        <path id="LINE_87_" d="M186.189,265.402L188.313,267.051" style="fill:none;stroke:black;stroke-width:1.42px;"/>
        <path id="LWPOLYLINE_256_" d="M199.935,281.384L199.776,281.655" style="fill:none;stroke:black;stroke-width:1.42px;"/>
        <path id="LWPOLYLINE_257_" d="M199.776,281.655L199.629,281.817" style="fill:none;stroke:black;stroke-width:1.42px;"/>
        <path id="LWPOLYLINE_258_" d="M180.049,301.626L179.741,301.94" style="fill:none;stroke:black;stroke-width:1.42px;"/>
        <path id="LWPOLYLINE_259_" d="M179.741,301.94L169.901,311.898" style="fill:none;stroke:black;stroke-width:1.42px;"/>
        <path id="LWPOLYLINE_260_" d="M199.629,281.817L183.055,298.585L180.049,301.626" style="fill:none;stroke:black;stroke-width:1.42px;"/>
        <path id="LWPOLYLINE_261_" d="M199.782,276.844L200.111,278.502L200.193,279.997L200.058,281.026L199.935,281.384" style="fill:none;stroke:black;stroke-width:1.42px;"/>
        <path id="LWPOLYLINE_262_" d="M163.14,305.143L163.287,305.075L164.09,304.864L165.011,304.775L167.542,304.99" style="fill:none;stroke:black;stroke-width:1.42px;"/>
        <path id="LWPOLYLINE_263_" d="M193.012,275.085L193.235,274.995L194.106,274.803L195.088,274.736L197.755,275" style="fill:none;stroke:black;stroke-width:1.42px;"/>
        <path id="LWPOLYLINE_264_" d="M192.577,275.4L175.92,292.18L162.699,305.499" style="fill:none;stroke:black;stroke-width:1.42px;"/>
        <path id="LWPOLYLINE_265_" d="M192.577,275.4L192.768,275.227" style="fill:none;stroke:black;stroke-width:1.42px;"/>
        <path id="LWPOLYLINE_266_" d="M192.768,275.227L193.012,275.085" style="fill:none;stroke:black;stroke-width:1.42px;"/>
        <path id="LWPOLYLINE_267_" d="M189.983,273.218L173.306,290.003L160.07,303.329" style="fill:none;stroke:black;stroke-width:1.42px;"/>
        <path id="LWPOLYLINE_268_" d="M188.313,267.051L189.148,268.992L189.742,270.804L190.013,272.112L189.983,273.218" style="fill:none;stroke:black;stroke-width:1.42px;"/>
        <path id="LWPOLYLINE_269_" d="M202.037,284.184L185.501,300.952L172.374,314.26" style="fill:none;stroke:black;stroke-width:1.42px;"/>
        <path id="LWPOLYLINE_270_" d="M202.037,284.184L202.993,284.09L204.134,284.216L205.366,284.466L208.551,285.466" style="fill:none;stroke:black;stroke-width:1.42px;"/>
        <path id="LWPOLYLINE_271_" d="M179.732,320.529L179.693,320.573L178.967,321.041" style="fill:none;stroke:black;stroke-width:1.42px;"/>
        <path id="LWPOLYLINE_272_" d="M210.38,287.413L210.189,288.712L209.756,289.816L209.345,290.389" style="fill:none;stroke:black;stroke-width:1.42px;"/>
        <path id="LWPOLYLINE_273_" d="M153.153,296.556L153.345,296.382L153.959,295.982L155.818,295.447" style="fill:none;stroke:black;stroke-width:1.42px;"/>
        <path id="LWPOLYLINE_274_" d="M183.137,266.543L183.478,266.266L184.167,265.887L186.189,265.402" style="fill:none;stroke:black;stroke-width:1.42px;"/>
        <path id="LWPOLYLINE_275_" d="M218.055,296.292L201.596,313.01L188.519,326.284" style="fill:none;stroke:black;stroke-width:1.42px;"/>
        <path id="LWPOLYLINE_276_" d="M219.596,298.247L203.187,314.968L190.148,328.245" style="fill:none;stroke:black;stroke-width:1.42px;"/>
        <path id="LINE_88_" d="M218.055,296.292L219.596,298.247" style="fill:none;stroke:black;stroke-width:1.42px;"/>
        <path id="LWPOLYLINE_277_" d="M176.532,258.509L159.576,275.297L146.131,288.622" style="fill:none;stroke:black;stroke-width:1.42px;"/>
        <path id="LWPOLYLINE_278_" d="M179.938,265.572L163.214,282.393L149.948,295.745" style="fill:none;stroke:black;stroke-width:1.42px;"/>
        <path id="LWPOLYLINE_279_" d="M176.532,258.509L177.826,260.638L178.899,262.682L179.561,264.205L179.938,265.572" style="fill:none;stroke:black;stroke-width:1.42px;"/>
        <path id="LWPOLYLINE_280_" d="M174.409,257.129L157.458,273.927L144.017,287.26" style="fill:none;stroke:black;stroke-width:1.42px;"/>
        <path id="LINE_89_" d="M174.409,257.129L176.532,258.509" style="fill:none;stroke:black;stroke-width:1.42px;"/>
        <path id="LWPOLYLINE_281_" d="M210.521,293.401L194.162,310.169L181.167,323.481" style="fill:none;stroke:black;stroke-width:1.42px;"/>
        <path id="LWPOLYLINE_282_" d="M210.521,293.401L211.727,293.621L213.083,294.056L214.506,294.609L218.055,296.292" style="fill:none;stroke:black;stroke-width:1.42px;"/>
        <path id="LWPOLYLINE_283_" d="M189.324,329.413L188.751,329.854L187.925,330.221L186.842,330.318" style="fill:none;stroke:black;stroke-width:1.42px;"/>
        <path id="LWPOLYLINE_284_" d="M219.596,298.247L218.902,299.13L218.882,299.147" style="fill:none;stroke:black;stroke-width:1.42px;"/>
        <path id="LWPOLYLINE_285_" d="M143.402,287.816L144.017,287.26" style="fill:none;stroke:black;stroke-width:1.42px;"/>
        <path id="LWPOLYLINE_286_" d="M173.503,257.868L174.409,257.129" style="fill:none;stroke:black;stroke-width:1.42px;"/>
        <path id="LINE_90_" d="M199.629,281.817L202.037,284.184" style="fill:none;stroke:black;stroke-width:1.42px;"/>
        <path id="LINE_91_" d="M189.983,273.218L192.577,275.4" style="fill:none;stroke:black;stroke-width:1.42px;"/>
        <path id="LINE_92_" d="M208.627,291.212L210.521,293.401" style="fill:none;stroke:black;stroke-width:1.42px;"/>
        <path id="LWPOLYLINE_287_" d="M165.001,251.619L148.092,268.469L134.686,281.84" style="fill:none;stroke:black;stroke-width:1.42px;"/>
        <path id="LWPOLYLINE_288_" d="M169.963,259.238L153.259,276.109L140.014,289.499" style="fill:none;stroke:black;stroke-width:1.42px;"/>
        <path id="LWPOLYLINE_289_" d="M165.001,251.619L166.689,253.833L168.189,256.012L169.207,257.679L169.963,259.238" style="fill:none;stroke:black;stroke-width:1.42px;"/>
        <path id="LWPOLYLINE_290_" d="M225.819,306.955L209.633,323.702L196.771,337.001" style="fill:none;stroke:black;stroke-width:1.42px;"/>
        <path id="LWPOLYLINE_291_" d="M227.007,308.825L210.877,325.581L198.052,338.885" style="fill:none;stroke:black;stroke-width:1.42px;"/>
        <path id="LINE_93_" d="M225.819,306.955L227.007,308.825" style="fill:none;stroke:black;stroke-width:1.42px;"/>
        <path id="LINE_94_" d="M179.938,265.572L182.314,267.269" style="fill:none;stroke:black;stroke-width:1.42px;"/>
        <path id="LWPOLYLINE_292_" d="M162.987,250.575L146.096,267.437L132.704,280.82" style="fill:none;stroke:black;stroke-width:1.42px;"/>
        <path id="LINE_95_" d="M162.987,250.575L165.001,251.619" style="fill:none;stroke:black;stroke-width:1.42px;"/>
        <path id="LWPOLYLINE_293_" d="M217.626,302.605L201.49,319.396L188.668,332.727" style="fill:none;stroke:black;stroke-width:1.42px;"/>
        <path id="LWPOLYLINE_294_" d="M217.626,302.605L219.026,303.129L220.531,303.852L222.078,304.676L225.819,306.955" style="fill:none;stroke:black;stroke-width:1.42px;"/>
        <path id="LINE_96_" d="M216.75,301.379L217.626,302.605" style="fill:none;stroke:black;stroke-width:1.42px;"/>
        <path id="LINE_97_" d="M169.963,259.238L171.292,260.02" style="fill:none;stroke:black;stroke-width:1.42px;"/>
        <path id="LWPOLYLINE_295_" d="M154.271,246.69L137.479,263.614L124.173,277.044" style="fill:none;stroke:black;stroke-width:1.42px;"/>
        <path id="LWPOLYLINE_296_" d="M132.427,283.149L130.739,284.873" style="fill:none;stroke:black;stroke-width:1.42px;"/>
        <path id="LWPOLYLINE_297_" d="M154.271,246.69L156.268,248.887L158.118,251.095L159.441,252.827L159.991,253.621" style="fill:none;stroke:black;stroke-width:1.42px;"/>
        <path id="LWPOLYLINE_298_" d="M196.547,339.42L194.529,341.555" style="fill:none;stroke:black;stroke-width:1.42px;"/>
        <path id="LWPOLYLINE_299_" d="M231.494,316.95L215.617,333.745L202.993,347.081" style="fill:none;stroke:black;stroke-width:1.42px;"/>
        <path id="LWPOLYLINE_300_" d="M224.037,311.871L224.56,312.169L226.145,313.135L227.736,314.194L231.494,316.95" style="fill:none;stroke:black;stroke-width:1.42px;"/>
        <path id="LWPOLYLINE_301_" d="M232.279,318.649L216.461,335.456L203.881,348.798" style="fill:none;stroke:black;stroke-width:1.42px;"/>
        <path id="LINE_98_" d="M231.494,316.95L232.279,318.649" style="fill:none;stroke:black;stroke-width:1.42px;"/>
        <path id="LWPOLYLINE_302_" d="M152.457,246.025L135.691,262.964L122.408,276.406" style="fill:none;stroke:black;stroke-width:1.42px;"/>
        <path id="LINE_99_" d="M152.457,246.025L154.271,246.69" style="fill:none;stroke:black;stroke-width:1.42px;"/>
        <path id="LWPOLYLINE_303_" d="M160.152,350.071L160.623,349.271L160.829,348.248L160.758,347.016L160.411,345.59L159.793,343.999L158.915,342.266L157.788,340.417L156.43,338.485L154.865,336.497L153.118,334.491L151.219,332.498L149.189,330.551L147.078,328.68L144.908,326.919L142.72,325.292L140.55,323.833L138.429,322.564L136.397,321.499L134.489,320.664L132.73,320.064L131.151,319.715L129.775,319.614L128.628,319.767L127.722,320.17L127.284,320.55" style="fill:none;stroke:black;stroke-width:1.42px;"/>
        <path id="LWPOLYLINE_304_" d="M110.287,339.279L109.828,340.05L109.64,341.044L109.725,342.243L110.078,343.632L110.698,345.18L111.572,346.872L112.683,348.675L114.016,350.562L115.547,352.507L117.253,354.47L119.112,356.432L119.167,356.488" style="fill:none;stroke:black;stroke-width:1.42px;"/>
        <path id="LWPOLYLINE_305_" d="M143.346,368.974L143.799,368.198L143.979,367.192L143.884,365.977L143.514,364.569L142.873,362.99L141.973,361.266L140.823,359.426L139.444,357.497L137.859,355.511L136.091,353.503L134.174,351.504L132.133,349.548L130.007,347.666L127.828,345.889L125.634,344.249L123.458,342.769L121.341,341.478L119.312,340.39L117.409,339.532L115.659,338.908L114.092,338.532L112.73,338.405L111.601,338.535L110.713,338.914L110.287,339.279" style="fill:none;stroke:black;stroke-width:1.42px;"/>
        <path id="LWPOLYLINE_306_" d="M133.583,367.51L139.162,369.672L142.826,369.407L143.346,368.974" style="fill:none;stroke:black;stroke-width:1.42px;"/>
        <path id="LINE_100_" d="M135.841,364.981L126.563,346.54" style="fill:none;stroke:black;stroke-width:1.42px;"/>
        <path id="LINE_101_" d="M126.563,346.54L119.876,342.472" style="fill:none;stroke:black;stroke-width:1.42px;"/>
        <path id="LWPOLYLINE_307_" d="M144.834,243.929L128.222,260.935L115.065,274.427" style="fill:none;stroke:black;stroke-width:1.42px;"/>
        <path id="LWPOLYLINE_308_" d="M123.667,280.899L122.541,282.064" style="fill:none;stroke:black;stroke-width:1.42px;"/>
        <path id="LWPOLYLINE_309_" d="M144.834,243.929L147.04,246.005L149.143,248.143L149.736,248.781" style="fill:none;stroke:black;stroke-width:1.42px;"/>
        <path id="LWPOLYLINE_310_" d="M199.682,348.283L198.5,349.562" style="fill:none;stroke:black;stroke-width:1.42px;"/>
        <path id="LWPOLYLINE_311_" d="M234.854,325.822L219.299,342.678L206.934,356.058" style="fill:none;stroke:black;stroke-width:1.42px;"/>
        <path id="LWPOLYLINE_312_" d="M229.636,321.455L229.684,321.49L231.25,322.722L234.854,325.822" style="fill:none;stroke:black;stroke-width:1.42px;"/>
        <path id="LINE_102_" d="M133.021,368.139L135.841,364.981" style="fill:none;stroke:black;stroke-width:1.42px;"/>
        <path id="LINE_103_" d="M133.021,368.139L123.699,349.716" style="fill:none;stroke:black;stroke-width:1.42px;"/>
        <path id="LINE_104_" d="M123.699,349.716L126.563,346.54" style="fill:none;stroke:black;stroke-width:1.42px;"/>
        <path id="LINE_105_" d="M127.434,366.878L133.021,368.139" style="fill:none;stroke:black;stroke-width:1.42px;"/>
        <path id="LINE_106_" d="M119.941,360.39L127.434,366.878" style="fill:none;stroke:black;stroke-width:1.42px;"/>
        <path id="LINE_107_" d="M117.018,345.639L119.941,360.39" style="fill:none;stroke:black;stroke-width:1.42px;"/>
        <path id="LINE_108_" d="M123.699,349.716L117.018,345.639" style="fill:none;stroke:black;stroke-width:1.42px;"/>
        <path id="LWPOLYLINE_313_" d="M143.299,243.667L126.725,260.691L113.598,274.195" style="fill:none;stroke:black;stroke-width:1.42px;"/>
        <path id="LINE_109_" d="M143.299,243.667L144.834,243.929" style="fill:none;stroke:black;stroke-width:1.42px;"/>
        <path id="LWPOLYLINE_314_" d="M235.2,327.272L219.708,344.142L207.386,357.532" style="fill:none;stroke:black;stroke-width:1.42px;"/>
        <path id="LINE_110_" d="M234.854,325.822L235.2,327.272" style="fill:none;stroke:black;stroke-width:1.42px;"/>
        <path id="LINE_111_" d="M117.018,345.639L119.876,342.472" style="fill:none;stroke:black;stroke-width:1.42px;"/>
        <path id="LWPOLYLINE_315_" d="M137.1,243.42L120.723,260.511L107.755,274.068" style="fill:none;stroke:black;stroke-width:1.42px;"/>
        <path id="LWPOLYLINE_316_" d="M116.694,280.22L115.783,281.176" style="fill:none;stroke:black;stroke-width:1.42px;"/>
        <path id="LWPOLYLINE_317_" d="M137.1,243.42L139.409,245.287L140.667,246.367" style="fill:none;stroke:black;stroke-width:1.42px;"/>
        <path id="LWPOLYLINE_318_" d="M201.343,355.374L200.423,356.391" style="fill:none;stroke:black;stroke-width:1.42px;"/>
        <path id="LWPOLYLINE_319_" d="M235.77,333.179L220.546,350.106L208.439,363.542" style="fill:none;stroke:black;stroke-width:1.42px;"/>
        <path id="LWPOLYLINE_320_" d="M232.652,330.048L235.77,333.179" style="fill:none;stroke:black;stroke-width:1.42px;"/>
        <path id="LWPOLYLINE_321_" d="M135.909,243.57L119.579,260.676L106.649,274.245" style="fill:none;stroke:black;stroke-width:1.42px;"/>
        <path id="LINE_112_" d="M135.909,243.57L137.1,243.42" style="fill:none;stroke:black;stroke-width:1.42px;"/>
        <path id="LWPOLYLINE_322_" d="M235.676,334.324L220.511,351.265L208.451,364.71" style="fill:none;stroke:black;stroke-width:1.42px;"/>
        <path id="LINE_113_" d="M235.77,333.179L235.676,334.324" style="fill:none;stroke:black;stroke-width:1.42px;"/>
        <path id="LWPOLYLINE_323_" d="M111.548,281.355L110.746,282.213" style="fill:none;stroke:black;stroke-width:1.42px;"/>
        <path id="LWPOLYLINE_324_" d="M201.04,360.855L200.24,361.749" style="fill:none;stroke:black;stroke-width:1.42px;"/>
        <path id="LWPOLYLINE_325_" d="M234.262,338.723L219.355,355.726L207.498,369.221" style="fill:none;stroke:black;stroke-width:1.42px;"/>
        <path id="LWPOLYLINE_326_" d="M233.077,337.276L234.262,338.723" style="fill:none;stroke:black;stroke-width:1.42px;"/>
        <path id="LWPOLYLINE_327_" d="M131.386,245.149L115.286,262.323L102.538,275.941" style="fill:none;stroke:black;stroke-width:1.42px;"/>
        <path id="LWPOLYLINE_328_" d="M131.386,245.149L133.212,246.384" style="fill:none;stroke:black;stroke-width:1.42px;"/>
        <path id="LWPOLYLINE_329_" d="M130.589,245.693L114.542,262.878L101.838,276.512" style="fill:none;stroke:black;stroke-width:1.42px;"/>
        <path id="LINE_114_" d="M130.589,245.693L131.386,245.149" style="fill:none;stroke:black;stroke-width:1.42px;"/>
        <path id="LWPOLYLINE_330_" d="M233.738,339.514L218.885,356.532L207.075,370.036" style="fill:none;stroke:black;stroke-width:1.42px;"/>
        <path id="LINE_115_" d="M234.262,338.723L233.738,339.514" style="fill:none;stroke:black;stroke-width:1.42px;"/>
        <path id="LWPOLYLINE_331_" d="M206.781,369.874L204.202,372.883" style="fill:none;stroke:black;stroke-width:1.42px;"/>
        <path id="LWPOLYLINE_332_" d="M102.235,277.039L99.603,279.917" style="fill:none;stroke:black;stroke-width:1.42px;"/>
        <path id="LWPOLYLINE_333_" d="M201.011,371.706L198.741,374.409" style="fill:none;stroke:black;stroke-width:1.42px;"/>
        <path id="LWPOLYLINE_334_" d="M101.373,283.143L99.026,285.775" style="fill:none;stroke:black;stroke-width:1.42px;"/>
        <path id="LWPOLYLINE_335_" d="M193.547,371.167L191.4,373.782" style="fill:none;stroke:black;stroke-width:1.42px;"/>
        <path id="LWPOLYLINE_336_" d="M102.997,290.686L100.779,293.23" style="fill:none;stroke:black;stroke-width:1.42px;"/>
        <path id="LWPOLYLINE_337_" d="M184.687,368.392L182.514,371.071" style="fill:none;stroke:black;stroke-width:1.42px;"/>
        <path id="LWPOLYLINE_338_" d="M106.984,299.317L104.749,301.94" style="fill:none;stroke:black;stroke-width:1.42px;"/>
        <path id="LWPOLYLINE_339_" d="M113.177,308.601L110.73,311.53" style="fill:none;stroke:black;stroke-width:1.42px;"/>
        <path id="LWPOLYLINE_340_" d="M174.868,363.443L172.48,366.422" style="fill:none;stroke:black;stroke-width:1.42px;"/>
        <path id="LWPOLYLINE_341_" d="M119.129,320.449L119.564,320.064L120.271,319.706L121.217,319.599" style="fill:none;stroke:black;stroke-width:1.42px;"/>
        <path id="LWPOLYLINE_342_" d="M162.699,359.167L161.711,360.052" style="fill:none;stroke:black;stroke-width:1.42px;"/>
        <path id="LWPOLYLINE_343_" d="M262.551,254.198L261.213,255.297L259.496,256.018L257.43,256.341L255.041,256.274L252.379,255.815L249.48,254.974L246.393,253.765L243.163,252.209L241.975,251.569" style="fill:none;stroke:black;stroke-width:1.42px;"/>
        <path id="LWPOLYLINE_344_" d="M211.662,208.487L213.021,207.403L214.771,206.704L216.885,206.4L219.332,206.502L222.066,207.008L225.057,207.912L228.248,209.203L231.588,210.859L235.021,212.855L238.49,215.16L241.939,217.732L245.311,220.532L248.544,223.511L251.588,226.62L254.391,229.806L256.904,233.014L259.09,236.193L260.914,239.288L262.339,242.25L263.354,245.031L263.938,247.581L264.083,249.866L263.795,251.848L263.078,253.495L262.551,254.198" style="fill:none;stroke:black;stroke-width:1.42px;"/>
        <path id="LWPOLYLINE_345_" d="M216.944,202.701L218.314,201.607L220.073,200.897L222.19,200.583L224.643,200.67L227.386,201.166L230.377,202.059L233.57,203.338L236.908,204.985L240.34,206.971L243.811,209.266L247.254,211.831L250.621,214.625L253.848,217.597L256.885,220.703L259.678,223.886L262.184,227.094L264.357,230.273L266.168,233.372L267.586,236.337L268.589,239.121L269.162,241.679L269.297,243.973L268.998,245.96L268.268,247.619L267.739,248.328" style="fill:none;stroke:black;stroke-width:1.42px;"/>
        <path id="LWPOLYLINE_346_" d="M241.975,251.569L238.637,249.583L235.275,247.319L231.947,244.808L228.695,242.091L225.575,239.208L222.631,236.203L219.908,233.123L217.45,230.013L215.297,226.921L213.474,223.895L212.021,220.98L210.957,218.225L210.298,215.671L210.063,213.358L210.253,211.326L210.868,209.609L211.662,208.487" style="fill:none;stroke:black;stroke-width:1.42px;"/>
        <path id="LWPOLYLINE_347_" d="M240.1,244.131L242.148,245.175L244.119,246.008L245.98,246.61L247.701,246.975L249.253,247.096L250.611,246.969L251.759,246.596L252.67,245.981L252.895,245.752" style="fill:none;stroke:black;stroke-width:1.42px;"/>
        <path id="LWPOLYLINE_348_" d="M221.09,217.186L220.499,218.091L220.169,219.21L220.108,220.522L220.314,222.005L220.784,223.638L221.508,225.392L222.478,227.24L223.672,229.154L225.075,231.103L226.663,233.055L228.413,234.983L230.294,236.856L232.283,238.644L234.344,240.32L236.447,241.858L238.559,243.234L240.1,244.131" style="fill:none;stroke:black;stroke-width:1.42px;"/>
        <path id="LWPOLYLINE_349_" d="M252.895,245.752L253.479,244.837L253.8,243.708L253.85,242.379L253.629,240.873L253.139,239.215L252.385,237.427L251.379,235.543L250.143,233.59L248.689,231.603L247.042,229.612L245.232,227.65L243.287,225.75L241.236,223.945L239.12,222.263L236.967,220.731L234.816,219.375L232.703,218.219L230.659,217.277L228.718,216.568L226.918,216.101L225.278,215.883L223.831,215.917L222.596,216.201L221.596,216.73L221.09,217.186" style="fill:none;stroke:black;stroke-width:1.42px;"/>
        <path id="LWPOLYLINE_350_" d="M225.495,215.924L225.907,217.534L226.578,219.269L227.489,221.103L228.636,223.007L229.995,224.952L231.542,226.906L233.256,228.84L235.111,230.723L237.079,232.526L239.123,234.223L241.219,235.786L243.331,237.19L245.277,238.333" style="fill:none;stroke:black;stroke-width:1.42px;"/>
        <path id="LWPOLYLINE_351_" d="M245.277,238.333L251.453,240.867L253.697,241.241" style="fill:none;stroke:black;stroke-width:1.42px;"/>
        <path id="LINE_116_" d="M265.27,131.995L265.416,132.891" style="fill:none;stroke:black;stroke-width:1.42px;"/>
        <path id="LINE_117_" d="M331.967,192.669L332.873,192.72" style="fill:none;stroke:black;stroke-width:1.42px;"/>
        <path id="LINE_118_" d="M345.604,188.552L347.529,186.354" style="fill:none;stroke:black;stroke-width:1.42px;"/>
        <path id="LINE_119_" d="M271.491,115.16L268.05,118.892" style="fill:none;stroke:black;stroke-width:1.42px;"/>
        <path id="LINE_120_" d="M362.283,169.499L364.165,167.349" style="fill:none;stroke:black;stroke-width:1.42px;"/>
        <path id="LINE_121_" d="M287.15,98.17L283.748,101.859" style="fill:none;stroke:black;stroke-width:1.42px;"/>
        <path id="LINE_122_" d="M366.673,152.552L366.488,151.681" style="fill:none;stroke:black;stroke-width:1.42px;"/>
        <path id="LINE_123_" d="M302.479,94.184L301.596,94.094" style="fill:none;stroke:black;stroke-width:1.42px;"/>
        <path id="LINE_124_" d="M280.805,208.485L282.716,208.581" style="fill:none;stroke:black;stroke-width:1.42px;"/>
        <path id="LINE_125_" d="M287.262,207.095L321.419,168.675" style="fill:none;stroke:black;stroke-width:1.42px;"/>
        <path id="LINE_126_" d="M356.775,123.99L356.422,122.293" style="fill:none;stroke:black;stroke-width:1.42px;"/>
        <path id="LINE_127_" d="M332.773,101.052L331.05,100.88" style="fill:none;stroke:black;stroke-width:1.42px;"/>
        <path id="LINE_128_" d="M366.541,32.889L352.299,48.455" style="fill:none;stroke:black;stroke-width:1.42px;"/>
        <path id="LINE_129_" d="M406.632,97.26L420.583,81.433" style="fill:none;stroke:black;stroke-width:1.42px;"/>
        <path id="LINE_130_" d="M361.266,54.931L360.331,55.959" style="fill:none;stroke:black;stroke-width:1.42px;"/>
        <path id="LINE_131_" d="M398.311,90.074L399.232,89.035" style="fill:none;stroke:black;stroke-width:1.42px;"/>
        <path id="LINE_132_" d="M59.838,368.071L42.113,387.445" style="fill:none;stroke:black;stroke-width:1.42px;"/>
        <path id="LINE_133_" d="M102.747,441.907L120.111,422.213" style="fill:none;stroke:black;stroke-width:1.42px;"/>
        <path id="LINE_134_" d="M52.316,394.458L51.15,395.738" style="fill:none;stroke:black;stroke-width:1.42px;"/>
        <path id="LINE_135_" d="M93.533,433.808L94.68,432.511" style="fill:none;stroke:black;stroke-width:1.42px;"/>
        <path id="LWPOLYLINE_352_" d="M179.726,301.958L180.826,300.835L182.337,299.294L184.254,297.333L186.581,294.958L189.315,292.177L192.459,288.987L196.006,285.393L199.952,281.399" style="fill:none;stroke:black;stroke-width:1.42px;"/>
        <path id="LWPOLYLINE_353_" d="M192.995,275.068L163.117,305.123" style="fill:none;stroke:black;stroke-width:1.42px;"/>
        <path id="LWPOLYLINE_354_" d="M179.776,320.567L189.654,310.515L192.918,307.196L194.941,305.14L198.37,301.652L209.395,290.433" style="fill:none;stroke:black;stroke-width:1.42px;"/>
        <path id="LWPOLYLINE_355_" d="M183.084,266.496L153.095,296.505" style="fill:none;stroke:black;stroke-width:1.42px;"/>
        <path id="LWPOLYLINE_356_" d="M189.36,329.448L218.905,299.171" style="fill:none;stroke:black;stroke-width:1.42px;"/>
        <path id="LWPOLYLINE_357_" d="M173.48,257.844L162.279,268.995L158.797,272.459L156.744,274.503L153.427,277.806L148.692,282.52" style="fill:none;stroke:black;stroke-width:1.42px;"/>
        <path id="LWPOLYLINE_358_" d="M148.692,282.52L148.619,282.593" style="fill:none;stroke:black;stroke-width:1.42px;"/>
        <path id="LWPOLYLINE_359_" d="M148.619,282.593L143.682,287.51" style="fill:none;stroke:black;stroke-width:1.42px;"/>
        <path id="LWPOLYLINE_360_" d="M143.682,287.51L143.39,287.801" style="fill:none;stroke:black;stroke-width:1.42px;"/>
        <path id="LWPOLYLINE_361_" d="M173.438,348.398L173.521,348.325" style="fill:none;stroke:black;stroke-width:1.42px;"/>
        <path id="LWPOLYLINE_362_" d="M127.596,307.066C127.59,307.078 127.528,307.16 127.528,307.16" style="fill:none;stroke:black;stroke-width:1.42px;"/>
        <path id="LWPOLYLINE_363_" d="M123.576,311.498L123.02,312.192L122.44,313.162L122.017,314.194L121.735,315.289L121.6,316.441L121.6,317.671L121.752,318.997L122.07,320.434L122.558,321.969L123.211,323.575L123.658,324.525" style="fill:none;stroke:black;stroke-width:1.42px;"/>
        <path id="LWPOLYLINE_364_" d="M156.583,354.1L156.897,354.215L158.553,354.741L160.197,355.135L161.829,355.371L163.243,355.427L164.537,355.332L165.716,355.1L166.798,354.732L167.79,354.235L168.781,353.536L169.545,352.795" style="fill:none;stroke:black;stroke-width:1.42px;"/>
        <path id="LINE_136_" d="M127.284,320.55L110.287,339.279" style="fill:none;stroke:black;stroke-width:1.42px;"/>
        <path id="LINE_137_" d="M143.346,368.974L160.152,350.071" style="fill:none;stroke:black;stroke-width:1.42px;"/>
        <path id="LINE_138_" d="M127.528,307.16L123.587,311.483" style="fill:none;stroke:black;stroke-width:1.42px;"/>
        <path id="LINE_139_" d="M169.56,352.777L173.438,348.398" style="fill:none;stroke:black;stroke-width:1.42px;"/>
        <path id="LINE_140_" d="M219.231,303.228L221.887,300.22" style="fill:none;stroke:black;stroke-width:1.42px;"/>
        <path id="LINE_141_" d="M170.251,253.836L168.219,256.062" style="fill:none;stroke:black;stroke-width:1.42px;"/>
        <path id="LWPOLYLINE_365_" d="M221.887,300.22L221.958,300.14" style="fill:none;stroke:black;stroke-width:1.42px;"/>
        <path id="LWPOLYLINE_366_" d="M221.958,300.14L222.025,300.061L222.74,299.076L223.304,298.006L223.725,296.859L224.001,295.638L224.137,294.333L224.125,292.936L223.955,291.433L223.625,289.833L223.125,288.148L222.466,286.402L221.661,284.625L220.726,282.829L219.667,281.02L218.491,279.2L217.206,277.374L215.82,275.55L214.344,273.736L212.78,271.939L211.139,270.163L209.424,268.416L207.651,266.71L205.822,265.052L203.952,263.446L202.046,261.905L200.117,260.435L198.17,259.041L196.217,257.735L194.268,256.521L192.895,255.724" style="fill:none;stroke:black;stroke-width:1.42px;"/>
        <path id="LWPOLYLINE_367_" d="M192.895,255.724L191.883,255.165L189.957,254.177L188.057,253.301L186.184,252.545L184.343,251.91L182.531,251.41L180.75,251.054L179.008,250.857L177.326,250.831L175.915,250.966L174.621,251.236L173.433,251.639L172.351,252.163L171.274,252.886L170.351,253.727L170.23,253.859" style="fill:none;stroke:black;stroke-width:1.42px;"/>
        <path id="LWPOLYLINE_368_" d="M120.512,318.7L119.091,320.417" style="fill:none;stroke:black;stroke-width:1.42px;"/>
        <path id="LWPOLYLINE_369_" d="M162.74,359.202L164.131,357.473" style="fill:none;stroke:black;stroke-width:1.42px;"/>
        <path id="LINE_142_" d="M262.551,254.198L267.739,248.328" style="fill:none;stroke:black;stroke-width:1.42px;"/>
        <path id="LINE_143_" d="M216.944,202.701L211.662,208.487" style="fill:none;stroke:black;stroke-width:1.42px;"/>
        <path id="LWPOLYLINE_370_" d="M342.492,127.379L340.273,129.538L337.922,131.971L335.799,134.3L334.234,136.163L333.479,137.266L333.461,137.479" style="fill:none;stroke:black;stroke-width:1.42px;"/>
        <path id="LWPOLYLINE_371_" d="M325.016,112.425L323.324,115.029L321.29,117.732L319.229,120.114L317.463,121.803L316.271,122.531L315.932,122.469" style="fill:none;stroke:black;stroke-width:1.42px;"/>
        <path id="LWPOLYLINE_372_" d="M350.479,136.972L347.816,138.633L345.191,140.761L343.012,143.023L341.622,145.067L341.236,146.572L341.492,147.083" style="fill:none;stroke:black;stroke-width:1.42px;"/>
        <path id="LWPOLYLINE_373_" d="M314.6,106.265L313.455,109.222L311.755,112.14L309.771,114.563L307.807,116.113L306.171,116.542L305.5,116.262" style="fill:none;stroke:black;stroke-width:1.42px;"/>
        <path id="LWPOLYLINE_374_" d="M356.484,146.632L353.473,147.782L350.639,149.594L348.417,151.783L347.165,154.01L347.077,155.924L347.547,156.741" style="fill:none;stroke:black;stroke-width:1.42px;"/>
        <path id="LWPOLYLINE_375_" d="M304.605,102.229L304.001,105.429L302.636,108.494L300.725,110.942L298.568,112.39L296.505,112.608L295.514,112.172" style="fill:none;stroke:black;stroke-width:1.42px;"/>
        <path id="LWPOLYLINE_376_" d="M360.125,155.716L356.891,156.375L353.919,157.88L351.68,159.998L350.52,162.397L350.629,164.701L351.244,165.81" style="fill:none;stroke:black;stroke-width:1.42px;"/>
        <path id="LWPOLYLINE_377_" d="M295.699,100.558L295.582,103.879L294.52,107.012L292.682,109.467L290.355,110.858L287.902,110.964L286.621,110.446" style="fill:none;stroke:black;stroke-width:1.42px;"/>
        <path id="LWPOLYLINE_378_" d="M361.198,163.638L357.872,163.857L354.85,165.088L352.605,167.138L351.491,169.687L351.417,170.313" style="fill:none;stroke:black;stroke-width:1.42px;"/>
        <path id="LINE_144_" d="M351.417,170.313L351.414,170.408" style="fill:none;stroke:black;stroke-width:1.42px;"/>
        <path id="LWPOLYLINE_379_" d="M351.414,170.408L351.967,173.01L352.367,173.701" style="fill:none;stroke:black;stroke-width:1.42px;"/>
        <path id="LWPOLYLINE_380_" d="M288.438,101.33L288.729,104.641L287.927,107.764L286.848,109.485" style="fill:none;stroke:black;stroke-width:1.42px;"/>
        <path id="LINE_145_" d="M281.352,111.756L279.391,111.161" style="fill:none;stroke:black;stroke-width:1.42px;"/>
        <path id="LWPOLYLINE_381_" d="M359.671,169.902L356.391,169.764L354.831,170.127" style="fill:none;stroke:black;stroke-width:1.42px;"/>
        <path id="LINE_146_" d="M350.764,179.687L350.891,179.924" style="fill:none;stroke:black;stroke-width:1.42px;"/>
        <path id="LINE_147_" d="M283.264,104.45L283.863,107.614" style="fill:none;stroke:black;stroke-width:1.42px;"/>
        <path id="LINE_148_" d="M355.689,174.142L354.568,173.855" style="fill:none;stroke:black;stroke-width:1.42px;"/>
        <path id="LWPOLYLINE_382_" d="M126.534,308.255L126.022,306.002L125.943,304.04L126.299,302.399L127.081,301.111L128.287,300.197L129.898,299.674L131.892,299.552L134.233,299.838L136.891,300.529L139.82,301.617L142.976,303.082L146.308,304.905L149.754,307.054L153.265,309.498L156.776,312.195L160.232,315.097L163.573,318.159L166.743,321.326L169.689,324.549L172.362,327.772L174.718,330.939L176.717,333.997L178.332,336.9L179.532,339.596L180.302,342.046L180.632,344.208L180.523,346.049L179.973,347.542L179,348.666L177.614,349.404L175.85,349.751L173.733,349.698L172.457,349.504" style="fill:none;stroke:black;stroke-width:1.42px;"/>
        <path id="LWPOLYLINE_383_" d="M173.438,348.395L174.112,347.262L174.406,345.813L174.315,344.072L173.838,342.063L172.98,339.82L171.75,337.376L170.177,334.77L168.275,332.051L166.081,329.257L163.628,326.439L160.955,323.64L158.112,320.908L155.139,318.291L152.089,315.83L149.019,313.568L145.969,311.542L142.996,309.783L140.153,308.322L137.479,307.18L135.021,306.378L132.821,305.926L130.907,305.825L129.313,306.081L128.063,306.687L127.525,307.163" style="fill:none;stroke:black;stroke-width:1.42px;"/>
        <path id="LWPOLYLINE_384_" d="M123.584,311.489L124.628,310.704L126.031,310.262L127.763,310.172L129.807,310.436L132.125,311.056L134.68,312.018L137.433,313.312L140.341,314.915L143.352,316.802L146.419,318.947L149.489,321.308L152.512,323.845L155.441,326.525L158.217,329.295L160.805,332.109L163.152,334.924L165.228,337.688L166.996,340.361L168.428,342.896L169.498,345.252L170.195,347.389L170.51,349.277L170.433,350.885L169.978,352.191L169.554,352.786" style="fill:none;stroke:black;stroke-width:1.42px;"/>
        <path id="LWPOLYLINE_385_" d="M156.994,353.624L158.858,354.029L160.485,354.141L161.849,353.953L162.929,353.465L163.699,352.688L164.158,351.633L164.284,350.312L164.081,348.748L163.546,346.963L162.693,344.984L161.529,342.845L160.07,340.585L158.347,338.232L156.382,335.833L154.207,333.417L151.859,331.036L149.383,328.724L146.808,326.519L144.184,324.458L141.555,322.576L138.964,320.905L136.453,319.468L134.063,318.294L131.833,317.394L129.798,316.788L127.993,316.482L126.446,316.482L125.178,316.782L124.211,317.383L123.558,318.264L123.223,319.417L123.22,320.82L123.541,322.452L124.09,324.069" style="fill:none;stroke:black;stroke-width:1.42px;"/>
        <path id="LWPOLYLINE_386_" d="M221.887,300.22L222.743,298.832L223.172,297.091L223.163,295.021L222.713,292.657L221.831,290.034L220.525,287.196L218.814,284.184L216.729,281.055L214.297,277.853L211.565,274.635L208.574,271.457L205.375,268.372L202.022,265.428L198.57,262.676L195.077,260.165L191.601,257.935L189.983,256.988" style="fill:none;stroke:black;stroke-width:1.42px;"/>
        <path id="LWPOLYLINE_387_" d="M189.983,256.988L186.643,255.236L183.46,253.845L180.491,252.836L177.776,252.221L175.365,252.013L173.294,252.209L171.595,252.81L170.292,253.795L170.251,253.836" style="fill:none;stroke:black;stroke-width:1.42px;"/>
        <g transform="matrix(-0.696224,0.717824,-0.717824,-0.696224,448.495,449.813)">
            <path d="M111.99,202.962L111.99,219.575L86.431,194.016L111.99,168.457L111.99,185.07L163.108,185.07L163.108,202.962L111.99,202.962Z" style="fill:rgb(235,235,235);stroke:black;stroke-width:1.91px;stroke-miterlimit:1.5;"/>
        </g>
        <g transform="matrix(0.664827,-0.746998,0.746998,0.664827,175.715,138.481)">
            <path d="M111.99,202.962L111.99,219.575L86.431,194.016L111.99,168.457L111.99,185.07L163.108,185.07L163.108,202.962L111.99,202.962Z" style="fill:rgb(235,235,235);stroke:black;stroke-width:1.91px;stroke-miterlimit:1.5;"/>
        </g>
        <g transform="matrix(1,0,0,1,-217.733,250.867)">
            <text x="244.468px" y="101.767px" style="font-family:'ArialMT', 'Arial', sans-serif;font-size:40.749px;">Q</text>
        </g>
        <g transform="matrix(1,0,0,1,62.3222,-52.0667)">
            <text x="244.468px" y="101.767px" style="font-family:'ArialMT', 'Arial', sans-serif;font-size:40.749px;">Q</text>
        </g>
        <g transform="matrix(1,0,0,1,-73.3666,104.922)">
            <text x="244.468px" y="101.767px" style="font-family:'ArialMT', 'Arial', sans-serif;font-size:40.749px;">I</text>
        </g>
        <g transform="matrix(1,0,0,1,-168.033,152.256)">
            <text x="244.468px" y="101.767px" style="font-family:'ArialMT', 'Arial', sans-serif;font-size:40.749px;">H</text>
        </g>
        <g transform="matrix(1,0,0,1,-9.46667,-5.52221)">
            <text x="244.468px" y="101.767px" style="font-family:'ArialMT', 'Arial', sans-serif;font-size:40.749px;">J</text>
        </g>
    </g>
</svg>
