<svg xmlns="http://www.w3.org/2000/svg" width="300" height="300"><defs><marker orient="auto" refY="0" refX="0" id="a" overflow="visible"><path d="M-10 0l-4 4L0 0l-14-4 4 4z" fill-rule="evenodd" stroke="#000" stroke-width=".8pt"/></marker><marker orient="auto" refY="0" refX="0" id="b" overflow="visible"><path d="M-10 0l-4 4L0 0l-14-4z" fill-rule="evenodd" stroke="#000" stroke-width="1.0664"/></marker><marker orient="auto" refY="0" refX="0" id="c" overflow="visible"><path d="M-10 0l-4 4L0 0l-14-4z" fill-rule="evenodd" stroke="#000" stroke-width="1.0664"/></marker><marker orient="auto" refY="0" refX="0" id="d" overflow="visible"><path d="M-10 0l-4 4L0 0l-14-4z" fill-rule="evenodd" stroke="#000" stroke-width="1.0664"/></marker><marker orient="auto" refY="0" refX="0" id="e" overflow="visible"><path d="M-10 0l-4 4L0 0l-14-4z" fill-rule="evenodd" stroke="#000" stroke-width="1.0664"/></marker><marker orient="auto" refY="0" refX="0" id="f" overflow="visible"><path d="M-10 0l-4 4L0 0l-14-4z" fill-rule="evenodd" stroke="#000" stroke-width="1.0664"/></marker><marker orient="auto" refY="0" refX="0" id="g" overflow="visible"><path d="M-10 0l-4 4L0 0l-14-4z" fill-rule="evenodd" stroke="#000" stroke-width="1.0664"/></marker><marker orient="auto" refY="0" refX="0" id="h" overflow="visible"><path d="M-10 0l-4 4L0 0l-14-4z" fill-rule="evenodd" stroke="#000" stroke-width="1.0664"/></marker><marker orient="auto" refY="0" refX="0" id="i" overflow="visible"><path d="M-10 0l-4 4L0 0l-14-4z" fill-rule="evenodd" stroke="#000" stroke-width="1.0664"/></marker><marker orient="auto" refY="0" refX="0" id="j" overflow="visible"><path d="M-10 0l-4 4L0 0l-14-4z" fill-rule="evenodd" stroke="#000" stroke-width="1.0664"/></marker></defs><path d="M103.459 229.116l.904-.519.746-.847.47-1.041.118-1.073-.25-.934-.58-.649-.818-.261-.929.168-.892.572-.714.887-.423 1.06-.064 1.065.304.901.624.596.845.196z" fill="none" stroke="#000" stroke-width=".9" stroke-linecap="round"/><path d="M104.758 223.475l.703.707.33 1.052-.094 1.229-.503 1.213-.832 1.008-1.032.642h-.021M104.256 223.276l.502.2M92.718 219.224l-.518.832-.437.877-.348.907-.254.923-.157.924-.055.91.046.88.146.838.245.781.339.712.427.632.509.542.582.442.12.074M88.06 213.74l.052.683M88.06 213.74l1.58.352M88.622 213.531l-.562.209M89.511 213.741l-.889-.21M104.795 209.941l.476-.178M102.22 209.301l2.575.64M101.925 209.225l.295.076M101.877 209.211l.048.024M105.271 209.763l-3.597-.832M102.22 209.301l.03.427M104.795 209.941l.042.594M105.271 209.763l.043.612M101.925 209.225l.005.06M95.361 202.37l5.588-1.745M95.013 197.733l.348 4.637M93.798 198.062l1.215-.33M93.008 202.26l.79-4.198M92.808 203.167l.2-.906M83.837 205.967l8.971-2.8M83.861 205.326l-.023.641M83.861 205.326l2.217-10.31M90.58 190.233l-1.452.71-1.399 1.174-1.116 1.515-.535 1.384M90.58 190.233l9.896-3.218M103.463 189.45l.005-1.38-.617-.908-.192-.119M103.463 189.45l-2.514 11.175M83.9 193.824l.643-1.598 1.132-1.476 1.371-1.124 1.26-.62M88.306 189.006l9.67-3.318M83.861 205.326l-.487.546-.514.483-.555.415-.59.322-.412.151M81.478 205.222l-.175 2.022M83.9 193.824l-2.422 11.398M102.658 187.043l-1.13-.228-1.052.2M97.975 185.688l1.298-.211.832.213M83.837 205.967l.746 5.884M82.082 210.907l-.5-1.926M81.581 208.981l-.278-1.737M84.583 211.851l.011.062.09.166.059.05M92.175 209.32l.633-6.153M95.361 202.37l.29 4.912M100.949 200.625l-.62 5.814M100.404 207.14l-.075-.692h0M84.743 212.127l7.928-2.524M95.665 208.65l4.74-1.51M95.013 197.733l.513 12.533M95.526 210.266l-1.208.4M93.798 198.062l.52 12.605M94.318 210.667l-.99-.69M93.008 202.26l.32 7.716M95.65 207.282l.043 1.039M95.693 208.32l-.167 1.946M84.846 212.174l.104.024.237-.024.068-.024M82.346 211.23l-.084-.047-.133-.154-.047-.12M84.743 212.127l.103.047M100.53 207.349l-.126-.209M100.53 207.349l3.816 5.277M105.938 213.08l-.718.073-.462-.154M105.938 213.08l4.002-1.3M109.97 212.412l-.03-.632M109.97 212.412l-3.581 1.287M106.602 218.019l-.213-4.32M96.46 221.338l10.142-3.32M95.194 219.13l.436.576.384.633.445.999M93.72 217.38l1.474 1.751M91.155 211.466l2.565 5.914M89.2 210.741l.343-.09.336-.026.322.038.07.024M85.255 212.159l3.946-1.418M89.164 181.851l-.77-1.767-1.236-1.23-.283-.165M89.164 181.851l1.513 6.342M82.756 199.208l-7.22 2.623M75.535 201.831l-3.468-14.48M74.641 181.635l-1.29.775-.967 1.361-.46 1.813.143 1.767M84.326 178.447l-9.685 3.188M93.328 209.976l-1.153-.655M75.95 204.146l-.415-2.315M75.95 204.146l-.555-.816-.534-.862-.521-.915-.501-.944-.718-1.458M69.947 186.19l3.174 12.96M90.27 210.68l.229.088.257.166.216.222.183.313M69.947 186.19l-.138-1.997.507-1.8.995-1.312 1.104-.647M89.76 216.021l3.96 1.359M89.942 214.925l.082.275.037.255-.012.214-.062.175-.094.111-.103.057M89.942 214.925l-1.433-3.935M76.052 206.94l-2.525-6.768M75.95 204.146l.784 1.945M76.734 206.091l.746 2.165M73.527 200.172l-.406-1.021M81.678 204.283l-4.944 1.808M78.216 208.604l3.121-1.147M77.48 208.256l.102.187.089.09M85.697 212l.287.645M72.415 180.434l9.467-3.284M85.582 213.054l1.534 1.441M85.134 212.432l.448.622M87.797 215.06l-.184-.133-.21-.17-.287-.26M87.797 215.06l1.441.832M89.76 216.021h-.119l-.158-.033-.245-.102M76.193 207.172l-.126-.195-.014-.038M77.67 208.533l.08.052.21.059.23-.031h.026M88.356 218.722l-.17-1.211-.33-1.152M87.856 216.36l-.248-.598-.145-.293M96.46 221.338l.329 1.14.176 1.245" fill="none" stroke="#000" stroke-width=".9" stroke-linecap="round"/><path d="M93.491 219.52l-.604-.22-1.14-.473-1.033-.513-.947-.57-.821-.608-.36-.314-.315-.307M89.79 216.012h-.03M104.368 210.412l-.367.17-.464.205-.4.168M87.116 214.495l-.21-.267-.211-.3-.195-.306-.186-.32-.175-.33-.155-.327M85.134 212.432l-.106-.24M107.108 230.616l-.101-4.638M96.966 223.723l.738 10.035M106.74 220.605l-.138-2.586M106.74 220.605l3.583-1.114M110.564 224.057l-.24-4.566M110.568 224.196l-.002-.14M110.58 224.736l-.013-.54M110.58 224.736l-3.573 1.242M100.72 227.321l.262 1.098.655.78.132.086M86.875 178.688l-1.459-.398-1.09.157M81.882 177.15l1.402-.14 1.1.36M97.704 233.758l.012 1.165-.142 1.129M103.417 209.24l.286.16M103.055 209.25l.205-.023h.156M103.62 240.554l-.026-.024M104.758 212.998l-.412-.372M106.967 234.775l.022.024M105.14 223.532l-.977-.259-1.088.238-1.029.696-.804 1.046-.454 1.23-.069.838" fill="none" stroke="#000" stroke-width=".9" stroke-linecap="round"/><path d="M101.769 229.284l.974.264 1.087-.232 1.028-.69.807-1.037.46-1.223.04-1.216-.385-1.019-.64-.6M105.286 209.972h.872l.456-.059M109.94 211.78l-3.326-1.864M97.573 236.052l-.029.154-.061.437-.025.402M106.747 233.985l.36-3.369M109.185 212.93l.785-.518M89.913 232.821l-.194-.377M97.458 237.045l.033.364.11.327.186.27.268.21M89.72 232.444l-.225-.611-.134-.654M90.717 233.817l-.275-.582-.207-.639-.053-.235-.005-.024M110.323 219.49l-1.371-4.2M108.952 215.29l-.186-.86.02-.769.22-.558.18-.173M98.055 238.217l1.363.787M95.708 236.66H95.7l-.223-.265-.12-.242" fill="none" stroke="#000" stroke-width=".9" stroke-linecap="round"/><path d="M91.207 232.954l-.147.083-.142.102-.129.12-.107.169-.03.15.028.158.037.083M91.207 232.954l.024-.024M91.23 232.942l3.65-1.714M94.235 236.77l.056.03M96.24 237.84l.068.036.711.344.773.319.851.298.906.268" fill="none" stroke="#000" stroke-width=".9" stroke-linecap="round"/><path d="M99.549 239.106l-.051-.052-.08-.05M109.496 227.366l1.083-2.63M89.361 231.179l-.144-1.266-.11-1.235M89.108 228.678l-.752-9.956M99.549 239.106h0M103.71 209.152l.115.277M104.176 208.55l.05.971M104.176 208.55l-.39.342-.076.26M104.176 208.55l-3.29-1.845M100.886 206.705l-.547.187M107.986 236.126l1.556-.501M109.47 235.774l.072-.15M106.593 234.556l.154-.571M100.338 238.86h-.007M109.36 228.237l.084-.72.052-.15M109.514 235.61v-.06M107.982 236.113l1.532-.503M109.515 235.55l-.155-7.313M109.47 235.774l-.171.173-.22.104M109.542 235.625l-.028-.024M164.6 144.574l-6.06 1.866M158.66 151.921l-.12-5.481M158.66 151.921l-1.304.406M157.356 152.327l-.007-.024M157.35 152.31l.957-5.798M158.307 146.512l.092-2.032-.317-1.21M158.082 143.27l-.622-.81-.349-.213M153.18 146.705l-1.03 6.272M152.15 152.977l-2.106.252M150.044 153.229l-4.719.345M142.394 150.435l.321 1.51.828 1.098.461.29M142.264 145.544l.13 4.89M142.264 145.544l-1.773.54M140.491 146.085l-.253-9.304M140.238 136.78l6.372-1.91M146.763 140.92l-.153-6.05M150.285 139.852l-3.522 1.068M150.138 133.813l.147 6.039M150.138 133.813l19.01-5.699M169.148 128.114l5.483 11.601M183.19 137.085l.165 11.033M181.5 148.7l1.855-.582M181.5 148.7l-.069-.99-.175-.942-.28-.877-.378-.8-.472-.711-.558-.609-.635-.497-.612-.338M167.889 152.969l-2.164.678M164.845 152.908l.88.74M164.804 150.852l.041 2.056M136.915 135.224l3.323 1.557M137.177 144.501l3.314 1.584M137.177 144.501l-.262-9.277M136.915 135.224l6.362-1.898M143.277 133.326l3.333 1.545M138.986 145.365l.095 3.476M140.692 151.732l-1.002-.871-.543-1.363-.066-.657M144.004 153.333l1.304.242h.017M146.953 138.296l3.332 1.556M146.698 138.373l.255-.077M156.812 129.287l1.117-.097 1.082-.148 1.027-.195.957-.24.872-.278.772-.315.66-.346.538-.37.189-.163M164.026 127.135l1.758-.525M165.784 126.61l3.364 1.504M146.8 132.274l3.338 1.539M146.8 132.274l10.012-2.987M146.953 138.296l-.152-6.022M157.111 142.247l-.972-.166-1.04.333-.944.78-.696 1.105-.339 1.252.06 1.154M155.705 142.16l2.377 1.11M127.557 130.843l6.335-1.866M133.892 128.974l.173 5.983M134.065 134.957l3.503-1.043M137.568 133.914l-.167-5.973M137.4 127.943l10.18-2.998M147.58 124.945l.126 5.052M147.706 129.997l-.673.2M147.033 130.198l.05 1.992M139 145.911l-1.746 1.268M137.254 147.179l-6.418.284M127.97 144.34l.326 1.496.83 1.09.459.288M127.97 144.34l-.413-13.498M124.318 129.325l3.239 1.518M124.318 129.325l6.325-1.855M130.643 127.47l3.249 1.507M124.742 142.783l-.424-13.458M158.89 151.827l1.103.524M158.66 151.921l.23-.094M159.967 151.137l-1.427-4.697M159.993 152.35l-.026-1.213M164.6 144.574l1.423 4.681M166.023 149.255l-6.056 1.882M154.972 144.945l3.335 1.567" fill="none" stroke="#000" stroke-width=".9" stroke-linecap="round"/><path d="M154.972 144.945l.09-2.026-.073-.418M154.02 150.726l3.33 1.584M154.02 150.726l.952-5.781M166.046 150.465l-6.053 1.886M166.046 150.465l-.023-1.21M159.102 151.928l-2.779.864M156.323 152.792l1.033-.465M157.245 155.118l-.922-2.326M155.417 154.243l1.828.875M155.418 154.243l-1.397-3.517M178.483 128.704l-.108-.124-.165-.114-.216-.102-.261-.087-.3-.068-.329-.05-.35-.028-.36-.007-.461.023M178.483 128.704l.261.321.372.306.477.285.576.26.664.23.743.198.808.16.862.123.039.005M129.585 147.214l1.25.25M126.357 145.651l-1.002-.867-.545-1.353-.068-.648M163.283 153.23l1.504.714M164.787 153.944l-6.042 1.893M158.745 155.837l-1.5-.718M163.283 153.23l-6.038 1.889M164.848 156.967l-6.037 1.902M158.811 158.869l-.066-3.033M164.848 156.967l-.061-3.023M157.83 159.26l.981-.391M155.506 158.14l2.325 1.12M155.418 154.243l.088 3.896M163.341 152.196l-.019-.883M164.22 152.935l-.879-.739M164.22 152.935l-.937.294M157.83 159.26l6.033-1.9M163.863 157.36l.985-.393M134.319 132.397l3.249 1.517M133.994 132.493l.325-.096M134.147 126.443l3.254 1.5M134.319 132.397l-.172-5.956M153.025 120.908l3.281 1.467M154.348 122.951l1.958-.576M154.348 122.951l-1.094.109-1.056.157-1 .202-.93.245-.844.283-.745.318-.634.348-.465.332M134.147 126.443l18.878-5.535M163.341 152.196l1.504.712M178.32 142.936l-.755-.27-.803-.139-.836-.007-.856.127-.862.258-.856.385-.833.506-.8.62-.751.722-.692.814-.62.893-.54.958-.45 1.006-.352 1.038-.25 1.053-.142 1.053-.033 1.015M180.448 148.214l1.053.485" fill="none" stroke="#000" stroke-width=".9" stroke-linecap="round"/><path d="M180.448 148.214l-.064-.943-.16-.9-.255-.843-.345-.774-.43-.696-.511-.605-.583-.508-.316-.214M176.55 142.525l.775 3.242.012.36M177.338 146.128l3.075 1.417M165.725 153.647l-1.504-.712M180.129 131.943l1.176.754.998 1.273.663 1.586.224 1.53M154.773 146.154l-.069.002M154.704 146.156l-.08-3.418M188.756 118.275l.507.495.04.188M176.889 109.67l1.592-1.261M178.481 108.409l-1.39-.172-1.438-.122-1.471-.071-1.49-.02-1.494.034-1.483.085-.391.031M169.324 108.174l.753 1.318M170.077 109.492l-1.352.146-1.297.204-1.222.258-1.127.31-1.015.354-.886.395-.744.43-.59.457-.423.477-.253.49-.076.496v.02M161.128 113.79l-3.914.196M157.214 113.986l.197.525.347.512.494.497.636.474.772.448.901.417.26.105M160.822 116.964l2.99-.968M163.812 115.996l.994.34 1.115.291 1.218.237 1.301.18 1.364.119 1.404.056 1.42-.007 1.414-.07 1.385-.134 1.332-.193 1.26-.25.678-.168M178.697 116.397l2.326 1.104M181.023 117.5l1.259-.373M162.402 106.959l.497.466.04.179M154.464 127.989l-.116-5.038M147.706 129.997l.525-.372.645-.347.754-.317.852-.282.937-.243 1.005-.199 1.059-.153.981-.096M154.704 146.156l-.382-.18M153.157 148.996l-.044-1.878M152.83 148.841l.327.157M154.322 145.976l-.026-.109M154.297 145.868l-1.146-.54M155.178 129.775l-.046-1.985M123.079 120.88l.064-.292.166-.289.265-.281.36-.27.448-.254.53-.234.603-.21.667-.184.061-.014M132.7 118.655l1.933.545.078.035" fill="none" stroke="#000" stroke-width=".9" stroke-linecap="round"/><path d="M135.98 120.488l-.022.291-.124.291-.226.286-.323.276-.416.262-.501.244-.58.221-.649.196-.707.166-.754.135-.788.1-.81.065-.82.028-.816-.009-.797-.046-.767-.083-.724-.117-.67-.15-.604-.182-.529-.208-.445-.233-.355-.253-.26-.27-.158-.28-.056-.29v-.048M134.711 119.234l1.088.797.18.457M134.082 147.32l-.951.184-.998.14-1.029.093-1.042.042h-1.04l-1.018-.057-.983-.104-.93-.152-.863-.196-.78-.238-.688-.275-.582-.307-.468-.335-.346-.358-.22-.374-.09-.384v-.121M194.38 142.776l-.031.402-.168.4-.3.39-.43.374-.551.352-.665.326-.768.292-.859.255-.935.213-.997.168-.588.073" fill="none" stroke="#000" stroke-width=".9" stroke-linecap="round"/><path d="M188.088 146.021l.474-5.766.27-2.87.307-2.88M183.285 130.59l.802.137.807.216.956.347.907.42.852.494.75.579.258.261.224.288.178.33.109.366.012.477M132.737 119.948l.515.486.043.188M154.366 148.623l-1.209.373M188.889 117.347l.248-.043h.007M189.144 117.305l.016.005M156.306 122.375l3.307 6.56M155.132 127.79l-.668.199M183.355 148.118l4.733-2.097M125.767 120.851l.28-.53.236-.177" fill="none" stroke="#000" stroke-width=".9" stroke-linecap="round"/><path d="M133.295 120.622l-.282.532-.834.466-1.254.326-1.476.134-1.463-.079-1.217-.28-.778-.435-.224-.435M181.773 119.06l.289-.525.238-.172M189.303 118.958l-.29.526-.842.45-1.26.305-1.477.11-1.46-.104-1.213-.3-.772-.447-.216-.438M157.96 125.658l.82.422.922.394 1.017.363 1.106.33 1.186.291.453.098M169.224 128.274l1.346.052 1.358.012 1.362-.027 1.355-.065 1.288-.1M139.024 146.772l-1.326.083M171.352 115.398l-1.269.082M171.35 115.297l.003.1M173.799 115.118l-1.223.066-1.225.113M176.77 143.103l-.4-.047-.29-.09M189.659 116.621l-.04.817M189.806 116.292l-.147.33M189.745 117.477l.061-1.185M175.29 142.603l.79.362M188.733 116.539l.189-.297M189.202 115.536l.02-.036M189.174 115.624l.028-.088M189.144 115.742l.03-.118M189.113 115.885l.031-.143M189.083 116.055l.03-.17M189.053 116.252l.03-.197M189.659 116.621l-.926-.052M188.922 116.242l.884.05M181.991 117.212l-.866-.461M182.195 111.387l-.572-.344-.674-.32-.766-.291-.85-.261-.927-.227-.992-.191-.525-.083M181.125 116.75l.002-3.268M176.909 112.255l.872.162.83.19.78.215.725.24.664.262.347.158M176.909 112.255l-.02-2.585M189.894 116.525l-.022.257M189.921 116.3l-.027.225M189.954 116.104l-.033.196M189.99 115.935l-.036.17M190.03 115.791l-.04.144M190.075 115.674l-.044.117M190.124 115.587l-.049.087M190.166 115.553l-.042.034M190.204 115.571l-.038-.019M190.236 115.642l-.032-.07M190.261 115.757l-.025-.115M190.28 115.908l-.02-.151M190.291 116.095l-.012-.187M190.295 116.318l-.005-.223M190.292 116.595l.005-.277M190.28 116.877l.011-.282M190.259 117.179l.02-.302M190.228 117.514l.03-.335M190.213 117.643l.015-.129M190.1 117.543l-.007.055M190.137 117.206l-.037.337M190.157 116.92l-.019.286M190.163 116.669l-.007.252M190.162 116.55l.002.119M190.157 116.452l.005.097M190.15 116.376l.006.076M190.139 116.322l.009.054M190.126 116.29l.014.031M190.11 116.28l.015.009M190.093 116.292l.017-.011M190.073 116.328l.02-.036M190.054 116.38l.019-.052M190.036 116.447l.017-.066M190.021 116.527l.014-.08M190.008 116.621l.014-.093M189.997 116.731l.012-.11M189.99 116.86l.006-.129M189.984 117.007l.005-.147M189.98 117.172l.003-.165M189.85 117.389l.13-.217M189.858 117.07l-.01.319M189.872 116.782l-.014.288M189.872 116.782l-.09-.005M189.858 117.07l-.091-.005M189.894 116.525l-.1-.005M189.85 117.389l-.1-.005M189.921 116.3l-.115-.007M189.954 116.104l-.871-.049M189.99 115.935l-.877-.05M161.23 116.372l-.102-2.582M159.662 116.443l1.569-.07M190.03 115.791l-.886-.05M190.075 115.674l-.901-.05M190.124 115.587l-.922-.051M190.166 115.553l-.944-.053M190.1 117.543l-.184-.009M190.126 116.29l-.027-.002M190.139 116.322l-.06-.002M190.15 116.376l-.092-.005M190.157 116.452l-.12-.007M190.137 117.206l-.171-.009M190.162 116.55l-.143-.007M190.157 116.92l-.17-.008M190.163 116.669l-.159-.01M161.21 115.873l.922-1.317M161.092 113.528l.036.262M170.202 115.44l-.974.1-.948.13-.915.161-.873.19-.826.215-.572.175M162.205 116.516l-.073-1.96M170.077 109.492l.125 5.948M192.213 127.043l.918.4M193.131 127.444l-.972.295M193.131 127.444l.043 3.614M181.144 116.087l-3.644-.945-.423-.064M177.077 115.078l1.365-1.103M178.443 113.975l.122.016M178.565 113.992l1.122.185 1.071.219.376.087M176.6 115.14l.05.05.036.056.025.062.007.035M177.079 115.17l-.48-.03M177.077 115.078l.002.093M171.065 114.217l-.89.05M171.064 114.175l1.259-.12 1.258-.083 1.25-.045 1.233-.007 1.207.029 1.128.062M178.399 114.01l.045.002M171.065 114.177v.043M176.239 115.122l-1.19-.026-1.221.019h-.035M171.35 115.296l-.285-1.119M177.139 115.028l-.228.07-.269.04-.042.001M177.337 114.865l-.055.047M176.239 115.122l-.183-.055-.088-.082-.002-.054M155.603 107.761l.278-.502.232-.165" fill="none" stroke="#000" stroke-width=".9" stroke-linecap="round"/><path d="M162.94 107.604l-.28.502-.816.435-1.225.3-1.439.116-1.424-.087-1.184-.275-.755-.42-.214-.414M176.153 115.277l.02-.065.027-.048.04-.042M177.33 114.808l.007.057" fill="none" stroke="#000" stroke-width=".9" stroke-linecap="round"/><path d="M176.72 115.343l-.289-.009-.251-.048-.028-.01M177.337 114.865l-.055-.014-.06.045-.053.095-.007.019M171.065 114.217l.287 1.18M167.595 257.418l-.102-.516-.243-.504-.381-.483-.512-.455-.633-.419-.746-.376-.846-.33-.933-.275-1.004-.218-1.06-.159-1.1-.095-1.122-.03-1.126.035-1.113.1-1.083.163-1.035.222-.97.28-.892.332-.798.38-.693.422-.383.29M149.908 258.682l.912-2.9M149.908 258.682l-.01 1.842M158.633 265.648l1.157-.05 1.14-.116 1.104-.183 1.05-.244.979-.302.892-.356.79-.403.677-.444.552-.479.418-.503.28-.522.135-.53.009-.344M158.633 265.648l-.1-1.923M160.877 261.629l-2.345 2.096" fill="none" stroke="#000" stroke-width=".9" stroke-linecap="round"/><path d="M160.877 261.629l1.085-.183 1.03-.242.96-.3.872-.351.773-.398.66-.437.535-.47.405-.494.267-.512.125-.52.007-.305M157.284 259.54l3.593 2.089M158.532 263.725l-3.03-1.772M157.038 259.627l-1.536 2.326M157.038 259.627l.246-.088M161.194 256.052l.918-.339M161.194 256.052l-1.524-.309h-1.688l-1.587.293-1.237.55-.693.72-.104.472M150.82 255.781l3.547 2.063M157.284 259.54l1.688.064 1.633-.245 1.318-.514.794-.702.174-.558M163.483 256.501l-.918.34M162.112 255.713l.398-.097.443-.024.419.062.328.133.186.182.03.116M166.894 266.044l-.073.475-.202.47-.327.457-.447.435-.561.409-.665.374-.76.333-.84.288-.909.237-.962.182-1 .126-1.022.066H157.91M150.564 260.914l.135 2.395.136 2.402M157.91 269.894l.025-2.33.023-2.313M157.91 269.894l-2.218-1.311M155.524 263.825l.168 4.758M155.502 261.953l.022 1.872M157.957 265.251l.676.397M162.891 257.585l-.326-.743M162.565 256.842l-.002 1.503M154.367 257.844l.03.246M152.905 260.434l1.491-2.344M152.905 260.434l-2.997-1.752M152.973 262.328l-.068-1.894M154.396 258.09l.162 3.648M152.973 262.328l1.585-.59M154.36 257.77l.008.072M161.261 259.14l-.067-3.088M153.032 267.01l-.06-4.682M153.032 267.01l-2.197-1.3M149.9 260.524l.664.39M154.558 261.738l.017 4.695M153.032 267.01l1.542-.577M154.54 261.319l.47-.744 1.052-.61.94-.284" fill="none" stroke="#000" stroke-width=".9" stroke-linecap="round"/><path d="M157.664 259.563l1.656-.069.39.028M154.568 265.99l.51-.761.484-.334M163.916 256.09l-.088.201-.251.173-.094.038M160.326 231.47l5.905-2.103M160.215 226.412l.111 5.058M160.215 226.412l-1.249.44M160.1 231.55l-1.134-4.697M160.022 234.727l.268-1.974-.19-1.203M155.168 234.627l.002 1.164.397.94.541.48M153.905 229.45l1.263 5.177M153.905 229.45l-2.051 1.056M151.854 230.506l-4.532 2.633M144.646 237.952l.231-1.615.74-1.554 1.128-1.246.578-.398M144.646 237.952l.125 4.663M143.052 243.233l1.719-.618M143.052 243.233l.238 8.748M143.29 251.98l6.15-2.218M149.293 243.96l.148 5.799M152.706 242.727l-3.413 1.232M152.847 248.517l-.14-5.79M152.847 248.518l18.361-6.702M171.208 241.816l4.862-14.275M182.431 214.652l1.514-.532M169.088 219.336l.067.914.163.866.257.805.347.733.431.65.51.558.581.457.332.2M169.088 219.336l-1.746.613M144.078 231.32l-1.244 1.038-.927 1.441-.463 1.615-.035.702M141.538 240.767l3.233 1.848M141.41 236.116l.128 4.65M148.602 228.699l3.252 1.807M148.602 228.699l-4.524 2.62M139.821 241.38l3.23 1.853M139.821 241.38l1.717-.613M140.067 250.105l3.223 1.876M139.821 241.38l.246 8.725M153.905 229.45l-3.255-1.803M150.65 227.647l-2.048 1.052M161.355 219.229l-1.084-.585M160.271 218.644l-1.672.542M158.599 219.186l.056 2.496M160.128 222.468l-1.473-.8M160.128 222.482l.087 3.93M161.552 228.314l-1.226 3.156M161.552 228.314l-.197-9.085M161.355 219.229l5.932-2.074M167.287 217.155l-1.087-.58M166.2 216.575l-5.929 2.07M167.467 226.216l-5.915 2.098M167.287 217.155l.18 9.06M164.521 217.12l-5.922 2.066M164.521 217.12l1.68-.545M156.109 237.21l.908.216 1.01-.263.952-.701.745-1.029.298-.707" fill="none" stroke="#000" stroke-width=".9" stroke-linecap="round"/><path d="M155.142 235.134l.89-.836.635-1.106.098-.274M156.765 232.918l3.257 1.809M166.231 229.367l1.236-3.151M159.453 223.392l.69-.251M159.453 223.392l.394.215M155.704 225.064l3.262 1.789M159.847 223.607l-4.143 1.457M156.841 229.75l3.26 1.8M156.841 229.75l-1.137-4.686M149.611 246.664l3.236 1.854M149.611 246.662l-.07-2.792M156.765 232.918l.267-1.968-.19-1.2M130.987 244.82l6.117-2.187M137.104 242.64l-.166-5.73M136.938 236.91l3.394-1.204M140.332 235.706l.152 5.438M152.317 228.57l.859-.304M153.046 222.896l.13 5.37M150.573 217.423l.352 6.285M150.573 217.423l2.32-.896M152.83 213.919l.062 2.608M152.83 213.919l-5.675 1.956M147.155 215.875l-.974 2.806M146.18 218.68l1.477 5.997M147.657 224.677l.18 1.826-.248 1.317M147.59 227.82l-.556 1.135-.838.901-.989.526-.983.066-.523-.187M142.755 227.7l-.973-3.916M141.782 223.784l-2.457-.135M139.325 223.648l-6.172 3.747M130.592 232.098l.224-1.598.73-1.536 1.122-1.23.485-.339M130.592 232.098l.395 12.723M169.088 219.336l-1.028-.551M167.324 219.043l.736-.258M129.99 225.615l-1.22 1.057-.892 1.443-.421 1.6-.019.587M171.776 224.518l.707.304.76.177.799.05.826-.078.84-.206.84-.33.827-.447.802-.56.762-.661.713-.753.65-.833.578-.9.497-.95.408-.99.312-1.01.212-1.017.109-1.006.014-.657M181.398 214.11l1.033.542" fill="none" stroke="#000" stroke-width=".9" stroke-linecap="round"/><path d="M181.398 214.11l-.038.99-.143 1.01-.245 1.015-.345 1.004-.438.978-.524.935-.603.877-.671.807-.73.723-.777.627-.81.523-.834.409-.84.288-.837.163-.819.036-.787-.092-.607-.17M143.492 208.548l2.503-.852M145.995 207.696l-4.256-2.282M141.74 205.414l.83-.281M142.57 205.133l-1.17-.627M138.905 205.347l2.495-.841M141.27 206.62l-2.365-1.273M141.27 206.62l-.663.31M139.368 207.227l.784-.133.455-.163M139.368 207.227l-1.036.083M137.915 207.325h.019l.398-.024M136.977 212.724l-.861.255-.925.209-.973.159-1.006.106-1.022.052h-1.02l-1.005-.057-.97-.111-.921-.164-.857-.213-.78-.26-.688-.301-.587-.339-.476-.369-.358-.395-.235-.413-.106-.413M136.977 212.724l7.855-.556M144.832 212.168l1.895 1.026M146.727 213.194l-2.76.948M143.968 214.142l3.187 1.733M152.83 213.919l1.798.968M157.53 213.884l-2.902 1.003M157.53 213.884l-3.666-1.967M151.352 212.781l2.512-.864M151.352 212.781l-7.86-4.233M170.307 223.244l.945-.295.938-.431.917-.56.88-.68.83-.79.767-.886.692-.969.606-1.035.51-1.087.408-1.12.297-1.137.182-1.134.065-1.115-.001-.218M178.342 211.787l3.883 2.033M163.94 217.322l-.579-.31M136.153 221.885l3.172 1.763M136.153 221.885l-6.162 3.73M127.843 242.99l3.144 1.83M127.437 230.302l.406 12.689M159.306 223.797l.147-.405M163.361 217.011l-2.91 1.015M160.451 218.026l.579.311M160.451 218.026l.012.51M158.856 221.776l.048 2.162M155.963 219.125l-1.251-.678M141.782 223.784l-3.175-1.76M138.607 222.023l-2.454-.14M155.976 219.08l-.012.045M155.976 219.08l.49.024M158.865 222.11l-.095-.052-.285-.168-.259-.171-.253-.19-.246-.213-.236-.24-.17-.2-.163-.226-.157-.25-.147-.276-.101-.22-.1-.245-.096-.27-.09-.3M156.466 219.092l-.2.147M156.267 219.238l.129 5.583M156.475 228.243l.044 1.872M156.519 230.115l.37-.138M142.997 216.938l3.184 1.743M143.968 214.142l-.971 2.796M156.267 219.238l-.291-.158M154.628 214.887l.084 3.56M154.092 220.395l-1.2-3.868M153.676 222.65l.362-.31.194-.58-.005-.754-.136-.611M153.176 228.266l3.343 1.849M144.477 222.92l3.18 1.757M142.997 216.938l1.48 5.983M143.701 230.261l-.662-.66-.314-.996.03-.905M144.412 226.055l3.177 1.765" fill="none" stroke="#000" stroke-width=".9" stroke-linecap="round"/><path d="M144.412 226.055l-.554 1.131-.837.898-.305.213M184.468 213.903l-.523.218M184.468 213.903l4.588-2.253M191.57 209.957l-.457.213-.507.192-.552.169-.592.144-.622.116-.648.088-.665.057-.674.028h-.676l-.67-.033-.655-.064-.633-.092-.605-.123-.57-.15-.526-.172-.478-.197M182.04 210.13l-.399.03M181.641 210.159l-.347.052-.286.1M180.955 210.876l-2.613.911M181.398 214.11l.827-.29M137.334 239.611l2.857 1.637M137.253 236.798l.081 2.82M189.056 211.649l1.101-.185 1.032-.247.94-.306.832-.358.704-.402.564-.44.413-.466.254-.485.085-.402M190.071 202.62l.175-.588.054-.597M179.798 206.591l.193-.043.42-.102M187.072 202.235l.098-.425.024-.36M169.579 221.932l2.262-.927M171.84 221.005l.542-.263.528-.336.505-.405.476-.467.437-.522.393-.568.343-.606.285-.634.225-.651.161-.66.094-.655.025-.635M175.854 214.603l-.056-4.358M157.53 213.884l.064.905.149.865.231.814.312.755.388.686.46.61.343.36M151.536 223.485l-.611.223M151.873 221.258l.178.8-.02.713-.22.512-.274.201M150.573 217.423l1.3 3.835M190.595 221.468l-.245-1.21-.249-1.38-.253-1.551-.258-1.721-.264-1.893-.27-2.064M151.536 223.485l2.14-.835M124.187 210.464l.01-.387.112-.386.215-.381.314-.37.408-.356.497-.336.58-.312.063-.03M127.568 234.401l-.838-1.008-.057-.26M135.656 221.436l-.007.216.066.187.173.208M136.977 212.724l-.262 2.059-.263 1.9-.263 1.742-.265 1.584-.268 1.427M144.477 222.92l.18 1.822-.245 1.313M144.832 212.168l.044 1.662M167.32 218.79l.874-.683.824-.79.76-.885.685-.967.597-1.033.502-1.083.398-1.115.288-1.131.012-.057M167.445 212.351l-.479.864-.54.821-.596.77-.645.71-.687.644-.723.569-.415.283M160.455 218.196l-1.528.083" fill="none" stroke="#000" stroke-width=".9" stroke-linecap="round"/><path d="M194.98 208.359l.006-.09-.077-.492-.24-.48-.397-.46-.548-.43-.687-.392-.056-.026M194.19 218.946l-.003.026M137.989 209.91v.061l-.06.32-.157.317-.252.307-.343.294-.43.274-.506.251-.576.223-.635.19-.684.153-.721.116-.745.076-.756.035h-.755l-.74-.05-.712-.09-.672-.13-.62-.168-.559-.201-.486-.233-.407-.259-.32-.281-.226-.299-.131-.311-.034-.232M126.352 206.83l.036-.307.128-.305.218-.298.303-.287.383-.27.459-.25.525-.224.584-.197.634-.166.674-.132.702-.097.72-.06.726-.023.721.024.705.057.677.092.639.127.59.164.533.194.44.209M137.89 206.47l-.037.308-.129.305-.219.3-.305.286-.387.271-.463.25-.53.226-.591.196-.641.166-.68.13-.71.095-.727.057-.733.024-.726-.024-.709-.059-.679-.097-.638-.135-.588-.168-.528-.199-.46-.227-.383-.252-.301-.272-.215-.289-.125-.299-.034-.23" fill="none" stroke="#000" stroke-width=".9" stroke-linecap="round"/><path d="M136.748 205.08l.976.845.167.546M128.2 209.667l-.021-.19-.05-.194-.171-.366-.233-.3-.248-.194-.22-.062-.113.033M129.943 205.456l-.978.48-.48.59-.035.232M193.004 208.243v.024l-.042.304-.123.3-.205.294-.282.283-.356.268-.426.25M192.962 204.804l-.047.334-.146.33-.244.32-.339.306-.427.287-.51.262-.583.235-.648.201-.702.166-.745.128-.776.088-.794.045h-.8l-.792-.038-.771-.08-.74-.122-.693-.16-.638-.198-.572-.23h-.007M180.431 208.253l-.041-2.588" fill="none" stroke="#000" stroke-width=".9" stroke-linecap="round"/><path d="M181.375 203.487l.472-.272.547-.245.615-.216.673-.182.72-.145.756-.106.78-.066.79-.024.79.024.778.059.75.1.714.137.665.175.605.211.536.24.459.269.373.29.282.31.187.323.088.33.007.112M181.987 206.681l.054 3.447M181.987 206.681l4-.296M182.381 204.667l-1.528.114M183.21 204.373l-.216.152-.338.106-.275.038M185.988 206.385l1.463-.024 1.338-.26 1-.456.506-.58.043-.243M187.694 224.884l.145-.076.583-.347.328-.227.31-.241.308-.267.289-.281.254-.28.174-.218.15-.209.123-.201.099-.192.09-.23.055-.218-.007-.431M154.287 231.017l2.703-.388M135.793 206.529l-.307-.592-.837-.48-1.233-.293-1.436-.062-1.414.18-.623.17" fill="none" stroke="#000" stroke-width=".9" stroke-linecap="round"/><path d="M128.45 206.758l.31.592.84.48 1.242.293 1.445.057 1.42-.187 1.166-.4.73-.552.19-.514M127.766 210.342h.014l.22-.098.152-.237.04-.161.008-.178M154.335 231.21l2.42-.376M157.02 230.74l-.266.095M156.754 230.834l.046 1.964M190.338 204.824l-.298-.597-.828-.495-1.229-.318-1.435-.09-1.417.152-1.176.37-.745.526M180.745 210.64l.045.102.166.133" fill="none" stroke="#000" stroke-width=".9" stroke-linecap="round"/><path d="M181.008 210.31l-.192.13-.073.15.002.05M180.956 210.881h0M178.29 208.412l2.141-.158M187.193 201.45l-.012-.215-.131-.57-.27-.558-.406-.543-.536-.52-.662-.492-.78-.46-.888-.422-.99-.38-.776-.25M162.3 210.455l-1.612 1.998M160.723 214.077l-.098-4.492M163.701 216.766l-.757-.41-.663-.439-.562-.464-.457-.485-.348-.501-.19-.39M160.723 214.077l-3.079 1.067M159.138 208.902l-.491.767-.54.724-.585.675-.624.618-.657.557-.684.489-.078.052M146.4 210.126l-.405-2.43M155.62 205.143l-.51 1.059-.605 1.006-.69.938-.764.855-.826.758-.874.65-.91.53-.93.402-.523.166M162.6 213.31l.064.471.173.466.28.456.385.44.486.421.582.398.08.047M163.6 211.27l-.998 1.88-.002.16M139.122 207.247l-.217-1.9M142.57 205.133l.056.756M190.3 201.435l-.005-.114-.124-.706M190.314 202.687l-.005-.425M190.308 202.262v-.196" fill="none" stroke="#000" stroke-width=".9" stroke-linecap="round"/><path d="M147.611 210.766l.82-.083.832-.206.83-.328.815-.443.787-.55.747-.651.694-.74.632-.816.558-.88.477-.932.178-.413" fill="none" stroke="#000" stroke-width=".9" stroke-linecap="round"/><path d="M146.44 210.135l.82-.083.832-.206.83-.327.814-.442.786-.55.746-.65.694-.738.63-.815.559-.88.476-.93.131-.3M192.773 199.719l1.155 1.292M192.773 199.719l-2.6.896M193.928 201.011l-3.62 1.251M193.928 201.011l.067 5.608M181.879 194.218l10.894 5.501M181.879 194.218l-1.304.442M182.635 83.54l.022.267.018.195.01.104M182.635 83.54l-.155-2.144M182.48 81.396l-.23-.113M182.25 81.283l-.395-6.567M181.855 74.716l.082-.707M181.937 74.009l-.116-1.557M179.596 70.673h.016l.467.062.309.094.3.135.251.15.232.176.33.333" fill="none" stroke="#000" stroke-width=".9" stroke-linecap="round"/><path d="M181.82 72.452l-.04-.263-.084-.248-.195-.318M178.221 69.159l4.18-1.12M164.695 70.307l-.048.274M180.8 67.425l-2.595.694M187.385 94.486l-.115.662-.362.657-.603.64-.837.615-1.058.577-1.261.532-1.446.477-1.606.413-1.74.344-1.848.268-1.923.188-1.967.105-1.98.019-1.957-.067-1.905-.15-1.82-.232-1.704-.31-1.563-.383-1.395-.448-1.205-.507-.997-.557-.772-.598-.537-.629-.293-.65-.058-.412M178.294 70.33l-.058-.271M164.647 70.581l.06.274.168.268.274.257.376.243.471.224.56.201.639.177.708.147.766.117.811.084.844.05.862.014.867-.021.858-.055.834-.09.797-.122.748-.152.685-.18.613-.206.53-.228.44-.245.34-.26.238-.269.13-.275.028-.205M173.5 104.104l1.946-.171 1.885-.257 1.79-.338.256-.057M179.741 100.844l-1.474.37-1.559.3-1.643.229-1.727.156M173.338 101.9l.163 2.204M173.524 105.416l1.211-.078 1.193-.112 1.166-.145 1.132-.176 1.09-.206.075-.017M173.524 105.416l-.024-1.312M160.988 98.62l.029.743.032.801.027.693M161.076 100.868l.177.403.38.468.56.445.728.413.887.376 1.03.33 1.153.279 1.26.223 1.342.163 1.402.1 1.066.034 1.076-.002 1.074-.04M173.212 104.052l-.024-1.462-.011-.785-.012-.669M178.45 100.266l-.842.218-.89.192-.93.165-.962.136-.987.105-.674.054M173.212 104.053l.312 1.363M173.165 101.136l.173.763M179.741 100.844l-1.29-.578M185.458 70.555l.461-.51M181.937 74.009l3.521-3.454M185.462 82.643l4.52-4.453M189.981 78.19l-.081-6.414M189.9 71.776l-3.998-1.71M188.278 75.44l-.248-1.315-.67-.984-.645-.398M185.064 72.78l.341 1.26.015.29M183.986 79.72l1.112.122 1.153-.448 1.011-.945.711-1.292.3-1.438.005-.279" fill="none" stroke="#000" stroke-width=".9" stroke-linecap="round"/><path d="M186.715 72.743l-1.115-.114-1.155.457-1.01.955-.706 1.303-.29 1.444.172 1.356.607 1.053.768.524" fill="none" stroke="#000" stroke-width=".9" stroke-linecap="round"/><path d="M185.42 74.33l-.21 1.436-.637 1.335-.962 1.023-.812.45M188.108 69.264l-.044-.016M185.919 70.045l.315.133.296.127M190.026 71.8l.273.117.249.108M190.548 72.025l.038.403.014.4M190.661 77.675l-.005.389-.028.38M190.628 78.443l-.241.284-.27.279M186.695 82.379l-.287.27-.311.26M189.9 71.776l.648.25M186.53 70.305l3.496 1.495M185.182 68.144l-2.231-.22-.55.115M185.628 82.712l-3.148-1.316M180.8 67.425l2.282-.049.498.156M186.097 82.91l-.469-.197M190.117 79.006l-3.422 3.373M189.981 78.19l.647.253M182.46 77.107l.836-1.179.46-1.404.062-.896M190.6 72.829l.061 4.846M183.58 67.531l.794.407M157.145 101.051l3.93-.194M158.788 97.95l.397-.02M157.114 99.639l1.674-1.69M157.145 101.051l-.03-1.412M157.957 97.53l-.223.218-.458.622-.208.634-.012.235M158.788 97.95l-.05-.244M157.085 100.633l.06.418M157.056 99.24l.059.399M236.424 170.041l.715 1.59M215.358 171.186l-.078.547M237.168 177.215l-.086.58-.265.573-.439.556-.606.529-.765.494-.912.451-1.043.401-1.158.344-1.255.28-1.33.214-1.385.142-1.417.069h-1.425l-1.41-.081-1.372-.154-1.311-.223-1.23-.29-1.129-.353-1.008-.408-.872-.458-.723-.499-.562-.533-.393-.558-.217-.574-.046-.394M214.744 171.74l.26-1M237.14 171.632l-.087.576-.265.567-.44.551-.608.525-.766.49-.913.448-1.045.397-1.16.341-1.257.28-1.332.21-1.388.142-1.418.07h-1.428l-1.412-.079-1.374-.151-1.314-.223-1.232-.288-1.13-.349-1.01-.404-.874-.454-.724-.495-.563-.529-.393-.553-.217-.568-.046-.391M236.603 171.63l-.475-1.269" fill="none" stroke="#000" stroke-width=".9" stroke-linecap="round"/><path d="M215.28 171.733l.091.547.261.538.427.52.585.493.736.46.875.418 1 .368 1.108.315 1.2.254 1.27.19 1.322.123 1.351.052 1.359-.024 1.343-.088 1.306-.157 1.248-.223 1.17-.284 1.07-.342.958-.394.826-.44.683-.478.53-.508.366-.53.2-.544.038-.377M236.597 171.845l-.64-1.32M215.462 171.295l-.137.41M218.549 140.165l2.097-.535M230.62 139.555l1.235.263 1.138.321 1.025.374.893.422.749.463.591.497.424.522.25.54.071.482M218.983 140.365l-.923.334-.816.374-.698.407-.568.437-.431.46-.287.475-.14.486-.014.225" fill="none" stroke="#000" stroke-width=".9" stroke-linecap="round"/><path d="M214.417 143.572l.074-.519.234-.512.39-.498.538-.478.68-.449.813-.415.932-.376.47-.159M236.996 143.439l-.087.55-.268.544-.443.527-.613.503-.773.47-.92.43-1.054.38-1.17.328-1.267.269-1.344.204-1.399.137-1.43.069-1.44-.002-1.423-.074-1.386-.142-1.324-.21-1.242-.274-1.14-.332-1.017-.386-.881-.433-.73-.472-.567-.505-.396-.528-.219-.544-.046-.374M237.026 149.114l-.088.556-.267.548-.442.532-.612.508-.771.474-.92.433-1.051.385-1.168.33-1.265.27-1.342.207-1.396.137-1.429.069-1.436-.002-1.422-.076-1.383-.145-1.323-.213-1.24-.276-1.137-.336-1.016-.39-.88-.436-.728-.477-.566-.51-.396-.533-.218-.549-.046-.377" fill="none" stroke="#000" stroke-width=".9" stroke-linecap="round"/><path d="M236.294 143.615l-.132-.465-.269-.456-.402-.44-.53-.418-.649-.392-.761-.359-.863-.323-.155-.05" fill="none" stroke="#000" stroke-width=".9" stroke-linecap="round"/><path d="M236.306 143.438l-.084-.504-.244-.494-.4-.479-.549-.454-.69-.424-.82-.387-.937-.345-.743-.22M219.509 140.207l-.526.159" fill="none" stroke="#000" stroke-width=".9" stroke-linecap="round"/><path d="M215.107 143.563l.09.516.26.507.423.49.582.464.732.432.869.393.993.347 1.102.295 1.192.238 1.264.177 1.314.114 1.343.048 1.35-.024 1.336-.085 1.298-.15 1.241-.21 1.163-.27 1.065-.325.952-.372.822-.416.68-.452.526-.48.365-.5.198-.513.039-.357" fill="none" stroke="#000" stroke-width=".9" stroke-linecap="round"/><path d="M218.81 140.8l-.85.32-.756.353-.65.383-.537.408-.417.43-.292.443-.161.451M230.632 146.116l-.788.225-.856.188-.908.142-.947.097-.97.05-.979.002-.969-.045-.944-.093-.906-.137-.85-.183-.784-.222-.702-.259-.61-.29-.51-.319-.4-.341-.284-.358-.164-.37-.043-.302M233.396 143.817l-.051.35-.16.348-.263.338-.366.324-.463.306-.552.283-.636.257-.273.095" fill="none" stroke="#000" stroke-width=".9" stroke-linecap="round"/><path d="M233.394 143.438l-.052.35-.159.348-.264.337-.365.325-.463.305-.553.283-.635.257-.273.092M218.014 143.529l.494-1.062M232.881 142.382l.513 1.056M230.63 145.736l-.789.228-.855.187-.91.142-.947.097-.97.05-.978.002-.969-.045-.945-.092-.905-.138-.851-.18-.784-.22-.702-.258-.61-.291-.51-.318-.4-.341-.284-.358-.164-.37-.043-.301" fill="none" stroke="#000" stroke-width=".9" stroke-linecap="round"/><path d="M218.52 143.523l.06.35.176.343.286.332.394.314.495.293.587.266.672.235.744.199.806.16.853.122.888.078.908.033h.913l.903-.057.88-.1.84-.141.788-.183.723-.218.647-.251.56-.28.463-.305.36-.324.253-.339.14-.347.029-.258M215.367 152.901l-.258-.455-.128-.466.005-.467.14-.465.124-.242M215.367 152.901l-.394-.377-.273-.39-.153-.401-.036-.304M214.724 169.16v-.045l.08-.466.22-.459.116-.166M237.117 167.553l-.007.195-.117.571-.26.564-.4.55-.541.527-.677.499-.801.465-.913.427-1.01.384-1.095.336-1.164.284-1.222.228-1.263.168-1.288.107-1.295.047h-1.283l-1.255-.07-1.209-.125-1.144-.182-1.066-.237-.975-.285-.873-.328-.76-.366-.638-.396-.504-.424-.359-.443-.21-.458-.064-.42M214.685 166.212l.059-.435.2-.458.162-.238M236.832 166.44l.081.169.171.566.034.377" fill="none" stroke="#000" stroke-width=".9" stroke-linecap="round"/><path d="M237.102 164.607l-.002.113-.097.57-.24.563-.381.55-.521.529-.658.501-.785.469-.899.43-.998.39-1.084.343-1.157.29-1.215.235-1.26.175-1.286.117-1.296.057h-1.288l-1.26-.06-1.218-.116-1.155-.173-1.078-.227-.99-.277-.888-.32-.778-.358-.656-.39-.525-.418-.381-.438-.234-.454-.086-.462v-.028M214.65 163.266l.042-.368.18-.456.204-.307" fill="none" stroke="#000" stroke-width=".9" stroke-linecap="round"/><path d="M236.815 163.496l.046.092.192.562.049.457M237.087 161.655v.03l-.077.569-.22.562-.361.55-.502.53-.64.504-.768.472-.883.435-.986.394-1.074.349-1.148.298-1.209.242-1.255.185-1.285.123-1.297.064h-1.29l-1.268-.05-1.225-.109-1.167-.163-1.09-.218-1.004-.268-.904-.313-.795-.35-.675-.385-.544-.411-.403-.434-.255-.45-.107-.458-.005-.092M214.616 160.315l.028-.3.16-.456.243-.376M236.792 160.534l.014.026.213.558.068.536" fill="none" stroke="#000" stroke-width=".9" stroke-linecap="round"/><path d="M237.072 158.698l-.058.516-.2.562-.34.55-.483.53-.62.507-.752.475-.869.44-.972.398-1.063.354-1.14.304-1.202.25-1.25.193-1.284.132-1.297.073-1.294.024-1.272-.043-1.234-.099-1.177-.154-1.103-.208-1.017-.26-.92-.304-.812-.344-.694-.378-.564-.405-.424-.429-.276-.445-.128-.455-.01-.159M214.582 157.358l.016-.235.14-.454.28-.444h.01M236.77 157.57l.213.515.088.563v.05" fill="none" stroke="#000" stroke-width=".9" stroke-linecap="round"/><path d="M237.056 155.737l-.04.433-.18.56-.321.55-.462.532-.602.508-.734.478-.854.443-.96.404-1.051.36-1.13.31-1.196.258-1.246.201-1.28.14-1.298.083-1.296.024-1.278-.033-1.241-.09-1.187-.147-1.116-.202-1.031-.251-.935-.297-.83-.336-.71-.371-.584-.4-.445-.423-.298-.44-.15-.452-.019-.223M214.547 154.397l.007-.169.12-.452.26-.443.065-.081M236.752 154.609l.19.437.11.56.005.13" fill="none" stroke="#000" stroke-width=".9" stroke-linecap="round"/><path d="M237.041 152.77l-.027.352-.159.558-.301.55-.443.533-.583.51-.716.48-.838.447-.946.408-1.04.365-1.122.317-1.188.265-1.24.208-1.278.15-1.297.09-1.3.033-1.282-.024-1.248-.08-1.197-.138-1.128-.192-1.045-.242-.95-.29-.846-.328-.73-.364-.602-.394-.466-.418-.32-.436-.17-.448-.032-.285M214.51 151.43l.002-.103.1-.45.241-.443.043-.06" fill="none" stroke="#000" stroke-width=".9" stroke-linecap="round"/><path d="M236.115 150.842l.085.088.423.528.277.546.13.557.011.21M237.121 168.26l-.007.194-.117.572-.26.564-.401.55-.54.528-.677.499-.8.466-.913.427-1.01.384-1.095.337-1.164.284-1.222.228-1.263.168-1.287.107-1.294.047h-1.284l-1.254-.07-1.209-.125-1.144-.182-1.066-.237-.974-.286-.873-.328-.76-.366-.58-.356-.471-.377-.356-.396-.236-.408" fill="none" stroke="#000" stroke-width=".9" stroke-linecap="round"/><path d="M237.106 165.314l-.002.114-.097.57-.24.564-.381.55-.521.529-.658.502-.785.469-.898.431-.998.39-1.084.343-1.156.29-1.216.235-1.259.176-1.286.116-1.296.057h-1.287l-1.26-.06-1.218-.118-1.155-.173-1.078-.227-.988-.277-.889-.321-.778-.359-.656-.39-.524-.418-.382-.44-.233-.454-.087-.462v-.028" fill="none" stroke="#000" stroke-width=".9" stroke-linecap="round"/><path d="M237.09 162.364v.03l-.076.569-.22.563-.361.55-.502.531-.64.504-.767.473-.884.435-.985.395-1.074.348-1.148.298-1.208.243-1.255.185-1.285.123-1.297.064h-1.29l-1.267-.052-1.225-.109-1.166-.163-1.09-.218-1.004-.269-.904-.313-.795-.351-.675-.385-.544-.412-.403-.434-.255-.45-.107-.46-.005-.091" fill="none" stroke="#000" stroke-width=".9" stroke-linecap="round"/><path d="M237.075 159.408l-.057.517-.2.561-.34.55-.483.533-.62.506-.752.476-.868.44-.973.398-1.062.355-1.14.304-1.201.25-1.251.193-1.283.132-1.297.074-1.293.024-1.273-.043-1.233-.1-1.177-.156-1.103-.21-1.017-.261-.92-.305-.811-.345-.693-.377-.564-.407-.424-.428-.277-.446-.128-.456-.009-.159" fill="none" stroke="#000" stroke-width=".9" stroke-linecap="round"/><path d="M237.06 156.447l-.04.435-.18.56-.321.55-.463.533-.601.509-.734.478-.854.444-.959.403-1.051.36-1.13.311-1.195.258-1.246.2-1.28.141-1.298.083-1.296.024-1.277-.033-1.241-.09-1.187-.147-1.116-.201-1.03-.252-.936-.297-.828-.337-.712-.371-.583-.4-.445-.424-.298-.441-.15-.453-.018-.222" fill="none" stroke="#000" stroke-width=".9" stroke-linecap="round"/><path d="M237.045 153.482l-.027.352-.16.56-.3.55-.443.533-.583.51-.716.482-.838.447-.946.408-1.04.365-1.12.317-1.188.265-1.24.209-1.278.15-1.297.09-1.299.032-1.282-.023-1.249-.08-1.196-.138-1.128-.192-1.044-.244-.95-.289-.846-.33-.73-.364-.602-.394-.466-.418-.32-.437-.17-.449-.032-.286" fill="none" stroke="#000" stroke-width=".9" stroke-linecap="round"/><path d="M229.548 155.305l-.746.095-.76.076-1.041.069-1.054.03h-1.052l-1.272-.061-1.248-.119-1.2-.173-1.13-.225-1.059-.276-.967-.32-.857-.354-.755-.39-.64-.417-.4-.33M214.863 170.472l-.091-.31-.04-.313v-.055" fill="none" stroke="#000" stroke-width=".9" stroke-linecap="round"/><path d="M229.548 155.305l-1.204.197-1.228.142-1.239.088-1.235.035-1.218-.023-1.249-.074-1.198-.128-1.134-.182-1.054-.235-.964-.281-.862-.322-.75-.358-.623-.387-.489-.413-.342-.431-.193-.445-.047-.35M235.129 151.574l.009.052.025.437-.07.381-.172.377-.284.366-.402.35-.503.331-.585.31-.77.328-.853.297-.956.27-1.02.233M218.5 141.629l.278.75M232.876 141.543l-.06-.349-.173-.341-.285-.33-.39-.313-.49-.291-.581-.264-.664-.235-.736-.2-.796-.16-.843-.121-.878-.08-.898-.036h-.903l-.896.05-.874.092-.838.135-.789.173-.727.211-.654.244-.57.273-.478.298-.377.319-.27.334-.16.344-.046.324" fill="none" stroke="#000" stroke-width=".9" stroke-linecap="round"/><path d="M218.778 142.378l.306.328.412.31.512.288.603.26.686.228.756.191.816.154.861.114.893.069.91.026.913-.024.9-.064.874-.106.833-.15.778-.187.71-.223.633-.255.544-.284.447-.308.342-.326.233-.34.119-.347.017-.196M223.798 142.903l-1.547-2.04M229.13 142.277l-5.332.626M227.563 140.241l1.567 2.036M222.251 140.862l5.312-.621M216.808 151.875l.293.437.432.418.565.393.69.362.802.325.902.281.988.235 1.058.182 1.11.128 1.146.071 1.161.024 1.158-.043 1.137-.1 1.096-.156 1.037-.208.963-.258.872-.304.768-.344.65-.378.524-.407.389-.429.193-.319M233.816 168.91l-.774.538-1.076.544-1.254.467-1.393.375-1.496.273-1.556.164-1.568.057-1.533-.05-1.448-.155-1.32-.254-1.153-.343-.96-.416-.562-.341-.346-.282M233.776 165.974l-.355.264-.99.572-1.182.5-1.34.414-1.458.318-1.537.21-1.57.103h-1.556l-1.491-.11-1.38-.21-1.23-.305-1.046-.384-.837-.448-.468-.367M233.818 162.965l-.06.047-.896.597-1.105.53-1.278.452-1.413.36-1.51.256-1.564.147-1.568.04-1.526-.064-1.435-.166-1.299-.264-1.13-.35-.93-.42-.704-.475-.126-.114M233.792 160.005l-.536.39-1.022.559-1.21.485-1.36.4-1.474.3-1.548.195-1.574.088-1.552-.024-1.48-.12-1.364-.221-1.207-.313-1.02-.39-.805-.45-.416-.34M233.814 157.002l-.206.163-.93.584-1.134.517-1.302.436-1.432.344-1.523.24-1.57.133-1.568.029-1.519-.076-1.42-.178-1.279-.273-1.105-.356-.901-.424-.67-.476-.089-.085" fill="none" stroke="#000" stroke-width=".9" stroke-linecap="round"/><path d="M234.365 153.45l-.449.472-.831.607-1.052.546-1.236.47-1.382.384-1.49.285-1.557.178-1.576.073-1.548-.03-1.47-.133-1.344-.232-1.184-.32-.993-.394-.773-.453-.355-.302M235.02 171.626l-.07.467-.214.46-.356.446-.492.425-.62.397-.739.363-.845.322-.938.277-1.017.225-1.078.173-1.123.116-1.148.057h-1.155l-1.144-.064-1.113-.121-1.064-.178-1-.232-.916-.281-.82-.327-.711-.366-.59-.4-.46-.428-.192-.243M217.214 172.71l-.253-.478M227.58 142.459l-.016-2.218M229.668 181.594l-.802.173-.849.13-.88.085-.9.038h-.903l-.893-.057-.867-.102-.827-.147-.444-.101M161.681 186.576l-.834.109-.843.237-.84.359-.822.477-.792.587-.747.688-.692.777-.625.854-.548.917-.462.966-.368.999-.269 1.015-.165 1.016-.058.999.049.967.155.919.259.856.358.78.161.273M160.967 183.731l.628-.109M161.595 183.621l.434 2.194M162.029 185.815h.352M162.38 185.82l1.378-2.165M163.758 183.655l.574.128M164.332 183.783l-.116 1.388M155.102 203.867l-.713.688M154.39 204.555l-.471-.346M153.919 204.21l.774-2.291M154.668 201.71l-.161-.183M154.507 201.528l-2.008 1.09M152.5 202.619l-.318-.54M152.182 202.08l1.36-2.192M153.542 199.888l-.132-.357M153.41 199.53l-2.04.357M151.37 199.887l-.132-.68M151.238 199.207l1.77-1.744M153.008 197.463l-.019-.42M152.989 197.044l-1.872-.417M151.117 196.627l.066-.754M151.183 195.873l2.008-1.12M153.19 194.752l.096-.44M153.286 194.311l-1.518-1.15M151.768 193.161l.26-.753M152.027 192.408l2.046-.385M154.073 192.023l.2-.418M154.273 191.605l-1.013-1.77M153.26 189.834l.426-.676M153.686 189.158l1.882.39M155.568 189.547l.285-.354M155.853 189.193l-.41-2.215M155.444 186.978l.55-.534M155.994 186.444l1.532 1.125M157.526 187.569l.342-.256M157.868 187.313l.233-2.438M158.1 184.875l.62-.338M158.72 184.537l1.033 1.746M159.753 186.283l.365-.132M160.118 186.152l.849-2.42M145.576 189.308l3.455 2.151 2.737 1.702M145.576 189.308l.285-.74M145.861 188.567l3.441 2.144 2.725 1.697M147.18 186.056l3.393 2.108 2.687 1.67M147.18 186.056l.447-.654M147.627 185.402l3.381 2.096 2.678 1.66M145.861 188.567l2.029-.256M147.89 188.311l3.45 2.072 2.733 1.64M147.021 190.563l3.497 2.093 2.768 1.655M147.021 190.563l-1.445-1.255M148.104 187.903l3.443 2.066 2.726 1.636M148.104 187.903l-.924-1.847M147.627 185.402l1.835.513M149.462 185.915l3.408 2.027 2.698 1.605M144.888 192l3.513 2.163 2.782 1.71M144.888 192l2.021-1M146.91 191l3.505 2.096 2.776 1.656M144.792 192.755l3.53 2.163 2.795 1.709M144.792 192.755l.096-.755M149.446 183.322l3.347 2.04 2.65 1.616M149.446 183.322l.563-.501M150.009 182.82l3.34 2.021 2.645 1.603M149.757 185.577l3.403 2.017 2.693 1.599M149.757 185.577l-.311-2.255M144.804 195.36l3.59 2.15 2.844 1.697M144.804 195.36l1.711-1.55M151.863 196.793l1.145.67M147.89 188.311l.214-.408M146.91 191l.111-.437M144.906 196.052l3.608 2.143 2.856 1.692M144.906 196.052l-.102-.692M149.462 185.915l.295-.338M151.816 183.815l3.38 1.951 2.672 1.547M151.816 183.815l.33-2.438M152.145 181.377l3.325 1.95 2.63 1.548M152.145 181.377l.624-.3M152.769 181.076l3.323 1.93 2.629 1.531M145.614 198.312l3.665 2.107 2.903 1.66M145.614 198.312l.885-1.313M153.03 199.597l.512.29M151.739 183.867l.077-.052M145.904 198.875l3.681 2.093 2.914 1.65M145.904 198.875l-.29-.563M159.458 185.783l.66.369M154.382 182.013l.629-1.604M155.01 180.41l3.327 1.85 2.63 1.471M155.01 180.41l.623-.072M155.633 180.34l3.33 1.828 2.632 1.453M147.235 200.567l3.731 2.037 2.953 1.605M147.235 200.567l.292-.77M154.384 201.595l.292.158M147.684 200.945l3.743 2.02 2.962 1.59M147.684 200.945l-.449-.378M161.988 185.611l.393.209M157.759 180.511l3.35 1.752 2.65 1.392M157.26 181.233l.499-.722M158.318 180.677l3.36 1.731 2.654 1.375M157.759 180.511l.559.166M154.479 204.469l1.076.552M162.386 182.774l1.132.554.843.415M164.361 183.743l1.79.88M178.894 193.366l.72.445.645.568.56.68.464.784.364.875.257.952.148 1.016.036.707M170.137 210.499l-.736-.475-.654-.605-.561-.724-.46-.833-.35-.929-.234-1.009-.115-1.074.007-1.12.127-1.15.247-1.16.362-1.152.471-1.125.573-1.08.666-1.015.748-.937.817-.843.874-.735.915-.615.943-.485.954-.348.952-.207.932-.059.9.085.85.23.53.23" fill="none" stroke="#000" stroke-width=".9" stroke-linecap="round"/><path d="M166.2 208.425l-.736-.474-.654-.603-.562-.723-.46-.831-.35-.926-.235-1.006-.116-1.07.005-1.118.126-1.146.245-1.156.36-1.147.47-1.12.57-1.075.665-1.013.745-.933.816-.839.871-.73.914-.612.94-.483.954-.346.95-.204.931-.059.898.088.85.233.53.23M182.088 199.393l-.043 1.122-.161 1.144-.278 1.148-.389 1.135-.494 1.104-.592 1.054-.68.989-.76.907-.823.812-.877.704-.916.584-.941.455-.95.318-.946.176-.924.03-.89-.113-.84-.258-.447-.208" fill="none" stroke="#000" stroke-width=".9" stroke-linecap="round"/><path d="M181.614 199.555l-.04 1.051-.15 1.072-.26 1.076-.365 1.063-.463 1.034-.555.988-.638.926-.71.85-.772.761-.822.66-.858.546-.882.426-.89.298-.885.166-.866.028-.834-.107-.786-.242-.415-.191" fill="none" stroke="#000" stroke-width=".9" stroke-linecap="round"/><path d="M178.625 193.912l.675.418.603.531.523.638.435.734.34.82.241.891.138.952.034.66M170.423 209.96l-.69-.445-.613-.565-.525-.678-.43-.78-.329-.87-.22-.945-.108-1.005.005-1.05.119-1.076.23-1.086.338-1.078.441-1.054.537-1.01.623-.953.7-.877.764-.79.818-.689.857-.576.882-.456.894-.327.891-.194.874-.057.842.08.798.216.504.218" fill="none" stroke="#000" stroke-width=".9" stroke-linecap="round"/><path d="M178.49 193.847l.65.436.58.545.501.646.414.738.32.82.224.888.124.944.024.545M181.327 199.409l-.04 1.05-.15 1.072-.26 1.076-.365 1.063-.463 1.033-.554.988-.638.926-.71.85-.772.76-.822.66-.858.546-.881.426-.89.298-.886.165-.866.028-.833-.106-.787-.242-.09-.038M169.077 203.602l.052.722.13.685.203.637.275.58.342.514.405.441.46.362.297.175" fill="none" stroke="#000" stroke-width=".9" stroke-linecap="round"/><path d="M169.362 203.75l.053.723.129.684.203.638.275.58.343.514.404.441.46.362.297.176M178.76 200.532l-.023.624-.09.637-.154.64-.216.632-.275.614-.33.587-.38.55-.422.505-.459.452-.488.39-.51.325-.524.252-.528.175-.526.097-.513.024-.494-.064-.466-.145-.232-.106M177.577 196.029l-.56-.225-.6-.128-.63-.026-.65.073-.658.173-.658.271-.646.365-.623.452-.592.531-.55.603-.498.666-.44.716-.374.755-.302.784-.226.797-.145.8-.062.789v.323" fill="none" stroke="#000" stroke-width=".9" stroke-linecap="round"/><path d="M171.526 207.867l.558.232.597.133.627.033.647-.066.656-.166.656-.263.644-.356.623-.443.59-.522.551-.593.501-.655.444-.707.38-.746.308-.775.234-.792.155-.795.074-.786-.01-.764-.091-.731-.173-.686-.251-.63-.326-.563-.396-.488-.458-.406-.489-.302M177.29 195.883l-.56-.225-.6-.128-.63-.026-.65.073-.658.173-.657.271-.646.364-.624.452-.59.532-.55.603-.5.665-.439.716-.374.755-.302.783-.225.798-.145.8-.062.787-.001.324" fill="none" stroke="#000" stroke-width=".9" stroke-linecap="round"/><path d="M176.995 197.194l1.139 1.054.577 1.637.05.647M172.13 206.712l-.41-.262-.363-.334-.313-.4-.256-.462-.196-.514-.132-.558-.065-.595v-.62l.07-.638.134-.643.198-.639.26-.624.315-.6.367-.564.413-.522.451-.47.483-.41.507-.345.522-.273.53-.197.528-.118.519-.038.5.043.475.123.328.142M176.23 187.848l-1.129-.447-1.207-.25-1.266-.05-1.307.154-1.324.355-1.321.55-1.298.737-1.251.913-1.186 1.073-1.1 1.217-.998 1.341-.878 1.443-.743 1.522-.598 1.575-.441 1.604-.28 1.606-.11 1.582.058 1.531.031.296M164.112 211.542l1.01.436 1.075.276 1.127.111 1.165-.054 1.187-.218 1.193-.38 1.185-.535.192-.102M180.59 194.78l-.232-1.293-.365-1.213-.493-1.115-.614-1.004-.728-.88-.832-.742-.926-.596-.17-.088M175.228 187.346l-.044-.024M159.882 204.601l.225 1.299.357 1.218.485 1.12.605 1.01.718.884.821.75.913.603.106.057M162.953 210.925l.35.187M162.332 210.532l.62.393M161.068 209.387l.344.253.341.274.295.253.22.199.124.13.024.05M160.592 208.786l.476.6M159.696 207.203l.303.295.284.337.229.329.152.279.065.206-.021.107M159.394 206.43l.302.773M158.925 204.51l.258.326.218.384.152.385.076.341-.005.265-.088.165h-.005M158.819 203.614l.106.895M158.807 201.476l.21.344.149.412.072.421-.007.38-.081.304-.15.202-.071.043M158.903 200.515l-.096.96M159.352 198.296l.163.346.08.42-.009.433-.09.395-.158.32-.214.218-.22.088M159.645 197.33l-.293.966M160.525 195.172l.12.336.017.404-.085.42-.168.384-.23.314-.276.215-.258.085M160.996 194.265l-.47.907M162.252 192.306l.084.31-.038.369-.149.381-.236.349-.295.284-.33.192-.292.073M162.87 191.514l-.618.792M164.421 189.88l.057.271-.079.317-.2.321-.289.29-.346.233-.373.152-.32.05M165.148 189.254l-.727.626M166.893 188.048l.039.112M167.681 187.628l-.788.42M169.51 186.926l.04.14M170.308 186.737l-.798.19M172.104 186.581l.043.112M172.863 186.635l-.76-.055M174.512 187.032l.061.054v.001M175.184 187.324l-.672-.292" fill="none" stroke="#000" stroke-width=".9" stroke-linecap="round"/><path d="M178.381 200.188l-.485-1.531-1.01-1.013-1.374-.331-1.524.403-1.433 1.075-1.112 1.578-.615 1.831-.022 1.792.577 1.469 1.08.914 1.413.216 1.522-.514 1.392-1.162 1.042-1.625.532-1.835z" fill="none" stroke="#000" stroke-width=".9" stroke-linecap="round"/><path d="M178.447 199.898l-.122 1.965-.754 1.96-1.265 1.645-1.58 1.073-1.647.33-1.164-.296M171.915 206.575l-.038-.024M176.72 197.078l1.135 1.05.575 1.63.016.14M159.534 197.349l-.054-.024-.042-.026M157.933 193.668h.012l.124.052M160.405 194.931l.033.026.064.09.023.123M159.645 197.33l-.078.024h-.033M157.104 196.09l-.1-.047-.271-.158-.263-.202M156.47 195.683l-.145-.343-.043-.412.068-.423.17-.382.248-.307.3-.206.28-.081" fill="none" stroke="#000" stroke-width=".9" stroke-linecap="round"/><path d="M157.347 193.531l.304.05.282.088M162.208 192.214l.014.024.031.078M158.247 193.014l-.2-.154-.23-.232M162.107 192.16l.037.023.064.04M160.996 194.265l-.11.052h-.16M158.39 193.106l-.093-.059-.05-.033M157.817 192.626l-.104-.326.016-.385.137-.39.237-.346.309-.271.35-.173.31-.06M159.07 190.674l.297.092.283.128.118.066M156.433 196.65h.046l.298.057.128.038M159.238 197.962l.03.038.058.127.026.169M158.903 200.515l-.052-.024-.069-.059-.037-.04M156.414 199.182l-.104-.035-.288-.124-.29-.163M155.732 198.858l-.19-.345-.11-.417-.007-.43.092-.395.177-.32.242-.218.243-.088M156.178 196.645h.255M159.83 190.08l-.143-.194M162.87 191.514l-.144.076-.138.03h-.059M160.19 190.42l-.086-.069-.223-.213-.051-.06M159.687 189.885l-.07-.296.062-.34.19-.334.29-.288.356-.215.387-.126.333-.028M161.235 188.257l.282.135.264.161.11.078M164.233 189.823h.045l.095.024.048.033M158.07 193.725l.557.258.517.25.513.26.426.235.322.202M157.347 193.531l.47-.905M160.727 194.31l-.271-.106-.35-.161-.48-.244-.572-.312-.664-.383M156.905 196.749l.573.206.527.218.514.257.417.264.302.267M156.178 196.645l.292-.962M159.438 197.302l-.244-.159-.334-.192-.477-.251-.584-.288-.695-.323M158.929 203.582l-.11.033M158.68 201.056l.028.05.062.164.037.206M158.819 203.614l-.034-.057-.058-.097-.035-.054M156.363 202.182l-.105-.026-.299-.088-.309-.12M155.65 201.949l-.239-.333-.178-.4-.09-.415.01-.38.1-.31.18-.21.204-.085M155.637 199.816l.29-.026.293.024.129.024M159.768 190.96l.531.307.503.278.51.266.44.208.355.14M159.07 190.674l.617-.79M162.53 191.618l-.307-.059-.37-.133-.486-.238-.554-.332-.623-.434M156.349 199.837l.578.152.53.19.514.251.414.293.295.333M155.637 199.816l.095-.958M158.745 200.4l-.227-.214-.324-.222-.475-.259-.592-.262-.713-.26" fill="none" stroke="#000" stroke-width=".9" stroke-linecap="round"/><path d="M170.983 185.216l-1.128-.446-1.205-.252-1.265-.05-1.303.152-1.322.351-1.319.545-1.293.732-1.249.907-1.182 1.066-1.097 1.21-.993 1.333-.875 1.435-.74 1.514-.594 1.568-.439 1.596-.276 1.598-.108 1.575.06 1.525.031.294M159.717 209.21h.001l.068.034" fill="none" stroke="#000" stroke-width=".9" stroke-linecap="round"/><path d="M154.686 201.868l.227 1.294.358 1.213.486 1.117.606 1.006.718.882.82.747.913.602.105.057M173.383 186.641l.264.235M171.984 185.719h-.014M171.312 185.428l.672.29M169.665 185.03l-.049-.085M168.906 184.976l.759.055M167.113 185.129l-.04-.114M166.315 185.316l.798-.187M164.49 186.015l-.036-.097M163.702 186.433l.787-.418M161.96 187.633l-.048-.253.095-.279.227-.26.324-.211.387-.142.411-.064h.346M161.235 188.257l.725-.624M155.757 202.842l-.107-.893" fill="none" stroke="#000" stroke-width=".9" stroke-linecap="round"/><path d="M156.228 204.758l-.286-.306-.247-.364-.17-.374-.073-.341.024-.277.116-.185.07-.043M156.53 205.53l-.302-.772M157.426 207.109l-.328-.27-.31-.309-.243-.312-.151-.28-.048-.223.056-.142h.012M157.902 207.709l-.476-.6M159.166 208.852l-.364-.22-.362-.242-.307-.234-.217-.202-.11-.151-.003-.081M159.786 209.244l-.62-.392M161.336 209.882l-.39-.166-.403-.164-.356-.144-.269-.111-.137-.06M161.846 210.003l-.51-.12M166.932 188.16v.111l-.103.249-.232.243-.325.214-.381.163-.404.097-.34.024M166.647 188.07h.246M165.148 189.254l-.18.085-.168.047h-.07M162.387 188.203l-.078-.073-.192-.23-.157-.266M163.702 186.433l.26.173.24.19.1.087M161.89 188.63l.499.35.482.303.508.27.458.184.396.088M164.73 189.395l-.348-.024-.395-.111-.49-.232-.535-.35-.575-.473M159.532 206.381l-.138.05M155.661 202.868l.096-.026M158.765 204.017l.03.06.073.194.057.238M159.394 206.43l-.023-.1-.005-.023M156.953 204.9l-.105-.024-.3-.052-.32-.076M155.757 202.842l.27-.054h.409M156.436 202.793l.572.104.525.16.514.248.416.32.302.393M158.692 203.406l-.222-.268-.32-.256-.474-.266-.594-.237-.719-.199M169.55 187.066l-.006.028-.112.17-.244.155-.34.123-.398.081-.42.028-.35-.024M164.454 185.918v-.107l.111-.204.243-.173.34-.118.398-.057h.419l.35.052M169.195 187.012h.063l.122-.026M167.681 187.628l-.215.088-.198.054-.082.024M164.84 186.597l-.068-.078-.162-.237-.12-.267M166.315 185.316l.23.207.214.213.088.095M160.709 208.754h-.01l-.106.024M156.413 205.563l.116-.033M160.592 208.786l-.022-.142-.06-.169-.04-.08M158.144 207.163h-.101l-.296-.024-.321-.03M156.53 205.53l.243-.074.265-.03h.121M164.302 186.883l.458.384.46.322.503.272.48.166.444.045M167.186 187.783h-.392l-.421-.097-.497-.23-.513-.36-.523-.5M159.367 206.316l-.051-.119-.035-.069M157.159 205.427l.555.062.515.137.511.244.425.342.213.263M159.377 206.473l.11.183M159.28 206.129l-.227-.319-.324-.286-.474-.273-.591-.21-.711-.14M172.147 186.693h0l-.104.088-.236.057-.334.024h-.395l-.419-.045-.35-.07M167.073 185.015l.005-.033.11-.124.24-.078.333-.024.39.033.411.081.345.1" fill="none" stroke="#000" stroke-width=".9" stroke-linecap="round"/><path d="M171.714 186.712h.073l.178-.047.139-.071M167.393 185.7l-.059-.08-.134-.235-.087-.256M168.906 184.976l.198.23.184.227.076.097M162.415 210.546h-.005l-.077-.024M157.803 207.721h.099M162.332 210.532l-.014-.114M159.858 208.831h-.692M157.902 207.709l.213-.083.242-.045h.113M169.38 186.977h.026l.103-.045M166.847 185.829l.414.406.435.335.499.274.502.154.498.024M169.686 186.89h-.2M169.486 186.901h-.182l-.447-.09-.502-.227-.491-.365-.471-.511M160.311 208.14l-.085-.106-.333-.312-.476-.278-.582-.19-.691-.09" fill="none" stroke="#000" stroke-width=".9" stroke-linecap="round"/><path d="M158.47 207.574l.528.028.499.118.508.241.391.311M160.471 208.396l-.16-.256M174.573 187.088h-.077l-.208-.04-.308-.076-.373-.102-.403-.12-.341-.119M169.616 184.944h.001l.092-.04.216.024.307.078.363.126.388.156.33.147M174.427 187.08l.085-.047M169.883 185.568l-.05-.078-.108-.225-.06-.235M171.312 185.428l.163.246.154.234.065.097M161.658 209.836h-.026l-.296.043M159.786 209.244l.179-.08.214-.05.104-.025M171.375 186.729l.339-.024M171.52 186.723l-.24-.059-.506-.227-.47-.362-.421-.507" fill="none" stroke="#000" stroke-width=".9" stroke-linecap="round"/><path d="M169.364 185.53l.37.417.409.34.494.275.526.146.212.024M160.724 208.93l-.207-.048-.659-.052M160.283 209.1h.493l.087.024M171.972 185.726h.011M171.983 185.733l.162.107.262.173.32.21.35.228.306.19" fill="none" stroke="#000" stroke-width=".9" stroke-linecap="round"/><path d="M172.153 186.204l-.042-.076-.086-.207-.041-.203M173.383 186.641l.1.197M172.458 186.615l-.305-.411M171.694 186.005l.328.412.114.114M172.136 186.53l.077.07M153.131 180.339l-.807-.325-.863-.184-.905-.043-.932.1-.944.24-.942.38-.924.511-.89.635-.843.75-.783.85-.708.94-.623 1.011-.527 1.07-.424 1.107-.312 1.13-.197 1.132-.077 1.117.042 1.083.162 1.033.28.965.39.882.496.785.594.675.681.556.493.296M154.502 181.706l-.555.031M152.032 182.215l-1.606.851M149.506 183.759l-1.642 1.71M147.287 186.269l-1.197 2.27M145.755 189.464l-.495 2.352M145.204 193.02l.197 1.799M146.12 196.786l.246.41M145.962 194.311l-.119-.893M145.893 191.503l.336-1.628M146.737 188.457l.844-1.6M148.466 185.637l1.137-1.174M151.02 183.43l.9-.457M134.52 102.33l.43.733M124.028 102.119l1.12-.64 1.72-.459 2.05-.206 2.062.079 1.75.351.514.19" fill="none" stroke="#000" stroke-width=".9" stroke-linecap="round"/><path d="M133.902 101.82l.383.7-.455.718-1.223.623-1.799.428-2.09.164-2.048-.126-1.678-.395-1.044-.601-.245-.711.325-.501M133.244 101.434l.658.386M135.102 108.384l-.04.262-.134.26-.227.255-.316.246-.4.232-.477.215-.548.194-.609.17-.66.144-.702.115-.73.084-.749.052-.754.02-.748-.015-.729-.048-.698-.08-.657-.111-.604-.14-.542-.168-.471-.191-.394-.213-.308-.23-.22-.244-.127-.254-.033-.195M123.056 103.422l.386-.757" fill="none" stroke="#000" stroke-width=".9" stroke-linecap="round"/><path d="M134.951 103.063l-.04.259-.135.258-.228.252-.316.243-.4.23-.479.214-.548.192-.61.17-.662.142-.702.114-.732.083-.75.051-.755.02-.749-.015-.73-.047-.7-.079-.657-.11-.605-.138-.543-.166-.472-.19-.394-.21-.309-.227-.22-.242-.126-.25-.034-.194M128.644 101.58l-2.488.694M126.156 102.274l.336 1.045M126.492 103.319l2.836.351M129.328 103.67l2.491-.697M131.82 102.973l-.349-1.044M131.471 101.93l-2.827-.35M131.471 101.93l.033 1.131M128.644 101.58l.06 2.013M134.144 168.148l-.237.493-.703.43-1.058.3-1.247.121-1.236-.075-1.03-.262-.66-.406-.19-.406M190.822 100.696l.419.737M180.334 100.314l1.128-.621 1.726-.43 2.054-.173 2.06.111 1.745.379.359.133M190.212 100.176l.37.704-.466.71-1.234.602-1.807.397-2.092.13-2.045-.159-1.67-.422-1.033-.617-.233-.714.332-.493M189.406 99.713l.806.463M191.307 106.755l-.045.26-.138.258-.231.251-.32.24-.404.225-.48.207-.551.185-.612.16-.663.133-.703.103-.732.072-.75.04-.753.006-.748-.027-.727-.06-.697-.09-.655-.123-.601-.15-.54-.175-.468-.2-.39-.218-.304-.235-.216-.247-.122-.255-.03-.196M179.342 101.599l.397-.748" fill="none" stroke="#000" stroke-width=".9" stroke-linecap="round"/><path d="M191.24 101.433l-.044.258-.139.255-.231.249-.32.237-.405.224-.482.205-.551.183-.613.159-.663.131-.705.103-.733.07-.75.04-.756.007-.748-.026-.729-.06-.698-.09-.655-.12-.603-.148-.54-.174-.469-.197-.39-.216-.305-.232-.216-.245-.123-.253-.03-.193M184.812 99.859l-2.41.69M182.402 100.55l.465 1.04M182.867 101.59l2.886.35M185.753 101.94l2.413-.695M188.166 101.245l-.477-1.04M187.69 100.205l-2.878-.346M187.69 100.205l.016 1.173M184.812 99.859l.028 1.97M189.391 166.475l-.245.488-.71.417-1.063.28-1.248.1-1.235-.1-1.025-.28-.653-.418-.184-.408M154.04 89.253l1.076-.602 1.666-.428 1.515-.168M156.366 91.31l-1.56-.417-.913-.597-.122-.682.268-.36M157.98 97.503l-.713-.046-.685-.076-.646-.106-.596-.134-.537-.159-.469-.181-.394-.202-.312-.218-.226-.232-.135-.24-.044-.225M153.102 90.48l.36-.693M156.369 92.146l-.64-.108-.59-.136-.528-.161-.459-.183-.382-.202-.3-.218-.214-.23-.122-.24-.032-.187M157.232 89.11l-1.13.312M156.101 89.422l.395.99M156.496 90.411l.042.005M104.758 223.475l-.311-.18M93.363 229.497l1.453.856M102.658 187.043l-2.553-1.351M82.324 211.221l.444.187.874.342.906.325.298.1M85.582 213.054l1.564 1.918M76.192 207.171l.184.194.497.486.54.473.269.215M87.146 214.972h.007l.073.097.093.14.109.185.035.064M93.34 219.457l.424.975.325 1.161.173 1.253M86.875 178.688l-2.49-1.318M103.625 240.557l.246.12.298.098.312.055h.323l.329-.033.332-.078.33-.121.324-.161.314-.202.297-.238.277-.272.253-.3.226-.326.195-.346.162-.362.126-.373.088-.38.05-.38.006-.388" fill="none" stroke="#000" stroke-width=".9" stroke-linecap="round"/><path d="M108.114 236.88l-.014-.21-.058-.357-.1-.34-.14-.315-.178-.285-.21-.25-.24-.211-.182-.123M94.262 222.846l.914 12.38M99.933 238.363l3.66 2.176M106.967 234.775l-2.552-1.495M89.912 232.82l.32.509.359.493.402.478.445.464.49.448.535.431.58.414.625.394.632.354M95.176 235.227l.11.676.073.246M94.235 236.77l2.006 1.072M99.388 239.066l.156.043M99.553 239.112l.785-.252M100.331 238.862l.28-.09M108.052 236.38l1.027-.33M89.25 232.017l.4.238M89.005 227.365l-.115.152-.215.327-.184.347-.15.362-.113.37-.075.377-.035.376.005.37.047.36.09.341.128.319.167.29.2.257.232.22.23.167M89.218 231.998l.026.024h.002M140.692 151.732l3.312 1.6M126.357 145.651l3.228 1.563M136.523 125.747l-.544-5.26M123.079 120.88l-1.026 23.992M192.661 123.88l-.372-4.089M194.38 142.776l-1-10.989M192.289 119.787l-.012-.092-.061-.274-.101-.26-.138-.246-.175-.234-.215-.224-.259-.215-.307-.207-.354-.193-.392-.176-.42-.155-.442-.136-.254-.066M156.97 111.518l-.2.172-.355.343-.31.357-.263.368-.213.374-.16.378-.112.377-.062.376-.016.371v.019M155.28 114.647l.166 7.343M192.182 128.238l-.024-.485.032-.537.079-.576.11-.598.117-.599.102-.574.062-.534.01-.248M192.666 123.942l-.002-.032M192.358 129.827l-.176-1.59M193.382 131.8l-.062-.326-.115-.343-.16-.379-.208-.454-.28-.594-.156-.346-.128-.3M192.827 131.12h0l-.034-.047-.08-.123-.115-.22-.065-.158-.066-.198-.062-.247-.047-.3M155.44 121.727l-.306.124M189.15 117.307l-.413-.117M189.244 114.044l-.017-.266-.06-.363-.101-.355-.144-.349-.187-.342-.056-.089M182.158 108.7l-.258-.065-.717-.163-.739-.148-.758-.134-.776-.118-.792-.104-.806-.089-.818-.073-.829-.058-.837-.042-.843-.027-.847-.012-.85.005-.848.02-.848.035-.799.048-.111.007M189.263 115.502l-.019-1.451M157.01 111.5l-.001-.001-.04.019M152.97 108.745l-.169 12.23M164.782 107.027l-.157-.116-.313-.193-.351-.176-.386-.156-.411-.137-.432-.117-.347-.079M156.09 106.189l-.16.042-.427.126-.407.143-.385.161-.36.183-.337.208-.276.212-.23.22-.186.229-.145.235-.106.244-.069.251-.03.28-.001.027M177.33 114.808l-.18-.23-.256-.142-.29-.031-.28.084-.225.187-.133.255M169.68 107.784l-.487.026-.473.01-.46-.008-.441-.021-.8-.076-.693-.115-.563-.137-.443-.15-.321-.148-.217-.14M167.817 261.174l-.222-3.756M166.894 266.044l.055-2.946M182.896 227.255l-7.664 2.747M139.664 222.353l-.012.25M126.673 233.133l-2.486-22.67M193.637 226.335l-.291 3.898M194.98 208.36l-.79 10.59M126.462 210.27l-.11-3.44M137.89 206.47l.099 3.44M192.962 204.804l.042 3.439M183.36 227.057l-.464.199M187.696 224.882l-4.336 2.175M144.255 222.024l-5 .358M127.766 210.343l-.413-.057-.36-.216-.246-.338-.097-.408h0M126.65 209.324l.07-.414.225-.354.197-.16M180.782 210.937l-.035-.301M144.674 224.223l-3.566-1.973M193.346 230.234l-.007.07-.054.293-.093.284-.132.273-.172.265-.211.255-.255.246-.298.235-.339.22-.376.204-.406.182-.432.161-.453.143-.47.12-.487.1-.5.081-.508.06-.516.037-.519.024h-.52l-.516-.024-.51-.045-.502-.064-.489-.085-.475-.106-.457-.126-.437-.147-.416-.17-.39-.192-.364-.216-.332-.242-.24-.213M194.19 218.946l-.017.178M194.172 219.123l-.019.133M194.154 219.256l-.019.118-.098.472-.133.51-.157.535-.167.555-.158.554-.128.543-.078.512M193.216 223.055l-.147 1.529M193.068 224.584l-.014.253.005.201.04.287.047.161.028.071h.002M193.096 224.318l.082.225.195.536.148.454.094.404.021.405M176.666 230.87l-.442.033-.842.05-.48.024M181.47 231.848l-.214-.176-.247-.149-.259-.125-.25-.102-.292-.1-.221-.064-.204-.052-.287-.064-.375-.066-.469-.062-.418-.035-.474-.024h-.524l-.572.03M190.3 201.435l.007.63M160.652 87.52l.517-14.989M182.682 84.09l.213 3.029M161.169 72.53l.009-.151.052-.358.093-.346.131-.33.166-.315.202-.3.236-.287.275-.276.318-.268.369-.26.422-.253.471-.24.507-.218.243-.094M156.357 91.622v-.17l.032-.401.075-.392.113-.375.037-.098M156.614 90.186l.124-.286.197-.363.235-.35.278-.344.322-.337.371-.33.422-.323.469-.312.512-.297.548-.28.577-.26.012-.005M182.842 86.301l.346.138.566.248.54.27.511.296.48.322.44.348.348.325.302.334.259.342.216.35.177.357.15.406.1.41.053.408.009.21M156.433 95.04l-.076-3.417M187.339 91.066l.046 3.42M182.896 87.119l.002.025.019.102.02.057.01.017M160.608 87.723l.005-.007.017-.044.019-.083.005-.068M182.992 98.226l-.005 1.07M188.113 69.266l.362.162.396.223.374.261.35.299.326.334.298.368.269.4.238.431.207.458.172.483.138.505.103.523.065.539.03.55-.007.56-.044.563-.08.566-.115.563-.15.56-.183.55-.217.539-.248.524-.278.507-.306.487-.334.463-.36.437-.382.409-.404.377-.423.342-.44.307-.453.267-.465.227-.473.185-.328.102M185.182 68.144l2.882 1.103M185.75 83.336l-3.061.849M180.723 66.438l2.857 1.093M157.956 97.53l.191-.175M157.085 100.633l-.03-1.394M178.174 66.205l.265-.038.475-.035.468.01.46.054.446.099.391.125M180.68 66.422l.033.011M214.81 177.318l-.066-5.578M237.14 171.632l.028 5.583M214.417 143.572l.067 5.67M237.026 149.114l-.03-5.675M233.396 143.817l-.002-.38M218.014 143.529l.005.378M214.724 169.16l.007.635M214.685 166.212l.007.706M214.65 163.266l.008.707M214.616 160.315l.007.708M214.582 157.358l.009.71M214.547 154.397l.009.71M214.51 151.43l.01.711M237.045 153.482l-.005-.712M237.06 156.447l-.005-.71M237.075 159.408l-.005-.71M237.09 162.364l-.004-.71M237.106 165.314l-.005-.707M237.121 168.26l-.005-.707M232.888 143.438l-.012-1.895M218.5 141.629l.019 1.894M235.02 171.626l-.002-.4M151.827 183.72l-.177.091M149.71 185.243l-.368.373-.19.209M147.92 187.535l-.012.024-.292.537-.13.266M146.767 190.343l-.007.026-.129.586-.036.199M178.894 193.366l-3.968-2.006M166.2 208.425l3.937 2.074M177.577 196.029l-.287-.147M171.24 207.718l.286.15M163.303 211.113l.81.429M176.23 187.848l-1-.501M171.836 206.535l.04.024M176.72 197.078l-.04-.024M158.92 208.787l.802.425M171.976 185.715l-.993-.499M144.568 197.034l1.408.741M154.723 181.143l-1.592-.804M178.245 70.605l-.756-63.338M163.32 7.095l1.386 63.758M134.52 102.33l-.618-.51M124.028 102.119l-.586.546M135.102 108.384l-.151-5.321M123.056 103.422l.169 5.322M132.777 121.33l-.325-11.137M125.98 110.39l.346 11.135M127.138 147.628l.645 20.716M134.144 168.148l-.604-20.717M190.822 100.696l-.61-.52M180.334 100.314l-.595.537M191.307 106.755l-.067-5.322M179.342 101.599l.084 5.32M188.774 119.655l-.147-11.138M182.154 108.607l.167 11.135M182.752 148.307l.276 18.246M189.391 166.475l-.27-20.596M154.04 89.253l-.579.534M153.102 90.48l.12 5.204M162.429 108.27l-.125-6.023M155.892 97.266l.25 11.14M163.358 153.266l-.001-.061M86.078 195.016l-2.179-1.192M88.306 189.006l2.274 1.227M100.476 187.015l-2.5-1.327M82.082 210.907l2.5.944M72.067 187.35l-2.12-1.16M91.155 211.466l-2.113-.668M72.415 180.434l2.226 1.2M76.052 206.94l1.428 1.316M85.984 212.645l2.756-1.022M84.326 178.447l-2.444-1.297M87.146 214.972l.79.822.986.771 1.174.713 1.35.646 1.513.571 1.66.493.575.144M94.487 223.047l2.479.676M93.491 219.52l.24.48.28.697.219.735.162.792.095.823M89.25 220.015l-.093-.795-.152-.767-.22-.753-.28-.711-.234-.475M88.356 218.722l.893 1.293M89.238 215.892l.815-.304M102.994 210.756l1.058-.395M97.704 233.758l9.404-3.142" fill="none" stroke="#000" stroke-width=".9" stroke-linecap="round"/><path d="M94.487 223.047l-.16-.085-.065-.112h0M95.4 235.43l2.173.622M94.487 223.047l.914 12.384M103.417 209.24l-.157.059M88.793 214.689l-.996.37M107.836 237.133l-.206-.874-.514-.617-.744-.264-.854.133-.83.509-.676.804-.412.972-.086.987.257.844.556.57.768.203.859-.192.813-.558.641-.836.367-.982zM95.4 235.43l-.158-.084-.066-.114h0M103.802 211.875l2.136 1.205" fill="none" stroke="#000" stroke-width=".9" stroke-linecap="round"/><path d="M103.594 240.539l-.69-.718-.315-1.06.113-1.234.522-1.213.848-1 1.04-.63 1.067-.158.788.248M104.417 233.28l-.045-.025M104.372 233.255l-.123-.059-.392-.12-.421-.036-.459.05-.453.132-.463.218-.43.282-.416.355-.373.393-.344.44-.302.463-.262.477-.205.448-.158.426" fill="none" stroke="#000" stroke-width=".9" stroke-linecap="round"/><path d="M99.571 236.723l-.095.979.392.62.065.043M98.974 236.546l.156-.47.217-.501.28-.523.336-.519.38-.482.422-.44.464-.388.491-.32.516-.242.52-.154.512-.062.486.033.438.124.38.208.296.276.212.337.099.296M97.458 237.045l1.516-.5M106.025 234.223l.722-.238M106.4 213.92l2.785-.99M94.29 236.8l3.765 1.417M95.4 235.43l.086.576.171.54.029.065.021.05M89.361 231.179l.817 1.164" fill="none" stroke="#000" stroke-width=".9" stroke-linecap="round"/><path d="M95.708 236.66l-1.086-.386-1.077-.474-.973-.53-.885-.597-.761-.648-.209-.208M98.974 236.546l.16-.024.172.028.156.073.11.095M106.51 216.161l2.442-.872M89.79 217.75l.18.633.17.836.102.868" fill="none" stroke="#000" stroke-width=".9" stroke-linecap="round"/><path d="M89.25 220.015l.14.09.217.052h.258l.257-.04.12-.038M100.436 238.662l-.91-.175-.56-.636-.052-1.056.06-.25M99.418 239.004l1.034-.332M91.23 232.942l.158.157.724.614.844.57.955.521 1.055.466.228.088M90.242 220.087l.965 12.867M90.178 232.343l-.929-12.328M107.054 228.158l2.442-.792M108.02 236.24l1.45-.466M100.483 238.69l-.085.135-.06.033M107.072 228.98l2.288-.743M89.016 227.618l-.59 1.166-.195 1.23.231 1.098.62.792.168.114M183.19 137.085l-8.559 2.63M139.08 148.84l3.314 1.595M124.742 142.783l3.228 1.556M180.129 131.943l3.156-1.352M172.11 134.38l8.019-2.437M164.116 106.869l-1.193-.574-.538-.147M156.094 106.283l-.504.16-.447.18-.38.196-.31.21-.232.222-.152.228-.07.232.015.23.1.228.181.22.262.208.337.194.408.176.472.156.25.068M169.738 107.847l-.798.035-.799-.007-.86-.057-.813-.106-.742-.154-.652-.195-.54-.232-.418-.262M182.166 108.805l-.59-.148-1.16-.25-1.222-.214-1.274-.174-1.316-.134-1.349-.092-1.37-.05-1.384-.007-1.386.035-1.377.076M188.889 117.347l-.153-.04M180.006 119.52l.202.242.286.231.368.215.443.196.511.174.572.15.622.12.663.092.693.06.712.03.72-.006.716-.036.7-.068.672-.099.635-.128.586-.155.53-.18.462-.2.39-.22.31-.234.225-.245.137-.252.047-.255-.043-.254-.133-.25-.221-.239-.305-.227-.384-.21-.456-.19-.522-.168-.255-.068M176.069 118.71l.395-.03.402-.015.541.009.526.042.495.072.45.102.393.128.325.15.247.169.163.182M157.622 111.342l-.516.487-.39.5-.26.51-.126.514.007.514.143.51.276.503.408.49.538.472.661.452.782.427.894.399 1 .366 1.096.33 1.185.293 1.262.252 1.33.208 1.384.163 1.428.117 1.458.069 1.477.021 1.482-.028 1.474-.076 1.453-.124M156.025 109.19l.591.177.504.207.44.26.307.285.16.302.015.31-.137.31-.283.3" fill="none" stroke="#000" stroke-width=".9" stroke-linecap="round"/><path d="M192.29 119.791l-.027.304-.134.302-.24.295-.34.283-.438.267-.527.246-.609.221-.68.193-.74.162-.79.127-.825.092-.848.053-.856.014-.852-.023-.832-.063-.8-.1-.754-.134-.697-.169-.628-.2-.55-.227-.461-.25-.368-.27-.266-.287-.054-.08M193.381 131.796v.082l-.042.08-.086.008-.128-.065-.17-.152-.197-.245-.154-.254-.149-.32-.087-.25-.078-.303-.054-.34M178.974 120.549l-.081 1.35-.132 2.186-.278 4.619M192.235 130.036l-.184-1.584M192.05 128.452l-.027-.415.012-.449.01-.11.063-.501.092-.501.119-.534.12-.508.12-.55.082-.491.025-.394-.005-.097M189.139 134.505l-5.949 2.58" fill="none" stroke="#000" stroke-width=".9" stroke-linecap="round"/><path d="M180.006 119.52l-.407.117-.341.258-.22.357-.064.297M176.069 118.71l.102.223.088.345.061.415.024.389M176.344 120.082l-2.14.169-2.17.072-2.169-.026-2.127-.124-2.053-.22-1.944-.31-1.803-.397-1.633-.477-1.437-.548-1.218-.61-.98-.663-.727-.703-.464-.734-.194-.75-.005-.11M157.622 111.342l-.376.028-.277.148" fill="none" stroke="#000" stroke-width=".9" stroke-linecap="round"/><path d="M175.933 128.147l.243-4.757.111-2.182.057-1.126M178.974 120.549l-.109-.121-.165-.11-.217-.096-.262-.078-.3-.06-.33-.039-.352-.017-.362.005-.533.049M192.663 123.902l-.002-.034M192.05 128.452l.127-.165.005-.05M192.358 129.827l-.075.165-.048.044M173.786 115.117l1.198.058 1.17.102M176.719 115.344l.951.14.909.17.858.2.802.228.74.254.153.059M176.746 143.034l-.397-.048-.27-.086M176.08 142.9l-.01-.388M175.39 142.585l.69.315M176.08 142.965v-.064M189.244 114.046l-.524 1.515M169.682 107.784l.056.063M157.013 111.5l-.012-.05-.13-.25-.24-.23-.356-.215-.397-.167-.478-.144" fill="none" stroke="#000" stroke-width=".9" stroke-linecap="round"/><path d="M155.4 110.444l.052-.41.145-.386.217-.303.212-.154M155.415 113.692l-.015-3.248M178.565 113.992l-.022-1.393M155.4 110.444l-.573-.166-.508-.19-.435-.21-.356-.229-.27-.243-.184-.255-.092-.262-.012-.144M164.782 107.027l-.328-.152-.338-.007M162.112 255.713l.098 2.947M184.103 224.672l-8.033 2.87M183.945 214.12l.158 10.552M147.322 233.139l-3.244-1.82M141.41 236.116l3.236 1.836M127.437 230.302l3.155 1.796M133.153 227.395l-3.162-1.78M182.896 227.255l.75-.624.406-1.157.051-.802M181.008 210.31l.63.327M181.637 210.637l-.682.238M189.056 211.649l2.753-1.353M191.81 210.296l-.24-.339M190.172 200.615l-.26-.628-.398-.61-.534-.592-.662-.567-.783-.534-.904-.503-1.01-.463-1.107-.42-1.202-.375-1.281-.327-1.001-.21M178.44 208.252l.547-.078 1.44-.25M184.624 224.452l-.52.22M184.624 224.452l-.156-10.549M151.873 221.258l2.219-.863M190.595 221.468l-5.97 2.984M143.963 220.843l-8.307.593M193.346 230.233l-.077.35-.177.344-.274.332-.367.315-.455.293-.535.267-.607.234-.668.2-.72.16-.759.121-.786.078-.801.033-.802-.024-.791-.055-.767-.099-.73-.14-.681-.18-.622-.218-.553-.25-.474-.28-.39-.304-.062-.059M181.248 231.366l-.347-3.396M192.931 224.769l-.019.368.022.342.012.078.072.31.101.25.128.207.13.13.134.06.094-.05.034-.124M193.088 223.236l-.157 1.533" fill="none" stroke="#000" stroke-width=".9" stroke-linecap="round"/><path d="M183.36 227.057l.834-.793.405-1.268.025-.544M144.305 222.228l-.331-.183M171.84 221.005l1.487.796M183.243 206.588l-.033-2.215M176.934 216.689l-.19.596-.08.313-.07.32-.042.238M177.178 215.302l-.057.695-.187.692M175.854 214.603l1.324.699M177.223 216.876l-.1-.057-.189-.13M178.136 214.06l-.057-5.445M182.381 204.667l.03 1.983M181.471 231.848l-.125-.163-.098-.319M177.115 209.421l.063 5.88M177.778 215.457l-.165-.024-.239-.054-.196-.081M194.187 218.973l-.032.261-.083.412-.123.461-.165.534-.19.581-.15.466-.144.487-.086.337-.075.363-.051.361" fill="none" stroke="#000" stroke-width=".9" stroke-linecap="round"/><path d="M193.088 223.236l.124-.156.005-.026M176.744 230.276l-1.64.099M176.674 229.485l.07.79M193.068 224.584l-.102.16-.034.027M181.248 231.366l-.33-.265-.425-.238-.507-.207-.576-.165-.63-.126-.664-.078-.685-.03-.687.023" fill="none" stroke="#000" stroke-width=".9" stroke-linecap="round"/><path d="M176.666 230.87l.041-.06.031-.208.007-.326M164.608 215.978l.177-.114.047-.028M182.895 87.119l-.056.468-.233.465-.408.455-.576.437-.735.412-.883.381-1.017.344-1.134.3-1.234.25-1.312.2-1.37.142-1.406.084-1.418.025-1.407-.035-1.373-.095-1.317-.153-1.24-.208-1.14-.26-1.025-.307-.892-.35-.746-.386-.587-.417-.42-.44-.245-.457-.07-.454M161.169 72.531l.068.418.233.41.394.394.549.373.696.346.832.312.955.274 1.063.231 1.153.185 1.225.135 1.276.082 1.307.03 1.318-.025 1.305-.078 1.272-.13 1.218-.18 1.144-.228 1.051-.271.943-.31.817-.343.68-.372.533-.393.376-.41.215-.417.029-.111" fill="none" stroke="#000" stroke-width=".9" stroke-linecap="round"/><path d="M179.596 70.673l-.203.329-.33.32-.452.306-.567.288-.673.265-.77.237-.851.205-.922.17-.976.134-1.015.093-1.037.051-1.043.01-1.03-.033-1.003-.075-.958-.116-.897-.154-.823-.19-.735-.223-.635-.253-.526-.278-.408-.299-.283-.314-.155-.325-.024-.33.106-.332.236-.325.36-.316.479-.3.21-.11M156.357 91.622l.138.653.385.639.626.614.858.58 1.077.535 1.28.483 1.461.422 1.62.353 1.754.28 1.856.2 1.93.118 1.972.034 1.98-.051 1.957-.135 1.9-.217 1.813-.296 1.695-.368 1.551-.436 1.381-.495 1.189-.546.978-.59.752-.62.515-.644.27-.656.044-.413M158.559 88.948l.194-.378.29-.373.382-.364.472-.353.558-.34.214-.114" fill="none" stroke="#000" stroke-width=".9" stroke-linecap="round"/><path d="M182.86 86.625l.857.47.668.504.468.532.262.552.05.563-.165.564-.376.557-.584.54-.78.515-.967.482-1.138.44-1.29.391-1.422.336-1.531.275-1.615.209-1.672.14-1.701.068-1.704-.005-1.677-.077-1.624-.148-1.543-.217-1.437-.282-1.309-.342-1.159-.396-.99-.445-.807-.485-.61-.518-.405-.541-.193-.558.019-.563.073-.239M178.178 66.419l2.623 1.006M185.28 69.144l-5.684 1.529M182.401 68.039l2.88 1.105" fill="none" stroke="#000" stroke-width=".9" stroke-linecap="round"/><path d="M160.667 87.093l-.813.498-.624.527-.424.545-.218.557-.007.56.204.551.414.536.617.512.811.479.993.438 1.158.39 1.306.336 1.433.276 1.536.211 1.614.143 1.665.072h1.69l1.687-.072 1.656-.143 1.597-.211 1.512-.276 1.404-.336 1.271-.391 1.119-.44.949-.48.763-.512.567-.537.36-.553.152-.56-.062-.557-.271-.547-.477-.527-.674-.498-.538-.306M183.037 86.778l-.164.028M183.037 86.778l-.168-.075h-.002M181.501 71.623l3.957-1.068M185.919 70.045l-.146-.397-.222-.316-.262-.185-.007-.002M186.53 70.305l1.904.232 1.523 1.173.069.09M190.6 72.829l.445 2.244-.342 2.466-.042.136M190.117 79.006l-1.449 2.017-1.863 1.308-.11.048M186.097 82.91l-.136.284-.21.142M188.064 69.247l-2.233-.22-.55.117M185.628 82.712l-2.993.829M178.175 66.274l2.26.066.288.098M149.754 185.55l-.327.355M148.07 187.834l-.256.486M146.99 190.536l-.111.48M159.438 197.302h.114M159.552 197.311h.016M159.569 197.308l-.049-.097-.35-.21-.595-.293-.746-.328-.725-.29M162.107 192.16l.066.082M162.173 192.242l-.056.06-.328-.127-.549-.29-.683-.408-.709-.462-.08-.054M158.745 200.4l.198-.176-.132-.241-.441-.27-.68-.255-.812-.201-.464-.076M164.233 189.823l-.033.27-.276.038-.476-.201-.6-.409-.63-.551-.327-.338M158.692 203.406l.214-.335-.122-.341-.439-.293-.685-.199-.824-.073-.473.024M166.647 188.07l-.154.375-.351.102-.494-.187-.557-.445-.533-.633-.256-.4M159.28 206.129l.196-.484-.133-.433-.44-.315-.68-.147-.809.043-.461.107M169.195 187.012l-.285.444-.433.144-.512-.175-.51-.469-.43-.687-.178-.44M160.471 208.396l.08-.202M159.565 206.842h-.041M159.524 206.839l-.753.083-.627.24M171.714 186.712l-.101.159M169.872 186.818l-.357-.673-.151-.614M160.51 208.474l-.652.357M171.768 186.706l-.074-.701" fill="none" stroke="#000" stroke-width=".9" stroke-linecap="round"/><path d="M92.401 975.965l54.78 32.611" fill="none" stroke="#000" marker-end="url(#a)" transform="translate(0 -822.52)"/><path d="M214.543 1091.055l-48.121-4.986" fill="none" stroke="#000" marker-end="url(#b)" transform="translate(0 -822.52)"/><path d="M57.764 1069.47l27.37-34.518" fill="none" stroke="#000" marker-end="url(#c)" transform="translate(0 -822.52)"/><path d="M247.49 895.271l-55.44 55.701" fill="none" stroke="#000" marker-end="url(#d)" transform="translate(0 -822.52)"/><path d="M102.829 891.863l58.79 22.953" fill="none" stroke="#000" marker-end="url(#e)" transform="translate(0 -822.52)"/><path d="M113.053 853.993l53.265 22.765" fill="none" stroke="#000" marker-end="url(#f)" transform="translate(0 -822.52)"/><path d="M244.65 1010.394l-68.42-.026" fill="none" stroke="#000" marker-end="url(#g)" transform="translate(0 -822.52)"/><path d="M93.361 930.11l34.33 7.24" fill="none" stroke="#000" marker-end="url(#h)" transform="translate(0 -822.52)"/><text style="line-height:1.25;-inkscape-font-specification:Orbitron" x="34.082" y="849.482" font-weight="400" font-size="16" font-family="Orbitron" letter-spacing="0" word-spacing="0" transform="translate(0 -822.52)"><tspan x="34.082" y="849.482">Drive Cable</tspan></text><text style="line-height:1.25;-inkscape-font-specification:Orbitron" x="213.583" y="889.245" font-weight="400" font-size="16" font-family="Orbitron" letter-spacing="0" word-spacing="0" transform="translate(0 -822.52)"><tspan x="213.583" y="889.245">Top half</tspan></text><text style="line-height:1.25;-inkscape-font-specification:Orbitron" x="18.935" y="933.173" font-weight="400" font-size="16" font-family="Orbitron" letter-spacing="0" word-spacing="0" transform="translate(0 -822.52)"><tspan x="18.935" y="933.173">Screws</tspan></text><text style="line-height:1.25;-inkscape-font-specification:Orbitron" x="49.609" y="975.208" font-weight="400" font-size="16" font-family="Orbitron" letter-spacing="0" word-spacing="0" transform="translate(0 -822.52)"><tspan x="49.609" y="975.208">Gear</tspan></text><text style="line-height:1.25;-inkscape-font-specification:Orbitron" x="6.816" y="1088.059" font-weight="400" font-size="16" font-family="Orbitron" letter-spacing="0" word-spacing="0" transform="translate(0 -822.52)"><tspan x="6.816" y="1088.059">Breech</tspan></text><text style="line-height:1.25;-inkscape-font-specification:Orbitron" x="215.477" y="1103.206" font-weight="400" font-size="16" font-family="Orbitron" letter-spacing="0" word-spacing="0" transform="translate(0 -822.52)"><tspan x="215.477" y="1103.206">Clip</tspan></text><text style="line-height:1.25;-inkscape-font-specification:Orbitron" x="230.246" y="1051.325" font-weight="400" font-size="16" font-family="Orbitron" letter-spacing="0" word-spacing="0" transform="translate(0 -822.52)"><tspan x="230.246" y="1051.325">Bottom </tspan><tspan x="230.246" y="1071.325">half</tspan></text><text style="line-height:1.25;-inkscape-font-specification:Orbitron" x="243.879" y="947.942" font-weight="400" font-size="16" font-family="Orbitron" letter-spacing="0" word-spacing="0" transform="translate(0 -822.52)"><tspan x="243.879" y="947.942">Worm</tspan></text><text style="line-height:1.25;-inkscape-font-specification:Orbitron" x="247.287" y="1014.971" font-weight="400" font-size="16" font-family="Orbitron" letter-spacing="0" word-spacing="0" transform="translate(0 -822.52)"><tspan x="247.287" y="1014.971">Hob</tspan></text><text style="line-height:1.25;-inkscape-font-specification:Orbitron" x="17.108" y="887.073" font-weight="400" font-size="16" font-family="Orbitron" letter-spacing="0" word-spacing="0" transform="translate(0 -822.52)"><tspan x="17.108" y="887.073">Sleeve clamp</tspan></text><path d="M266.384 953.114l-24.007 31.465" fill="none" stroke="#000" marker-end="url(#i)" transform="translate(0 -822.52)"/><path d="M229.184 1055.792l-40.57-3.507" fill="none" stroke="#000" marker-end="url(#j)" transform="translate(0 -822.52)"/></svg>