<svg viewBox="0 0 1250 1250" xmlns="http://www.w3.org/2000/svg" fill-rule="evenodd" clip-rule="evenodd" stroke-linecap="round"><path d="M597.58 719.976l-29.942-11.603M625.983 692.443l-28.403 27.533M624.854 653.186l1.129 39.257M595.097 641.11l29.757 12.076M566.283 668.762l28.814-27.652M567.638 708.373l-1.355-39.611M593.937 604.264l-8.248 2.73-8.099 3.927-7.816 5.064-7.403 6.121-6.865 7.08-6.213 7.924-5.456 8.636-4.609 9.208-3.683 9.625-2.697 9.881-1.668 9.974-.611 9.901.453 9.666 1.506 9.267 2.533 8.724 3.512 8.033 4.431 7.219 5.274 6.285 6.027 5.262 6.679 4.151 2.038.982" fill="none" stroke="#000" stroke-width="3.75"/><path d="M585.213 589.706l-7.47-2.276-7.844-1.072-8.094.223-8.211 1.407-8.198 2.631-8.048 3.817-7.767 4.945-7.355 5.991-6.822 6.942-6.174 7.783-5.422 8.493-4.58 9.065-3.66 9.484-2.681 9.748-1.656 9.848-.607 9.784.448 9.56 1.496 9.178 2.515 8.646 3.49 7.975 4.403 7.174 5.24 6.261 5.99 5.252 6.638 4.163 2.25 1.094M625.982 605.878l-24.852-2.984-7.193 1.361M563.024 753.929l7.356 2.636 7.745 1.429 8.009.225 8.146-1.05 8.154-2.254 8.034-3.426 7.791-4.536 7.427-5.572 6.95-6.52 6.146-7.082M659.158 681.885l1.19-9.715.179-9.593-.835-9.326-1.842-8.909-2.82-8.355-3.76-7.669-4.645-6.857-5.46-5.938-6.194-4.915-6.831-3.812-2.157-.916M561.077 557.773l6.124-.535M567.201 557.227l4.499 21.904M571.7 579.131l3.429.335M575.129 579.465l13.142-20.082M588.271 559.383l5.584 1.741M593.855 561.122l-1.71 23.549M592.144 584.671l2.962 1.607M595.106 586.287l16.904-15.154M612.01 571.133l4.508 3.819M616.518 574.952l-7.636 22.89M608.882 597.842l1.505 1.853M611.781 600.244l18.269-8.524M630.051 591.72l3.017 5.495M633.068 597.215l-5.823 9.185M578.294 758.003l-5.862 2.924M572.432 760.927l-2.68-4.534M556.717 751.063l-5.742 16.553M550.975 767.616l-6.053.782M544.922 768.398l-4.524-21.154M540.398 747.244l-3.429-.225M536.969 747.027l-13.114 20.141M523.855 767.168l-5.652-1.473M518.203 765.695l1.587-23.235M519.79 742.46l-3.022-1.495M516.768 740.956l-17.183 15.58M499.585 756.536l-4.689-3.622M494.896 752.914l7.661-23.047M502.557 729.867l-2.312-2.663M500.245 727.204l-19.634 9.395M480.611 736.599l-3.241-5.447M477.37 731.152l13.084-20.54M490.454 710.612l-1.361-3.569M489.092 707.043l-20.168 2.165M468.924 709.21l-1.444-6.745M467.479 702.465l17.278-15.911M484.757 686.554l-.263-4.125M484.494 682.429l-18.685-5.372M465.809 677.057l.521-7.369M466.33 669.688l19.773-9.6M486.103 660.088l.869-4.266M486.972 655.822l-15.302-12.428M471.671 643.394l2.446-7.235M474.117 636.159l20.277-2.265M494.394 633.894l1.918-3.969M496.312 629.925l-10.367-18.239M485.945 611.686l4.122-6.355M490.067 605.331l18.729 5.319M508.796 610.65l2.768-3.267M511.564 607.383l-4.405-22.179M507.159 585.204l5.367-4.824M512.526 580.38l15.299 12.335M527.825 592.715l3.335-2.239M531.16 590.476l1.937-23.843M533.096 566.633l6.056-2.817M539.152 563.816l10.375 18.053M549.527 581.869l3.56-.982M553.087 580.876l7.99-23.103M417.355 614.104l30.131 16.254 24.185 13.036M417.355 614.104l2.678-7.007M420.033 607.097l30.002 16.125 24.082 12.937M432.58 583.633l29.604 15.558 23.761 12.495M432.58 583.633l4.288-6.027M436.868 577.606l29.512 15.373 23.687 12.352M420.033 607.097l19.992-.938M440.025 606.155l30.167 15.391 24.202 12.348M431.901 627.394l30.557 15.783 24.514 12.645M431.901 627.394l-14.546-13.29M442.058 602.349l30.103 15.299 24.151 12.277M442.058 602.349l-9.478-18.716M436.868 577.606l18.177 6.464M455.045 584.07l29.825 14.739 23.926 11.841M411.103 639.804l30.638 16.596 24.589 13.288M411.103 639.804l19.782-8.243M430.885 631.561l30.639 15.837 24.579 12.69M410.308 647.072l30.791 16.652 24.71 13.333M410.308 647.072l.795-7.268M454.405 558.789l29.268 14.638 23.486 11.777M454.405 558.789l5.45-4.428M459.855 554.361l29.224 14.417 23.447 11.602M457.886 581.012l29.786 14.621 23.892 11.75M457.886 581.012l-3.481-22.223M567.585 706.835l29.995 13.141M410.972 672.36l31.353 16.73 25.154 13.375M410.972 672.36l17.579-14.661M428.551 657.699l29.109 14.962M466.767 677.333l17.99 9.221M440.025 606.155l2.033-3.806M430.885 631.561l1.016-4.167M412.131 679.139l31.514 16.714 25.279 13.357M412.131 679.139l-1.158-6.779M455.045 584.07l2.841-3.058M516.602 583.664l14.558 6.812M478.021 563.323l2.536-21.244M480.557 542.079l29.155 13.598 23.384 10.956M428.551 657.699l-.017-.759M480.557 542.079l6.046-2.395M486.603 539.684l29.162 13.364 23.387 10.768M419.586 701.44l32.069 16.523 25.715 13.189M419.586 701.44l9.351-13.388M484.342 707.554l6.112 3.058M567.504 667.59l58.479 24.853M422.562 707.05l32.219 16.435 25.83 13.114M422.562 707.05l-2.976-5.61M547.56 578.445l5.527 2.431M503.534 547.443l4.806-12.33M508.34 535.113l29.273 12.544 23.464 10.116M508.34 535.113l6.028-.224M514.368 534.961l29.328 12.326 23.505 9.94M435.974 724.155l32.71 15.999 26.212 12.76M435.974 724.155l3.236-8.612M498.631 727.976l3.926 1.897M440.443 728.05l32.834 15.85 26.308 12.636M440.443 728.05l-4.469-3.895M571.461 577.961l3.668 1.495M534.959 538.443l29.601 11.592 23.711 9.348M532.109 542.416l2.85-3.973M541.327 540.885l28.743 11.038 23.785 9.199M540.372 540.519l.956.357M534.959 538.443l4.602 1.764M516.68 741.036l3.11 1.429M458.392 738.338l33.213 15.227 26.598 12.13M458.392 738.338l.156-1.541M593.614 564.468l18.396 6.665M527.783 761.139l17.139 7.259M612.865 585.91l17.186 5.81M555.589 754.317l16.843 6.61M427.478 658.595l-3.528-4.094M416.88 637.398l.111-18.397.945-4.371M420.413 607.079l9.884-16.33 3.84-4.043M443.212 579.863l10.918-4.467M454.13 575.396l2.788-.558M1120.84 789.612l8.059 4.069 7.279 5.543 6.388 6.917 5.404 8.174 4.34 9.297 3.215 10.27 2.047 11.078.852 11.714v5.02M1038.63 982.937l-7.863-4.529-7.072-6.014-6.161-7.408-5.145-8.692-4.038-9.841-2.858-10.833-1.625-11.651-.36-12.279.918-12.703 2.183-12.916 3.414-12.91 4.589-12.69 5.689-12.254 6.691-11.614 7.58-10.774 8.339-9.762 8.958-8.585 9.425-7.272 9.733-5.839 9.878-4.32 9.861-2.738 9.681-1.116 9.347.513 8.863 2.121 2.183.803" fill="none" stroke="#000" stroke-width="3.75"/><path d="M991.919 961.536l-7.859-4.516-7.077-5.978-6.175-7.353-5.168-8.615-4.068-9.746-2.897-10.721-1.67-11.522-.413-12.139.86-12.549 2.118-12.754 3.346-12.743 4.518-12.518 5.615-12.085 6.618-11.446 7.507-10.616 8.27-9.61 8.891-8.444 9.363-7.145 9.677-5.727 9.829-4.228 9.819-2.665 9.649-1.072 9.323.536 8.848 2.12 2.181.804M1158.42 861.694l-.85 12.302-2.034 12.486-3.184 12.484-4.286 12.291-5.321 11.914-6.275 11.353-7.136 10.623-7.889 9.728-8.525 8.683-9.032 7.5-9.401 6.198-9.629 4.797-9.707 3.311-9.635 1.763-9.411.225-9.037-1.406-8.444-2.962" fill="none" stroke="#000" stroke-width="3.75"/><path d="M1153.66 863.295l-.792 11.529-1.904 11.707-2.984 11.706-4.018 11.526-4.99 11.17-5.885 10.647-6.692 9.958-7.399 9.116-7.995 8.136-8.468 7.025-8.815 5.803-9.025 4.484-9.097 3.092-9.027 1.652-8.815.225-8.461-1.34-7.764-2.722M1118.53 795.862l7.542 3.826 6.811 5.203 5.976 6.493 5.054 7.67 4.056 8.723 3.001 9.636 1.906 10.393.783 10.987-.002 4.502M1041.53 976.937l-7.37-4.228-6.629-5.618-5.778-6.924-4.827-8.125-3.791-9.198-2.688-10.13-1.535-10.897-.351-11.483.842-11.881 2.024-12.083 3.176-12.079 4.275-11.878 5.304-11.476 6.242-10.876 7.076-10.101 7.789-9.156 8.37-8.06 8.811-6.833 9.103-5.5 9.244-4.08 9.233-2.603 9.071-1.094 8.762.425 8.314 1.942 2.336.848" fill="none" stroke="#000" stroke-width="3.75"/><path d="M1118.56 796.047l7.223 4.46 6.444 5.799 5.568 7.04 4.61 8.161 3.585 9.149 2.51 9.993 1.399 10.675.291 10.547M1150.18 861.871l-.788 11.52-1.9 11.696-2.98 11.697-4.013 11.513-4.984 11.16-5.881 10.634-6.688 9.949-7.395 9.107-7.99 8.125-8.465 7.016-8.81 5.797-9.023 4.477-9.094 3.085-9.025 1.629-8.812.225-8.461-1.339-6.006-1.964M1024.61 903.933l.366 8.388 1.232 7.947 2.074 7.372 2.88 6.681 3.634 5.886 4.328 4.996 4.949 4.031 5.087 2.828M1109.39 820.014l-6-1.786-6.359-.692-6.617.424-6.77 1.541-6.812 2.643-6.743 3.698-6.564 4.697-6.276 5.624-5.884 6.458-5.393 7.189-4.813 7.802-4.153 8.285-3.423 8.632-2.636 8.837-1.808 8.893-.949 8.804-.156 4.363" fill="none" stroke="#000" stroke-width="3.75"/><path d="M1052.58 953.598l5.906 2.009 6.266.915 6.523-.225 6.677-1.295 6.725-2.359 6.668-3.389 6.507-4.363 6.245-5.266 5.886-6.087 5.439-6.808 4.907-7.426 4.302-7.929 3.628-8.308 2.901-8.558 2.127-8.676 1.322-8.666.491-8.513-.346-8.234-1.181-7.826-2-7.293-2.79-6.642-3.541-5.889-4.237-5.038-4.871-4.102-5.429-3.099-1.317-.557M1105.91 818.612l-5.999-1.786-6.358-.692-6.615.425-6.768 1.54-6.81 2.638-6.74 3.692-6.562 4.692-6.272 5.616-5.881 6.453-5.39 7.181-4.809 7.792-4.149 8.277-3.419 8.624-2.633 8.827-1.804 8.886-.946 8.794-.157 4.362M1028.04 905.435l.363 8.396 1.23 7.95 2.072 7.379 2.878 6.688 3.633 5.888 4.327 4.998 4.949 4.034 5.087 2.83" fill="none" stroke="#000" stroke-width="3.75"/><path d="M1124.8 872.975l-.455 6.876-1.125 6.986-1.775 6.989-2.395 6.884-2.98 6.669-3.518 6.353-4.002 5.937-4.423 5.429-4.777 4.837-5.057 4.165-5.259 3.429-5.378 2.638-5.413 1.809-5.363.937h-5.229l-5.01-.848-4.087-1.429M1104.23 833.275l4.451 2.317 4.017 3.136 3.52 3.9 2.97 4.602 2.374 5.23 1.743 5.772 1.087 6.221.416 6.576-.004 1.942" fill="none" stroke="#000" stroke-width="3.75"/><path d="M1058.55 940.678l-4.391-2.457-3.953-3.28-3.45-4.053-2.891-4.761-2.281-5.397-1.634-5.946-.957-6.4-.264-6.748.438-6.989 1.129-7.116 1.806-7.122 2.453-7.016 3.059-6.793 3.616-6.455 4.112-6.015 4.54-5.476 4.893-4.846 5.166-4.138 5.353-3.366 5.454-2.54 5.463-1.675 5.387-.781h5.221l4.974 1.005 2.429.848" fill="none" stroke="#000" stroke-width="3.75"/><path d="M1040.7 917.574l5.265-3.183 5.081-3.927 4.816-4.607 4.479-5.214 4.07-5.739 3.601-6.176 3.074-6.514 2.501-6.752 1.889-6.883 1.245-6.912.583-6.83.045-1.607M1077.35 853.232l-2.159-16.823M878.788 653.675l-12.025-3.415-12.678-1.34-13.132.759-13.372 2.887-13.394 4.968-13.191 6.987-12.766 8.897-12.123 10.672-11.272 12.27-10.225 13.67-9.002 14.837-7.622 15.754-6.111 16.402-4.497 16.768-2.809 16.85-1.076 16.643.665 16.154.239 2.261M772.805 902.895l11.657 4.299 12.322 2.252 12.786.225 13.045-1.852 13.102-3.862 12.955-5.792 12.612-7.62 12.079-9.322 11.367-10.873 10.486-12.256 9.452-13.447 8.278-14.437 6.983-15.208 5.583-15.754 4.101-16.065 2.553-16.134.962-15.962-.648-15.549-2.256-14.899-3.839-14.02-5.374-12.92-6.835-11.609-8.203-10.114-9.452-8.442-10.563-6.627-7.171-3.192M872.437 651.257h-.276l-1.179-.424-1.391-.469-1.672-.535-1.792-.558-1.975-.603-2.016-.602-2.087-.625-1.777-.536-1.741-.558M724.396 825.706l2.407 14.283 3.862 13.384 5.252 12.296 6.558 11.039 7.76 9.629 8.841 8.094 9.791 6.458 3.938 2.008M755.387 894.214l1.864.96 1.991 1.049 1.96 1.027 1.986 1.026 1.804.916 1.719.848.402.225M749.119 889.915l6.268 4.299M736.312 877.536l1.748 1.205 1.783 1.317 1.775 1.384 1.717 1.428 1.575 1.362 1.431 1.294 1.214 1.161 1 1.005.75.848.492.648.223.471-.017.225M731.472 871.087l4.84 6.449M722.344 854.192l1.571 1.384 1.556 1.563 1.502 1.696 1.411 1.764 1.252 1.74 1.091 1.697.88 1.562.674 1.429.442 1.227.201 1.027-.045.826-.244.511M719.269 845.98l3.075 8.212M714.469 825.612l1.369 1.518 1.294 1.741 1.192 1.919 1.056 2.031.875 2.032.697 2.008.486 1.876.286 1.741.067 1.54-.134 1.339-.355 1.094-.563.826-.242.225M713.386 816.152l1.083 9.46M713.287 793.616l1.156 1.585 1.02 1.83.859 2.032.677 2.165.468 2.188.27 2.187.067 2.076-.134 1.942-.331 1.763-.516 1.54-.698 1.295-.862.982-.886.603-.302.225M714.288 783.529l-1 10.087M718.935 760.315l.948 1.585.748 1.83.531 2.031.302 2.188.067 2.232-.156 2.235-.369 2.12-.564 2.009-.741 1.83-.902 1.608-1.054 1.361-1.169 1.072-1.116.669-1.168.4M721.967 750.268l-3.032 10.047M731.071 727.929l.759 1.496.502 1.741.228 1.942-.045 2.075-.31 2.121-.558 2.143-.77 2.054-.969 1.941-1.132 1.786-1.267 1.563-1.391 1.339-1.467 1.049-1.337.67-1.346.4M735.936 718.599l-4.865 9.33M748.887 698.635l.601 1.361.294 1.563-.021 1.741-.339 1.852-.629 1.898-.9 1.919-1.118 1.831-1.319 1.741-1.471 1.585-1.592 1.406-1.689 1.183-1.73.937-1.534.581-1.504.357M755.256 690.646l-6.369 7.989M771.173 674.382l.246.469M778.611 668.26l-7.438 6.122M796.416 656.744l.424.938.045.267M804.423 652.871l-8.007 3.873M822.924 646.809l.416.67.067.535M830.97 645.412l-8.046 1.406M848.963 645.115l.459.402.089.357M856.53 646.244l-7.567-1.138" fill="none" stroke="#000" stroke-width="3.75"/><path d="M913.808 782.909l-4.61-16.342-9.917-11.241-13.711-4.319-15.362 3.351-14.566 10.551-11.414 16.094-6.411 19.051-.375 18.926 5.693 15.761 10.805 10.103 14.163 2.9 15.271-4.69 13.997-11.489 10.568-16.473 5.519-18.911.35-13.272z" fill="none" stroke="#000" stroke-width="3.75"/><path d="M914.269 780.291l-1.491 20.5-7.73 20.073-12.775 16.565-15.866 10.482-16.514 2.73-9.119-2.34M811.952 831.087l-12.255-10.113-6.912-16.425-.413-20.143 6.189-20.625 11.798-17.765 15.487-12.044 16.666-4.425 11.712 2.143M893.553 747.706l12.471 9.723 7.191 16.074 1.054 6.788M850.774 848.301l-12.263-10.176-6.879-16.569-.342-20.355 6.286-20.864 11.905-17.995 15.586-12.226 16.742-4.528 11.745 2.12M720.053 750.63h-.252M715.762 748.436l-6.58-2.777-7.862-3.239-5.386-2.187M729.786 726.023l.343.223.679.692.263 1.027M721.967 750.268l-.819.446-.913-.041h-.178M695.729 740.157l-1.024-.446-2.79-1.541-2.695-1.986M689.219 736.175l-.86-1.541-.624-1.785-.36-1.987-.089-2.12.224-2.143.495-2.143.748-2.031.986-1.92 1.188-1.719 1.355-1.518 1.5-1.272 1.582-.982 1.434-.625 1.428-.38M698.226 714.065l3.116.447 3.018.848 1.277.491M748.7 698.244l.178.402M706.409 707.916l-1-.781-2.363-2.297M747.315 697.755h.402l.817.29.157.223M735.936 718.599l-1.152.781-1.163.29-.516-.02M708.935 709.523l-.967-.558-1.56-1.049M703.046 704.835l-.679-1.45-.393-1.652-.089-1.831.239-1.942.549-1.942.846-1.919 1.099-1.808 1.33-1.697 1.513-1.517 1.657-1.317 1.774-1.094 1.819-.826 1.61-.491 1.569-.291M715.893 685.092l3.05.871 2.903 1.205 1.212.625M714.022 783.616h-.281l-.725-.4-.38-.312M690.214 746.235l2.154.379 1.31.333M717.731 757.382l.309.313.62 1.094.275 1.517M714.288 783.529h-.266M688.652 772.246l-1.063-.333-2.958-1.184-2.967-1.607M681.663 769.108l-1.063-1.563-.888-1.808-.676-2.009-.438-2.165-.178-2.188.089-2.209.346-2.099.589-1.986.808-1.808 1.003-1.607 1.176-1.362 1.301-1.071 1.226-.67 1.261-.424M686.227 746.119l3.087.042h.9M722.965 678.24l-.75-1.05M771.418 674.849l.243.692.134 1.317-.201 1.451-.556 1.54-.87 1.562-1.161 1.563-1.384 1.495-1.589 1.407-1.737 1.294-1.846 1.116-1.928.938-1.94.714-1.694.425-1.634.223M755.256 690.646l-1.516 1.004-1.455.558h-.621M727.384 682.394l-.889-.648-2.285-2.053-1.246-1.451M722.215 677.195l-.531-1.272-.201-1.474.134-1.562.496-1.674.797-1.607 1.136-1.63 1.344-1.451 1.616-1.384 1.734-1.183 1.911-1.026 1.953-.804 2.022-.58 1.724-.313 1.689-.223M738.029 661.124l2.894 1.294 2.718 1.54 1.127.737M769.13 674.461h2.044M705.636 715.84l2.925 1.205 2.811 1.161 2.738 1.138 2.591 1.094 2.765 1.161 2.536 1.071 2.351 1.005 2.071.893 1.851.803 1.511.67M698.226 714.065l4.82-9.23M733.107 719.655l-1.324-.224-1.511-.357-1.728-.513-1.906-.648-2.388-.915-2.591-1.094-2.86-1.294-3.035-1.474-3.343-1.696-3.484-1.853M693.68 746.963l3.011.915 2.879.937 2.789.96 2.622.96 2.778 1.116 2.523 1.094 2.309 1.116 2.005 1.093 1.752 1.117 1.384 1.071M686.227 746.119l2.992-9.944" fill="none" stroke="#000" stroke-width="3.75"/><path d="M719.8 750.525l-1.163-.536-1.379-.625-1.625-.714-1.832-.804-2.342-1.026-2.586-1.116-2.897-1.228-3.116-1.317-3.472-1.473-3.658-1.54M714.069 815.936l-.683.225M681.464 778.962l2.196-.225 3.011.225 1.314.225M711.953 789.735l.299.446.647 1.495.389 1.943M713.386 816.152l-.35-.4-.614-.804-.357-.491M688.149 803.648l-1.078-.225-3.054-.827-3.16-1.16M680.858 801.431l-1.259-1.495-1.179-1.786-.995-1.92-.83-2.12-.572-2.099-.344-2.165-.089-2.009.156-1.964.395-1.741.63-1.585.814-1.317 1.011-1.049.992-.647 1.091-.4M680.694 779.101l.77-.225M723.059 687.802l2.781 1.473 2.697 1.384 2.651 1.295 2.534 1.183 2.741 1.205 2.552 1.049 2.41.871 2.174.692 2.004.513 1.712.29M715.893 685.092l6.322-7.897M751.663 692.302h-1.534l-1.683-.223-1.863-.335-2.003-.536-2.446-.848-2.595-1.072-2.809-1.361-2.926-1.607-3.17-1.92-3.251-2.143M687.985 779.085l3.033.625 2.896.692 2.801.782 2.627.847 2.777 1.072 2.513 1.138 2.291 1.25 1.976 1.318 1.714 1.428 1.339 1.495M680.694 779.101l.969-9.993M712.635 782.849l-1.062-.871-1.297-.893-1.558-.937-1.786-.96-2.311-1.116-2.579-1.116-2.918-1.161-3.161-1.161-3.549-1.205-3.762-1.183" fill="none" stroke="#000" stroke-width="3.75"/><path d="M823.789 632.733l-11.98-3.417-12.618-1.384-13.058.692-13.286 2.783-13.296 4.837-13.084 6.824-12.651 8.707-12.003 10.456-11.148 12.035-10.101 13.418-8.878 14.573-7.503 15.482-5.998 16.125-4.392 16.498-2.713 16.585-.993 16.39.739 15.918.247 2.232M829.964 635.086h.201l1.899.736 1.927.782 1.989.803 1.691.692 1.663.692M725.087 880.409l-.866-.427-.935-.488-.665-.384-.346-.246h-.067M671.072 801.498l2.46 14.085 3.902 13.205 5.279 12.143 6.572 10.911 7.76 9.528 8.831 8.025 9.767 6.416 3.926 2.008M839.328 638.867l6.61 3.529" fill="none" stroke="#000" stroke-width="3.75"/><path d="M823.018 633.474l-.457-.312-.112-.224M815.471 632.333l7.547 1.139M797.538 632.579l-.402-.558-.067-.335M789.523 633.943l8.015-1.362M771.101 639.9l-.393-.825-.021-.224M763.133 643.715l7.968-3.815M745.424 655.077l-.248-.492M738.029 661.124l7.395-6.047M681.964 810.808l-1.107-9.377M686.805 831.007l-1.48-1.429-1.429-1.629-1.332-1.786-1.186-1.897-.975-1.942-.759-1.942-.505-1.853-.256-1.741-.003-1.584.238-1.407.48-1.183.692-.915.775-.558.261-.225M689.892 839.156l-3.087-8.149M699.037 855.929l-1.667-1.25-1.67-1.406-1.625-1.541-1.522-1.607-1.337-1.629-1.145-1.63-.893-1.54-.647-1.451-.377-1.294-.112-1.139.156-.937.406-.715.28-.246M703.879 862.335l-4.842-6.406M716.678 874.645l-1.822-1.049-1.87-1.138-1.869-1.205-1.801-1.251-1.64-1.227-1.469-1.206-1.221-1.138-.978-1.05-.699-.937-.419-.781-.135-.625.157-.443h.004M722.937 878.929l-6.259-4.284M738.518 886.065l-1.907-.781-2.044-.849-2.018-.825-2.04-.849-1.842-.781-1.741-.759-1.453-.647-.384-.225M745.776 887.986l-7.258-1.919M779.167 805.172l1.214 7.496 1.982 7.031 2.72 6.469 3.415 5.814 4.058 5.076 4.639 4.266 5.151 3.402 2.643 1.317M860.165 716.297l-6.204-1.897-6.545-.803-6.782.267-6.911 1.362-6.927 2.444-6.831 3.482-6.622 4.465-6.303 5.379-5.881 6.205-5.359 6.933-4.75 7.545-4.06 8.036-3.302 8.388-2.492 8.607-1.638 8.681-.761 8.611.134 8.4.241 2.745M804.99 846.041l20.339 3.055 16.417-4.799M884.407 743.978l-11.298-19.002-12.944-8.679" fill="none" stroke="#000" stroke-width="3.75"/><path d="M801.576 844.507l-5.661-3.159-5.124-4.149-4.504-5.076-3.807-5.924-3.046-6.679-2.233-7.33-1.379-7.859-.5-8.264.388-8.533 1.272-8.661 2.137-8.647 2.966-8.489 3.748-8.19 4.467-7.754 5.111-7.194 5.671-6.516 6.136-5.728 6.499-4.848 6.753-3.895 6.898-2.877 6.928-1.808 6.847-.737 6.655.357 6.357 1.451 2.537.915M796.893 657.943l.004.759-.319 1.093-.685 1.139-1.016 1.138-1.321 1.116-1.554 1.072-1.766.982-1.91.893-2.016.759-2.089.625-2.085.446-1.804.223h-1.723M745.175 654.592l-.2-.602-.09-1.183.291-1.25.656-1.295.989-1.25 1.299-1.183 1.54-1.049 1.759-.938 1.915-.781 2.027-.625 2.105-.446 2.103-.268h3.551M793.753 657.641l.571-.223 1.286-.379.6-.268M778.611 668.26l-1.89 1.093-1.773.737-.739.223M749.824 660.566l-.799-.715-1.986-2.21-1.616-2.582M763.133 643.715l2.659 1.697 2.478 1.83 1.022.826M744.767 664.706l2.591 1.719 2.543 1.562 2.535 1.429 2.458 1.272 2.704 1.25 2.57 1.005 2.485.781 2.305.514 2.203.245h1.969M774.209 670.28l-1.774.245-1.882.021-2.02-.223-2.112-.447-2.512-.781-2.599-1.071-2.745-1.407-2.799-1.696-2.965-2.076-2.977-2.352M720.498 845.464l-.422.271-.808.246M681.324 811.011l.641-.225M712.805 820.92l.315.558.755 1.83.596 2.301M719.269 845.98l-.135-.581M694.204 832.286h-1.067l-3.071-.446-3.263-.715M681.964 810.808l2.761-.647 2.889-.225h1.287M688.901 810.065l2.991.358 2.861.469 2.772.625 2.606.759 2.761 1.004 2.508 1.161 2.296 1.362 1.991 1.518 1.741 1.74 1.377 1.875M712.065 814.46l-1.029-1.205-1.268-1.183-1.534-1.161-1.767-1.116-2.298-1.206-2.573-1.138-2.919-1.094-3.171-.982-3.567-.937-3.789-.804M823.407 648.008l-.021.223-.343.692-.721.692-1.058.647-1.375.625-1.614.558-1.832.514-1.982.424-2.09.335-2.163.223h-2.154l-1.857-.013h-1.77M770.679 638.938l.004-.736.357-.871.73-.848 1.063-.781 1.373-.692 1.607-.558 1.819-.447 1.966-.312 2.07-.223h4.27l1.837.223 1.75.245M819.539 648.338l.669-.223 1.583-.603 1.134-.737M774.741 645.436l-.703-.737-1.683-2.247-1.255-2.545M789.523 633.943l2.364 2.009 2.199 2.031.906.893M732.637 870.639h-.045l-.466.291h-.65M688.881 839.531l.281-.225.73-.225M731.472 871.087l-.232-1.317-.634-1.584-.406-.76M706.348 856.319h-1.031l-3.012-.225-3.268-.27M689.892 839.156l2.487-.848 2.7-.404h1.232M796.21 656.867l.2-.223M802.158 653.967l-2.072.782-.864.245M769.291 648.052l2.368 1.875 2.363 1.697 2.397 1.54 2.368 1.339 2.659 1.272 2.587.982 2.569.715 2.455.402h2.43l2.266-.29M799.222 654.999l-2.033.379-2.092.223h-2.187l-2.226-.379-2.581-.737-2.601-1.049-2.676-1.406-2.659-1.741-2.743-2.165-2.682-2.478M719.126 845.397l-.112-.271-.583-1.205-.365-.625M696.311 837.864h2.889l2.777.292 2.705.471 2.56.647 2.734.96 2.507 1.205 2.323 1.452 2.047 1.673 1.828 1.987 1.493 2.21M718.075 843.277l-1.065-1.518-1.294-1.428-1.554-1.362-1.779-1.25-2.301-1.295-2.568-1.138-2.902-1.005-3.144-.825-3.526-.67-3.738-.469M849.518 645.869l-.283.291-.658.223-.998.223h-2.886l-1.793-.016h-1.951l-2.067-.224-2.147-.223-2.145-.246-1.855-.29-1.77-.335M797.071 631.668l.021-.223.341-.469.705-.402 1.034-.29 1.337-.223h3.337l1.915.223 2.016.29 2.087.38 2.082.446 1.8.446 1.718.469" fill="none" stroke="#000" stroke-width="3.75"/><path d="M846.111 646.668l1.352-.558 1.5-.982M800.476 637.923l-.609-.759-1.398-2.21-.933-2.393M815.471 632.333l2.032 2.233 1.901 2.165.791.915M749.999 889.875h-.869M702.925 862.592l.373-.225h.582M749.119 889.915l-.315-1.719-.111-.383M723.713 874.257h-.976l-2.88.225-3.18.225M703.879 862.335l2.165-.96 2.458-.556h1.152M818.845 648.496l.694-.223M820.716 647.972l-.27.004h-2.345l-2.347-.335-2.64-.714-2.609-1.049-2.597-1.407-2.526-1.763-2.511-2.165-2.394-2.523" fill="none" stroke="#000" stroke-width="3.75"/><path d="M794.993 638.862l2.121 1.987 2.174 1.786 2.242 1.607 2.275 1.384 2.6 1.294 2.613.983 2.647.647 2.623.312h2.659l1.897-.29M729.323 866.065l-.283-.404-1.378-1.652-1.611-1.518-1.826-1.384-2.315-1.361-2.571-1.161-2.857-.937-3.093-.692-3.417-.472-3.627-.225" fill="none" stroke="#000" stroke-width="3.75"/><path d="M709.655 860.705h2.727l2.658.225 2.6.359 2.5.58 2.687.937 2.519 1.228 2.362 1.54 2.146 1.831.134.225M729.995 867.351l.433.443M730.199 867.442l-.875-1.384M822.439 632.979l.004-.013h.834l.889.223 1.212.335 1.395.447 1.645.58 1.542.58M825.357 638.405l-.522-.737-1.145-2.076-.672-2.142M839.328 638.867l1.681 2.355 1.605 2.187.68.893M722.218 878.772h.249l.469.225M745.114 885.051h-.902l-2.688.404-3.006.494M722.937 878.929l1.819-.938 2.181-.625 1.053-.225M834.47 646.014l-2.304-1.294-2.392-1.719-2.303-2.121-2.114-2.466M820.194 637.63l1.879 2.009 1.978 1.808 2.091 1.607 2.174 1.384 2.079 1.072M734.828 875.489l-1.4-.404-3.001-.603-3.276-.291h-3.439M727.991 877.19l2.532-.225h2.498l2.478.291.792.225M846.344 643.938l.901.759 1.067.848" fill="none" stroke="#000" stroke-width="3.75"/><path d="M847.411 646.121h-.045l-.947-1.852-.487-1.808M745.776 887.986l1.471-.825.542-.225M843.293 644.318l1.654 1.964.373.402M745.764 884.98h-.649M637.016 725.487l38.714 16.81M637.016 725.487l12.614-39.792M649.63 685.695l41.584 17.446M649.63 685.695l33.023-13.208M682.653 672.487l22.229 9.132M657.532 751.576l14.79 6.505M657.532 751.576l-20.516-26.089M353.751 488.055l-8.168-2.502-8.547-1.25h-8.789l-8.888 1.339-8.845 2.623-8.654 3.866-8.321 5.047-7.85 6.151-7.247 7.157-6.522 8.044-5.687 8.799-4.758 9.413-3.748 9.864-2.676 10.154-1.561 10.275-.422 10.225.724 10.004 1.85 9.619 2.946 9.078 3.988 8.39 4.961 7.567 5.848 6.623 6.637 5.58 7.314 4.449 1.975.96M318.717 653.063l8.027 2.947 8.427 1.696 8.69.402 8.815-.87 8.802-2.143 8.65-3.366 8.366-4.534 7.952-5.622 7.417-6.625 6.77-7.521 6.019-8.301 5.178-8.951 4.257-9.464 3.272-9.83 2.236-10.049 1.165-10.114.067-9.931" fill="none" stroke="#000" stroke-width="3.75"/><path d="M383.854 499.887l-8.204-2.508-8.587-1.228h-8.834l-8.938 1.384-8.897 2.669-8.709 3.925-8.377 5.116-7.907 6.232-7.302 7.243-6.576 8.141-5.74 8.901-4.805 9.516-3.792 9.971-2.715 10.261-1.593 10.382-.449 10.326.703 10.102 1.839 9.71 2.941 9.161 3.99 8.462 4.969 7.627 5.863 6.674 6.658 5.616 7.342 4.475 1.982.96M422.837 560.764l-1.014-9.776-2.096-9.377-3.15-8.835-4.159-8.15-5.107-7.335-5.98-6.401-6.763-5.362-7.442-4.23-3.273-1.406M417.266 562.106l-.067 9.214-1.076 9.302-2.063 9.241-3.016 9.04-3.924 8.701-4.77 8.225-5.545 7.627-6.233 6.906-6.828 6.081-7.319 5.158-7.696 4.15-7.956 3.078-8.092 1.942-8.101.781-7.982-.402-7.737-1.562-7.137-2.623" fill="none" stroke="#000" stroke-width="3.75"/><path d="M320.166 646.28l7.402 2.627 7.762 1.473 7.995.291 8.103-.893 8.082-2.054 7.934-3.172 7.665-4.236 7.276-5.239 6.777-6.152 6.174-6.969 5.477-7.678 4.696-8.268 3.843-8.73 2.933-9.058 1.975-9.245.987-9.293.022-8.395M381.561 506.262l7.058 3.449 6.477 4.518 5.796 5.509 5.025 6.411 4.18 7.205 3.272 7.884 2.318 8.439 1.331 8.86.247 3.569" fill="none" stroke="#000" stroke-width="3.75"/><path d="M321.717 646.987l-6.895-3.812-6.296-4.882-5.593-5.872-4.795-6.777-3.915-7.572-2.968-8.245-1.969-8.788-.935-9.19.112-9.435 1.171-9.529 2.208-9.462 3.208-9.241 4.156-8.864 5.033-8.344 5.827-7.68 6.524-6.893 7.11-5.994 7.578-4.997 7.921-3.922 8.132-2.788 8.209-1.607 8.154-.425 7.965.782 7.651 1.964 2.243.826" fill="none" stroke="#000" stroke-width="3.75"/><path d="M415.271 561.287l-.938-8.982-1.933-8.616-2.902-8.114-3.83-7.482-4.701-6.732-5.502-5.871-6.219-4.917-6.84-3.875-2.837-1.228M302.167 588.479l-.012-7.139.788-7.221 1.572-7.187 2.333-7.036 3.055-6.763 3.727-6.386 4.337-5.9 4.875-5.319 5.333-4.65 5.703-3.908 5.978-3.103 6.155-2.25 6.232-1.361 6.207-.447 6.083.447 5.861 1.361 2.832 1.005M327.719 629.637l-5.26-2.868-4.806-3.679-4.273-4.433-3.669-5.118-3.003-5.726-2.288-6.236-1.531-6.652-.721-6.446M329.674 630.512l5.63 2.009 5.906 1.138 6.089.224 6.175-.67 6.162-1.562 6.053-2.411 5.85-3.228 5.555-3.993 5.174-4.694 4.714-5.322 4.181-5.864 3.584-6.317 2.931-6.669 2.232-6.92 1.5-7.062.744-7.096.011-6.353" fill="none" stroke="#000" stroke-width="3.75"/><path d="M375.214 523.423l-5.716-1.808-5.985-.915-6.159-.002-6.235.915-6.208 1.808-6.082 2.683-5.856 3.513-5.533 4.29-5.118 4.996-4.62 5.625-4.044 6.158-3.402 6.592-2.703 6.92-1.96 7.129-1.185 7.225-.393 7.199.406 7.058 1.197 6.801 1.966 6.431 2.701 5.96 3.39 5.393 4.022 4.741 4.587 4.011 5.076 3.223 2.314 1.139M402.16 565.74l-.725-6.853-1.487-6.569-2.225-6.181-2.933-5.696-3.596-5.118-4.204-4.46-4.748-3.726-5.218-2.93-1.81-.782M392.247 568.126l-.023 5.596-.645 5.65-1.247 5.616-1.831 5.495-2.385 5.288-2.902 4.998-3.374 4.629-3.793 4.188-4.154 3.683-4.449 3.116-4.676 2.502-4.829 1.853-4.907 1.16-4.907.447-4.829-.268-4.674-.982-3.854-1.407" fill="none" stroke="#000" stroke-width="3.75"/><path d="M321.828 609.017l4.888-.916 4.833-1.607 4.703-2.265 4.499-2.889 4.224-3.466 3.884-3.989 3.483-4.446 3.029-4.835 2.526-5.15 1.987-5.382 1.413-5.531.819-5.591.201-5.569-.067-1.719M370.948 534.588l4.248 2.121 3.894 2.774 3.48 3.373 3.012 3.92 2.496 4.399 1.944 4.81 1.362 5.143.759 5.398.112 1.584" fill="none" stroke="#000" stroke-width="3.75"/><path d="M334.756 619.693l-4.188-2.261-3.829-2.907-3.405-3.508-2.928-4.052-2.4-4.533-1.832-4.942-1.234-5.272-.614-5.516.016-5.672.648-5.732 1.27-5.703 1.87-5.576 2.442-5.362 2.972-5.058 3.454-4.672 3.879-4.209 4.24-3.681 4.532-3.089 4.75-2.454 4.889-1.785 4.949-1.072 4.93-.357 4.831.38 4.654 1.094 2.294.825" fill="none" stroke="#000" stroke-width="3.75"/><path d="M362.267 555.651l-3.911-16.206-4.117-6.825M523.094 735.782l39.93 18.147M625.982 605.878l-40.769-16.172M541.327 540.885l-1.766-.67M457.788 580.445l-1.12 1.049-2.344 2.317M441.295 600.865l-1.145 1.986-1.814 3.389M430.77 626.376l-.498 2.076-.757 3.674M428.44 656.894l.089.803M1120.84 789.612l-47.818-18.797M991.919 961.536l46.711 21.401M1109.39 820.014l-3.481-1.407M1049.16 952.062l3.425 1.54M767.095 900.203l5.71 2.692M878.788 653.675l-6.383-2.431M811.952 831.087l38.822 17.214M893.553 747.706l-39.329-16.022M719.569 877.808l5.543 2.612M829.97 635.088l-6.182-2.355M801.576 844.507l3.414 1.54M860.165 716.297l-3.473-1.383M289.311 639.59l29.406 13.473M383.854 499.887l-30.103-11.832M327.719 629.637l1.956.871M375.214 523.423l-1.986-.803M695.934 740.239h-.201M719.8 750.525l.599.225M720.919 750.741l-3.12-1.428-2.038-.871M747.315 697.755l.65 2.098-2.256.224-4.791-1.719-6.565-3.353-7.311-4.464-3.984-2.721M712.635 782.849l2.02-1.273-1.381-1.942-4.548-2.308-6.987-2.31-8.33-1.964-4.757-.826M769.13 674.461l-.44 3.448-2.939 1.049-4.964-1.495-6.2-3.788-6.468-5.489-3.351-3.493M712.065 814.46l2.181-2.98-1.277-3.022-4.514-2.585-7.027-1.741-8.438-.647-4.841.225M793.753 657.641l-1.703 4.474-3.731 1.696-5.158-1.317-5.772-4.114-5.483-6.261-2.614-4.076M718.075 843.277l1.984-4.574-1.392-4.022-4.533-2.842-6.946-1.227-8.268.58-4.715 1.094M819.539 648.338l-1.458 3.145M804.399 652.976l-5.055-5.375-3.876-7.417-.476-1.317M730.199 867.442l1.015-2.648M721.913 852.855l-7.479.533-7.915 2.842h-.178M823.183 646.818l-2.698-7.538-.292-1.652M731.33 870.152l-7.12 3.737-.497.358M843.355 646.675l-.067-2.357M745.441 884.712l-.328.338" fill="none" stroke="#000" stroke-width="3.75"/><path d="M705.694 580.268l-30.136-25.579 39.456 2.381-9.32 23.198z" fill-rule="nonzero"/><path d="M812.669 609.777l-109.274-43.904" fill="none" stroke="#000" stroke-width="4.17" stroke-linecap="butt"/><path d="M967.694 708.938l-30.137-25.579 39.457 2.382-9.32 23.197z" fill-rule="nonzero"/><path d="M1074.67 738.447l-109.274-43.904" fill="none" stroke="#000" stroke-width="4.17" stroke-linecap="butt"/><path d="M452.59 483.673l28.958 26.907-39.31-4.151 10.352-22.756z" fill-rule="nonzero"/><path d="M325.171 439.437l129.07 58.72" fill="none" stroke="#000" stroke-width="4.17" stroke-linecap="butt"/></svg>