<svg xmlns="http://www.w3.org/2000/svg" width="300" height="300" viewBox="0 0 79.375 79.375"><defs><marker orient="auto" refY="0" refX="0" id="b" overflow="visible"><path d="M10 0l4-4L0 0l14 4-4-4z" fill-rule="evenodd" stroke="#000" stroke-width=".8pt"/></marker><marker orient="auto" refY="0" refX="0" id="a" overflow="visible"><path d="M-10 0l-4 4L0 0l-14-4 4 4z" fill-rule="evenodd" stroke="#000" stroke-width=".8pt"/></marker></defs><path d="M46.582 55.09l-.03-.421-.074-.396-.115-.366-.156-.331-.195-.29-.23-.246-.264-.198-.154-.086M37.254 55.689l2.768-1.187M37.254 55.689l.136 3.453M37.39 59.142l-2.02.89M35.385 60.026l.665-4.592M36.05 55.434l.025-.94-.159-.54M35.916 53.954l-.298-.34-.06-.034M33.645 55.813l-.41 2.886M33.234 58.7l-1.006.245M32.228 58.945l-2.245.448M28.529 58.115l.176.683.415.459.036.022M28.398 55.839l.13 2.276M28.398 55.839l-.855.356M27.543 56.195l-.261-4.378M27.282 51.817l3.08-1.238M30.495 53.094l-.133-2.515M32.174 52.405l-1.679.689M32.05 49.9l.124 2.505M32.05 49.9l8.886-3.572M40.936 46.328l2.555 5.071M46.582 55.09l.688-.304M25.612 50.926l1.67.89M25.885 55.274l1.658.921M25.885 55.274l-.273-4.348M25.612 50.926l3.07-1.218M28.682 49.708l1.68.87M26.79 55.777l.085 1.407M30.496 51.527l1.678.878M30.414 51.56l.082-.033M35.178 47.13l.527-.08.505-.106.474-.132.435-.156.39-.176.336-.194.28-.208.198-.197M38.323 45.881l.902-.358M39.225 45.523l1.711.805M30.365 49.04l1.685.86M30.365 49.04l4.813-1.91M30.496 51.527l-.131-2.487M27.505 58.342l-.43-.439-.196-.666-.004-.053M29.156 59.279l.594.14.233-.026" fill="none" stroke="#000" stroke-width=".2" stroke-linecap="round"/><path d="M35.558 53.58l-.439-.086-.487.15-.457.366-.355.522-.195.595-.005.573.025.113M35.047 53.501l.87.453M20.964 48.448l3.04-1.164M19.444 47.638l1.52.81M19.444 47.638l3.03-1.147M22.474 46.491l1.53.793M24.004 47.283l.16 2.449M24.164 49.732l1.658-.649M25.822 49.083l-.151-2.438M25.67 46.646l4.772-1.828M30.442 44.818l.12 2.314M30.563 47.132l-.312.121M30.251 47.253l.098 1.84M30.349 49.093l.018-.007M26.035 55.357l-.14.117M25.895 55.474l-3.049.482M21.412 54.683l.184.669.42.453.032.02M21.412 54.683l-.448-6.235M19.907 53.83l-.463-6.192M34.375 54.55l1.675.884M33.726 59.108l1.66.918M33.726 59.108l.65-4.558M34.375 54.55l.043-.755M37.39 59.142v.015M37.39 59.157l.205 5.175M38.325 57.616l-1.071-1.927M38.325 57.616l.239 6.388M37.928 64.522l.636-.518M37.928 64.522l-.333-.19M41.09 56.408l-2.765 1.208M40.022 54.502l1.067 1.906M30.349 49.093l.017-.024M30.4 49.026l.224-.234.285-.22.341-.206.392-.186.437-.165.474-.14.505-.115.527-.086.316-.038M35.35 47.107l.997-.396M44.83 45.602l-.06-.066-.086-.06-.108-.053-.128-.043-.144-.034-.156-.022-.164-.011h-.167l-.222.02M44.83 45.602l.142.167.192.157.238.146.28.13.319.115.352.096.38.075.4.054.075.007M41.29 62.752l-.2-6.344M38.564 64.004l2.726-1.252M22.048 55.824l.594.15.204-.018M20.545 54.967l-.432-.436-.202-.655-.004-.045M24.293 48.284l1.53.8M24.075 48.368l.218-.085M24.135 45.862l1.536.784M24.293 48.284l-.158-2.423M32.894 42.546l1.562.735M33.561 43.623l.895-.342M33.561 43.623l-.51.075-.492.1-.463.125-.43.148-.387.168-.34.187-.288.201-.21.191M24.135 45.862l8.76-3.316M45.364 52.756l-.322-.122-.346-.061h-.366l-.378.061-.386.123-.386.182-.382.239-.37.291-.35.34-.328.382-.299.419-.264.448-.226.47-.15.385M46.05 54.823l.532.266" fill="none" stroke="#000" stroke-width=".2" stroke-linecap="round"/><path d="M46.05 54.823l-.028-.393-.065-.372-.102-.347-.138-.317-.172-.282-.204-.245-.234-.204-.013-.01M40.645 63.272l-2.717 1.25M41.29 62.752l-.645.52M34.246 53.94l-.05.193-.056.268M34.14 54.401l-.11.016M34.03 54.417l-.01-.217M33.667 45.919l-.106-2.296M30.563 47.132l.235-.216.291-.204.344-.187.39-.169.432-.148.464-.124.49-.099.458-.066M49.212 40.581l.365.237.109.244M43.2 36.364l.622-.652M43.822 35.712l-.637-.068-.654-.042-.665-.016-.67.01-.668.036-.66.062-.174.02M39.694 35.714l.422.65M40.116 36.364l-.6.09-.573.12-.536.146-.491.171-.44.193-.379.212-.314.228-.243.241-.168.25-.09.255-.013.205M36.305 38.67l-1.78.154M34.525 38.824l.115.27.183.262.25.252.317.24.378.225.437.207.126.052M36.33 40.332l1.326-.548M37.656 39.784l.477.165.532.138.577.108.612.078.638.044.652.011.656-.023.649-.056.63-.089.6-.12.562-.148.3-.097M44.54 39.795l1.166.55M45.706 40.346l.522-.202.47-.22.413-.237.353-.25.288-.261.222-.27.048-.072M48.022 38.834l-1.752-.152M46.27 38.682l.163-.513M36.417 35.15l.311.21.073.175M18.892 42.959l.025-.16.072-.158.118-.156.162-.152.204-.144.242-.134.276-.123.305-.11.331-.094.35-.077.365-.06.374-.042.376-.022.373-.003.365.018.35.036.332.056.305.073.277.09.214.093" fill="none" stroke="#000" stroke-width=".2" stroke-linecap="round"/><path d="M24.915 42.537l-.002.158-.05.16-.098.158-.144.156-.188.149-.23.14-.266.13-.3.118-.33.102-.351.086-.37.067-.38.048-.386.028-.384.008-.376-.013-.363-.033-.342-.054-.317-.072-.286-.09-.25-.106-.212-.12-.169-.133-.123-.143-.077-.15-.029-.157v-.015M24.308 41.89l.518.415.09.232M20.854 55.143l-.41-.094-.373-.119-.33-.142-.283-.162-.23-.18-.175-.196-.116-.207-.056-.214-.003-.027M18.878 53.802l-.003-.069M34.052 47.577L33.97 45.8M34.03 54.417l-.114-.06" fill="none" stroke="#000" stroke-width=".2" stroke-linecap="round"/><path d="M23.313 42.255l.3.243.051.154M51.917 51.698l-.01.22-.071.217-.132.213-.19.204-.245.193-.298.177-.344.16-.386.14-.42.115-.266.057M49.555 53.394l.209-2.422.169-1.615.137-1.08.02-.145M47.208 46.55l.387.055.386.086.311.09.302.101.287.112.41.188.365.214.23.184.097.111.074.131.04.171-.006.139M34.456 43.28l1.891 3.431M33.971 45.8l-.304.119M20.15 42.898l.118-.292.375-.265.571-.196.68-.099.68.015.578.126.16.068" fill="none" stroke="#000" stroke-width=".2" stroke-linecap="round"/><path d="M23.664 42.652l-.12.292-.38.266-.583.197-.69.096-.688-.02-.575-.135-.37-.225-.108-.225M47.502 54.665l-.232.121M47.502 54.665l2.053-1.27M33.79 42.565l.099.449M34.938 44.156l.574.32.674.287.765.245.843.201.907.153.955.101.988.048 1.002-.006 1-.06.949-.11M46.182 41.12l.132-.282.386-.242.577-.164.68-.061.675.05.568.155.012.005" fill="none" stroke="#000" stroke-width=".2" stroke-linecap="round"/><path d="M49.686 41.062l-.135.283-.393.242-.589.164-.69.058-.683-.058-.563-.162-.355-.242-.096-.228M41.803 38.776h-.014M49.342 40.025l-.024.116M49.342 40.025l-.387-.013M49.347 40.15l-.005-.125M49.427 39.62l-.013.546M49.414 40.166v.003M49.464 39.446l-.037.174M49.444 40.175l.02-.729M46.27 38.682l.003 1.441M48.99 39.605l.065-.172M48.97 40.02l.02-.415M49.117 39.063v-.02M49.114 39.11l.003-.047M49.11 39.17l.004-.06M49.105 39.242l.005-.071M49.098 39.324l.007-.082M49.092 39.417l.006-.093M49.09 39.434l.002-.017M49.427 39.62l-.437-.015M49.055 39.433l.409.014M46.167 40.167l-.947-.654M46.433 38.169l-.04-.255-.122-.247-.198-.238-.273-.223-.341-.205-.405-.184-.462-.162-.51-.135-.553-.108-.33-.048M45.22 39.513l-.01-1.445M43.22 37.507l.404.07.387.083.367.098.345.111.319.124.169.075M43.22 37.507l-.02-1.143M36.373 39.822l-.068-1.151M35.464 39.896l.909-.074M49.486 39.536l-.006.118M49.492 39.43l-.006.106M49.5 39.337l-.008.093M49.51 39.255l-.01.082M49.52 39.184l-.01.071M49.53 39.124l-.01.06M49.542 39.077l-.012.047M49.552 39.055l-.01.022M49.562 39.056l-.01-.003M49.57 39.083l-.008-.027M49.576 39.13l-.007-.047M49.58 39.194l-.004-.064M49.583 39.275l-.003-.081M49.584 39.374v-.099M49.584 39.498v-.124M49.58 39.625l.004-.127M49.576 39.763l.005-.138M49.568 39.918l.008-.155M49.56 40.055l.008-.137M49.55 40.205l.01-.15M49.537 39.954l-.016.243M49.546 39.797l-.009.157M49.55 39.666l-.004.13M49.552 39.553l-.001.113M49.552 39.5v.053M49.55 39.457l.002.043M49.549 39.425l.001.032M49.546 39.402l.003.023M49.543 39.39l.003.012M49.539 39.388l.004.003M49.535 39.397l.004-.009M49.53 39.416l.005-.019M49.525 39.443l.005-.027M49.52 39.476l.005-.033M49.517 39.515l.004-.039M49.514 39.559l.003-.044M49.511 39.61l.003-.051M49.51 39.668l.001-.058M49.508 39.735l.001-.067M49.507 39.81l.001-.075M49.475 39.93l.032-.12M49.477 39.785l-.002.144M49.48 39.654l-.003.131M49.486 39.536h-.025M49.48 39.654h-.022M49.477 39.785h-.022M49.492 39.43l-.4-.013M49.475 39.93h-.024M49.5 39.337l-.402-.013M49.51 39.255l-.405-.013M49.52 39.184l-.41-.013M49.53 39.124l-.416-.013M49.542 39.077l-.425-.014M36.343 39.483l.34-.617M36.269 38.475l.036.196M40.21 38.986l-.53.081-.51.104-.48.126-.449.146-.409.165-.365.182-.317.197-.02.015M36.756 40.156l-.072-1.29M40.116 36.364l.094 2.623M49.552 39.055l-.435-.014M49.543 39.39h-.005M49.537 39.954l-.087-.003M49.546 39.402h-.013M36.495 40.14l-.154.188M36.495 40.14l-.814-.114M49.549 39.425h-.02M49.55 39.457h-.027M49.546 39.797h-.038M49.552 39.5h-.033M49.552 39.553h-.038M49.55 39.666l-.04-.003M36.5 40.263l-.005-.123M45.226 39.205l-1.704-.438-.229-.032M43.293 38.735l.531-.575M43.824 38.16l.056.006M43.88 38.167l.517.078.497.096.322.075M43.075 38.764l.022.022.018.024.011.027.004.015M43.294 38.776l-.22-.012M43.293 38.735l.001.04M40.504 38.34l-.318.028M40.503 38.321l.56-.071.562-.053.56-.034.557-.014.547.005.52.022M43.81 38.175h.015M40.504 38.322v.019M42.91 38.758l-.542-.003-.552.02H41.8M40.683 38.82l-.18-.498M43.319 38.698l-.095.039-.118.024-.031.003M43.388 38.618l-.07.08M42.91 38.758l-.087-.027-.046-.04-.004-.037M33.52 35.673l.118-.252.357-.223.538-.159.635-.071.635.028.535.123.079.03" fill="none" stroke="#000" stroke-width=".2" stroke-linecap="round"/><path d="M36.801 35.535l-.12.253-.362.224-.548.159-.645.069-.64-.034-.532-.129-.338-.205-.096-.199M42.871 38.826l.008-.028.013-.022.018-.018M43.382 38.592l.006.026M43.13 38.853h-.015M43.115 38.854l-.13-.004-.089-.017M42.896 38.834l-.026-.008M43.388 38.618l-.021-.003-.023.023-.021.046-.004.013M40.504 38.34l.166.481M31.21 62.587l.063-.203M34.57 63.962l.24.138M34.129 65.363l-.081-.047M34.452 64.004l-.528.864M34.452 64.004l.118-.042M33.75 62.269l-.466.343-.174.365M31.573 62.237l.11.063M34.57 63.962l.253.02M33.707 64.092l.62-.266.518-.106M28.377 70.202l.828-.384M28.377 70.202l.242 4.06M28.62 74.261l2.926-1.39M31.423 70.553l.123 2.317M33.037 69.795l-1.614.758M33.152 72.102l-.115-2.307M33.152 72.103l8.463-4.053M41.615 68.05l2.137-6.748M46.582 55.104l.679-.3M41.192 59.667l.476.366M37.39 59.157l-.983.433M36.407 59.59l-1.03.455M36.402 63.83l-1.022-3.788M36.394 65.31l.108-.93-.1-.55M34.1 65.501l.013.543.199.418.186.157M33.452 63.173l.648 2.328M33.452 63.173l-.981.6M32.47 63.773l-2.156 1.46M29.079 67.638l.09-.773.338-.77.532-.645.275-.217M29.079 67.638l.126 2.18M28.68 64.26l-.59.548-.43.723-.201.782-.006.33M30.827 62.818l1.644.955M30.827 62.818L28.68 64.26M27.585 68.81l1.62 1.008M27.453 66.644l.132 2.166M26.76 69.188l1.617 1.014M26.76 69.188l.825-.378M27.014 73.221l1.605 1.04M26.76 69.188l.254 4.033M33.452 63.173l-1.647-.947M31.805 62.226l-.978.592M34.753 62.89l1.65.94M33.72 59.125l1.66.918M34.753 62.89l-1.033-3.766M33.74 59.116l-.023.01M34.498 66.62l.414.1.471-.128.454-.336.366-.491.191-.454M34.075 65.41l.395-.449.265-.55.015-.05M34.75 64.362l1.644.949M22.54 70.322l2.89-1.318M25.43 69.008l-.148-2.256M25.282 66.752l1.595-.715M26.877 66.037l.14 2.248M27.017 68.281l.521-.237M31.068 62.672l-.01-.193M31.058 62.48l.503-.223M32.67 59.762l.097 1.947M31.603 59.07l.09 1.09M29.906 59.406l.247.865M30.153 60.271l.108.83-.098.614M30.163 61.715l-.246.543-.381.448-.457.284-.462.074-.325-.101M27.884 61.866l-.507-1.724M27.377 60.142l-1.186.038M26.19 60.18l-2.913 2.005M22.118 64.487l.08-.753.327-.747.523-.622.23-.18M22.118 64.487l.421 5.835M31.533 71.097l1.619 1.006M31.533 71.096l-.03-.58" fill="none" stroke="#000" stroke-width=".2" stroke-linecap="round"/><path d="M34.75 64.362l.105-.924-.102-.547M21.75 61.267l-.573.542-.406.708-.174.76.001.272M20.891 55.164l-.412-.091-.377-.117-.334-.14-.287-.162-.235-.179-.18-.194-.12-.205-.06-.204M41.668 60.033l.316.133.342.073.36.012.372-.05.38-.108.382-.167.376-.221.366-.273.35-.32.327-.362.302-.397.27-.428.234-.451.196-.468.153-.477.11-.48.063-.473.016-.46v-.012M46.05 54.838l.532.266" fill="none" stroke="#000" stroke-width=".2" stroke-linecap="round"/><path d="M46.05 54.838l-.014.459-.062.472-.107.478-.152.476-.194.467-.233.45-.269.428-.3.397-.326.362-.349.32-.365.273-.376.222-.38.167-.38.11-.374.05-.36-.01-.342-.072-.06-.02M24.651 59.286l1.54.894M24.651 59.286l-2.902 1.98M21.035 69.348l1.504.974M20.598 63.549l.437 5.799M33.945 57.569l-.51-.278M27.377 60.142l-1.543-.89M25.834 59.252l-1.183.034M34.352 61.427l.056 1.23M34.408 62.657l.252-.106M33.751 62.283l.657.374M28.606 59.39l1.547.881M28.46 58.884l.146.506M28.292 62.963L28 62.65l-.127-.47.012-.314M28.62 60.825l1.543.89" fill="none" stroke="#000" stroke-width=".2" stroke-linecap="round"/><path d="M28.62 60.825l-.244.538-.38.444-.11.09M47.493 54.684l-.232.12M47.493 54.684l2.06-1.274M46.05 54.838l.015-.007M32.033 60.062l-.34.099M32.173 59.057l.095.37-.003.323-.101.228-.09.069M32.137 58.963l.036.094M20.667 64.46l-.183-.395M18.886 53.872l-.008-.07M26.247 59.108l-.055.176-.065.14M24.58 59.333l-.03-.032-.087-.113-.06-.116L24.38 59l-.014-.075.003-.162M49.552 53.41l.49-.116.448-.146.401-.172.344-.196.28-.214.213-.23.14-.239.065-.244.003-.027M25.498 67.337l1.519.944M25.455 66.674l.043.667M50.283 57.79l-.099-.407-.1-.478-.102-.552-.104-.624-.106-.699-.108-.772-.112-.848M32.074 60.047l-.041.015M33.06 59.577l.156-.162.068-.282-.03-.356-.02-.078M28.606 59.39l.11.825-.096.61M51.936 51.826l-.013-.218-.012-.054M51.294 59.899v-.004M51.156 58.536l-.04.389-.033.305M49.126 59.308l.108-.073.153-.113.147-.12.145-.132.136-.137.12-.135.105-.131.09-.13.076-.134.05-.112.029-.102.01-.105-.012-.094M27.751 58.935h-.008M24.672 58.765l-.011.05.008.048.028.045.047.04.125.062.158.046.043.01.055.011.067.011.077.012.19.021.233.013h.204l.187-.01.077-.009" fill="none" stroke="#000" stroke-width=".2" stroke-linecap="round"/><path d="M38.93 12.69h.022l.078.03.003.002M44.148 13.178h.007l.205-.005.133.023.126.044.098.055M42.323 12.868l1.133-.785M41.209 12.77l-.4-.006-.404.01-.403.024-.394.038-.38.05-.361.065-.335.075-.304.086-.269.094-.229.103-.185.109-.138.113-.089.116-.038.117-.001.037M42.352 11.986l-1.143.783M48.12 25.11l-.054.306-.17.306-.286.301-.396.29-.503.276-.601.255-.69.23-.77.203-.833.169-.884.134-.92.096-.94.056-.943.016-.93-.026-.9-.066-.856-.105-.797-.142-.723-.176-.64-.208-.545-.235-.442-.258-.333-.277-.22-.291-.104-.3-.008-.086M43.762 13.582l-.028-.114-.078-.11-.127-.106-.173-.098-.217-.09-.257-.08-.293-.068-.266-.048" fill="none" stroke="#007a00" stroke-width=".2" stroke-linecap="round"/><path d="M37.279 13.801l.03.116.081.111.133.107.18.099.227.09.27.081.307.07.34.056.368.042.39.028.405.014.414-.003.415-.018.41-.032.398-.046.379-.06.354-.072.324-.084.287-.093.247-.102.203-.109.155-.113.105-.116.054-.117.007-.07M42.323 12.868l.04 1.52M41.26 14.562l-.051-1.793M36.594 27.6l-.539-.328M36.594 27.6l.077 1.414M36.67 29.02l.336.146.467.156.53.131.582.105.625.077.657.046.676.015.684-.017.68-.048.661-.077.473-.077.453-.092.427-.106M43.921 29.276l-.019-1.378M45.6 27.112l-.217.156-.255.15-.29.143-.325.134-.355.125-.256.078M44.954 29.177l.724-.234.638-.263.54-.285.434-.304M47.29 28.091l-.754-.859M46.536 27.232l-.384.27-.47.249-.556.228-.642.208M44.484 28.187l.47.99M43.922 29.276l1.046.521M44.968 29.797l-.014-.62M43.902 27.898l.582.29M44.968 29.797l.515-.152.474-.166.429-.18.381-.19.33-.2.205-.15M47.302 28.76l-.012-.669M46.536 27.232l-.937-.12M45.808 12.866l.082-.256M45.323 13.966l.485-1.1M33.975 27.664l.102.292.22.283.337.267.45.248M35.083 28.754l.65-.937M35.733 27.817l-.405-.215-.3-.228-.197-.243-.095-.255M34.736 26.876l-.761.788M45.742 18.266l.815-1.881M46.557 16.385l-.056-3.023M46.5 13.362l-.685-.512M46.159 15.153l-.064-.614-.157-.443-.227-.202-.039-.007M35.11 29.422l1.56-.408M35.733 27.817l.861-.217M35.11 29.422l-.027-.668M34 28.272l.06.215.117.212.175.206.232.198.287.19.24.13M34 28.272l-.025-.608M34.902 26.867l-.166.008M45.661 17.19l.235-.432.174-.607.084-.687.005-.311M45.672 13.887l-.262.116-.047.05M42.352 11.986l.404-.123M43.857 11.959l-.4.124M45.89 12.61l.088.051.072.05M46.846 13.308l.057.048.041.046M46.944 13.402l.026.186.01.188M47.02 16.061l-.003.184-.02.182M46.998 16.427l-.037.14-.054.14M46.161 18.436l-.067.14-.084.139M46.5 13.362l.444.04M46.05 12.711l.796.597" fill="none" stroke="#007a00" stroke-width=".2" stroke-linecap="round"/><path d="M42.345 13.714l-.254.365-.15.385M45.923 18.639l-.161-.11M46.01 18.715l-.087-.076M42.756 11.863l.484.319.024.034M46.907 16.708l-.746 1.728M46.557 16.385l.44.042M46.98 13.776l.04 2.285" fill="none" stroke="#007a00" stroke-width=".2" stroke-linecap="round"/><path d="M40.203 38.87l1.587-.094M41.79 38.776h.019M41.809 38.776l.584.017M42.393 38.793l.12.007M42.513 38.8l.36.027M42.873 38.827l.027.003M43.116 38.852l.012.003M43.128 38.853l.534.074M43.662 38.927l1.562.416M38.198 39.476l-.98.489M46.024 40.223L45.749 40l-.343-.204-.403-.184-.458-.16-.506-.134-.545-.105-.576-.077-.598-.045-.612-.015-.616.017-.61.048-.596.079-.573.107-.54.136-.5.16-.068.026M46.14 40.176l-.321-.297" fill="none" stroke="#000" stroke-width=".2" stroke-linecap="round"/><path d="M45.819 39.88l-.326-.21-.39-.189-.445-.165-.495-.14-.536-.113-.57-.084-.594-.053-.609-.022-.616.01-.612.04-.601.07-.58.101-.549.129-.511.155-.187.067M38.205 39.649l-.424.178M39.227 39.93l-.415.185" fill="none" stroke="#000" stroke-width=".2" stroke-linecap="round"/><path d="M38.61 40.07l.304-.144.343-.128.376-.111.403-.091.425-.071.44-.05.448-.026.449-.004.443.02.43.042.413.064.386.085.355.105.318.124.041.019" fill="none" stroke="#000" stroke-width=".2" stroke-linecap="round"/><path d="M43.99 39.962l-.294-.117-.33-.1-.358-.081-.383-.062-.402-.041-.414-.02-.42.003-.419.023-.412.044-.398.065-.38.084-.353.102-.2.07" fill="none" stroke="#000" stroke-width=".2" stroke-linecap="round"/><path d="M43.99 39.962l-.295-.117-.329-.1-.359-.081-.383-.062-.401-.041-.414-.02-.42.003-.419.023-.412.044-.399.065-.379.084-.353.102-.323.119-.287.134-.004.003M42.256 40.216l.04.05M41.627 40.315l.629-.099M42.257 40.27l-.001-.054M41.16 58.678l.271.187M44.443 53.31l-.25-.095-.269-.049-.283-.003-.294.047-.299.093-.3.14-.295.183-.287.224-.272.261-.255.295-.232.322-.205.346-.071.137M41.13 55.213l-.293.745" fill="none" stroke="#000" stroke-width=".2" stroke-linecap="round"/><path d="M41.576 58.942l.247.102.265.056.28.008.29-.039.297-.085.296-.13.293-.173.284-.213.272-.25.254-.281.234-.31.209-.334.181-.351.15-.364.118-.371.083-.373.047-.368.01-.357-.027-.342-.064-.32-.1-.294-.134-.263-.166-.228-.197-.189-.223-.146-.032-.017M44.296 53.238l-.226-.089-.241-.05-.254-.012-.264.028-.27.067-.272.106-.27.142-.046.027M41.159 58.608l.417.334" fill="none" stroke="#000" stroke-width=".2" stroke-linecap="round"/><path d="M44.93 55.315l-.007.289-.039.296-.067.3-.095.299-.122.293-.146.283-.169.268-.189.25-.205.226-.219.2-.229.17-.236.139-.239.104-.238.067-.233.03-.225-.008-.213-.046-.189-.079M44.175 53.868l.5.473.24.753.016.221M41.87 58.396l-.18-.118-.159-.152-.134-.185-.109-.214-.08-.24-.051-.26-.02-.28.01-.293.04-.301.07-.305.1-.303.127-.297.152-.286.175-.27.194-.25.211-.225.224-.197.234-.166.24-.132.24-.097.239-.059.233-.02.223.017.21.055.116.05M44.752 55.785l.007-.613" fill="none" stroke="#000" stroke-width=".2" stroke-linecap="round"/><path d="M43.756 57.742l.556-.704.357-.842.083-.411M43.684 57.81l-.728.494-.737.144-.478-.132" fill="none" stroke="#000" stroke-width=".2" stroke-linecap="round"/><path d="M44.759 55.172l-.225-.687-.46-.43-.627-.1-.693.245-.649.556-.501.777-.272.874v.83l.273.655.498.374.644.038.687-.302.322-.26M44.772 55.02l-.007.665" fill="none" stroke="#000" stroke-width=".2" stroke-linecap="round"/><path d="M44.035 53.81l.498.47.239.74M34.3 53.89l.048.003.068.009M34.302 55.063H34.3l-.14-.057-.14-.075M34.02 54.93l-.099-.165-.06-.198-.01-.103M33.56 56.415l.327 1.122M33.985 55.377l.034-.446M34.013 56.36l-.12-.159-.091-.187-.048-.192v-.175l.046-.14.086-.095.065-.03M34.065 56.726l-.052-.367M33.99 57.21l-.028-.066-.037-.152.01-.122.057-.079.014-.009M33.951 55.383l.034-.006M34.112 56.397l-.099-.038M33.985 55.377l.138-.013.135.008M34.006 56.782l.051-.015M27.505 58.342l1.65.937M20.545 54.967l1.503.857M25.32 45.414l-.405-2.877M18.892 42.959l-.017 10.774M51.148 43.31l-.173-1.876M51.917 51.698l-.45-4.901M50.975 41.43l-.022-.13-.042-.132-.06-.126-.078-.12-.098-.116-.117-.111-.138-.106-.158-.1-.177-.09-.19-.082-.204-.071-.213-.062-.063-.016M34.262 37.57l-.083.092-.144.176-.122.182-.101.185-.079.186-.056.188-.034.186-.013.186v.096M33.631 39.05l.16 3.515M50.997 45.285l-.012-.216.011-.24.03-.258.038-.267.04-.268.032-.26.017-.245.001-.057M51.154 43.443l-.005-.116M51.078 45.996l-.081-.711M51.468 46.806l-.036-.17-.073-.185-.095-.194-.107-.202-.065-.12-.025-.046M51.237 46.483l-.001-.003-.015-.024-.037-.07-.026-.059-.028-.08-.029-.11-.023-.143M33.77 42.13l-.841.432M49.41 40.167l-.22-.063-.167-.06-.123-.057-.087-.048-.06-.038-.037-.029-.022-.018-.018-.017-.015-.016-.014-.015h-.002M49.11 38.584l-.012-.18-.033-.181-.052-.178-.072-.174-.092-.171-.111-.168-.132-.165-.152-.161-.171-.156-.19-.151-.21-.145-.225-.138-.241-.131-.256-.124-.27-.116-.282-.11-.295-.1-.306-.095-.316-.087-.327-.08-.335-.07-.344-.065-.352-.056-.358-.05-.364-.04-.37-.033-.374-.026-.377-.018-.38-.01-.38-.003-.383.006-.382.014-.381.022-.38.029-.382.038M49.117 39.043l-.006-.458M32.352 36.134l.065 6.593M37.587 35.195l-.074-.053-.146-.09-.162-.079-.177-.07-.188-.062-.197-.052-.205-.043-.212-.035-.218-.026-.222-.018-.226-.01-.228-.003-.228.006-.229.014-.226.022-.223.03-.218.038-.213.045-.205.053-.198.06-.188.069-.179.077-.168.086-.157.096-.143.107-.114.105-.094.11-.075.112-.056.115-.04.118-.022.132-.004.084M43.382 38.592l-.082-.102-.116-.061-.131-.011-.125.04-.099.086-.056.11M39.824 35.512l-.216.02-.21.01-.206.003-.198-.005-.361-.028-.316-.048-.26-.06-.208-.07-.154-.071-.108-.069M46.846 60.76l-3.422 1.578M26.325 59.096l-.008.435M20.484 64.065l-1.598-10.193M33.06 59.577l-.986.47M51.295 59.896l-.143 1.793M51.936 51.827l-.388 4.879M47.09 60.625l-.244.135M49.127 59.307l-2.036 1.318M27.75 58.935l-1.592.18M28.702 59.8l-1.422-.812M27.798 58.914l-.01.01-.04.011M51.546 56.733l-.035.247-.028.139M51.483 57.119l-.02.096-.045.205-.045.188-.06.247-.034.141-.032.151-.029.158-.02.156M51.152 61.69l-.001.012M51.151 61.702l-.012.09-.035.143-.054.14-.073.135-.092.131-.11.127-.131.12-.15.115-.167.107-.183.097-.197.088-.208.076-.217.067-.226.055-.232.044-.237.034-.24.022-.244.012H48.1l-.243-.011-.24-.021-.236-.033-.23-.043-.224-.054-.216-.066-.206-.076-.195-.087-.183-.098-.17-.11-.153-.121-.048-.043M51.198 58.46l-.069.69M51.13 59.15l-.008.098-.001.079.008.115.013.072.011.04.002.008" fill="none" stroke="#000" stroke-width=".2" stroke-linecap="round"/><path d="M51.122 59.266l.053.13.05.137.04.132.025.123.004.11M45.756 62.542l-.114-.091-.126-.077-.13-.064-.124-.05-.147-.05-.115-.033-.086-.021-.118-.026-.165-.028-.213-.027-.195-.013-.189-.005" fill="none" stroke="#000" stroke-width=".2" stroke-linecap="round"/><path d="M35.537 21.975l.108-7.187M45.456 14.456l.539 7.176M35.645 14.788v-.022l.016-.168.035-.163.054-.154.07-.146.086-.139.1-.13.117-.125.136-.12.157-.118.185-.116.212-.112.233-.104.244-.094.251-.083.259-.074.266-.067.273-.06.28-.053.286-.046.025-.004M44.717 13.294l.063.043.148.117.127.122.109.128.092.136.077.143.059.15.044.173.02.149M33.56 23.967v-.105l.014-.187.034-.182.053-.177.072-.172.09-.167.108-.163.128-.16.15-.155.172-.154.196-.15.219-.146.238-.139.254-.13.253-.115M45.972 21.323l.028.01.27.103.257.114.246.125.234.137.218.151.177.145.155.15.133.153.113.158.095.162.076.167.062.188.04.19.017.19v.03M33.632 25.578l-.071-1.61M48.093 23.495l.026 1.615M45.995 21.632l.003.03.013.054.013.032.007.013h0M35.508 22.106h0l.008-.015.01-.035.01-.055v-.025M46.068 26.86v.313M38.91 12.693l1.216-.814M43.857 11.959l1.985.173M46.997 16.434l-.024.13-.053.25-.06.245-.066.237-.073.228-.08.219-.088.208-.095.196-.102.185-.111.171-.121.157-.132.14-.113.098M45.843 12.132l.082.01.133.035.124.054.118.071.11.089.104.107.099.127.092.149.085.17.076.189.066.202.055.214.046.224.036.233.028.24.019.247.01.253.002.257-.006.26-.014.262-.023.263-.03.261-.037.26-.018.105M47 16.414l-.003.02M45.879 18.898l-.085.066M40.795 11.692l1.961.171M40.126 11.879l.086-.053.13-.063.132-.043.148-.027.144-.003.032.003" fill="none" stroke="#007a00" stroke-width=".2" stroke-linecap="round"/><path d="M44.443 53.31l-.147-.072M41.431 58.865l.145.077M43.684 57.81l.072-.068M44.752 55.785l.013-.1M47.177 49.839l-3.686 1.56M47.27 54.786l-.093-4.947M26.875 57.184l1.654.931M19.907 53.83l1.505.853M33.787 42.493l-.48.247M45.77 47.378l1.438-.828M42.206 48.848l3.565-1.47M47.177 49.839l-.122-.76-.32-.742-.467-.605-.497-.354M37.287 35.135l-.146-.095-.177-.086-.205-.075-.23-.064-.251-.052-.269-.038-.282-.024-.29-.01-.296.005-.294.018-.29.033-.28.046-.267.06-.25.07-.226.082-.202.091-.172.1-.142.106-.107.111-.072.115-.035.115.003.116.04.113.078.109.114.103.148.096.18.086.209.076.196.055M39.86 35.546l-.356.028-.358.007-.389-.017-.37-.042-.342-.066-.303-.089-.255-.108-.2-.124M48.265 39.06l.172-.254.116-.257.058-.257v-.257l-.055-.254-.112-.249-.166-.241-.22-.233-.27-.223-.318-.21-.365-.198-.407-.182-.446-.166-.483-.148-.514-.13-.543-.112-.567-.091-.587-.071-.602-.05-.614-.029-.621-.007-.624.014-.622.035-.615.057M49.29 40.197l-.3-.088-.261-.104-.242-.135-.181-.15-.115-.161-.045-.167.025-.168.094-.164M45.499 41.42l.11.123.147.115.182.107.215.096.245.084.269.07.29.055.307.039.317.022.323.006.324-.011.32-.028.308-.045.294-.06.274-.074.25-.088.22-.1.19-.11.153-.118.117-.125.078-.13.037-.131-.003-.132-.043-.13-.084-.125-.121-.12-.157-.112-.191-.102-.221-.091-.248-.08-.11-.028M43.585 41.043l.19-.024.194-.014.252-.003.248.016.235.032.218.048.193.063.164.076.129.087.09.095M34.589 37.462l-.213.256-.154.262-.095.266-.034.268.028.267.09.264.153.258.213.25.273.242.331.229.386.214.438.198.487.18.531.16.57.14.606.115.635.091.658.067.676.04.687.016.691-.012.69-.038.682-.063.667-.09" fill="none" stroke="#000" stroke-width=".2" stroke-linecap="round"/><path d="M33.772 36.396l.274.081.236.097.21.126.151.14.087.15.02.157-.047.159-.114.156M50.975 41.434l-.01.158-.058.158-.106.154-.153.148-.196.14-.238.129-.275.116-.308.101-.335.085-.358.067-.374.047-.385.028-.389.007-.385-.013-.377-.033-.362-.053-.34-.072-.315-.09-.282-.105-.246-.12-.205-.13-.163-.143-.087-.104M51.468 46.8l-.002.038-.021.027-.042-.005-.063-.043-.078-.087-.064-.097-.063-.129-.04-.109-.036-.135-.026-.157M45.028 41.91l-.034.632-.052.969-.113 2.09M51.033 46.103l-.085-.708M50.948 45.395l-.013-.184.004-.203.003-.051.025-.232.036-.233.046-.254.043-.244.041-.274.02-.248-.004-.148M50.09 48.132l-2.678 1.59M45.77 47.378l.628.346.535.58.357.723.122.694M47.177 49.839l.235-.118M49.29 40.197l.104-.032h.008M49.402 40.166l.013.003M45.499 41.42l-.187.062-.155.124-.1.167-.029.136M47.412 49.721l.09 4.944M43.585 41.043l.061.11.053.165.037.193.015.178M43.75 41.69l-.978.123-1.004.072-1.01.02-1-.033-.971-.085-.926-.136-.865-.184-.789-.228-.7-.269-.6-.303-.493-.334-.376-.357-.256-.375-.132-.386-.019-.167M34.589 37.462l-.172.014-.142.082-.013.013M43.595 45.335l.092-2.15.041-.965.023-.53M45.028 41.91l-.06-.065-.086-.057-.11-.049-.128-.039-.145-.029-.157-.017-.166-.005-.169.007-.256.034M51.149 43.324l-.002-.018M50.948 45.395l.049-.09v-.02M51.078 45.995l-.031.091-.014.017M41.798 38.776l.541.014.054.003M42.393 38.792l.12.007M42.513 38.799l.358.027M43.13 38.853l.437.059.096.015M43.663 38.927l.325.06.402.09.378.106.353.12.101.038M48.739 39.563l-.04-.18-.107-.158-.157-.115-.17-.05M48.739 39.563l-.074.124-.021.123M48.739 39.563l.012.336M49.11 38.585l-.015.22-.056.222-.095.221-.134.22-.071.095M39.823 35.512h.002M39.825 35.512l.035.034M34.294 37.548l-.002-.023M34.292 37.525l-.014-.062-.07-.125-.118-.113-.17-.103-.186-.08-.221-.066M33.513 36.976l.018-.183.06-.177.09-.143.09-.077M33.658 42.188l-.087-3.093-.058-2.119M43.88 38.167l-.013-.538M33.513 36.976l-.268-.077-.239-.09-.205-.101-.17-.112-.13-.12-.09-.126-.05-.132-.009-.084M37.587 35.195l-.143-.063-.157.003M47.352 59.653l-3.6 1.649M47.261 54.805l.091 4.848M30.314 65.233l-1.635-.973M27.453 66.644l1.626.994M20.598 63.549l1.52.938M23.277 62.185l-1.528-.918M46.846 60.76l.342-.331.158-.567.006-.21M49.552 53.41l.036-.023M32.173 59.057l.427-.203M24.369 58.763l.083-.653.08-.719.08-.784.077-.85.007-.09M47.582 59.528l-.23.125M47.582 59.528l-.09-4.844M50.283 57.79l-2.701 1.738M25.12 55.597l-.033.276L24.946 57l-.127.884-.147.88M27.66 58.43l-2.988.335M51.152 61.689l-.038.182-.084.179-.13.173-.172.163-.213.152-.25.138-.284.121-.312.103-.336.082-.353.06-.366.039-.372.014-.372-.01-.366-.032-.354-.055-.336-.078-.312-.098-.283-.117-.25-.134-.214-.15-.095-.082M51.548 56.705l-.017.15-.032.186-.043.198-.04.161-.042.16-.043.16-.043.159-.045.18-.038.168-.03.16-.02.149M45.66 62.339l-.109-.981M51.083 59.23l-.01.146.003.13.012.113.022.098.036.098.04.07.038.044.045.017.024-.037M51.293 59.909l.001-.01M24.369 58.763l.148-.005.155.007" fill="none" stroke="#000" stroke-width=".2" stroke-linecap="round"/><path d="M47.09 60.625l.36-.42.132-.62v-.057M28.113 58.75l-.105.09-.115.06-.129.033M27.764 58.933l-.013.003M28.152 58.709l-.039.042M28.113 58.75l.14.016M27.992 59.135l.225.118.214.086.173.041M27.659 58.945l.333.19" fill="none" stroke="#000" stroke-width=".2" stroke-linecap="round"/><path d="M27.804 58.9l.18.219.008.016M51.156 58.536l.037-.057.005-.019M45.756 62.542l-.051-.064-.045-.14M45.66 62.339l-.17-.133-.211-.118-.247-.098-.276-.078-.292-.054M51.13 59.15l-.006.023-.04.057" fill="none" stroke="#000" stroke-width=".2" stroke-linecap="round"/><path d="M45.995 21.632l-.026.211-.11.211-.193.209-.274.201-.35.192-.42.178-.485.163-.541.143-.59.121-.627.098-.654.072-.671.046-.676.018-.669-.01-.65-.037-.623-.065-.582-.09-.533-.114-.476-.136-.41-.156-.338-.173-.262-.187-.18-.198-.1-.205-.018-.15M35.645 14.788l.036.177.115.172.192.165.266.155.338.141.402.126.462.109.514.089.557.068.591.045.616.023h.63l.632-.025.626-.048.607-.07.579-.09.54-.112.495-.128.438-.144.377-.156.309-.167.236-.174.16-.178.082-.18.011-.128" fill="none" stroke="#007a00" stroke-width=".2" stroke-linecap="round"/><path d="M44.148 13.178l.15.128.09.134.028.138-.034.141-.096.14-.157.14-.216.133-.271.126-.323.118-.37.107-.409.094-.443.08-.469.063-.488.047-.498.03-.5.01-.494-.007-.479-.025-.456-.043-.427-.06-.389-.077-.345-.09-.297-.104-.243-.115-.186-.125-.126-.131-.065-.137-.002-.14.06-.14.12-.139.179-.134.234-.13.285-.12.332-.112.373-.1.408-.088.409-.069M33.56 23.967l.442.766M34.91 23.623l-.222-.23-.13-.24-.037-.246.058-.247.149-.245.238-.24.322-.23.251-.142M45.982 21.46l.4.205.314.223.221.237.125.247.026.254-.075.257-.176.256-.274.25-.37.24-.458.227-.542.209-.615.187-.68.163-.732.135-.772.105-.8.073-.813.04-.812.005-.797-.028-.77-.062-.727-.094-.674-.125-.609-.153-.534-.178-.452-.201-.361-.22-.114-.088" fill="none" stroke="#007a00" stroke-width=".2" stroke-linecap="round"/><path d="M34.002 24.733l.375.266.481.246.582.22.674.194.753.16.823.127.876.088.916.05.94.01.947-.03.937-.071.912-.11.87-.145.814-.179.744-.21.661-.236.569-.26.466-.276.358-.29.245-.299.128-.301.02-.191M40.384 11.815l1.968.171M39.033 12.72l1.351-.905M45.448 12.257l-1.3.92M43.456 12.083l1.992.174" fill="none" stroke="#007a00" stroke-width=".2" stroke-linecap="round"/><path d="M35.539 21.833l-.374.23-.287.24-.195.25-.099.253v.252l.1.249.198.24.296.228.387.212.475.193.555.169.626.143.687.114.736.083.773.05.797.018.807-.016.803-.05.786-.082.755-.114.71-.143.655-.17.588-.193.511-.213.428-.23.336-.241.241-.25.143-.255.042-.254-.057-.25-.155-.243-.25-.231-.339-.215-.234-.116M44.953 13.479l.855-.613M45.89 12.61l-.102-.172-.153-.124-.181-.057h-.006M40.126 11.879l.163-.062.095-.003M45.842 12.132l-.394.125M46.05 12.711l.431.05.349.507.016.04M46.98 13.776l.111 1.045-.062 1.174-.009.066M46.907 16.708l-.312 1.007-.41.694-.024.027M46.01 18.715l-.093.15-.038.033M45.923 18.639l-.145.112M40.384 11.815l.411-.123" fill="none" stroke="#007a00" stroke-width=".2" stroke-linecap="round"/><path d="M55.771 243.422l.314 11.906" fill="none" stroke="#000" stroke-width=".265" marker-end="url(#a)" transform="translate(0 -217.625)"/><path d="M32.518 225.882l.555.287.545.362.66.325.762.284.854.237.93.185.993.13 1.038.074 1.064.014 1.072-.045 1.062-.104 1.033-.16.985-.214.922-.264.843-.308.749-.348.643-.382.529-.407.405-.427.277-.44.145-.443.023-.28" fill="none" stroke="#000" stroke-width=".258" stroke-linecap="round" marker-start="url(#b)" transform="translate(0 -217.625)"/></svg>