<svg xmlns="http://www.w3.org/2000/svg" width="300" height="300"><defs><marker orient="auto" refY="0" refX="0" id="a" overflow="visible"><path d="M-10.69-4.437L1.328-.017-10.69 4.401c1.92-2.61 1.909-6.18 0-8.84z" fill-rule="evenodd" stroke-width=".6875" stroke-linejoin="round" stroke="#000"/></marker><marker orient="auto" refY="0" refX="0" id="b" overflow="visible"><path d="M-10.69-4.437L1.328-.017-10.69 4.401c1.92-2.61 1.909-6.18 0-8.84z" fill-rule="evenodd" stroke="#000" stroke-width=".6875" stroke-linejoin="round"/></marker></defs><g fill="none" stroke="#000"><path d="M245.213 142.97a3.038 9.586 7.275 001.076-.418M249.493 125.96a2.633 8.308 7.275 00-.204-.253M247.51 141.493a2.633 8.308 7.275 001.983-15.534M248.578 124.628a3.038 9.586 7.275 00-.236-.29M249.29 125.707a2.633 8.308 7.275 10-1.78 15.786M207.96 118.887a3.038 9.586 7.275 00-1.077.418M248.342 124.337a3.038 9.586 7.275 00-.702-.384M247.64 123.953a3.038 9.586 7.275 00-2.427 19.017M205.662 120.364a2.633 8.308 7.275 00-1.983 15.534M204.595 137.23a3.038 9.586 7.275 00.937.674M206.883 119.305a3.038 9.586 7.275 00-2.288 17.924M146.648 74.564a7.088 22.367 7.275 00-7.302 43.476M139.993 114.96a6.063 19.131 7.275 001.4.768M139.346 118.04a7.088 22.367 7.275 001.638.897M140.984 118.937a7.088 22.367 7.275 105.664-44.373M121.31 115.737a7.088 22.367 7.275 001.637.897M128.612 72.262a7.088 22.367 7.275 00-7.303 43.475M146.239 77.774a6.063 19.131 7.275 00-6.246 37.186M141.394 115.728a6.063 19.131 7.275 104.845-37.954M140.878 115.588a6.063 19.131 7.275 004.826-37.809M141.433 108.099a3.778 11.923 7.275 00.873.478M142.306 108.577a3.778 11.923 7.275 103.02-23.653M144.276 84.79a3.778 11.923 7.275 00-3.02 23.653M145.326 84.924a3.778 11.923 7.275 00-3.893 23.175M141.9 105.874a3.038 9.586 7.275 00.702.385M145.03 87.242a3.038 9.586 7.275 00-3.13 18.632M142.602 106.259a3.038 9.586 7.275 102.428-19.017M150.603 153.04l.458-2.063M150.603 153.04l-.526-.622M150.077 152.418l.458-2.062M143.055 153.04h3.044M141.786 153.03l1.269.017M140.75 153.006l1.036.024M142.01 153.251l-1.26-.245M143.289 153.528l-1.279-.277M147.28 154.441l-3.991-.913M146.099 153.044l1.182 1.397M139.696 153.122l12.265 2.835M139.199 152.534l.497.588M150.077 152.418l-10.878.117M147.282 153.045h3.32M148.74 154.768l-1.458-1.723M152.076 155.522l-3.336-.754M139.199 152.534l.298-1.343M149.124 153.042l-.384 1.726M143.289 153.528l.108-.488M142.059 153.032l-.049.22M151.474 157.809l-7.2-.92M144.275 156.89l.292-1.315M147.33 158.184l.9.436M146.357 157.782l.973.402M145.394 157.44l.963.342M144.524 157.185l.87.255M144.275 156.89l.25.295M147.13 157.663l4.24.541M147.762 157.914l-.632-.251M148.438 158.217l-.676-.303M149.066 158.524l-.628-.307M149.552 158.79l-.486-.266M148.231 158.62l1.321.17M147.762 157.914l.037-.165M148.438 158.217l.084-.376M149.066 158.524l.132-.597M149.552 158.79l.177-.795M150.37 161.66h.09M150.095 161.68l.276-.02M149.872 161.727l.223-.047M149.717 161.8l.155-.072M149.643 161.898l.074-.097M149.652 162.019l-.008-.122M149.743 162.163l-.09-.145M149.913 162.325l-.17-.162M150.143 162.48l-.23-.154M150.233 162.525l-.09-.045M149.638 162.744l.483.207M149.213 162.513l.425.23M148.868 162.268l.345.245M148.603 162.009l.265.259M148.444 161.761l.16.248M148.419 161.556l.025.205M148.529 161.393l-.11.163M148.773 161.272l-.244.122M149.128 161.196l-.355.076M149.57 161.165l-.442.03M150.097 161.18l-.527-.017M150.575 161.227l-.478-.047M150.097 161.18l.415-1.865M149.57 161.165l.407-1.832M149.128 161.196l.39-1.754M148.773 161.272l.365-1.641M148.529 161.393l.337-1.518M148.419 161.556l.314-1.411M149.652 162.019l.042-.189M149.743 162.163l.094-.42M149.913 162.325l.142-.637M150.143 162.48l.182-.816M149.914 163.51l.046.055M149.97 163.523l-.056-.016M150.046 162.919l-.132.591M150.72 188.77a25.066 342.788-8.505 00.307 2.818M150.72 188.77l8.869 8.532M159.589 197.302l.58 3.78M160.169 201.082l2.105 14.505M162.274 215.587l1.17.883M166.145 203.61l1.588 1.527M167.733 205.137l6.086 39.684M171.98 253.834a13.55 2.969 77.005 00.925.569M162.132 243.725l9.848 10.109M156.526 227.446a13.55 2.969 77.005 005.606 16.28M156.526 227.446l-5.499-35.858M146.273 226.204a13.468 2.67 78.148 005.1 16.217M140.372 179.573l.177 6.566" stroke-width="1.5" stroke-linecap="round"/><path d="M140.372 179.573l2.232 1.853 2.078 2.022 1.97 2.196 1.837 2.31 2.538 3.634M140.55 186.14l5.723 40.064M160.228 252.41l-8.855-9.989M151.901 169.481l-1.181 19.288M140.59 174.072a71.667 3662.347-1.04 00-.218 5.5M140.59 174.072l1.438-6.363M152.085 168.547l-.089.263-.087.564-.008.107M152.085 168.547l7.347 7.141M159.432 175.688l.157 21.614M89.892 219.372a4.98 13.646 29.021 00-3.44 15.183M89.892 219.372l22.295-36.854M127.943 201.15l-15.756-18.632M127.943 201.15l-21.482 35.51M95.713 244.592a4.98 13.646 29.021 001.184.6M86.452 234.555l9.26 10.037M99.846 184.858l2.999-2.183 3.096-2.032 3.25-1.873 3.362-1.634 2.288-.924M112.187 182.518l2.654-6.306M99.846 184.858l-20.183 33.274M79.663 218.132a4.629 13.668 29.041 00-3.832 15.136M152.5 168.332h-.05l-.292.142-.073.08M152.701 168.458l-.2-.125M142.028 167.71l.164-.554.218-.413.236-.17h.07M156.395 172.596l-3.694-4.138M159.37 170.233l-.352.867-.384.72-.402.556-.41.383-.42.206-.4.017M165.61 152.832l-6.24 17.401M168.351 147.547l-2.742 5.285M171.114 140.867l-.637 1.82-.67 1.713-.714 1.636-.742 1.51M171.114 140.867l10.234 10.026M179.265 160.872l2.083-9.98M179.265 160.872l3.587 3.96M181.797 169.884l1.055-5.052M181.797 169.884l-4.067-3.986M177.238 165.639a2.116 6.39 6.57 00-1.676 1.616M175.562 167.255l-3.723 7.815M160.002 172.871l-.57 2.817M101.293 182.765l9.863-18.487M120.044 164.903l-2.296 5.855M117.748 170.758l-2.907 5.454M101.293 182.765a37.216 367.84 31.94 00-1.447 2.093M133.097 188.908l-15.35-18.15M133.097 188.908l-5.154 12.242M136.246 179.077a2.145 6.407 11.64 00-1.162 2.884M135.084 181.96l-1.987 6.948M121.171 163.918l-.089-.08-.125-.044M124.548 167.91l-3.377-3.992M127.698 165.484l-.42.865-.44.728-.45.567-.447.394-.433.209-.311.032M133.404 152.39l-5.706 13.094M144.193 165.147l-.87 1.526M141.566 169.751l-5.32 9.326M75.831 233.268l8.26 9.916M120.957 163.795l-.146.024-.303.242-.3.473-.164.37M111.792 163.401l.263-.21.09-.016M111.156 164.278l.111-.196.371-.524.154-.157M172.083 175.329l-1.11-1.176M163.445 216.47l8.638-41.141M162.274 215.587l8.7-41.434M170.973 174.153l-5.04-.524M160.169 201.082l5.764-27.453M157.002 172.98l-.008-.003-.6-.38M160.228 252.41a13.468 2.67 78.148 00.83.557M172.905 254.403a13.55 2.969 77.005 00.914-9.582M165.933 173.629l-5.931-.758M150.547 149.95l.677.613.128.146M165.61 152.832a64.837 17.152 12.534 00-15.063-2.881M148.884 167.652l3.381-12.85M125.197 168.279l-.093-.017-.556-.355M167.67 196.35l.063 8.787M137.94 148.34a64.837 17.152 12.534 00-13.245-.733M133.404 152.39l.46-.866.627-.848.747-.759.894-.684.863-.498.945-.394M118.92 163.624l5.775-16.017M107.696 166.102l2.303.346M106.082 173.788l1.614-7.686M147.899 148.925l.887.187.84.306.92.533M147.899 148.925a64.375 17.03 12.534 00-6.87-.878M137.94 148.34l.933-.214.966-.11 1.19.032M124.695 147.607l2.683-5.293M151.352 150.71l.422.584.378.784.22.855.044.922-.151.947M173.115 133.667l-.92 3.69-1.081 3.51" stroke-width="1.5" stroke-linecap="round"/><path d="M130.122 135.632l1.375-7.891 1.682-9.36" stroke-width="1.712" stroke-linecap="round"/><path d="M136.135 139.224l2.042.146 4.305.376 4.474.492 4.595.606 4.666.719 2.393.406 2.313.409M127.378 142.314l.83-1.74.81-1.917 1.104-3.025M145.637 163.435l.902-.61.99-.409 1.238-.247M145.637 163.435a4.701 6.61 71.14 00-1.444 1.712M84.092 243.184a4.629 13.668 29.041 001.084.588M96.897 245.193a4.98 13.646 29.021 009.564-8.533M189.845 132.133l2.242-11.012M189.758 132.558l.087-.425M187.425 143.335l2.333-10.777M187.425 143.335l-3.705-3.4M181.348 150.893l2.372-10.957M188.523 117.424l1.3-6.388M188.523 117.424l3.564 3.697M186.05 128.913a4.255 12.781 7.013 00-2.14-16.317M180.89 95.909l-.16 2.88-.476 2.87M171.15 92.392l.075-.234.198-.42.287-.57.178-.478.077-.476v-.234M162.388 131.816a1.917.507 12.534 00-.007.023" stroke-width="1.5" stroke-linecap="round"/><path d="M171.964 89.98l.166 1.628.286 1.787.115.655.01.054M153.368 141.147a7.594 23.964 7.275 003.444-41.585M151.368 91.136l5.444 8.426M150.107 130.984a3.038 9.586 7.275 003.838-6.804M181.548 87.847l-.288.843-.22 1.107-.14 1.361-.048 1.597.012.851M180.863 93.606l.028 2.303M189.824 111.036a29.12 31.536 43.72 00.558-8.264M180.776 137.965a4.255 12.781 7.013 005.275-9.052M183.91 112.596a4.255 12.781 7.013 00-3.134 25.369M179.855 137.509a4.05 12.78 7.275 003.108-24.73M183.311 127.929a3.038 9.586 7.275 00-1.41-12.213M182.19 86.415l-.642 1.432M182.19 86.415a2.485 9.93-8.375 00.031.557M183.492 96.137l-.032-.121-.066-.267-.122-.517-.161-.747-.19-1.005-.218-1.377-.17-1.348-.133-1.334-.179-2.449M172.636 78.469l-.893-.113-2.143-.268-2.15-.276-2.071-.27-.525-.067M150.727 81.531l1.208-.187 4.094-.505 4.169-.27 4.126.081 2.802.332 2.708.557 2.602.746 3.935 1.46 3.855 1.718 1.964.953M179.474 134.733a3.038 9.586 7.275 003.837-6.804M181.902 115.716a3.038 9.586 7.275 00-2.055 1.677M178.148 133.312a3.038 9.586 7.275 001.326 1.42M187.736 99.708l-.033.16-.044.19-.018.074M177.73 165.898a2.116 6.39 6.57 00-.492-.26M153.945 124.18a3.038 9.586 7.275 00-1.41-12.213M152.535 111.967a3.038 9.586 7.275 00-2.428 19.017M174.739 168.982l7.058.902M165.342 118.46l-.1.203-.587 1.437-.794 2.667-.63 2.737-.779 3.633-.71 3.487-.393 2.194-.196 1.79M190.382 102.772l-.189-2.735M155.872 76.289l.747-.137h.048M184.664 79.966l-.089-.093M181.302 151.113l6.123-7.778M144.228 165.087l5.158.659M184.442 79.771l-.137-.072-.181-.056M192.087 121.12l-2.618-8.343M162.546 129.084a6.039 354.668 12.196 00-1.089 5.117M163.864 122.76l-1.318 6.325M246.29 142.552l1.22-1.059M249.493 125.96l-.915-1.332M247.64 123.953l-39.68-5.066M205.532 137.904l39.68 5.066M206.883 119.305l-1.22 1.059M203.68 135.898l.915 1.331M146.648 74.564l-18.036-2.302M122.947 116.634l18.037 2.303M141.256 108.443l1.05.134M145.326 84.924l-1.05-.134M152.502 168.333l-1.687-.325-3.613-.666-3.6-.623-1.04-.172M121.096 163.807l-1.753-.149-3.29-.246-3.226-.197-.684-.035M161.058 252.967l11.847 1.436M85.176 243.772l11.721 1.42" stroke-width="1.5" stroke-linecap="round"/><path d="M162.387 131.817l-.724 3.014-.8 2.856-.871 2.701-.632 1.737M171.152 92.381l-8.772 39.458M200.957 101.411l.39.022.608-.08.557-.197.514-.301.486-.409.48-.545.48-.716.453-.869.396-.948.342-1.009.293-1.06.192-.838M206.148 94.46l.116-.585.183-1.132.133-1.143.081-1.135.028-1.112-.028-1.076-.085-1.028-.149-.974-.221-.917-.32-.867-.367-.673-.41-.52-.464-.405-.523-.296-.572-.177-.166-.027M164.865 77.477l-16.696-2.132M203.387 82.394l-30.748-3.925M187.767 99.727l13.192 1.684M187.529 99.76h0l.066-.019.177-.017M184.125 79.643l-3.207-.694-3.902-.752-3.868-.645-3.78-.53-3.64-.406-3.446-.28-3.18-.153-2.453-.032M184.725 80.012l-.147-.137M146.273 226.204l10.253 1.242M162.132 243.725l-10.759-1.304M160.228 252.41l11.752 1.424M151.901 169.481a93.106 24.63 12.534 00-9.873-1.772M79.663 218.132l10.229 1.24M86.452 234.555l-10.62-1.287M120.044 164.903a93.106 24.63 12.534 00-8.888-.625M144.193 165.147l-10.789-12.757M84.092 243.184l11.62 1.408M159.37 170.233a71.564 18.931 12.534 00-6.209-1.26M127.698 165.484a71.564 18.931 12.534 00-5.495-.347M168.351 147.547a60.568 16.023 12.534 00-40.973-5.233M151.162 152.784l-.398-.471M148.83 150.026l-.931-1.101M139.29 128.558a56.047 14.827 12.534 00-7.212-.133M136.135 139.224l.541-1.451.711-2.106.67-2.223.643-2.397.59-2.489M164.178 131.721l-.578 2.419-.636 2.332-.712 2.293-.763 2.167-.566 1.446M173.115 133.667a56.047 14.827 12.534 00-8.937-1.946M141.029 148.047l1.728 2.044M146.687 154.738l.514.608M149.669 158.264l.893 1.056M164.178 131.721a1.917.507 12.534 00-1.79.095M180.254 101.66l9.57 9.376M172.54 94.103l-8.362 37.618M180.89 95.909a56.047 14.827 12.534 00-8.35-1.806M142.02 129.43a1.917.507 12.534 00-2.73-.872M142.02 129.43l-.664 2.778-.73 2.67-.822 2.623-.691 1.965M144.929 116.344l-2.91 13.086M181.548 87.847a51.762 13.693 12.534 00-30.492-4.417M151.33 87.273l1.25.07 4.262.342 4.386.5 4.611.674 4.678.833 1.447.288M139.29 128.558l2.136-9.608M171.065 92.77l-.959-.186-4.455-.789-4.408-.645-4.315-.496-4.175-.341-1.37-.08M180.863 93.606l2.629 2.531M187.64 100.132l-.218.406-.416.421-.474.144-.455-.113-.463-.339-.517-.645-.502-.905-.48-1.136-.469-1.34-.154-.487M187.64 100.132l2.742 2.64M156.812 99.562l12.392 1.582M203.385 82.394a3.038 9.586 7.275 00-2.427 19.017" stroke-width="1.5" stroke-linecap="round"/><path d="M203.006 99.74a2.43 7.669 7.275 101.942-15.214 2.43 7.669 7.275 10-1.942 15.214zM182.221 86.972l.577 1.381.556 1.477.519 1.51.5 1.549.457 1.44.454 1.382.435 1.2.454 1.048.448.805.47.586.405.293.276.085M177.73 165.898l-1.03-.132M148.805 162.206l-.13-.017M184.664 79.966l-3.333-.734-3.894-.763-3.885-.664-3.804-.55-3.684-.43-3.533-.309-3.313-.18-3.346-.048M173.115 133.667c.681-2.938 4.866-21.146 7.139-32.007" stroke-width="1.5" stroke-linecap="round"/><path d="M112.198 931.06l10.444 24.367" marker-end="url(#a)" transform="translate(0 -822.52)"/><path d="M228.126 970.089l-34.543-4.285" marker-end="url(#b)" transform="translate(0 -822.52)"/></g></svg>