<?xml version="1.0" encoding="UTF-8" standalone="no"?><!DOCTYPE svg PUBLIC "-//W3C//DTD SVG 1.1//EN" "http://www.w3.org/Graphics/SVG/1.1/DTD/svg11.dtd"><svg width="100%" height="100%" viewBox="0 0 199 142" version="1.1" xmlns="http://www.w3.org/2000/svg" xmlns:xlink="http://www.w3.org/1999/xlink" xml:space="preserve" xmlns:serif="http://www.serif.com/" style="fill-rule:evenodd;clip-rule:evenodd;stroke-linecap:round;stroke-linejoin:round;stroke-miterlimit:10;"><g id="INSERT_15_"><path id="LWPOLYLINE_7596_" d="M98.512,75.104l-0.018,0.039l-0.097,0.208l-0.04,0.034l-0.229,0.203l-0.055,0.03l-0.353,0.188l-0.068,0.023l-0.466,0.165l-0.076,0.019l-0.563,0.135l-0.076,0.012l-0.64,0.1l-0.077,0.007l-0.692,0.061l-0.071,0.002l-0.719,0.015l-0.062,-0.001l-0.718,-0.029l-0.052,-0.006l-0.687,-0.074l-0.04,-0.006l-0.63,-0.117l-0.03,-0.008l-0.544,-0.157l-0.457,-0.197l-0.009,-0.007l-0.309,-0.217l-0.173,-0.241l-0.015,-0.247" style="fill:none;stroke:#12100b;stroke-width:0.71px;"/><path id="LINE_5964_" d="M94.583,80.665l-0.531,-0.017" style="fill:none;stroke:#12100b;stroke-width:0.71px;"/><path id="LINE_5963_" d="M96.768,79.996l-0.062,0.159" style="fill:none;stroke:#12100b;stroke-width:0.71px;"/><path id="LWPOLYLINE_7020_" d="M96.706,80.155l-0.02,0.022l-0.288,0.188l-0.466,0.154l-0.599,0.102l-0.673,0.044l-0.077,0" style="fill:none;stroke:#12100b;stroke-width:0.71px;"/><path id="LWPOLYLINE_7019_" d="M94.052,80.648l-0.074,-0.004l-0.624,-0.084l-0.506,-0.138l-0.336,-0.178l-0.133,-0.203l-0.002,-0.021" style="fill:none;stroke:#12100b;stroke-width:0.71px;"/><path id="LINE_5461_" d="M92.377,80.02" style="fill:none;stroke:#12100b;stroke-width:0.71px;"/><path id="LINE_5460_" d="M94.285,80.736l0.044,10.155" style="fill:none;stroke:#12100b;stroke-width:0.71px;"/><path id="LINE_5459_" d="M94.329,90.891l-2.143,-0.805" style="fill:none;stroke:#12100b;stroke-width:0.71px;"/><path id="LINE_5458_" d="M92.186,90.086l-0.043,-10.155" style="fill:none;stroke:#12100b;stroke-width:0.71px;"/><path id="LINE_5457_" d="M94.274,80.731l0.011,0.005" style="fill:none;stroke:#12100b;stroke-width:0.71px;"/><path id="LINE_5456_" d="M92.143,79.931l0.234,0.089" style="fill:none;stroke:#12100b;stroke-width:0.71px;"/><path id="LINE_5455_" d="M97.045,90.238l-2.716,0.653" style="fill:none;stroke:#12100b;stroke-width:0.71px;"/><path id="LINE_5454_" d="M94.285,80.736l0.298,-0.071" style="fill:none;stroke:#12100b;stroke-width:0.71px;"/><path id="LINE_5453_" d="M97.001,80.084l0.044,10.154" style="fill:none;stroke:#12100b;stroke-width:0.71px;"/><path id="LINE_5452_" d="M96.768,79.996l0.233,0.088" style="fill:none;stroke:#12100b;stroke-width:0.71px;"/><path id="LINE_5451_" d="M92.143,79.931l0.233,-0.056" style="fill:none;stroke:#12100b;stroke-width:0.71px;"/><path id="LWPOLYLINE_7018_" d="M101.563,120.643l0.41,0.111l1.086,0.397l0.885,0.443l0.661,0.479l0.424,0.5l0.172,0.515l-0.08,0.512l-0.33,0.501l-0.574,0.473l-0.803,0.44l-1.016,0.392l-1.2,0.334l-1.357,0.272l-1.482,0.201l-1.572,0.125l-1.623,0.045l-1.635,-0.033l-1.609,-0.112l-1.543,-0.19l-1.441,-0.261l-1.304,-0.324l-1.136,-0.385l-0.94,-0.432l-0.722,-0.469" style="fill:none;stroke:#12100b;stroke-width:0.28px;"/><path id="LWPOLYLINE_7017_" d="M84.458,124.591l0.75,0.487l0.937,0.436" style="fill:none;stroke:#12100b;stroke-width:0.28px;"/><path id="LWPOLYLINE_7016_" d="M86.184,125.527l0.983,0.331l0.196,0.067l1.353,0.338l0.373,0.068l1.122,0.203l1.068,0.13l0.534,0.066l1.669,0.117l0.142,0.002l1.555,0.033l0.843,-0.026l0.841,-0.023l1.496,-0.118l0.135,-0.012l1.538,-0.207l0.469,-0.094l0.94,-0.187l0.934,-0.262l0.312,-0.086l1.053,-0.408l0.139,-0.074l0.695,-0.38l0.348,-0.287l0.248,-0.206l0.344,-0.52l0.082,-0.532" style="fill:none;stroke:#12100b;stroke-width:0.28px;"/><path id="LWPOLYLINE_7015_" d="M84.834,124.177l-0.139,0.044l-0.122,0.092l-0.083,0.13l-0.032,0.148" style="fill:none;stroke:#12100b;stroke-width:0.28px;"/><path id="LINE_5450_" d="M84.458,124.591l-0.072,2.403" style="fill:none;stroke:#12100b;stroke-width:0.28px;"/><path id="LINE_5449_" d="M86.919,123.899l-3.234,-0.184" style="fill:none;stroke:#12100b;stroke-width:0.28px;"/><path id="LWPOLYLINE_6666_" d="M91.195,110.831l0.722,-0.319l1.12,-0.243l1.332,-0.107l1.383,0.047l1.268,0.191l0.998,0.314l0.61,0.397l0.148,0.437l-0.332,0.419l-0.772,0.352l-1.12,0.244l-1.332,0.106l-1.382,-0.047l-1.268,-0.189l-0.999,-0.315l-0.611,-0.399l-0.104,-0.147" style="fill:none;stroke:#12100b;stroke-width:0.28px;"/><path id="LWPOLYLINE_6665_" d="M84.386,126.994l0.025,0.146l0.078,0.116" style="fill:none;stroke:#12100b;stroke-width:0.28px;"/><path id="LWPOLYLINE_6664_" d="M90.653,113.337l-0.001,0.023l0.008,0.078l0.023,0.079l0.085,0.146" style="fill:none;stroke:#12100b;stroke-width:0.28px;"/><path id="LWPOLYLINE_6663_" d="M90.768,113.663l0.466,0.654l0.275,0.512l0.234,0.62l0.137,0.643l0.029,0.632l-0.077,0.619l-0.182,0.578l-0.279,0.517l-0.283,0.355l-0.532,0.433l-0.207,0.096" style="fill:none;stroke:#12100b;stroke-width:0.28px;"/><path id="LWPOLYLINE_6662_" d="M91.071,112.92c-0.004,0 -0.12,0.031 -0.12,0.031l-0.033,0.02c-0.005,0.003 -0.088,0.052 -0.088,0.052l-0.044,0.043l-0.009,0.01l-0.039,0.039l-0.045,0.081l-0.008,0.015l-0.007,0.013l-0.025,0.115" style="fill:none;stroke:#12100b;stroke-width:0.28px;"/><path id="LWPOLYLINE_6661_" d="M91.514,109.846l0.005,-0.009l0.008,-0.014l0.042,-0.066l0.036,-0.025c0.008,-0.007 0.048,-0.037 0.048,-0.037l0.077,-0.021c0.005,-0.002 0.036,-0.01 0.036,-0.01l0.106,0.007" style="fill:none;stroke:#12100b;stroke-width:0.28px;"/><path id="LWPOLYLINE_6660_" d="M88.247,123.358l-0.268,0.251l-0.323,0.174l-0.169,0.046l-0.192,0.052l-0.376,0.018" style="fill:none;stroke:#12100b;stroke-width:0.28px;"/><path id="LWPOLYLINE_6659_" d="M88.569,122.816c-0.002,0.005 -0.086,0.187 -0.086,0.187c-0.002,0.007 -0.038,0.069 -0.038,0.069l-0.076,0.11l-0.031,0.045l-0.09,0.131" style="fill:none;stroke:#12100b;stroke-width:0.28px;"/><path id="LWPOLYLINE_6658_" d="M91.893,116.856l-0.325,0.788l-0.197,0.212" style="fill:none;stroke:#12100b;stroke-width:0.28px;"/><path id="LWPOLYLINE_6657_" d="M88.853,112.263l-0.012,-0.025l-0.047,-0.058" style="fill:none;stroke:#12100b;stroke-width:0.28px;"/><path id="LINE_5448_" d="M88.794,112.18l1.611,0.071" style="fill:none;stroke:#12100b;stroke-width:0.28px;"/><path id="LWPOLYLINE_6656_" d="M91.195,110.831l-0.05,0.056l-0.017,0.018l-0.051,0.12l-0.034,0.149l-0.012,0.154" style="fill:none;stroke:#12100b;stroke-width:0.28px;"/><path id="LINE_5447_" d="M90.833,111.553l0.023,0.019" style="fill:none;stroke:#12100b;stroke-width:0.28px;"/><path id="LINE_5446_" d="M91.031,111.328l-0.006,0.434" style="fill:none;stroke:#12100b;stroke-width:0.28px;"/><path id="LWPOLYLINE_6655_" d="M82.697,123.66l0.537,0.029l0.451,0.026" style="fill:none;stroke:#12100b;stroke-width:0.28px;"/><path id="LWPOLYLINE_6654_" d="M91.23,112.281l-0.083,0.04l-0.081,0.041l-0.059,0.031l-0.082,0.083l-0.029,0.03l-0.068,0.118l-0.005,0.012l-0.02,0.067" style="fill:none;stroke:#12100b;stroke-width:0.28px;"/><path id="LWPOLYLINE_6653_" d="M88.794,112.18l0.061,0.048l0.029,0.04" style="fill:none;stroke:#12100b;stroke-width:0.28px;"/><path id="LINE_5445_" d="M88.772,111.616l-0.128,-0.028" style="fill:none;stroke:#12100b;stroke-width:0.28px;"/><path id="LWPOLYLINE_6652_" d="M82.356,123.54l0.011,0.023l0.026,0.017l0.042,0.028l0.09,0.027l0.026,0.007l0.085,0.009l0.061,0.009" style="fill:none;stroke:#12100b;stroke-width:0.28px;"/><path id="LWPOLYLINE_6651_" d="M88.528,111.558l0.075,-0.092l0.111,-0.034l0.13,0.027" style="fill:none;stroke:#12100b;stroke-width:0.28px;"/><path id="LINE_5444_" d="M82.281,124.03l-0.021,2.413" style="fill:none;stroke:#12100b;stroke-width:0.28px;"/><path id="LWPOLYLINE_6650_" d="M83.685,123.715l-0.084,0.066l-0.074,0.114l-0.05,0.142l-0.02,0.151" style="fill:none;stroke:#12100b;stroke-width:0.28px;"/><path id="LWPOLYLINE_6646_" d="M84.708,110.803l-0.082,0l-0.081,0.005" style="fill:none;stroke:#12100b;stroke-width:0.28px;"/><path id="LINE_5442_" d="M88.726,111.191l0,0.007" style="fill:none;stroke:#12100b;stroke-width:0.28px;"/><path id="LWPOLYLINE_6645_" d="M89.183,110.718l-0.172,0.066l-0.146,0.113l-0.1,0.143l-0.028,0.078l-0.011,0.073" style="fill:none;stroke:#12100b;stroke-width:0.28px;"/><path id="LINE_5441_" d="M88.726,111.198l-0.008,0.235" style="fill:none;stroke:#12100b;stroke-width:0.28px;"/><path id="LWPOLYLINE_6644_" d="M88.836,110.884l0.1,-0.143l0.147,-0.113l0.171,-0.066" style="fill:none;stroke:#12100b;stroke-width:0.28px;"/><path id="LWPOLYLINE_6643_" d="M91.747,110.193l-0.141,-0.023" style="fill:none;stroke:#12100b;stroke-width:0.28px;"/><path id="LWPOLYLINE_6642_" d="M86.085,109.971l-0.165,0.013" style="fill:none;stroke:#12100b;stroke-width:0.28px;"/><path id="LWPOLYLINE_6641_" d="M86.334,109.979l-0.079,-0.084l-0.138,-0.052l-0.165,0.01" style="fill:none;stroke:#12100b;stroke-width:0.28px;"/><path id="LWPOLYLINE_6640_" d="M87.993,113.783l-0.764,0.062l-0.723,0.232l-0.638,0.395l-0.517,0.529l-0.366,0.635l-0.193,0.704l-0.01,0.733l0.175,0.717l0.349,0.662l0.503,0.566l0.628,0.439l0.715,0.285l0.762,0.117l0.765,-0.061l0.722,-0.234l0.639,-0.394l0.517,-0.528l0.366,-0.636l0.193,-0.705l0.009,-0.732l-0.174,-0.716l-0.349,-0.663l-0.503,-0.565l-0.627,-0.439l-0.716,-0.287l-0.763,-0.116Z" style="fill:none;stroke:#12100b;stroke-width:0.28px;"/><path id="LINE_5440_" d="M86.328,117.65l0.023,-1.775" style="fill:none;stroke:#12100b;stroke-width:0.28px;"/><path id="LINE_5439_" d="M89.58,115.992l-0.023,1.775" style="fill:none;stroke:#12100b;stroke-width:0.28px;"/><path id="LINE_5438_" d="M86.351,115.875l1.627,-0.829" style="fill:none;stroke:#12100b;stroke-width:0.28px;"/><path id="LINE_5437_" d="M89.557,117.767l-1.626,0.83" style="fill:none;stroke:#12100b;stroke-width:0.28px;"/><path id="LINE_5436_" d="M87.978,115.046l1.602,0.946" style="fill:none;stroke:#12100b;stroke-width:0.28px;"/><path id="LINE_5435_" d="M87.931,118.597l-1.603,-0.947" style="fill:none;stroke:#12100b;stroke-width:0.28px;"/><path id="LWPOLYLINE_6639_" d="M88.029,113.279l-0.86,0.069l-0.813,0.262l-0.717,0.443l-0.581,0.595l-0.412,0.715l-0.217,0.792l-0.011,0.824l0.196,0.808l0.393,0.743l0.565,0.637l0.706,0.494l0.805,0.321l0.858,0.13l0.86,-0.068l0.812,-0.263l0.718,-0.441l0.581,-0.597l0.412,-0.714l0.217,-0.793l0.011,-0.823l-0.197,-0.807l-0.392,-0.744l-0.566,-0.636l-0.706,-0.495l-0.805,-0.321l-0.857,-0.131Z" style="fill:none;stroke:#12100b;stroke-width:0.28px;"/><path id="LWPOLYLINE_6636_" d="M89.177,112.317l-0.018,-0.007l-0.857,-0.13l-0.86,0.068l-0.813,0.263l-0.717,0.442l-0.582,0.596l-0.412,0.715l-0.217,0.792" style="fill:none;stroke:#12100b;stroke-width:0.28px;"/><path id="LINE_5434_" d="M86.328,117.65l0.103,-0.416" style="fill:none;stroke:#12100b;stroke-width:0.28px;"/><path id="LINE_5433_" d="M86.431,117.234l0.018,-1.409" style="fill:none;stroke:#12100b;stroke-width:0.28px;"/><path id="LINE_5432_" d="M87.931,118.597l0.103,-0.416" style="fill:none;stroke:#12100b;stroke-width:0.28px;"/><path id="LINE_5431_" d="M88.034,118.181l-1.603,-0.947" style="fill:none;stroke:#12100b;stroke-width:0.28px;"/><path id="LINE_5430_" d="M89.562,117.4l-1.528,0.781" style="fill:none;stroke:#12100b;stroke-width:0.28px;"/><path id="LWPOLYLINE_6635_" d="M88.896,109.279l-0.344,0.204l-0.345,0.2l-0.3,0.17l-0.302,0.165l-0.014,0.006" style="fill:none;stroke:#12100b;stroke-width:0.28px;"/><path id="LWPOLYLINE_6634_" d="M90.139,110.117l-0.014,-0.008l-0.291,-0.186l-0.287,-0.192l-0.326,-0.224l-0.325,-0.228" style="fill:none;stroke:#12100b;stroke-width:0.28px;"/><path id="LWPOLYLINE_6633_" d="M87.81,110.032l0.423,-0.093l0.632,-0.032l0.63,0.077l0.422,0.125" style="fill:none;stroke:#12100b;stroke-width:0.28px;"/><path id="LINE_5429_" d="M89.082,108.533l-0.186,0.746" style="fill:none;stroke:#12100b;stroke-width:0.28px;"/><path id="LWPOLYLINE_6632_" d="M90.887,109.485l-0.533,-0.304l-0.297,-0.16l-0.295,-0.153l-0.341,-0.172l-0.339,-0.163" style="fill:none;stroke:#12100b;stroke-width:0.28px;"/><path id="LWPOLYLINE_6631_" d="M91.509,109.867l-0.093,-0.059l-0.529,-0.323" style="fill:none;stroke:#12100b;stroke-width:0.28px;"/><path id="LWPOLYLINE_6630_" d="M87.3,109.355l-0.541,0.285l-0.301,0.165l-0.188,0.106" style="fill:none;stroke:#12100b;stroke-width:0.28px;"/><path id="LWPOLYLINE_6629_" d="M89.082,108.533l-0.329,0.141l-0.333,0.146l-0.291,0.131l-0.294,0.138l-0.535,0.266" style="fill:none;stroke:#12100b;stroke-width:0.28px;"/><path id="LWPOLYLINE_6628_" d="M98.512,75.104c-0.047,-15.344 -0.774,-29.972 -5.888,-44.582c-1.959,-5.599 -4.269,-11.068 -6.574,-16.53" style="fill:none;stroke:#12100b;stroke-width:0.71px;"/><path id="LWPOLYLINE_6627_" d="M90.546,75.038l-0.043,-7.686l-0.233,-7.653l-0.236,-3.616" style="fill:none;stroke:#12100b;stroke-width:0.71px;"/><path id="LWPOLYLINE_6626_" d="M90.041,56.133c-1.319,-13.653 -5.704,-25.817 -10.942,-38.404" style="fill:none;stroke:#12100b;stroke-width:0.71px;"/><path id="LINE_5428_" d="M81.435,23.14c-0.781,-1.816 -1.561,-3.633 -2.342,-5.448" style="fill:none;stroke:#12100b;stroke-width:0.71px;"/><path id="LINE_5426_" d="M92.361,76.164l0.016,3.856" style="fill:none;stroke:#12100b;stroke-width:0.71px;"/><path id="LINE_5425_" d="M96.75,76.099l0.018,3.897" style="fill:none;stroke:#12100b;stroke-width:0.71px;"/><path id="LWPOLYLINE_6625_" d="M105.596,123.46l-0.03,-0.143l-0.179,-0.532l-0.086,-0.117l-0.434,-0.516l-0.679,-0.49l-0.114,-0.061l-0.896,-0.45l-1.104,-0.402l-0.513,-0.14" style="fill:none;stroke:#12100b;stroke-width:0.28px;"/><path id="LWPOLYLINE_6624_" d="M105.596,123.46l0.016,2.452l-0.098,0.483" style="fill:none;stroke:#12100b;stroke-width:0.28px;"/><path id="LWPOLYLINE_6623_" d="M105.502,126.449l-0.029,0.145l-0.373,0.52l-0.082,0.116l-0.625,0.49l-0.118,0.065l-0.849,0.444l-1.065,0.394l-1.253,0.336l-1.41,0.27l-1.535,0.194l-1.621,0.116l-1.668,0.035l-1.673,-0.048l-1.641,-0.128l-1.566,-0.207l-1.454,-0.279l-1.308,-0.346l-1.128,-0.402l-0.923,-0.451l-0.113,-0.067l-0.579,-0.39" style="fill:none;stroke:#12100b;stroke-width:0.28px;"/><path id="LINE_5424_" d="M101.594,121.833l-0.185,-6.957" style="fill:none;stroke:#12100b;stroke-width:0.28px;"/><path id="LWPOLYLINE_6622_" d="M101.579,121.928l-0.239,-9.909" style="fill:none;stroke:#12100b;stroke-width:0.28px;"/><path id="LWPOLYLINE_6621_" d="M91.766,109.665l0.848,-0.113l1.222,-0.085l1.261,-0.005l1.249,0.073l1.186,0.15l1.078,0.219l0.925,0.28l0.736,0.331l0.11,0.061l0.527,0.374l0.082,0.112l0.287,0.404l0.034,0.139l0.019,0.258" style="fill:none;stroke:#12100b;stroke-width:0.28px;"/><path id="LINE_5423_" d="M101.594,121.833l0.108,0.47" style="fill:none;stroke:#12100b;stroke-width:0.28px;"/><path id="LINE_5422_" d="M101.645,122.051l0.173,0.236" style="fill:none;stroke:#12100b;stroke-width:0.28px;"/><path id="LINE_5421_" d="M86.513,128.311l0.001,0.797" style="fill:none;stroke:#12100b;stroke-width:0.28px;"/><path id="LINE_5420_" d="M102.644,128.519l-0.024,0.844" style="fill:none;stroke:#12100b;stroke-width:0.28px;"/><path id="LINE_5419_" d="M90.678,113.221l0.035,-0.133" style="fill:none;stroke:#12100b;stroke-width:0.28px;"/><path id="LINE_5418_" d="M90.685,113.209l0.118,-0.506" style="fill:none;stroke:#12100b;stroke-width:0.28px;"/><path id="LWPOLYLINE_6620_" d="M86.514,129.108l0.06,0.287l0.376,0.615l0.161,0.226l0.861,0.564l0.212,0.122l1.254,0.473l1.595,0.365l1.48,0.205l1.929,0.121l1.936,-0.03l1.814,-0.176l1.574,-0.317l1.228,-0.428l0.221,-0.118l0.828,-0.537l0.172,-0.224l0.336,-0.606l0.069,-0.287" style="fill:none;stroke:#12100b;stroke-width:0.28px;"/><path id="LINE_5417_" d="M84.308,111.343l4.336,0.245" style="fill:none;stroke:#12100b;stroke-width:0.28px;"/><path id="LINE_5416_" d="M82.78,112.695l-0.07,0.367" style="fill:none;stroke:#12100b;stroke-width:0.28px;"/><path id="LWPOLYLINE_6619_" d="M82.78,112.695l0.062,-0.118l0.078,-0.178" style="fill:none;stroke:#12100b;stroke-width:0.28px;"/><path id="LINE_5415_" d="M82.71,113.062l-0.296,8.811" style="fill:none;stroke:#12100b;stroke-width:0.28px;"/><path id="LWPOLYLINE_6618_" d="M82.719,113.109l-0.363,10.431" style="fill:none;stroke:#12100b;stroke-width:0.28px;"/><path id="LINE_5414_" d="M90.833,111.553l-2.119,-0.121" style="fill:none;stroke:#12100b;stroke-width:0.28px;"/><path id="LWPOLYLINE_6617_" d="M82.97,112.286l0.17,-0.241l0.044,-0.053" style="fill:none;stroke:#12100b;stroke-width:0.28px;"/><path id="LINE_5413_" d="M83.209,111.965l-0.025,0.027" style="fill:none;stroke:#12100b;stroke-width:0.28px;"/><path id="LWPOLYLINE_6616_" d="M83.222,111.953l0.215,-0.211l0.1,-0.082l0.319,-0.219l0.089,-0.053" style="fill:none;stroke:#12100b;stroke-width:0.28px;"/><path id="LINE_5412_" d="M88.517,111.581l0.013,-0.026" style="fill:none;stroke:#12100b;stroke-width:0.28px;"/><path id="LINE_5411_" d="M88.528,111.558" style="fill:none;stroke:#12100b;stroke-width:0.28px;"/><path id="LWPOLYLINE_6615_" d="M84.308,111.343l-0.113,-0.001l-0.113,0.008" style="fill:none;stroke:#12100b;stroke-width:0.28px;"/><path id="LINE_5410_" d="M84.693,124.222l-0.119,0.091" style="fill:none;stroke:#12100b;stroke-width:0.28px;"/><path id="LWPOLYLINE_6614_" d="M84.573,124.315l0.12,-0.093" style="fill:none;stroke:#12100b;stroke-width:0.28px;"/><path id="LINE_5409_" d="M84.834,124.177l-0.137,0.044" style="fill:none;stroke:#12100b;stroke-width:0.28px;"/><path id="LWPOLYLINE_6613_" d="M84.693,124.222l0.141,-0.045" style="fill:none;stroke:#12100b;stroke-width:0.28px;"/><path id="LWPOLYLINE_6612_" d="M83.945,111.388l0.009,-0.007l0.052,-0.017l0.076,-0.014" style="fill:none;stroke:#12100b;stroke-width:0.28px;"/><path id="LWPOLYLINE_6610_" d="M82.259,126.403l0.059,0.328l0.504,0.044l0.428,0.062l0.436,0.093l0.344,0.103l0.298,0.123" style="fill:none;stroke:#12100b;stroke-width:0.28px;"/><path id="LINE_5407_" d="M84.241,127.103l0.248,0.153" style="fill:none;stroke:#12100b;stroke-width:0.28px;"/><path id="LINE_5406_" d="M86.083,109.971l5.523,0.199" style="fill:none;stroke:#12100b;stroke-width:0.28px;"/><path id="LINE_5405_" d="M88.765,111.04l0.071,-0.156" style="fill:none;stroke:#12100b;stroke-width:0.28px;"/><path id="LINE_5404_" d="M83.74,110.596l0.059,-0.14" style="fill:none;stroke:#12100b;stroke-width:0.28px;"/><path id="LWPOLYLINE_6608_" d="M83.599,111.132l0.033,-0.249l0.008,-0.04l0.07,-0.175" style="fill:none;stroke:#12100b;stroke-width:0.28px;"/><path id="LINE_5403_" d="M91.453,110.164l0.152,-0.433" style="fill:none;stroke:#12100b;stroke-width:0.28px;"/><path id="LINE_5402_" d="M91.435,110.164l0.085,-0.326" style="fill:none;stroke:#12100b;stroke-width:0.28px;"/><path id="LINE_5401_" d="M91.48,109.987l0.034,-0.141" style="fill:none;stroke:#12100b;stroke-width:0.28px;"/><path id="LINE_5400_" d="M85.022,109.779l1.092,0.062" style="fill:none;stroke:#12100b;stroke-width:0.28px;"/><path id="LWPOLYLINE_6607_" d="M84.133,110.058l0.043,-0.026l0.47,-0.219l0.376,-0.034" style="fill:none;stroke:#12100b;stroke-width:0.28px;"/><path id="LINE_5399_" d="M83.599,111.132l-0.016,0.497" style="fill:none;stroke:#12100b;stroke-width:0.28px;"/><path id="LINE_5398_" d="M82.415,121.106l0.024,0.003" style="fill:none;stroke:#12100b;stroke-width:0.28px;"/><path id="LINE_5397_" d="M84.701,115.056l-0.272,1.099" style="fill:none;stroke:#12100b;stroke-width:0.28px;"/><path id="LINE_5396_" d="M91.798,116.201l-0.257,1.035" style="fill:none;stroke:#12100b;stroke-width:0.28px;"/><path id="LWPOLYLINE_6606_" d="M83.71,110.668l0.03,-0.072l0.18,-0.213l0.045,-0.022l0.188,-0.092l0.159,-0.015l0.011,0.003l0.214,0.056" style="fill:none;stroke:#12100b;stroke-width:0.28px;"/><path id="LWPOLYLINE_6605_" d="M83.161,112.02l-0.191,0.266l-0.05,0.113" style="fill:none;stroke:#12100b;stroke-width:0.28px;"/><path id="LWPOLYLINE_6604_" d="M84.045,111.891l-0.498,0.072l-0.039,0.007l-0.383,0.243l-0.064,0.042l-0.22,0.346l-0.061,0.094" style="fill:none;stroke:#12100b;stroke-width:0.28px;"/><path id="LWPOLYLINE_6603_" d="M101.33,111.863l0.01,0.156l-0.222,0.387l-0.01,0.015" style="fill:none;stroke:#12100b;stroke-width:0.28px;"/><path id="LWPOLYLINE_6602_" d="M85.915,127.853l1.154,0.413l0.024,0.005l1.314,0.347l0.633,0.121l0.855,0.165l1.336,0.176l0.265,0.035l1.677,0.132l0.416,0.011l1.297,0.037l1.111,-0.024l0.594,-0.013l1.658,-0.117l0.093,-0.012l1.475,-0.189l0.675,-0.127l0.77,-0.147l1.121,-0.301l0.159,-0.042l1.088,-0.404l0.247,-0.129l0.623,-0.325l0.436,-0.342l0.193,-0.153l0.373,-0.521l0.012,-0.054" style="fill:none;stroke:#12100b;stroke-width:0.28px;"/><path id="LWPOLYLINE_6601_" d="M84.386,126.994l0.586,0.399l0.575,0.28l0.368,0.18" style="fill:none;stroke:#12100b;stroke-width:0.28px;"/><path id="LWPOLYLINE_6600_" d="M101.591,121.732l0.68,0.413l0.446,0.445l0.189,0.461l-0.071,0.461l-0.329,0.445l-0.579,0.42l-0.809,0.375l-1.013,0.325l-1.186,0.259l-1.322,0.186l-1.414,0.111l-1.463,0.027l-1.466,-0.053l-1.422,-0.134l-1.332,-0.211l-1.203,-0.282l-1.033,-0.34l-0.83,-0.392l-0.515,-0.349" style="fill:none;stroke:#12100b;stroke-width:0.28px;"/><path id="LWPOLYLINE_6599_" d="M83.685,123.715l0.132,0.031l0.407,0.12l0.343,0.145l0.267,0.166" style="fill:none;stroke:#12100b;stroke-width:0.28px;"/><path id="LINE_5395_" d="M90.856,111.572l-2.012,-0.113" style="fill:none;stroke:#12100b;stroke-width:0.28px;"/><path id="LINE_5394_" d="M89.254,110.562l-0.071,0.156" style="fill:none;stroke:#12100b;stroke-width:0.28px;"/><path id="LINE_5393_" d="M90.405,112.251l0.825,0.03" style="fill:none;stroke:#12100b;stroke-width:0.28px;"/><path id="LINE_5392_" d="M85.92,109.984l0.032,-0.131" style="fill:none;stroke:#12100b;stroke-width:0.28px;"/><path id="LINE_5391_" d="M84.769,110.307l4.485,0.255" style="fill:none;stroke:#12100b;stroke-width:0.28px;"/><path id="LINE_5390_" d="M91.747,110.193l-5.827,-0.209" style="fill:none;stroke:#12100b;stroke-width:0.28px;"/><path id="LINE_5389_" d="M88.772,111.616l-4.484,-0.255" style="fill:none;stroke:#12100b;stroke-width:0.28px;"/><path id="LINE_5388_" d="M85.952,109.853l-0.951,-0.055" style="fill:none;stroke:#12100b;stroke-width:0.28px;"/><path id="LINE_5387_" d="M88.844,111.459l-0.072,0.157" style="fill:none;stroke:#12100b;stroke-width:0.28px;"/><path id="LINE_5386_" d="M84.288,111.361l-0.243,0.53" style="fill:none;stroke:#12100b;stroke-width:0.28px;"/><path id="LWPOLYLINE_6598_" d="M91.071,112.92l0.725,0.156l1.132,0.168l1.206,0.093" style="fill:none;stroke:#12100b;stroke-width:0.28px;"/><path id="LWPOLYLINE_6597_" d="M94.134,113.337l1.233,0.017l1.209,-0.06l1.139,-0.135l1.021,-0.204l0.865,-0.267l0.674,-0.315l0.454,-0.356l0.218,-0.379l-0.027,-0.388l-0.273,-0.381l-0.504,-0.359l-0.72,-0.322l-0.903,-0.276l-1.053,-0.214l-1.157,-0.146l-1.22,-0.072l-1.23,0.006l-1.194,0.084l-0.79,0.102" style="fill:none;stroke:#12100b;stroke-width:0.28px;"/><path id="LINE_5385_" d="M89.183,110.718l2.012,0.113" style="fill:none;stroke:#12100b;stroke-width:0.28px;"/><path id="LINE_5384_" d="M91.876,109.672l-0.129,0.521" style="fill:none;stroke:#12100b;stroke-width:0.28px;"/><path id="LINE_5383_" d="M85.001,109.798l-0.232,0.509" style="fill:none;stroke:#12100b;stroke-width:0.28px;"/><path id="LINE_5382_" d="M91.23,112.281l-0.159,0.639" style="fill:none;stroke:#12100b;stroke-width:0.28px;"/><path id="LINE_5381_" d="M84.045,111.891l6.36,0.36" style="fill:none;stroke:#12100b;stroke-width:0.28px;"/><path id="LINE_5380_" d="M88.569,122.816l0.039,0.022" style="fill:none;stroke:#12100b;stroke-width:0.28px;"/><path id="LWPOLYLINE_6596_" d="M88.608,122.838l0.698,0.329l0.229,0.075l0.638,0.211l0.77,0.18l0.239,0.055l1.118,0.178l0.313,0.029l0.88,0.084l0.937,0.034l0.293,0.01l1.227,-0.022l0.31,-0.025l0.878,-0.069l0.843,-0.119l0.267,-0.037l0.994,-0.218l0.219,-0.07l0.633,-0.201l0.513,-0.24l0.165,-0.076l0.484,-0.35l0.072,-0.097l0.206,-0.28l0.045,-0.291l0.015,-0.095" style="fill:none;stroke:#12100b;stroke-width:0.28px;"/><path id="LWPOLYLINE_6595_" d="M88.699,120.052l-0.079,1.672l-0.051,1.092" style="fill:none;stroke:#12100b;stroke-width:0.28px;"/><path id="LWPOLYLINE_6594_" d="M101.108,112.421l-0.484,0.379l-0.211,0.098l-0.506,0.238l-0.578,0.178l-0.342,0.106l-1.048,0.21l-0.039,0.009" style="fill:none;stroke:#12100b;stroke-width:0.28px;"/><path id="LWPOLYLINE_6593_" d="M97.9,113.639l-1.213,0.142l-0.382,0.019l-0.905,0.047l-0.829,-0.012l-0.484,-0.009l-1.239,-0.095l-0.045,-0.004l-1.205,-0.177l-0.325,-0.073l-0.62,-0.14" style="fill:none;stroke:#12100b;stroke-width:0.28px;"/><path id="LWPOLYLINE_6592_" d="M89.989,131.018l0.827,0.191l0.94,0.13l0.638,0.089l1.323,0.081l0.733,0.047l1.271,-0.023l0.792,-0.011l1.139,-0.113l0.795,-0.08l0.941,-0.189l0.735,-0.149l0.699,-0.247l0.61,-0.215l0.429,-0.281l0.42,-0.274l0.162,-0.293l0.177,-0.318" style="fill:none;stroke:#12100b;stroke-width:0.28px;"/><path id="LWPOLYLINE_6591_" d="M86.514,129.108l0.224,0.371l0.153,0.251l0.504,0.332l0.384,0.251l0.723,0.273l0.615,0.23l0.872,0.202" style="fill:none;stroke:#12100b;stroke-width:0.28px;"/><path id="LINE_5379_" d="M83.985,112.385l2.607,0.149" style="fill:none;stroke:#12100b;stroke-width:0.28px;"/><path id="LWPOLYLINE_6590_" d="M84.045,111.891l-0.021,0.074l-0.02,0.122l-0.013,0.145l-0.006,0.153" style="fill:none;stroke:#12100b;stroke-width:0.28px;"/><path id="LINE_5378_" d="M83.049,113.207l-0.352,10.453" style="fill:none;stroke:#12100b;stroke-width:0.28px;"/><path id="LWPOLYLINE_6589_" d="M83.985,112.385l-0.377,0.057l-0.314,0.201l-0.196,0.308l-0.049,0.256" style="fill:none;stroke:#12100b;stroke-width:0.28px;"/><path id="LWPOLYLINE_6588_" d="M88.247,123.358l0.081,-1.708l0.073,-1.575" style="fill:none;stroke:#12100b;stroke-width:0.28px;"/><path id="LINE_5377_" d="M90.788,112.771l-0.774,-0.029" style="fill:none;stroke:#12100b;stroke-width:0.28px;"/><path id="LINE_5376_" d="M84.308,111.343l-0.02,0.018" style="fill:none;stroke:#12100b;stroke-width:0.28px;"/><path id="LWPOLYLINE_6587_" d="M82.71,113.062l0.009,0.047l0.067,0.043l0.116,0.036l0.147,0.019" style="fill:none;stroke:#12100b;stroke-width:0.28px;"/><path id="LWPOLYLINE_6586_" d="M84.288,111.361l-0.117,-0.002l-0.116,0.009" style="fill:none;stroke:#12100b;stroke-width:0.28px;"/><path id="LWPOLYLINE_6585_" d="M84.055,111.368l-0.097,0.05l-0.22,0.131l-0.135,0.082l-0.111,0.081l-0.249,0.224" style="fill:none;stroke:#12100b;stroke-width:0.28px;"/><path id="LWPOLYLINE_6584_" d="M83.243,111.936l-0.034,0.029l-0.048,0.055" style="fill:none;stroke:#12100b;stroke-width:0.28px;"/><path id="LINE_5375_" d="M84.055,111.368l-0.11,0.02" style="fill:none;stroke:#12100b;stroke-width:0.28px;"/><path id="LWPOLYLINE_6582_" d="M82.287,126.452l0.463,0.038l0.104,0.017l0.288,0.042l0.399,0.085l0.315,0.093l0.228,0.094l0.064,0.028l0.238,0.145" style="fill:none;stroke:#12100b;stroke-width:0.28px;"/><path id="LWPOLYLINE_6581_" d="M83.457,124.188l-0.371,-0.111l-0.184,-0.056l-0.268,-0.082" style="fill:none;stroke:#12100b;stroke-width:0.28px;"/><path id="LWPOLYLINE_6580_" d="M84.458,124.591l-0.232,-0.145l-0.075,-0.031l-0.224,-0.094l-0.327,-0.097l-0.028,-0.009l-0.115,-0.027" style="fill:none;stroke:#12100b;stroke-width:0.28px;"/><path id="LWPOLYLINE_6579_" d="M82.634,123.939l-0.015,-0.003l-0.03,0.006l-0.04,0.019l-0.047,0.026l-0.05,0.024l-0.115,0.026l-0.039,0" style="fill:none;stroke:#12100b;stroke-width:0.28px;"/><path id="LWPOLYLINE_6578_" d="M84.216,110.713l-0.062,-0.033l-0.066,-0.035l-0.092,-0.004l-0.138,0.065l-0.108,0.138l-0.062,0.168l-0.022,0.186" style="fill:none;stroke:#12100b;stroke-width:0.28px;"/><path id="LINE_5374_" d="M84.198,111.342l0.018,-0.629" style="fill:none;stroke:#12100b;stroke-width:0.28px;"/><path id="LINE_5373_" d="M83.666,111.198l-0.013,0.383" style="fill:none;stroke:#12100b;stroke-width:0.28px;"/><path id="LWPOLYLINE_6577_" d="M84.082,111.35l-0.01,0.006l-0.01,0.007" style="fill:none;stroke:#12100b;stroke-width:0.28px;"/><path id="LINE_5371_" d="M88.768,111.033l-4.06,-0.23" style="fill:none;stroke:#12100b;stroke-width:0.28px;"/><path id="LINE_5370_" d="M84.545,110.808l-0.015,0.546" style="fill:none;stroke:#12100b;stroke-width:0.28px;"/><path id="LINE_5369_" d="M88.726,111.198l2.305,0.13" style="fill:none;stroke:#12100b;stroke-width:0.28px;"/><path id="LWPOLYLINE_6571_" d="M84.769,110.307l-0.022,0.075l-0.019,0.121l-0.014,0.146l-0.006,0.154" style="fill:none;stroke:#12100b;stroke-width:0.28px;"/><path id="LWPOLYLINE_6570_" d="M82.697,123.66l-0.019,0.067l-0.017,0.071l-0.015,0.071l-0.012,0.07" style="fill:none;stroke:#12100b;stroke-width:0.28px;"/><path id="LWPOLYLINE_6569_" d="M82.298,124.037l0.007,-0.152l0.012,-0.149l0.018,-0.12l0.021,-0.076" style="fill:none;stroke:#12100b;stroke-width:0.28px;"/><path id="LWPOLYLINE_6568_" d="M84.537,110.313l-0.004,0.019l-0.007,0.028l-0.006,0.028c-0.001,0.008 -0.001,0.028 -0.001,0.028l-0.002,0.09l0.008,0.148l0.002,0.017l0.019,0.136" style="fill:none;stroke:#12100b;stroke-width:0.28px;"/><path id="LWPOLYLINE_6567_" d="M84.769,110.307l-0.117,-0.002l-0.115,0.008" style="fill:none;stroke:#12100b;stroke-width:0.28px;"/><path id="LWPOLYLINE_6566_" d="M84.545,110.808l-0.146,-0.019l-0.115,-0.033l-0.068,-0.043" style="fill:none;stroke:#12100b;stroke-width:0.28px;"/><path id="LWPOLYLINE_6372_" d="M84.537,110.313l-0.126,0.054l-0.103,0.093l-0.067,0.12l-0.01,0.049l-0.015,0.084" style="fill:none;stroke:#12100b;stroke-width:0.28px;"/><path id="LWPOLYLINE_6371_" d="M85.001,109.798l-0.385,0.033l-0.105,0.05l-0.378,0.177l-0.048,0.057l-0.286,0.341" style="fill:none;stroke:#12100b;stroke-width:0.28px;"/><path id="LWPOLYLINE_6370_" d="M83.599,111.132l0.009,0.023l0.022,0.022l0.036,0.021" style="fill:none;stroke:#12100b;stroke-width:0.28px;"/><path id="LINE_5094_" d="M85.022,109.779l-0.021,0.019" style="fill:none;stroke:#12100b;stroke-width:0.28px;"/></g><path d="M100.852,92.584l5.879,0l0,8.223l3.348,0l-6.287,6.144l-6.287,-6.144l3.347,0l0,-8.223Zm2.939,13.008l3.913,-3.824l-1.956,0l0,-8.223l-3.914,0l0,8.223l-1.956,0l3.913,3.824Z" style="fill-rule:nonzero;"/><path d="M73.989,14.027c0,0.111 -0.006,0.208 -0.018,0.29c-0.012,0.082 -0.032,0.148 -0.062,0.198c-0.03,0.05 -0.063,0.086 -0.101,0.109c-0.038,0.023 -0.078,0.035 -0.119,0.035l-4.166,0l0,3.867l3.938,0c0.041,0 0.081,0.011 0.119,0.031c0.038,0.02 0.072,0.054 0.101,0.101c0.029,0.047 0.05,0.11 0.062,0.188c0.012,0.08 0.018,0.181 0.018,0.304c0,0.111 -0.006,0.206 -0.018,0.286c-0.012,0.078 -0.032,0.144 -0.062,0.193c-0.03,0.049 -0.063,0.088 -0.101,0.113c-0.038,0.027 -0.078,0.04 -0.119,0.04l-3.938,0l0,4.737c0,0.041 -0.012,0.081 -0.035,0.119c-0.023,0.038 -0.064,0.067 -0.123,0.088c-0.059,0.021 -0.135,0.037 -0.229,0.053c-0.094,0.014 -0.217,0.021 -0.369,0.021c-0.141,0 -0.261,-0.008 -0.36,-0.021c-0.1,-0.016 -0.179,-0.032 -0.237,-0.053c-0.058,-0.021 -0.1,-0.05 -0.123,-0.088c-0.023,-0.038 -0.035,-0.078 -0.035,-0.119l0,-10.527c0,-0.229 0.06,-0.388 0.18,-0.479c0.12,-0.091 0.248,-0.137 0.382,-0.137l5.115,0c0.041,0 0.081,0.012 0.119,0.035c0.038,0.023 0.072,0.062 0.101,0.114c0.029,0.052 0.05,0.122 0.062,0.206c0.012,0.087 0.018,0.185 0.018,0.296Z" style="fill-rule:nonzero;"/><path d="M109.228,87.661c0,0.117 -0.006,0.216 -0.018,0.294c-0.012,0.08 -0.03,0.147 -0.058,0.203c-0.025,0.056 -0.059,0.096 -0.096,0.123c-0.039,0.025 -0.084,0.039 -0.137,0.039l-5.027,0c-0.135,0 -0.262,-0.045 -0.383,-0.137c-0.119,-0.09 -0.18,-0.25 -0.18,-0.479l0,-10.528c0,-0.047 0.012,-0.088 0.035,-0.123c0.023,-0.035 0.064,-0.063 0.123,-0.084c0.059,-0.02 0.138,-0.037 0.237,-0.053c0.1,-0.014 0.22,-0.021 0.36,-0.021c0.146,0 0.268,0.008 0.365,0.021c0.096,0.016 0.174,0.033 0.232,0.053c0.059,0.021 0.1,0.049 0.123,0.084c0.023,0.035 0.035,0.076 0.035,0.123l0,9.835l4.078,0c0.053,0 0.098,0.013 0.137,0.04c0.037,0.025 0.07,0.064 0.096,0.113c0.027,0.051 0.046,0.116 0.058,0.198c0.012,0.082 0.02,0.182 0.02,0.299Z" style="fill-rule:nonzero;"/><path d="M118.365,121.887c0,0.094 -0.003,0.176 -0.009,0.246c-0.006,0.07 -0.016,0.132 -0.031,0.185c-0.014,0.053 -0.033,0.1 -0.057,0.141c-0.024,0.041 -0.064,0.091 -0.123,0.149c-0.059,0.058 -0.182,0.148 -0.369,0.269c-0.187,0.121 -0.42,0.236 -0.699,0.352c-0.277,0.113 -0.598,0.211 -0.957,0.289c-0.361,0.08 -0.755,0.119 -1.183,0.119c-0.738,0 -1.405,-0.123 -1.999,-0.369c-0.596,-0.246 -1.102,-0.609 -1.521,-1.09c-0.418,-0.48 -0.74,-1.073 -0.967,-1.779c-0.225,-0.706 -0.338,-1.52 -0.338,-2.439c0,-0.943 0.121,-1.784 0.365,-2.522c0.242,-0.738 0.584,-1.363 1.023,-1.876c0.439,-0.513 0.965,-0.904 1.578,-1.174c0.611,-0.27 1.29,-0.404 2.034,-0.404c0.328,0 0.647,0.031 0.958,0.092c0.311,0.063 0.598,0.14 0.861,0.233c0.263,0.093 0.498,0.202 0.703,0.325c0.205,0.123 0.348,0.225 0.426,0.303c0.08,0.08 0.131,0.14 0.154,0.181c0.023,0.041 0.043,0.09 0.057,0.146c0.016,0.056 0.027,0.121 0.035,0.197c0.01,0.076 0.014,0.167 0.014,0.272c0,0.117 -0.006,0.217 -0.018,0.299c-0.012,0.082 -0.029,0.151 -0.053,0.206c-0.023,0.057 -0.052,0.098 -0.084,0.123c-0.033,0.027 -0.072,0.04 -0.119,0.04c-0.083,0 -0.197,-0.058 -0.346,-0.171c-0.146,-0.115 -0.337,-0.24 -0.569,-0.379c-0.233,-0.137 -0.516,-0.264 -0.849,-0.377c-0.332,-0.115 -0.731,-0.172 -1.197,-0.172c-0.506,0 -0.967,0.102 -1.383,0.303c-0.415,0.203 -0.77,0.5 -1.064,0.893c-0.294,0.393 -0.523,0.872 -0.685,1.438c-0.162,0.565 -0.243,1.211 -0.243,1.938c0,0.721 0.078,1.357 0.234,1.912c0.156,0.553 0.379,1.017 0.672,1.389c0.291,0.372 0.648,0.653 1.072,0.844c0.425,0.19 0.904,0.285 1.441,0.285c0.453,0 0.85,-0.056 1.188,-0.167c0.339,-0.111 0.628,-0.235 0.866,-0.374c0.239,-0.137 0.435,-0.262 0.588,-0.373c0.153,-0.111 0.273,-0.167 0.362,-0.167c0.041,0 0.076,0.009 0.105,0.026c0.029,0.017 0.053,0.052 0.07,0.102c0.017,0.05 0.031,0.118 0.041,0.206c0.011,0.084 0.016,0.196 0.016,0.33Z" style="fill-rule:nonzero;"/><text x="118.397px" y="123.58px" style="font-family:'ArialMT', 'Arial', sans-serif;font-size:18px;">1</text></svg>