<?xml version="1.0" encoding="UTF-8" standalone="no"?>
<!DOCTYPE svg PUBLIC "-//W3C//DTD SVG 1.1//EN" "http://www.w3.org/Graphics/SVG/1.1/DTD/svg11.dtd">
<svg width="100%" height="100%" viewBox="0 0 400 286" version="1.1" xmlns="http://www.w3.org/2000/svg" xmlns:xlink="http://www.w3.org/1999/xlink" xml:space="preserve" xmlns:serif="http://www.serif.com/" style="fill-rule:evenodd;clip-rule:evenodd;stroke-linecap:round;stroke-linejoin:round;stroke-miterlimit:10;">
    <g transform="matrix(2.01582,0,0,2.01582,0,0)">
        <g>
            <g id="INSERT_11_">
                <g id="LINE_4574_">
                    <path d="M114.49,108.014L121.429,108.014" style="fill:none;fill-rule:nonzero;stroke:rgb(18,16,11);stroke-width:0.71px;"/>
                </g>
                <g id="LINE_4572_">
                    <path d="M121.429,90.671L55.524,90.671" style="fill:none;fill-rule:nonzero;stroke:rgb(18,16,11);stroke-width:0.71px;"/>
                </g>
                <g id="LINE_4570_">
                    <path d="M121.429,108.014L121.429,90.671" style="fill:none;fill-rule:nonzero;stroke:rgb(18,16,11);stroke-width:0.71px;"/>
                </g>
                <g id="LINE_4569_">
                    <path d="M55.524,90.671L52.057,90.671" style="fill:none;fill-rule:nonzero;stroke:rgb(18,16,11);stroke-width:0.71px;"/>
                </g>
                <g id="LINE_4566_">
                    <path d="M124.896,90.671L121.429,90.671" style="fill:none;fill-rule:nonzero;stroke:rgb(18,16,11);stroke-width:0.71px;"/>
                </g>
                <g id="LINE_4565_">
                    <path d="M121.429,108.014L124.896,108.014" style="fill:none;fill-rule:nonzero;stroke:rgb(18,16,11);stroke-width:0.71px;"/>
                </g>
                <g id="LINE_4564_">
                    <path d="M124.896,108.014L124.896,90.671" style="fill:none;fill-rule:nonzero;stroke:rgb(18,16,11);stroke-width:0.71px;"/>
                </g>
                <g id="LINE_4563_">
                    <path d="M114.49,108.014L87.459,108.014" style="fill:none;fill-rule:nonzero;stroke:rgb(18,16,11);stroke-width:0.71px;"/>
                </g>
                <g id="LWPOLYLINE_5529_">
                    <path d="M124.896,87.203L117.96,87.203" style="fill:none;fill-rule:nonzero;stroke:rgb(18,16,11);stroke-width:0.71px;"/>
                </g>
                <g id="LWPOLYLINE_5528_">
                    <path d="M58.994,87.203L52.057,87.203" style="fill:none;fill-rule:nonzero;stroke:rgb(18,16,11);stroke-width:0.71px;"/>
                </g>
                <g id="LINE_4557_">
                    <path d="M117.96,87.203L58.994,87.203" style="fill:none;fill-rule:nonzero;stroke:rgb(18,16,11);stroke-width:0.71px;"/>
                </g>
                <g id="LWPOLYLINE_5521_">
                    <path d="M52.057,82L52.057,87.203" style="fill:none;fill-rule:nonzero;stroke:rgb(18,16,11);stroke-width:0.71px;"/>
                </g>
                <g id="LWPOLYLINE_5520_">
                    <path d="M124.896,87.203L124.896,82" style="fill:none;fill-rule:nonzero;stroke:rgb(18,16,11);stroke-width:0.71px;"/>
                </g>
                <g id="LINE_4553_">
                    <path d="M101.578,70.093L101.578,68.288" style="fill:none;fill-rule:nonzero;stroke:rgb(18,16,11);stroke-width:0.71px;"/>
                </g>
                <g id="LWPOLYLINE_5518_">
                    <path d="M103.651,72.945L105.366,73.501L107.159,73.313L108.72,72.413L109.78,70.953L110.156,69.189L109.78,67.428L108.72,65.968L107.159,65.067L105.366,64.878L103.651,65.436L102.313,66.643L101.578,68.288L101.482,69.189L101.578,70.093L102.313,71.738L103.651,72.945Z" style="fill:none;fill-rule:nonzero;stroke:rgb(18,16,11);stroke-width:0.71px;"/>
                </g>
                <g id="LINE_4552_">
                    <path d="M124.896,82C123.208,75.09 121.519,68.182 119.831,61.272" style="fill:none;fill-rule:nonzero;stroke:rgb(18,16,11);stroke-width:0.71px;"/>
                </g>
                <g id="LINE_4551_">
                    <path d="M62.783,38.122C59.207,52.748 55.633,67.375 52.057,82" style="fill:none;fill-rule:nonzero;stroke:rgb(18,16,11);stroke-width:0.71px;"/>
                </g>
                <g id="LWPOLYLINE_5517_">
                    <path d="M67.51,85.902L55.682,85.902" style="fill:none;fill-rule:nonzero;stroke:rgb(18,16,11);stroke-width:0.71px;"/>
                </g>
                <g id="LWPOLYLINE_5513_">
                    <path d="M65.736,80.796L57.454,80.796" style="fill:none;fill-rule:nonzero;stroke:rgb(18,16,11);stroke-width:0.71px;"/>
                </g>
                <g id="LWPOLYLINE_5512_">
                    <path d="M56.938,81.315L66.252,81.315" style="fill:none;fill-rule:nonzero;stroke:rgb(18,16,11);stroke-width:0.71px;"/>
                </g>
                <g id="LWPOLYLINE_5510_">
                    <path d="M94.92,83.646L97.137,83.646" style="fill:none;fill-rule:nonzero;stroke:rgb(18,16,11);stroke-width:0.71px;"/>
                </g>
                <g id="LWPOLYLINE_5471_">
                    <path d="M79.817,83.646L94.92,83.646" style="fill:none;fill-rule:nonzero;stroke:rgb(18,16,11);stroke-width:0.71px;"/>
                </g>
                <g id="LWPOLYLINE_5468_">
                    <path d="M94.711,68.846L94.639,69.469L94.432,70.054L94.099,70.57L93.658,70.988L93.139,71.278L92.567,71.429L91.979,71.429L91.41,71.278L90.891,70.988L90.45,70.57L90.116,70.054L89.908,69.469L89.838,68.846L89.908,68.224L90.116,67.638L90.45,67.121L90.891,66.704L91.41,66.413L91.979,66.264L92.567,66.264L93.139,66.413L93.658,66.704L94.099,67.121L94.432,67.638L94.639,68.224L94.711,68.846Z" style="fill:none;fill-rule:nonzero;stroke:rgb(18,16,11);stroke-width:0.71px;"/>
                </g>
                <g id="LINE_4550_">
                    <path d="M91.482,70.309L90.69,68.846" style="fill:none;fill-rule:nonzero;stroke:rgb(18,16,11);stroke-width:0.71px;"/>
                </g>
                <g id="LINE_4549_">
                    <path d="M93.063,70.309L91.482,70.309" style="fill:none;fill-rule:nonzero;stroke:rgb(18,16,11);stroke-width:0.71px;"/>
                </g>
                <g id="LINE_4548_">
                    <path d="M91.482,67.384L93.063,67.384" style="fill:none;fill-rule:nonzero;stroke:rgb(18,16,11);stroke-width:0.71px;"/>
                </g>
                <g id="LINE_4547_">
                    <path d="M90.69,68.846L91.482,67.384" style="fill:none;fill-rule:nonzero;stroke:rgb(18,16,11);stroke-width:0.71px;"/>
                </g>
                <g id="LINE_4546_">
                    <path d="M93.063,67.384L93.857,68.846" style="fill:none;fill-rule:nonzero;stroke:rgb(18,16,11);stroke-width:0.71px;"/>
                </g>
                <g id="LINE_4545_">
                    <path d="M93.857,68.846L93.063,70.309" style="fill:none;fill-rule:nonzero;stroke:rgb(18,16,11);stroke-width:0.71px;"/>
                </g>
                <g id="LINE_4544_">
                    <path d="M93.248,68.846L93.857,68.846" style="fill:none;fill-rule:nonzero;stroke:rgb(18,16,11);stroke-width:0.71px;"/>
                </g>
                <g id="LINE_4543_">
                    <path d="M92.457,67.384L93.248,68.846" style="fill:none;fill-rule:nonzero;stroke:rgb(18,16,11);stroke-width:0.71px;"/>
                </g>
                <g id="LINE_4542_">
                    <path d="M93.248,68.846L92.457,70.309" style="fill:none;fill-rule:nonzero;stroke:rgb(18,16,11);stroke-width:0.71px;"/>
                </g>
                <g id="LWPOLYLINE_5465_">
                    <path d="M94.711,54.972L94.639,55.596L94.432,56.183L94.099,56.697L93.658,57.113L93.139,57.405L92.567,57.556L91.979,57.556L91.41,57.405L90.891,57.113L90.45,56.697L90.116,56.183L89.908,55.596L89.838,54.972L89.908,54.349L90.116,53.763L90.45,53.247L90.891,52.831L91.41,52.539L91.979,52.39L92.567,52.39L93.139,52.539L93.658,52.831L94.099,53.247L94.432,53.763L94.639,54.349L94.711,54.972Z" style="fill:none;fill-rule:nonzero;stroke:rgb(18,16,11);stroke-width:0.71px;"/>
                </g>
                <g id="LINE_4523_">
                    <path d="M91.482,56.436L90.69,54.972" style="fill:none;fill-rule:nonzero;stroke:rgb(18,16,11);stroke-width:0.71px;"/>
                </g>
                <g id="LINE_4522_">
                    <path d="M90.69,54.972L91.482,53.509" style="fill:none;fill-rule:nonzero;stroke:rgb(18,16,11);stroke-width:0.71px;"/>
                </g>
                <g id="LINE_4521_">
                    <path d="M93.063,56.436L91.482,56.436" style="fill:none;fill-rule:nonzero;stroke:rgb(18,16,11);stroke-width:0.71px;"/>
                </g>
                <g id="LINE_4520_">
                    <path d="M93.063,53.509L93.857,54.972" style="fill:none;fill-rule:nonzero;stroke:rgb(18,16,11);stroke-width:0.71px;"/>
                </g>
                <g id="LINE_4519_">
                    <path d="M91.482,53.509L93.063,53.509" style="fill:none;fill-rule:nonzero;stroke:rgb(18,16,11);stroke-width:0.71px;"/>
                </g>
                <g id="LINE_4518_">
                    <path d="M93.857,54.972L93.063,56.436" style="fill:none;fill-rule:nonzero;stroke:rgb(18,16,11);stroke-width:0.71px;"/>
                </g>
                <g id="LINE_4517_">
                    <path d="M93.248,54.972L92.457,56.436" style="fill:none;fill-rule:nonzero;stroke:rgb(18,16,11);stroke-width:0.71px;"/>
                </g>
                <g id="LINE_4516_">
                    <path d="M93.857,54.972L93.248,54.972" style="fill:none;fill-rule:nonzero;stroke:rgb(18,16,11);stroke-width:0.71px;"/>
                </g>
                <g id="LINE_4515_">
                    <path d="M92.457,53.509L93.248,54.972" style="fill:none;fill-rule:nonzero;stroke:rgb(18,16,11);stroke-width:0.71px;"/>
                </g>
                <g id="LINE_4513_">
                    <path d="M71.134,46.953L67.862,45.064" style="fill:none;fill-rule:nonzero;stroke:rgb(18,16,11);stroke-width:0.71px;"/>
                </g>
                <g id="LWPOLYLINE_5464_">
                    <path d="M67.009,38.312L66.252,39.029L65.477,40.176L64.964,41.463L64.74,42.828L64.813,44.212L65.185,45.545L65.833,46.769L66.729,47.825L67.833,48.662L69.09,49.245L70.441,49.542L71.826,49.542L73.179,49.245L74.436,48.662L75.537,47.825L76.436,46.769L77.082,45.545L77.454,44.212L77.486,43.606" style="fill:none;fill-rule:nonzero;stroke:rgb(18,16,11);stroke-width:0.71px;"/>
                </g>
                <g id="LINE_4511_">
                    <path d="M67.862,45.064L67.862,41.286" style="fill:none;fill-rule:nonzero;stroke:rgb(18,16,11);stroke-width:0.71px;"/>
                </g>
                <g id="LINE_4510_">
                    <path d="M74.405,45.064L71.134,46.953" style="fill:none;fill-rule:nonzero;stroke:rgb(18,16,11);stroke-width:0.71px;"/>
                </g>
                <g id="LWPOLYLINE_5463_">
                    <path d="M65.152,39.119C59.119,47.885 74.629,55.593 77.986,45.514" style="fill:none;fill-rule:nonzero;stroke:rgb(18,16,11);stroke-width:0.71px;"/>
                </g>
                <g id="LWPOLYLINE_5461_">
                    <path d="M71.134,62.784L72.511,62.935L73.823,63.378L75.009,64.092L76.014,65.044L76.792,66.19L77.305,67.477L77.528,68.845L77.454,70.225L77.082,71.561L76.436,72.785L75.537,73.839L74.436,74.678L73.179,75.258L71.826,75.556L70.441,75.556L69.09,75.258L67.833,74.678L66.729,73.839L65.833,72.785L65.185,71.561L64.813,70.225L64.74,68.845L64.964,67.477L65.477,66.19L66.252,65.044L67.258,64.092L68.445,63.378L69.758,62.935L71.134,62.784Z" style="fill:none;fill-rule:nonzero;stroke:rgb(18,16,11);stroke-width:0.71px;"/>
                </g>
                <g id="LWPOLYLINE_5460_">
                    <path d="M71.134,61.918L69.57,62.089L68.081,62.592L66.733,63.401L65.592,64.483L64.71,65.784L64.128,67.245L63.873,68.797L63.958,70.365L64.38,71.881L65.116,73.27L66.134,74.47L67.385,75.419L68.813,76.079L70.348,76.419L71.92,76.419L73.455,76.079L74.881,75.419L76.134,74.47L77.152,73.27L77.889,71.881L78.086,71.171" style="fill:none;fill-rule:nonzero;stroke:rgb(18,16,11);stroke-width:0.71px;"/>
                </g>
                <g id="LWPOLYLINE_5459_">
                    <path d="M78.086,67.108L77.558,65.784L76.677,64.483L75.535,63.401L74.188,62.592L72.696,62.089L71.134,61.918" style="fill:none;fill-rule:nonzero;stroke:rgb(18,16,11);stroke-width:0.71px;"/>
                </g>
                <g id="LINE_4508_">
                    <path d="M67.862,71.078L67.862,67.3" style="fill:none;fill-rule:nonzero;stroke:rgb(18,16,11);stroke-width:0.71px;"/>
                </g>
                <g id="LINE_4507_">
                    <path d="M67.862,67.3L71.134,65.412" style="fill:none;fill-rule:nonzero;stroke:rgb(18,16,11);stroke-width:0.71px;"/>
                </g>
                <g id="LINE_4506_">
                    <path d="M71.134,65.412L74.405,67.3" style="fill:none;fill-rule:nonzero;stroke:rgb(18,16,11);stroke-width:0.71px;"/>
                </g>
                <g id="LINE_4505_">
                    <path d="M74.405,67.3L74.405,71.078" style="fill:none;fill-rule:nonzero;stroke:rgb(18,16,11);stroke-width:0.71px;"/>
                </g>
                <g id="LINE_4474_">
                    <path d="M71.134,72.969L67.862,71.078" style="fill:none;fill-rule:nonzero;stroke:rgb(18,16,11);stroke-width:0.71px;"/>
                </g>
                <g id="LINE_4473_">
                    <path d="M74.405,71.078L71.134,72.969" style="fill:none;fill-rule:nonzero;stroke:rgb(18,16,11);stroke-width:0.71px;"/>
                </g>
                <g id="LINE_4456_">
                    <path d="M124.896,90.671L124.896,87.203" style="fill:none;fill-rule:nonzero;stroke:rgb(18,16,11);stroke-width:0.71px;"/>
                </g>
                <g id="LINE_4455_">
                    <path d="M52.057,87.203L52.057,90.671" style="fill:none;fill-rule:nonzero;stroke:rgb(18,16,11);stroke-width:0.71px;"/>
                </g>
                <g id="LINE_4452_">
                    <path d="M67.51,87.203L67.51,85.902" style="fill:none;fill-rule:nonzero;stroke:rgb(18,16,11);stroke-width:0.71px;"/>
                </g>
                <g id="LINE_4451_">
                    <path d="M55.682,85.902L55.682,87.203" style="fill:none;fill-rule:nonzero;stroke:rgb(18,16,11);stroke-width:0.71px;"/>
                </g>
                <g id="LINE_4444_">
                    <path d="M66.252,81.315L65.736,80.796" style="fill:none;fill-rule:nonzero;stroke:rgb(18,16,11);stroke-width:0.71px;"/>
                </g>
                <g id="LINE_4443_">
                    <path d="M56.938,81.315L57.454,80.796" style="fill:none;fill-rule:nonzero;stroke:rgb(18,16,11);stroke-width:0.71px;"/>
                </g>
                <g id="LINE_4442_">
                    <path d="M66.252,85.902L66.252,81.315" style="fill:none;fill-rule:nonzero;stroke:rgb(18,16,11);stroke-width:0.71px;"/>
                </g>
                <g id="LINE_4441_">
                    <path d="M56.938,85.902L56.938,81.315" style="fill:none;fill-rule:nonzero;stroke:rgb(18,16,11);stroke-width:0.71px;"/>
                </g>
                <g id="LINE_4440_">
                    <path d="M98.869,81.913L97.137,83.646" style="fill:none;fill-rule:nonzero;stroke:rgb(18,16,11);stroke-width:0.71px;"/>
                </g>
                <g id="LINE_4439_">
                    <path d="M78.086,81.913L79.817,83.646" style="fill:none;fill-rule:nonzero;stroke:rgb(18,16,11);stroke-width:0.71px;"/>
                </g>
                <g id="LINE_4438_">
                    <path d="M98.869,81.913L98.869,55.536" style="fill:none;fill-rule:nonzero;stroke:rgb(18,16,11);stroke-width:0.71px;"/>
                </g>
                <g id="LINE_4437_">
                    <path d="M78.086,81.913L78.086,46.177" style="fill:none;fill-rule:nonzero;stroke:rgb(18,16,11);stroke-width:0.71px;"/>
                </g>
                <g id="LINE_4434_">
                    <path d="M91.827,71.429L91.979,71.429" style="fill:none;fill-rule:nonzero;stroke:rgb(18,16,11);stroke-width:0.71px;"/>
                </g>
                <g id="LINE_4433_">
                    <path d="M91.827,66.264L91.979,66.264" style="fill:none;fill-rule:nonzero;stroke:rgb(18,16,11);stroke-width:0.71px;"/>
                </g>
                <g id="LINE_4428_">
                    <path d="M91.827,57.556L91.979,57.556" style="fill:none;fill-rule:nonzero;stroke:rgb(18,16,11);stroke-width:0.71px;"/>
                </g>
                <g id="LINE_4427_">
                    <path d="M91.827,52.39L91.979,52.39" style="fill:none;fill-rule:nonzero;stroke:rgb(18,16,11);stroke-width:0.71px;"/>
                </g>
                <g id="LINE_4426_">
                    <path d="M84.141,87.203L84.141,83.646" style="fill:none;fill-rule:nonzero;stroke:rgb(18,16,11);stroke-width:0.71px;"/>
                </g>
                <g id="LINE_4421_">
                    <path d="M92.812,87.203L92.812,83.646" style="fill:none;fill-rule:nonzero;stroke:rgb(18,16,11);stroke-width:0.71px;"/>
                </g>
                <g id="LINE_4400_">
                    <path d="M117.96,87.203L117.96,90.671" style="fill:none;fill-rule:nonzero;stroke:rgb(18,16,11);stroke-width:0.71px;"/>
                </g>
                <g id="LINE_4398_">
                    <path d="M58.994,90.671L58.994,87.203" style="fill:none;fill-rule:nonzero;stroke:rgb(18,16,11);stroke-width:0.71px;"/>
                </g>
                <g id="LINE_4393_">
                    <path d="M124.896,82L98.781,82" style="fill:none;fill-rule:nonzero;stroke:rgb(18,16,11);stroke-width:0.71px;"/>
                </g>
                <g id="LINE_4392_">
                    <path d="M78.173,82L66.252,82" style="fill:none;fill-rule:nonzero;stroke:rgb(18,16,11);stroke-width:0.71px;"/>
                </g>
                <g id="LINE_4391_">
                    <path d="M56.938,82L52.057,82" style="fill:none;fill-rule:nonzero;stroke:rgb(18,16,11);stroke-width:0.71px;"/>
                </g>
            </g>
            <path d="M102.225,83.646L146.74,83.646" style="fill:none;fill-rule:nonzero;stroke:rgb(18,16,11);stroke-width:0.71px;"/>
            <path d="M128.125,87.203L146.74,87.203" style="fill:none;fill-rule:nonzero;stroke:rgb(18,16,11);stroke-width:0.71px;"/>
        </g>
        <path d="M144.847,73.953L144.847,94.953" style="fill:none;fill-rule:nonzero;stroke:rgb(18,16,11);stroke-width:0.71px;"/>
        <g>
            <path d="M140.578,78.336L135.246,78.336C136.008,79.328 136.389,79.996 136.389,80.34C136.389,80.504 136.324,80.65 136.193,80.777C136.062,80.904 135.911,80.967 135.739,80.967C135.54,80.967 135.393,80.904 135.3,80.779C135.207,80.654 135.085,80.433 134.937,80.117C134.714,79.644 134.48,79.266 134.234,78.983C133.988,78.7 133.713,78.449 133.408,78.23C133.103,78.011 132.916,77.869 132.845,77.802C132.774,77.735 132.74,77.611 132.74,77.427C132.74,77.22 132.82,77.054 132.98,76.929C133.14,76.804 133.361,76.741 133.642,76.741L140.351,76.741C141.136,76.741 141.529,77.009 141.529,77.544C141.529,77.782 141.449,77.974 141.289,78.118C141.129,78.262 140.891,78.336 140.578,78.336Z" style="fill-rule:nonzero;"/>
            <path d="M141.528,72.705C141.528,72.947 141.45,73.156 141.294,73.332C141.138,73.508 140.919,73.596 140.638,73.596C140.4,73.596 140.195,73.512 140.023,73.344C139.851,73.176 139.765,72.969 139.765,72.723C139.765,72.477 139.85,72.267 140.02,72.093C140.19,71.919 140.396,71.832 140.638,71.832C140.915,71.832 141.133,71.919 141.291,72.093C141.449,72.267 141.528,72.47 141.528,72.705Z" style="fill-rule:nonzero;"/>
            <path d="M134.239,65.281L134.239,68.064L136.137,68.398C135.84,67.843 135.692,67.332 135.692,66.863C135.692,66.488 135.762,66.137 135.903,65.811C136.044,65.485 136.238,65.199 136.486,64.953C136.734,64.707 137.028,64.514 137.368,64.373C137.708,64.232 138.073,64.162 138.464,64.162C139.03,64.162 139.546,64.289 140.011,64.543C140.476,64.797 140.845,65.163 141.118,65.642C141.391,66.121 141.528,66.672 141.528,67.297C141.528,67.996 141.399,68.564 141.141,68.999C140.883,69.434 140.587,69.743 140.253,69.925C139.919,70.107 139.627,70.197 139.377,70.197C139.225,70.197 139.08,70.134 138.943,70.007C138.806,69.88 138.738,69.721 138.738,69.529C138.738,69.201 138.927,68.957 139.306,68.797C139.654,68.641 139.924,68.43 140.118,68.164C140.312,67.898 140.408,67.601 140.408,67.273C140.408,66.972 140.33,66.709 140.174,66.482C140.018,66.255 139.803,66.081 139.529,65.958C139.255,65.835 138.945,65.773 138.597,65.773C138.222,65.773 137.902,65.839 137.636,65.972C137.37,66.105 137.172,66.283 137.041,66.505C136.91,66.727 136.845,66.976 136.845,67.249C136.845,67.585 136.886,67.825 136.968,67.97C137.05,68.115 137.194,68.323 137.399,68.594C137.604,68.865 137.707,69.089 137.707,69.265C137.707,69.456 137.638,69.626 137.499,69.775C137.36,69.924 137.203,69.998 137.027,69.998C137.007,69.998 136.875,69.977 136.629,69.934L133.822,69.442C133.486,69.387 133.242,69.286 133.09,69.137C132.938,68.988 132.861,68.746 132.861,68.41L132.861,65.316C132.861,64.707 133.093,64.402 133.558,64.402C133.761,64.402 133.925,64.476 134.05,64.625C134.175,64.774 134.239,64.992 134.239,65.281Z" style="fill-rule:nonzero;"/>
            <path d="M138.393,54.558L140.52,54.558C140.856,54.558 141.108,54.634 141.276,54.787C141.444,54.94 141.528,55.141 141.528,55.391C141.528,55.633 141.444,55.829 141.276,55.98C141.108,56.131 140.856,56.206 140.52,56.206L137.971,56.206C137.569,56.206 137.256,56.22 137.033,56.247C136.81,56.274 136.628,56.349 136.485,56.47C136.342,56.591 136.271,56.783 136.271,57.044C136.271,57.567 136.451,57.912 136.81,58.078C137.169,58.244 137.685,58.327 138.357,58.327L140.519,58.327C140.851,58.327 141.102,58.402 141.272,58.553C141.442,58.704 141.527,58.902 141.527,59.148C141.527,59.39 141.442,59.588 141.272,59.743C141.102,59.898 140.851,59.974 140.519,59.974L135.943,59.974C135.642,59.974 135.414,59.905 135.257,59.766C135.1,59.627 135.023,59.445 135.023,59.218C135.023,58.999 135.096,58.817 135.243,58.67C135.39,58.523 135.592,58.45 135.849,58.45L136.001,58.45C135.669,58.173 135.425,57.876 135.269,57.559C135.113,57.242 135.035,56.891 135.035,56.504C135.035,56.102 135.115,55.756 135.275,55.467C135.435,55.178 135.677,54.94 136.002,54.752C135.674,54.482 135.431,54.193 135.273,53.885C135.115,53.577 135.036,53.235 135.036,52.86C135.036,52.422 135.122,52.046 135.294,51.729C135.466,51.412 135.712,51.176 136.032,51.02C136.321,50.883 136.776,50.815 137.397,50.815L140.52,50.815C140.856,50.815 141.108,50.891 141.276,51.044C141.444,51.197 141.528,51.398 141.528,51.648C141.528,51.89 141.443,52.088 141.273,52.243C141.103,52.398 140.852,52.474 140.52,52.474L137.831,52.474C137.487,52.474 137.212,52.489 137.005,52.518C136.798,52.547 136.624,52.626 136.484,52.755C136.344,52.884 136.273,53.079 136.273,53.341C136.273,53.552 136.336,53.752 136.461,53.942C136.586,54.132 136.754,54.279 136.965,54.384C137.233,54.5 137.709,54.558 138.393,54.558Z" style="fill-rule:nonzero;"/>
            <path d="M138.393,43.941L140.52,43.941C140.856,43.941 141.108,44.017 141.276,44.17C141.444,44.323 141.528,44.524 141.528,44.774C141.528,45.016 141.444,45.212 141.276,45.363C141.108,45.514 140.856,45.589 140.52,45.589L137.971,45.589C137.569,45.589 137.256,45.603 137.033,45.63C136.81,45.657 136.628,45.732 136.485,45.853C136.342,45.974 136.271,46.166 136.271,46.427C136.271,46.95 136.451,47.295 136.81,47.461C137.169,47.627 137.685,47.71 138.357,47.71L140.519,47.71C140.851,47.71 141.102,47.785 141.272,47.936C141.442,48.087 141.527,48.285 141.527,48.531C141.527,48.773 141.442,48.971 141.272,49.126C141.102,49.281 140.851,49.357 140.519,49.357L135.943,49.357C135.642,49.357 135.414,49.288 135.257,49.149C135.1,49.01 135.023,48.828 135.023,48.601C135.023,48.382 135.096,48.2 135.243,48.053C135.39,47.906 135.592,47.833 135.849,47.833L136.001,47.833C135.669,47.556 135.425,47.259 135.269,46.942C135.113,46.625 135.035,46.274 135.035,45.887C135.035,45.485 135.115,45.139 135.275,44.85C135.435,44.561 135.677,44.323 136.002,44.135C135.674,43.865 135.431,43.576 135.273,43.268C135.115,42.96 135.036,42.618 135.036,42.243C135.036,41.805 135.122,41.429 135.294,41.112C135.466,40.795 135.712,40.559 136.032,40.403C136.321,40.266 136.776,40.198 137.397,40.198L140.52,40.198C140.856,40.198 141.108,40.274 141.276,40.427C141.444,40.58 141.528,40.781 141.528,41.031C141.528,41.273 141.443,41.471 141.273,41.626C141.103,41.781 140.852,41.857 140.52,41.857L137.831,41.857C137.487,41.857 137.212,41.872 137.005,41.901C136.798,41.93 136.624,42.009 136.484,42.138C136.344,42.267 136.273,42.462 136.273,42.724C136.273,42.935 136.336,43.135 136.461,43.325C136.586,43.515 136.754,43.662 136.965,43.767C137.233,43.883 137.709,43.941 138.393,43.941Z" style="fill-rule:nonzero;"/>
        </g>
    </g>
</svg>
