<?xml version="1.0" encoding="UTF-8" standalone="no"?>
<!DOCTYPE svg PUBLIC "-//W3C//DTD SVG 1.1//EN" "http://www.w3.org/Graphics/SVG/1.1/DTD/svg11.dtd">
<svg width="100%" height="100%" viewBox="0 0 400 286" version="1.1" xmlns="http://www.w3.org/2000/svg" xmlns:xlink="http://www.w3.org/1999/xlink" xml:space="preserve" xmlns:serif="http://www.serif.com/" style="fill-rule:evenodd;clip-rule:evenodd;stroke-linecap:round;stroke-linejoin:round;stroke-miterlimit:10;">
    <g id="INSERT_13_" transform="matrix(2.01005,0,0,2.01005,0,0)">
        <path id="LWPOLYLINE_5867_" d="M95.531,48.125L94.413,48.589L93.347,49.352L92.394,50.368L91.61,51.581L91.041,52.919L90.72,54.305L90.665,55.657L90.88,56.898L91.352,57.955L92.053,58.767L92.943,59.286L93.971,59.482L95.076,59.346L96.194,58.883L97.261,58.12L98.213,57.103L98.997,55.89" style="fill:none;stroke:rgb(18,16,11);stroke-width:0.71px;"/>
        <path id="LWPOLYLINE_5866_" d="M99.566,54.552L99.887,53.166L99.942,51.813L99.728,50.573L99.256,49.516L98.554,48.704L97.664,48.185L96.636,47.988L95.531,48.125" style="fill:none;stroke:rgb(18,16,11);stroke-width:0.71px;"/>
        <path id="LWPOLYLINE_5865_" d="M95.933,48.952L96.915,48.83L97.829,49.005L98.621,49.467L99.244,50.188L99.664,51.129L99.854,52.231L99.806,53.434L99.521,54.666L99.015,55.855L98.317,56.934L97.471,57.838L96.522,58.517L95.528,58.928L94.546,59.05L93.632,58.875L92.841,58.413L92.217,57.691L91.798,56.752L91.606,55.648L91.655,54.446L91.941,53.215L92.447,52.024L93.144,50.946L93.99,50.042L94.938,49.364L95.933,48.952Z" style="fill:none;stroke:rgb(18,16,11);stroke-width:0.71px;"/>
        <path id="LINE_4768_" d="M93.581,55.963L93.699,53.047" style="fill:none;stroke:rgb(18,16,11);stroke-width:0.71px;"/>
        <path id="LINE_4767_" d="M93.699,53.047L95.849,51.025" style="fill:none;stroke:rgb(18,16,11);stroke-width:0.71px;"/>
        <path id="LINE_4766_" d="M97.88,51.918L97.762,54.833" style="fill:none;stroke:rgb(18,16,11);stroke-width:0.71px;"/>
        <path id="LINE_4765_" d="M95.612,56.855L93.581,55.963" style="fill:none;stroke:rgb(18,16,11);stroke-width:0.71px;"/>
        <path id="LINE_4764_" d="M95.849,51.025L97.88,51.918" style="fill:none;stroke:rgb(18,16,11);stroke-width:0.71px;"/>
        <path id="LINE_4763_" d="M97.762,54.833L95.612,56.855" style="fill:none;stroke:rgb(18,16,11);stroke-width:0.71px;"/>
        <path id="LWPOLYLINE_5864_" d="M87.587,56.15L88.288,56.963L89.179,57.482" style="fill:none;stroke:rgb(18,16,11);stroke-width:0.71px;"/>
        <path id="LWPOLYLINE_5863_" d="M93.898,46.381L92.871,46.184L91.767,46.321L90.648,46.784L89.581,47.547L88.629,48.564L87.846,49.777L87.276,51.115L86.955,52.501L86.9,53.854L87.115,55.094L87.587,56.15" style="fill:none;stroke:rgb(18,16,11);stroke-width:0.71px;"/>
        <path id="LINE_4762_" d="M95.612,56.855L94.188,56.173" style="fill:none;stroke:rgb(18,16,11);stroke-width:0.71px;"/>
        <path id="LINE_4761_" d="M94.188,56.173L93.584,55.907" style="fill:none;stroke:rgb(18,16,11);stroke-width:0.71px;"/>
        <path id="LINE_4760_" d="M94.188,56.173L96.338,54.151" style="fill:none;stroke:rgb(18,16,11);stroke-width:0.71px;"/>
        <path id="LINE_4759_" d="M96.338,54.151L96.454,51.291" style="fill:none;stroke:rgb(18,16,11);stroke-width:0.71px;"/>
        <path id="LINE_4758_" d="M97.762,54.833L96.338,54.151" style="fill:none;stroke:rgb(18,16,11);stroke-width:0.71px;"/>
        <path id="LINE_4757_" d="M82.916,39.727L82.865,39.611" style="fill:none;stroke:rgb(18,16,11);stroke-width:0.71px;"/>
        <path id="LWPOLYLINE_5862_" d="M82.625,39.066L82.569,38.941L82.633,38.809" style="fill:none;stroke:rgb(18,16,11);stroke-width:0.71px;"/>
        <path id="LWPOLYLINE_5861_" d="M88.133,41.555L88.125,41.555L88.113,41.553" style="fill:none;stroke:rgb(18,16,11);stroke-width:0.71px;"/>
        <path id="LWPOLYLINE_5860_" d="M85.954,41.191L85.938,41.188L85.273,41.005" style="fill:none;stroke:rgb(18,16,11);stroke-width:0.71px;"/>
        <path id="LINE_4756_" d="M85.211,52.809L85.223,52.604" style="fill:none;stroke:rgb(18,16,11);stroke-width:0.71px;"/>
        <path id="LINE_4755_" d="M85.617,45.477L85.727,43.499" style="fill:none;stroke:rgb(18,16,11);stroke-width:0.71px;"/>
        <path id="LWPOLYLINE_5859_" d="M82.635,62.71L83.15,62.525L83.415,62.362L83.648,62.219L84.096,61.802L84.47,61.28" style="fill:none;stroke:rgb(18,16,11);stroke-width:0.71px;"/>
        <path id="LINE_4754_" d="M84.742,54.684L85.211,52.809" style="fill:none;stroke:rgb(18,16,11);stroke-width:0.71px;"/>
        <path id="LWPOLYLINE_5858_" d="M83.283,51.674L83.246,51.669L83.211,51.64" style="fill:none;stroke:rgb(18,16,11);stroke-width:0.71px;"/>
        <path id="LWPOLYLINE_5857_" d="M82.443,51.002L82.432,50.993L82.164,50.492L82.11,50.292" style="fill:none;stroke:rgb(18,16,11);stroke-width:0.71px;"/>
        <path id="LWPOLYLINE_5856_" d="M82.062,50.111L82.008,49.911L81.967,49.274L82.044,48.609L82.11,48.382" style="fill:none;stroke:rgb(18,16,11);stroke-width:0.71px;"/>
        <path id="LWPOLYLINE_5855_" d="M82.171,48.175L82.237,47.947L82.537,47.314L82.93,46.74L83.092,46.572" style="fill:none;stroke:rgb(18,16,11);stroke-width:0.71px;"/>
        <path id="LWPOLYLINE_5854_" d="M83.238,46.418L83.4,46.25L83.588,46.137" style="fill:none;stroke:rgb(18,16,11);stroke-width:0.71px;"/>
        <path id="LWPOLYLINE_5853_" d="M84.297,45.711L84.484,45.599L84.602,45.586" style="fill:none;stroke:rgb(18,16,11);stroke-width:0.71px;"/>
        <path id="LWPOLYLINE_5852_" d="M85.587,45.476L85.603,45.474L85.617,45.477" style="fill:none;stroke:rgb(18,16,11);stroke-width:0.71px;"/>
        <path id="LINE_4753_" d="M78.201,63.739L82.635,62.71" style="fill:none;stroke:rgb(18,16,11);stroke-width:0.71px;"/>
        <path id="LINE_4752_" d="M84.837,54.656L84.742,54.684" style="fill:none;stroke:rgb(18,16,11);stroke-width:0.71px;"/>
        <path id="LWPOLYLINE_5851_" d="M76.848,64.053L77.583,63.883L78.201,63.739" style="fill:none;stroke:rgb(18,16,11);stroke-width:0.71px;"/>
        <path id="LWPOLYLINE_5850_" d="M85.727,43.499L85.719,43.374L85.682,43.252L85.53,43.024L85.298,42.85L85.118,42.775" style="fill:none;stroke:rgb(18,16,11);stroke-width:0.71px;"/>
        <path id="LINE_4751_" d="M85.118,42.775L87.265,42.231" style="fill:none;stroke:rgb(18,16,11);stroke-width:0.71px;"/>
        <path id="LINE_4750_" d="M75.111,63.53L75.914,63.966" style="fill:none;stroke:rgb(18,16,11);stroke-width:0.71px;"/>
        <path id="LWPOLYLINE_5849_" d="M76.012,64.009L76.026,64.014L76.105,64.038L76.197,64.054L76.35,64.08L76.555,64.084L76.61,64.085L76.749,64.066L76.848,64.053" style="fill:none;stroke:rgb(18,16,11);stroke-width:0.71px;"/>
        <path id="LINE_4749_" d="M75.914,63.966L76.012,64.009" style="fill:none;stroke:rgb(18,16,11);stroke-width:0.71px;"/>
        <path id="LWPOLYLINE_5848_" d="M76.012,46.252L76.011,46.297L76.031,46.342L76.074,46.385L76.137,46.427" style="fill:none;stroke:rgb(18,16,11);stroke-width:0.71px;"/>
        <path id="LWPOLYLINE_5847_" d="M75.26,65.235L75.225,64.988L75.109,64.756L74.934,64.575L74.723,64.471" style="fill:none;stroke:rgb(18,16,11);stroke-width:0.71px;"/>
        <path id="LWPOLYLINE_5846_" d="M70,60.646L71.723,60.933L73.231,61.4L74.338,62L74.939,62.678L74.988,63.352" style="fill:none;stroke:rgb(18,16,11);stroke-width:0.71px;"/>
        <path id="LWPOLYLINE_5846_1" serif:id="LWPOLYLINE_5846_" d="M69.593,66.885L71.4,66.867L72.908,67.334L74.015,67.934L74.616,68.612L74.665,69.286" style="fill:none;stroke:rgb(18,16,11);stroke-width:0.71px;"/>
        <path id="LWPOLYLINE_5845_" d="M74.988,63.352L75.004,63.443L75.111,63.53" style="fill:none;stroke:rgb(18,16,11);stroke-width:0.71px;"/>
        <path id="LINE_4747_" d="M75.162,69.192L75.26,65.235" style="fill:none;stroke:rgb(18,16,11);stroke-width:0.71px;"/>
        <path id="LINE_4747_1" serif:id="LINE_4747_" d="M74.367,69.598L74.499,64.592" style="fill:none;stroke:rgb(18,16,11);stroke-width:0.71px;"/>
        <path id="LINE_4747_2" serif:id="LINE_4747_" d="M69.599,66.808L69.748,60.872" style="fill:none;stroke:rgb(18,16,11);stroke-width:0.71px;"/>
        <path id="LWPOLYLINE_5844_" d="M70,60.646L69.791,60.61L69.772,60.604L69.619,60.551L69.589,60.535" style="fill:none;stroke:rgb(18,16,11);stroke-width:0.71px;"/>
        <path id="LINE_4746_" d="M69.589,60.535L68.852,60.135" style="fill:none;stroke:rgb(18,16,11);stroke-width:0.71px;"/>
        <path id="LINE_4746_1" serif:id="LINE_4746_" d="M69.488,66.893L68.751,66.493" style="fill:none;stroke:rgb(18,16,11);stroke-width:0.71px;"/>
        <path id="LWPOLYLINE_5842_" d="M68.852,60.135L68.742,60.045" style="fill:none;stroke:rgb(18,16,11);stroke-width:0.71px;"/>
        <path id="LWPOLYLINE_5841_" d="M74.794,69.684L74.983,69.596L75.113,69.423L75.162,69.192" style="fill:none;stroke:rgb(18,16,11);stroke-width:0.71px;"/>
        <path id="LINE_4745_" d="M83.013,41.915L82.657,41.928" style="fill:none;stroke:rgb(18,16,11);stroke-width:0.71px;"/>
        <path id="LINE_4744_" d="M85.894,45.588L85.75,45.521" style="fill:none;stroke:rgb(18,16,11);stroke-width:0.71px;"/>
        <path id="LINE_4743_" d="M85.75,45.521L85.617,45.477" style="fill:none;stroke:rgb(18,16,11);stroke-width:0.71px;"/>
        <path id="LWPOLYLINE_5840_" d="M90.209,43.841L90.209,43.878L90.228,44.004L90.276,44.121L90.459,44.324" style="fill:none;stroke:rgb(18,16,11);stroke-width:0.71px;"/>
        <path id="LINE_4742_" d="M78.875,39.072L78.676,38.677" style="fill:none;stroke:rgb(18,16,11);stroke-width:0.71px;"/>
        <path id="LWPOLYLINE_5839_" d="M78.676,38.677L78.637,38.543L78.631,38.447L78.635,38.328L78.636,38.294" style="fill:none;stroke:rgb(18,16,11);stroke-width:0.71px;"/>
        <path id="LWPOLYLINE_5838_" d="M90.459,44.324L91.409,45.193L91.936,45.913L92.108,46.278" style="fill:none;stroke:rgb(18,16,11);stroke-width:0.71px;"/>
        <path id="LWPOLYLINE_5837_" d="M87.019,54.539L86.535,54.607L85.43,54.591" style="fill:none;stroke:rgb(18,16,11);stroke-width:0.71px;"/>
        <path id="LWPOLYLINE_5836_" d="M74.938,60.688L74.936,60.713L74.917,61.022L74.918,61.029" style="fill:none;stroke:rgb(18,16,11);stroke-width:0.71px;"/>
        <path id="LWPOLYLINE_5835_" d="M80.947,64.811L83.627,65.258L84.791,65.38L86.423,65.552L88.794,65.664L89.268,65.687L92.092,65.659L92.776,65.611L94.83,65.469L96.555,65.237L97.416,65.121L99.786,64.625L99.961,64.572L101.885,63.99L102.773,63.612L103.662,63.234L104.957,62.445L105.074,62.374" style="fill:none;stroke:rgb(18,16,11);stroke-width:0.71px;"/>
        <path id="LWPOLYLINE_5834_" d="M105.074,62.374L106.088,61.431L106.679,60.426L106.794,59.645L106.833,59.385" style="fill:none;stroke:rgb(18,16,11);stroke-width:0.71px;"/>
        <path id="LWPOLYLINE_5833_" d="M100.17,53.821L100.842,54.051L102.652,54.873L104.122,55.776L105.218,56.74L105.912,57.742L106.188,58.756L106.04,59.759L105.471,60.727L104.494,61.635L103.133,62.465L101.421,63.193L99.398,63.805L97.114,64.283L94.623,64.618L91.984,64.802L89.263,64.828L86.521,64.698L83.828,64.414L81.245,63.983" style="fill:none;stroke:rgb(18,16,11);stroke-width:0.71px;"/>
        <path id="LWPOLYLINE_5832_" d="M81.245,63.983L81.142,64.108L81.047,64.311L80.979,64.557L80.947,64.811" style="fill:none;stroke:rgb(18,16,11);stroke-width:0.71px;"/>
        <path id="LINE_4741_" d="M80.947,64.811L80.757,68.774" style="fill:none;stroke:rgb(18,16,11);stroke-width:0.71px;"/>
        <path id="LWPOLYLINE_5831_" d="M78.636,38.294L78.687,38.104L78.697,38.087L78.715,38.063L78.799,37.936L78.869,37.877L78.885,37.864L78.965,37.798L79.115,37.73L79.125,37.726L79.186,37.699L79.396,37.665L79.404,37.664" style="fill:none;stroke:rgb(18,16,11);stroke-width:0.71px;"/>
        <path id="LWPOLYLINE_5830_" d="M90.52,42.991L90.437,43.091L90.413,43.135L90.409,43.143L90.35,43.253L90.316,43.343L90.311,43.36L90.281,43.438L90.246,43.589L90.238,43.618L90.233,43.638L90.209,43.841" style="fill:none;stroke:rgb(18,16,11);stroke-width:0.71px;"/>
        <path id="LWPOLYLINE_5829_" d="M88.365,43.32L89.324,44.662L89.769,46.457L89.716,47.357" style="fill:none;stroke:rgb(18,16,11);stroke-width:0.71px;"/>
        <path id="LWPOLYLINE_5828_" d="M86.839,53.379L86.341,53.856L84.742,54.684" style="fill:none;stroke:rgb(18,16,11);stroke-width:0.71px;"/>
        <path id="LWPOLYLINE_5827_" d="M84.837,54.656L85.022,54.614L85.041,54.609L85.226,54.592L85.266,54.588L85.43,54.591" style="fill:none;stroke:rgb(18,16,11);stroke-width:0.71px;"/>
        <path id="LWPOLYLINE_5826_" d="M88.365,43.32L88.255,43.152L88.219,42.924L88.22,42.909" style="fill:none;stroke:rgb(18,16,11);stroke-width:0.71px;"/>
        <path id="LINE_4740_" d="M85.897,43.536L85.75,45.521" style="fill:none;stroke:rgb(18,16,11);stroke-width:0.71px;"/>
        <path id="LINE_4739_" d="M85.227,52.605L85.211,52.809" style="fill:none;stroke:rgb(18,16,11);stroke-width:0.71px;"/>
        <path id="LWPOLYLINE_5825_" d="M88.22,42.909L88.225,42.799L88.233,42.68L88.234,42.658L88.255,42.438L88.263,42.38L88.283,42.211L88.297,42.14L88.314,42.042L88.333,41.943" style="fill:none;stroke:rgb(18,16,11);stroke-width:0.71px;"/>
        <path id="LWPOLYLINE_5824_" d="M85.118,42.775L85.353,42.824L85.577,42.941L85.758,43.113L85.869,43.319L85.897,43.536" style="fill:none;stroke:rgb(18,16,11);stroke-width:0.71px;"/>
        <path id="LWPOLYLINE_5823_" d="M80.757,68.774L80.767,69.001L80.817,69.16L80.9,69.228" style="fill:none;stroke:rgb(18,16,11);stroke-width:0.71px;"/>
        <path id="LINE_4738_" d="M73.18,58.933L75.069,58.494" style="fill:none;stroke:rgb(18,16,11);stroke-width:0.71px;"/>
        <path id="LWPOLYLINE_5822_" d="M73.882,42.348L73.77,42.38L73.658,42.423" style="fill:none;stroke:rgb(18,16,11);stroke-width:0.71px;"/>
        <path id="LINE_4737_" d="M79.415,42.681L79.487,41.047" style="fill:none;stroke:rgb(18,16,11);stroke-width:0.71px;"/>
        <path id="LINE_4736_" d="M73.006,59.003L73.18,58.933" style="fill:none;stroke:rgb(18,16,11);stroke-width:0.71px;"/>
        <path id="LWPOLYLINE_5821_" d="M79.487,41.047L79.496,40.92L79.509,40.785L79.549,40.513L79.603,40.271L79.66,40.097" style="fill:none;stroke:rgb(18,16,11);stroke-width:0.71px;"/>
        <path id="LWPOLYLINE_5820_" d="M78.293,64.597L78.293,64.342L78.276,64.09L78.244,63.879L78.201,63.739" style="fill:none;stroke:rgb(18,16,11);stroke-width:0.71px;"/>
        <path id="LWPOLYLINE_5819_" d="M72.229,59.57L72.472,59.376L72.491,59.36L72.584,59.286L72.721,59.189L72.758,59.163L72.818,59.12L73.006,59.003" style="fill:none;stroke:rgb(18,16,11);stroke-width:0.71px;"/>
        <path id="LWPOLYLINE_5818_" d="M85.117,60.256L85.11,60.267L84.893,60.6L84.885,60.612L84.809,60.729L84.678,60.941L84.625,61.028L84.47,61.28" style="fill:none;stroke:rgb(18,16,11);stroke-width:0.71px;"/>
        <path id="LWPOLYLINE_5817_" d="M82.516,41.646L82.16,41.659L81.854,41.764L81.848,41.766L81.643,41.941L81.637,41.949L81.58,42.056L81.557,42.169" style="fill:none;stroke:rgb(18,16,11);stroke-width:0.71px;"/>
        <path id="LINE_4735_" d="M81.557,42.18L81.556,42.184" style="fill:none;stroke:rgb(18,16,11);stroke-width:0.71px;"/>
        <path id="LINE_4734_" d="M81.557,42.169L81.557,42.18" style="fill:none;stroke:rgb(18,16,11);stroke-width:0.71px;"/>
        <path id="LINE_4733_" d="M85.273,41.005L85.061,40.985" style="fill:none;stroke:rgb(18,16,11);stroke-width:0.71px;"/>
        <path id="LWPOLYLINE_5816_" d="M82.916,39.727L82.981,39.834L83.004,39.869L83.081,40.084L83.132,40.338L83.144,40.594" style="fill:none;stroke:rgb(18,16,11);stroke-width:0.71px;"/>
        <path id="LINE_4732_" d="M83.144,40.594L83.109,41.438" style="fill:none;stroke:rgb(18,16,11);stroke-width:0.71px;"/>
        <path id="LWPOLYLINE_5815_" d="M68.732,59.948L68.737,59.994L68.742,60.045" style="fill:none;stroke:rgb(18,16,11);stroke-width:0.71px;"/>
        <path id="LINE_4731_" d="M73.682,40.475L73.649,40.56" style="fill:none;stroke:rgb(18,16,11);stroke-width:0.71px;"/>
        <path id="LWPOLYLINE_5814_" d="M81.192,38.521L80.83,38.544" style="fill:none;stroke:rgb(18,16,11);stroke-width:0.71px;"/>
        <path id="LINE_4730_" d="M73.199,40.344L73.24,40.265" style="fill:none;stroke:rgb(18,16,11);stroke-width:0.71px;"/>
        <path id="LINE_4729_" d="M79.984,41.327L79.915,42.564" style="fill:none;stroke:rgb(18,16,11);stroke-width:0.71px;"/>
        <path id="LINE_4728_" d="M79.984,41.316L79.984,41.327" style="fill:none;stroke:rgb(18,16,11);stroke-width:0.71px;"/>
        <path id="LWPOLYLINE_5813_" d="M80.158,40.366L80.1,40.541L80.047,40.783L80.045,40.788L80.006,41.055L80.005,41.063L79.992,41.193L79.984,41.316" style="fill:none;stroke:rgb(18,16,11);stroke-width:0.71px;"/>
        <path id="LWPOLYLINE_5812_" d="M69.545,38.179L70.225,37.494L70.572,37.102L70.9,36.704L71.256,36.238" style="fill:none;stroke:rgb(18,16,11);stroke-width:0.71px;"/>
        <path id="LINE_4727_" d="M71.256,36.238L71.59,35.768" style="fill:none;stroke:rgb(18,16,11);stroke-width:0.71px;"/>
        <path id="LINE_4726_" d="M71.59,35.768L69.039,34.545" style="fill:none;stroke:rgb(18,16,11);stroke-width:0.71px;"/>
        <path id="LINE_4725_" d="M64.263,39.039L66.813,40.26" style="fill:none;stroke:rgb(18,16,11);stroke-width:0.71px;"/>
        <path id="LWPOLYLINE_5811_" d="M69.039,34.545L68.483,34.91L67.943,35.287L67.49,35.625L67.051,35.974L66.307,36.627" style="fill:none;stroke:rgb(18,16,11);stroke-width:0.71px;"/>
        <path id="LWPOLYLINE_5810_" d="M66.307,36.627L65.628,37.313L65.279,37.704L64.952,38.102L64.596,38.567L64.263,39.039" style="fill:none;stroke:rgb(18,16,11);stroke-width:0.71px;"/>
        <path id="LINE_4724_" d="M66.813,40.26L67.369,39.896" style="fill:none;stroke:rgb(18,16,11);stroke-width:0.71px;"/>
        <path id="LWPOLYLINE_5809_" d="M67.369,39.896L67.908,39.519L68.362,39.182L68.801,38.833L69.545,38.179" style="fill:none;stroke:rgb(18,16,11);stroke-width:0.71px;"/>
        <path id="LWPOLYLINE_5808_" d="M69.545,38.179L68.875,38.9L68.266,39.754L67.762,40.691L67.38,41.683L67.131,42.695L67.025,43.665" style="fill:none;stroke:rgb(18,16,11);stroke-width:0.71px;"/>
        <path id="LWPOLYLINE_5807_" d="M67.025,43.665L67.055,44.598L67.225,45.498L67.534,46.302L67.972,46.984L68.525,47.525L69.15,47.896" style="fill:none;stroke:rgb(18,16,11);stroke-width:0.71px;"/>
        <path id="LINE_4723_" d="M69.15,47.896L69.531,48.012" style="fill:none;stroke:rgb(18,16,11);stroke-width:0.71px;"/>
        <path id="LWPOLYLINE_5806_" d="M69.523,42.99L69.632,42.269L69.891,41.559L70.282,40.911L70.776,40.375L71.337,39.99L71.922,39.784L72.488,39.773L72.994,39.958L73.402,40.324L73.414,40.348" style="fill:none;stroke:rgb(18,16,11);stroke-width:0.71px;"/>
        <path id="LWPOLYLINE_5805_" d="M69.783,44.254L69.575,43.668L69.523,42.99" style="fill:none;stroke:rgb(18,16,11);stroke-width:0.71px;"/>
        <path id="LWPOLYLINE_5804_" d="M76.205,39.793L76.116,39.322L75.807,38.519L75.369,37.836L74.816,37.295L74.189,36.924" style="fill:none;stroke:rgb(18,16,11);stroke-width:0.71px;"/>
        <path id="LWPOLYLINE_5803_" d="M74.189,36.924L73.49,36.712L72.711,36.667L71.898,36.8L71.078,37.107L70.277,37.58L69.545,38.179" style="fill:none;stroke:rgb(18,16,11);stroke-width:0.71px;"/>
        <path id="LWPOLYLINE_5802_" d="M66.813,40.26L66.899,40.916L66.967,41.568L67.008,42.127L67.032,42.684L67.025,43.665" style="fill:none;stroke:rgb(18,16,11);stroke-width:0.71px;"/>
        <path id="LINE_4722_" d="M64,45.517L66.551,46.739" style="fill:none;stroke:rgb(18,16,11);stroke-width:0.71px;"/>
        <path id="LWPOLYLINE_5801_" d="M64.263,39.039L64.127,39.588L64.01,40.152L63.926,40.65L63.859,41.164L63.787,42.113" style="fill:none;stroke:rgb(18,16,11);stroke-width:0.71px;"/>
        <path id="LWPOLYLINE_5800_" d="M63.787,42.113L63.781,43.094L63.805,43.648L63.846,44.209L63.914,44.862L64,45.517" style="fill:none;stroke:rgb(18,16,11);stroke-width:0.71px;"/>
        <path id="LWPOLYLINE_5799_" d="M66.551,46.739L66.686,46.19L66.803,45.626L66.887,45.125L66.953,44.614L67.025,43.665" style="fill:none;stroke:rgb(18,16,11);stroke-width:0.71px;"/>
        <path id="LWPOLYLINE_5798_" d="M74.189,36.924L73.484,36.613L73.068,36.428L72.636,36.235L72.121,36.005L71.59,35.768" style="fill:none;stroke:rgb(18,16,11);stroke-width:0.71px;"/>
        <path id="LWPOLYLINE_5797_" d="M66.551,46.739L67.081,46.977L67.597,47.207L68.029,47.399L68.445,47.585L69.15,47.896" style="fill:none;stroke:rgb(18,16,11);stroke-width:0.71px;"/>
        <path id="LWPOLYLINE_5796_" d="M70.545,40.626L70.545,40.637L70.359,41.359L70.031,42.045L69.584,42.642L69.574,42.649" style="fill:none;stroke:rgb(18,16,11);stroke-width:0.71px;"/>
        <path id="LINE_4721_" d="M76.104,37.752L73.553,36.529" style="fill:none;stroke:rgb(18,16,11);stroke-width:0.71px;"/>
        <path id="LWPOLYLINE_5795_" d="M70.951,35.372L70.313,35.093L69.985,34.95L69.68,34.818L69.348,34.677L69.039,34.545" style="fill:none;stroke:rgb(18,16,11);stroke-width:0.71px;"/>
        <path id="LWPOLYLINE_5794_" d="M74.189,36.924L74.83,37.204L75.156,37.346L75.463,37.479L75.793,37.62L76.104,37.752" style="fill:none;stroke:rgb(18,16,11);stroke-width:0.71px;"/>
        <path id="LWPOLYLINE_5793_" d="M73.553,36.529L73.021,36.291L72.506,36.062L72.074,35.869L71.656,35.684L70.951,35.372" style="fill:none;stroke:rgb(18,16,11);stroke-width:0.71px;"/>
        <path id="LWPOLYLINE_5792_" d="M76.305,39.767L76.299,39.617L76.257,39.06L76.189,38.406L76.104,37.752" style="fill:none;stroke:rgb(18,16,11);stroke-width:0.71px;"/>
        <path id="LINE_4720_" d="M69.15,47.896L69.528,48.061" style="fill:none;stroke:rgb(18,16,11);stroke-width:0.71px;"/>
        <path id="LWPOLYLINE_5791_" d="M91.469,74.4L91.504,74.338L91.552,74.089" style="fill:none;stroke:rgb(18,16,11);stroke-width:0.71px;"/>
        <path id="LWPOLYLINE_5790_" d="M87.088,75.258L87.794,75.309L87.979,75.314" style="fill:none;stroke:rgb(18,16,11);stroke-width:0.71px;"/>
        <path id="LWPOLYLINE_5789_" d="M84.193,73.939L84.219,74.06L84.492,74.424L85.04,74.756L85.816,75.027L86.761,75.217L87.088,75.258" style="fill:none;stroke:rgb(18,16,11);stroke-width:0.71px;"/>
        <path id="LWPOLYLINE_5788_" d="M87.979,75.314L88.834,75.296L89.796,75.18L90.603,74.968L91.188,74.68L91.469,74.4" style="fill:none;stroke:rgb(18,16,11);stroke-width:0.71px;"/>
        <path id="LINE_4719_" d="M87.088,75.258L87.492,75.441" style="fill:none;stroke:rgb(18,16,11);stroke-width:0.71px;"/>
        <path id="LINE_4718_" d="M87.492,75.441L87.979,75.314" style="fill:none;stroke:rgb(18,16,11);stroke-width:0.71px;"/>
        <path id="LINE_4717_" d="M83.789,73.755L83.203,90.457" style="fill:none;stroke:rgb(18,16,11);stroke-width:0.71px;"/>
        <path id="LINE_4716_" d="M83.203,90.457L86.907,92.145" style="fill:none;stroke:rgb(18,16,11);stroke-width:0.71px;"/>
        <path id="LINE_4715_" d="M86.907,92.145L87.492,75.441" style="fill:none;stroke:rgb(18,16,11);stroke-width:0.71px;"/>
        <path id="LINE_4714_" d="M86.907,92.145L91.371,90.976" style="fill:none;stroke:rgb(18,16,11);stroke-width:0.71px;"/>
        <path id="LINE_4713_" d="M91.371,90.976L91.956,74.273" style="fill:none;stroke:rgb(18,16,11);stroke-width:0.71px;"/>
        <path id="LINE_4712_" d="M91.956,74.273L91.469,74.4" style="fill:none;stroke:rgb(18,16,11);stroke-width:0.71px;"/>
        <path id="LINE_4711_" d="M91.956,74.273L91.552,74.089" style="fill:none;stroke:rgb(18,16,11);stroke-width:0.71px;"/>
        <path id="LINE_4710_" d="M84.204,73.646L83.789,73.755" style="fill:none;stroke:rgb(18,16,11);stroke-width:0.71px;"/>
        <path id="LWPOLYLINE_5787_" d="M74.131,127.781L74.1,127.804L73.641,128.258L73.564,128.369L73.357,128.669" style="fill:none;stroke:rgb(18,16,11);stroke-width:0.71px;"/>
        <path id="LWPOLYLINE_5786_" d="M77.301,130.004L76.941,129.807L76.906,129.787L76.367,129.408L76.289,129.329L75.986,129.02L75.98,129.013L75.947,128.953" style="fill:none;stroke:rgb(18,16,11);stroke-width:0.71px;"/>
        <path id="LWPOLYLINE_5785_" d="M87.635,113.457L87.414,113.446L86.688,113.396L86.12,113.355L84.845,113.212L84.775,113.201L83.799,113.051L82.988,112.891L82.6,112.813L81.457,112.529L81.354,112.498L80.672,112.293L79.928,112.025L79.711,111.947L78.863,111.567L78.73,111.495L78.285,111.25L77.799,110.917L77.679,110.834L77.197,110.395L77.132,110.313L76.923,110.051L76.744,109.699L76.691,109.596L76.607,109.141" style="fill:none;stroke:rgb(18,16,11);stroke-width:0.71px;"/>
        <path id="LWPOLYLINE_5784_" d="M73.357,128.669L73.39,129.045L73.411,129.3L73.426,129.465L73.584,129.693L73.856,130.088L73.967,130.247L74.076,130.329L74.729,130.82L74.883,130.936L74.967,130.999L75.596,131.334L75.982,131.485L76.064,131.517L77.205,131.964L77.29,131.985L77.771,132.111L78.859,132.396L79.133,132.467L79.775,132.575L80.601,132.713L81.38,132.844L81.73,132.874L82.453,132.938L83.799,133.056L84.159,133.061L84.381,133.063L86.26,133.085L86.349,133.079L86.606,133.063L88.301,132.952L88.668,132.929L88.966,132.886L90.176,132.711L90.966,132.597L91.245,132.53L91.937,132.365L93.091,132.091L93.335,132.004L93.553,131.927L94.639,131.542L94.945,131.382L95.058,131.323L96.093,130.783L96.125,130.757L96.25,130.655L96.991,130.05L97.164,129.908L97.259,129.763L97.565,129.293L97.797,128.94L97.842,128.788L97.901,128.587L97.897,128.509L97.864,127.789L97.86,127.699L97.854,127.592L97.551,127.018" style="fill:none;stroke:rgb(18,16,11);stroke-width:0.71px;"/>
        <path id="LWPOLYLINE_5783_" d="M74.184,124.435L74.119,124.496L74.1,124.516L73.736,124.862L73.597,125.114L73.569,125.163L73.559,125.259L73.508,125.751L73.487,125.955L73.537,126.053L73.713,126.393L73.893,126.741L74,126.836L74.215,127.024L74.766,127.509L74.781,127.522L74.989,127.635L76.044,128.202L76.088,128.226L76.111,128.238L77.395,128.693L77.787,128.832L77.816,128.843L78.935,129.112L79.538,129.259L79.779,129.297L80.664,129.436L81.771,129.61L82.032,129.631L82.509,129.668L84.194,129.801L84.436,129.802L84.462,129.802L86.407,129.808L86.65,129.809L86.911,129.797L87.271,129.78L88.35,129.681L89.315,129.591L89.648,129.56L90.236,129.456L91.587,129.219L91.904,129.163L92.028,129.13L93.649,128.688L93.662,128.685L93.7,128.674" style="fill:none;stroke:rgb(18,16,11);stroke-width:0.71px;"/>
        <path id="LWPOLYLINE_5782_" d="M93.7,128.674L95.029,128.135L95.095,128.108L95.398,127.985L96.177,127.504L96.463,127.327L96.7,127.181L97.069,126.807L97.441,126.43L97.605,126.264L97.728,126.062L97.832,125.891L97.939,125.449L97.983,125.269L98.075,124.893L97.994,124.576L97.965,124.464L97.82,123.899L97.69,123.725" style="fill:none;stroke:rgb(18,16,11);stroke-width:0.71px;"/>
        <path id="LWPOLYLINE_5781_" d="M74.273,121.146L74.238,121.181L73.994,121.432L73.798,121.828L73.736,121.952L73.607,122.212L73.645,122.457L73.688,122.744L73.727,123.006L73.799,123.1L74.125,123.525L74.287,123.737L74.338,123.804L75.026,124.289L75.103,124.344L75.406,124.558L76.171,124.903L76.376,124.996L76.9,125.233L77.465,125.408L78.074,125.596L78.438,125.709L79.004,125.828L80.117,126.063L80.496,126.143L80.709,126.17L82.39,126.382L82.563,126.404L82.816,126.436L84.5,126.521L84.825,126.536L85.27,126.559L86.033,126.559L86.459,126.538L86.864,126.518L88.417,126.441L89.226,126.34L90.306,126.203L90.74,126.148L91.51,125.987L92.083,125.868L92.643,125.751L93.583,125.454L93.687,125.422L94.569,125.143L95.101,124.888L95.126,124.875L96.102,124.407L96.288,124.269L96.515,124.101L97.222,123.576L97.249,123.556L97.564,123.218L97.583,123.198L97.793,122.818L98.114,122.238L98.125,122.219L98.132,122.035L98.159,121.244L98.16,121.227L98.16,121.215L97.824,120.481" style="fill:none;stroke:rgb(18,16,11);stroke-width:0.71px;"/>
        <path id="LWPOLYLINE_5780_" d="M74.439,117.892L74.402,117.933L74.365,117.975L73.916,118.465L73.9,118.531L73.85,118.741L73.75,119.165L73.729,119.258L73.836,119.533L73.945,119.808L74.041,120.053L74.318,120.328L74.434,120.441L74.821,120.827L75.2,121.051L75.264,121.089L76.06,121.559L76.222,121.623L76.641,121.79L77.447,122.11L77.52,122.13L78.084,122.284L79.067,122.552L79.336,122.625L80.061,122.752L80.789,122.881L81.504,123.007L82.309,123.085L82.631,123.116L83.895,123.237L84.55,123.267L84.729,123.274L84.808,123.278L86.52,123.266L86.873,123.263L87.241,123.26L88.467,123.158L89.245,123.094L89.607,123.063L90.357,122.94L91.533,122.746L91.907,122.685L92.152,122.62L93.633,122.227L93.788,122.186L93.968,122.138L95.188,121.643L95.378,121.565L95.667,121.448L96.371,121.022L96.763,120.786L96.847,120.735L97.273,120.327L97.736,119.886L97.799,119.826L97.919,119.582L98.208,119L98.287,118.841L98.286,118.799L98.27,117.999L98.27,117.99L98.267,117.837L98.18,117.578L97.948,117.212" style="fill:none;stroke:rgb(18,16,11);stroke-width:0.71px;"/>
        <path id="LWPOLYLINE_5779_" d="M74.564,114.609L74.539,114.639L74.428,114.773L74.041,115.24L73.998,115.291L73.958,115.545L73.906,115.874L73.872,116.086L73.902,116.209L73.923,116.293L74.061,116.514L74.359,116.992L74.416,117.082L74.504,117.152L75.265,117.759L75.273,117.766L75.374,117.847L76.322,118.333L76.586,118.469L76.596,118.472L77.635,118.833L78.104,118.995L78.306,119.065L79.15,119.261L80.071,119.473L80.312,119.528L80.846,119.604L82.311,119.814L82.584,119.854L82.674,119.861L83.491,119.935L84.613,119.977L84.738,119.98L85.942,120.025L86.571,120.002L87.156,119.979L88.354,119.933L88.531,119.912L89.52,119.798L90.431,119.692L90.736,119.657L91.796,119.441L92.209,119.356L92.938,119.208L93.684,118.971L93.832,118.924L94.861,118.597L95.277,118.401L95.464,118.313L96.202,117.967L96.465,117.782L96.825,117.529L97.397,117.128L97.424,117.097L97.799,116.643L98.046,116.345L98.178,116.185L98.33,115.666L98.362,115.559L98.472,115.186L98.461,114.896L98.411,114.755L98.381,114.668L98.128,113.943L98.115,113.908L98.104,113.893" style="fill:none;stroke:rgb(18,16,11);stroke-width:0.71px;"/>
        <path id="LWPOLYLINE_5778_" d="M74.705,111.359L74.605,111.438L74.463,111.547L74.233,111.953L74.09,112.206L74.021,112.325L73.988,112.578L74.078,112.898L74.169,113.224L74.209,113.365L74.488,113.681L74.646,113.858L74.897,114.143L75.355,114.449L75.391,114.472L75.865,114.789L76.428,115.038L76.697,115.157L77.377,115.459L77.692,115.552L78.375,115.753L79.191,115.993L79.217,116.001L80.357,116.221L80.91,116.328L81.328,116.409L82.201,116.527L82.597,116.56L82.743,116.572L84.619,116.727L84.662,116.727L84.783,116.728L86.633,116.738L87.076,116.741L87.232,116.73L88.584,116.636L89.489,116.572L89.608,116.555L90.479,116.424L91.784,116.229L91.879,116.205L92.275,116.107L93.895,115.71L93.941,115.692L93.976,115.681L95.386,115.165L95.414,115.155L95.703,115L96.562,114.54L96.842,114.389L97.052,114.211L97.481,113.848L97.885,113.506L97.931,113.434L98.133,113.104L98.484,112.533L98.505,112.457L98.539,112.326L98.576,112.187L98.524,111.518L98.519,111.451L98.499,111.192L98.229,110.71L98.216,110.686" style="fill:none;stroke:rgb(18,16,11);stroke-width:0.71px;"/>
        <path id="LWPOLYLINE_5777_" d="M76.553,107.094L76.254,107.196L75.793,107.451L75.679,107.516L75.1,107.837L74.875,108.063L74.805,108.134L74.365,108.577L74.324,108.656L74.211,108.876L74.21,108.894L74.186,109.289L74.162,109.668L74.17,109.682L74.307,109.93L74.598,110.454L74.614,110.468L74.732,110.567L75.461,111.186L75.517,111.232L75.522,111.236L76.51,111.753L76.747,111.877L76.873,111.942" style="fill:none;stroke:rgb(18,16,11);stroke-width:0.71px;"/>
        <path id="LWPOLYLINE_5776_" d="M76.873,111.942L77.793,112.26L78.439,112.483L78.6,112.539L79.283,112.699L80.346,112.949L80.414,112.96L80.976,113.045L82.597,113.291L82.645,113.295L82.797,113.306L84.725,113.447L85.025,113.47L87.306,113.47L87.521,113.461L87.635,113.457" style="fill:none;stroke:rgb(18,16,11);stroke-width:0.71px;"/>
        <path id="LINE_4709_" d="M85.909,131.442L85.478,131.451" style="fill:none;stroke:rgb(18,16,11);stroke-width:0.71px;"/>
        <path id="LWPOLYLINE_5775_" d="M78.486,130.493L78.065,130.341L77.83,130.237L77.301,130.004" style="fill:none;stroke:rgb(18,16,11);stroke-width:0.71px;"/>
        <path id="LWPOLYLINE_5774_" d="M76.604,109.129L76.595,109.102L76.498,108.809" style="fill:none;stroke:rgb(18,16,11);stroke-width:0.71px;"/>
        <path id="LWPOLYLINE_5773_" d="M95.357,112.713L94.91,113.072L94.863,113.1L94.663,113.219L94.188,113.502L93.683,113.732L93.337,113.891L93.237,113.926L92.521,114.178L92.37,114.231L91.305,114.521L91.194,114.544L91.144,114.555L90.156,114.756L89.732,114.818L88.946,114.933L88.724,114.954L88.188,115.004L87.692,115.05L86.6,115.099L86.416,115.106L86.142,115.105L85.139,115.103L85.005,115.096L83.881,115.039L83.572,115.009L83.443,114.996L82.663,114.919L81.952,114.813L81.506,114.745L81.192,114.68L80.57,114.55L80.428,114.521L79.446,114.251L79.344,114.214L79.162,114.149L78.578,113.941L78.305,113.814L77.838,113.599L77.619,113.464L77.465,113.369L77.238,113.229L76.842,112.889L76.786,112.841L76.668,112.679L76.631,112.629" style="fill:none;stroke:rgb(18,16,11);stroke-width:0.71px;"/>
        <path id="LWPOLYLINE_5772_" d="M95.255,115.965L94.732,116.371L94.713,116.387L94.569,116.47L93.979,116.813L93.592,116.984L93.115,117.196L93.109,117.198L92.434,117.432L92.139,117.533L91.117,117.804L91.063,117.818L91.014,117.828L89.909,118.047L89.66,118.082L88.693,118.219L88.592,118.228L88.116,118.27L87.436,118.329L86.528,118.365L86.159,118.38L86.009,118.379L84.933,118.371L84.882,118.37L83.627,118.301L83.439,118.282L83.369,118.274L82.414,118.176L81.876,118.092L81.264,117.996L81.058,117.952L80.492,117.831L80.194,117.768L79.25,117.501L79.224,117.493L79.026,117.422L78.367,117.181L78.205,117.104L77.641,116.835L77.483,116.735L77.361,116.658L77.054,116.463L76.735,116.178L76.617,116.072L76.533,115.949L76.488,115.886" style="fill:none;stroke:rgb(18,16,11);stroke-width:0.71px;"/>
        <path id="LWPOLYLINE_5771_" d="M95.117,119.24L94.594,119.635L94.515,119.694L94.478,119.715L93.767,120.116L93.503,120.23L92.973,120.461L92.893,120.496L92.348,120.679L91.905,120.827L91.034,121.052L90.881,121.092L90.822,121.106L89.66,121.33L89.588,121.34L88.46,121.493L88.439,121.496L88.045,121.528L87.18,121.601L86.458,121.626L85.902,121.646L85.876,121.646L84.862,121.633L84.627,121.63L83.375,121.556L83.305,121.548L83.293,121.547L82.168,121.425L81.799,121.365L81.023,121.24L80.922,121.218L80.412,121.105L79.963,121.007L79.168,120.776L79.004,120.729L78.891,120.687L78.159,120.413L78.104,120.386L77.445,120.064L77.348,120L77.256,119.94L76.873,119.69L76.626,119.461L76.451,119.299L76.396,119.215L76.352,119.145" style="fill:none;stroke:rgb(18,16,11);stroke-width:0.71px;"/>
        <path id="LWPOLYLINE_5770_" d="M94.982,122.507L94.937,122.554L94.457,122.904L94.375,122.964L94.313,123.01" style="fill:none;stroke:rgb(18,16,11);stroke-width:0.71px;"/>
        <path id="LWPOLYLINE_5769_" d="M94.313,123.01L93.552,123.428L93.416,123.484L92.836,123.73L92.666,123.803L92.263,123.935L91.669,124.129L90.952,124.309L90.745,124.361L90.577,124.402L89.514,124.602L89.41,124.621L88.325,124.762L88.186,124.78L87.975,124.797L86.924,124.879L86.388,124.896L85.742,124.915L85.646,124.918L84.792,124.903L84.372,124.896L83.221,124.823L83.171,124.819L83.124,124.816L81.922,124.681L81.72,124.646L80.787,124.491L80.331,124.388L79.735,124.254L79.084,124.061L78.786,123.972L78.753,123.959L78.008,123.673L77.954,123.652L77.253,123.301L77.209,123.271L77.146,123.23L76.694,122.926L76.514,122.75L76.288,122.532L76.259,122.485L76.205,122.397" style="fill:none;stroke:rgb(18,16,11);stroke-width:0.71px;"/>
        <path id="LWPOLYLINE_5768_" d="M94.821,125.793L94.752,125.862L94.321,126.168L94.269,126.205L94.115,126.314L93.341,126.729L93.331,126.732L92.7,126.993L92.443,127.1L92.181,127.184L91.437,127.422L90.872,127.56L90.61,127.623L90.336,127.69L89.436,127.854L89.162,127.902L88.191,128.023L87.932,128.057L87.904,128.059L86.667,128.149L86.317,128.158L85.61,128.177L85.388,128.183L84.722,128.168L84.115,128.155L83.149,128.089L83.04,128.081L82.871,128.069L81.674,127.928L81.639,127.922L80.656,127.753L80.545,127.733L80.248,127.664L79.503,127.491L78.999,127.338L78.621,127.223L78.564,127.205L77.919,126.951L77.744,126.883L77.073,126.537L77.057,126.528L77.035,126.514L76.514,126.15L76.398,126.034L76.123,125.756L76.119,125.75L76.076,125.675" style="fill:none;stroke:rgb(18,16,11);stroke-width:0.71px;"/>
        <path id="LWPOLYLINE_5767_" d="M94.675,129.063L94.389,129.313L94.189,129.438L94.166,129.453L93.667,129.768L93.223,129.979L92.8,130.18L92.569,130.264L92.093,130.438L91.8,130.543L90.799,130.82L90.686,130.852L90.479,130.895L89.525,131.092L89.362,131.115L88.385,131.261L88.06,131.293L87.828,131.316L87.205,131.378L86.245,131.426L85.909,131.442" style="fill:none;stroke:rgb(18,16,11);stroke-width:0.71px;"/>
        <path id="LWPOLYLINE_5766_" d="M85.478,131.451L85.266,131.452L84.65,131.439L84.059,131.428L83.076,131.363L82.906,131.353L82.813,131.346L81.612,131.207L81.561,131.199L80.521,131.023L80.479,131.017L80.164,130.944L79.431,130.776L78.91,130.621L78.486,130.493" style="fill:none;stroke:rgb(18,16,11);stroke-width:0.71px;"/>
        <path id="LINE_4708_" d="M76.607,109.141L76.604,109.129" style="fill:none;stroke:rgb(18,16,11);stroke-width:0.71px;"/>
        <path id="LWPOLYLINE_5765_" d="M98.699,109.188L98.654,109.658L98.631,109.912" style="fill:none;stroke:rgb(18,16,11);stroke-width:0.71px;"/>
        <path id="LWPOLYLINE_5764_" d="M98.342,110.451L98.104,110.893L97.762,111.206L97.122,111.789L96.909,111.91L95.788,112.549L95.773,112.557L94.371,113.083L93.994,113.225L92.766,113.525L91.877,113.743L91.013,113.877L89.855,114.057L89.134,114.114L87.488,114.245L87.19,114.247L85.218,114.255L85.042,114.256L83.285,114.129L82.611,114.08L81.434,113.904L80.379,113.746L79.7,113.584L78.393,113.272L78.128,113.178L76.766,112.688L76.697,112.664L75.689,112.126L75.49,112.02L74.895,111.519L74.578,111.252L74.372,110.887L74.134,110.466" style="fill:none;stroke:rgb(18,16,11);stroke-width:0.71px;"/>
        <path id="LWPOLYLINE_5763_" d="M98.479,113.241L98.227,113.679L97.915,114.219L97.675,114.438L97.055,115.002L96.813,115.145L95.706,115.791L94.297,116.333L93.95,116.467L92.697,116.781L91.853,116.992L90.946,117.132L89.581,117.343L89.078,117.38L87.203,117.52L87.134,117.52L85.162,117.518L84.751,117.517L83.226,117.404L82.557,117.355L81.371,117.181L80.297,117.022L79.631,116.865L78.305,116.553L78.051,116.463L76.68,115.977L76.615,115.954L75.609,115.414L75.283,115.238L74.793,114.811L74.402,114.469L74.25,114.18L73.988,113.683L73.996,113.538" style="fill:none;stroke:rgb(18,16,11);stroke-width:0.71px;"/>
        <path id="LWPOLYLINE_5762_" d="M98.371,116.127L98.362,116.455L98.109,116.916L97.825,117.436L97.561,117.676L96.845,118.326L96.732,118.39L95.604,119.03L95.466,119.109L94.214,119.577L93.689,119.773L92.636,120.036L91.792,120.246L90.884,120.388L89.505,120.604L89.021,120.641L87.129,120.785L87.077,120.785L85.105,120.787L84.699,120.787L83.171,120.674L82.27,120.606L81.309,120.459L80.025,120.264L79.559,120.15L78.053,119.785L77.961,119.753L76.592,119.266L76.563,119.256L75.512,118.704L75.21,118.546L74.688,118.102L74.305,117.777L74.135,117.473L73.866,116.992" style="fill:none;stroke:rgb(18,16,11);stroke-width:0.71px;"/>
        <path id="LWPOLYLINE_5761_" d="M98.21,119.788L98.005,120.155L97.718,120.672L97.455,120.915L96.741,121.573L96.64,121.631L95.52,122.274L95.371,122.359L94.14,122.826L93.621,123.021L92.562,123.283L91.515,123.542L90.825,123.646L89.22,123.889L88.965,123.907L87.019,124.046L86.841,124.059L85.049,124.06L84.696,124.06L83.111,123.947L82.262,123.888L81.246,123.737L80.004,123.553L79.491,123.431L78.02,123.082L77.888,123.037L76.574,122.584L76.514,122.553L75.41,121.996L75.184,121.881L74.578,121.394L74.235,121.116L74.021,120.765L73.75,120.317L73.752,120.123" style="fill:none;stroke:rgb(18,16,11);stroke-width:0.71px;"/>
        <path id="LWPOLYLINE_5760_" d="M98.135,122.027L98.107,122.6L98.087,123.022L97.879,123.392L97.534,124.002L97.361,124.156L96.553,124.875L96.53,124.896L95.422,125.515L95.138,125.674L94.071,126.076L93.591,126.258L92.493,126.535L91.498,126.787L90.762,126.901L89.21,127.143L88.905,127.166L86.962,127.313L86.839,127.321L84.992,127.333L84.787,127.334L83.051,127.223L82.346,127.178L81.184,127.015L80.066,126.856L79.428,126.71L78.021,126.388L77.82,126.318L76.434,125.838L76.297,125.791L75.33,125.283L74.944,125.08L74.479,124.685L74.039,124.313L73.896,124.058L73.602,123.527L73.607,123.415" style="fill:none;stroke:rgb(18,16,11);stroke-width:0.71px;"/>
        <path id="LWPOLYLINE_5759_" d="M97.99,125.837L97.97,126.238L97.76,126.629L97.443,127.22L97.252,127.395L96.462,128.117L95.339,128.76L95.09,128.902L94,129.326L93.633,129.47L92.425,129.787L91.566,130.014L90.696,130.155L89.29,130.385L88.845,130.422L86.907,130.58L86.88,130.582L84.936,130.592L84.43,130.595L82.996,130.493L81.994,130.423L81.121,130.293L79.738,130.088L79.352,129.996L77.752,129.617L77.73,129.609L76.364,129.121L76.053,129.01L75.244,128.572L74.73,128.293L74.361,127.979L73.944,127.623L73.783,127.35L73.48,126.837" style="fill:none;stroke:rgb(18,16,11);stroke-width:0.71px;"/>
        <path id="LWPOLYLINE_5758_" d="M97.817,129.572L97.649,129.867L97.258,130.551L97.161,130.636L96.348,131.354L96.245,131.445L95.263,132.006L95.064,132.119L93.908,132.567L93.319,132.795L92.356,133.038L91.228,133.323L90.639,133.415L88.943,133.679L88.791,133.69L86.847,133.837L86.58,133.857L84.88,133.856L84.125,133.855L83.936,133.848" style="fill:none;stroke:rgb(18,16,11);stroke-width:0.71px;"/>
        <path id="LWPOLYLINE_5757_" d="M96.463,107.152L96.715,107.279L97.043,107.486L97.352,107.681L97.449,107.752L97.924,108.151L97.997,108.213L98.415,108.692L98.518,108.871L98.699,109.188" style="fill:none;stroke:rgb(18,16,11);stroke-width:0.71px;"/>
        <path id="LINE_4707_" d="M84.884,133.867L85.249,133.875" style="fill:none;stroke:rgb(18,16,11);stroke-width:0.71px;"/>
        <path id="LWPOLYLINE_5756_" d="M73.357,128.669L73.368,129.38L73.531,129.829L73.812,130.272L74.194,130.698L74.678,131.108L75.289,131.521L76.01,131.916L76.823,132.282L77.721,132.617L78.688,132.917L79.73,133.186L81.695,133.571L82.799,133.728L83.936,133.848" style="fill:none;stroke:rgb(18,16,11);stroke-width:0.71px;"/>
        <path id="LWPOLYLINE_5755_" d="M98.699,109.188L98.634,109.838L98.435,110.281L98.112,110.713L97.677,111.121L97.134,111.506L96.51,111.853L95.789,112.173L94.945,112.474L94.014,112.736L92.988,112.964L91.9,113.148L90.91,113.275L89.883,113.37L88.77,113.433L87.635,113.457" style="fill:none;stroke:rgb(18,16,11);stroke-width:0.71px;"/>
        <path id="LWPOLYLINE_5754_" d="M96.374,109.337L95.986,110.269L94.948,111.107L93.329,111.798L91.24,112.292L88.823,112.557L86.243,112.573L83.677,112.34L81.297,111.874L79.268,111.207L77.727,110.384L76.779,109.461L76.607,109.141" style="fill:none;stroke:rgb(18,16,11);stroke-width:0.71px;"/>
        <path id="LWPOLYLINE_5753_" d="M79.645,97.082L80.846,96.39L82.582,95.88L84.697,95.598L87.004,95.566L89.298,95.791L91.375,96.25L93.051,96.903L94.176,97.692L94.651,98.548L94.434,99.393L93.542,100.153L92.058,100.76L90.11,101.162L87.874,101.32L86.709,101.304L85.548,101.223L83.338,100.877L81.439,100.314L80.023,99.585L79.215,98.753L79.084,97.894L79.645,97.082Z" style="fill:none;stroke:rgb(18,16,11);stroke-width:0.71px;"/>
        <path id="LWPOLYLINE_5752_" d="M87.537,109.616L89.773,109.457L91.721,109.057L93.206,108.449L94.097,107.688L94.314,106.844" style="fill:none;stroke:rgb(18,16,11);stroke-width:0.71px;"/>
        <path id="LWPOLYLINE_5751_" d="M78.748,106.189L78.878,107.049L79.688,107.881L81.104,108.61L83.001,109.173L85.211,109.519L86.373,109.6L87.537,109.616" style="fill:none;stroke:rgb(18,16,11);stroke-width:0.71px;"/>
        <path id="LINE_4706_" d="M83.902,97.202L89.924,97.455" style="fill:none;stroke:rgb(18,16,11);stroke-width:0.71px;"/>
        <path id="LINE_4705_" d="M89.924,97.455L89.811,99.668" style="fill:none;stroke:rgb(18,16,11);stroke-width:0.71px;"/>
        <path id="LINE_4704_" d="M83.789,99.415L83.902,97.202" style="fill:none;stroke:rgb(18,16,11);stroke-width:0.71px;"/>
        <path id="LINE_4703_" d="M89.811,99.668L83.789,99.415" style="fill:none;stroke:rgb(18,16,11);stroke-width:0.71px;"/>
        <path id="LWPOLYLINE_5750_" d="M94.396,104.823L95.225,105.266L96.173,106.188L96.463,107.148L96.075,108.08L95.037,108.92L93.418,109.61L91.329,110.104L88.912,110.368L86.332,110.385L83.766,110.152L81.387,109.687L79.357,109.02L77.815,108.195L76.867,107.272L76.578,106.313L76.965,105.381L78.004,104.542L78.829,104.189" style="fill:none;stroke:rgb(18,16,11);stroke-width:0.71px;"/>
        <path id="LWPOLYLINE_5749_" d="M94.027,133.808L95.065,132.968L95.453,132.036" style="fill:none;stroke:rgb(18,16,11);stroke-width:0.71px;"/>
        <path id="LWPOLYLINE_5748_" d="M75.74,131.769L75.858,132.16L76.807,133.084L78.348,133.906L80.377,134.574L82.756,135.04L85.322,135.272L87.902,135.256L90.319,134.992L92.408,134.498L94.027,133.808" style="fill:none;stroke:rgb(18,16,11);stroke-width:0.71px;"/>
        <path id="LINE_4702_" d="M83.813,99.416L83.902,97.202" style="fill:none;stroke:rgb(18,16,11);stroke-width:0.71px;"/>
        <path id="LWPOLYLINE_5747_" d="M85.026,142.783L86.191,142.8L88.428,142.642L90.375,142.24L91.859,141.633L92.751,140.873L92.969,140.027" style="fill:none;stroke:rgb(18,16,11);stroke-width:0.71px;"/>
        <path id="LWPOLYLINE_5746_" d="M77.402,139.373L77.531,140.232L78.341,141.064L79.758,141.794L81.654,142.356L83.865,142.702L85.026,142.783" style="fill:none;stroke:rgb(18,16,11);stroke-width:0.71px;"/>
        <path id="LWPOLYLINE_5745_" d="M82.764,38.82C82.764,38.82 84.256,40.781 89.426,40.81C94.9,40.84 95.98,39.443 95.98,39.443C96.209,34.814 96.394,30.181 96.501,25.547" style="fill:none;stroke:rgb(18,16,11);stroke-width:0.71px;"/>
        <path id="LINE_4700_" d="M82.621,39.058L82.977,31.835" style="fill:none;stroke:rgb(18,16,11);stroke-width:0.71px;"/>
        <path id="LINE_4699_" d="M82.966,32.289C83.063,28.371 83.161,24.453 83.258,20.535" style="fill:none;stroke:rgb(18,16,11);stroke-width:0.71px;"/>
        <path id="LINE_4698_" d="M98.997,55.89L99.015,55.855" style="fill:none;stroke:rgb(18,16,11);stroke-width:0.71px;"/>
        <path id="LINE_4697_" d="M99.566,54.552L99.521,54.666" style="fill:none;stroke:rgb(18,16,11);stroke-width:0.71px;"/>
        <path id="LINE_4696_" d="M89.179,57.482L92.943,59.286" style="fill:none;stroke:rgb(18,16,11);stroke-width:0.71px;"/>
        <path id="LINE_4695_" d="M93.898,46.381L97.664,48.185" style="fill:none;stroke:rgb(18,16,11);stroke-width:0.71px;"/>
        <path id="LINE_4694_" d="M86.918,53.417L83.014,51.545" style="fill:none;stroke:rgb(18,16,11);stroke-width:0.71px;"/>
        <path id="LINE_4693_" d="M89.794,47.396L86.38,45.76" style="fill:none;stroke:rgb(18,16,11);stroke-width:0.71px;"/>
        <path id="LWPOLYLINE_5743_" d="M76.1,45.129L76.072,45.5L76.039,45.874L76.035,45.92L76.012,46.252" style="fill:none;stroke:rgb(18,16,11);stroke-width:0.71px;"/>
        <path id="LINE_4692_" d="M76.012,46.252L75.672,51.933" style="fill:none;stroke:rgb(18,16,11);stroke-width:0.71px;"/>
        <path id="LINE_4690_" d="M76.715,43.308L82.657,41.928" style="fill:none;stroke:rgb(18,16,11);stroke-width:0.71px;"/>
        <path id="LINE_4689_" d="M85.617,45.477L85.667,45.498" style="fill:none;stroke:rgb(18,16,11);stroke-width:0.71px;"/>
        <path id="LINE_4688_" d="M100.204,39.779L100.174,51.033" style="fill:none;stroke:rgb(18,16,11);stroke-width:0.71px;"/>
        <path id="LINE_4687_" d="M100.192,40.288L100.164,57.034" style="fill:none;stroke:rgb(18,16,11);stroke-width:0.71px;"/>
        <path id="LWPOLYLINE_5740_" d="M74.938,60.688L75.47,51.83L75.957,43.962" style="fill:none;stroke:rgb(18,16,11);stroke-width:0.71px;"/>
        <path id="LWPOLYLINE_5739_" d="M106.833,59.385L106.787,59.147L106.502,58.098L105.783,57.063L105.652,56.876L104.527,55.887L103.018,54.959L102.85,54.869L101.014,54.036L100.17,53.747" style="fill:none;stroke:rgb(18,16,11);stroke-width:0.71px;"/>
        <path id="LWPOLYLINE_5738_" d="M76.404,43.411L76.559,43.352L76.715,43.308" style="fill:none;stroke:rgb(18,16,11);stroke-width:0.71px;"/>
        <path id="LWPOLYLINE_5737_" d="M75.957,43.962L76.007,43.763L76.131,43.588L76.201,43.521" style="fill:none;stroke:rgb(18,16,11);stroke-width:0.71px;"/>
        <path id="LWPOLYLINE_5736_" d="M76.201,43.521L76.357,43.424L76.396,43.414" style="fill:none;stroke:rgb(18,16,11);stroke-width:0.71px;"/>
        <path id="LWPOLYLINE_5735_" d="M106.833,59.385L106.752,63.46L106.726,63.59" style="fill:none;stroke:rgb(18,16,11);stroke-width:0.71px;"/>
        <path id="LWPOLYLINE_5734_" d="M100.204,39.779L100.156,39.548L99.738,38.742L99.606,38.559L98.781,37.795L97.576,37.093L97.417,37.008L96.127,36.494" style="fill:none;stroke:rgb(18,16,11);stroke-width:0.71px;"/>
        <path id="LWPOLYLINE_5733_" d="M82.775,35.92L82.258,36.038L80.816,36.559L80.641,36.634L79.515,37.272L78.885,37.864" style="fill:none;stroke:rgb(18,16,11);stroke-width:0.71px;"/>
        <path id="LINE_4686_" d="M78.918,37.832L78.799,37.936" style="fill:none;stroke:rgb(18,16,11);stroke-width:0.71px;"/>
        <path id="LWPOLYLINE_5732_" d="M106.539,64.508L106.482,64.745L105.829,65.75L105.684,65.935L104.612,66.867L103.146,67.713L102.962,67.798L101.156,68.527L99.037,69.133L96.657,69.601L94.074,69.918L91.351,70.077L88.552,70.075L85.747,69.912L83.003,69.592L80.9,69.228" style="fill:none;stroke:rgb(18,16,11);stroke-width:0.71px;"/>
        <path id="LWPOLYLINE_5731_" d="M74.794,69.684L75.327,69.449L76.041,69.242L76.787,69.104L77.513,69.026L78.363,68.992L79.143,69.01L80.004,69.085L80.9,69.228" style="fill:none;stroke:rgb(18,16,11);stroke-width:0.71px;"/>
        <path id="LINE_4685_" d="M81.139,64.112L81.047,64.311" style="fill:none;stroke:rgb(18,16,11);stroke-width:0.71px;"/>
        <path id="LWPOLYLINE_5730_" d="M81.046,64.313L81.139,64.112" style="fill:none;stroke:rgb(18,16,11);stroke-width:0.71px;"/>
        <path id="LINE_4684_" d="M81.245,63.983L81.143,64.108" style="fill:none;stroke:rgb(18,16,11);stroke-width:0.71px;"/>
        <path id="LWPOLYLINE_5729_" d="M81.139,64.112L81.245,63.983" style="fill:none;stroke:rgb(18,16,11);stroke-width:0.71px;"/>
        <path id="LINE_4683_" d="M100.165,56.37L100.304,57.043" style="fill:none;stroke:rgb(18,16,11);stroke-width:0.71px;"/>
        <path id="LINE_4682_" d="M100.237,56.72L100.355,56.884" style="fill:none;stroke:rgb(18,16,11);stroke-width:0.71px;"/>
        <path id="LINE_4681_" d="M85.061,40.985L82.156,41.659" style="fill:none;stroke:rgb(18,16,11);stroke-width:0.71px;"/>
        <path id="LWPOLYLINE_5728_" d="M71.745,40.611L71.227,40.819L71.129,40.869L70.512,41.385L70.067,42.104L69.873,42.902" style="fill:none;stroke:rgb(18,16,11);stroke-width:0.71px;"/>
        <path id="LINE_4680_" d="M69.873,42.902L68.732,59.948" style="fill:none;stroke:rgb(18,16,11);stroke-width:0.71px;"/>
        <path id="LINE_4679_" d="M73.682,40.475L80.83,38.544" style="fill:none;stroke:rgb(18,16,11);stroke-width:0.71px;"/>
        <path id="LINE_4678_" d="M71.745,40.611L73.24,40.265" style="fill:none;stroke:rgb(18,16,11);stroke-width:0.71px;"/>
        <path id="LINE_4677_" d="M73.24,40.265L73.682,40.476" style="fill:none;stroke:rgb(18,16,11);stroke-width:0.71px;"/>
        <path id="LWPOLYLINE_5727_" d="M73.681,40.476L73.199,40.344L73.682,40.475" style="fill:none;stroke:rgb(18,16,11);stroke-width:0.71px;"/>
        <path id="LINE_4676_" d="M101.59,68.864L101.62,68.34" style="fill:none;stroke:rgb(18,16,11);stroke-width:0.71px;"/>
        <path id="LWPOLYLINE_5726_" d="M75.162,69.521L75.283,69.764L75.547,70.14L76.978,71.266L77.332,71.459L79.426,72.409L82.09,73.158L85.149,73.657L88.4,73.873L91.628,73.792L94.096,73.508L96.742,72.913L98.813,72.085L99.186,71.914L100.587,70.872L100.881,70.516L101.463,69.33L101.59,68.864" style="fill:none;stroke:rgb(18,16,11);stroke-width:0.71px;"/>
        <path id="LINE_4675_" d="M84.193,73.939L84.21,73.504" style="fill:none;stroke:rgb(18,16,11);stroke-width:0.71px;"/>
        <path id="LINE_4674_" d="M91.552,74.089L91.561,73.793" style="fill:none;stroke:rgb(18,16,11);stroke-width:0.71px;"/>
        <path id="LINE_4673_" d="M84.125,133.855L84.884,133.867" style="fill:none;stroke:rgb(18,16,11);stroke-width:0.71px;"/>
        <path id="LWPOLYLINE_5723_" d="M88.791,133.69L87.77,133.768L86.847,133.837" style="fill:none;stroke:rgb(18,16,11);stroke-width:0.71px;"/>
        <path id="LINE_4672_" d="M86.58,133.857L85.249,133.875" style="fill:none;stroke:rgb(18,16,11);stroke-width:0.71px;"/>
        <path id="LINE_4671_" d="M98.287,118.841L98.21,119.788" style="fill:none;stroke:rgb(18,16,11);stroke-width:0.71px;"/>
        <path id="LWPOLYLINE_5722_" d="M98.342,110.451L98.435,110.281L98.631,109.912" style="fill:none;stroke:rgb(18,16,11);stroke-width:0.71px;"/>
        <path id="LINE_4670_" d="M98.125,122.219L98.087,123.022" style="fill:none;stroke:rgb(18,16,11);stroke-width:0.71px;"/>
        <path id="LINE_4669_" d="M98.11,122.525L98.107,122.6" style="fill:none;stroke:rgb(18,16,11);stroke-width:0.71px;"/>
        <path id="LINE_4668_" d="M98.479,113.241L98.539,112.326" style="fill:none;stroke:rgb(18,16,11);stroke-width:0.71px;"/>
        <path id="LINE_4667_" d="M98.371,116.127L98.472,115.186" style="fill:none;stroke:rgb(18,16,11);stroke-width:0.71px;"/>
        <path id="LINE_4666_" d="M73.487,125.955L73.48,126.837" style="fill:none;stroke:rgb(18,16,11);stroke-width:0.71px;"/>
        <path id="LINE_4665_" d="M73.752,120.123L73.729,119.258" style="fill:none;stroke:rgb(18,16,11);stroke-width:0.71px;"/>
        <path id="LINE_4664_" d="M73.607,122.212L73.607,123.415" style="fill:none;stroke:rgb(18,16,11);stroke-width:0.71px;"/>
        <path id="LINE_4663_" d="M98.576,112.187L98.508,112.805" style="fill:none;stroke:rgb(18,16,11);stroke-width:0.71px;"/>
        <path id="LINE_4662_" d="M74.134,110.466L74.162,109.668" style="fill:none;stroke:rgb(18,16,11);stroke-width:0.71px;"/>
        <path id="LINE_4661_" d="M98.16,121.215L98.135,122.027" style="fill:none;stroke:rgb(18,16,11);stroke-width:0.71px;"/>
        <path id="LINE_4660_" d="M73.988,112.581L73.996,113.538" style="fill:none;stroke:rgb(18,16,11);stroke-width:0.71px;"/>
        <path id="LINE_4659_" d="M97.901,128.587L97.817,129.572" style="fill:none;stroke:rgb(18,16,11);stroke-width:0.71px;"/>
        <path id="LINE_4658_" d="M73.872,116.086L73.866,116.992" style="fill:none;stroke:rgb(18,16,11);stroke-width:0.71px;"/>
        <path id="LINE_4657_" d="M97.99,125.837L98.075,124.893" style="fill:none;stroke:rgb(18,16,11);stroke-width:0.71px;"/>
        <path id="LINE_4656_" d="M94.314,106.844L94.651,98.548" style="fill:none;stroke:rgb(18,16,11);stroke-width:0.71px;"/>
        <path id="LINE_4655_" d="M78.748,106.189L79.084,97.894" style="fill:none;stroke:rgb(18,16,11);stroke-width:0.71px;"/>
        <path id="LINE_4654_" d="M96.463,107.148L96.374,109.337" style="fill:none;stroke:rgb(18,16,11);stroke-width:0.71px;"/>
        <path id="LINE_4653_" d="M95.458,131.895L95.453,132.036" style="fill:none;stroke:rgb(18,16,11);stroke-width:0.71px;"/>
        <path id="LINE_4652_" d="M76.578,106.313L76.498,108.809" style="fill:none;stroke:rgb(18,16,11);stroke-width:0.71px;"/>
        <path id="LINE_4651_" d="M77.639,133.528L77.402,139.373" style="fill:none;stroke:rgb(18,16,11);stroke-width:0.71px;"/>
        <path id="LINE_4650_" d="M93.206,134.157L92.969,140.027" style="fill:none;stroke:rgb(18,16,11);stroke-width:0.71px;"/>
        <path id="LWPOLYLINE_5721_" d="M80.757,68.774L82.906,69.146L84.618,69.347L85.713,69.475L88.582,69.642L88.634,69.642L91.444,69.644L92.632,69.574L94.229,69.48L96.436,69.21L96.872,69.156L99.306,68.678L99.832,68.527L101.473,68.059L102.676,67.572L103.319,67.313L104.802,66.458L104.866,66.401L105.884,65.516L106.19,65.044L106.539,64.508L106.726,63.59" style="fill:none;stroke:rgb(18,16,11);stroke-width:0.71px;"/>
        <path id="LINE_4649_" d="M74.988,63.352L75.672,51.933" style="fill:none;stroke:rgb(18,16,11);stroke-width:0.71px;"/>
        <path id="LWPOLYLINE_5719_" d="M75.965,44.06L76.008,44.154L76.023,44.221L76.096,44.529L76.105,44.662L76.104,45.051L76.1,45.129" style="fill:none;stroke:rgb(18,16,11);stroke-width:0.71px;"/>
        <path id="LWPOLYLINE_5718_" d="M90.52,42.991L91.944,42.939L93.876,42.737L95.624,42.393" style="fill:none;stroke:rgb(18,16,11);stroke-width:0.71px;"/>
        <path id="LWPOLYLINE_5717_" d="M95.624,42.393L97.118,41.92L98.299,41.337L99.119,40.668L99.546,39.938L99.563,39.178L99.168,38.418L98.379,37.687L97.226,37.016L96.123,36.576" style="fill:none;stroke:rgb(18,16,11);stroke-width:0.71px;"/>
        <path id="LWPOLYLINE_5716_" d="M82.771,35.988L82.426,36.067L81.019,36.575L79.94,37.187L79.404,37.664" style="fill:none;stroke:rgb(18,16,11);stroke-width:0.71px;"/>
        <path id="LINE_4648_" d="M73.199,40.344L71.896,40.646" style="fill:none;stroke:rgb(18,16,11);stroke-width:0.71px;"/>
        <path id="LINE_4647_" d="M80.158,40.366L82.916,39.727" style="fill:none;stroke:rgb(18,16,11);stroke-width:0.71px;"/>
        <path id="LINE_4646_" d="M87.265,42.231L88.333,41.943" style="fill:none;stroke:rgb(18,16,11);stroke-width:0.71px;"/>
        <path id="LINE_4645_" d="M73.649,40.56L73.199,40.344" style="fill:none;stroke:rgb(18,16,11);stroke-width:0.71px;"/>
        <path id="LINE_4644_" d="M76.865,43.342L78.549,44.255" style="fill:none;stroke:rgb(18,16,11);stroke-width:0.71px;"/>
        <path id="LINE_4643_" d="M85.273,41.005L82.516,41.646" style="fill:none;stroke:rgb(18,16,11);stroke-width:0.71px;"/>
        <path id="LINE_4642_" d="M82.516,41.646L83.013,41.915" style="fill:none;stroke:rgb(18,16,11);stroke-width:0.71px;"/>
        <path id="LINE_4641_" d="M88.333,41.943L90.52,42.991" style="fill:none;stroke:rgb(18,16,11);stroke-width:0.71px;"/>
        <path id="LINE_4640_" d="M78.549,44.255L87.265,42.231" style="fill:none;stroke:rgb(18,16,11);stroke-width:0.71px;"/>
        <path id="LINE_4639_" d="M79.404,37.664L81.192,38.521" style="fill:none;stroke:rgb(18,16,11);stroke-width:0.71px;"/>
        <path id="LINE_4638_" d="M83.013,41.915L76.865,43.342" style="fill:none;stroke:rgb(18,16,11);stroke-width:0.71px;"/>
        <path id="LINE_4637_" d="M71.896,40.646L73.514,41.523" style="fill:none;stroke:rgb(18,16,11);stroke-width:0.71px;"/>
        <path id="LINE_4636_" d="M73.514,41.523L79.66,40.097" style="fill:none;stroke:rgb(18,16,11);stroke-width:0.71px;"/>
        <path id="LINE_4635_" d="M81.192,38.521L73.649,40.56" style="fill:none;stroke:rgb(18,16,11);stroke-width:0.71px;"/>
        <path id="LINE_4634_" d="M79.66,40.097L80.158,40.366" style="fill:none;stroke:rgb(18,16,11);stroke-width:0.71px;"/>
        <path id="LWPOLYLINE_5715_" d="M78.918,45.079L78.4,45.325L77.965,45.78" style="fill:none;stroke:rgb(18,16,11);stroke-width:0.71px;"/>
        <path id="LWPOLYLINE_5714_" d="M77.965,45.78L77.686,46.367L77.611,46.808" style="fill:none;stroke:rgb(18,16,11);stroke-width:0.71px;"/>
        <path id="LINE_4633_" d="M85.727,43.499L78.918,45.079" style="fill:none;stroke:rgb(18,16,11);stroke-width:0.71px;"/>
        <path id="LINE_4632_" d="M77.611,46.808L76.848,64.053" style="fill:none;stroke:rgb(18,16,11);stroke-width:0.71px;"/>
        <path id="LWPOLYLINE_5713_" d="M84.47,61.28L84.627,58.452L84.837,54.656" style="fill:none;stroke:rgb(18,16,11);stroke-width:0.71px;"/>
        <path id="LWPOLYLINE_5712_" d="M78.549,44.255L77.862,44.58L77.809,44.605L77.275,45.161L77.186,45.255L76.872,45.91L76.785,46.093L76.678,46.721" style="fill:none;stroke:rgb(18,16,11);stroke-width:0.71px;"/>
        <path id="LWPOLYLINE_5711_" d="M78.918,45.079L78.895,44.827L78.817,44.583L78.696,44.382L78.549,44.255" style="fill:none;stroke:rgb(18,16,11);stroke-width:0.71px;"/>
        <path id="LWPOLYLINE_5710_" d="M76.678,46.721L76.869,46.789L77.114,46.83L77.375,46.836L77.611,46.808" style="fill:none;stroke:rgb(18,16,11);stroke-width:0.71px;"/>
        <path id="LWPOLYLINE_5709_" d="M76.865,43.342L76.706,43.387L76.547,43.448" style="fill:none;stroke:rgb(18,16,11);stroke-width:0.71px;"/>
        <path id="LINE_4631_" d="M76.137,46.427L76.678,46.721" style="fill:none;stroke:rgb(18,16,11);stroke-width:0.71px;"/>
        <path id="LWPOLYLINE_5708_" d="M76.547,43.448L76.561,43.566L76.543,43.864L76.533,44.048L76.505,44.223L76.412,44.686L76.4,44.747L76.377,44.854" style="fill:none;stroke:rgb(18,16,11);stroke-width:0.71px;"/>
        <path id="LWPOLYLINE_5707_" d="M76.377,44.854L76.274,45.366L76.242,45.567L76.189,45.89L76.181,45.955L76.137,46.427" style="fill:none;stroke:rgb(18,16,11);stroke-width:0.71px;"/>
        <path id="LWPOLYLINE_5706_" d="M76.137,46.427L75.795,52.108L75.111,63.53" style="fill:none;stroke:rgb(18,16,11);stroke-width:0.71px;"/>
        <path id="LINE_4630_" d="M75.914,63.966L76.678,46.721" style="fill:none;stroke:rgb(18,16,11);stroke-width:0.71px;"/>
        <path id="LWPOLYLINE_5705_" d="M76.547,43.448L76.33,43.527L76.146,43.668L76.02,43.853L76,43.931L75.965,44.06" style="fill:none;stroke:rgb(18,16,11);stroke-width:0.71px;"/>
        <path id="LWPOLYLINE_5703_" d="M72.229,59.57L72.602,50.367L72.922,42.409" style="fill:none;stroke:rgb(18,16,11);stroke-width:0.71px;"/>
        <path id="LWPOLYLINE_5702_" d="M70.869,43.463L70.58,49.171L70,60.646" style="fill:none;stroke:rgb(18,16,11);stroke-width:0.71px;"/>
        <path id="LWPOLYLINE_5701_" d="M75.965,44.06L75.48,51.929L74.918,61.029" style="fill:none;stroke:rgb(18,16,11);stroke-width:0.71px;"/>
        <path id="LWPOLYLINE_5700_" d="M74.918,61.029L74.404,60.535L74.347,60.479L73.42,59.977L73.299,59.936L72.229,59.57" style="fill:none;stroke:rgb(18,16,11);stroke-width:0.71px;"/>
        <path id="LWPOLYLINE_5699_" d="M72.922,42.409L72.629,42.387L72.313,42.362L71.948,42.401L71.463,42.572L71.119,42.847L70.936,43.148L70.869,43.463" style="fill:none;stroke:rgb(18,16,11);stroke-width:0.71px;"/>
        <path id="LWPOLYLINE_5697_" d="M74.723,64.471L74.841,64.41L75.322,64.21L76.012,64.009" style="fill:none;stroke:rgb(18,16,11);stroke-width:0.71px;"/>
        <path id="LINE_4629_" d="M76.715,43.308L76.865,43.342" style="fill:none;stroke:rgb(18,16,11);stroke-width:0.71px;"/>
        <path id="LWPOLYLINE_5695_" d="M100.204,39.779L100.192,40.288L100.187,40.589" style="fill:none;stroke:rgb(18,16,11);stroke-width:0.71px;"/>
        <path id="LWPOLYLINE_5694_" d="M100.187,40.589L99.749,41.336L99.731,41.365L98.858,42.078L98.486,42.262L97.602,42.698L96.599,43.016L96.011,43.202L94.216,43.556L94.15,43.568L92.094,43.783L91.447,43.803L90.209,43.841" style="fill:none;stroke:rgb(18,16,11);stroke-width:0.71px;"/>
        <path id="LWPOLYLINE_5693_" d="M85.43,54.591L85.217,58.448L85.117,60.256" style="fill:none;stroke:rgb(18,16,11);stroke-width:0.71px;"/>
        <path id="LWPOLYLINE_5692_" d="M85.117,60.256L85.248,60.275L87.274,60.498L87.821,60.521L89.343,60.587L90.903,60.552L91.387,60.541L93.341,60.359L93.813,60.278L95.145,60.05L96.359,59.724L96.739,59.621L98.077,59.087L98.347,58.925L99.113,58.464L99.647,57.938L99.816,57.772L100.164,57.034" style="fill:none;stroke:rgb(18,16,11);stroke-width:0.71px;"/>
        <path id="LINE_4628_" d="M75.965,44.06L75.957,43.962" style="fill:none;stroke:rgb(18,16,11);stroke-width:0.71px;"/>
        <path id="LWPOLYLINE_5691_" d="M76.396,43.414L76.404,43.411L76.458,43.425L76.511,43.438L76.547,43.448" style="fill:none;stroke:rgb(18,16,11);stroke-width:0.71px;"/>
        <path id="LWPOLYLINE_5690_" d="M78.201,63.739L78.47,63.733L79.389,63.754L80.318,63.836L81.245,63.983" style="fill:none;stroke:rgb(18,16,11);stroke-width:0.71px;"/>
        <path id="LWPOLYLINE_5689_" d="M100.166,55.983L100.942,56.484L101.823,57.363L102.282,58.271L102.305,59.179L101.891,60.059L101.053,60.883L99.817,61.625L98.225,62.262L96.323,62.772L94.175,63.142L91.846,63.357L89.41,63.413L86.946,63.307L84.53,63.041L82.635,62.71" style="fill:none;stroke:rgb(18,16,11);stroke-width:0.71px;"/>
        <path id="LINE_4627_" d="M90.459,44.324L88.365,43.32" style="fill:none;stroke:rgb(18,16,11);stroke-width:0.71px;"/>
        <path id="LINE_4626_" d="M88.22,42.909L85.897,43.536" style="fill:none;stroke:rgb(18,16,11);stroke-width:0.71px;"/>
        <path id="LWPOLYLINE_5688_" d="M76.869,64.533L76.848,64.536L76.803,64.557L76.742,64.604L76.672,64.667L76.601,64.726L76.438,64.816L76.385,64.832" style="fill:none;stroke:rgb(18,16,11);stroke-width:0.71px;"/>
        <path id="LWPOLYLINE_5687_" d="M80.947,64.811L80.139,64.681L79.937,64.663L79.329,64.609L78.591,64.594L78.527,64.592L78.293,64.597" style="fill:none;stroke:rgb(18,16,11);stroke-width:0.71px;"/>
        <path id="LWPOLYLINE_5686_" d="M75.162,69.192L75.651,68.978L76.045,68.863L76.305,68.788L76.988,68.662L77.166,68.643L77.653,68.591L78.434,68.56L78.439,68.56L79.146,68.576L79.764,68.629L79.936,68.645L80.757,68.774" style="fill:none;stroke:rgb(18,16,11);stroke-width:0.71px;"/>
        <path id="LWPOLYLINE_5685_" d="M76.385,64.832L76.154,64.899L75.783,65.007L75.363,65.182L75.26,65.235" style="fill:none;stroke:rgb(18,16,11);stroke-width:0.71px;"/>
        <path id="LWPOLYLINE_5684_" d="M78.293,64.597L77.604,64.572L77.305,64.557L76.869,64.533" style="fill:none;stroke:rgb(18,16,11);stroke-width:0.71px;"/>
        <path id="LWPOLYLINE_5683_" d="M76.385,64.832L76.361,64.58L76.283,64.336L76.16,64.135L76.012,64.009" style="fill:none;stroke:rgb(18,16,11);stroke-width:0.71px;"/>
        <path id="LWPOLYLINE_5682_" d="M73.658,42.423L73.346,50.383L73.006,59.003" style="fill:none;stroke:rgb(18,16,11);stroke-width:0.71px;"/>
        <path id="LINE_4625_" d="M79.487,41.047L73.882,42.348" style="fill:none;stroke:rgb(18,16,11);stroke-width:0.71px;"/>
        <path id="LWPOLYLINE_5681_" d="M76.869,64.533L76.881,64.414L76.881,64.291L76.87,64.17L76.848,64.053" style="fill:none;stroke:rgb(18,16,11);stroke-width:0.71px;"/>
        <path id="LWPOLYLINE_5680_" d="M73.514,41.523L73.66,41.65L73.781,41.852L73.859,42.096L73.882,42.348" style="fill:none;stroke:rgb(18,16,11);stroke-width:0.71px;"/>
        <path id="LWPOLYLINE_5679_" d="M73.658,42.423L73.425,42.452L73.166,42.447L72.922,42.409" style="fill:none;stroke:rgb(18,16,11);stroke-width:0.71px;"/>
        <path id="LWPOLYLINE_5678_" d="M70.469,43.353L70.549,43.389L70.645,43.42L70.752,43.444L70.869,43.463" style="fill:none;stroke:rgb(18,16,11);stroke-width:0.71px;"/>
        <path id="LWPOLYLINE_5677_" d="M73.195,41.63L72.449,41.635L72.406,41.635L71.926,41.731L71.401,41.97L71.277,42.025L70.813,42.451L70.738,42.583L70.563,42.898L70.469,43.353" style="fill:none;stroke:rgb(18,16,11);stroke-width:0.71px;"/>
        <path id="LWPOLYLINE_5676_" d="M72.922,42.409L72.934,42.268L72.939,42.186L72.996,41.959L73.084,41.769L73.195,41.63" style="fill:none;stroke:rgb(18,16,11);stroke-width:0.71px;"/>
        <path id="LWPOLYLINE_5675_" d="M73.658,42.423L73.606,42.209L73.6,42.183L73.492,41.948L73.385,41.802L73.359,41.768L73.35,41.754L73.291,41.707L73.233,41.661L73.195,41.63" style="fill:none;stroke:rgb(18,16,11);stroke-width:0.71px;"/>
        <path id="LWPOLYLINE_5674_" d="M73.514,41.523L73.354,41.568L73.195,41.63" style="fill:none;stroke:rgb(18,16,11);stroke-width:0.71px;"/>
        <path id="LINE_4624_" d="M69.992,43.095L70.469,43.353" style="fill:none;stroke:rgb(18,16,11);stroke-width:0.71px;"/>
        <path id="LWPOLYLINE_5673_" d="M71.896,40.646L71.363,40.859L71.217,40.982L70.688,41.428L70.617,41.542L70.202,42.219L70.188,42.281L69.992,43.095" style="fill:none;stroke:rgb(18,16,11);stroke-width:0.71px;"/>
        <path id="LINE_4623_" d="M81.557,42.169L81.575,42.18" style="fill:none;stroke:rgb(18,16,11);stroke-width:0.71px;"/>
        <path id="LWPOLYLINE_5672_" d="M70.469,43.353L70.176,49.061L69.589,60.535" style="fill:none;stroke:rgb(18,16,11);stroke-width:0.71px;"/>
        <path id="LWPOLYLINE_5671_" d="M69.873,42.902L69.884,43L69.992,43.095" style="fill:none;stroke:rgb(18,16,11);stroke-width:0.71px;"/>
        <path id="LINE_4622_" d="M71.896,40.646L71.745,40.611" style="fill:none;stroke:rgb(18,16,11);stroke-width:0.71px;"/>
        <path id="LINE_4621_" d="M69.992,43.095L68.852,60.135" style="fill:none;stroke:rgb(18,16,11);stroke-width:0.71px;"/>
        <path id="LINE_4620_" d="M79.274,38.964L78.676,38.677" style="fill:none;stroke:rgb(18,16,11);stroke-width:0.71px;"/>
        <path id="LWPOLYLINE_5670_" d="M73.18,58.933L73.934,59.214L74.958,59.77L74.99,59.798" style="fill:none;stroke:rgb(18,16,11);stroke-width:0.71px;"/>
        <path id="LINE_4619_" d="M83.144,40.594L79.984,41.327" style="fill:none;stroke:rgb(18,16,11);stroke-width:0.71px;"/>
        <path id="LINE_4618_" d="M79.487,41.047L79.984,41.316" style="fill:none;stroke:rgb(18,16,11);stroke-width:0.71px;"/>
        <path id="LWPOLYLINE_5669_" d="M90.23,73.006L91.903,72.964L93.472,72.783L94.534,72.661L96.349,72.252L97.355,72.025L98.714,71.479L99.561,71.14L100.411,70.505L101.004,70.063L101.333,69.39L101.59,68.864" style="fill:none;stroke:rgb(18,16,11);stroke-width:0.71px;"/>
        <path id="LWPOLYLINE_5668_" d="M75.369,69.437L76.152,70.056L76.668,70.463L78.056,71.096L78.898,71.48L80.588,71.958L81.737,72.283L83.589,72.587L84.998,72.818L86.872,72.943L88.464,73.05L90.23,73.006" style="fill:none;stroke:rgb(18,16,11);stroke-width:0.71px;"/>
        <path id="LINE_4617_" d="M68.742,60.045L68.592,66.414" style="fill:none;stroke:rgb(18,16,11);stroke-width:0.71px;"/>
    </g>
    <g transform="matrix(2.01005,0,0,2.01005,0,0)">
        <path d="M63.217,75.666L69.097,75.666L69.097,83.889L72.444,83.889L66.157,90.033L59.87,83.889L63.217,83.889L63.217,75.666ZM66.157,88.674L70.07,84.85L68.113,84.85L68.113,76.627L64.2,76.627L64.2,84.85L62.243,84.85L66.157,88.674Z" style="fill-rule:nonzero;"/>
    </g>
</svg>
