<?xml version="1.0" encoding="UTF-8" standalone="no"?>
<!DOCTYPE svg PUBLIC "-//W3C//DTD SVG 1.1//EN" "http://www.w3.org/Graphics/SVG/1.1/DTD/svg11.dtd">
<svg width="100%" height="100%" viewBox="0 0 400 286" version="1.1" xmlns="http://www.w3.org/2000/svg" xmlns:xlink="http://www.w3.org/1999/xlink" xml:space="preserve" xmlns:serif="http://www.serif.com/" style="fill-rule:evenodd;clip-rule:evenodd;stroke-linecap:round;stroke-linejoin:round;stroke-miterlimit:10;">
    <g id="INSERT_15_" transform="matrix(2.01005,0,0,2.01005,0,0)">
        <path id="LWPOLYLINE_7596_" d="M98.512,75.104L98.494,75.143L98.397,75.351L98.357,75.385L98.128,75.588L98.073,75.618L97.72,75.806L97.652,75.829L97.186,75.994L97.11,76.013L96.547,76.148L96.471,76.16L95.831,76.26L95.754,76.267L95.062,76.328L94.991,76.33L94.272,76.345L94.21,76.344L93.492,76.315L93.44,76.309L92.753,76.235L92.713,76.229L92.083,76.112L92.053,76.104L91.509,75.947L91.052,75.75L91.043,75.743L90.734,75.526L90.561,75.285L90.546,75.038" style="fill:none;stroke:rgb(18,16,11);stroke-width:0.71px;"/>
        <path id="LINE_5964_" d="M94.583,80.665L94.052,80.648" style="fill:none;stroke:rgb(18,16,11);stroke-width:0.71px;"/>
        <path id="LINE_5963_" d="M96.768,79.996L96.706,80.155" style="fill:none;stroke:rgb(18,16,11);stroke-width:0.71px;"/>
        <path id="LWPOLYLINE_7020_" d="M96.706,80.155L96.686,80.177L96.398,80.365L95.932,80.519L95.333,80.621L94.66,80.665L94.583,80.665" style="fill:none;stroke:rgb(18,16,11);stroke-width:0.71px;"/>
        <path id="LWPOLYLINE_7019_" d="M94.052,80.648L93.978,80.644L93.354,80.56L92.848,80.422L92.512,80.244L92.379,80.041L92.377,80.02" style="fill:none;stroke:rgb(18,16,11);stroke-width:0.71px;"/>
        <path id="LINE_5460_" d="M94.285,80.736L94.329,90.891" style="fill:none;stroke:rgb(18,16,11);stroke-width:0.71px;"/>
        <path id="LINE_5459_" d="M94.329,90.891L92.186,90.086" style="fill:none;stroke:rgb(18,16,11);stroke-width:0.71px;"/>
        <path id="LINE_5458_" d="M92.186,90.086L92.143,79.931" style="fill:none;stroke:rgb(18,16,11);stroke-width:0.71px;"/>
        <path id="LINE_5457_" d="M94.274,80.731L94.285,80.736" style="fill:none;stroke:rgb(18,16,11);stroke-width:0.71px;"/>
        <path id="LINE_5456_" d="M92.143,79.931L92.377,80.02" style="fill:none;stroke:rgb(18,16,11);stroke-width:0.71px;"/>
        <path id="LINE_5455_" d="M97.045,90.238L94.329,90.891" style="fill:none;stroke:rgb(18,16,11);stroke-width:0.71px;"/>
        <path id="LINE_5454_" d="M94.285,80.736L94.583,80.665" style="fill:none;stroke:rgb(18,16,11);stroke-width:0.71px;"/>
        <path id="LINE_5453_" d="M97.001,80.084L97.045,90.238" style="fill:none;stroke:rgb(18,16,11);stroke-width:0.71px;"/>
        <path id="LINE_5452_" d="M96.768,79.996L97.001,80.084" style="fill:none;stroke:rgb(18,16,11);stroke-width:0.71px;"/>
        <path id="LINE_5451_" d="M92.143,79.931L92.376,79.875" style="fill:none;stroke:rgb(18,16,11);stroke-width:0.71px;"/>
        <path id="LWPOLYLINE_7018_" d="M101.563,120.643L101.973,120.754L103.059,121.151L103.944,121.594L104.605,122.073L105.029,122.573L105.201,123.088L105.121,123.6L104.791,124.101L104.217,124.574L103.414,125.014L102.398,125.406L101.198,125.74L99.841,126.012L98.359,126.213L96.787,126.338L95.164,126.383L93.529,126.35L91.92,126.238L90.377,126.048L88.936,125.787L87.632,125.463L86.496,125.078L85.556,124.646L84.834,124.177" style="fill:none;stroke:rgb(18,16,11);stroke-width:0.28px;"/>
        <path id="LWPOLYLINE_7017_" d="M84.458,124.591L85.208,125.078L86.145,125.514" style="fill:none;stroke:rgb(18,16,11);stroke-width:0.28px;"/>
        <path id="LWPOLYLINE_7016_" d="M86.184,125.527L87.167,125.858L87.363,125.925L88.716,126.263L89.089,126.331L90.211,126.534L91.279,126.664L91.813,126.73L93.482,126.847L93.624,126.849L95.179,126.882L96.022,126.856L96.863,126.833L98.359,126.715L98.494,126.703L100.032,126.496L100.501,126.402L101.441,126.215L102.375,125.953L102.687,125.867L103.74,125.459L103.879,125.385L104.574,125.005L104.922,124.718L105.17,124.512L105.514,123.992L105.596,123.46" style="fill:none;stroke:rgb(18,16,11);stroke-width:0.28px;"/>
        <path id="LWPOLYLINE_7015_" d="M84.834,124.177L84.695,124.221L84.573,124.313L84.49,124.443L84.458,124.591" style="fill:none;stroke:rgb(18,16,11);stroke-width:0.28px;"/>
        <path id="LINE_5450_" d="M84.458,124.591L84.386,126.994" style="fill:none;stroke:rgb(18,16,11);stroke-width:0.28px;"/>
        <path id="LINE_5449_" d="M86.919,123.899L83.685,123.715" style="fill:none;stroke:rgb(18,16,11);stroke-width:0.28px;"/>
        <path id="LWPOLYLINE_6666_" d="M91.195,110.831L91.917,110.512L93.037,110.269L94.369,110.162L95.752,110.209L97.02,110.4L98.018,110.714L98.628,111.111L98.776,111.548L98.444,111.967L97.672,112.319L96.552,112.563L95.22,112.669L93.838,112.622L92.57,112.433L91.571,112.118L90.96,111.719L90.856,111.572" style="fill:none;stroke:rgb(18,16,11);stroke-width:0.28px;"/>
        <path id="LWPOLYLINE_6665_" d="M84.386,126.994L84.411,127.14L84.489,127.256" style="fill:none;stroke:rgb(18,16,11);stroke-width:0.28px;"/>
        <path id="LWPOLYLINE_6664_" d="M90.653,113.337L90.652,113.36L90.66,113.438L90.683,113.517L90.768,113.663" style="fill:none;stroke:rgb(18,16,11);stroke-width:0.28px;"/>
        <path id="LWPOLYLINE_6663_" d="M90.768,113.663L91.234,114.317L91.509,114.829L91.743,115.449L91.88,116.092L91.909,116.724L91.832,117.343L91.65,117.921L91.371,118.438L91.088,118.793L90.556,119.226L90.349,119.322" style="fill:none;stroke:rgb(18,16,11);stroke-width:0.28px;"/>
        <path id="LWPOLYLINE_6662_" d="M91.071,112.92C91.067,112.92 90.951,112.951 90.951,112.951L90.918,112.971C90.913,112.974 90.83,113.023 90.83,113.023L90.786,113.066L90.777,113.076L90.738,113.115L90.693,113.196L90.678,113.224L90.653,113.339" style="fill:none;stroke:rgb(18,16,11);stroke-width:0.28px;"/>
        <path id="LWPOLYLINE_6661_" d="M91.514,109.846L91.519,109.837L91.527,109.823L91.569,109.757L91.605,109.732C91.613,109.725 91.653,109.695 91.653,109.695L91.73,109.674C91.735,109.672 91.766,109.664 91.766,109.664L91.872,109.671" style="fill:none;stroke:rgb(18,16,11);stroke-width:0.28px;"/>
        <path id="LWPOLYLINE_6660_" d="M88.247,123.358L87.979,123.609L87.656,123.783L87.487,123.829L87.295,123.881L86.919,123.899" style="fill:none;stroke:rgb(18,16,11);stroke-width:0.28px;"/>
        <path id="LWPOLYLINE_6659_" d="M88.569,122.816C88.567,122.821 88.483,123.003 88.483,123.003C88.481,123.01 88.445,123.072 88.445,123.072L88.369,123.182L88.338,123.227L88.248,123.358" style="fill:none;stroke:rgb(18,16,11);stroke-width:0.28px;"/>
        <path id="LWPOLYLINE_6658_" d="M91.893,116.856L91.568,117.644L91.371,117.856" style="fill:none;stroke:rgb(18,16,11);stroke-width:0.28px;"/>
        <path id="LWPOLYLINE_6657_" d="M88.853,112.263L88.841,112.238L88.794,112.18" style="fill:none;stroke:rgb(18,16,11);stroke-width:0.28px;"/>
        <path id="LINE_5448_" d="M88.794,112.18L90.405,112.251" style="fill:none;stroke:rgb(18,16,11);stroke-width:0.28px;"/>
        <path id="LWPOLYLINE_6656_" d="M91.195,110.831L91.145,110.887L91.128,110.905L91.077,111.025L91.043,111.174L91.031,111.328" style="fill:none;stroke:rgb(18,16,11);stroke-width:0.28px;"/>
        <path id="LINE_5447_" d="M90.833,111.553L90.856,111.572" style="fill:none;stroke:rgb(18,16,11);stroke-width:0.28px;"/>
        <path id="LINE_5446_" d="M91.031,111.328L91.025,111.762" style="fill:none;stroke:rgb(18,16,11);stroke-width:0.28px;"/>
        <path id="LWPOLYLINE_6655_" d="M82.697,123.66L83.234,123.689L83.685,123.715" style="fill:none;stroke:rgb(18,16,11);stroke-width:0.28px;"/>
        <path id="LWPOLYLINE_6654_" d="M91.23,112.281L91.147,112.321L91.066,112.362L91.007,112.393L90.925,112.476L90.896,112.506L90.828,112.624L90.823,112.636L90.803,112.703" style="fill:none;stroke:rgb(18,16,11);stroke-width:0.28px;"/>
        <path id="LWPOLYLINE_6653_" d="M88.794,112.18L88.855,112.228L88.884,112.268" style="fill:none;stroke:rgb(18,16,11);stroke-width:0.28px;"/>
        <path id="LINE_5445_" d="M88.772,111.616L88.644,111.588" style="fill:none;stroke:rgb(18,16,11);stroke-width:0.28px;"/>
        <path id="LWPOLYLINE_6652_" d="M82.356,123.54L82.367,123.563L82.393,123.58L82.435,123.608L82.525,123.635L82.551,123.642L82.636,123.651L82.697,123.66" style="fill:none;stroke:rgb(18,16,11);stroke-width:0.28px;"/>
        <path id="LWPOLYLINE_6651_" d="M88.528,111.558L88.603,111.466L88.714,111.432L88.844,111.459" style="fill:none;stroke:rgb(18,16,11);stroke-width:0.28px;"/>
        <path id="LINE_5444_" d="M82.281,124.03L82.26,126.443" style="fill:none;stroke:rgb(18,16,11);stroke-width:0.28px;"/>
        <path id="LWPOLYLINE_6650_" d="M83.685,123.715L83.601,123.781L83.527,123.895L83.477,124.037L83.457,124.188" style="fill:none;stroke:rgb(18,16,11);stroke-width:0.28px;"/>
        <path id="LWPOLYLINE_6646_" d="M84.708,110.803L84.626,110.803L84.545,110.808" style="fill:none;stroke:rgb(18,16,11);stroke-width:0.28px;"/>
        <path id="LINE_5442_" d="M88.726,111.191L88.726,111.198" style="fill:none;stroke:rgb(18,16,11);stroke-width:0.28px;"/>
        <path id="LWPOLYLINE_6645_" d="M89.183,110.718L89.011,110.784L88.865,110.897L88.765,111.04L88.737,111.118L88.726,111.191" style="fill:none;stroke:rgb(18,16,11);stroke-width:0.28px;"/>
        <path id="LINE_5441_" d="M88.726,111.198L88.718,111.433" style="fill:none;stroke:rgb(18,16,11);stroke-width:0.28px;"/>
        <path id="LWPOLYLINE_6644_" d="M88.836,110.884L88.936,110.741L89.083,110.628L89.254,110.562" style="fill:none;stroke:rgb(18,16,11);stroke-width:0.28px;"/>
        <path id="LWPOLYLINE_6643_" d="M91.747,110.193L91.606,110.17" style="fill:none;stroke:rgb(18,16,11);stroke-width:0.28px;"/>
        <path id="LWPOLYLINE_6642_" d="M86.085,109.971L85.92,109.984" style="fill:none;stroke:rgb(18,16,11);stroke-width:0.28px;"/>
        <path id="LWPOLYLINE_6641_" d="M86.334,109.979L86.255,109.895L86.117,109.843L85.952,109.853" style="fill:none;stroke:rgb(18,16,11);stroke-width:0.28px;"/>
        <path id="LWPOLYLINE_6640_" d="M87.993,113.783L87.229,113.845L86.506,114.077L85.868,114.472L85.351,115.001L84.985,115.636L84.792,116.34L84.782,117.073L84.957,117.79L85.306,118.452L85.809,119.018L86.437,119.457L87.152,119.742L87.914,119.859L88.679,119.798L89.401,119.564L90.04,119.17L90.557,118.642L90.923,118.006L91.116,117.301L91.125,116.569L90.951,115.853L90.602,115.19L90.099,114.625L89.472,114.186L88.756,113.899L87.993,113.783Z" style="fill:none;stroke:rgb(18,16,11);stroke-width:0.28px;"/>
        <path id="LINE_5440_" d="M86.328,117.65L86.351,115.875" style="fill:none;stroke:rgb(18,16,11);stroke-width:0.28px;"/>
        <path id="LINE_5439_" d="M89.58,115.992L89.557,117.767" style="fill:none;stroke:rgb(18,16,11);stroke-width:0.28px;"/>
        <path id="LINE_5438_" d="M86.351,115.875L87.978,115.046" style="fill:none;stroke:rgb(18,16,11);stroke-width:0.28px;"/>
        <path id="LINE_5437_" d="M89.557,117.767L87.931,118.597" style="fill:none;stroke:rgb(18,16,11);stroke-width:0.28px;"/>
        <path id="LINE_5436_" d="M87.978,115.046L89.58,115.992" style="fill:none;stroke:rgb(18,16,11);stroke-width:0.28px;"/>
        <path id="LINE_5435_" d="M87.931,118.597L86.328,117.65" style="fill:none;stroke:rgb(18,16,11);stroke-width:0.28px;"/>
        <path id="LWPOLYLINE_6639_" d="M88.029,113.279L87.169,113.348L86.356,113.61L85.639,114.053L85.058,114.648L84.646,115.363L84.429,116.155L84.418,116.979L84.614,117.787L85.007,118.53L85.572,119.167L86.278,119.661L87.083,119.982L87.941,120.112L88.801,120.044L89.613,119.781L90.331,119.34L90.912,118.743L91.324,118.029L91.541,117.236L91.552,116.413L91.355,115.606L90.963,114.862L90.397,114.226L89.691,113.731L88.886,113.41L88.029,113.279Z" style="fill:none;stroke:rgb(18,16,11);stroke-width:0.28px;"/>
        <path id="LWPOLYLINE_6636_" d="M89.177,112.317L89.159,112.31L88.302,112.18L87.442,112.248L86.629,112.511L85.912,112.953L85.33,113.549L84.918,114.264L84.701,115.056" style="fill:none;stroke:rgb(18,16,11);stroke-width:0.28px;"/>
        <path id="LINE_5434_" d="M86.328,117.65L86.431,117.234" style="fill:none;stroke:rgb(18,16,11);stroke-width:0.28px;"/>
        <path id="LINE_5433_" d="M86.431,117.234L86.449,115.825" style="fill:none;stroke:rgb(18,16,11);stroke-width:0.28px;"/>
        <path id="LINE_5432_" d="M87.931,118.597L88.034,118.181" style="fill:none;stroke:rgb(18,16,11);stroke-width:0.28px;"/>
        <path id="LINE_5431_" d="M88.034,118.181L86.431,117.234" style="fill:none;stroke:rgb(18,16,11);stroke-width:0.28px;"/>
        <path id="LINE_5430_" d="M89.562,117.4L88.034,118.181" style="fill:none;stroke:rgb(18,16,11);stroke-width:0.28px;"/>
        <path id="LWPOLYLINE_6635_" d="M88.896,109.279L88.552,109.483L88.207,109.683L87.907,109.853L87.605,110.018L87.591,110.024" style="fill:none;stroke:rgb(18,16,11);stroke-width:0.28px;"/>
        <path id="LWPOLYLINE_6634_" d="M90.139,110.117L90.125,110.109L89.834,109.923L89.547,109.731L89.221,109.507L88.896,109.279" style="fill:none;stroke:rgb(18,16,11);stroke-width:0.28px;"/>
        <path id="LWPOLYLINE_6633_" d="M87.81,110.032L88.233,109.939L88.865,109.907L89.495,109.984L89.917,110.109" style="fill:none;stroke:rgb(18,16,11);stroke-width:0.28px;"/>
        <path id="LINE_5429_" d="M89.082,108.533L88.896,109.279" style="fill:none;stroke:rgb(18,16,11);stroke-width:0.28px;"/>
        <path id="LWPOLYLINE_6632_" d="M90.887,109.485L90.354,109.181L90.057,109.021L89.762,108.868L89.421,108.696L89.082,108.533" style="fill:none;stroke:rgb(18,16,11);stroke-width:0.28px;"/>
        <path id="LWPOLYLINE_6631_" d="M91.509,109.867L91.416,109.808L90.887,109.485" style="fill:none;stroke:rgb(18,16,11);stroke-width:0.28px;"/>
        <path id="LWPOLYLINE_6630_" d="M87.3,109.355L86.759,109.64L86.458,109.805L86.27,109.911" style="fill:none;stroke:rgb(18,16,11);stroke-width:0.28px;"/>
        <path id="LWPOLYLINE_6629_" d="M89.082,108.533L88.753,108.674L88.42,108.82L88.129,108.951L87.835,109.089L87.3,109.355" style="fill:none;stroke:rgb(18,16,11);stroke-width:0.28px;"/>
        <path id="LWPOLYLINE_6628_" d="M98.512,75.104C98.465,59.76 97.738,45.132 92.624,30.522C90.665,24.923 88.355,19.454 86.05,13.992" style="fill:none;stroke:rgb(18,16,11);stroke-width:0.71px;"/>
        <path id="LWPOLYLINE_6627_" d="M90.546,75.038L90.503,67.352L90.27,59.699L90.034,56.083" style="fill:none;stroke:rgb(18,16,11);stroke-width:0.71px;"/>
        <path id="LWPOLYLINE_6626_" d="M90.041,56.133C88.722,42.48 84.337,30.316 79.099,17.729" style="fill:none;stroke:rgb(18,16,11);stroke-width:0.71px;"/>
        <path id="LINE_5428_" d="M81.435,23.14C80.654,21.324 79.874,19.507 79.093,17.692" style="fill:none;stroke:rgb(18,16,11);stroke-width:0.71px;"/>
        <path id="LINE_5426_" d="M92.361,76.164L92.377,80.02" style="fill:none;stroke:rgb(18,16,11);stroke-width:0.71px;"/>
        <path id="LINE_5425_" d="M96.75,76.099L96.768,79.996" style="fill:none;stroke:rgb(18,16,11);stroke-width:0.71px;"/>
        <path id="LWPOLYLINE_6625_" d="M105.596,123.46L105.566,123.317L105.387,122.785L105.301,122.668L104.867,122.152L104.188,121.662L104.074,121.601L103.178,121.151L102.074,120.749L101.561,120.609" style="fill:none;stroke:rgb(18,16,11);stroke-width:0.28px;"/>
        <path id="LWPOLYLINE_6624_" d="M105.596,123.46L105.612,125.912L105.514,126.395" style="fill:none;stroke:rgb(18,16,11);stroke-width:0.28px;"/>
        <path id="LWPOLYLINE_6623_" d="M105.502,126.449L105.473,126.594L105.1,127.114L105.018,127.23L104.393,127.72L104.275,127.785L103.426,128.229L102.361,128.623L101.108,128.959L99.698,129.229L98.163,129.423L96.542,129.539L94.874,129.574L93.201,129.526L91.56,129.398L89.994,129.191L88.54,128.912L87.232,128.566L86.104,128.164L85.181,127.713L85.068,127.646L84.489,127.256" style="fill:none;stroke:rgb(18,16,11);stroke-width:0.28px;"/>
        <path id="LINE_5424_" d="M101.594,121.833L101.409,114.876" style="fill:none;stroke:rgb(18,16,11);stroke-width:0.28px;"/>
        <path id="LWPOLYLINE_6622_" d="M101.579,121.928L101.34,112.019" style="fill:none;stroke:rgb(18,16,11);stroke-width:0.28px;"/>
        <path id="LWPOLYLINE_6621_" d="M91.766,109.665L92.614,109.552L93.836,109.467L95.097,109.462L96.346,109.535L97.532,109.685L98.61,109.904L99.535,110.184L100.271,110.515L100.381,110.576L100.908,110.95L100.99,111.062L101.277,111.466L101.311,111.605L101.33,111.863" style="fill:none;stroke:rgb(18,16,11);stroke-width:0.28px;"/>
        <path id="LINE_5423_" d="M101.594,121.833L101.702,122.303" style="fill:none;stroke:rgb(18,16,11);stroke-width:0.28px;"/>
        <path id="LINE_5422_" d="M101.645,122.051L101.818,122.287" style="fill:none;stroke:rgb(18,16,11);stroke-width:0.28px;"/>
        <path id="LINE_5421_" d="M86.513,128.311L86.514,129.108" style="fill:none;stroke:rgb(18,16,11);stroke-width:0.28px;"/>
        <path id="LINE_5420_" d="M102.644,128.519L102.62,129.363" style="fill:none;stroke:rgb(18,16,11);stroke-width:0.28px;"/>
        <path id="LINE_5419_" d="M90.678,113.221L90.713,113.088" style="fill:none;stroke:rgb(18,16,11);stroke-width:0.28px;"/>
        <path id="LINE_5418_" d="M90.685,113.209L90.803,112.703" style="fill:none;stroke:rgb(18,16,11);stroke-width:0.28px;"/>
        <path id="LWPOLYLINE_6620_" d="M86.514,129.108L86.574,129.395L86.95,130.01L87.111,130.236L87.972,130.8L88.184,130.922L89.438,131.395L91.033,131.76L92.513,131.965L94.442,132.086L96.378,132.056L98.192,131.88L99.766,131.563L100.994,131.135L101.215,131.017L102.043,130.48L102.215,130.256L102.551,129.65L102.62,129.363" style="fill:none;stroke:rgb(18,16,11);stroke-width:0.28px;"/>
        <path id="LINE_5417_" d="M84.308,111.343L88.644,111.588" style="fill:none;stroke:rgb(18,16,11);stroke-width:0.28px;"/>
        <path id="LINE_5416_" d="M82.78,112.695L82.71,113.062" style="fill:none;stroke:rgb(18,16,11);stroke-width:0.28px;"/>
        <path id="LWPOLYLINE_6619_" d="M82.78,112.695L82.842,112.577L82.92,112.399" style="fill:none;stroke:rgb(18,16,11);stroke-width:0.28px;"/>
        <path id="LINE_5415_" d="M82.71,113.062L82.414,121.873" style="fill:none;stroke:rgb(18,16,11);stroke-width:0.28px;"/>
        <path id="LWPOLYLINE_6618_" d="M82.719,113.109L82.356,123.54" style="fill:none;stroke:rgb(18,16,11);stroke-width:0.28px;"/>
        <path id="LINE_5414_" d="M90.833,111.553L88.714,111.432" style="fill:none;stroke:rgb(18,16,11);stroke-width:0.28px;"/>
        <path id="LWPOLYLINE_6617_" d="M82.97,112.286L83.14,112.045L83.184,111.992" style="fill:none;stroke:rgb(18,16,11);stroke-width:0.28px;"/>
        <path id="LINE_5413_" d="M83.209,111.965L83.184,111.992" style="fill:none;stroke:rgb(18,16,11);stroke-width:0.28px;"/>
        <path id="LWPOLYLINE_6616_" d="M83.222,111.953L83.437,111.742L83.537,111.66L83.856,111.441L83.945,111.388" style="fill:none;stroke:rgb(18,16,11);stroke-width:0.28px;"/>
        <path id="LINE_5412_" d="M88.517,111.581L88.53,111.555" style="fill:none;stroke:rgb(18,16,11);stroke-width:0.28px;"/>
        <path id="LWPOLYLINE_6615_" d="M84.308,111.343L84.195,111.342L84.082,111.35" style="fill:none;stroke:rgb(18,16,11);stroke-width:0.28px;"/>
        <path id="LINE_5410_" d="M84.693,124.222L84.574,124.313" style="fill:none;stroke:rgb(18,16,11);stroke-width:0.28px;"/>
        <path id="LWPOLYLINE_6614_" d="M84.573,124.315L84.693,124.222" style="fill:none;stroke:rgb(18,16,11);stroke-width:0.28px;"/>
        <path id="LINE_5409_" d="M84.834,124.177L84.697,124.221" style="fill:none;stroke:rgb(18,16,11);stroke-width:0.28px;"/>
        <path id="LWPOLYLINE_6613_" d="M84.693,124.222L84.834,124.177" style="fill:none;stroke:rgb(18,16,11);stroke-width:0.28px;"/>
        <path id="LWPOLYLINE_6612_" d="M83.945,111.388L83.954,111.381L84.006,111.364L84.082,111.35" style="fill:none;stroke:rgb(18,16,11);stroke-width:0.28px;"/>
        <path id="LWPOLYLINE_6610_" d="M82.259,126.403L82.318,126.731L82.822,126.775L83.25,126.837L83.686,126.93L84.03,127.033L84.328,127.156" style="fill:none;stroke:rgb(18,16,11);stroke-width:0.28px;"/>
        <path id="LINE_5407_" d="M84.241,127.103L84.489,127.256" style="fill:none;stroke:rgb(18,16,11);stroke-width:0.28px;"/>
        <path id="LINE_5406_" d="M86.083,109.971L91.606,110.17" style="fill:none;stroke:rgb(18,16,11);stroke-width:0.28px;"/>
        <path id="LINE_5405_" d="M88.765,111.04L88.836,110.884" style="fill:none;stroke:rgb(18,16,11);stroke-width:0.28px;"/>
        <path id="LINE_5404_" d="M83.74,110.596L83.799,110.456" style="fill:none;stroke:rgb(18,16,11);stroke-width:0.28px;"/>
        <path id="LWPOLYLINE_6608_" d="M83.599,111.132L83.632,110.883L83.64,110.843L83.71,110.668" style="fill:none;stroke:rgb(18,16,11);stroke-width:0.28px;"/>
        <path id="LINE_5403_" d="M91.453,110.164L91.605,109.731" style="fill:none;stroke:rgb(18,16,11);stroke-width:0.28px;"/>
        <path id="LINE_5402_" d="M91.435,110.164L91.52,109.838" style="fill:none;stroke:rgb(18,16,11);stroke-width:0.28px;"/>
        <path id="LINE_5401_" d="M91.48,109.987L91.514,109.846" style="fill:none;stroke:rgb(18,16,11);stroke-width:0.28px;"/>
        <path id="LINE_5400_" d="M85.022,109.779L86.114,109.841" style="fill:none;stroke:rgb(18,16,11);stroke-width:0.28px;"/>
        <path id="LWPOLYLINE_6607_" d="M84.133,110.058L84.176,110.032L84.646,109.813L85.022,109.779" style="fill:none;stroke:rgb(18,16,11);stroke-width:0.28px;"/>
        <path id="LINE_5399_" d="M83.599,111.132L83.583,111.629" style="fill:none;stroke:rgb(18,16,11);stroke-width:0.28px;"/>
        <path id="LINE_5398_" d="M82.415,121.106L82.439,121.109" style="fill:none;stroke:rgb(18,16,11);stroke-width:0.28px;"/>
        <path id="LINE_5397_" d="M84.701,115.056L84.429,116.155" style="fill:none;stroke:rgb(18,16,11);stroke-width:0.28px;"/>
        <path id="LINE_5396_" d="M91.798,116.201L91.541,117.236" style="fill:none;stroke:rgb(18,16,11);stroke-width:0.28px;"/>
        <path id="LWPOLYLINE_6606_" d="M83.71,110.668L83.74,110.596L83.92,110.383L83.965,110.361L84.153,110.269L84.312,110.254L84.323,110.257L84.537,110.313" style="fill:none;stroke:rgb(18,16,11);stroke-width:0.28px;"/>
        <path id="LWPOLYLINE_6605_" d="M83.161,112.02L82.97,112.286L82.92,112.399" style="fill:none;stroke:rgb(18,16,11);stroke-width:0.28px;"/>
        <path id="LWPOLYLINE_6604_" d="M84.045,111.891L83.547,111.963L83.508,111.97L83.125,112.213L83.061,112.255L82.841,112.601L82.78,112.695" style="fill:none;stroke:rgb(18,16,11);stroke-width:0.28px;"/>
        <path id="LWPOLYLINE_6603_" d="M101.33,111.863L101.34,112.019L101.118,112.406L101.108,112.421" style="fill:none;stroke:rgb(18,16,11);stroke-width:0.28px;"/>
        <path id="LWPOLYLINE_6602_" d="M85.915,127.853L87.069,128.266L87.093,128.271L88.407,128.618L89.04,128.739L89.895,128.904L91.231,129.08L91.496,129.115L93.173,129.247L93.589,129.258L94.886,129.295L95.997,129.271L96.591,129.258L98.249,129.141L98.342,129.129L99.817,128.94L100.492,128.813L101.262,128.666L102.383,128.365L102.542,128.323L103.63,127.919L103.877,127.79L104.5,127.465L104.936,127.123L105.129,126.97L105.502,126.449L105.514,126.395" style="fill:none;stroke:rgb(18,16,11);stroke-width:0.28px;"/>
        <path id="LWPOLYLINE_6601_" d="M84.386,126.994L84.972,127.393L85.547,127.673L85.915,127.853" style="fill:none;stroke:rgb(18,16,11);stroke-width:0.28px;"/>
        <path id="LWPOLYLINE_6600_" d="M101.591,121.732L102.271,122.145L102.717,122.59L102.906,123.051L102.835,123.512L102.506,123.957L101.927,124.377L101.118,124.752L100.105,125.077L98.919,125.336L97.597,125.522L96.183,125.633L94.72,125.66L93.254,125.607L91.832,125.473L90.5,125.262L89.297,124.98L88.264,124.64L87.434,124.248L86.919,123.899" style="fill:none;stroke:rgb(18,16,11);stroke-width:0.28px;"/>
        <path id="LWPOLYLINE_6599_" d="M83.685,123.715L83.817,123.746L84.224,123.866L84.567,124.011L84.834,124.177" style="fill:none;stroke:rgb(18,16,11);stroke-width:0.28px;"/>
        <path id="LINE_5395_" d="M90.856,111.572L88.844,111.459" style="fill:none;stroke:rgb(18,16,11);stroke-width:0.28px;"/>
        <path id="LINE_5394_" d="M89.254,110.562L89.183,110.718" style="fill:none;stroke:rgb(18,16,11);stroke-width:0.28px;"/>
        <path id="LINE_5393_" d="M90.405,112.251L91.23,112.281" style="fill:none;stroke:rgb(18,16,11);stroke-width:0.28px;"/>
        <path id="LINE_5392_" d="M85.92,109.984L85.952,109.853" style="fill:none;stroke:rgb(18,16,11);stroke-width:0.28px;"/>
        <path id="LINE_5391_" d="M84.769,110.307L89.254,110.562" style="fill:none;stroke:rgb(18,16,11);stroke-width:0.28px;"/>
        <path id="LINE_5390_" d="M91.747,110.193L85.92,109.984" style="fill:none;stroke:rgb(18,16,11);stroke-width:0.28px;"/>
        <path id="LINE_5389_" d="M88.772,111.616L84.288,111.361" style="fill:none;stroke:rgb(18,16,11);stroke-width:0.28px;"/>
        <path id="LINE_5388_" d="M85.952,109.853L85.001,109.798" style="fill:none;stroke:rgb(18,16,11);stroke-width:0.28px;"/>
        <path id="LINE_5387_" d="M88.844,111.459L88.772,111.616" style="fill:none;stroke:rgb(18,16,11);stroke-width:0.28px;"/>
        <path id="LINE_5386_" d="M84.288,111.361L84.045,111.891" style="fill:none;stroke:rgb(18,16,11);stroke-width:0.28px;"/>
        <path id="LWPOLYLINE_6598_" d="M91.071,112.92L91.796,113.076L92.928,113.244L94.134,113.337" style="fill:none;stroke:rgb(18,16,11);stroke-width:0.28px;"/>
        <path id="LWPOLYLINE_6597_" d="M94.134,113.337L95.367,113.354L96.576,113.294L97.715,113.159L98.736,112.955L99.601,112.688L100.275,112.373L100.729,112.017L100.947,111.638L100.92,111.25L100.647,110.869L100.143,110.51L99.423,110.188L98.52,109.912L97.467,109.698L96.31,109.552L95.09,109.48L93.86,109.486L92.666,109.57L91.876,109.672" style="fill:none;stroke:rgb(18,16,11);stroke-width:0.28px;"/>
        <path id="LINE_5385_" d="M89.183,110.718L91.195,110.831" style="fill:none;stroke:rgb(18,16,11);stroke-width:0.28px;"/>
        <path id="LINE_5384_" d="M91.876,109.672L91.747,110.193" style="fill:none;stroke:rgb(18,16,11);stroke-width:0.28px;"/>
        <path id="LINE_5383_" d="M85.001,109.798L84.769,110.307" style="fill:none;stroke:rgb(18,16,11);stroke-width:0.28px;"/>
        <path id="LINE_5382_" d="M91.23,112.281L91.071,112.92" style="fill:none;stroke:rgb(18,16,11);stroke-width:0.28px;"/>
        <path id="LINE_5381_" d="M84.045,111.891L90.405,112.251" style="fill:none;stroke:rgb(18,16,11);stroke-width:0.28px;"/>
        <path id="LINE_5380_" d="M88.569,122.816L88.608,122.838" style="fill:none;stroke:rgb(18,16,11);stroke-width:0.28px;"/>
        <path id="LWPOLYLINE_6596_" d="M88.608,122.838L89.306,123.167L89.535,123.242L90.173,123.453L90.943,123.633L91.182,123.688L92.3,123.866L92.613,123.895L93.493,123.979L94.43,124.013L94.723,124.023L95.95,124.001L96.26,123.976L97.138,123.907L97.981,123.788L98.248,123.751L99.242,123.533L99.461,123.463L100.094,123.262L100.607,123.022L100.772,122.946L101.256,122.596L101.328,122.499L101.534,122.219L101.579,121.928L101.594,121.833" style="fill:none;stroke:rgb(18,16,11);stroke-width:0.28px;"/>
        <path id="LWPOLYLINE_6595_" d="M88.699,120.052L88.62,121.724L88.569,122.816" style="fill:none;stroke:rgb(18,16,11);stroke-width:0.28px;"/>
        <path id="LWPOLYLINE_6594_" d="M101.108,112.421L100.624,112.8L100.413,112.898L99.907,113.136L99.329,113.314L98.987,113.42L97.939,113.63L97.9,113.639" style="fill:none;stroke:rgb(18,16,11);stroke-width:0.28px;"/>
        <path id="LWPOLYLINE_6593_" d="M97.9,113.639L96.687,113.781L96.305,113.8L95.4,113.847L94.571,113.835L94.087,113.826L92.848,113.731L92.803,113.727L91.598,113.55L91.273,113.477L90.653,113.337" style="fill:none;stroke:rgb(18,16,11);stroke-width:0.28px;"/>
        <path id="LWPOLYLINE_6592_" d="M89.989,131.018L90.816,131.209L91.756,131.339L92.394,131.428L93.717,131.509L94.45,131.556L95.721,131.533L96.513,131.522L97.652,131.409L98.447,131.329L99.388,131.14L100.123,130.991L100.822,130.744L101.432,130.529L101.861,130.248L102.281,129.974L102.443,129.681L102.62,129.363" style="fill:none;stroke:rgb(18,16,11);stroke-width:0.28px;"/>
        <path id="LWPOLYLINE_6591_" d="M86.514,129.108L86.738,129.479L86.891,129.73L87.395,130.062L87.779,130.313L88.502,130.586L89.117,130.816L89.989,131.018" style="fill:none;stroke:rgb(18,16,11);stroke-width:0.28px;"/>
        <path id="LINE_5379_" d="M83.985,112.385L86.592,112.534" style="fill:none;stroke:rgb(18,16,11);stroke-width:0.28px;"/>
        <path id="LWPOLYLINE_6590_" d="M84.045,111.891L84.024,111.965L84.004,112.087L83.991,112.232L83.985,112.385" style="fill:none;stroke:rgb(18,16,11);stroke-width:0.28px;"/>
        <path id="LINE_5378_" d="M83.049,113.207L82.697,123.66" style="fill:none;stroke:rgb(18,16,11);stroke-width:0.28px;"/>
        <path id="LWPOLYLINE_6589_" d="M83.985,112.385L83.608,112.442L83.294,112.643L83.098,112.951L83.049,113.207" style="fill:none;stroke:rgb(18,16,11);stroke-width:0.28px;"/>
        <path id="LWPOLYLINE_6588_" d="M88.247,123.358L88.328,121.65L88.401,120.075" style="fill:none;stroke:rgb(18,16,11);stroke-width:0.28px;"/>
        <path id="LINE_5377_" d="M90.788,112.771L90.014,112.742" style="fill:none;stroke:rgb(18,16,11);stroke-width:0.28px;"/>
        <path id="LINE_5376_" d="M84.308,111.343L84.288,111.361" style="fill:none;stroke:rgb(18,16,11);stroke-width:0.28px;"/>
        <path id="LWPOLYLINE_6587_" d="M82.71,113.062L82.719,113.109L82.786,113.152L82.902,113.188L83.049,113.207" style="fill:none;stroke:rgb(18,16,11);stroke-width:0.28px;"/>
        <path id="LWPOLYLINE_6586_" d="M84.288,111.361L84.171,111.359L84.055,111.368" style="fill:none;stroke:rgb(18,16,11);stroke-width:0.28px;"/>
        <path id="LWPOLYLINE_6585_" d="M84.055,111.368L83.958,111.418L83.738,111.549L83.603,111.631L83.492,111.712L83.243,111.936" style="fill:none;stroke:rgb(18,16,11);stroke-width:0.28px;"/>
        <path id="LWPOLYLINE_6584_" d="M83.243,111.936L83.209,111.965L83.161,112.02" style="fill:none;stroke:rgb(18,16,11);stroke-width:0.28px;"/>
        <path id="LINE_5375_" d="M84.055,111.368L83.945,111.388" style="fill:none;stroke:rgb(18,16,11);stroke-width:0.28px;"/>
        <path id="LWPOLYLINE_6582_" d="M82.287,126.452L82.75,126.49L82.854,126.507L83.142,126.549L83.541,126.634L83.856,126.727L84.084,126.821L84.148,126.849L84.386,126.994" style="fill:none;stroke:rgb(18,16,11);stroke-width:0.28px;"/>
        <path id="LWPOLYLINE_6581_" d="M83.457,124.188L83.086,124.077L82.902,124.021L82.634,123.939" style="fill:none;stroke:rgb(18,16,11);stroke-width:0.28px;"/>
        <path id="LWPOLYLINE_6580_" d="M84.458,124.591L84.226,124.446L84.151,124.415L83.927,124.321L83.6,124.224L83.572,124.215L83.457,124.188" style="fill:none;stroke:rgb(18,16,11);stroke-width:0.28px;"/>
        <path id="LWPOLYLINE_6579_" d="M82.634,123.939L82.619,123.936L82.589,123.942L82.549,123.961L82.502,123.987L82.452,124.011L82.337,124.037L82.298,124.037" style="fill:none;stroke:rgb(18,16,11);stroke-width:0.28px;"/>
        <path id="LWPOLYLINE_6578_" d="M84.216,110.713L84.154,110.68L84.088,110.645L83.996,110.641L83.858,110.706L83.75,110.844L83.688,111.012L83.666,111.198" style="fill:none;stroke:rgb(18,16,11);stroke-width:0.28px;"/>
        <path id="LINE_5374_" d="M84.198,111.342L84.216,110.713" style="fill:none;stroke:rgb(18,16,11);stroke-width:0.28px;"/>
        <path id="LINE_5373_" d="M83.666,111.198L83.653,111.581" style="fill:none;stroke:rgb(18,16,11);stroke-width:0.28px;"/>
        <path id="LWPOLYLINE_6577_" d="M84.082,111.35L84.072,111.356L84.062,111.363" style="fill:none;stroke:rgb(18,16,11);stroke-width:0.28px;"/>
        <path id="LINE_5371_" d="M88.768,111.033L84.708,110.803" style="fill:none;stroke:rgb(18,16,11);stroke-width:0.28px;"/>
        <path id="LINE_5370_" d="M84.545,110.808L84.53,111.354" style="fill:none;stroke:rgb(18,16,11);stroke-width:0.28px;"/>
        <path id="LINE_5369_" d="M88.726,111.198L91.031,111.328" style="fill:none;stroke:rgb(18,16,11);stroke-width:0.28px;"/>
        <path id="LWPOLYLINE_6571_" d="M84.769,110.307L84.747,110.382L84.728,110.503L84.714,110.649L84.708,110.803" style="fill:none;stroke:rgb(18,16,11);stroke-width:0.28px;"/>
        <path id="LWPOLYLINE_6570_" d="M82.697,123.66L82.678,123.727L82.661,123.798L82.646,123.869L82.634,123.939" style="fill:none;stroke:rgb(18,16,11);stroke-width:0.28px;"/>
        <path id="LWPOLYLINE_6569_" d="M82.298,124.037L82.305,123.885L82.317,123.736L82.335,123.616L82.356,123.54" style="fill:none;stroke:rgb(18,16,11);stroke-width:0.28px;"/>
        <path id="LWPOLYLINE_6568_" d="M84.537,110.313L84.533,110.332L84.526,110.36L84.52,110.388C84.519,110.396 84.519,110.416 84.519,110.416L84.517,110.506L84.525,110.654L84.527,110.671L84.546,110.807" style="fill:none;stroke:rgb(18,16,11);stroke-width:0.28px;"/>
        <path id="LWPOLYLINE_6567_" d="M84.769,110.307L84.652,110.305L84.537,110.313" style="fill:none;stroke:rgb(18,16,11);stroke-width:0.28px;"/>
        <path id="LWPOLYLINE_6566_" d="M84.545,110.808L84.399,110.789L84.284,110.756L84.216,110.713" style="fill:none;stroke:rgb(18,16,11);stroke-width:0.28px;"/>
        <path id="LWPOLYLINE_6372_" d="M84.537,110.313L84.411,110.367L84.308,110.46L84.241,110.58L84.231,110.629L84.216,110.713" style="fill:none;stroke:rgb(18,16,11);stroke-width:0.28px;"/>
        <path id="LWPOLYLINE_6371_" d="M85.001,109.798L84.616,109.831L84.511,109.881L84.133,110.058L84.085,110.115L83.799,110.456" style="fill:none;stroke:rgb(18,16,11);stroke-width:0.28px;"/>
        <path id="LWPOLYLINE_6370_" d="M83.599,111.132L83.608,111.155L83.63,111.177L83.666,111.198" style="fill:none;stroke:rgb(18,16,11);stroke-width:0.28px;"/>
        <path id="LINE_5094_" d="M85.022,109.779L85.001,109.798" style="fill:none;stroke:rgb(18,16,11);stroke-width:0.28px;"/>
    </g>
    <g transform="matrix(2.01005,0,0,2.01005,0,0)">
        <path d="M100.852,92.584L106.731,92.584L106.731,100.807L110.079,100.807L103.792,106.951L97.505,100.807L100.852,100.807L100.852,92.584ZM103.791,105.592L107.704,101.768L105.748,101.768L105.748,93.545L101.834,93.545L101.834,101.768L99.878,101.768L103.791,105.592Z" style="fill-rule:nonzero;"/>
    </g>
    <g transform="matrix(2.01005,0,0,2.01005,0,0)">
        <path d="M73.989,14.027C73.989,14.138 73.983,14.235 73.971,14.317C73.959,14.399 73.939,14.465 73.909,14.515C73.879,14.565 73.846,14.601 73.808,14.624C73.77,14.647 73.73,14.659 73.689,14.659L69.523,14.659L69.523,18.526L73.461,18.526C73.502,18.526 73.542,18.537 73.58,18.557C73.618,18.577 73.652,18.611 73.681,18.658C73.71,18.705 73.731,18.768 73.743,18.846C73.755,18.926 73.761,19.027 73.761,19.15C73.761,19.261 73.755,19.356 73.743,19.436C73.731,19.514 73.711,19.58 73.681,19.629C73.651,19.678 73.618,19.717 73.58,19.742C73.542,19.769 73.502,19.782 73.461,19.782L69.523,19.782L69.523,24.519C69.523,24.56 69.511,24.6 69.488,24.638C69.465,24.676 69.424,24.705 69.365,24.726C69.306,24.747 69.23,24.763 69.136,24.779C69.042,24.793 68.919,24.8 68.767,24.8C68.626,24.8 68.506,24.792 68.407,24.779C68.307,24.763 68.228,24.747 68.17,24.726C68.112,24.705 68.07,24.676 68.047,24.638C68.024,24.6 68.012,24.56 68.012,24.519L68.012,13.992C68.012,13.763 68.072,13.604 68.192,13.513C68.312,13.422 68.44,13.376 68.574,13.376L73.689,13.376C73.73,13.376 73.77,13.388 73.808,13.411C73.846,13.434 73.88,13.473 73.909,13.525C73.938,13.577 73.959,13.647 73.971,13.731C73.983,13.818 73.989,13.916 73.989,14.027Z" style="fill-rule:nonzero;"/>
    </g>
    <g transform="matrix(2.01005,0,0,2.01005,0,0)">
        <path d="M109.228,87.661C109.228,87.778 109.222,87.877 109.21,87.955C109.198,88.035 109.18,88.102 109.152,88.158C109.127,88.214 109.093,88.254 109.056,88.281C109.017,88.306 108.972,88.32 108.919,88.32L103.892,88.32C103.757,88.32 103.63,88.275 103.509,88.183C103.39,88.093 103.329,87.933 103.329,87.704L103.329,77.176C103.329,77.129 103.341,77.088 103.364,77.053C103.387,77.018 103.428,76.99 103.487,76.969C103.546,76.949 103.625,76.932 103.724,76.916C103.824,76.902 103.944,76.895 104.084,76.895C104.23,76.895 104.352,76.903 104.449,76.916C104.545,76.932 104.623,76.949 104.681,76.969C104.74,76.99 104.781,77.018 104.804,77.053C104.827,77.088 104.839,77.129 104.839,77.176L104.839,87.011L108.917,87.011C108.97,87.011 109.015,87.024 109.054,87.051C109.091,87.076 109.124,87.115 109.15,87.164C109.177,87.215 109.196,87.28 109.208,87.362C109.22,87.444 109.228,87.544 109.228,87.661Z" style="fill-rule:nonzero;"/>
    </g>
    <g transform="matrix(2.01005,0,0,2.01005,0,0)">
        <path d="M118.365,121.887C118.365,121.981 118.362,122.063 118.356,122.133C118.35,122.203 118.34,122.265 118.325,122.318C118.311,122.371 118.292,122.418 118.268,122.459C118.244,122.5 118.204,122.55 118.145,122.608C118.086,122.666 117.963,122.756 117.776,122.877C117.589,122.998 117.356,123.113 117.077,123.229C116.8,123.342 116.479,123.44 116.12,123.518C115.759,123.598 115.365,123.637 114.937,123.637C114.199,123.637 113.532,123.514 112.938,123.268C112.342,123.022 111.836,122.659 111.417,122.178C110.999,121.698 110.677,121.105 110.45,120.399C110.225,119.693 110.112,118.879 110.112,117.96C110.112,117.017 110.233,116.176 110.477,115.438C110.719,114.7 111.061,114.075 111.5,113.562C111.939,113.049 112.465,112.658 113.078,112.388C113.689,112.118 114.368,111.984 115.112,111.984C115.44,111.984 115.759,112.015 116.07,112.076C116.381,112.139 116.668,112.216 116.931,112.309C117.194,112.402 117.429,112.511 117.634,112.634C117.839,112.757 117.982,112.859 118.06,112.937C118.14,113.017 118.191,113.077 118.214,113.118C118.237,113.159 118.257,113.208 118.271,113.264C118.287,113.32 118.298,113.385 118.306,113.461C118.316,113.537 118.32,113.628 118.32,113.733C118.32,113.85 118.314,113.95 118.302,114.032C118.29,114.114 118.273,114.183 118.249,114.238C118.226,114.295 118.197,114.336 118.165,114.361C118.132,114.388 118.093,114.401 118.046,114.401C117.963,114.401 117.849,114.343 117.7,114.23C117.554,114.115 117.363,113.99 117.131,113.851C116.898,113.714 116.615,113.587 116.282,113.474C115.95,113.359 115.551,113.302 115.085,113.302C114.579,113.302 114.118,113.404 113.702,113.605C113.287,113.808 112.932,114.105 112.638,114.498C112.344,114.891 112.115,115.37 111.953,115.936C111.791,116.501 111.71,117.147 111.71,117.874C111.71,118.595 111.788,119.231 111.944,119.786C112.1,120.339 112.323,120.803 112.616,121.175C112.907,121.547 113.264,121.828 113.688,122.019C114.113,122.209 114.592,122.304 115.129,122.304C115.582,122.304 115.979,122.248 116.317,122.137C116.656,122.026 116.945,121.902 117.183,121.763C117.422,121.626 117.618,121.501 117.771,121.39C117.924,121.279 118.044,121.223 118.133,121.223C118.174,121.223 118.209,121.232 118.238,121.249C118.267,121.266 118.291,121.301 118.308,121.351C118.325,121.401 118.339,121.469 118.349,121.557C118.36,121.641 118.365,121.753 118.365,121.887Z" style="fill-rule:nonzero;"/>
    </g>
    <g transform="matrix(2.01005,0,0,2.01005,237.984,248.402)">
        <text x="0px" y="0px" style="font-family:'ArialMT', 'Arial', sans-serif;font-size:18px;">1</text>
    </g>
</svg>
