<?xml version="1.0" encoding="UTF-8" standalone="no"?>
<!DOCTYPE svg PUBLIC "-//W3C//DTD SVG 1.1//EN" "http://www.w3.org/Graphics/SVG/1.1/DTD/svg11.dtd">
<svg width="100%" height="100%" viewBox="0 0 400 286" version="1.1" xmlns="http://www.w3.org/2000/svg" xmlns:xlink="http://www.w3.org/1999/xlink" xml:space="preserve" xmlns:serif="http://www.serif.com/" style="fill-rule:evenodd;clip-rule:evenodd;stroke-linecap:round;stroke-linejoin:round;stroke-miterlimit:10;">
    <g id="INSERT_12_" transform="matrix(2.01005,0,0,2.01005,0,0)">
        <path id="LINE_4616_" d="M88.232,89.476L88.542,89.607" style="fill:none;stroke:rgb(18,16,11);stroke-width:0.71px;"/>
        <path id="LWPOLYLINE_5667_" d="M81.984,90.035L82.663,89.35L83.011,88.958L83.339,88.561" style="fill:none;stroke:rgb(18,16,11);stroke-width:0.71px;"/>
        <path id="LWPOLYLINE_5666_" d="M83.339,88.561L83.694,88.095L84.028,87.623" style="fill:none;stroke:rgb(18,16,11);stroke-width:0.71px;"/>
        <path id="LINE_4615_" d="M84.028,87.623L81.478,86.401" style="fill:none;stroke:rgb(18,16,11);stroke-width:0.71px;"/>
        <path id="LINE_4614_" d="M76.702,90.895L79.252,92.117" style="fill:none;stroke:rgb(18,16,11);stroke-width:0.71px;"/>
        <path id="LWPOLYLINE_5665_" d="M81.478,86.401L80.922,86.767L80.382,87.144L79.929,87.48L79.49,87.829L78.746,88.483" style="fill:none;stroke:rgb(18,16,11);stroke-width:0.71px;"/>
        <path id="LINE_4613_" d="M78.746,88.483L78.067,89.168" style="fill:none;stroke:rgb(18,16,11);stroke-width:0.71px;"/>
        <path id="LWPOLYLINE_5664_" d="M77.719,89.561L77.391,89.958L77.036,90.424L76.702,90.895" style="fill:none;stroke:rgb(18,16,11);stroke-width:0.71px;"/>
        <path id="LWPOLYLINE_5663_" d="M79.252,92.117L79.808,91.752L80.348,91.375L80.801,91.037" style="fill:none;stroke:rgb(18,16,11);stroke-width:0.71px;"/>
        <path id="LWPOLYLINE_5662_" d="M80.801,91.037L81.24,90.688L81.984,90.035" style="fill:none;stroke:rgb(18,16,11);stroke-width:0.71px;"/>
        <path id="LWPOLYLINE_5661_" d="M81.984,90.035L81.313,90.756L80.704,91.61L80.201,92.548L79.819,93.538L79.57,94.552L79.464,95.521" style="fill:none;stroke:rgb(18,16,11);stroke-width:0.71px;"/>
        <path id="LWPOLYLINE_5660_" d="M79.464,95.521L79.493,96.453L79.664,97.354L79.973,98.158L80.411,98.841L80.964,99.381L81.59,99.752" style="fill:none;stroke:rgb(18,16,11);stroke-width:0.71px;"/>
        <path id="LINE_4612_" d="M81.59,99.752L81.971,99.867" style="fill:none;stroke:rgb(18,16,11);stroke-width:0.71px;"/>
        <path id="LWPOLYLINE_5659_" d="M81.963,94.846L82.071,94.125L82.33,93.414L82.721,92.768L83.215,92.231L83.776,91.846L84.361,91.641L84.927,91.629L85.433,91.813L85.841,92.181L85.854,92.203" style="fill:none;stroke:rgb(18,16,11);stroke-width:0.71px;"/>
        <path id="LWPOLYLINE_5658_" d="M82.222,96.11L82.014,95.523L81.963,94.846" style="fill:none;stroke:rgb(18,16,11);stroke-width:0.71px;"/>
        <path id="LWPOLYLINE_5657_" d="M88.644,91.649L88.555,91.179L88.246,90.374L87.808,89.691L87.255,89.151L86.629,88.78" style="fill:none;stroke:rgb(18,16,11);stroke-width:0.71px;"/>
        <path id="LWPOLYLINE_5656_" d="M86.629,88.78L85.93,88.568L85.149,88.522L84.337,88.656L83.517,88.964L82.716,89.437L81.984,90.035" style="fill:none;stroke:rgb(18,16,11);stroke-width:0.71px;"/>
        <path id="LWPOLYLINE_5655_" d="M79.252,92.117L79.338,92.771L79.406,93.425L79.447,93.983L79.471,94.54L79.464,95.521" style="fill:none;stroke:rgb(18,16,11);stroke-width:0.71px;"/>
        <path id="LINE_4611_" d="M76.439,97.373L78.989,98.595" style="fill:none;stroke:rgb(18,16,11);stroke-width:0.71px;"/>
        <path id="LWPOLYLINE_5654_" d="M76.702,90.895L76.566,91.443L76.449,92.008L76.365,92.506L76.298,93.02L76.226,93.969" style="fill:none;stroke:rgb(18,16,11);stroke-width:0.71px;"/>
        <path id="LWPOLYLINE_5653_" d="M76.226,93.969L76.22,94.949L76.243,95.504L76.285,96.065L76.353,96.719L76.439,97.373" style="fill:none;stroke:rgb(18,16,11);stroke-width:0.71px;"/>
        <path id="LWPOLYLINE_5652_" d="M78.989,98.595L79.124,98.047L79.242,97.481L79.326,96.981L79.393,96.47L79.464,95.521" style="fill:none;stroke:rgb(18,16,11);stroke-width:0.71px;"/>
        <path id="LWPOLYLINE_5651_" d="M86.629,88.78L85.924,88.469L85.507,88.284L85.075,88.092L84.56,87.861L84.028,87.623" style="fill:none;stroke:rgb(18,16,11);stroke-width:0.71px;"/>
        <path id="LWPOLYLINE_5650_" d="M78.989,98.595L79.52,98.833L80.036,99.063L80.468,99.256L80.885,99.44L81.59,99.752" style="fill:none;stroke:rgb(18,16,11);stroke-width:0.71px;"/>
        <path id="LWPOLYLINE_5649_" d="M82.984,92.482L82.983,92.493L82.798,93.215L82.47,93.9L82.023,94.498L82.014,94.506" style="fill:none;stroke:rgb(18,16,11);stroke-width:0.71px;"/>
        <path id="LINE_4610_" d="M88.542,89.607L85.991,88.385" style="fill:none;stroke:rgb(18,16,11);stroke-width:0.71px;"/>
        <path id="LWPOLYLINE_5648_" d="M82.751,86.948L82.424,86.807L82.118,86.675L81.787,86.533L81.478,86.401" style="fill:none;stroke:rgb(18,16,11);stroke-width:0.71px;"/>
        <path id="LWPOLYLINE_5647_" d="M86.629,88.78L87.269,89.061L87.595,89.202L87.901,89.334L88.232,89.476" style="fill:none;stroke:rgb(18,16,11);stroke-width:0.71px;"/>
        <path id="LINE_4609_" d="M85.991,88.385L85.46,88.147" style="fill:none;stroke:rgb(18,16,11);stroke-width:0.71px;"/>
        <path id="LWPOLYLINE_5646_" d="M88.744,91.622L88.737,91.474L88.696,90.915L88.628,90.262L88.542,89.607" style="fill:none;stroke:rgb(18,16,11);stroke-width:0.71px;"/>
        <path id="LINE_4608_" d="M81.59,99.752L81.967,99.917" style="fill:none;stroke:rgb(18,16,11);stroke-width:0.71px;"/>
        <path id="LWPOLYLINE_5645_" d="M81.171,111.805L81.176,111.85L81.182,111.9" style="fill:none;stroke:rgb(18,16,11);stroke-width:0.71px;"/>
        <path id="LWPOLYLINE_5644_" d="M87.376,112.543L87.375,112.568L87.356,112.878L87.357,112.886" style="fill:none;stroke:rgb(18,16,11);stroke-width:0.71px;"/>
        <path id="LINE_4607_" d="M97.649,104.665L97.661,104.46" style="fill:none;stroke:rgb(18,16,11);stroke-width:0.71px;"/>
        <path id="LINE_4606_" d="M98.056,97.332L98.165,95.354" style="fill:none;stroke:rgb(18,16,11);stroke-width:0.71px;"/>
        <path id="LWPOLYLINE_5643_" d="M95.073,114.566L95.59,114.382L95.854,114.219L96.087,114.074L96.536,113.657L96.909,113.137" style="fill:none;stroke:rgb(18,16,11);stroke-width:0.71px;"/>
        <path id="LINE_4605_" d="M97.181,106.54L97.649,104.665" style="fill:none;stroke:rgb(18,16,11);stroke-width:0.71px;"/>
        <path id="LWPOLYLINE_5642_" d="M95.722,103.53L95.685,103.525L95.649,103.495" style="fill:none;stroke:rgb(18,16,11);stroke-width:0.71px;"/>
        <path id="LWPOLYLINE_5641_" d="M94.882,102.858L94.871,102.849L94.604,102.349L94.55,102.148" style="fill:none;stroke:rgb(18,16,11);stroke-width:0.71px;"/>
        <path id="LWPOLYLINE_5640_" d="M94.501,101.967L94.446,101.767L94.405,101.13L94.483,100.466L94.55,100.238" style="fill:none;stroke:rgb(18,16,11);stroke-width:0.71px;"/>
        <path id="LWPOLYLINE_5639_" d="M94.61,100.031L94.677,99.803L94.976,99.171L95.369,98.597L95.53,98.428" style="fill:none;stroke:rgb(18,16,11);stroke-width:0.71px;"/>
        <path id="LWPOLYLINE_5638_" d="M95.677,98.274L95.839,98.105L96.026,97.993" style="fill:none;stroke:rgb(18,16,11);stroke-width:0.71px;"/>
        <path id="LWPOLYLINE_5637_" d="M96.735,97.567L96.923,97.454L97.04,97.441" style="fill:none;stroke:rgb(18,16,11);stroke-width:0.71px;"/>
        <path id="LWPOLYLINE_5636_" d="M98.026,97.332L98.042,97.33L98.056,97.332" style="fill:none;stroke:rgb(18,16,11);stroke-width:0.71px;"/>
        <path id="LINE_4604_" d="M90.641,115.595L95.073,114.566" style="fill:none;stroke:rgb(18,16,11);stroke-width:0.71px;"/>
        <path id="LINE_4603_" d="M97.276,106.512L97.181,106.54" style="fill:none;stroke:rgb(18,16,11);stroke-width:0.71px;"/>
        <path id="LWPOLYLINE_5635_" d="M89.286,115.909L90.022,115.738L90.641,115.595" style="fill:none;stroke:rgb(18,16,11);stroke-width:0.71px;"/>
        <path id="LWPOLYLINE_5634_" d="M95.354,91.582L95.009,90.798L95.403,89.969L96.558,89.266L98.331,88.775L100.513,88.557L102.835,88.635L105.022,89.001L106.808,89.611L107.978,90.391L108.392,91.248L107.997,92.077L106.843,92.779L105.067,93.27L102.888,93.488L100.563,93.41L98.376,93.045L97.712,92.861" style="fill:none;stroke:rgb(18,16,11);stroke-width:0.71px;"/>
        <path id="LWPOLYLINE_5633_" d="M98.165,95.354L98.157,95.23L98.12,95.108L97.97,94.881L97.737,94.705L97.558,94.631" style="fill:none;stroke:rgb(18,16,11);stroke-width:0.71px;"/>
        <path id="LINE_4602_" d="M97.558,94.631L99.704,94.088" style="fill:none;stroke:rgb(18,16,11);stroke-width:0.71px;"/>
        <path id="LWPOLYLINE_5632_" d="M88.451,115.865L88.465,115.869L88.544,115.894L88.636,115.909L88.789,115.936L88.993,115.939L89.05,115.941L89.188,115.923L89.286,115.909" style="fill:none;stroke:rgb(18,16,11);stroke-width:0.71px;"/>
        <path id="LINE_4601_" d="M88.352,115.822L88.451,115.865" style="fill:none;stroke:rgb(18,16,11);stroke-width:0.71px;"/>
        <path id="LINE_4600_" d="M87.55,115.387L88.352,115.822" style="fill:none;stroke:rgb(18,16,11);stroke-width:0.71px;"/>
        <path id="LWPOLYLINE_5631_" d="M88.451,98.108L88.45,98.152L88.471,98.197L88.513,98.241L88.575,98.282" style="fill:none;stroke:rgb(18,16,11);stroke-width:0.71px;"/>
        <path id="LINE_4599_" d="M87.602,121.049L87.699,117.091" style="fill:none;stroke:rgb(18,16,11);stroke-width:0.71px;"/>
        <path id="LWPOLYLINE_5630_" d="M87.699,117.091L87.663,116.844L87.548,116.612L87.373,116.431L87.161,116.326" style="fill:none;stroke:rgb(18,16,11);stroke-width:0.71px;"/>
        <path id="LINE_4598_" d="M79.444,112.141L79.378,112.095" style="fill:none;stroke:rgb(18,16,11);stroke-width:0.71px;"/>
        <path id="LWPOLYLINE_5629_" d="M82.439,112.503L84.161,112.789L85.67,113.256L86.776,113.855L87.378,114.533L87.427,115.208" style="fill:none;stroke:rgb(18,16,11);stroke-width:0.71px;"/>
        <path id="LWPOLYLINE_5628_" d="M87.427,115.208L87.443,115.3L87.55,115.387" style="fill:none;stroke:rgb(18,16,11);stroke-width:0.71px;"/>
        <path id="LWPOLYLINE_5627_" d="M82.439,112.503L82.229,112.466L82.211,112.46L82.058,112.406L82.028,112.392" style="fill:none;stroke:rgb(18,16,11);stroke-width:0.71px;"/>
        <path id="LINE_4597_" d="M82.028,112.392L81.291,111.992" style="fill:none;stroke:rgb(18,16,11);stroke-width:0.71px;"/>
        <path id="LWPOLYLINE_5625_" d="M81.291,111.992L81.182,111.9" style="fill:none;stroke:rgb(18,16,11);stroke-width:0.71px;"/>
        <path id="LINE_4596_" d="M95.452,93.771L95.097,93.784" style="fill:none;stroke:rgb(18,16,11);stroke-width:0.71px;"/>
        <path id="LWPOLYLINE_5624_" d="M87.233,121.539L87.422,121.451L87.552,121.279L87.602,121.049" style="fill:none;stroke:rgb(18,16,11);stroke-width:0.71px;"/>
        <path id="LWPOLYLINE_5623_" d="M102.647,95.696L102.647,95.733L102.667,95.859L102.716,95.978L102.897,96.18" style="fill:none;stroke:rgb(18,16,11);stroke-width:0.71px;"/>
        <path id="LINE_4595_" d="M91.313,90.928L91.114,90.533" style="fill:none;stroke:rgb(18,16,11);stroke-width:0.71px;"/>
        <path id="LWPOLYLINE_5622_" d="M91.114,90.533L91.075,90.399L91.069,90.303L91.073,90.185L91.075,90.15" style="fill:none;stroke:rgb(18,16,11);stroke-width:0.71px;"/>
        <path id="LWPOLYLINE_5621_" d="M102.897,96.18L103.849,97.049L104.374,97.77L104.548,98.135" style="fill:none;stroke:rgb(18,16,11);stroke-width:0.71px;"/>
        <path id="LWPOLYLINE_5620_" d="M99.458,106.396L98.974,106.463L97.868,106.446" style="fill:none;stroke:rgb(18,16,11);stroke-width:0.71px;"/>
        <path id="LINE_4594_" d="M98.333,97.443L98.188,97.377" style="fill:none;stroke:rgb(18,16,11);stroke-width:0.71px;"/>
        <path id="LINE_4593_" d="M98.188,97.377L98.056,97.332" style="fill:none;stroke:rgb(18,16,11);stroke-width:0.71px;"/>
        <path id="LINE_4592_" d="M93.386,116.666L93.196,120.631" style="fill:none;stroke:rgb(18,16,11);stroke-width:0.71px;"/>
        <path id="LWPOLYLINE_5619_" d="M119.271,111.241L119.232,111.501L119.117,112.282L118.725,112.951L118.527,113.286L117.514,114.229L117.396,114.302L116.101,115.09L115.212,115.469L114.323,115.847L112.399,116.428L112.226,116.48L109.854,116.978L108.993,117.093L107.269,117.325L105.216,117.468L104.532,117.515L101.706,117.543L101.233,117.521L98.862,117.408L97.229,117.236L96.065,117.113L93.386,116.666" style="fill:none;stroke:rgb(18,16,11);stroke-width:0.71px;"/>
        <path id="LWPOLYLINE_5618_" d="M112.608,105.677L113.28,105.906L115.091,106.729L116.562,107.633L117.656,108.597L118.352,109.598L118.627,110.612L118.479,111.615L117.91,112.583L116.934,113.492L115.571,114.321L113.86,115.05L111.837,115.661L109.554,116.14L107.062,116.475L104.425,116.657L101.702,116.685L98.96,116.555L96.267,116.271L93.685,115.84" style="fill:none;stroke:rgb(18,16,11);stroke-width:0.71px;"/>
        <path id="LWPOLYLINE_5617_" d="M93.685,115.84L93.581,115.965L93.486,116.166L93.418,116.412L93.386,116.666" style="fill:none;stroke:rgb(18,16,11);stroke-width:0.71px;"/>
        <path id="LWPOLYLINE_5616_" d="M91.075,90.15L91.126,89.96L91.137,89.943L91.153,89.918L91.237,89.792L91.308,89.733L91.323,89.72L91.403,89.653L91.554,89.586L91.564,89.582L91.624,89.556L91.835,89.521L91.843,89.521" style="fill:none;stroke:rgb(18,16,11);stroke-width:0.71px;"/>
        <path id="LWPOLYLINE_5615_" d="M102.958,94.848L102.876,94.947L102.853,94.991L102.849,94.998L102.788,95.109L102.755,95.198L102.749,95.217L102.72,95.295L102.685,95.444L102.677,95.474L102.673,95.494L102.647,95.696" style="fill:none;stroke:rgb(18,16,11);stroke-width:0.71px;"/>
        <path id="LWPOLYLINE_5614_" d="M100.804,95.177L101.763,96.518L102.208,98.313L102.155,99.214" style="fill:none;stroke:rgb(18,16,11);stroke-width:0.71px;"/>
        <path id="LWPOLYLINE_5613_" d="M99.276,105.234L98.78,105.713L97.181,106.54" style="fill:none;stroke:rgb(18,16,11);stroke-width:0.71px;"/>
        <path id="LWPOLYLINE_5612_" d="M97.276,106.512L97.462,106.47L97.479,106.466L97.665,106.447L97.704,106.443L97.868,106.446" style="fill:none;stroke:rgb(18,16,11);stroke-width:0.71px;"/>
        <path id="LWPOLYLINE_5611_" d="M100.804,95.177L100.694,95.008L100.657,94.78L100.659,94.766" style="fill:none;stroke:rgb(18,16,11);stroke-width:0.71px;"/>
        <path id="LINE_4591_" d="M98.337,95.393L98.188,97.377" style="fill:none;stroke:rgb(18,16,11);stroke-width:0.71px;"/>
        <path id="LINE_4590_" d="M97.665,104.462L97.649,104.665" style="fill:none;stroke:rgb(18,16,11);stroke-width:0.71px;"/>
        <path id="LWPOLYLINE_5610_" d="M100.772,93.799L100.753,93.898L100.735,93.996L100.722,94.066L100.702,94.235L100.694,94.294L100.673,94.514L100.673,94.536L100.665,94.654L100.659,94.766" style="fill:none;stroke:rgb(18,16,11);stroke-width:0.71px;"/>
        <path id="LWPOLYLINE_5609_" d="M93.196,120.631L93.206,120.856L93.257,121.016L93.34,121.083" style="fill:none;stroke:rgb(18,16,11);stroke-width:0.71px;"/>
        <path id="LWPOLYLINE_5608_" d="M97.558,94.631L97.792,94.681L98.017,94.798L98.196,94.969L98.308,95.175L98.337,95.393" style="fill:none;stroke:rgb(18,16,11);stroke-width:0.71px;"/>
        <path id="LINE_4589_" d="M85.618,110.789L87.508,110.35" style="fill:none;stroke:rgb(18,16,11);stroke-width:0.71px;"/>
        <path id="LWPOLYLINE_5607_" d="M86.321,94.204L86.209,94.236L86.098,94.278" style="fill:none;stroke:rgb(18,16,11);stroke-width:0.71px;"/>
        <path id="LINE_4588_" d="M91.854,94.537L91.927,92.903" style="fill:none;stroke:rgb(18,16,11);stroke-width:0.71px;"/>
        <path id="LINE_4587_" d="M85.444,110.858L85.618,110.789" style="fill:none;stroke:rgb(18,16,11);stroke-width:0.71px;"/>
        <path id="LWPOLYLINE_5606_" d="M91.927,92.903L91.935,92.775L91.948,92.641L91.988,92.369L92.042,92.127L92.1,91.953" style="fill:none;stroke:rgb(18,16,11);stroke-width:0.71px;"/>
        <path id="LWPOLYLINE_5605_" d="M90.732,116.453L90.732,116.198L90.716,115.946L90.683,115.734L90.641,115.595" style="fill:none;stroke:rgb(18,16,11);stroke-width:0.71px;"/>
        <path id="LWPOLYLINE_5604_" d="M84.668,111.427L84.911,111.232L84.93,111.217L85.023,111.143L85.16,111.045L85.197,111.02L85.258,110.977L85.399,110.887L85.444,110.858" style="fill:none;stroke:rgb(18,16,11);stroke-width:0.71px;"/>
        <path id="LWPOLYLINE_5603_" d="M97.556,112.112L97.55,112.123L97.331,112.455L97.323,112.468L97.247,112.585L97.116,112.798L97.063,112.885L96.909,113.137" style="fill:none;stroke:rgb(18,16,11);stroke-width:0.71px;"/>
        <path id="LWPOLYLINE_5602_" d="M94.954,93.502L94.599,93.516L94.294,93.619L94.286,93.622L94.081,93.798L94.075,93.805L94.02,93.911L93.995,94.025" style="fill:none;stroke:rgb(18,16,11);stroke-width:0.71px;"/>
        <path id="LINE_4586_" d="M93.995,94.036L93.995,94.04" style="fill:none;stroke:rgb(18,16,11);stroke-width:0.71px;"/>
        <path id="LINE_4585_" d="M93.995,94.025L93.995,94.036" style="fill:none;stroke:rgb(18,16,11);stroke-width:0.71px;"/>
        <path id="LINE_4584_" d="M97.712,92.861L97.499,92.841" style="fill:none;stroke:rgb(18,16,11);stroke-width:0.71px;"/>
        <path id="LWPOLYLINE_5601_" d="M95.354,91.582L95.421,91.689L95.442,91.726L95.521,91.939L95.571,92.193L95.583,92.45" style="fill:none;stroke:rgb(18,16,11);stroke-width:0.71px;"/>
        <path id="LINE_4583_" d="M95.583,92.45L95.548,93.294" style="fill:none;stroke:rgb(18,16,11);stroke-width:0.71px;"/>
        <path id="LINE_4582_" d="M86.12,92.331L86.088,92.415" style="fill:none;stroke:rgb(18,16,11);stroke-width:0.71px;"/>
        <path id="LWPOLYLINE_5600_" d="M93.632,90.378L93.269,90.4" style="fill:none;stroke:rgb(18,16,11);stroke-width:0.71px;"/>
        <path id="LINE_4581_" d="M85.638,92.199L85.68,92.121" style="fill:none;stroke:rgb(18,16,11);stroke-width:0.71px;"/>
        <path id="LINE_4580_" d="M92.423,93.173L92.423,93.184" style="fill:none;stroke:rgb(18,16,11);stroke-width:0.71px;"/>
        <path id="LWPOLYLINE_5599_" d="M92.597,92.223L92.538,92.397L92.485,92.639L92.484,92.645L92.444,92.91L92.444,92.92L92.431,93.05L92.423,93.173" style="fill:none;stroke:rgb(18,16,11);stroke-width:0.71px;"/>
        <path id="LINE_4579_" d="M92.423,93.184L92.354,94.421" style="fill:none;stroke:rgb(18,16,11);stroke-width:0.71px;"/>
        <path id="LWPOLYLINE_5597_" d="M101.6,73.593L101.869,73.587L102.908,73.566L103.152,73.542L104.156,73.444L104.365,73.405L105.287,73.232L105.461,73.18L106.266,72.937L106.395,72.876L107.045,72.57L107.131,72.503L107.6,72.146L107.645,72.078L107.906,71.683L107.912,71.616L107.953,71.196" style="fill:none;stroke:rgb(18,16,11);stroke-width:0.71px;"/>
        <path id="LWPOLYLINE_5596_" d="M94.586,70.968L94.635,71.105L94.761,71.456L94.879,71.587L95.191,71.934L95.366,72.05L95.858,72.377L96.082,72.478L96.74,72.773L96.998,72.854L97.797,73.103L98.078,73.162L98.992,73.356L99.279,73.394L100.275,73.521L100.561,73.536L101.6,73.593" style="fill:none;stroke:rgb(18,16,11);stroke-width:0.71px;"/>
        <path id="LWPOLYLINE_5593_" d="M107.97,99.981L106.853,100.444L105.786,101.207L104.833,102.225L104.05,103.438L103.479,104.775L103.159,106.161L103.104,107.514L103.319,108.754L103.79,109.811L104.491,110.623L105.382,111.143L106.409,111.339L107.515,111.201L108.634,110.738L109.7,109.976L110.651,108.959L111.437,107.746" style="fill:none;stroke:rgb(18,16,11);stroke-width:0.71px;"/>
        <path id="LWPOLYLINE_5592_" d="M112.005,106.408L112.325,105.022L112.382,103.67L112.167,102.429L111.694,101.372L110.993,100.561L110.103,100.041L109.075,99.844L107.97,99.981" style="fill:none;stroke:rgb(18,16,11);stroke-width:0.71px;"/>
        <path id="LWPOLYLINE_5591_" d="M108.372,100.809L109.354,100.687L110.269,100.861L111.06,101.323L111.683,102.045L112.103,102.984L112.294,104.088L112.245,105.29L111.96,106.521L111.454,107.712L110.757,108.79" style="fill:none;stroke:rgb(18,16,11);stroke-width:0.71px;"/>
        <path id="LWPOLYLINE_5590_" d="M110.757,108.79L109.909,109.694L108.962,110.372L107.968,110.784L106.985,110.906L106.071,110.731L105.28,110.27L104.655,109.548L104.237,108.608L104.046,107.505L104.095,106.303L104.38,105.07L104.886,103.881L105.583,102.803L106.429,101.898L107.378,101.221L108.372,100.809" style="fill:none;stroke:rgb(18,16,11);stroke-width:0.71px;"/>
        <path id="LWPOLYLINE_5589_" d="M100.026,108.007L100.728,108.818L101.618,109.338" style="fill:none;stroke:rgb(18,16,11);stroke-width:0.71px;"/>
        <path id="LWPOLYLINE_5588_" d="M106.337,98.236L105.31,98.04L104.206,98.177L103.087,98.641L102.021,99.402L101.067,100.42L100.284,101.633L99.716,102.971L99.394,104.356L99.339,105.709L99.554,106.95L100.026,108.007" style="fill:none;stroke:rgb(18,16,11);stroke-width:0.71px;"/>
        <path id="LINE_4578_" d="M106.021,107.818L106.138,104.903" style="fill:none;stroke:rgb(18,16,11);stroke-width:0.71px;"/>
        <path id="LINE_4577_" d="M106.138,104.903L108.288,102.881" style="fill:none;stroke:rgb(18,16,11);stroke-width:0.71px;"/>
        <path id="LINE_4576_" d="M110.319,103.774L110.2,106.689" style="fill:none;stroke:rgb(18,16,11);stroke-width:0.71px;"/>
        <path id="LINE_4575_" d="M108.052,108.711L106.021,107.818" style="fill:none;stroke:rgb(18,16,11);stroke-width:0.71px;"/>
        <path id="LINE_4573_" d="M108.288,102.881L110.319,103.774" style="fill:none;stroke:rgb(18,16,11);stroke-width:0.71px;"/>
        <path id="LINE_4571_" d="M110.2,106.689L108.052,108.711" style="fill:none;stroke:rgb(18,16,11);stroke-width:0.71px;"/>
        <path id="LINE_4568_" d="M106.022,107.763L106.628,108.029" style="fill:none;stroke:rgb(18,16,11);stroke-width:0.71px;"/>
        <path id="LINE_4567_" d="M106.628,108.029L108.776,106.007" style="fill:none;stroke:rgb(18,16,11);stroke-width:0.71px;"/>
        <path id="LINE_4562_" d="M108.776,106.007L108.894,103.147" style="fill:none;stroke:rgb(18,16,11);stroke-width:0.71px;"/>
        <path id="LINE_4560_" d="M108.052,108.711L106.628,108.029" style="fill:none;stroke:rgb(18,16,11);stroke-width:0.71px;"/>
        <path id="LINE_4558_" d="M110.2,106.689L108.776,106.007" style="fill:none;stroke:rgb(18,16,11);stroke-width:0.71px;"/>
        <path id="LWPOLYLINE_5587_" d="M107.953,71.196C108.841,52.398 109.639,33.441 106.877,14.753" style="fill:none;stroke:rgb(18,16,11);stroke-width:0.71px;"/>
        <path id="LINE_4555_" d="M94.586,70.968L95.225,58.023" style="fill:none;stroke:rgb(18,16,11);stroke-width:0.71px;"/>
        <path id="LINE_4554_" d="M95.213,58.478L95.527,45.817" style="fill:none;stroke:rgb(18,16,11);stroke-width:0.71px;"/>
        <path id="LWPOLYLINE_5586_" d="M95.527,45.836C95.769,37.634 95.287,29.419 94.224,21.284" style="fill:none;stroke:rgb(18,16,11);stroke-width:0.71px;"/>
        <path id="LINE_4541_" d="M111.437,107.746L111.454,107.712" style="fill:none;stroke:rgb(18,16,11);stroke-width:0.71px;"/>
        <path id="LINE_4540_" d="M112.005,106.408L111.96,106.521" style="fill:none;stroke:rgb(18,16,11);stroke-width:0.71px;"/>
        <path id="LINE_4539_" d="M101.618,109.338L105.382,111.143" style="fill:none;stroke:rgb(18,16,11);stroke-width:0.71px;"/>
        <path id="LINE_4538_" d="M106.337,98.236L110.103,100.041" style="fill:none;stroke:rgb(18,16,11);stroke-width:0.71px;"/>
        <path id="LINE_4537_" d="M99.356,105.272L95.452,103.401" style="fill:none;stroke:rgb(18,16,11);stroke-width:0.71px;"/>
        <path id="LINE_4536_" d="M102.233,99.251L98.819,97.616" style="fill:none;stroke:rgb(18,16,11);stroke-width:0.71px;"/>
        <path id="LWPOLYLINE_5585_" d="M88.539,96.985L88.511,97.356L88.479,97.73L88.475,97.776L88.451,98.108" style="fill:none;stroke:rgb(18,16,11);stroke-width:0.71px;"/>
        <path id="LINE_4535_" d="M73.258,119.137L73.492,115.197" style="fill:none;stroke:rgb(18,16,11);stroke-width:0.71px;"/>
        <path id="LWPOLYLINE_5584_" d="M73.527,115.002L73.61,114.547L73.673,114.317L73.824,114.134L74.333,113.541L75.208,113.02L75.386,112.941L76.548,112.532L77.958,112.242L79.378,112.095" style="fill:none;stroke:rgb(18,16,11);stroke-width:0.71px;"/>
        <path id="LINE_4534_" d="M88.451,98.108L88.111,103.789" style="fill:none;stroke:rgb(18,16,11);stroke-width:0.71px;"/>
        <path id="LINE_4533_" d="M89.154,95.163L95.097,93.784" style="fill:none;stroke:rgb(18,16,11);stroke-width:0.71px;"/>
        <path id="LWPOLYLINE_5583_" d="M73.258,119.137L73.296,119.379L73.59,120.038L73.72,120.234L74.398,120.854L74.583,120.959L75.584,121.502L76.875,121.957L78.386,122.3L80.038,122.512L81.741,122.583L83.407,122.509L84.945,122.292L86.274,121.946L87.233,121.539" style="fill:none;stroke:rgb(18,16,11);stroke-width:0.71px;"/>
        <path id="LWPOLYLINE_5582_" d="M88.843,95.267L88.998,95.207L89.154,95.163" style="fill:none;stroke:rgb(18,16,11);stroke-width:0.71px;"/>
        <path id="LINE_4532_" d="M112.644,91.635L112.612,102.884" style="fill:none;stroke:rgb(18,16,11);stroke-width:0.71px;"/>
        <path id="LINE_4531_" d="M112.632,92.145L112.603,108.89" style="fill:none;stroke:rgb(18,16,11);stroke-width:0.71px;"/>
        <path id="LINE_4530_" d="M98.056,97.332L98.106,97.354" style="fill:none;stroke:rgb(18,16,11);stroke-width:0.71px;"/>
        <path id="LWPOLYLINE_5581_" d="M88.397,95.818L88.446,95.619L88.569,95.443L88.64,95.377" style="fill:none;stroke:rgb(18,16,11);stroke-width:0.71px;"/>
        <path id="LWPOLYLINE_5580_" d="M88.64,95.377L88.797,95.279L88.835,95.271" style="fill:none;stroke:rgb(18,16,11);stroke-width:0.71px;"/>
        <path id="LWPOLYLINE_5579_" d="M87.376,112.543L87.909,103.687L88.397,95.818" style="fill:none;stroke:rgb(18,16,11);stroke-width:0.71px;"/>
        <path id="LWPOLYLINE_5578_" d="M119.271,111.241L119.191,115.315L119.164,115.445" style="fill:none;stroke:rgb(18,16,11);stroke-width:0.71px;"/>
        <path id="LWPOLYLINE_5577_" d="M119.271,111.241L119.227,111.004L118.941,109.954L118.223,108.918L118.092,108.732L116.967,107.742L115.456,106.814L115.288,106.726L113.452,105.892L112.608,105.604" style="fill:none;stroke:rgb(18,16,11);stroke-width:0.71px;"/>
        <path id="LWPOLYLINE_5576_" d="M112.644,91.635L112.595,91.404L112.177,90.599L112.046,90.414L111.22,89.651L110.015,88.949L109.856,88.864L108.349,88.265L106.577,87.776L104.61,87.419L102.528,87.208L100.413,87.15L98.349,87.249L96.417,87.5L94.696,87.895L93.256,88.414L93.08,88.49L91.954,89.129L91.323,89.72" style="fill:none;stroke:rgb(18,16,11);stroke-width:0.71px;"/>
        <path id="LINE_4529_" d="M91.357,89.688L91.237,89.792" style="fill:none;stroke:rgb(18,16,11);stroke-width:0.71px;"/>
        <path id="LWPOLYLINE_5575_" d="M118.979,116.363L118.922,116.601L118.268,117.605L118.123,117.79L117.051,118.723L115.585,119.569L115.401,119.653L113.595,120.383L111.476,120.989L109.097,121.456L106.513,121.773L103.79,121.934L100.991,121.932L98.185,121.768L95.442,121.447L93.34,121.083" style="fill:none;stroke:rgb(18,16,11);stroke-width:0.71px;"/>
        <path id="LWPOLYLINE_5574_" d="M87.233,121.539L87.766,121.305L88.479,121.098L89.226,120.96L89.952,120.882L90.803,120.849L91.581,120.867L92.442,120.941L93.34,121.083" style="fill:none;stroke:rgb(18,16,11);stroke-width:0.71px;"/>
        <path id="LINE_4528_" d="M93.578,115.968L93.486,116.166" style="fill:none;stroke:rgb(18,16,11);stroke-width:0.71px;"/>
        <path id="LWPOLYLINE_5573_" d="M93.485,116.169L93.578,115.968" style="fill:none;stroke:rgb(18,16,11);stroke-width:0.71px;"/>
        <path id="LINE_4527_" d="M93.685,115.84L93.581,115.965" style="fill:none;stroke:rgb(18,16,11);stroke-width:0.71px;"/>
        <path id="LWPOLYLINE_5572_" d="M93.578,115.968L93.685,115.84" style="fill:none;stroke:rgb(18,16,11);stroke-width:0.71px;"/>
        <path id="LINE_4526_" d="M112.604,108.227L112.743,108.898" style="fill:none;stroke:rgb(18,16,11);stroke-width:0.71px;"/>
        <path id="LINE_4525_" d="M112.677,108.575L112.794,108.74" style="fill:none;stroke:rgb(18,16,11);stroke-width:0.71px;"/>
        <path id="LINE_4524_" d="M97.499,92.841L94.595,93.516" style="fill:none;stroke:rgb(18,16,11);stroke-width:0.71px;"/>
        <path id="LWPOLYLINE_5571_" d="M84.184,92.468L83.665,92.675L83.567,92.725L82.95,93.241L82.506,93.961L82.313,94.759" style="fill:none;stroke:rgb(18,16,11);stroke-width:0.71px;"/>
        <path id="LINE_4514_" d="M86.12,92.331L93.269,90.4" style="fill:none;stroke:rgb(18,16,11);stroke-width:0.71px;"/>
        <path id="LINE_4512_" d="M82.313,94.759L81.171,111.805" style="fill:none;stroke:rgb(18,16,11);stroke-width:0.71px;"/>
        <path id="LINE_4509_" d="M84.184,92.468L85.68,92.121" style="fill:none;stroke:rgb(18,16,11);stroke-width:0.71px;"/>
        <path id="LINE_4472_" d="M85.68,92.121L86.12,92.331" style="fill:none;stroke:rgb(18,16,11);stroke-width:0.71px;"/>
        <path id="LWPOLYLINE_5570_" d="M86.12,92.331L85.638,92.199L86.12,92.331" style="fill:none;stroke:rgb(18,16,11);stroke-width:0.71px;"/>
        <path id="LINE_4471_" d="M114.028,120.721L114.06,120.195" style="fill:none;stroke:rgb(18,16,11);stroke-width:0.71px;"/>
        <path id="LWPOLYLINE_5569_" d="M87.601,121.378L87.722,121.619L87.986,121.996L89.417,123.121L89.771,123.315L91.864,124.266L94.528,125.015L97.589,125.514L100.839,125.729L104.067,125.647L106.534,125.363L109.181,124.77L111.251,123.941L111.624,123.771L113.026,122.729L113.319,122.372L113.901,121.186L114.028,120.721" style="fill:none;stroke:rgb(18,16,11);stroke-width:0.71px;"/>
        <path id="LWPOLYLINE_5568_" d="M79.378,112.095L80.205,112.015L81.017,111.869L81.031,111.866" style="fill:none;stroke:rgb(18,16,11);stroke-width:0.71px;"/>
        <path id="LWPOLYLINE_5567_" d="M81.174,111.769L81.095,111.815L81.044,111.851L81.007,111.871" style="fill:none;stroke:rgb(18,16,11);stroke-width:0.71px;"/>
        <path id="LWPOLYLINE_5566_" d="M93.196,120.631L95.346,121.003L97.058,121.203L98.151,121.331L101.021,121.498L101.073,121.498L103.884,121.5L105.071,121.43L106.669,121.336L108.874,121.065L109.312,121.012L111.745,120.534L112.271,120.384L113.911,119.915L115.114,119.429L115.759,119.168L117.24,118.313L117.305,118.258L118.322,117.371L118.629,116.9L118.979,116.363L119.164,115.445" style="fill:none;stroke:rgb(18,16,11);stroke-width:0.71px;"/>
        <path id="LWPOLYLINE_5565_" d="M87.699,117.091L86.698,117.517L86.001,117.697L85.308,117.878L83.859,118.082L83.699,118.104L81.958,118.182L81.423,118.16L80.176,118.108L78.966,117.952L78.449,117.886L76.869,117.527L76.734,117.479L75.52,117.052L74.997,116.768L74.473,116.483L73.854,115.917L73.785,115.854L73.492,115.197L73.527,115.002" style="fill:none;stroke:rgb(18,16,11);stroke-width:0.71px;"/>
        <path id="LWPOLYLINE_5564_" d="M88.404,95.915L88.446,96.01L88.462,96.077L88.534,96.385L88.545,96.518L88.543,96.906L88.539,96.985" style="fill:none;stroke:rgb(18,16,11);stroke-width:0.71px;"/>
        <path id="LWPOLYLINE_5563_" d="M91.356,96.936L90.839,97.181L90.403,97.637" style="fill:none;stroke:rgb(18,16,11);stroke-width:0.71px;"/>
        <path id="LWPOLYLINE_5562_" d="M90.403,97.637L90.125,98.224L90.051,98.664" style="fill:none;stroke:rgb(18,16,11);stroke-width:0.71px;"/>
        <path id="LINE_4470_" d="M98.165,95.354L91.356,96.936" style="fill:none;stroke:rgb(18,16,11);stroke-width:0.71px;"/>
        <path id="LINE_4469_" d="M90.051,98.664L89.286,115.909" style="fill:none;stroke:rgb(18,16,11);stroke-width:0.71px;"/>
        <path id="LWPOLYLINE_5561_" d="M96.909,113.137L97.065,110.309L97.276,106.512" style="fill:none;stroke:rgb(18,16,11);stroke-width:0.71px;"/>
        <path id="LWPOLYLINE_5560_" d="M102.958,94.848L104.384,94.795L106.315,94.594L108.063,94.249" style="fill:none;stroke:rgb(18,16,11);stroke-width:0.71px;"/>
        <path id="LWPOLYLINE_5559_" d="M108.063,94.249L109.558,93.775L110.737,93.193L111.558,92.523L111.985,91.794L112.001,91.034L111.606,90.273L110.817,89.543L109.665,88.871L108.194,88.285L106.464,87.809L104.544,87.46L102.511,87.254L100.444,87.197L98.429,87.294L96.544,87.539L94.864,87.924L93.458,88.432L92.38,89.043L91.843,89.521" style="fill:none;stroke:rgb(18,16,11);stroke-width:0.71px;"/>
        <path id="LINE_4468_" d="M85.638,92.199L84.335,92.502" style="fill:none;stroke:rgb(18,16,11);stroke-width:0.71px;"/>
        <path id="LINE_4467_" d="M92.597,92.223L95.354,91.582" style="fill:none;stroke:rgb(18,16,11);stroke-width:0.71px;"/>
        <path id="LINE_4466_" d="M99.704,94.088L100.772,93.799" style="fill:none;stroke:rgb(18,16,11);stroke-width:0.71px;"/>
        <path id="LINE_4465_" d="M86.088,92.415L85.638,92.199" style="fill:none;stroke:rgb(18,16,11);stroke-width:0.71px;"/>
        <path id="LINE_4464_" d="M89.305,95.198L90.988,96.111" style="fill:none;stroke:rgb(18,16,11);stroke-width:0.71px;"/>
        <path id="LINE_4463_" d="M97.712,92.861L94.954,93.502" style="fill:none;stroke:rgb(18,16,11);stroke-width:0.71px;"/>
        <path id="LINE_4462_" d="M94.954,93.502L95.452,93.771" style="fill:none;stroke:rgb(18,16,11);stroke-width:0.71px;"/>
        <path id="LINE_4461_" d="M100.772,93.799L102.958,94.848" style="fill:none;stroke:rgb(18,16,11);stroke-width:0.71px;"/>
        <path id="LINE_4460_" d="M90.988,96.111L99.704,94.088" style="fill:none;stroke:rgb(18,16,11);stroke-width:0.71px;"/>
        <path id="LINE_4459_" d="M91.843,89.521L93.632,90.378" style="fill:none;stroke:rgb(18,16,11);stroke-width:0.71px;"/>
        <path id="LINE_4458_" d="M95.452,93.771L89.305,95.198" style="fill:none;stroke:rgb(18,16,11);stroke-width:0.71px;"/>
        <path id="LINE_4457_" d="M84.335,92.502L85.953,93.38" style="fill:none;stroke:rgb(18,16,11);stroke-width:0.71px;"/>
        <path id="LINE_4454_" d="M85.953,93.38L92.1,91.953" style="fill:none;stroke:rgb(18,16,11);stroke-width:0.71px;"/>
        <path id="LINE_4453_" d="M93.632,90.378L86.088,92.415" style="fill:none;stroke:rgb(18,16,11);stroke-width:0.71px;"/>
        <path id="LINE_4436_" d="M92.1,91.953L92.597,92.223" style="fill:none;stroke:rgb(18,16,11);stroke-width:0.71px;"/>
        <path id="LWPOLYLINE_5558_" d="M90.988,96.111L90.302,96.437L90.248,96.461L89.714,97.018L89.624,97.111L89.312,97.767L89.225,97.948L89.116,98.576" style="fill:none;stroke:rgb(18,16,11);stroke-width:0.71px;"/>
        <path id="LWPOLYLINE_5557_" d="M91.356,96.936L91.334,96.684L91.257,96.438L91.136,96.238L90.988,96.111" style="fill:none;stroke:rgb(18,16,11);stroke-width:0.71px;"/>
        <path id="LWPOLYLINE_5556_" d="M89.116,98.576L89.308,98.645L89.554,98.686L89.813,98.692L90.051,98.664" style="fill:none;stroke:rgb(18,16,11);stroke-width:0.71px;"/>
        <path id="LWPOLYLINE_5555_" d="M89.305,95.198L89.145,95.243L88.986,95.304" style="fill:none;stroke:rgb(18,16,11);stroke-width:0.71px;"/>
        <path id="LINE_4435_" d="M88.575,98.282L89.116,98.576" style="fill:none;stroke:rgb(18,16,11);stroke-width:0.71px;"/>
        <path id="LWPOLYLINE_5554_" d="M88.986,95.304L88.999,95.423L88.982,95.721L88.972,95.904L88.944,96.079L88.851,96.542L88.839,96.603L88.816,96.71" style="fill:none;stroke:rgb(18,16,11);stroke-width:0.71px;"/>
        <path id="LWPOLYLINE_5553_" d="M88.816,96.71L88.713,97.222L88.681,97.424L88.628,97.746L88.62,97.811L88.575,98.282" style="fill:none;stroke:rgb(18,16,11);stroke-width:0.71px;"/>
        <path id="LINE_4432_" d="M89.116,98.576L88.352,115.822" style="fill:none;stroke:rgb(18,16,11);stroke-width:0.71px;"/>
        <path id="LWPOLYLINE_5552_" d="M88.575,98.282L88.234,103.965L87.55,115.387" style="fill:none;stroke:rgb(18,16,11);stroke-width:0.71px;"/>
        <path id="LWPOLYLINE_5551_" d="M88.986,95.304L88.769,95.383L88.585,95.523L88.459,95.708L88.438,95.786L88.404,95.915" style="fill:none;stroke:rgb(18,16,11);stroke-width:0.71px;"/>
        <path id="LWPOLYLINE_5550_" d="M73.258,119.137L73.554,119.8L73.624,119.863L74.249,120.436L74.777,120.722L75.306,121.009L76.532,121.44L76.668,121.488L78.263,121.851L78.785,121.918L80.006,122.075L81.266,122.128L81.805,122.15L83.563,122.071L83.724,122.049L85.187,121.844L85.888,121.661L86.59,121.479L87.602,121.049" style="fill:none;stroke:rgb(18,16,11);stroke-width:0.71px;"/>
        <path id="LWPOLYLINE_5549_" d="M87.161,116.326L86.246,116.716L84.977,117.046L83.508,117.252L81.917,117.323L80.29,117.256L78.713,117.053L77.27,116.725L76.037,116.291L75.082,115.772L74.453,115.197L74.185,114.597L74.293,114.003L74.77,113.446L75.591,112.958L76.712,112.563L78.074,112.283L79.444,112.141" style="fill:none;stroke:rgb(18,16,11);stroke-width:0.71px;"/>
        <path id="LWPOLYLINE_5548_" d="M84.668,111.427L85.041,102.224L85.361,94.265" style="fill:none;stroke:rgb(18,16,11);stroke-width:0.71px;"/>
        <path id="LINE_4431_" d="M87.427,115.208L88.111,103.789" style="fill:none;stroke:rgb(18,16,11);stroke-width:0.71px;"/>
        <path id="LWPOLYLINE_5547_" d="M83.308,95.318L83.019,101.027L82.439,112.503" style="fill:none;stroke:rgb(18,16,11);stroke-width:0.71px;"/>
        <path id="LWPOLYLINE_5546_" d="M88.404,95.915L87.919,103.785L87.357,112.886" style="fill:none;stroke:rgb(18,16,11);stroke-width:0.71px;"/>
        <path id="LWPOLYLINE_5545_" d="M87.357,112.886L86.844,112.392L86.786,112.335L85.859,111.833L85.738,111.792L84.668,111.427" style="fill:none;stroke:rgb(18,16,11);stroke-width:0.71px;"/>
        <path id="LWPOLYLINE_5544_" d="M85.361,94.265L85.067,94.242L84.751,94.219L84.387,94.258L83.901,94.428L83.558,94.702L83.375,95.004L83.308,95.318" style="fill:none;stroke:rgb(18,16,11);stroke-width:0.71px;"/>
        <path id="LWPOLYLINE_5543_" d="M87.161,116.326L87.28,116.266L87.761,116.065L88.451,115.865" style="fill:none;stroke:rgb(18,16,11);stroke-width:0.71px;"/>
        <path id="LWPOLYLINE_5542_" d="M81.182,111.9L81.166,111.904L80.313,112.057L79.444,112.141" style="fill:none;stroke:rgb(18,16,11);stroke-width:0.71px;"/>
        <path id="LINE_4430_" d="M89.154,95.163L89.305,95.198" style="fill:none;stroke:rgb(18,16,11);stroke-width:0.71px;"/>
        <path id="LWPOLYLINE_5541_" d="M88.835,95.271L88.843,95.267L88.897,95.281L88.95,95.295L88.986,95.304" style="fill:none;stroke:rgb(18,16,11);stroke-width:0.71px;"/>
        <path id="LWPOLYLINE_5540_" d="M112.644,91.635L112.632,92.145L112.626,92.444" style="fill:none;stroke:rgb(18,16,11);stroke-width:0.71px;"/>
        <path id="LWPOLYLINE_5539_" d="M112.626,92.444L112.188,93.192L112.171,93.221" style="fill:none;stroke:rgb(18,16,11);stroke-width:0.71px;"/>
        <path id="LWPOLYLINE_5538_" d="M112.171,93.221L111.298,93.934L110.925,94.117L110.04,94.555L109.038,94.872L108.45,95.058L106.655,95.412L106.589,95.425" style="fill:none;stroke:rgb(18,16,11);stroke-width:0.71px;"/>
        <path id="LWPOLYLINE_5537_" d="M106.589,95.425L104.532,95.64L103.886,95.659L102.647,95.696" style="fill:none;stroke:rgb(18,16,11);stroke-width:0.71px;"/>
        <path id="LWPOLYLINE_5536_" d="M97.868,106.446L97.655,110.305L97.556,112.112" style="fill:none;stroke:rgb(18,16,11);stroke-width:0.71px;"/>
        <path id="LINE_4429_" d="M97.556,112.112L97.687,112.131" style="fill:none;stroke:rgb(18,16,11);stroke-width:0.71px;"/>
        <path id="LWPOLYLINE_5535_" d="M97.687,112.131L99.714,112.354L100.261,112.377L101.782,112.443L103.343,112.408L103.825,112.396L105.78,112.216L106.253,112.135L107.583,111.906L108.798,111.579L109.179,111.477L110.517,110.943L110.786,110.781L111.552,110.32L112.087,109.795L112.255,109.629L112.603,108.89" style="fill:none;stroke:rgb(18,16,11);stroke-width:0.71px;"/>
        <path id="LINE_4418_" d="M88.397,95.818L88.404,95.915" style="fill:none;stroke:rgb(18,16,11);stroke-width:0.71px;"/>
        <path id="LWPOLYLINE_5534_" d="M90.641,115.595L90.909,115.59L91.828,115.609L92.757,115.691L93.685,115.84" style="fill:none;stroke:rgb(18,16,11);stroke-width:0.71px;"/>
        <path id="LWPOLYLINE_5533_" d="M112.604,107.84L113.382,108.34L114.263,109.219L114.722,110.127L114.743,111.035L114.329,111.915L113.491,112.739L112.257,113.481L110.663,114.117L108.763,114.629L106.614,114.998L104.284,115.213L101.849,115.269L99.386,115.162L96.97,114.896L95.073,114.566" style="fill:none;stroke:rgb(18,16,11);stroke-width:0.71px;"/>
        <path id="LINE_4416_" d="M102.897,96.18L100.804,95.177" style="fill:none;stroke:rgb(18,16,11);stroke-width:0.71px;"/>
        <path id="LINE_4404_" d="M100.659,94.766L98.337,95.393" style="fill:none;stroke:rgb(18,16,11);stroke-width:0.71px;"/>
        <path id="LWPOLYLINE_5532_" d="M89.308,116.389L89.286,116.392L89.242,116.412L89.182,116.46L89.111,116.523L89.04,116.581L88.877,116.672L88.823,116.688" style="fill:none;stroke:rgb(18,16,11);stroke-width:0.71px;"/>
        <path id="LWPOLYLINE_5531_" d="M93.386,116.666L92.577,116.537L92.376,116.52L91.769,116.466L91.03,116.449L90.966,116.448L90.732,116.453" style="fill:none;stroke:rgb(18,16,11);stroke-width:0.71px;"/>
        <path id="LWPOLYLINE_5530_" d="M87.602,121.049L88.09,120.834L88.484,120.72L88.744,120.644L89.427,120.518L89.605,120.499L90.093,120.446L90.872,120.416L90.878,120.416L91.585,120.433L92.202,120.485L92.374,120.5L93.196,120.631" style="fill:none;stroke:rgb(18,16,11);stroke-width:0.71px;"/>
        <path id="LWPOLYLINE_5527_" d="M88.823,116.688L88.593,116.756L88.223,116.863L87.803,117.038L87.699,117.091" style="fill:none;stroke:rgb(18,16,11);stroke-width:0.71px;"/>
        <path id="LWPOLYLINE_5526_" d="M90.732,116.453L90.042,116.428L89.743,116.412L89.308,116.389" style="fill:none;stroke:rgb(18,16,11);stroke-width:0.71px;"/>
        <path id="LWPOLYLINE_5525_" d="M88.823,116.688L88.801,116.437L88.722,116.192L88.599,115.992L88.451,115.865" style="fill:none;stroke:rgb(18,16,11);stroke-width:0.71px;"/>
        <path id="LWPOLYLINE_5524_" d="M86.098,94.278L85.785,102.239L85.444,110.858" style="fill:none;stroke:rgb(18,16,11);stroke-width:0.71px;"/>
        <path id="LINE_4403_" d="M91.927,92.903L86.321,94.204" style="fill:none;stroke:rgb(18,16,11);stroke-width:0.71px;"/>
        <path id="LWPOLYLINE_5523_" d="M85.953,93.38L86.1,93.507L86.221,93.707L86.298,93.952L86.321,94.204" style="fill:none;stroke:rgb(18,16,11);stroke-width:0.71px;"/>
        <path id="LWPOLYLINE_5522_" d="M89.286,115.909L89.31,116.025L89.32,116.147L89.319,116.27L89.308,116.389" style="fill:none;stroke:rgb(18,16,11);stroke-width:0.71px;"/>
        <path id="LWPOLYLINE_5519_" d="M86.098,94.278L85.864,94.309L85.605,94.304L85.361,94.265" style="fill:none;stroke:rgb(18,16,11);stroke-width:0.71px;"/>
        <path id="LWPOLYLINE_5470_" d="M85.634,93.486L85.672,93.517L85.73,93.563L85.789,93.61L85.798,93.623L85.823,93.657L85.931,93.805L86.039,94.039L86.045,94.064L86.098,94.278" style="fill:none;stroke:rgb(18,16,11);stroke-width:0.71px;"/>
        <path id="LWPOLYLINE_5469_" d="M85.953,93.38L85.793,93.425L85.634,93.486" style="fill:none;stroke:rgb(18,16,11);stroke-width:0.71px;"/>
        <path id="LWPOLYLINE_5467_" d="M85.634,93.486L85.524,93.623L85.435,93.814L85.379,94.037L85.372,94.123L85.361,94.265" style="fill:none;stroke:rgb(18,16,11);stroke-width:0.71px;"/>
        <path id="LWPOLYLINE_5466_" d="M82.908,95.209L82.988,95.244L83.083,95.275L83.191,95.301L83.308,95.318" style="fill:none;stroke:rgb(18,16,11);stroke-width:0.71px;"/>
        <path id="LWPOLYLINE_5462_" d="M85.634,93.486L84.888,93.491L84.845,93.492L84.365,93.588L83.84,93.826L83.717,93.882L83.251,94.307L83.178,94.438L83.001,94.755L82.908,95.209" style="fill:none;stroke:rgb(18,16,11);stroke-width:0.71px;"/>
        <path id="LINE_4401_" d="M82.432,94.95L82.908,95.209" style="fill:none;stroke:rgb(18,16,11);stroke-width:0.71px;"/>
        <path id="LWPOLYLINE_5458_" d="M84.335,92.502L83.803,92.715L83.656,92.839L83.126,93.283L83.056,93.398L82.641,94.074L82.626,94.138L82.432,94.95" style="fill:none;stroke:rgb(18,16,11);stroke-width:0.71px;"/>
        <path id="LINE_4397_" d="M93.995,94.025L94.015,94.035" style="fill:none;stroke:rgb(18,16,11);stroke-width:0.71px;"/>
        <path id="LWPOLYLINE_5457_" d="M82.028,112.392L82.615,100.916L82.908,95.209" style="fill:none;stroke:rgb(18,16,11);stroke-width:0.71px;"/>
        <path id="LINE_4396_" d="M82.432,94.95L81.291,111.992" style="fill:none;stroke:rgb(18,16,11);stroke-width:0.71px;"/>
        <path id="LWPOLYLINE_5456_" d="M82.313,94.759L82.323,94.855L82.432,94.95" style="fill:none;stroke:rgb(18,16,11);stroke-width:0.71px;"/>
        <path id="LINE_4395_" d="M84.335,92.502L84.184,92.468" style="fill:none;stroke:rgb(18,16,11);stroke-width:0.71px;"/>
        <path id="LINE_4390_" d="M91.714,90.82L91.114,90.533" style="fill:none;stroke:rgb(18,16,11);stroke-width:0.71px;"/>
        <path id="LWPOLYLINE_5455_" d="M85.618,110.789L86.372,111.07L87.397,111.626L87.43,111.653" style="fill:none;stroke:rgb(18,16,11);stroke-width:0.71px;"/>
        <path id="LINE_4389_" d="M92.423,93.184L95.583,92.45" style="fill:none;stroke:rgb(18,16,11);stroke-width:0.71px;"/>
        <path id="LWPOLYLINE_5454_" d="M102.669,124.862L104.343,124.82L105.911,124.64L106.974,124.517L108.788,124.108L109.794,123.881L111.153,123.336L111.999,122.995L112.851,122.361L113.442,121.918L113.772,121.245L114.028,120.721" style="fill:none;stroke:rgb(18,16,11);stroke-width:0.71px;"/>
        <path id="LWPOLYLINE_5453_" d="M87.809,121.293L88.591,121.911L89.107,122.319L90.495,122.952L91.337,123.336L93.026,123.813L94.177,124.139L96.028,124.442L97.437,124.674L99.312,124.8L100.903,124.906L102.669,124.862" style="fill:none;stroke:rgb(18,16,11);stroke-width:0.71px;"/>
        <path id="LINE_4388_" d="M91.927,92.903L92.423,93.173" style="fill:none;stroke:rgb(18,16,11);stroke-width:0.71px;"/>
        <path id="LINE_3943_" d="M81.182,111.9L81.031,111.866" style="fill:none;stroke:rgb(18,16,11);stroke-width:0.71px;"/>
    </g>
    <g transform="matrix(2.01005,0,0,2.01005,0,0)">
        <path d="M113.804,69.333L119.684,69.333L119.684,77.554L123.031,77.554L116.744,83.699L110.458,77.554L113.805,77.554L113.805,69.333L113.804,69.333ZM116.743,82.34L120.656,78.516L118.699,78.516L118.699,70.295L114.787,70.295L114.787,78.516L112.83,78.516L116.743,82.34Z" style="fill-rule:nonzero;"/>
    </g>
    <g transform="matrix(2.01005,0,0,2.01005,0,0)">
        <path d="M122.489,22.527C122.489,22.638 122.483,22.735 122.471,22.817C122.459,22.899 122.439,22.965 122.409,23.015C122.379,23.065 122.346,23.101 122.308,23.124C122.269,23.147 122.23,23.159 122.189,23.159L118.023,23.159L118.023,27.026L121.961,27.026C122.002,27.026 122.041,27.037 122.08,27.057C122.117,27.078 122.151,27.111 122.181,27.158C122.211,27.205 122.231,27.268 122.243,27.346C122.255,27.426 122.261,27.527 122.261,27.65C122.261,27.761 122.255,27.856 122.243,27.936C122.231,28.014 122.211,28.08 122.181,28.129C122.151,28.178 122.118,28.217 122.08,28.242C122.041,28.269 122.002,28.282 121.961,28.282L118.023,28.282L118.023,33.019C118.023,33.06 118.011,33.1 117.988,33.138C117.965,33.176 117.924,33.205 117.865,33.226C117.806,33.247 117.73,33.263 117.636,33.279C117.542,33.293 117.419,33.3 117.267,33.3C117.126,33.3 117.006,33.292 116.907,33.279C116.807,33.263 116.728,33.247 116.67,33.226C116.612,33.205 116.57,33.176 116.547,33.138C116.524,33.1 116.512,33.06 116.512,33.019L116.512,22.492C116.512,22.263 116.573,22.104 116.692,22.013C116.813,21.922 116.94,21.876 117.075,21.876L122.19,21.876C122.231,21.876 122.27,21.888 122.309,21.911C122.346,21.934 122.38,21.973 122.41,22.025C122.44,22.077 122.46,22.147 122.472,22.231C122.483,22.318 122.489,22.416 122.489,22.527Z" style="fill-rule:nonzero;"/>
    </g>
    <g transform="matrix(2.01005,0,0,2.01005,0,0)">
        <path d="M133.356,119.141C133.356,119.235 133.353,119.317 133.347,119.387C133.341,119.457 133.33,119.519 133.317,119.572C133.301,119.625 133.283,119.672 133.259,119.713C133.235,119.754 133.195,119.804 133.136,119.862C133.077,119.92 132.954,120.01 132.767,120.131C132.58,120.252 132.346,120.367 132.069,120.483C131.79,120.596 131.471,120.694 131.11,120.772C130.751,120.852 130.356,120.891 129.928,120.891C129.19,120.891 128.524,120.768 127.928,120.522C127.334,120.276 126.826,119.913 126.408,119.432C125.988,118.952 125.666,118.359 125.441,117.653C125.214,116.947 125.102,116.133 125.102,115.214C125.102,114.271 125.224,113.43 125.466,112.692C125.71,111.954 126.051,111.329 126.49,110.816C126.929,110.303 127.456,109.912 128.067,109.642C128.68,109.372 129.358,109.238 130.102,109.238C130.43,109.238 130.749,109.269 131.06,109.33C131.371,109.393 131.658,109.47 131.921,109.563C132.184,109.656 132.419,109.765 132.624,109.888C132.829,110.011 132.971,110.113 133.051,110.191C133.129,110.271 133.181,110.331 133.204,110.372C133.227,110.413 133.246,110.462 133.262,110.518C133.276,110.574 133.287,110.639 133.297,110.715C133.305,110.791 133.31,110.882 133.31,110.987C133.31,111.104 133.304,111.204 133.292,111.286C133.28,111.368 133.263,111.437 133.238,111.492C133.215,111.549 133.187,111.59 133.154,111.615C133.123,111.642 133.082,111.655 133.035,111.655C132.953,111.655 132.838,111.597 132.691,111.484C132.543,111.369 132.353,111.244 132.121,111.105C131.889,110.968 131.605,110.841 131.273,110.728C130.939,110.613 130.541,110.556 130.076,110.556C129.568,110.556 129.107,110.658 128.693,110.859C128.277,111.062 127.922,111.359 127.628,111.752C127.334,112.145 127.106,112.624 126.943,113.19C126.78,113.756 126.7,114.401 126.7,115.128C126.7,115.849 126.778,116.485 126.934,117.04C127.089,117.593 127.314,118.057 127.605,118.429C127.897,118.801 128.255,119.082 128.679,119.273C129.103,119.464 129.583,119.558 130.118,119.558C130.572,119.558 130.968,119.502 131.307,119.391C131.645,119.28 131.934,119.156 132.172,119.017C132.41,118.88 132.607,118.755 132.76,118.644C132.912,118.533 133.033,118.477 133.121,118.477C133.163,118.477 133.198,118.486 133.228,118.503C133.257,118.521 133.281,118.555 133.298,118.605C133.315,118.655 133.329,118.723 133.337,118.811C133.352,118.895 133.356,119.007 133.356,119.141Z" style="fill-rule:nonzero;"/>
    </g>
    <g transform="matrix(2.01005,0,0,2.01005,270.995,242.151)">
        <text x="0px" y="0px" style="font-family:'ArialMT', 'Arial', sans-serif;font-size:16px;">2</text>
    </g>
    <g transform="matrix(2.01005,0,0,2.01005,0,0)">
        <path d="M65.902,82.625C65.879,82.707 65.843,82.773 65.797,82.822C65.75,82.873 65.686,82.91 65.604,82.937C65.522,82.962 65.421,82.982 65.301,82.994C65.181,83.006 65.033,83.012 64.857,83.012C64.675,83.012 64.522,83.006 64.396,82.994C64.27,82.982 64.166,82.963 64.084,82.937C64.002,82.91 63.94,82.873 63.899,82.822C63.858,82.773 63.826,82.707 63.802,82.625L61.42,74.038L61.402,74.038L59.205,82.625C59.187,82.707 59.158,82.773 59.117,82.822C59.076,82.873 59.017,82.91 58.941,82.937C58.865,82.962 58.767,82.982 58.647,82.994C58.527,83.006 58.373,83.012 58.186,83.012C57.993,83.012 57.832,83.006 57.703,82.994C57.574,82.982 57.469,82.963 57.387,82.937C57.305,82.91 57.242,82.873 57.198,82.822C57.154,82.773 57.123,82.707 57.106,82.625L54.1,72.122C54.065,71.987 54.046,71.882 54.043,71.806C54.04,71.73 54.064,71.671 54.113,71.63C54.162,71.589 54.243,71.563 54.355,71.551C54.467,71.539 54.616,71.533 54.803,71.533C54.985,71.533 55.128,71.537 55.234,71.547C55.339,71.555 55.42,71.571 55.476,71.595C55.532,71.619 55.57,71.651 55.59,71.692C55.61,71.733 55.627,71.786 55.638,71.85L58.196,81.377L58.205,81.377L60.631,71.867C60.649,71.803 60.671,71.748 60.697,71.705C60.723,71.66 60.766,71.627 60.824,71.603C60.882,71.579 60.966,71.562 61.074,71.55C61.182,71.538 61.324,71.532 61.5,71.532C61.664,71.532 61.794,71.538 61.891,71.55C61.988,71.562 62.065,71.579 62.124,71.603C62.183,71.627 62.225,71.66 62.251,71.705C62.277,71.748 62.299,71.803 62.317,71.867L64.927,81.377L64.945,81.377L67.45,71.858C67.468,71.799 67.485,71.748 67.503,71.705C67.521,71.66 67.557,71.627 67.613,71.603C67.669,71.579 67.748,71.562 67.85,71.55C67.952,71.538 68.089,71.532 68.259,71.532C68.435,71.532 68.574,71.54 68.676,71.553C68.779,71.569 68.853,71.596 68.9,71.637C68.947,71.678 68.969,71.737 68.966,71.813C68.963,71.889 68.947,71.995 68.918,72.129L65.902,82.625Z" style="fill-rule:nonzero;"/>
        <path d="M70.463,79.962C70.463,79.64 70.507,79.334 70.595,79.043C70.683,78.754 70.821,78.473 71.008,78.199C71.196,77.928 71.44,77.664 71.742,77.408C72.044,77.154 72.409,76.897 72.836,76.639C72.602,76.323 72.401,76.035 72.234,75.778C72.067,75.521 71.929,75.28 71.821,75.057C71.713,74.834 71.635,74.622 71.588,74.419C71.541,74.218 71.518,74.014 71.518,73.809C71.518,73.446 71.58,73.099 71.703,72.767C71.826,72.437 72.024,72.144 72.296,71.888C72.568,71.634 72.919,71.431 73.346,71.283C73.774,71.133 74.292,71.058 74.902,71.058C75.418,71.058 75.864,71.114 76.242,71.225C76.62,71.336 76.933,71.495 77.182,71.7C77.431,71.905 77.619,72.152 77.745,72.443C77.871,72.732 77.934,73.056 77.934,73.414C77.934,73.76 77.878,74.076 77.767,74.363C77.656,74.65 77.477,74.928 77.231,75.198C76.985,75.468 76.67,75.736 76.286,76.002C75.902,76.27 75.438,76.549 74.893,76.842C75.092,77.082 75.309,77.333 75.543,77.594C75.777,77.855 76.022,78.116 76.277,78.38C76.532,78.644 76.793,78.902 77.059,79.158C77.326,79.412 77.588,79.657 77.846,79.891C77.963,79.733 78.069,79.552 78.162,79.351C78.256,79.148 78.338,78.935 78.408,78.708C78.478,78.483 78.531,78.253 78.566,78.019C78.601,77.785 78.619,77.547 78.619,77.307L78.619,76.991C78.619,76.932 78.629,76.885 78.65,76.845C78.671,76.808 78.704,76.775 78.751,76.749C78.798,76.722 78.867,76.703 78.958,76.691C79.049,76.679 79.167,76.673 79.314,76.673C79.443,76.673 79.553,76.676 79.644,76.682C79.735,76.688 79.81,76.702 79.868,76.721C79.927,76.742 79.969,76.774 79.995,76.819C80.021,76.862 80.035,76.923 80.035,76.999L80.035,77.219C80.035,77.547 80.007,77.869 79.952,78.186C79.897,78.503 79.82,78.812 79.723,79.113C79.626,79.416 79.506,79.704 79.363,79.979C79.22,80.254 79.06,80.509 78.884,80.744C79.148,80.955 79.378,81.131 79.574,81.271C79.77,81.411 79.937,81.526 80.075,81.614C80.213,81.702 80.327,81.763 80.418,81.799C80.509,81.835 80.584,81.852 80.642,81.852C80.7,81.852 80.756,81.849 80.809,81.843C80.862,81.837 80.904,81.846 80.936,81.869C80.968,81.892 80.993,81.939 81.011,82.01C81.029,82.081 81.037,82.189 81.037,82.335C81.037,82.481 81.034,82.599 81.028,82.687C81.022,82.775 81.012,82.84 80.997,82.885C80.982,82.928 80.957,82.965 80.922,82.994C80.887,83.023 80.822,83.05 80.729,83.073C80.636,83.096 80.512,83.108 80.36,83.108C80.243,83.108 80.114,83.087 79.973,83.046C79.832,83.005 79.668,82.934 79.481,82.831C79.294,82.728 79.075,82.589 78.826,82.413C78.577,82.237 78.285,82.015 77.951,81.745C77.705,81.944 77.446,82.129 77.173,82.299C76.9,82.469 76.61,82.614 76.303,82.734C75.995,82.855 75.673,82.949 75.336,83.015C74.999,83.082 74.634,83.117 74.242,83.117C73.873,83.117 73.523,83.085 73.192,83.02C72.861,82.955 72.555,82.864 72.274,82.744C71.993,82.624 71.741,82.473 71.518,82.291C71.295,82.109 71.106,81.903 70.951,81.672C70.796,81.441 70.676,81.181 70.591,80.894C70.506,80.607 70.463,80.296 70.463,79.962ZM72.036,79.812C72.036,80.117 72.087,80.395 72.19,80.647C72.293,80.899 72.443,81.117 72.643,81.302C72.842,81.486 73.091,81.63 73.39,81.732C73.689,81.836 74.035,81.886 74.427,81.886C74.667,81.886 74.902,81.862 75.13,81.812C75.358,81.762 75.577,81.695 75.785,81.609C75.993,81.525 76.191,81.422 76.378,81.302C76.565,81.182 76.738,81.054 76.897,80.919C76.592,80.655 76.289,80.382 75.987,80.097C75.685,79.814 75.394,79.528 75.112,79.241C74.83,78.954 74.56,78.669 74.299,78.385C74.038,78.101 73.799,77.823 73.583,77.554C73.29,77.742 73.045,77.928 72.849,78.112C72.653,78.298 72.495,78.481 72.374,78.667C72.254,78.851 72.167,79.037 72.115,79.225C72.063,79.413 72.036,79.607 72.036,79.812ZM73.056,73.695C73.056,73.853 73.078,74.014 73.122,74.178C73.166,74.342 73.233,74.514 73.324,74.693C73.415,74.872 73.526,75.063 73.658,75.268C73.79,75.473 73.947,75.702 74.128,75.954C74.556,75.714 74.915,75.492 75.205,75.291C75.495,75.088 75.728,74.894 75.904,74.706C76.08,74.518 76.207,74.331 76.286,74.143C76.365,73.955 76.405,73.756 76.405,73.545C76.405,73.375 76.374,73.213 76.313,73.058C76.252,72.903 76.153,72.765 76.019,72.644C75.884,72.525 75.714,72.429 75.509,72.359C75.304,72.289 75.058,72.254 74.771,72.254C74.46,72.254 74.198,72.293 73.984,72.373C73.77,72.451 73.594,72.557 73.457,72.689C73.319,72.82 73.218,72.974 73.154,73.15C73.09,73.326 73.056,73.508 73.056,73.695Z" style="fill-rule:nonzero;"/>
        <path d="M89.843,82.326C89.843,82.437 89.837,82.533 89.825,82.611C89.813,82.691 89.794,82.757 89.768,82.809C89.742,82.861 89.709,82.9 89.671,82.923C89.633,82.946 89.588,82.958 89.535,82.958L82.82,82.958C82.668,82.958 82.545,82.911 82.451,82.817C82.357,82.723 82.31,82.574 82.31,82.369L82.31,82.044C82.31,81.968 82.314,81.898 82.323,81.833C82.332,81.768 82.351,81.7 82.38,81.626C82.409,81.554 82.45,81.472 82.503,81.38C82.556,81.29 82.62,81.183 82.696,81.06L87.943,72.851L82.757,72.851C82.698,72.851 82.649,72.839 82.608,72.816C82.567,72.793 82.533,72.756 82.507,72.707C82.481,72.658 82.462,72.592 82.45,72.514C82.438,72.434 82.432,72.342 82.432,72.237C82.432,72.12 82.438,72.02 82.45,71.938C82.462,71.856 82.481,71.789 82.507,71.736C82.533,71.683 82.567,71.645 82.608,71.622C82.649,71.599 82.699,71.587 82.757,71.587L89.085,71.587C89.243,71.587 89.368,71.633 89.459,71.724C89.55,71.815 89.595,71.953 89.595,72.141L89.595,72.484C89.595,72.578 89.589,72.662 89.577,72.734C89.565,72.808 89.545,72.882 89.515,72.959C89.485,73.036 89.446,73.117 89.396,73.205C89.346,73.293 89.28,73.395 89.198,73.513L83.977,81.687L89.532,81.687C89.632,81.687 89.708,81.737 89.761,81.836C89.814,81.935 89.843,82.097 89.843,82.326Z" style="fill-rule:nonzero;"/>
    </g>
</svg>
