<?xml version="1.0" encoding="UTF-8" standalone="no"?>
<!DOCTYPE svg PUBLIC "-//W3C//DTD SVG 1.1//EN" "http://www.w3.org/Graphics/SVG/1.1/DTD/svg11.dtd">
<svg width="100%" height="100%" viewBox="0 0 300 300" version="1.1" xmlns="http://www.w3.org/2000/svg" xmlns:xlink="http://www.w3.org/1999/xlink" xml:space="preserve" xmlns:serif="http://www.serif.com/" style="fill-rule:evenodd;clip-rule:evenodd;stroke-linecap:round;">
    <g id="Base" transform="matrix(1,0,0,1,147.714,-896.928)">
        <path id="path92608" d="M-17.572,1084.73C-17.441,1089.88 -7.957,1093.89 3.441,1093.61C13.994,1093.35 22.866,1089.49 23.892,1084.72" style="fill:none;fill-rule:nonzero;stroke:black;stroke-width:0.6px;"/>
        <path id="path92610" d="M23.99,1083.7C23.92,1080.9 21.08,1078.31 16.253,1076.64" style="fill:none;fill-rule:nonzero;stroke:black;stroke-width:0.6px;"/>
        <path id="path92612" d="M-10.195,1077.3C-14.933,1079.2 -17.642,1081.93 -17.572,1084.73" style="fill:none;fill-rule:nonzero;stroke:black;stroke-width:0.6px;"/>
        <path id="path92614" d="M-17.322,1094.84C-17.191,1100 -7.706,1104 3.691,1103.72C14.244,1103.46 23.116,1099.6 24.142,1094.83" style="fill:none;fill-rule:nonzero;stroke:black;stroke-width:0.6px;"/>
        <path id="path92616" d="M23.892,1084.72C23.966,1084.38 23.998,1084.04 23.99,1083.7" style="fill:none;fill-rule:nonzero;stroke:black;stroke-width:0.6px;"/>
        <path id="path92618" d="M24.142,1094.84C24.216,1094.5 24.248,1094.15 24.24,1093.81" style="fill:none;fill-rule:nonzero;stroke:black;stroke-width:0.6px;"/>
        <path id="path92620" d="M-16.302,1084.7C-16.179,1089.54 -7.274,1093.3 3.427,1093.04C13.334,1092.79 21.664,1089.17 22.628,1084.69" style="fill:none;fill-rule:nonzero;stroke:black;stroke-width:0.6px;"/>
        <path id="path92622" d="M-10.16,1078.73C-13.936,1080.42 -16.14,1082.69 -16.28,1085.04" style="fill:none;fill-rule:nonzero;stroke:black;stroke-width:0.6px;"/>
        <path id="path92624" d="M22.714,1084.07C22.457,1081.73 20.144,1079.57 16.289,1078.08" style="fill:none;fill-rule:nonzero;stroke:black;stroke-width:0.6px;"/>
        <path id="path92626" d="M22.628,1084.69C22.697,1084.38 22.727,1084.05 22.72,1083.74" style="fill:none;fill-rule:nonzero;stroke:black;stroke-width:0.6px;"/>
        <path id="path92628" d="M-10.176,1078.06C-14.14,1079.83 -16.363,1082.24 -16.302,1084.7" style="fill:none;fill-rule:nonzero;stroke:black;stroke-width:0.6px;"/>
        <path id="path92630" d="M22.72,1083.74C22.659,1081.27 20.319,1078.97 16.272,1077.4" style="fill:none;fill-rule:nonzero;stroke:black;stroke-width:0.6px;"/>
        <path id="path92632" d="M-10.93,1085.24C-10.843,1088.75 -4.381,1091.48 3.384,1091.29C11.149,1091.1 17.467,1088.05 17.381,1084.54" style="fill:none;fill-rule:nonzero;stroke:black;stroke-width:0.6px;"/>
        <path id="path92634" d="M17.364,1083.87C17.345,1083.09 17.01,1082.32 16.376,1081.61" style="fill:none;fill-rule:nonzero;stroke:black;stroke-width:0.6px;"/>
        <path id="path92636" d="M-10.072,1082.26C-10.491,1082.78 -10.763,1083.33 -10.881,1083.87" style="fill:none;fill-rule:nonzero;stroke:black;stroke-width:0.6px;"/>
        <path id="path92638" d="M-10.947,1084.57C-10.858,1088.08 -4.397,1090.81 3.367,1090.62C11.131,1090.42 17.449,1087.38 17.364,1083.87" style="fill:none;fill-rule:nonzero;stroke:black;stroke-width:0.6px;"/>
        <path id="path92640" d="M-10.881,1083.87C-10.931,1084.1 -10.953,1084.34 -10.947,1084.57" style="fill:none;fill-rule:nonzero;stroke:black;stroke-width:0.6px;"/>
        <path id="path92642" d="M-10.016,1084.55C-10.016,1084.55 -10.016,1084.55 -10.016,1084.55C-9.934,1087.83 -3.898,1090.38 3.357,1090.2C10.071,1090.03 15.717,1087.58 16.371,1084.55" style="fill:none;fill-rule:nonzero;stroke:black;stroke-width:0.6px;"/>
        <path id="path92644" d="M16.371,1084.54C16.418,1084.32 16.438,1084.11 16.433,1083.89" style="fill:none;fill-rule:nonzero;stroke:black;stroke-width:0.6px;"/>
        <path id="path92646" d="M-9.821,1083.45C-9.96,1083.81 -10.025,1084.18 -10.016,1084.55" style="fill:none;fill-rule:nonzero;stroke:black;stroke-width:0.6px;"/>
        <path id="path92648" d="M16.433,1083.89C16.424,1083.53 16.341,1083.16 16.185,1082.81" style="fill:none;fill-rule:nonzero;stroke:black;stroke-width:0.6px;"/>
        <path id="path92650" d="M10.395,1089.1C6.058,1087.97 0.548,1088.11 -3.728,1089.45" style="fill:none;fill-rule:nonzero;stroke:black;stroke-width:0.6px;"/>
        <path id="path92652" d="M13.189,1006.94C18.714,1005.05 21.97,1002.09 21.894,999.016" style="fill:none;fill-rule:nonzero;stroke:black;stroke-width:0.6px;"/>
        <path id="path92654" d="M21.894,999.016C21.766,993.862 12.28,989.853 0.88,990.135C-10.52,990.417 -19.796,994.89 -19.669,1000.05C-19.669,1000.05 -19.669,1000.05 -19.669,1000.05" style="fill:none;fill-rule:nonzero;stroke:black;stroke-width:0.6px;"/>
        <path id="path92656" d="M13.44,1017.05C18.965,1015.16 22.22,1012.2 22.144,1009.13" style="fill:none;fill-rule:nonzero;stroke:black;stroke-width:0.6px;"/>
        <path id="path92658" d="M-19.669,1000.05C-19.541,1005.2 -10.055,1009.21 1.345,1008.93C5.595,1008.82 9.73,1008.13 13.189,1006.94" style="fill:none;fill-rule:nonzero;stroke:black;stroke-width:0.6px;"/>
        <path id="path92660" d="M-19.418,1010.15C-19.291,1015.31 -9.805,1019.32 1.595,1019.04C5.846,1018.93 9.981,1018.24 13.44,1017.05" style="fill:none;fill-rule:nonzero;stroke:black;stroke-width:0.6px;"/>
        <path id="path92662" d="M12.451,1006.49C17.639,1004.71 20.695,1001.93 20.623,999.047" style="fill:none;fill-rule:nonzero;stroke:black;stroke-width:0.6px;"/>
        <path id="path92664" d="M20.618,999.385C20.103,994.686 11.333,991.125 0.911,991.383C-9.511,991.641 -18.094,995.631 -18.376,1000.35" style="fill:none;fill-rule:nonzero;stroke:black;stroke-width:0.6px;"/>
        <path id="path92666" d="M-18.398,1000.01C-18.279,1004.85 -9.373,1008.62 1.331,1008.35C5.321,1008.25 9.204,1007.6 12.451,1006.49" style="fill:none;fill-rule:nonzero;stroke:black;stroke-width:0.6px;"/>
        <path id="path92668" d="M20.623,999.047C20.501,994.209 11.596,990.447 0.894,990.711C-9.807,990.976 -18.515,995.175 -18.398,1000.01" style="fill:none;fill-rule:nonzero;stroke:black;stroke-width:0.6px;"/>
        <path id="path92670" d="M-13.026,1000.56C-12.939,1004.07 -6.478,1006.8 1.288,1006.6C9.053,1006.41 15.372,1003.37 15.285,999.854C15.285,999.854 15.285,999.854 15.285,999.854" style="fill:none;fill-rule:nonzero;stroke:black;stroke-width:0.6px;"/>
        <path id="path92672" d="M-7.114,994.481C-10.877,995.771 -13.095,997.79 -13.043,999.881" style="fill:none;fill-rule:nonzero;stroke:black;stroke-width:0.6px;"/>
        <path id="path92674" d="M-13.043,999.881C-12.956,1003.39 -6.495,1006.12 1.271,1005.93C9.036,1005.74 15.355,1002.69 15.268,999.18C15.268,999.18 15.268,999.18 15.268,999.18" style="fill:none;fill-rule:nonzero;stroke:black;stroke-width:0.6px;"/>
        <path id="path92676" d="M15.268,999.18C15.181,995.669 8.72,992.938 0.954,993.13C-1.941,993.202 -4.758,993.673 -7.114,994.481" style="fill:none;fill-rule:nonzero;stroke:black;stroke-width:0.6px;"/>
        <path id="path92678" d="M8.798,1004.25C12.314,1003.04 14.385,1001.16 14.337,999.203" style="fill:none;fill-rule:nonzero;stroke:black;stroke-width:0.6px;"/>
        <path id="path92680" d="M-12.112,999.858C-12.112,999.858 -12.112,999.858 -12.112,999.858C-12.031,1003.14 -5.994,1005.69 1.261,1005.51C3.965,1005.44 6.597,1005 8.798,1004.25" style="fill:none;fill-rule:nonzero;stroke:black;stroke-width:0.6px;"/>
        <path id="path92682" d="M14.337,999.203C14.256,995.923 8.219,993.372 0.965,993.551C-6.29,993.731 -12.193,996.578 -12.112,999.858" style="fill:none;fill-rule:nonzero;stroke:black;stroke-width:0.6px;"/>
        <path id="path92684" d="M8.299,1004.41C3.962,1003.29 -1.548,1003.42 -5.824,1004.76" style="fill:none;fill-rule:nonzero;stroke:black;stroke-width:0.6px;"/>
        <path id="path92686" d="M-11.948,1071.38L-10.965,1071.98L-8.891,1072.87" style="fill:none;fill-rule:nonzero;stroke:black;stroke-width:0.6px;"/>
        <path id="path92688" d="M1.994,1074.17C-1.308,1074.33 -4.575,1074.05 -7.281,1073.36C-7.844,1073.21 -8.382,1073.05 -8.891,1072.87" style="fill:none;fill-rule:nonzero;stroke:black;stroke-width:0.6px;"/>
        <path id="path92690" d="M5.204,1073.87C4.142,1074.02 3.066,1074.12 1.994,1074.17" style="fill:none;fill-rule:nonzero;stroke:black;stroke-width:0.6px;"/>
        <path id="path92692" d="M16.261,1070.01C13.633,1071.87 9.536,1073.27 5.204,1073.87" style="fill:none;fill-rule:nonzero;stroke:black;stroke-width:0.6px;"/>
        <path id="path92694" d="M16.683,1069.69C16.577,1069.77 16.468,1069.86 16.357,1069.94" style="fill:none;fill-rule:nonzero;stroke:black;stroke-width:0.6px;"/>
        <path id="path92696" d="M16.357,1069.94C16.325,1069.96 16.293,1069.98 16.261,1070.01" style="fill:none;fill-rule:nonzero;stroke:black;stroke-width:0.6px;"/>
        <path id="path92698" d="M-5.626,1041.99C-6.483,1041.86 -7.302,1041.69 -8.069,1041.5C-11.593,1040.6 -14.027,1039.02 -14.658,1037.28C-14.766,1036.98 -14.821,1036.68 -14.826,1036.38" style="fill:none;fill-rule:nonzero;stroke:black;stroke-width:0.6px;"/>
        <path id="path92700" d="M-5.63,1041.99L-5.577,1042" style="fill:none;fill-rule:nonzero;stroke:black;stroke-width:0.6px;"/>
        <path id="path92702" d="M19.998,1039.38L18.585,1040.17L16.988,1040.89L15.238,1041.53L13.344,1042.08L11.332,1042.53L9.236,1042.88L7.604,1043.07L5.939,1043.19L4.264,1043.25L2.598,1043.24L0.598,1043.12L-1.356,1042.9L-3.227,1042.58L-4.43,1042.31L-5.577,1042" style="fill:none;fill-rule:nonzero;stroke:black;stroke-width:0.6px;"/>
        <path id="path92704" d="M19.998,1039.38C19.597,1039.75 19.154,1040.1 18.671,1040.43C15.437,1042.69 10.389,1044.37 5.018,1045.05C-0.353,1045.74 -6.047,1045.42 -10.397,1044.26C-14.747,1043.1 -17.754,1041.09 -18.534,1038.9C-18.664,1038.54 -18.732,1038.17 -18.741,1037.8" style="fill:none;fill-rule:nonzero;stroke:black;stroke-width:0.6px;"/>
        <path id="path92706" d="M-10.499,1075.86L-11.66,1075.27L-12.707,1074.64L-13.628,1073.97L-14.411,1073.26L-15.077,1072.48L-15.56,1071.66L-15.835,1070.83L-15.883,1070.19L-15.791,1069.54L-15.74,1069.33" style="fill:none;fill-rule:nonzero;stroke:black;stroke-width:0.6px;"/>
        <path id="path92708" d="M23.556,1065.89C23.611,1068.13 22.167,1070.41 19.46,1072.29C16.215,1074.55 11.156,1076.22 5.807,1076.91C0.457,1077.6 -5.183,1077.3 -9.608,1076.12C-9.911,1076.04 -10.208,1075.95 -10.499,1075.86" style="fill:none;fill-rule:nonzero;stroke:black;stroke-width:0.6px;"/>
        <path id="path92710" d="M-18.084,1064.35C-18.101,1063.66 -17.914,1062.96 -17.536,1062.29" style="fill:none;fill-rule:nonzero;stroke:black;stroke-width:0.6px;"/>
        <path id="path92712" d="M23.087,1063.89C23.189,1064.11 23.275,1064.34 23.344,1064.57C23.475,1065.01 23.545,1065.45 23.556,1065.89" style="fill:none;fill-rule:nonzero;stroke:black;stroke-width:0.6px;"/>
        <path id="path92714" d="M23.424,1060.58C23.479,1062.82 22.032,1065.1 19.329,1066.98C16.089,1069.24 11.045,1070.92 5.675,1071.6C0.306,1072.29 -5.389,1071.97 -9.74,1070.81C-14.091,1069.64 -17.097,1067.64 -17.877,1065.45C-18.006,1065.08 -18.074,1064.72 -18.084,1064.35" style="fill:none;fill-rule:nonzero;stroke:black;stroke-width:0.6px;"/>
        <path id="path92716" d="M-18.215,1059.04C-18.232,1058.35 -18.045,1057.65 -17.667,1056.98" style="fill:none;fill-rule:nonzero;stroke:black;stroke-width:0.6px;"/>
        <path id="path92718" d="M22.97,1058.61C23.066,1058.83 23.147,1059.04 23.212,1059.26C23.343,1059.7 23.413,1060.14 23.424,1060.58" style="fill:none;fill-rule:nonzero;stroke:black;stroke-width:0.6px;"/>
        <path id="path92720" d="M23.293,1055.27C23.347,1057.51 21.9,1059.79 19.197,1061.67C15.957,1063.93 10.913,1065.61 5.544,1066.29C0.174,1066.97 -5.52,1066.66 -9.871,1065.5C-14.222,1064.34 -17.229,1062.33 -18.009,1060.14C-18.138,1059.77 -18.206,1059.4 -18.215,1059.04" style="fill:none;fill-rule:nonzero;stroke:black;stroke-width:0.6px;"/>
        <path id="path92722" d="M-18.347,1053.73C-18.363,1053.04 -18.177,1052.35 -17.799,1051.67" style="fill:none;fill-rule:nonzero;stroke:black;stroke-width:0.6px;"/>
        <path id="path92724" d="M22.845,1053.31C22.938,1053.52 23.017,1053.74 23.081,1053.95C23.212,1054.39 23.282,1054.83 23.293,1055.27" style="fill:none;fill-rule:nonzero;stroke:black;stroke-width:0.6px;"/>
        <path id="path92726" d="M23.161,1049.96C23.216,1052.2 21.769,1054.48 19.066,1056.36C15.826,1058.62 10.782,1060.3 5.413,1060.98C0.043,1061.67 -5.652,1061.35 -10.003,1060.19C-14.353,1059.03 -17.36,1057.02 -18.14,1054.83C-18.269,1054.46 -18.337,1054.1 -18.347,1053.73" style="fill:none;fill-rule:nonzero;stroke:black;stroke-width:0.6px;"/>
        <path id="path92728" d="M-18.478,1048.42C-18.495,1047.73 -18.309,1047.04 -17.931,1046.36" style="fill:none;fill-rule:nonzero;stroke:black;stroke-width:0.6px;"/>
        <path id="path92730" d="M22.706,1047.99C22.802,1048.2 22.883,1048.42 22.949,1048.64C23.08,1049.08 23.15,1049.52 23.161,1049.96" style="fill:none;fill-rule:nonzero;stroke:black;stroke-width:0.6px;"/>
        <path id="path92732" d="M23.03,1044.65C23.085,1046.89 21.638,1049.17 18.934,1051.05C15.695,1053.31 10.651,1054.99 5.281,1055.67C-0.088,1056.36 -5.783,1056.04 -10.134,1054.88C-14.485,1053.72 -17.491,1051.71 -18.272,1049.52C-18.401,1049.15 -18.469,1048.79 -18.478,1048.42" style="fill:none;fill-rule:nonzero;stroke:black;stroke-width:0.6px;"/>
        <path id="path92734" d="M-18.609,1043.11C-18.626,1042.42 -18.44,1041.73 -18.065,1041.05" style="fill:none;fill-rule:nonzero;stroke:black;stroke-width:0.6px;"/>
        <path id="path92736" d="M22.567,1042.66C22.667,1042.88 22.75,1043.11 22.818,1043.33C22.949,1043.77 23.019,1044.21 23.03,1044.65" style="fill:none;fill-rule:nonzero;stroke:black;stroke-width:0.6px;"/>
        <path id="path92738" d="M22.898,1039.34C22.953,1041.58 21.506,1043.86 18.803,1045.74C15.563,1048 10.519,1049.68 5.15,1050.36C-0.22,1051.05 -5.915,1050.73 -10.265,1049.57C-14.616,1048.41 -17.623,1046.4 -18.403,1044.21C-18.532,1043.84 -18.6,1043.48 -18.609,1043.11" style="fill:none;fill-rule:nonzero;stroke:black;stroke-width:0.6px;"/>
        <path id="path92740" d="M-18.741,1037.8C-18.785,1036.01 -17.449,1034.18 -14.95,1032.7" style="fill:none;fill-rule:nonzero;stroke:black;stroke-width:0.6px;"/>
        <path id="path92742" d="M22.423,1037.32C22.528,1037.55 22.616,1037.79 22.687,1038.02C22.817,1038.46 22.887,1038.9 22.898,1039.34" style="fill:none;fill-rule:nonzero;stroke:black;stroke-width:0.6px;"/>
        <path id="path92744" d="M22.77,1034.47L22.764,1034.84L22.638,1035.65L22.381,1036.41L21.99,1037.17L21.457,1037.93L20.786,1038.68L19.998,1039.38" style="fill:none;fill-rule:nonzero;stroke:black;stroke-width:0.6px;"/>
        <path id="path92746" d="M23.588,1067.17C23.643,1069.4 22.198,1071.68 19.491,1073.57C19.007,1073.9 18.482,1074.23 17.921,1074.54" style="fill:none;fill-rule:nonzero;stroke:black;stroke-width:0.6px;"/>
        <path id="path92748" d="M23.455,1061.86C23.511,1064.09 22.064,1066.37 19.36,1068.26C16.12,1070.51 11.076,1072.19 5.707,1072.88C0.337,1073.56 -5.358,1073.24 -9.708,1072.08C-14.059,1070.92 -17.066,1068.91 -17.846,1066.72C-17.975,1066.36 -18.043,1065.99 -18.052,1065.62" style="fill:none;fill-rule:nonzero;stroke:black;stroke-width:0.6px;"/>
        <path id="path92750" d="M23.324,1056.55C23.378,1058.78 21.932,1061.06 19.229,1062.95C15.989,1065.2 10.945,1066.88 5.575,1067.57C0.206,1068.25 -5.489,1067.93 -9.84,1066.77C-14.19,1065.61 -17.197,1063.61 -17.977,1061.41C-18.106,1061.05 -18.175,1060.68 -18.184,1060.31" style="fill:none;fill-rule:nonzero;stroke:black;stroke-width:0.6px;"/>
        <path id="path92752" d="M23.193,1051.24C23.248,1053.47 21.801,1055.75 19.097,1057.64C15.858,1059.89 10.814,1061.57 5.444,1062.26C0.075,1062.94 -5.62,1062.62 -9.971,1061.46C-14.322,1060.3 -17.328,1058.3 -18.109,1056.1C-18.238,1055.74 -18.306,1055.37 -18.315,1055" style="fill:none;fill-rule:nonzero;stroke:black;stroke-width:0.6px;"/>
        <path id="path92754" d="M23.061,1045.93C23.116,1048.16 21.669,1050.44 18.966,1052.33C15.726,1054.58 10.682,1056.27 5.313,1056.95C-0.057,1057.63 -5.752,1057.31 -10.103,1056.15C-14.453,1054.99 -17.46,1052.99 -18.24,1050.79C-18.369,1050.43 -18.437,1050.06 -18.446,1049.69" style="fill:none;fill-rule:nonzero;stroke:black;stroke-width:0.6px;"/>
        <path id="path92756" d="M22.93,1040.62C22.985,1042.85 21.538,1045.13 18.834,1047.02C15.595,1049.27 10.551,1050.95 5.181,1051.64C-0.188,1052.32 -5.883,1052 -10.234,1050.84C-14.585,1049.68 -17.591,1047.68 -18.371,1045.48C-18.501,1045.12 -18.569,1044.75 -18.578,1044.38" style="fill:none;fill-rule:nonzero;stroke:black;stroke-width:0.6px;"/>
        <path id="path92758" d="M22.791,1035.29C22.846,1037.53 21.41,1039.82 18.703,1041.71C15.469,1043.96 10.421,1045.65 5.05,1046.33C-0.321,1047.01 -6.015,1046.69 -10.365,1045.53C-14.716,1044.37 -17.723,1042.37 -18.503,1040.17C-18.632,1039.81 -18.7,1039.44 -18.709,1039.07" style="fill:none;fill-rule:nonzero;stroke:black;stroke-width:0.6px;"/>
        <path id="path92760" d="M17.742,1028.59L17.764,1028.6L18.672,1029.1L19.504,1029.63L20.377,1030.29L21.128,1030.99L21.758,1031.73L22.243,1032.5L22.563,1033.26L22.738,1034.04L22.77,1034.47" style="fill:none;fill-rule:nonzero;stroke:black;stroke-width:0.6px;"/>
        <path id="path92762" d="M17.921,1074.54L16.896,1075.01L15.804,1075.45L14.34,1075.96L12.785,1076.41L11.158,1076.81L9.475,1077.14L7.741,1077.41L5.961,1077.61L4.157,1077.73L2.349,1077.79L0.074,1077.75L-2.174,1077.6L-4.356,1077.34L-5.997,1077.06L-7.579,1076.72L-9.086,1076.32L-10.499,1075.86" style="fill:none;fill-rule:nonzero;stroke:black;stroke-width:0.6px;"/>
        <path id="path92764" d="M-5.577,1042C-3.172,1042.5 -0.512,1042.72 2.18,1042.66C11.421,1042.43 18.941,1038.8 18.837,1034.62" style="fill:none;fill-rule:nonzero;stroke:black;stroke-width:0.6px;"/>
        <path id="path92766" d="M-11.321,1031.81C-11.24,1035.09 -5.203,1037.64 2.051,1037.46C6.174,1037.36 10.046,1036.4 12.509,1034.85" style="fill:none;fill-rule:nonzero;stroke:black;stroke-width:0.6px;"/>
        <path id="path92768" d="M-11.571,1021.7C-11.49,1024.98 -5.453,1027.54 1.801,1027.36C5.924,1027.25 9.796,1026.29 12.259,1024.74" style="fill:none;fill-rule:nonzero;stroke:black;stroke-width:0.6px;"/>
        <path id="path92770" d="M14.878,1021.05C14.845,1019.74 13.859,1018.49 12.072,1017.49" style="fill:none;fill-rule:nonzero;stroke:black;stroke-width:0.6px;"/>
        <path id="path92772" d="M-8.945,1018.01C-10.68,1019.09 -11.604,1020.39 -11.571,1021.7" style="fill:none;fill-rule:nonzero;stroke:black;stroke-width:0.6px;"/>
        <path id="path92774" d="M12.509,1034.85C14.24,1033.77 15.16,1032.47 15.128,1031.16" style="fill:none;fill-rule:nonzero;stroke:black;stroke-width:0.6px;"/>
        <path id="path92776" d="M12.259,1024.74C13.99,1023.66 14.91,1022.36 14.878,1021.05" style="fill:none;fill-rule:nonzero;stroke:black;stroke-width:0.6px;"/>
        <path id="path92778" d="M8.791,1020.76L2.697,1024.58" style="fill:none;fill-rule:nonzero;stroke:black;stroke-width:0.6px;"/>
        <path id="path92780" d="M3.143,1018.97L8.791,1020.76" style="fill:none;fill-rule:nonzero;stroke:black;stroke-width:0.6px;"/>
        <path id="path92782" d="M-5.485,1021.99L-0.771,1019.03" style="fill:none;fill-rule:nonzero;stroke:black;stroke-width:0.6px;"/>
        <path id="path92784" d="M2.697,1024.58L-5.485,1021.99" style="fill:none;fill-rule:nonzero;stroke:black;stroke-width:0.6px;"/>
        <path id="path92786" d="M19.578,1064.75C19.607,1066.46 18.59,1068.21 16.683,1069.69" style="fill:none;fill-rule:nonzero;stroke:black;stroke-width:0.6px;"/>
        <path id="path92788" d="M16.152,1064.68C16.144,1064.69 16.137,1064.69 16.13,1064.69C13.506,1066.56 9.421,1067.97 5.072,1068.57C0.724,1069.16 -3.889,1068.94 -7.412,1068.05C-9.339,1067.55 -10.94,1066.86 -12.099,1066.05" style="fill:none;fill-rule:nonzero;stroke:black;stroke-width:0.6px;"/>
        <path id="path92790" d="M16.01,1059.38C16.006,1059.38 16.002,1059.39 15.998,1059.39C13.375,1061.26 9.29,1062.66 4.941,1063.26C0.592,1063.85 -4.02,1063.63 -7.544,1062.74C-9.452,1062.25 -11.04,1061.56 -12.196,1060.76" style="fill:none;fill-rule:nonzero;stroke:black;stroke-width:0.6px;"/>
        <path id="path92792" d="M15.893,1054.06C15.885,1054.07 15.876,1054.07 15.867,1054.08C13.243,1055.94 9.158,1057.35 4.81,1057.94C0.461,1058.54 -4.152,1058.32 -7.675,1057.43C-9.583,1056.94 -11.172,1056.25 -12.327,1055.45" style="fill:none;fill-rule:nonzero;stroke:black;stroke-width:0.6px;"/>
        <path id="path92794" d="M15.776,1048.74C15.763,1048.75 15.749,1048.76 15.735,1048.77C13.112,1050.63 9.027,1052.04 4.678,1052.63C0.329,1053.23 -4.283,1053.01 -7.806,1052.12C-9.73,1051.62 -11.329,1050.93 -12.488,1050.12" style="fill:none;fill-rule:nonzero;stroke:black;stroke-width:0.6px;"/>
        <path id="path92796" d="M15.635,1043.43C15.625,1043.44 15.614,1043.45 15.604,1043.45C12.981,1045.32 8.896,1046.73 4.547,1047.33C0.198,1047.92 -4.414,1047.7 -7.938,1046.81C-9.876,1046.31 -11.484,1045.61 -12.645,1044.79" style="fill:none;fill-rule:nonzero;stroke:black;stroke-width:0.6px;"/>
        <path id="path92798" d="M15.414,1035.77C17.618,1034.39 18.791,1032.74 18.749,1031.07" style="fill:none;fill-rule:nonzero;stroke:black;stroke-width:0.6px;"/>
        <path id="path92800" d="M-11.438,1027.1C-13.75,1028.5 -14.985,1030.19 -14.943,1031.9" style="fill:none;fill-rule:nonzero;stroke:black;stroke-width:0.6px;"/>
        <path id="path92802" d="M18.749,1031.07C18.707,1029.36 17.39,1027.73 15.011,1026.44" style="fill:none;fill-rule:nonzero;stroke:black;stroke-width:0.6px;"/>
        <path id="path92804" d="M16.415,1076.21C17.545,1075.51 18.411,1074.72 18.978,1073.89" style="fill:none;fill-rule:nonzero;stroke:black;stroke-width:0.6px;"/>
        <path id="path92806" d="M-14.943,1031.9C-14.943,1031.9 -14.943,1031.9 -14.943,1031.9C-14.839,1036.08 -7.149,1039.33 2.092,1039.1C7.343,1038.97 12.276,1037.74 15.414,1035.77" style="fill:none;fill-rule:nonzero;stroke:black;stroke-width:0.6px;"/>
        <path id="path92808" d="M-13.415,1074.14C-11.495,1077.49 -4.645,1079.74 3.093,1079.55C8.344,1079.41 13.277,1078.18 16.415,1076.21" style="fill:none;fill-rule:nonzero;stroke:black;stroke-width:0.6px;"/>
        <path id="path92810" d="M0.753,1023.97L0.632,1019.05" style="fill:none;fill-rule:nonzero;stroke:black;stroke-width:0.6px;"/>
        <path id="path92812" d="M13.76,1085.4C15.491,1084.32 16.411,1083.02 16.379,1081.71" style="fill:none;fill-rule:nonzero;stroke:black;stroke-width:0.6px;"/>
        <path id="path92814" d="M-10.07,1082.37C-10.07,1082.37 -10.07,1082.37 -10.07,1082.37C-9.988,1085.65 -3.952,1088.2 3.303,1088.02C7.425,1087.92 11.298,1086.95 13.76,1085.4" style="fill:none;fill-rule:nonzero;stroke:black;stroke-width:0.6px;"/>
        <path id="path92816" d="M23.99,1083.7L24.24,1093.81" style="fill:none;fill-rule:nonzero;stroke:black;stroke-width:0.6px;"/>
        <path id="path92818" d="M-17.322,1094.84L-17.572,1084.73" style="fill:none;fill-rule:nonzero;stroke:black;stroke-width:0.6px;"/>
        <path id="path92820" d="M-10.93,1085.24L-10.947,1084.57" style="fill:none;fill-rule:nonzero;stroke:black;stroke-width:0.6px;"/>
        <path id="path92822" d="M17.364,1083.87L17.381,1084.54" style="fill:none;fill-rule:nonzero;stroke:black;stroke-width:0.6px;"/>
        <path id="path92824" d="M-19.669,1000.05L-19.418,1010.15" style="fill:none;fill-rule:nonzero;stroke:black;stroke-width:0.6px;"/>
        <path id="path92826" d="M22.144,1009.13L21.894,999.016" style="fill:none;fill-rule:nonzero;stroke:black;stroke-width:0.6px;"/>
        <path id="path92828" d="M15.285,999.854L15.268,999.18" style="fill:none;fill-rule:nonzero;stroke:black;stroke-width:0.6px;"/>
        <path id="path92830" d="M-13.043,999.881L-13.026,1000.56" style="fill:none;fill-rule:nonzero;stroke:black;stroke-width:0.6px;"/>
        <path id="path92832" d="M-18.084,1064.35L-18.052,1065.62" style="fill:none;fill-rule:nonzero;stroke:black;stroke-width:0.6px;"/>
        <path id="path92834" d="M-18.215,1059.04L-18.184,1060.31" style="fill:none;fill-rule:nonzero;stroke:black;stroke-width:0.6px;"/>
        <path id="path92836" d="M-18.347,1053.73L-18.315,1055" style="fill:none;fill-rule:nonzero;stroke:black;stroke-width:0.6px;"/>
        <path id="path92838" d="M-18.478,1048.42L-18.446,1049.69" style="fill:none;fill-rule:nonzero;stroke:black;stroke-width:0.6px;"/>
        <path id="path92840" d="M-18.609,1043.11L-18.578,1044.38" style="fill:none;fill-rule:nonzero;stroke:black;stroke-width:0.6px;"/>
        <path id="path92842" d="M-18.741,1037.8L-18.709,1039.07" style="fill:none;fill-rule:nonzero;stroke:black;stroke-width:0.6px;"/>
        <path id="path92844" d="M22.791,1035.29L22.77,1034.47" style="fill:none;fill-rule:nonzero;stroke:black;stroke-width:0.6px;"/>
        <path id="path92846" d="M22.93,1040.62L22.898,1039.34" style="fill:none;fill-rule:nonzero;stroke:black;stroke-width:0.6px;"/>
        <path id="path92848" d="M23.061,1045.93L23.03,1044.65" style="fill:none;fill-rule:nonzero;stroke:black;stroke-width:0.6px;"/>
        <path id="path92850" d="M23.193,1051.24L23.161,1049.96" style="fill:none;fill-rule:nonzero;stroke:black;stroke-width:0.6px;"/>
        <path id="path92852" d="M23.324,1056.55L23.293,1055.27" style="fill:none;fill-rule:nonzero;stroke:black;stroke-width:0.6px;"/>
        <path id="path92854" d="M23.455,1061.86L23.424,1060.58" style="fill:none;fill-rule:nonzero;stroke:black;stroke-width:0.6px;"/>
        <path id="path92856" d="M23.588,1067.17L23.556,1065.89" style="fill:none;fill-rule:nonzero;stroke:black;stroke-width:0.6px;"/>
        <path id="path92858" d="M15.128,1031.16L14.878,1021.05" style="fill:none;fill-rule:nonzero;stroke:black;stroke-width:0.6px;"/>
        <path id="path92860" d="M-11.571,1021.7L-11.321,1031.81" style="fill:none;fill-rule:nonzero;stroke:black;stroke-width:0.6px;"/>
        <path id="path92862" d="M-14.943,1031.9L-14.832,1036.38" style="fill:none;fill-rule:nonzero;stroke:black;stroke-width:0.6px;"/>
        <path id="path92864" d="M18.837,1034.62L18.749,1031.07" style="fill:none;fill-rule:nonzero;stroke:black;stroke-width:0.6px;"/>
        <path id="path92866" d="M-10.203,1076.97L-10.07,1082.37" style="fill:none;fill-rule:nonzero;stroke:black;stroke-width:0.6px;"/>
        <path id="path92868" d="M16.379,1081.71L16.245,1076.32" style="fill:none;fill-rule:nonzero;stroke:black;stroke-width:0.6px;"/>
        <g transform="matrix(1.00005,0.00120078,0.00120078,1.02842,-147.966,890.963)">
            <g transform="matrix(0.999951,-0.00116754,-0.00116754,0.972368,0.245061,5.79978)">
                <path d="M116.218,184.068L118.439,176.935L120.942,183.974L116.218,184.068Z"/>
                <path d="M118.992,204.684C118.992,204.684 118.713,190.72 118.552,182.603" style="fill:none;stroke:black;stroke-width:0.6px;stroke-linejoin:round;stroke-miterlimit:1.5;"/>
            </g>
        </g>
        <g transform="matrix(1.00005,0.00120078,0.00120078,1.02842,-149.688,832.888)">
            <g transform="matrix(0.999951,-0.00116754,-0.00116754,0.972368,1.89906,62.2676)">
                <path d="M119.013,111.751L116.717,118.86L114.288,111.795L119.013,111.751Z"/>
                <path d="M116.487,94.325C116.487,94.325 116.596,105.944 116.664,113.19" style="fill:none;stroke:black;stroke-width:0.6px;stroke-linejoin:round;stroke-miterlimit:1.5;"/>
            </g>
        </g>
    </g>
</svg>
