<?xml version="1.0" encoding="UTF-8" standalone="no"?>
<!DOCTYPE svg PUBLIC "-//W3C//DTD SVG 1.1//EN" "http://www.w3.org/Graphics/SVG/1.1/DTD/svg11.dtd">
<svg width="100%" height="100%" viewBox="0 0 300 300" version="1.1" xmlns="http://www.w3.org/2000/svg" xmlns:xlink="http://www.w3.org/1999/xlink" xml:space="preserve" xmlns:serif="http://www.serif.com/" style="fill-rule:evenodd;clip-rule:evenodd;stroke-linecap:round;">
    <g id="Base" transform="matrix(1,0,0,1,147.735,-896.928)">
        <path id="path94811" d="M-38.569,1010.3C-38.438,1015.46 -28.953,1019.46 -17.555,1019.18C-7.003,1018.92 1.869,1015.06 2.896,1010.29" style="fill:none;fill-rule:nonzero;stroke:black;stroke-width:0.4px;"/>
        <path id="path94813" d="M2.993,1009.27C2.977,1008.61 2.804,1007.95 2.478,1007.31" style="fill:none;fill-rule:nonzero;stroke:black;stroke-width:0.4px;"/>
        <path id="path94815" d="M-37.065,1006.65C-38.088,1007.82 -38.6,1009.06 -38.569,1010.3" style="fill:none;fill-rule:nonzero;stroke:black;stroke-width:0.4px;"/>
        <path id="path94817" d="M-38.319,1020.41C-38.188,1025.57 -28.703,1029.57 -17.305,1029.29C-6.753,1029.03 2.119,1025.17 3.146,1020.4" style="fill:none;fill-rule:nonzero;stroke:black;stroke-width:0.4px;"/>
        <path id="path94819" d="M2.896,1010.3C2.969,1009.96 3.002,1009.61 2.993,1009.27" style="fill:none;fill-rule:nonzero;stroke:black;stroke-width:0.4px;"/>
        <path id="path94821" d="M3.146,1020.41C3.219,1020.07 3.252,1019.72 3.243,1019.38" style="fill:none;fill-rule:nonzero;stroke:black;stroke-width:0.4px;"/>
        <path id="path94823" d="M-37.299,1010.27C-37.175,1015.11 -28.27,1018.87 -17.57,1018.61C-7.662,1018.36 0.668,1014.74 1.632,1010.26" style="fill:none;fill-rule:nonzero;stroke:black;stroke-width:0.4px;"/>
        <path id="path94825" d="M-36.573,1008.47C-36.997,1009.17 -37.233,1009.89 -37.276,1010.61" style="fill:none;fill-rule:nonzero;stroke:black;stroke-width:0.4px;"/>
        <path id="path94827" d="M1.717,1009.64C1.689,1009.38 1.635,1009.12 1.555,1008.87" style="fill:none;fill-rule:nonzero;stroke:black;stroke-width:0.4px;"/>
        <path id="path94829" d="M1.632,1010.26C1.7,1009.94 1.731,1009.62 1.723,1009.31" style="fill:none;fill-rule:nonzero;stroke:black;stroke-width:0.4px;"/>
        <path id="path94831" d="M-36.59,1007.8C-37.081,1008.61 -37.319,1009.44 -37.299,1010.27" style="fill:none;fill-rule:nonzero;stroke:black;stroke-width:0.4px;"/>
        <path id="path94833" d="M1.723,1009.3C1.718,1009.1 1.698,1008.9 1.663,1008.7" style="fill:none;fill-rule:nonzero;stroke:black;stroke-width:0.4px;"/>
        <path id="path94835" d="M-6.962,966.648C-1.437,964.755 1.818,961.79 1.742,958.721" style="fill:none;fill-rule:nonzero;stroke:black;stroke-width:0.4px;"/>
        <path id="path94837" d="M1.742,958.721C1.742,958.72 1.742,958.719 1.742,958.719C1.614,953.565 -7.872,949.555 -19.272,949.838C-30.672,950.12 -39.948,954.593 -39.82,959.747C-39.82,959.748 -39.82,959.749 -39.82,959.75" style="fill:none;fill-rule:nonzero;stroke:black;stroke-width:0.4px;"/>
        <path id="path94839" d="M-6.712,976.758C-1.187,974.865 2.068,971.901 1.992,968.831" style="fill:none;fill-rule:nonzero;stroke:black;stroke-width:0.4px;"/>
        <path id="path94841" d="M-39.82,959.75C-39.82,959.75 -39.82,959.75 -39.82,959.75C-39.693,964.904 -30.207,968.913 -18.807,968.631C-14.556,968.525 -10.421,967.833 -6.962,966.648" style="fill:none;fill-rule:nonzero;stroke:black;stroke-width:0.4px;"/>
        <path id="path94843" d="M-39.57,969.86C-39.442,975.014 -29.956,979.023 -18.556,978.741C-14.306,978.636 -10.171,977.944 -6.712,976.758" style="fill:none;fill-rule:nonzero;stroke:black;stroke-width:0.4px;"/>
        <path id="path94845" d="M-7.7,966.195C-2.513,964.417 0.543,961.634 0.472,958.752" style="fill:none;fill-rule:nonzero;stroke:black;stroke-width:0.4px;"/>
        <path id="path94847" d="M0.466,959.09C-0.049,954.391 -8.818,950.83 -19.241,951.088C-29.663,951.346 -38.246,955.336 -38.527,960.055" style="fill:none;fill-rule:nonzero;stroke:black;stroke-width:0.4px;"/>
        <path id="path94849" d="M-38.55,959.718C-38.43,964.557 -29.524,968.321 -18.821,968.056C-14.83,967.958 -10.948,967.308 -7.7,966.195" style="fill:none;fill-rule:nonzero;stroke:black;stroke-width:0.4px;"/>
        <path id="path94851" d="M0.472,958.752C0.35,953.914 -8.555,950.151 -19.257,950.416C-29.959,950.681 -38.668,954.88 -38.55,959.718" style="fill:none;fill-rule:nonzero;stroke:black;stroke-width:0.4px;"/>
        <path id="path94853" d="M-33.178,960.26C-33.091,963.771 -26.629,966.501 -18.864,966.309C-11.099,966.117 -4.78,963.07 -4.867,959.559C-4.867,959.559 -4.867,959.559 -4.867,959.559" style="fill:none;fill-rule:nonzero;stroke:black;stroke-width:0.4px;"/>
        <path id="path94855" d="M-27.266,954.186C-31.029,955.476 -33.246,957.495 -33.195,959.586" style="fill:none;fill-rule:nonzero;stroke:black;stroke-width:0.4px;"/>
        <path id="path94857" d="M-33.195,959.586C-33.108,963.096 -26.646,965.827 -18.881,965.635C-11.115,965.443 -4.797,962.396 -4.884,958.885C-4.884,958.885 -4.884,958.885 -4.884,958.885" style="fill:none;fill-rule:nonzero;stroke:black;stroke-width:0.4px;"/>
        <path id="path94859" d="M-4.884,958.885C-4.884,958.885 -4.884,958.885 -4.884,958.885C-4.97,955.374 -11.432,952.643 -19.197,952.835C-22.093,952.907 -24.909,953.378 -27.266,954.186" style="fill:none;fill-rule:nonzero;stroke:black;stroke-width:0.4px;"/>
        <path id="path94861" d="M-11.354,963.952C-7.838,962.748 -5.766,960.861 -5.815,958.908" style="fill:none;fill-rule:nonzero;stroke:black;stroke-width:0.4px;"/>
        <path id="path94863" d="M-32.263,959.563C-32.182,962.842 -26.146,965.394 -18.891,965.214C-16.186,965.147 -13.555,964.707 -11.354,963.952" style="fill:none;fill-rule:nonzero;stroke:black;stroke-width:0.4px;"/>
        <path id="path94865" d="M-5.815,958.908C-5.896,955.628 -11.932,953.077 -19.187,953.256C-26.442,953.436 -32.345,956.283 -32.263,959.563" style="fill:none;fill-rule:nonzero;stroke:black;stroke-width:0.4px;"/>
        <path id="path94867" d="M-32.641,1009.24L-31.657,1009.84L-29.584,1010.73" style="fill:none;fill-rule:nonzero;stroke:black;stroke-width:0.4px;"/>
        <path id="path94869" d="M-18.698,1012.03C-22.001,1012.19 -25.267,1011.91 -27.973,1011.21C-28.536,1011.07 -29.074,1010.91 -29.584,1010.73" style="fill:none;fill-rule:nonzero;stroke:black;stroke-width:0.4px;"/>
        <path id="path94871" d="M-15.488,1011.73C-16.55,1011.88 -17.626,1011.98 -18.698,1012.03" style="fill:none;fill-rule:nonzero;stroke:black;stroke-width:0.4px;"/>
        <path id="path94873" d="M-4.431,1007.86C-7.059,1009.73 -11.156,1011.13 -15.488,1011.73" style="fill:none;fill-rule:nonzero;stroke:black;stroke-width:0.4px;"/>
        <path id="path94875" d="M-26.319,979.844C-27.175,979.714 -27.994,979.551 -28.762,979.355C-32.093,978.506 -34.451,977.046 -35.231,975.422" style="fill:none;fill-rule:nonzero;stroke:black;stroke-width:0.4px;"/>
        <path id="path94877" d="M-26.323,979.85L-26.27,979.858" style="fill:none;fill-rule:nonzero;stroke:black;stroke-width:0.4px;"/>
        <path id="path94879" d="M-0.694,977.244L-2.108,978.033L-3.704,978.752L-5.454,979.387L-7.348,979.934L-9.361,980.387L-11.456,980.737L-13.641,980.978L-15.87,981.099L-18.094,981.094L-20.094,980.978L-22.048,980.759L-23.919,980.441L-25.122,980.171L-26.27,979.858" style="fill:none;fill-rule:nonzero;stroke:black;stroke-width:0.4px;"/>
        <path id="path94881" d="M-0.694,977.244C-1.095,977.604 -1.538,977.954 -2.021,978.292C-5.255,980.549 -10.303,982.231 -15.674,982.913C-21.045,983.595 -26.739,983.277 -31.089,982.116C-35.44,980.955 -38.446,978.952 -39.227,976.757C-39.356,976.394 -39.424,976.026 -39.433,975.656" style="fill:none;fill-rule:nonzero;stroke:black;stroke-width:0.4px;"/>
        <path id="path94883" d="M-31.192,1013.72L-32.715,1012.93L-34.028,1012.06L-35.103,1011.12L-35.769,1010.34L-36.252,1009.52L-36.527,1008.69L-36.56,1007.83L-36.436,1007.2" style="fill:none;fill-rule:nonzero;stroke:black;stroke-width:0.4px;"/>
        <path id="path94885" d="M2.864,1003.75C2.919,1005.99 1.474,1008.27 -1.232,1010.15C-4.477,1012.4 -9.536,1014.08 -14.886,1014.77C-20.235,1015.46 -25.875,1015.16 -30.301,1013.98C-30.603,1013.89 -30.901,1013.81 -31.192,1013.72" style="fill:none;fill-rule:nonzero;stroke:black;stroke-width:0.4px;"/>
        <path id="path94887" d="M-38.776,1002.21C-38.793,1001.52 -38.607,1000.83 -38.23,1000.15" style="fill:none;fill-rule:nonzero;stroke:black;stroke-width:0.4px;"/>
        <path id="path94889" d="M2.393,1001.74C2.496,1001.97 2.582,1002.2 2.651,1002.43C2.783,1002.87 2.853,1003.31 2.864,1003.75" style="fill:none;fill-rule:nonzero;stroke:black;stroke-width:0.4px;"/>
        <path id="path94891" d="M2.732,998.441C2.787,1000.68 1.34,1002.96 -1.364,1004.84C-4.603,1007.1 -9.647,1008.78 -15.017,1009.46C-20.386,1010.14 -26.081,1009.83 -30.432,1008.67C-34.783,1007.5 -37.789,1005.5 -38.57,1003.31C-38.699,1002.94 -38.767,1002.58 -38.776,1002.21" style="fill:none;fill-rule:nonzero;stroke:black;stroke-width:0.4px;"/>
        <path id="path94893" d="M-38.907,996.894C-38.924,996.211 -38.74,995.523 -38.367,994.85" style="fill:none;fill-rule:nonzero;stroke:black;stroke-width:0.4px;"/>
        <path id="path94895" d="M2.259,996.426C2.363,996.655 2.45,996.887 2.52,997.12C2.651,997.556 2.721,997.997 2.732,998.441" style="fill:none;fill-rule:nonzero;stroke:black;stroke-width:0.4px;"/>
        <path id="path94897" d="M2.6,993.133C2.655,995.368 1.208,997.649 -1.495,999.531C-4.735,1001.79 -9.779,1003.47 -15.148,1004.15C-20.518,1004.84 -26.213,1004.52 -30.564,1003.36C-34.914,1002.2 -37.921,1000.19 -38.701,997.996C-38.83,997.633 -38.898,997.264 -38.907,996.894" style="fill:none;fill-rule:nonzero;stroke:black;stroke-width:0.4px;"/>
        <path id="path94899" d="M-39.039,991.585C-39.056,990.891 -38.865,990.191 -38.48,989.508" style="fill:none;fill-rule:nonzero;stroke:black;stroke-width:0.4px;"/>
        <path id="path94901" d="M2.142,991.149C2.24,991.368 2.322,991.588 2.388,991.81C2.52,992.247 2.589,992.689 2.6,993.133" style="fill:none;fill-rule:nonzero;stroke:black;stroke-width:0.4px;"/>
        <path id="path94903" d="M2.469,987.821C2.524,990.057 1.077,992.339 -1.627,994.221C-4.866,996.477 -9.91,998.16 -15.28,998.842C-20.649,999.525 -26.344,999.206 -30.695,998.046C-35.046,996.885 -38.052,994.881 -38.832,992.687C-38.962,992.323 -39.03,991.955 -39.039,991.585" style="fill:none;fill-rule:nonzero;stroke:black;stroke-width:0.4px;"/>
        <path id="path94905" d="M-39.17,986.276C-39.187,985.591 -39.002,984.901 -38.628,984.227" style="fill:none;fill-rule:nonzero;stroke:black;stroke-width:0.4px;"/>
        <path id="path94907" d="M2.021,985.863C2.114,986.074 2.193,986.287 2.257,986.5C2.388,986.936 2.458,987.378 2.469,987.821" style="fill:none;fill-rule:nonzero;stroke:black;stroke-width:0.4px;"/>
        <path id="path94909" d="M2.337,982.512C2.392,984.748 0.946,987.029 -1.758,988.911C-4.998,991.167 -10.042,992.85 -15.411,993.532C-20.781,994.215 -26.476,993.897 -30.826,992.736C-35.177,991.575 -38.184,989.571 -38.964,987.377C-39.093,987.014 -39.161,986.646 -39.17,986.276" style="fill:none;fill-rule:nonzero;stroke:black;stroke-width:0.4px;"/>
        <path id="path94911" d="M-39.302,980.964C-39.318,980.272 -39.129,979.573 -38.744,978.891" style="fill:none;fill-rule:nonzero;stroke:black;stroke-width:0.4px;"/>
        <path id="path94913" d="M1.863,980.493C1.968,980.724 2.055,980.956 2.126,981.19C2.257,981.627 2.327,982.068 2.337,982.512" style="fill:none;fill-rule:nonzero;stroke:black;stroke-width:0.4px;"/>
        <path id="path94915" d="M2.206,977.203C2.261,979.438 0.814,981.719 -1.889,983.601C-5.129,985.857 -10.173,987.54 -15.543,988.223C-20.912,988.905 -26.607,988.587 -30.958,987.426C-35.309,986.265 -38.315,984.262 -39.095,982.067C-39.225,981.704 -39.293,981.335 -39.302,980.964" style="fill:none;fill-rule:nonzero;stroke:black;stroke-width:0.4px;"/>
        <path id="path94917" d="M-39.433,975.656C-39.456,974.718 -39.101,973.77 -38.397,972.866" style="fill:none;fill-rule:nonzero;stroke:black;stroke-width:0.4px;"/>
        <path id="path94919" d="M1.723,975.165C1.831,975.401 1.922,975.64 1.994,975.881C2.125,976.317 2.195,976.759 2.206,977.203" style="fill:none;fill-rule:nonzero;stroke:black;stroke-width:0.4px;"/>
        <path id="path94921" d="M2.078,972.327L2.071,972.697L1.946,973.505L1.689,974.27L1.298,975.03L0.765,975.791L0.093,976.537L-0.694,977.244" style="fill:none;fill-rule:nonzero;stroke:black;stroke-width:0.4px;"/>
        <path id="path94923" d="M2.896,1005.03C2.951,1007.26 1.506,1009.54 -1.201,1011.42C-1.686,1011.76 -2.211,1012.09 -2.771,1012.39" style="fill:none;fill-rule:nonzero;stroke:black;stroke-width:0.4px;"/>
        <path id="path94925" d="M2.763,999.714C2.818,1001.95 1.372,1004.23 -1.332,1006.11C-4.572,1008.37 -9.616,1010.05 -14.985,1010.74C-20.355,1011.42 -26.05,1011.1 -30.401,1009.94C-34.751,1008.78 -37.758,1006.77 -38.538,1004.58C-38.667,1004.22 -38.735,1003.85 -38.744,1003.48" style="fill:none;fill-rule:nonzero;stroke:black;stroke-width:0.4px;"/>
        <path id="path94927" d="M2.632,994.406C2.686,996.642 1.239,998.923 -1.464,1000.81C-4.703,1003.06 -9.747,1004.74 -15.117,1005.43C-20.486,1006.11 -26.181,1005.79 -30.532,1004.63C-34.883,1003.47 -37.889,1001.47 -38.67,999.27C-38.799,998.907 -38.867,998.538 -38.876,998.167" style="fill:none;fill-rule:nonzero;stroke:black;stroke-width:0.4px;"/>
        <path id="path94929" d="M2.5,989.095C2.556,991.331 1.109,993.612 -1.595,995.495C-4.835,997.75 -9.879,999.433 -15.248,1000.12C-20.618,1000.8 -26.313,1000.48 -30.663,999.319C-35.014,998.158 -38.021,996.155 -38.801,993.96C-38.93,993.597 -38.998,993.229 -39.007,992.859" style="fill:none;fill-rule:nonzero;stroke:black;stroke-width:0.4px;"/>
        <path id="path94931" d="M2.369,983.785C2.424,986.021 0.977,988.303 -1.727,990.185C-4.966,992.441 -10.01,994.124 -15.38,994.806C-20.749,995.489 -26.444,995.17 -30.795,994.01C-35.146,992.849 -38.152,990.845 -38.932,988.651C-39.061,988.288 -39.13,987.919 -39.139,987.549" style="fill:none;fill-rule:nonzero;stroke:black;stroke-width:0.4px;"/>
        <path id="path94933" d="M2.238,978.476C2.292,980.712 0.845,982.993 -1.858,984.875C-5.098,987.131 -10.142,988.814 -15.511,989.496C-20.881,990.179 -26.575,989.861 -30.926,988.7C-35.277,987.539 -38.284,985.535 -39.064,983.341C-39.193,982.977 -39.261,982.609 -39.27,982.238" style="fill:none;fill-rule:nonzero;stroke:black;stroke-width:0.4px;"/>
        <path id="path94935" d="M2.098,973.145C2.154,975.384 0.717,977.676 -1.989,979.565C-5.224,981.823 -10.272,983.505 -15.643,984.187C-21.013,984.869 -26.707,984.551 -31.058,983.39C-35.408,982.229 -38.415,980.226 -39.195,978.031C-39.324,977.668 -39.392,977.3 -39.402,976.929" style="fill:none;fill-rule:nonzero;stroke:black;stroke-width:0.4px;"/>
        <path id="path94937" d="M1.673,970.608L1.871,971.118L2.045,971.895L2.078,972.327" style="fill:none;fill-rule:nonzero;stroke:black;stroke-width:0.4px;"/>
        <path id="path94939" d="M-2.771,1012.39L-4.888,1013.31L-6.862,1013.98L-8.985,1014.54L-11.218,1015L-13.541,1015.34L-15.933,1015.56L-18.343,1015.65L-20.618,1015.61L-22.866,1015.46L-25.049,1015.2L-27.224,1014.82L-29.286,1014.32L-31.192,1013.72" style="fill:none;fill-rule:nonzero;stroke:black;stroke-width:0.4px;"/>
        <path id="path94941" d="M-26.27,979.858C-23.865,980.358 -21.204,980.584 -18.512,980.518C-11.339,980.34 -4.969,978.11 -2.71,974.985" style="fill:none;fill-rule:nonzero;stroke:black;stroke-width:0.4px;"/>
        <path id="path94943" d="M-11.901,958.623L-17.996,962.444" style="fill:none;fill-rule:nonzero;stroke:black;stroke-width:0.4px;"/>
        <path id="path94945" d="M-20.083,956.027L-11.901,958.623" style="fill:none;fill-rule:nonzero;stroke:black;stroke-width:0.4px;"/>
        <path id="path94947" d="M-26.177,959.848L-20.083,956.027" style="fill:none;fill-rule:nonzero;stroke:black;stroke-width:0.4px;"/>
        <path id="path94949" d="M-17.996,962.444L-26.177,959.848" style="fill:none;fill-rule:nonzero;stroke:black;stroke-width:0.4px;"/>
        <path id="path94951" d="M-8.433,962.6C-6.703,961.515 -5.782,960.218 -5.815,958.908" style="fill:none;fill-rule:nonzero;stroke:black;stroke-width:0.4px;"/>
        <path id="path94953" d="M-32.263,959.563C-32.182,962.842 -26.146,965.394 -18.891,965.214C-14.769,965.112 -10.896,964.144 -8.433,962.6" style="fill:none;fill-rule:nonzero;stroke:black;stroke-width:0.4px;"/>
        <path id="path94955" d="M-5.815,958.908C-5.896,955.628 -11.932,953.077 -19.187,953.256C-26.442,953.436 -32.345,956.283 -32.263,959.563" style="fill:none;fill-rule:nonzero;stroke:black;stroke-width:0.4px;"/>
        <path id="path94957" d="M-1.115,1002.61C-1.086,1004.32 -2.102,1006.07 -4.009,1007.55" style="fill:none;fill-rule:nonzero;stroke:black;stroke-width:0.4px;"/>
        <path id="path94959" d="M-4.588,1002.57C-7.213,1004.43 -11.285,1005.83 -15.62,1006.42C-19.969,1007.02 -24.581,1006.8 -28.105,1005.9C-30.044,1005.41 -31.654,1004.71 -32.814,1003.89" style="fill:none;fill-rule:nonzero;stroke:black;stroke-width:0.4px;"/>
        <path id="path94961" d="M-4.644,997.208C-4.661,997.22 -4.677,997.232 -4.694,997.244C-7.317,999.113 -11.403,1000.52 -15.751,1001.11C-20.1,1001.71 -24.712,1001.49 -28.236,1000.59C-30.178,1000.1 -31.789,999.397 -32.95,998.575" style="fill:none;fill-rule:nonzero;stroke:black;stroke-width:0.4px;"/>
        <path id="path94963" d="M-4.76,991.887C-4.781,991.903 -4.803,991.918 -4.825,991.934C-7.449,993.803 -11.534,995.209 -15.883,995.804C-20.231,996.399 -24.844,996.183 -28.367,995.285C-30.26,994.802 -31.839,994.122 -32.992,993.327" style="fill:none;fill-rule:nonzero;stroke:black;stroke-width:0.4px;"/>
        <path id="path94965" d="M-4.953,986.621C-4.954,986.622 -4.956,986.623 -4.957,986.624C-7.58,988.494 -11.665,989.899 -16.014,990.494C-20.363,991.089 -24.975,990.873 -28.499,989.975C-30.4,989.49 -31.984,988.807 -33.139,988.007" style="fill:none;fill-rule:nonzero;stroke:black;stroke-width:0.4px;"/>
        <path id="path94967" d="M-5.099,981.322C-7.723,983.188 -11.803,984.59 -16.146,985.184C-20.494,985.779 -25.107,985.563 -28.63,984.665C-30.579,984.168 -32.195,983.462 -33.357,982.637" style="fill:none;fill-rule:nonzero;stroke:black;stroke-width:0.4px;"/>
        <path id="path94969" d="M-4.277,1014.07C-3.137,1013.36 -2.265,1012.57 -1.699,1011.73" style="fill:none;fill-rule:nonzero;stroke:black;stroke-width:0.4px;"/>
        <path id="path94971" d="M-34.075,1012.06C-32.108,1015.38 -25.289,1017.59 -17.599,1017.4C-12.348,1017.27 -7.415,1016.04 -4.277,1014.07" style="fill:none;fill-rule:nonzero;stroke:black;stroke-width:0.4px;"/>
        <path id="path94973" d="M-19.939,961.827L-20.083,956.027" style="fill:none;fill-rule:nonzero;stroke:black;stroke-width:0.4px;"/>
        <path id="path94975" d="M11.831,1073.33L11.884,1075.48" style="fill:none;fill-rule:nonzero;stroke:rgb(6,141,17);stroke-width:0.8px;"/>
        <path id="path94977" d="M11.831,1073.33L14.404,1072.45" style="fill:none;fill-rule:nonzero;stroke:rgb(6,141,17);stroke-width:0.8px;"/>
        <path id="path94979" d="M14.404,1072.45L14.457,1074.6" style="fill:none;fill-rule:nonzero;stroke:rgb(6,141,17);stroke-width:0.8px;"/>
        <path id="path94981" d="M4.688,1068.94L4.731,1070.66" style="fill:none;fill-rule:nonzero;stroke:rgb(6,141,17);stroke-width:0.8px;"/>
        <path id="path94983" d="M4.688,1068.94L11.831,1073.33" style="fill:none;fill-rule:nonzero;stroke:rgb(6,141,17);stroke-width:0.8px;"/>
        <path id="path94985" d="M14.66,1065.56L17.005,1067" style="fill:none;fill-rule:nonzero;stroke:rgb(6,141,17);stroke-width:0.8px;"/>
        <path id="path94987" d="M7.297,1068.09L14.66,1065.56" style="fill:none;fill-rule:nonzero;stroke:rgb(6,141,17);stroke-width:0.8px;"/>
        <path id="path94989" d="M9.642,1069.53L7.297,1068.09" style="fill:none;fill-rule:nonzero;stroke:rgb(6,141,17);stroke-width:0.8px;"/>
        <path id="path94991" d="M17.005,1067L9.642,1069.53" style="fill:none;fill-rule:nonzero;stroke:rgb(6,141,17);stroke-width:0.8px;"/>
        <path id="path94993" d="M14.025,1064.15L12.874,1064.42" style="fill:none;fill-rule:nonzero;stroke:rgb(6,141,17);stroke-width:0.8px;"/>
        <path id="path94995" d="M15.201,1064.11L14.025,1064.15" style="fill:none;fill-rule:nonzero;stroke:rgb(6,141,17);stroke-width:0.8px;"/>
        <path id="path94997" d="M16.299,1064.27L15.201,1064.11" style="fill:none;fill-rule:nonzero;stroke:rgb(6,141,17);stroke-width:0.8px;"/>
        <path id="path94999" d="M17.213,1064.65L16.299,1064.27" style="fill:none;fill-rule:nonzero;stroke:rgb(6,141,17);stroke-width:0.8px;"/>
        <path id="path95001" d="M24.356,1069.04L17.213,1064.65" style="fill:none;fill-rule:nonzero;stroke:rgb(6,141,17);stroke-width:0.8px;"/>
        <path id="path95003" d="M21.767,1069.92L24.356,1069.04" style="fill:none;fill-rule:nonzero;stroke:rgb(6,141,17);stroke-width:0.8px;"/>
        <path id="path95005" d="M18.842,1068.13L21.767,1069.92" style="fill:none;fill-rule:nonzero;stroke:rgb(6,141,17);stroke-width:0.8px;"/>
        <path id="path95007" d="M11.479,1070.65L18.842,1068.13" style="fill:none;fill-rule:nonzero;stroke:rgb(6,141,17);stroke-width:0.8px;"/>
        <path id="path95009" d="M14.404,1072.45L11.479,1070.65" style="fill:none;fill-rule:nonzero;stroke:rgb(6,141,17);stroke-width:0.8px;"/>
        <path id="path95011" d="M4.15,1068.44L4.688,1068.94" style="fill:none;fill-rule:nonzero;stroke:rgb(6,141,17);stroke-width:0.8px;"/>
        <path id="path95013" d="M4.103,1067.91L4.15,1068.44" style="fill:none;fill-rule:nonzero;stroke:rgb(6,141,17);stroke-width:0.8px;"/>
        <path id="path95015" d="M4.528,1067.41L4.103,1067.91" style="fill:none;fill-rule:nonzero;stroke:rgb(6,141,17);stroke-width:0.8px;"/>
        <path id="path95017" d="M5.41,1066.98L4.528,1067.41" style="fill:none;fill-rule:nonzero;stroke:rgb(6,141,17);stroke-width:0.8px;"/>
        <path id="path95019" d="M12.874,1064.42L5.41,1066.98" style="fill:none;fill-rule:nonzero;stroke:rgb(6,141,17);stroke-width:0.8px;"/>
        <path id="path95021" d="M18.842,1068.13L18.88,1069.67" style="fill:none;fill-rule:nonzero;stroke:rgb(6,141,17);stroke-width:0.8px;"/>
        <path id="path95023" d="M21.767,1069.92L21.82,1072.08" style="fill:none;fill-rule:nonzero;stroke:rgb(6,141,17);stroke-width:0.8px;"/>
        <path id="path95025" d="M24.356,1069.04L24.409,1071.19" style="fill:none;fill-rule:nonzero;stroke:rgb(6,141,17);stroke-width:0.8px;"/>
        <path id="path95027" d="M4.15,1068.44L4.197,1070.31" style="fill:none;fill-rule:nonzero;stroke:rgb(6,141,17);stroke-width:0.8px;"/>
        <path id="path95029" d="M4.103,1067.91L4.153,1069.93" style="fill:none;fill-rule:nonzero;stroke:rgb(6,141,17);stroke-width:0.8px;"/>
        <path id="path95031" d="M14.66,1065.56L14.702,1067.27" style="fill:none;fill-rule:nonzero;stroke:rgb(6,141,17);stroke-width:0.8px;"/>
        <path id="path95033" d="M-17.66,1085.5L-17.629,1084.08L-17.463,1082.65L-17.157,1081.21L-16.71,1079.79L-15.74,1077.67L-15.109,1076.64L-14.379,1075.64L-13.331,1074.47L-12.101,1073.4L-11.135,1072.74L-10.583,1072.42" style="fill:none;fill-rule:nonzero;stroke:rgb(6,141,17);stroke-width:0.8px;"/>
        <path id="path95035" d="M-8.232,1071.5L-8.877,1071.73L-9.518,1072.01L-9.906,1072.19L-10.245,1072.35L-10.403,1072.41L-10.469,1072.43" style="fill:none;fill-rule:nonzero;stroke:rgb(6,141,17);stroke-width:0.8px;"/>
        <path id="path95037" d="M9.072,1065.55L9.02,1065.56L8.83,1065.63L8.461,1065.77L8.025,1065.93L7.007,1066.31L6.525,1066.49" style="fill:none;fill-rule:nonzero;stroke:rgb(6,141,17);stroke-width:0.8px;"/>
        <path id="path95039" d="M41.937,1134.19C51.939,1130.75 54.64,1111.8 47.92,1092.19C41.2,1072.58 27.439,1059.26 17.432,1062.68" style="fill:none;fill-rule:nonzero;stroke:rgb(6,141,17);stroke-width:0.8px;"/>
        <path id="path95041" d="M-5.672,1070.67L-6.939,1071.08L-8.232,1071.5" style="fill:none;fill-rule:nonzero;stroke:rgb(6,141,17);stroke-width:0.8px;"/>
        <path id="path95043" d="M-5.672,1070.67L-5.32,1070.55L-2.69,1069.7L-1.407,1069.27L-0.176,1068.86L2.305,1068.01L4.505,1067.23L6.525,1066.49" style="fill:none;fill-rule:nonzero;stroke:rgb(6,141,17);stroke-width:0.8px;"/>
        <path id="path95045" d="M-18.618,1099.01C-22.621,1100.38 -23.702,1107.96 -21.014,1115.81C-19.132,1121.3 -15.795,1125.77 -12.455,1127.28" style="fill:none;fill-rule:nonzero;stroke:rgb(6,141,17);stroke-width:0.8px;"/>
        <path id="path95047" d="M-12.65,1093.97C-12.523,1093.36 -12.603,1092.56 -12.871,1091.78C-13.375,1090.3 -14.407,1089.31 -15.158,1089.56" style="fill:none;fill-rule:nonzero;stroke:rgb(6,141,17);stroke-width:0.8px;"/>
        <path id="path95049" d="M-10.593,1095.85C-11.269,1095.15 -11.957,1094.52 -12.65,1093.97" style="fill:none;fill-rule:nonzero;stroke:rgb(6,141,17);stroke-width:0.8px;"/>
        <path id="path95051" d="M-7.646,1099.47C-7.211,1098.92 -7.183,1097.76 -7.579,1096.6C-8.083,1095.13 -9.116,1094.13 -9.866,1094.39C-9.866,1094.39 -9.866,1094.39 -9.866,1094.39" style="fill:none;fill-rule:nonzero;stroke:rgb(6,141,17);stroke-width:0.8px;"/>
        <path id="path95053" d="M-5.872,1102.31C-6.434,1101.31 -7.027,1100.37 -7.646,1099.47" style="fill:none;fill-rule:nonzero;stroke:rgb(6,141,17);stroke-width:0.8px;"/>
        <path id="path95055" d="M-3.567,1107.08C-3.532,1107.07 -3.497,1107.06 -3.463,1107.05" style="fill:none;fill-rule:nonzero;stroke:rgb(6,141,17);stroke-width:0.8px;"/>
        <path id="path95057" d="M-2.345,1110.44C-2.708,1109.31 -3.117,1108.18 -3.567,1107.08" style="fill:none;fill-rule:nonzero;stroke:rgb(6,141,17);stroke-width:0.8px;"/>
        <path id="path95059" d="M-1.033,1115.63C-0.778,1115.76 -0.533,1115.78 -0.319,1115.71" style="fill:none;fill-rule:nonzero;stroke:rgb(6,141,17);stroke-width:0.8px;"/>
        <path id="path95061" d="M-0.55,1119.02C-0.658,1117.91 -0.82,1116.78 -1.033,1115.63" style="fill:none;fill-rule:nonzero;stroke:rgb(6,141,17);stroke-width:0.8px;"/>
        <path id="path95063" d="M-0.431,1123.84C0.032,1124.34 0.527,1124.55 0.925,1124.41" style="fill:none;fill-rule:nonzero;stroke:rgb(6,141,17);stroke-width:0.8px;"/>
        <path id="path95065" d="M-0.759,1126.72C-0.596,1125.81 -0.486,1124.85 -0.431,1123.84" style="fill:none;fill-rule:nonzero;stroke:rgb(6,141,17);stroke-width:0.8px;"/>
        <path id="path95067" d="M-1.851,1130.43C-1.29,1131.47 -0.509,1132.03 0.08,1131.83" style="fill:none;fill-rule:nonzero;stroke:rgb(6,141,17);stroke-width:0.8px;"/>
        <path id="path95069" d="M-2.941,1132.38C-2.532,1131.81 -2.167,1131.16 -1.851,1130.43" style="fill:none;fill-rule:nonzero;stroke:rgb(6,141,17);stroke-width:0.8px;"/>
        <path id="path95071" d="M-5.077,1134.43C-5.057,1134.49 -5.036,1134.56 -5.013,1134.63C-4.509,1136.1 -3.476,1137.1 -2.726,1136.84" style="fill:none;fill-rule:nonzero;stroke:rgb(6,141,17);stroke-width:0.8px;"/>
        <path id="path95073" d="M-6.764,1135.14C-6.602,1135.1 -6.442,1135.05 -6.285,1135" style="fill:none;fill-rule:nonzero;stroke:rgb(6,141,17);stroke-width:0.8px;"/>
        <path id="path95075" d="M-9.619,1135.2C-9.587,1135.61 -9.496,1136.04 -9.352,1136.46C-8.848,1137.93 -7.816,1138.93 -7.065,1138.67" style="fill:none;fill-rule:nonzero;stroke:rgb(6,141,17);stroke-width:0.8px;"/>
        <path id="path95077" d="M-11.645,1134.57C-10.958,1134.87 -10.281,1135.08 -9.619,1135.2" style="fill:none;fill-rule:nonzero;stroke:rgb(6,141,17);stroke-width:0.8px;"/>
        <path id="path95079" d="M-14.785,1132.64C-14.912,1133.26 -14.832,1134.06 -14.564,1134.84C-14.06,1136.31 -13.028,1137.31 -12.277,1137.05" style="fill:none;fill-rule:nonzero;stroke:rgb(6,141,17);stroke-width:0.8px;"/>
        <path id="path95081" d="M-16.842,1130.77C-16.166,1131.47 -15.478,1132.1 -14.785,1132.64" style="fill:none;fill-rule:nonzero;stroke:rgb(6,141,17);stroke-width:0.8px;"/>
        <path id="path95083" d="M-19.789,1127.14C-20.224,1127.7 -20.251,1128.86 -19.856,1130.01C-19.352,1131.48 -18.319,1132.48 -17.569,1132.23" style="fill:none;fill-rule:nonzero;stroke:rgb(6,141,17);stroke-width:0.8px;"/>
        <path id="path95085" d="M-21.563,1124.31C-21.001,1125.3 -20.408,1126.25 -19.789,1127.14" style="fill:none;fill-rule:nonzero;stroke:rgb(6,141,17);stroke-width:0.8px;"/>
        <path id="path95087" d="M-23.868,1119.54C-23.903,1119.54 -23.938,1119.55 -23.972,1119.57" style="fill:none;fill-rule:nonzero;stroke:rgb(6,141,17);stroke-width:0.8px;"/>
        <path id="path95089" d="M-25.09,1116.17C-24.727,1117.31 -24.318,1118.43 -23.868,1119.54" style="fill:none;fill-rule:nonzero;stroke:rgb(6,141,17);stroke-width:0.8px;"/>
        <path id="path95091" d="M-26.402,1110.98C-26.657,1110.86 -26.902,1110.83 -27.116,1110.9" style="fill:none;fill-rule:nonzero;stroke:rgb(6,141,17);stroke-width:0.8px;"/>
        <path id="path95093" d="M-26.885,1107.6C-26.777,1108.71 -26.615,1109.84 -26.402,1110.98" style="fill:none;fill-rule:nonzero;stroke:rgb(6,141,17);stroke-width:0.8px;"/>
        <path id="path95095" d="M-27.004,1102.78C-27.467,1102.28 -27.962,1102.07 -28.36,1102.2" style="fill:none;fill-rule:nonzero;stroke:rgb(6,141,17);stroke-width:0.8px;"/>
        <path id="path95097" d="M-26.676,1099.9C-26.839,1100.81 -26.949,1101.77 -27.004,1102.78" style="fill:none;fill-rule:nonzero;stroke:rgb(6,141,17);stroke-width:0.8px;"/>
        <path id="path95099" d="M-25.584,1096.18C-26.144,1095.15 -26.926,1094.58 -27.515,1094.78" style="fill:none;fill-rule:nonzero;stroke:rgb(6,141,17);stroke-width:0.8px;"/>
        <path id="path95101" d="M-24.494,1094.23C-24.903,1094.81 -25.268,1095.46 -25.584,1096.18" style="fill:none;fill-rule:nonzero;stroke:rgb(6,141,17);stroke-width:0.8px;"/>
        <path id="path95103" d="M-22.358,1092.19C-22.378,1092.12 -22.399,1092.06 -22.422,1091.99C-22.926,1090.52 -23.959,1089.52 -24.709,1089.78" style="fill:none;fill-rule:nonzero;stroke:rgb(6,141,17);stroke-width:0.8px;"/>
        <path id="path95105" d="M-20.671,1091.48C-20.833,1091.52 -20.993,1091.57 -21.15,1091.62" style="fill:none;fill-rule:nonzero;stroke:rgb(6,141,17);stroke-width:0.8px;"/>
        <path id="path95107" d="M-17.816,1091.41C-17.848,1091.01 -17.939,1090.58 -18.083,1090.15C-18.587,1088.68 -19.619,1087.69 -20.37,1087.94" style="fill:none;fill-rule:nonzero;stroke:rgb(6,141,17);stroke-width:0.8px;"/>
        <path id="path95109" d="M-15.79,1092.04C-16.477,1091.75 -17.154,1091.53 -17.816,1091.41" style="fill:none;fill-rule:nonzero;stroke:rgb(6,141,17);stroke-width:0.8px;"/>
        <path id="path95111" d="M10.217,1122.96C10.321,1122.38 10.404,1121.77 10.464,1121.14" style="fill:none;fill-rule:nonzero;stroke:rgb(6,141,17);stroke-width:0.8px;"/>
        <path id="path95113" d="M10.426,1115.26C10.327,1114.24 10.184,1113.21 9.998,1112.18" style="fill:none;fill-rule:nonzero;stroke:rgb(6,141,17);stroke-width:0.8px;"/>
        <path id="path95115" d="M8.63,1106.68C8.268,1105.54 7.859,1104.42 7.409,1103.32" style="fill:none;fill-rule:nonzero;stroke:rgb(6,141,17);stroke-width:0.8px;"/>
        <path id="path95117" d="M4.901,1098.19C4.4,1097.33 3.875,1096.5 3.33,1095.71" style="fill:none;fill-rule:nonzero;stroke:rgb(6,141,17);stroke-width:0.8px;"/>
        <path id="path95119" d="M3.33,1095.71C3.765,1095.16 3.792,1094 3.397,1092.84C2.893,1091.37 1.86,1090.37 1.11,1090.63C1.11,1090.63 1.11,1090.63 1.11,1090.63" style="fill:none;fill-rule:nonzero;stroke:rgb(6,141,17);stroke-width:0.8px;"/>
        <path id="path95121" d="M-0.53,1091.19C-0.909,1090.84 -1.291,1090.51 -1.674,1090.21" style="fill:none;fill-rule:nonzero;stroke:rgb(6,141,17);stroke-width:0.8px;"/>
        <path id="path95123" d="M-1.674,1090.21C-1.547,1089.6 -1.628,1088.79 -1.895,1088.01C-2.399,1086.54 -3.431,1085.54 -4.182,1085.8" style="fill:none;fill-rule:nonzero;stroke:rgb(6,141,17);stroke-width:0.8px;"/>
        <path id="path95125" d="M-6.994,1086.77C-7.027,1086.64 -7.065,1086.52 -7.107,1086.39C-7.611,1084.92 -8.644,1083.92 -9.394,1084.18C-9.394,1084.18 -9.394,1084.18 -9.394,1084.18" style="fill:none;fill-rule:nonzero;stroke:rgb(6,141,17);stroke-width:0.8px;"/>
        <path id="path95127" d="M-17.696,1084.05C-18.371,1085.08 -18.946,1086.27 -19.415,1087.62" style="fill:none;fill-rule:nonzero;stroke:rgb(6,141,17);stroke-width:0.8px;"/>
        <path id="path95129" d="M-17.696,1084.05L-17.66,1085.5" style="fill:none;fill-rule:nonzero;stroke:rgb(6,141,17);stroke-width:0.8px;"/>
        <path id="path95131" d="M10.657,1111.95C11.404,1111.69 11.605,1110.27 11.102,1108.8C10.599,1107.33 9.57,1106.34 8.819,1106.59" style="fill:none;fill-rule:nonzero;stroke:rgb(6,141,17);stroke-width:0.8px;"/>
        <path id="path95133" d="M-2.157,1110.35C-2.223,1110.37 -2.286,1110.4 -2.345,1110.44" style="fill:none;fill-rule:nonzero;stroke:rgb(6,141,17);stroke-width:0.8px;"/>
        <path id="path95135" d="M-0.319,1115.71C-0.319,1115.71 -0.319,1115.71 -0.319,1115.71C0.432,1115.45 0.634,1114.03 0.13,1112.56C-0.374,1111.09 -1.406,1110.09 -2.157,1110.35" style="fill:none;fill-rule:nonzero;stroke:rgb(6,141,17);stroke-width:0.8px;"/>
        <path id="path95137" d="M7.513,1103.29C8.263,1103.03 8.466,1101.61 7.962,1100.14C7.458,1098.67 6.426,1097.67 5.675,1097.93" style="fill:none;fill-rule:nonzero;stroke:rgb(6,141,17);stroke-width:0.8px;"/>
        <path id="path95139" d="M-5.301,1101.69C-5.548,1101.77 -5.745,1101.99 -5.872,1102.31" style="fill:none;fill-rule:nonzero;stroke:rgb(6,141,17);stroke-width:0.8px;"/>
        <path id="path95141" d="M-3.463,1107.05C-2.716,1106.79 -2.515,1105.37 -3.018,1103.9C-3.521,1102.43 -4.55,1101.44 -5.301,1101.69" style="fill:none;fill-rule:nonzero;stroke:rgb(6,141,17);stroke-width:0.8px;"/>
        <path id="path95143" d="M11.901,1120.65C11.901,1120.65 11.901,1120.65 11.901,1120.65C12.652,1120.39 12.855,1118.97 12.35,1117.5C11.931,1116.28 11.134,1115.35 10.426,1115.26" style="fill:none;fill-rule:nonzero;stroke:rgb(6,141,17);stroke-width:0.8px;"/>
        <path id="path95145" d="M0.925,1124.41C1.676,1124.16 1.878,1122.73 1.374,1121.26C0.955,1120.04 0.158,1119.11 -0.55,1119.02" style="fill:none;fill-rule:nonzero;stroke:rgb(6,141,17);stroke-width:0.8px;"/>
        <path id="path95147" d="M-0.55,1119.02L10.426,1115.26" style="fill:none;fill-rule:nonzero;stroke:rgb(6,141,17);stroke-width:0.8px;"/>
        <path id="path95149" d="M-9.866,1094.39C-10.298,1094.54 -10.568,1095.08 -10.593,1095.85" style="fill:none;fill-rule:nonzero;stroke:rgb(6,141,17);stroke-width:0.8px;"/>
        <path id="path95151" d="M3.33,1095.71L-7.646,1099.47" style="fill:none;fill-rule:nonzero;stroke:rgb(6,141,17);stroke-width:0.8px;"/>
        <path id="path95153" d="M-16.918,1098.8C-19.748,1101.39 -20.136,1108.04 -17.847,1114.72C-15.558,1121.4 -11.173,1126.42 -7.35,1126.73" style="fill:none;fill-rule:nonzero;stroke:rgb(6,141,17);stroke-width:0.8px;"/>
        <path id="path95155" d="M-12.455,1127.28C-11.152,1127.87 -9.909,1127.98 -8.817,1127.61" style="fill:none;fill-rule:nonzero;stroke:rgb(6,141,17);stroke-width:0.8px;"/>
        <path id="path95157" d="M-8.817,1127.61C-4.825,1126.22 -3.75,1118.65 -6.435,1110.81C-9.12,1102.98 -14.616,1097.65 -18.618,1099.01" style="fill:none;fill-rule:nonzero;stroke:rgb(6,141,17);stroke-width:0.8px;"/>
        <path id="path95159" d="M-0.759,1126.72L10.217,1122.96" style="fill:none;fill-rule:nonzero;stroke:rgb(6,141,17);stroke-width:0.8px;"/>
        <path id="path95161" d="M11.056,1128.07C11.056,1128.07 11.056,1128.07 11.056,1128.07C11.806,1127.81 12.009,1126.39 11.505,1124.92C11.215,1124.07 10.737,1123.35 10.217,1122.96" style="fill:none;fill-rule:nonzero;stroke:rgb(6,141,17);stroke-width:0.8px;"/>
        <path id="path95163" d="M0.08,1131.83C0.08,1131.83 0.08,1131.83 0.08,1131.83C0.831,1131.58 1.033,1130.15 0.529,1128.68C0.239,1127.84 -0.239,1127.11 -0.759,1126.72" style="fill:none;fill-rule:nonzero;stroke:rgb(6,141,17);stroke-width:0.8px;"/>
        <path id="path95165" d="M-1.674,1090.21L-12.65,1093.97" style="fill:none;fill-rule:nonzero;stroke:rgb(6,141,17);stroke-width:0.8px;"/>
        <path id="path95167" d="M-15.158,1089.56C-15.782,1089.78 -16.044,1090.8 -15.79,1092.04" style="fill:none;fill-rule:nonzero;stroke:rgb(6,141,17);stroke-width:0.8px;"/>
        <path id="path95169" d="M2.932,1044.09L3.389,1044.83L3.831,1046.05" style="fill:none;fill-rule:nonzero;stroke:rgb(6,141,17);stroke-width:0.8px;"/>
        <path id="path95171" d="M6.866,1043.4L2.93,1044.08" style="fill:none;fill-rule:nonzero;stroke:rgb(6,141,17);stroke-width:0.8px;"/>
        <path id="path95173" d="M0.446,1038.88L1.776,1039.48L3.003,1040.13L4.131,1040.84L5.135,1041.59L6.088,1042.47L6.866,1043.4" style="fill:none;fill-rule:nonzero;stroke:rgb(6,141,17);stroke-width:0.8px;"/>
        <path id="path95175" d="M0.433,1038.88L-1.101,1038.29L-2.753,1037.77L-4.539,1037.3L-6.428,1036.89" style="fill:none;fill-rule:nonzero;stroke:rgb(6,141,17);stroke-width:0.8px;"/>
        <path id="path95177" d="M-6.948,1036.8L-6.426,1036.89" style="fill:none;fill-rule:nonzero;stroke:rgb(6,141,17);stroke-width:0.8px;"/>
        <path id="path95179" d="M-8.669,1038.54L-6.948,1036.8" style="fill:none;fill-rule:nonzero;stroke:rgb(6,141,17);stroke-width:0.8px;"/>
        <path id="path95181" d="M-26.528,1039.22L-24.095,1038.68L-21.544,1038.28L-18.861,1038.03L-16.143,1037.94L-13.439,1038.01L-11.013,1038.21L-8.671,1038.54" style="fill:none;fill-rule:nonzero;stroke:rgb(6,141,17);stroke-width:0.8px;"/>
        <path id="path95183" d="M-26.529,1039.21C-26.791,1039.13 -27.107,1039.1 -27.43,1039.1C-28.259,1039.12 -28.934,1039.45 -28.924,1039.83" style="fill:none;fill-rule:nonzero;stroke:rgb(6,141,17);stroke-width:0.8px;"/>
        <path id="path95185" d="M-32.248,1041.33L-30.67,1040.59L-28.935,1039.93L-28.905,1039.92" style="fill:none;fill-rule:nonzero;stroke:rgb(6,141,17);stroke-width:0.8px;"/>
        <path id="path95187" d="M-35.389,1040.16L-32.264,1041.34" style="fill:none;fill-rule:nonzero;stroke:rgb(6,141,17);stroke-width:0.8px;"/>
        <path id="path95189" d="M-41.06,1045.11L-40.524,1044.26L-39.847,1043.43L-39.013,1042.6L-38.04,1041.81L-36.799,1040.96L-35.389,1040.16" style="fill:none;fill-rule:nonzero;stroke:rgb(6,141,17);stroke-width:0.8px;"/>
        <path id="path95191" d="M-41.064,1045.11L-41.474,1046.03L-41.72,1046.96L-41.797,1047.87" style="fill:none;fill-rule:nonzero;stroke:rgb(6,141,17);stroke-width:0.8px;"/>
        <path id="path95193" d="M-41.637,1049.13L-41.696,1048.87" style="fill:none;fill-rule:nonzero;stroke:rgb(6,141,17);stroke-width:0.8px;"/>
        <path id="path95195" d="M-37.5,1048.87L-41.637,1049.13" style="fill:none;fill-rule:nonzero;stroke:rgb(6,141,17);stroke-width:0.8px;"/>
        <path id="path95197" d="M-27.955,1055.51L-30.125,1054.84L-32.075,1054.05L-33.771,1053.14L-35.203,1052.12L-36.321,1051.03L-37.106,1049.87L-37.494,1048.87" style="fill:none;fill-rule:nonzero;stroke:rgb(6,141,17);stroke-width:0.8px;"/>
        <path id="path95199" d="M-27.955,1055.51C-27.961,1055.54 -27.963,1055.57 -27.963,1055.59" style="fill:none;fill-rule:nonzero;stroke:rgb(6,141,17);stroke-width:0.8px;"/>
        <path id="path95201" d="M-21.239,1056.62L-23.408,1056.4L-25.501,1056.07" style="fill:none;fill-rule:nonzero;stroke:rgb(6,141,17);stroke-width:0.8px;"/>
        <path id="path95203" d="M-22.052,1058.48L-21.241,1056.62" style="fill:none;fill-rule:nonzero;stroke:rgb(6,141,17);stroke-width:0.8px;"/>
        <path id="path95205" d="M-9.961,1058.05L-11.825,1058.3L-13.731,1058.48L-15.691,1058.59L-17.67,1058.64L-19.864,1058.61L-22.052,1058.48" style="fill:none;fill-rule:nonzero;stroke:rgb(6,141,17);stroke-width:0.8px;"/>
        <path id="path95207" d="M-9.944,1058.05L-8,1057.72L-6.102,1057.31L-4.24,1056.83L-2.455,1056.27" style="fill:none;fill-rule:nonzero;stroke:rgb(6,141,17);stroke-width:0.8px;"/>
        <path id="path95209" d="M-1.991,1056.11L-2.453,1056.27" style="fill:none;fill-rule:nonzero;stroke:rgb(6,141,17);stroke-width:0.8px;"/>
        <path id="path95211" d="M-4.406,1054.63L-1.991,1056.11" style="fill:none;fill-rule:nonzero;stroke:rgb(6,141,17);stroke-width:0.8px;"/>
        <path id="path95213" d="M3.908,1047.31L3.641,1048.49L3.019,1049.7L2.057,1050.87L0.772,1051.98L-0.718,1052.95L-2.454,1053.84L-4.409,1054.63" style="fill:none;fill-rule:nonzero;stroke:rgb(6,141,17);stroke-width:0.8px;"/>
        <path id="path95215" d="M3.91,1047.31C4.457,1047.19 4.807,1046.93 4.801,1046.66" style="fill:none;fill-rule:nonzero;stroke:rgb(6,141,17);stroke-width:0.8px;"/>
        <path id="path95217" d="M-36.557,1054.24C-37.26,1054.48 -37.675,1054.86 -37.665,1055.25" style="fill:none;fill-rule:nonzero;stroke:rgb(6,141,17);stroke-width:0.8px;"/>
        <path id="path95219" d="M5.005,1049.32C4.302,1049.56 3.887,1049.94 3.897,1050.33" style="fill:none;fill-rule:nonzero;stroke:rgb(6,141,17);stroke-width:0.8px;"/>
        <path id="path95221" d="M-23.634,1035.65C-24.337,1035.89 -24.751,1036.27 -24.742,1036.66" style="fill:none;fill-rule:nonzero;stroke:rgb(6,141,17);stroke-width:0.8px;"/>
        <path id="path95223" d="M13.369,1046.6C13.299,1043.8 11.335,1041.12 7.743,1038.92" style="fill:none;fill-rule:nonzero;stroke:rgb(6,141,17);stroke-width:0.8px;"/>
        <path id="path95225" d="M7.743,1038.92C2.004,1035.39 -7.322,1033.44 -17.197,1033.68C-33.779,1034.09 -47.271,1040.6 -47.085,1048.1" style="fill:none;fill-rule:nonzero;stroke:rgb(6,141,17);stroke-width:0.8px;"/>
        <path id="path95227" d="M-47.085,1048.1C-46.897,1055.59 -33.1,1061.42 -16.52,1061.01C0.06,1060.6 13.551,1054.1 13.369,1046.6" style="fill:none;fill-rule:nonzero;stroke:rgb(6,141,17);stroke-width:0.8px;"/>
        <path id="path95229" d="M-2.941,1132.38L-0.816,1131.65" style="fill:none;fill-rule:nonzero;stroke:rgb(6,141,17);stroke-width:0.8px;"/>
        <path id="path95231" d="M-15.864,1090.74L-17.816,1091.41" style="fill:none;fill-rule:nonzero;stroke:rgb(6,141,17);stroke-width:0.8px;"/>
        <path id="path95233" d="M8.25,1133.08C9.001,1132.82 9.203,1131.4 8.699,1129.93C8.589,1129.61 8.451,1129.3 8.291,1129.02" style="fill:none;fill-rule:nonzero;stroke:rgb(6,141,17);stroke-width:0.8px;"/>
        <path id="path95235" d="M-2.726,1136.84C-1.975,1136.58 -1.773,1135.16 -2.277,1133.69C-2.442,1133.21 -2.672,1132.75 -2.941,1132.38" style="fill:none;fill-rule:nonzero;stroke:rgb(6,141,17);stroke-width:0.8px;"/>
        <path id="path95237" d="M-20.37,1087.94C-20.37,1087.94 -20.37,1087.94 -20.37,1087.94C-21.12,1088.2 -21.323,1089.62 -20.819,1091.09C-20.774,1091.22 -20.725,1091.35 -20.671,1091.48" style="fill:none;fill-rule:nonzero;stroke:rgb(6,141,17);stroke-width:0.8px;"/>
        <path id="path95239" d="M13.636,1057.41C13.636,1057.4 13.636,1057.39 13.636,1057.38" style="fill:none;fill-rule:nonzero;stroke:rgb(6,141,17);stroke-width:0.8px;"/>
        <path id="path95241" d="M-6.285,1135C-5.865,1134.85 -5.462,1134.66 -5.077,1134.43" style="fill:none;fill-rule:nonzero;stroke:rgb(6,141,17);stroke-width:0.8px;"/>
        <path id="path95243" d="M-21.15,1091.62C-21.57,1091.76 -21.973,1091.95 -22.358,1092.19" style="fill:none;fill-rule:nonzero;stroke:rgb(6,141,17);stroke-width:0.8px;"/>
        <path id="path95245" d="M-43.503,1116.46C-43.351,1122.59 -33.486,1127.67 -20.135,1128.48" style="fill:none;fill-rule:nonzero;stroke:rgb(6,141,17);stroke-width:0.8px;"/>
        <path id="path95247" d="M-17.696,1084.05L-19.538,1085.59L-21.16,1087.28L-22.469,1089" style="fill:none;fill-rule:nonzero;stroke:rgb(6,141,17);stroke-width:0.8px;"/>
        <path id="path95249" d="M3.911,1134.91C4.133,1134.84 4.316,1134.65 4.443,1134.38" style="fill:none;fill-rule:nonzero;stroke:rgb(6,141,17);stroke-width:0.8px;"/>
        <path id="path95251" d="M-7.065,1138.67C-7.065,1138.67 -7.065,1138.67 -7.065,1138.67C-6.315,1138.42 -6.112,1136.99 -6.616,1135.52C-6.66,1135.39 -6.71,1135.26 -6.764,1135.14" style="fill:none;fill-rule:nonzero;stroke:rgb(6,141,17);stroke-width:0.8px;"/>
        <path id="path95253" d="M-24.709,1089.78C-25.46,1090.03 -25.662,1091.45 -25.158,1092.93C-24.992,1093.41 -24.763,1093.86 -24.494,1094.23" style="fill:none;fill-rule:nonzero;stroke:rgb(6,141,17);stroke-width:0.8px;"/>
        <path id="path95255" d="M2.976,1049.79L2.577,1049.08L1.39,1047.43L-0.106,1045.87L-1.888,1044.41L-3.923,1043.07L-6.179,1041.85L-8.616,1040.78" style="fill:none;fill-rule:nonzero;stroke:rgb(6,141,17);stroke-width:0.8px;"/>
        <path id="path95257" d="M-4.406,1054.63L-4.351,1056.87" style="fill:none;fill-rule:nonzero;stroke:rgb(6,141,17);stroke-width:0.8px;"/>
        <path id="path95259" d="M-27.955,1055.51L-27.951,1055.67" style="fill:none;fill-rule:nonzero;stroke:rgb(6,141,17);stroke-width:0.8px;"/>
        <path id="path95261" d="M-19.097,1047.04L-21.783,1046.75L-24.382,1046.62L-26.848,1046.64L-29.141,1046.8L-31.22,1047.07L-33.052,1047.46L-34.603,1047.94L-35.849,1048.5L-36.768,1049.12L-37.236,1049.61" style="fill:none;fill-rule:nonzero;stroke:rgb(6,141,17);stroke-width:0.8px;"/>
        <path id="path95263" d="M-19.098,1047.04L-18.269,1043.36" style="fill:none;fill-rule:nonzero;stroke:rgb(6,141,17);stroke-width:0.8px;"/>
        <path id="path95265" d="M-18.268,1043.37L-20.239,1043.1L-22.177,1042.93L-24.067,1042.83L-25.89,1042.81L-26.435,1042.82" style="fill:none;fill-rule:nonzero;stroke:rgb(6,141,17);stroke-width:0.8px;"/>
        <path id="path95267" d="M-26.528,1039.22L-26.439,1042.82" style="fill:none;fill-rule:nonzero;stroke:rgb(6,141,17);stroke-width:0.8px;"/>
        <path id="path95269" d="M-8.669,1038.54L-8.614,1040.78" style="fill:none;fill-rule:nonzero;stroke:rgb(6,141,17);stroke-width:0.8px;"/>
        <path id="path95271" d="M-27.895,1050.46L-27.76,1055.92" style="fill:none;fill-rule:nonzero;stroke:rgb(6,141,17);stroke-width:0.8px;"/>
        <path id="path95273" d="M-27.895,1050.46C-28.419,1050.63 -28.926,1050.8 -29.417,1050.99" style="fill:none;fill-rule:nonzero;stroke:rgb(6,141,17);stroke-width:0.8px;"/>
        <path id="path95275" d="M-29.315,1055.09L-29.417,1050.99" style="fill:none;fill-rule:nonzero;stroke:rgb(6,141,17);stroke-width:0.8px;"/>
        <path id="path95277" d="M-21.24,1056.62L-21.193,1058.53" style="fill:none;fill-rule:nonzero;stroke:rgb(6,141,17);stroke-width:0.8px;"/>
        <path id="path95279" d="M-12.277,1137.05C-11.653,1136.84 -11.391,1135.81 -11.645,1134.57" style="fill:none;fill-rule:nonzero;stroke:rgb(6,141,17);stroke-width:0.8px;"/>
        <path id="path95281" d="M-27.515,1094.78C-28.265,1095.04 -28.468,1096.46 -27.964,1097.93C-27.674,1098.78 -27.196,1099.51 -26.676,1099.9" style="fill:none;fill-rule:nonzero;stroke:rgb(6,141,17);stroke-width:0.8px;"/>
        <path id="path95283" d="M-11.978,1058.29C-15.026,1058.06 -18.182,1058.13 -21.214,1058.52" style="fill:none;fill-rule:nonzero;stroke:rgb(6,141,17);stroke-width:0.8px;"/>
        <path id="path95285" d="M-32.375,1055.12C-32.375,1055.12 -32.375,1055.12 -32.375,1055.12C-32.391,1054.46 -33.599,1053.95 -35.05,1053.99C-35.591,1054 -36.117,1054.09 -36.557,1054.24" style="fill:none;fill-rule:nonzero;stroke:rgb(6,141,17);stroke-width:0.8px;"/>
        <path id="path95287" d="M-37.665,1055.25C-37.648,1055.9 -36.441,1056.41 -34.991,1056.38C-33.54,1056.34 -32.36,1055.77 -32.375,1055.12" style="fill:none;fill-rule:nonzero;stroke:rgb(6,141,17);stroke-width:0.8px;"/>
        <path id="path95289" d="M-27.963,1055.59C-27.963,1055.59 -27.963,1055.59 -27.963,1055.59C-27.953,1055.97 -27.263,1056.26 -26.434,1056.24C-26.094,1056.23 -25.766,1056.17 -25.501,1056.07" style="fill:none;fill-rule:nonzero;stroke:rgb(6,141,17);stroke-width:0.8px;"/>
        <path id="path95291" d="M-17.569,1132.23C-17.137,1132.08 -16.867,1131.54 -16.842,1130.77" style="fill:none;fill-rule:nonzero;stroke:rgb(6,141,17);stroke-width:0.8px;"/>
        <path id="path95293" d="M-28.36,1102.2C-29.111,1102.46 -29.313,1103.88 -28.809,1105.35C-28.39,1106.58 -27.593,1107.51 -26.885,1107.6" style="fill:none;fill-rule:nonzero;stroke:rgb(6,141,17);stroke-width:0.8px;"/>
        <path id="path95295" d="M-22.134,1124.93C-21.887,1124.84 -21.69,1124.63 -21.563,1124.31" style="fill:none;fill-rule:nonzero;stroke:rgb(6,141,17);stroke-width:0.8px;"/>
        <path id="path95297" d="M-23.972,1119.56C-24.719,1119.83 -24.92,1121.25 -24.417,1122.71C-23.914,1124.18 -22.885,1125.18 -22.134,1124.93" style="fill:none;fill-rule:nonzero;stroke:rgb(6,141,17);stroke-width:0.8px;"/>
        <path id="path95299" d="M-25.278,1116.27C-25.212,1116.25 -25.149,1116.21 -25.09,1116.17" style="fill:none;fill-rule:nonzero;stroke:rgb(6,141,17);stroke-width:0.8px;"/>
        <path id="path95301" d="M-27.116,1110.9C-27.863,1111.17 -28.064,1112.59 -27.561,1114.05C-27.058,1115.52 -26.029,1116.52 -25.278,1116.27" style="fill:none;fill-rule:nonzero;stroke:rgb(6,141,17);stroke-width:0.8px;"/>
        <path id="path95303" d="M2.965,1044.45C0.393,1042.29 -2.991,1040.45 -6.892,1039.04" style="fill:none;fill-rule:nonzero;stroke:rgb(6,141,17);stroke-width:0.8px;"/>
        <path id="path95305" d="M5.701,1043.6C4.394,1041.88 2.604,1040.29 0.439,1038.88" style="fill:none;fill-rule:nonzero;stroke:rgb(6,141,17);stroke-width:0.8px;"/>
        <path id="path95307" d="M9.187,1050.19C9.17,1049.54 7.963,1049.03 6.512,1049.07C5.971,1049.08 5.445,1049.17 5.005,1049.32" style="fill:none;fill-rule:nonzero;stroke:rgb(6,141,17);stroke-width:0.8px;"/>
        <path id="path95309" d="M3.897,1050.33C3.913,1050.98 5.121,1051.49 6.572,1051.46C8.022,1051.42 9.203,1050.85 9.187,1050.19C9.187,1050.19 9.187,1050.19 9.187,1050.19" style="fill:none;fill-rule:nonzero;stroke:rgb(6,141,17);stroke-width:0.8px;"/>
        <path id="path95311" d="M-6.892,1039.04L-8.614,1040.78" style="fill:none;fill-rule:nonzero;stroke:rgb(6,141,17);stroke-width:0.8px;"/>
        <path id="path95313" d="M-45.083,1128.98C-45.083,1128.98 -45.083,1128.98 -45.083,1128.98C-44.898,1136.48 -31.1,1142.31 -14.518,1141.9C-9.814,1141.78 -5.187,1141.17 -1.005,1140.11" style="fill:none;fill-rule:nonzero;stroke:rgb(6,141,17);stroke-width:0.8px;"/>
        <path id="path95315" d="M-45.35,1118.19C-45.35,1118.21 -45.35,1118.22 -45.349,1118.24" style="fill:none;fill-rule:nonzero;stroke:rgb(6,141,17);stroke-width:0.8px;"/>
        <path id="path95317" d="M-19.498,1045.17C-26.066,1044.54 -32.158,1045.04 -36.27,1046.33C-38.671,1047.08 -40.329,1048.05 -41.147,1049.1" style="fill:none;fill-rule:nonzero;stroke:rgb(6,141,17);stroke-width:0.8px;"/>
        <path id="path95319" d="M-19.498,1045.17L-19.098,1047.04" style="fill:none;fill-rule:nonzero;stroke:rgb(6,141,17);stroke-width:0.8px;"/>
        <path id="path95321" d="M-41.797,1047.87L-41.796,1047.92L-41.692,1048.87" style="fill:none;fill-rule:nonzero;stroke:rgb(6,141,17);stroke-width:0.8px;"/>
        <path id="path95323" d="M-35.337,1042.26C-35.484,1042.3 -35.63,1042.34 -35.773,1042.38C-38.321,1043.1 -40.119,1044.07 -41.062,1045.11" style="fill:none;fill-rule:nonzero;stroke:rgb(6,141,17);stroke-width:0.8px;"/>
        <path id="path95325" d="M-19.066,1043.26L-19.498,1045.17" style="fill:none;fill-rule:nonzero;stroke:rgb(6,141,17);stroke-width:0.8px;"/>
        <path id="path95327" d="M4.801,1046.66C4.794,1046.38 4.409,1046.14 3.833,1046.05" style="fill:none;fill-rule:nonzero;stroke:rgb(6,141,17);stroke-width:0.8px;"/>
        <path id="path95329" d="M3.867,1047.49L3.831,1046.05" style="fill:none;fill-rule:nonzero;stroke:rgb(6,141,17);stroke-width:0.8px;"/>
        <path id="path95331" d="M2.926,1044.08L2.978,1046.19" style="fill:none;fill-rule:nonzero;stroke:rgb(6,141,17);stroke-width:0.8px;"/>
        <path id="path95333" d="M3.728,1048.2L3.503,1047.44L2.978,1046.17" style="fill:none;fill-rule:nonzero;stroke:rgb(6,141,17);stroke-width:0.8px;"/>
        <path id="path95335" d="M-35.389,1040.16L-35.337,1042.26" style="fill:none;fill-rule:nonzero;stroke:rgb(6,141,17);stroke-width:0.8px;"/>
        <path id="path95337" d="M-32.261,1041.34L-32.209,1043.45" style="fill:none;fill-rule:nonzero;stroke:rgb(6,141,17);stroke-width:0.8px;"/>
        <path id="path95339" d="M-35.337,1042.26L-33.718,1042.87L-32.212,1043.43" style="fill:none;fill-rule:nonzero;stroke:rgb(6,141,17);stroke-width:0.8px;"/>
        <path id="path95341" d="M-28.831,1042.95L-28.906,1039.92" style="fill:none;fill-rule:nonzero;stroke:rgb(6,141,17);stroke-width:0.8px;"/>
        <path id="path95343" d="M-28.832,1042.95L-29.275,1042.99L-30.805,1043.18L-32.209,1043.44" style="fill:none;fill-rule:nonzero;stroke:rgb(6,141,17);stroke-width:0.8px;"/>
        <path id="path95345" d="M-28.924,1039.83C-28.923,1039.86 -28.917,1039.89 -28.906,1039.92" style="fill:none;fill-rule:nonzero;stroke:rgb(6,141,17);stroke-width:0.8px;"/>
        <path id="path95347" d="M-28.849,1042.88L-28.825,1042.79L-28.654,1042.66L-28.332,1042.57L-27.889,1042.54L-27.377,1042.58L-26.859,1042.68L-26.427,1042.83" style="fill:none;fill-rule:nonzero;stroke:rgb(6,141,17);stroke-width:0.8px;"/>
        <path id="path95349" d="M-6.948,1036.8L-6.892,1039.04" style="fill:none;fill-rule:nonzero;stroke:rgb(6,141,17);stroke-width:0.8px;"/>
        <path id="path95351" d="M-19.452,1036.53C-19.468,1035.87 -20.675,1035.36 -22.126,1035.4C-22.667,1035.41 -23.194,1035.5 -23.634,1035.65" style="fill:none;fill-rule:nonzero;stroke:rgb(6,141,17);stroke-width:0.8px;"/>
        <path id="path95353" d="M-24.742,1036.66C-24.725,1037.32 -23.518,1037.83 -22.067,1037.79C-20.616,1037.76 -19.436,1037.19 -19.452,1036.53C-19.452,1036.53 -19.452,1036.53 -19.452,1036.53" style="fill:none;fill-rule:nonzero;stroke:rgb(6,141,17);stroke-width:0.8px;"/>
        <path id="path95355" d="M-29.417,1050.99C-29.288,1051.01 -29.153,1051.01 -29.016,1051.01C-28.394,1050.99 -27.888,1050.75 -27.895,1050.47C-27.895,1050.47 -27.895,1050.47 -27.895,1050.46" style="fill:none;fill-rule:nonzero;stroke:rgb(6,141,17);stroke-width:0.8px;"/>
        <path id="path95357" d="M2.993,1009.27L3.243,1019.38" style="fill:none;fill-rule:nonzero;stroke:black;stroke-width:0.4px;"/>
        <path id="path95359" d="M-38.319,1020.41L-38.569,1010.3" style="fill:none;fill-rule:nonzero;stroke:black;stroke-width:0.4px;"/>
        <path id="path95361" d="M-39.82,959.75L-39.57,969.86" style="fill:none;fill-rule:nonzero;stroke:black;stroke-width:0.4px;"/>
        <path id="path95363" d="M1.992,968.831L1.742,958.721" style="fill:none;fill-rule:nonzero;stroke:black;stroke-width:0.4px;"/>
        <path id="path95365" d="M-4.867,959.559L-4.884,958.885" style="fill:none;fill-rule:nonzero;stroke:black;stroke-width:0.4px;"/>
        <path id="path95367" d="M-33.195,959.586L-33.178,960.26" style="fill:none;fill-rule:nonzero;stroke:black;stroke-width:0.4px;"/>
        <path id="path95369" d="M-38.776,1002.21L-38.744,1003.48" style="fill:none;fill-rule:nonzero;stroke:black;stroke-width:0.4px;"/>
        <path id="path95371" d="M-38.907,996.894L-38.876,998.167" style="fill:none;fill-rule:nonzero;stroke:black;stroke-width:0.4px;"/>
        <path id="path95373" d="M-39.039,991.585L-39.007,992.859" style="fill:none;fill-rule:nonzero;stroke:black;stroke-width:0.4px;"/>
        <path id="path95375" d="M-39.17,986.276L-39.139,987.549" style="fill:none;fill-rule:nonzero;stroke:black;stroke-width:0.4px;"/>
        <path id="path95377" d="M-39.302,980.964L-39.27,982.238" style="fill:none;fill-rule:nonzero;stroke:black;stroke-width:0.4px;"/>
        <path id="path95379" d="M-39.433,975.656L-39.402,976.929" style="fill:none;fill-rule:nonzero;stroke:black;stroke-width:0.4px;"/>
        <path id="path95381" d="M2.098,973.145L2.078,972.327" style="fill:none;fill-rule:nonzero;stroke:black;stroke-width:0.4px;"/>
        <path id="path95383" d="M2.238,978.476L2.206,977.203" style="fill:none;fill-rule:nonzero;stroke:black;stroke-width:0.4px;"/>
        <path id="path95385" d="M2.369,983.785L2.337,982.512" style="fill:none;fill-rule:nonzero;stroke:black;stroke-width:0.4px;"/>
        <path id="path95387" d="M2.5,989.095L2.469,987.821" style="fill:none;fill-rule:nonzero;stroke:black;stroke-width:0.4px;"/>
        <path id="path95389" d="M2.632,994.406L2.6,993.133" style="fill:none;fill-rule:nonzero;stroke:black;stroke-width:0.4px;"/>
        <path id="path95391" d="M2.763,999.714L2.732,998.441" style="fill:none;fill-rule:nonzero;stroke:black;stroke-width:0.4px;"/>
        <path id="path95393" d="M2.896,1005.03L2.864,1003.75" style="fill:none;fill-rule:nonzero;stroke:black;stroke-width:0.4px;"/>
        <path id="path95395" d="M-4.117,1137.67L-3.521,1138.19L-2.27,1139.2L-0.99,1140.12L0.313,1140.96L1.634,1141.7L2.967,1142.35L4.305,1142.89L5.64,1143.32L6.966,1143.65L8.279,1143.88L9.574,1144.01L10.847,1144.03L12.095,1143.96L13.315,1143.8L14.505,1143.54L15.661,1143.19L15.664,1143.19" style="fill:none;fill-rule:nonzero;stroke:rgb(6,141,17);stroke-width:0.8px;"/>
        <path id="path95397" d="M17.432,1062.68L9.061,1065.55" style="fill:none;fill-rule:nonzero;stroke:rgb(6,141,17);stroke-width:0.8px;"/>
        <path id="path95399" d="M15.661,1143.19L41.937,1134.19" style="fill:none;fill-rule:nonzero;stroke:rgb(6,141,17);stroke-width:0.8px;"/>
        <path id="path95401" d="M8.819,1106.59L-2.157,1110.35" style="fill:none;fill-rule:nonzero;stroke:rgb(6,141,17);stroke-width:0.8px;"/>
        <path id="path95403" d="M-0.319,1115.71L10.657,1111.95" style="fill:none;fill-rule:nonzero;stroke:rgb(6,141,17);stroke-width:0.8px;"/>
        <path id="path95405" d="M5.675,1097.93L-5.301,1101.69" style="fill:none;fill-rule:nonzero;stroke:rgb(6,141,17);stroke-width:0.8px;"/>
        <path id="path95407" d="M-3.463,1107.05L7.513,1103.29" style="fill:none;fill-rule:nonzero;stroke:rgb(6,141,17);stroke-width:0.8px;"/>
        <path id="path95409" d="M0.925,1124.41L11.901,1120.65" style="fill:none;fill-rule:nonzero;stroke:rgb(6,141,17);stroke-width:0.8px;"/>
        <path id="path95411" d="M1.11,1090.63L-9.866,1094.39" style="fill:none;fill-rule:nonzero;stroke:rgb(6,141,17);stroke-width:0.8px;"/>
        <path id="path95413" d="M-5.074,1116.96L-5.542,1116.07L-6.087,1114.95L-6.602,1113.8L-7.083,1112.61L-7.527,1111.4L-7.931,1110.17L-8.293,1108.94L-8.61,1107.71L-8.881,1106.48L-9.105,1105.27L-9.133,1105.1" style="fill:none;fill-rule:nonzero;stroke:rgb(6,141,17);stroke-width:0.8px;"/>
        <path id="path95415" d="M0.08,1131.83L11.056,1128.07" style="fill:none;fill-rule:nonzero;stroke:rgb(6,141,17);stroke-width:0.8px;"/>
        <path id="path95417" d="M-4.182,1085.8L-15.158,1089.56" style="fill:none;fill-rule:nonzero;stroke:rgb(6,141,17);stroke-width:0.8px;"/>
        <path id="path95419" d="M-47.085,1048.1L-46.818,1058.88" style="fill:none;fill-rule:nonzero;stroke:rgb(6,141,17);stroke-width:0.8px;"/>
        <path id="path95421" d="M13.636,1057.38L13.369,1046.6" style="fill:none;fill-rule:nonzero;stroke:rgb(6,141,17);stroke-width:0.8px;"/>
        <path id="path95423" d="M-2.726,1136.84L8.25,1133.08" style="fill:none;fill-rule:nonzero;stroke:rgb(6,141,17);stroke-width:0.8px;"/>
        <path id="path95425" d="M-9.394,1084.18L-20.37,1087.94" style="fill:none;fill-rule:nonzero;stroke:rgb(6,141,17);stroke-width:0.8px;"/>
        <path id="path95427" d="M-46.818,1058.91L-46.816,1058.97" style="fill:none;fill-rule:nonzero;stroke:rgb(6,141,17);stroke-width:0.8px;"/>
        <path id="path95429" d="M-46.816,1058.97L-46.811,1059.08" style="fill:none;fill-rule:nonzero;stroke:rgb(6,141,17);stroke-width:0.8px;"/>
        <path id="path95431" d="M-46.811,1059.08L-46.755,1059.7L-46.598,1060.53L-46.35,1061.36L-46.012,1062.17L-45.584,1062.96L-45.063,1063.75L-44.45,1064.51L-43.746,1065.26L-42.951,1065.99L-42.071,1066.68L-41.108,1067.35L-40.068,1067.99L-38.955,1068.59L-37.775,1069.15L-36.531,1069.68L-35.229,1070.17L-33.871,1070.62L-32.463,1071.03L-31.008,1071.4L-29.51,1071.72L-27.975,1072.01L-26.406,1072.26L-24.808,1072.46L-23.187,1072.62L-21.545,1072.74L-19.889,1072.82L-18.224,1072.85L-16.553,1072.84L-14.883,1072.79L-13.218,1072.69L-11.563,1072.55L-10.456,1072.43" style="fill:none;fill-rule:nonzero;stroke:rgb(6,141,17);stroke-width:0.8px;"/>
        <path id="path95433" d="M9.136,1065.53L9.889,1064.89L10.687,1064.12L11.396,1063.32L12.012,1062.5L12.532,1061.66L12.951,1060.81L13.27,1059.94L13.489,1059.08L13.61,1058.22L13.638,1057.57" style="fill:none;fill-rule:nonzero;stroke:rgb(6,141,17);stroke-width:0.8px;"/>
        <path id="path95435" d="M13.638,1057.57L13.637,1057.47" style="fill:none;fill-rule:nonzero;stroke:rgb(6,141,17);stroke-width:0.8px;"/>
        <path id="path95437" d="M13.637,1057.47L13.636,1057.41" style="fill:none;fill-rule:nonzero;stroke:rgb(6,141,17);stroke-width:0.8px;"/>
        <path id="path95439" d="M-6.285,1135L-5.033,1134.57" style="fill:none;fill-rule:nonzero;stroke:rgb(6,141,17);stroke-width:0.8px;"/>
        <path id="path95441" d="M-20.68,1091.46L-21.15,1091.62" style="fill:none;fill-rule:nonzero;stroke:rgb(6,141,17);stroke-width:0.8px;"/>
        <path id="path95443" d="M11.923,1064.57L11.876,1062.68" style="fill:none;fill-rule:nonzero;stroke:rgb(6,141,17);stroke-width:0.8px;"/>
        <path id="path95445" d="M-44.799,1064.08L-43.503,1116.46" style="fill:none;fill-rule:nonzero;stroke:rgb(6,141,17);stroke-width:0.8px;"/>
        <path id="path95447" d="M-7.065,1138.67L3.911,1134.91" style="fill:none;fill-rule:nonzero;stroke:rgb(6,141,17);stroke-width:0.8px;"/>
        <path id="path95449" d="M-20.902,1088.47L-24.709,1089.78" style="fill:none;fill-rule:nonzero;stroke:rgb(6,141,17);stroke-width:0.8px;"/>
        <path id="path95451" d="M-12.277,1137.05L-9.465,1136.09" style="fill:none;fill-rule:nonzero;stroke:rgb(6,141,17);stroke-width:0.8px;"/>
        <path id="path95453" d="M-24.75,1093.84L-27.515,1094.78" style="fill:none;fill-rule:nonzero;stroke:rgb(6,141,17);stroke-width:0.8px;"/>
        <path id="path95455" d="M-17.569,1132.23L-15.929,1131.66" style="fill:none;fill-rule:nonzero;stroke:rgb(6,141,17);stroke-width:0.8px;"/>
        <path id="path95457" d="M-26.923,1101.71L-28.36,1102.2" style="fill:none;fill-rule:nonzero;stroke:rgb(6,141,17);stroke-width:0.8px;"/>
        <path id="path95459" d="M-23.871,1119.53L-23.972,1119.56" style="fill:none;fill-rule:nonzero;stroke:rgb(6,141,17);stroke-width:0.8px;"/>
        <path id="path95461" d="M-22.134,1124.93L-21.36,1124.66" style="fill:none;fill-rule:nonzero;stroke:rgb(6,141,17);stroke-width:0.8px;"/>
        <path id="path95463" d="M-26.457,1110.68L-27.116,1110.9" style="fill:none;fill-rule:nonzero;stroke:rgb(6,141,17);stroke-width:0.8px;"/>
        <path id="path95465" d="M-25.278,1116.27L-25.08,1116.2" style="fill:none;fill-rule:nonzero;stroke:rgb(6,141,17);stroke-width:0.8px;"/>
        <path id="path95467" d="M-45.35,1118.19L-45.083,1128.98" style="fill:none;fill-rule:nonzero;stroke:rgb(6,141,17);stroke-width:0.8px;"/>
        <path id="path95469" d="M-43.597,1112.89L-43.7,1113.04L-44.224,1113.88L-44.648,1114.73L-44.972,1115.59L-45.196,1116.45L-45.321,1117.31L-45.351,1118.16L-45.35,1118.22" style="fill:none;fill-rule:nonzero;stroke:rgb(6,141,17);stroke-width:0.8px;"/>
        <path id="path95471" d="M-45.35,1118.22L-45.349,1118.25" style="fill:none;fill-rule:nonzero;stroke:rgb(6,141,17);stroke-width:0.8px;"/>
        <path id="path95473" d="M-5.423,1114.61L-6.254,1114.61" style="fill:none;fill-rule:nonzero;stroke:rgb(6,141,17);stroke-width:0.8px;"/>
        <path id="path95475" d="M-1.588,1136.8C1.504,1138.56 4.488,1139.03 7.06,1138.15C15.066,1135.41 17.228,1120.24 11.851,1104.55C6.474,1088.86 -4.538,1078.2 -12.543,1080.94C-14.604,1081.65 -16.348,1083.2 -17.66,1085.5" style="fill:none;fill-rule:nonzero;stroke:rgb(6,141,17);stroke-width:0.8px;"/>
        <path id="path95477" d="M15.663,1143.19C25.669,1139.76 28.371,1120.8 21.65,1101.19C15.082,1082.02 1.759,1068.78 -8.232,1071.5" style="fill:none;fill-rule:nonzero;stroke:rgb(6,141,17);stroke-width:0.8px;"/>
        <path id="path95479" d="M-5.278,1115.41L-5.869,1115.41" style="fill:none;fill-rule:nonzero;stroke:rgb(6,141,17);stroke-width:0.8px;"/>
        <path id="path95481" d="M-11.873,1101.58C-12.208,1108.18 -9.384,1116.43 -5.064,1121.44" style="fill:none;fill-rule:nonzero;stroke:rgb(6,141,17);stroke-width:0.8px;"/>
        <path id="path95483" d="M-46.818,1058.88C-46.817,1058.95 -46.814,1059.01 -46.81,1059.08" style="fill:none;fill-rule:nonzero;stroke:rgb(6,141,17);stroke-width:0.8px;"/>
        <path id="path95485" d="M-46.81,1059.08C-46.387,1066.49 -32.669,1072.2 -16.253,1071.8C-12.633,1071.71 -9.049,1071.33 -5.672,1070.67" style="fill:none;fill-rule:nonzero;stroke:rgb(6,141,17);stroke-width:0.8px;"/>
        <path id="path95487" d="M6.525,1066.49C11.181,1063.9 13.704,1060.67 13.636,1057.41" style="fill:none;fill-rule:nonzero;stroke:rgb(6,141,17);stroke-width:0.8px;"/>
        <path id="path95489" d="M-6.428,1036.89L-6.892,1039.04" style="fill:none;fill-rule:nonzero;stroke:rgb(6,141,17);stroke-width:0.8px;"/>
        <path id="path95491" d="M-45.349,1118.24C-45.136,1124.94 -34.043,1130.42 -19.361,1131.07" style="fill:none;fill-rule:nonzero;stroke:rgb(6,141,17);stroke-width:0.8px;"/>
        <g transform="matrix(1,0,0,1,-147.735,896.928)">
            <path d="M172.494,112.129L169.682,121.146L166.521,112.245L172.494,112.129Z" style="fill:rgb(5,5,5);"/>
            <path d="M168.917,81.783C168.917,81.783 169.322,102.626 169.542,113.979" style="fill:none;stroke:rgb(5,5,5);stroke-width:0.8px;stroke-linejoin:round;stroke-miterlimit:1.5;"/>
        </g>
    </g>
</svg>
