<?xml version="1.0" encoding="UTF-8" standalone="no"?>
<!DOCTYPE svg PUBLIC "-//W3C//DTD SVG 1.1//EN" "http://www.w3.org/Graphics/SVG/1.1/DTD/svg11.dtd">
<svg width="100%" height="100%" viewBox="0 0 300 300" version="1.1" xmlns="http://www.w3.org/2000/svg" xmlns:xlink="http://www.w3.org/1999/xlink" xml:space="preserve" xmlns:serif="http://www.serif.com/" style="fill-rule:evenodd;clip-rule:evenodd;stroke-linecap:round;">
    <g id="Base" transform="matrix(1.48656,0,0,1.48656,135.655,-1404.64)">
        <g id="path97846" transform="matrix(1,0,0,1,20.5452,10.3704)">
            <path d="M60.074,1083.16C60.074,1083.15 60.074,1083.15 60.074,1083.15C63.577,1081.95 64.523,1075.32 62.17,1068.45C60.685,1064.12 58.155,1060.48 55.494,1058.85" style="fill:none;fill-rule:nonzero;stroke:black;stroke-width:0.6px;"/>
        </g>
        <g id="path97848" transform="matrix(1,0,0,1,20.5452,10.3704)">
            <path d="M50.849,1086.32C50.849,1086.32 50.849,1086.32 50.849,1086.32C54.351,1085.12 55.297,1078.48 52.945,1071.62C51.46,1067.28 48.929,1063.64 46.269,1062.01" style="fill:none;fill-rule:nonzero;stroke:black;stroke-width:0.6px;"/>
        </g>
        <g id="path97850" transform="matrix(1,0,0,1,20.5452,10.3704)">
            <path d="M42.272,1061.29C38.778,1062.5 37.838,1069.13 40.187,1075.99C42.537,1082.84 47.347,1087.5 50.849,1086.32" style="fill:none;fill-rule:nonzero;stroke:black;stroke-width:0.6px;"/>
        </g>
        <g id="path97852" transform="matrix(1,0,0,1,20.5452,10.3704)">
            <path d="M55.494,1058.85C54.067,1057.97 52.683,1057.72 51.498,1058.13" style="fill:none;fill-rule:nonzero;stroke:black;stroke-width:0.6px;"/>
        </g>
        <g id="path97854" transform="matrix(1,0,0,1,20.5452,10.3704)">
            <path d="M46.269,1062.01C44.842,1061.13 43.458,1060.88 42.272,1061.29" style="fill:none;fill-rule:nonzero;stroke:black;stroke-width:0.6px;"/>
        </g>
        <g id="path97856" transform="matrix(1,0,0,1,20.5452,10.3704)">
            <path d="M50.351,1084.86C50.351,1084.86 50.351,1084.86 50.351,1084.86C53.446,1083.8 54.282,1077.94 52.203,1071.87C50.891,1068.04 48.654,1064.82 46.303,1063.38" style="fill:none;fill-rule:nonzero;stroke:black;stroke-width:0.6px;"/>
        </g>
        <g id="path97858" transform="matrix(1,0,0,1,20.5452,10.3704)">
            <path d="M43.054,1062.66C40.166,1063.97 39.466,1069.68 41.475,1075.55C43.484,1081.41 47.539,1085.49 50.624,1084.75" style="fill:none;fill-rule:nonzero;stroke:black;stroke-width:0.6px;"/>
        </g>
        <g id="path97860" transform="matrix(1,0,0,1,20.5452,10.3704)">
            <path d="M46.303,1063.38C45.041,1062.6 43.818,1062.38 42.77,1062.74" style="fill:none;fill-rule:nonzero;stroke:black;stroke-width:0.6px;"/>
        </g>
        <g id="path97862" transform="matrix(1,0,0,1,20.5452,10.3704)">
            <path d="M42.77,1062.74C39.675,1063.8 38.839,1069.67 40.918,1075.74C42.998,1081.8 47.255,1085.92 50.351,1084.86" style="fill:none;fill-rule:nonzero;stroke:black;stroke-width:0.6px;"/>
        </g>
        <g id="path97864" transform="matrix(1,0,0,1,20.5452,10.3704)">
            <path d="M49.58,1080.8C51.592,1080.11 52.135,1076.3 50.784,1072.36C49.433,1068.41 46.666,1065.74 44.655,1066.42" style="fill:none;fill-rule:nonzero;stroke:black;stroke-width:0.6px;"/>
        </g>
        <g id="path97866" transform="matrix(1,0,0,1,20.5452,10.3704)">
            <path d="M49.023,1080.99C49.023,1080.99 49.023,1080.99 49.023,1080.99C51.035,1080.3 51.578,1076.49 50.227,1072.55C49.375,1070.06 47.921,1067.97 46.393,1067.03" style="fill:none;fill-rule:nonzero;stroke:black;stroke-width:0.6px;"/>
        </g>
        <g id="path97868" transform="matrix(1,0,0,1,20.5452,10.3704)">
            <path d="M44.098,1066.62C42.086,1067.31 41.543,1071.12 42.894,1075.06C44.245,1079 47.012,1081.68 49.023,1080.99" style="fill:none;fill-rule:nonzero;stroke:black;stroke-width:0.6px;"/>
        </g>
        <g id="path97870" transform="matrix(1,0,0,1,20.5452,10.3704)">
            <path d="M46.393,1067.03C45.573,1066.53 44.778,1066.38 44.098,1066.62" style="fill:none;fill-rule:nonzero;stroke:black;stroke-width:0.6px;"/>
        </g>
        <g id="path97872" transform="matrix(1,0,0,1,20.5452,10.3704)">
            <path d="M46.435,1068.75C45.824,1068.37 45.231,1068.27 44.723,1068.44" style="fill:none;fill-rule:nonzero;stroke:black;stroke-width:0.6px;"/>
        </g>
        <g id="path97874" transform="matrix(1,0,0,1,20.5452,10.3704)">
            <path d="M48.398,1079.17C48.398,1079.17 48.398,1079.17 48.398,1079.17C49.899,1078.65 50.305,1075.81 49.297,1072.87C48.66,1071.01 47.576,1069.45 46.435,1068.75" style="fill:none;fill-rule:nonzero;stroke:black;stroke-width:0.6px;"/>
        </g>
        <g id="path97876" transform="matrix(1,0,0,1,20.5452,10.3704)">
            <path d="M44.723,1068.44C44.723,1068.44 44.723,1068.44 44.723,1068.44C43.222,1068.95 42.816,1071.8 43.824,1074.74C44.833,1077.68 46.897,1079.68 48.398,1079.17" style="fill:none;fill-rule:nonzero;stroke:black;stroke-width:0.6px;"/>
        </g>
        <path id="path97878" d="M-60.183,1073.65C-59.621,1074.06 -59.065,1074.2 -58.598,1074.04C-57.397,1073.63 -57.072,1071.35 -57.879,1069C-58.388,1067.51 -59.256,1066.26 -60.169,1065.7" style="fill:none;fill-rule:nonzero;stroke:black;stroke-width:0.6px;"/>
        <path id="path97880" d="M-62.551,1066.74C-62.833,1067.74 -62.724,1069.14 -62.257,1070.5C-61.791,1071.86 -61.02,1073.03 -60.183,1073.65" style="fill:none;fill-rule:nonzero;stroke:black;stroke-width:0.6px;"/>
        <path id="path97882" d="M-60.984,1064.07C-61.568,1064.27 -62.011,1064.83 -62.249,1065.67" style="fill:none;fill-rule:nonzero;stroke:black;stroke-width:0.6px;"/>
        <path id="path97884" d="M-60.169,1065.7C-61.242,1065.05 -62.188,1065.46 -62.551,1066.74" style="fill:none;fill-rule:nonzero;stroke:black;stroke-width:0.6px;"/>
        <path id="path97886" d="M-57.308,1074.8C-55.807,1074.28 -55.402,1071.44 -56.41,1068.5C-57.046,1066.64 -58.131,1065.08 -59.271,1064.38" style="fill:none;fill-rule:nonzero;stroke:black;stroke-width:0.6px;"/>
        <path id="path97888" d="M-59.271,1064.38C-59.883,1064 -60.476,1063.89 -60.984,1064.07" style="fill:none;fill-rule:nonzero;stroke:black;stroke-width:0.6px;"/>
        <path id="path97890" d="M-59.289,1074.31C-58.587,1074.82 -57.892,1075 -57.308,1074.8" style="fill:none;fill-rule:nonzero;stroke:black;stroke-width:0.6px;"/>
        <path id="path97892" d="M-37.627,1068.05C-37.043,1067.85 -36.6,1067.29 -36.363,1066.45" style="fill:none;fill-rule:nonzero;stroke:black;stroke-width:0.6px;"/>
        <path id="path97894" d="M-39.59,1057.63C-40.202,1057.26 -40.795,1057.15 -41.303,1057.33" style="fill:none;fill-rule:nonzero;stroke:black;stroke-width:0.6px;"/>
        <path id="path97896" d="M-39.322,1057.82C-39.411,1057.75 -39.501,1057.69 -39.59,1057.63" style="fill:none;fill-rule:nonzero;stroke:black;stroke-width:0.6px;"/>
        <path id="path97898" d="M-36.363,1066.45C-36.009,1065.2 -36.146,1063.45 -36.729,1061.75C-37.313,1060.05 -38.276,1058.59 -39.322,1057.82" style="fill:none;fill-rule:nonzero;stroke:black;stroke-width:0.6px;"/>
        <path id="path97900" d="M-36.061,1065.38C-35.778,1064.38 -35.887,1062.98 -36.354,1061.62C-36.821,1060.26 -37.592,1059.09 -38.428,1058.47" style="fill:none;fill-rule:nonzero;stroke:black;stroke-width:0.6px;"/>
        <path id="path97902" d="M27.46,1035.89C27.368,1032.2 26.359,1027.58 25.225,1025.66" style="fill:none;fill-rule:nonzero;stroke:black;stroke-width:0.6px;"/>
        <path id="path97904" d="M23.8,1037.15C23.771,1035.99 23.632,1034.71 23.396,1033.42C22.899,1030.71 22.026,1028.28 21.118,1027.07" style="fill:none;fill-rule:nonzero;stroke:black;stroke-width:0.6px;"/>
        <path id="path97906" d="M23.8,1037.15L24.196,1053.17" style="fill:none;fill-rule:nonzero;stroke:black;stroke-width:0.6px;"/>
        <path id="path97908" d="M21.848,1056.57C22.315,1057.19 22.764,1057.45 23.145,1057.32" style="fill:none;fill-rule:nonzero;stroke:black;stroke-width:0.6px;"/>
        <path id="path97910" d="M10.335,1041.29L21.848,1056.57" style="fill:none;fill-rule:nonzero;stroke:black;stroke-width:0.6px;"/>
        <path id="path97912" d="M9.966,1026.39L10.335,1041.29" style="fill:none;fill-rule:nonzero;stroke:black;stroke-width:0.6px;"/>
        <path id="path97914" d="M10.482,1026.43C11.193,1026.19 11.591,1024.62 11.533,1022.28" style="fill:none;fill-rule:nonzero;stroke:black;stroke-width:0.6px;"/>
        <path id="path97916" d="M11.533,1022.28L11.497,1020.82" style="fill:none;fill-rule:nonzero;stroke:black;stroke-width:0.6px;"/>
        <path id="path97918" d="M13.845,1017.41C13.378,1016.79 12.929,1016.53 12.548,1016.67" style="fill:none;fill-rule:nonzero;stroke:black;stroke-width:0.6px;"/>
        <path id="path97920" d="M13.845,1017.41L21.118,1027.07" style="fill:none;fill-rule:nonzero;stroke:black;stroke-width:0.6px;"/>
        <path id="path97922" d="M27.46,1035.89L27.857,1051.92" style="fill:none;fill-rule:nonzero;stroke:black;stroke-width:0.6px;"/>
        <path id="path97924" d="M25.225,1025.66L19.243,1015.56" style="fill:none;fill-rule:nonzero;stroke:black;stroke-width:0.6px;"/>
        <path id="path97926" d="M23.145,1057.32C23.856,1057.08 24.254,1055.5 24.196,1053.17" style="fill:none;fill-rule:nonzero;stroke:black;stroke-width:0.6px;"/>
        <path id="path97928" d="M27.017,1055.99C27.596,1055.8 27.914,1054.25 27.857,1051.92" style="fill:none;fill-rule:nonzero;stroke:black;stroke-width:0.6px;"/>
        <path id="path97930" d="M36.917,1009.51C35.67,1009.15 34.456,1009.16 33.412,1009.52" style="fill:none;fill-rule:nonzero;stroke:black;stroke-width:0.6px;"/>
        <path id="path97932" d="M56.336,1015L36.917,1009.51" style="fill:none;fill-rule:nonzero;stroke:black;stroke-width:0.6px;"/>
        <path id="path97934" d="M63.218,1023.64C63.126,1019.94 60.02,1016.04 56.336,1015" style="fill:none;fill-rule:nonzero;stroke:black;stroke-width:0.6px;"/>
        <path id="path97936" d="M63.218,1023.64L63.614,1039.66" style="fill:none;fill-rule:nonzero;stroke:black;stroke-width:0.6px;"/>
        <path id="path97938" d="M57.066,1044.5C58.313,1044.86 59.527,1044.85 60.571,1044.49" style="fill:none;fill-rule:nonzero;stroke:black;stroke-width:0.6px;"/>
        <path id="path97940" d="M57.066,1044.5L29.193,1036.62" style="fill:none;fill-rule:nonzero;stroke:black;stroke-width:0.6px;"/>
        <path id="path97942" d="M28.778,1019.85C29.866,1018.93 30.447,1017.49 30.405,1015.82" style="fill:none;fill-rule:nonzero;stroke:black;stroke-width:0.6px;"/>
        <path id="path97944" d="M30.405,1015.82L30.369,1014.35" style="fill:none;fill-rule:nonzero;stroke:black;stroke-width:0.6px;"/>
        <path id="path97946" d="M66.878,1022.39C66.836,1020.68 66.189,1018.83 65.071,1017.22C63.853,1015.48 62.176,1014.16 60.443,1013.59" style="fill:none;fill-rule:nonzero;stroke:black;stroke-width:0.6px;"/>
        <path id="path97948" d="M42.314,1007.66L60.443,1013.59" style="fill:none;fill-rule:nonzero;stroke:black;stroke-width:0.6px;"/>
        <path id="path97950" d="M19.243,1015.56C18.859,1014.92 18.491,1014.63 18.18,1014.73" style="fill:none;fill-rule:nonzero;stroke:black;stroke-width:0.6px;"/>
        <path id="path97952" d="M12.548,1016.67C11.838,1016.91 11.439,1018.48 11.497,1020.82" style="fill:none;fill-rule:nonzero;stroke:black;stroke-width:0.6px;"/>
        <path id="path97954" d="M66.878,1022.39L67.275,1038.41" style="fill:none;fill-rule:nonzero;stroke:black;stroke-width:0.6px;"/>
        <path id="path97956" d="M60.571,1044.5C62.518,1043.83 63.672,1042 63.614,1039.66" style="fill:none;fill-rule:nonzero;stroke:black;stroke-width:0.6px;"/>
        <path id="path97958" d="M64.443,1043.17C66.259,1042.55 67.332,1040.74 67.275,1038.41" style="fill:none;fill-rule:nonzero;stroke:black;stroke-width:0.6px;"/>
        <path id="path97960" d="M9.966,1026.39C10.149,1026.48 10.322,1026.49 10.482,1026.43" style="fill:none;fill-rule:nonzero;stroke:black;stroke-width:0.6px;"/>
        <path id="path97962" d="M9.432,1026.28C9.613,1026.34 9.792,1026.38 9.966,1026.39" style="fill:none;fill-rule:nonzero;stroke:black;stroke-width:0.6px;"/>
        <path id="path97964" d="M42.314,1007.66C41.15,1007.28 40.018,1007.25 39.044,1007.59" style="fill:none;fill-rule:nonzero;stroke:black;stroke-width:0.6px;"/>
        <path id="path97966" d="M33.412,1009.51C31.465,1010.18 30.311,1012.01 30.369,1014.35" style="fill:none;fill-rule:nonzero;stroke:black;stroke-width:0.6px;"/>
        <path id="path97968" d="M-4.57,1021.71C-4.288,1021.88 -4.008,1022.01 -3.734,1022.1" style="fill:none;fill-rule:nonzero;stroke:black;stroke-width:0.6px;"/>
        <path id="path97970" d="M-3.734,1022.1L9.432,1026.28" style="fill:none;fill-rule:nonzero;stroke:black;stroke-width:0.6px;"/>
        <path id="path97972" d="M0.349,1031.81L0.267,1028.5" style="fill:none;fill-rule:nonzero;stroke:black;stroke-width:0.6px;"/>
        <path id="path97974" d="M-11.508,1027.88L-11.696,1020.27" style="fill:none;fill-rule:nonzero;stroke:black;stroke-width:0.6px;"/>
        <path id="path97976" d="M-11.696,1020.27L-8.562,1022.2" style="fill:none;fill-rule:nonzero;stroke:black;stroke-width:0.6px;"/>
        <path id="path97978" d="M-8.562,1022.2L-7.393,1021" style="fill:none;fill-rule:nonzero;stroke:black;stroke-width:0.6px;"/>
        <path id="path97980" d="M-5.834,1020.93C-6.242,1020.68 -6.638,1020.61 -6.976,1020.73" style="fill:none;fill-rule:nonzero;stroke:black;stroke-width:0.6px;"/>
        <path id="path97982" d="M-5.834,1020.93L-4.57,1021.71" style="fill:none;fill-rule:nonzero;stroke:black;stroke-width:0.6px;"/>
        <path id="path97984" d="M0.866,1035.48L-11.508,1027.88" style="fill:none;fill-rule:nonzero;stroke:black;stroke-width:0.6px;"/>
        <path id="path97986" d="M10.335,1041.29L4.482,1037.69" style="fill:none;fill-rule:nonzero;stroke:black;stroke-width:0.6px;"/>
        <path id="path97988" d="M2.417,1019.99L11.538,1022.89" style="fill:none;fill-rule:nonzero;stroke:black;stroke-width:0.6px;"/>
        <path id="path97990" d="M27.43,1020.63L27.124,1020.72L26.352,1020.83L25.56,1020.75" style="fill:none;fill-rule:nonzero;stroke:black;stroke-width:0.6px;"/>
        <path id="path97992" d="M28.778,1019.85L27.997,1020.38L27.43,1020.63" style="fill:none;fill-rule:nonzero;stroke:black;stroke-width:0.6px;"/>
        <path id="path97994" d="M0.349,1031.81C0.38,1032.16 0.416,1032.52 0.458,1032.87C0.828,1036.03 1.553,1038.58 2.063,1038.52C2.074,1038.52 2.085,1038.52 2.096,1038.51" style="fill:none;fill-rule:nonzero;stroke:black;stroke-width:0.6px;"/>
        <path id="path97996" d="M5.259,1037.43C5.259,1037.43 5.259,1037.43 5.259,1037.43C6.76,1036.91 7.165,1034.07 6.157,1031.13C5.149,1028.18 3.084,1026.19 1.583,1026.7" style="fill:none;fill-rule:nonzero;stroke:black;stroke-width:0.6px;"/>
        <path id="path97998" d="M0.681,1027.01C0.472,1027.08 0.326,1027.61 0.267,1028.5" style="fill:none;fill-rule:nonzero;stroke:black;stroke-width:0.6px;"/>
        <path id="path98000" d="M2.096,1038.51C2.581,1038.35 2.68,1035.74 2.319,1032.65C1.949,1029.49 1.224,1026.94 0.713,1027C0.702,1027.01 0.692,1027.01 0.681,1027.01" style="fill:none;fill-rule:nonzero;stroke:black;stroke-width:0.6px;"/>
        <path id="path98002" d="M23.969,1020.34C24.455,1020.49 24.987,1020.63 25.56,1020.75" style="fill:none;fill-rule:nonzero;stroke:black;stroke-width:0.6px;"/>
        <path id="path98004" d="M27.464,1036.06C28.015,1036.26 28.592,1036.45 29.193,1036.62" style="fill:none;fill-rule:nonzero;stroke:black;stroke-width:0.6px;"/>
        <path id="path98006" d="M12.257,1016.62L12.481,1016.69" style="fill:none;fill-rule:nonzero;stroke:black;stroke-width:0.6px;"/>
        <path id="path98008" d="M21.632,1019.6L23.969,1020.34" style="fill:none;fill-rule:nonzero;stroke:black;stroke-width:0.6px;"/>
        <path id="path98010" d="M18.407,1014.51L29.986,1018.19" style="fill:none;fill-rule:nonzero;stroke:black;stroke-width:0.6px;"/>
        <path id="path98012" d="M11.467,1016.26C11.733,1016.42 11.997,1016.54 12.257,1016.62" style="fill:none;fill-rule:nonzero;stroke:black;stroke-width:0.6px;"/>
        <path id="path98014" d="M11.741,1043.15L11.816,1044.59" style="fill:none;fill-rule:nonzero;stroke:black;stroke-width:0.6px;"/>
        <path id="path98016" d="M5.356,1045.65L5.274,1044.19L5.102,1042.69" style="fill:none;fill-rule:nonzero;stroke:black;stroke-width:0.6px;"/>
        <path id="path98018" d="M5.102,1042.69L5.317,1040.71L5.381,1038.65" style="fill:none;fill-rule:nonzero;stroke:black;stroke-width:0.6px;"/>
        <path id="path98020" d="M5.381,1038.65L5.925,1038.59" style="fill:none;fill-rule:nonzero;stroke:black;stroke-width:0.6px;"/>
        <path id="path98022" d="M5.381,1038.65L4.066,1037.84" style="fill:none;fill-rule:nonzero;stroke:black;stroke-width:0.6px;"/>
        <path id="path98024" d="M0.956,1035.9L-4.686,1032.39" style="fill:none;fill-rule:nonzero;stroke:black;stroke-width:0.6px;"/>
        <path id="path98026" d="M-4.686,1032.39L-4.346,1032.28" style="fill:none;fill-rule:nonzero;stroke:black;stroke-width:0.6px;"/>
        <path id="path98028" d="M11.419,1016.23C11.042,1016.03 10.367,1016 9.885,1016.17" style="fill:none;fill-rule:nonzero;stroke:black;stroke-width:0.6px;"/>
        <path id="path98030" d="M9.885,1016.17L9.847,1016.18" style="fill:none;fill-rule:nonzero;stroke:black;stroke-width:0.6px;"/>
        <path id="path98032" d="M9.372,1016.62C9.373,1016.67 9.391,1016.72 9.425,1016.76" style="fill:none;fill-rule:nonzero;stroke:black;stroke-width:0.6px;"/>
        <path id="path98034" d="M11.36,1019.5L9.425,1016.76" style="fill:none;fill-rule:nonzero;stroke:black;stroke-width:0.6px;"/>
        <path id="path98036" d="M8.436,1020.5C8.766,1020.61 9.168,1020.66 9.579,1020.65C10.616,1020.62 11.459,1020.22 11.447,1019.75C11.447,1019.75 11.447,1019.75 11.447,1019.75" style="fill:none;fill-rule:nonzero;stroke:black;stroke-width:0.6px;"/>
        <path id="path98038" d="M3.261,1018.88L8.436,1020.5" style="fill:none;fill-rule:nonzero;stroke:black;stroke-width:0.6px;"/>
        <path id="path98040" d="M3.261,1018.88C2.867,1018.75 2.327,1018.76 1.928,1018.9" style="fill:none;fill-rule:nonzero;stroke:black;stroke-width:0.6px;"/>
        <path id="path98042" d="M1.928,1018.9L1.89,1018.91" style="fill:none;fill-rule:nonzero;stroke:black;stroke-width:0.6px;"/>
        <path id="path98044" d="M1.415,1019.34C1.417,1019.44 1.475,1019.52 1.583,1019.6" style="fill:none;fill-rule:nonzero;stroke:black;stroke-width:0.6px;"/>
        <path id="path98046" d="M16.306,1013.35L17.571,1014.12" style="fill:none;fill-rule:nonzero;stroke:black;stroke-width:0.6px;"/>
        <path id="path98048" d="M5.102,1042.69L-11.351,1032.91" style="fill:none;fill-rule:nonzero;stroke:black;stroke-width:0.6px;"/>
        <path id="path98050" d="M-10.477,1028.79L-11.351,1032.91" style="fill:none;fill-rule:nonzero;stroke:black;stroke-width:0.6px;"/>
        <path id="path98052" d="M-7.41,1030.7L-10.477,1028.79" style="fill:none;fill-rule:nonzero;stroke:black;stroke-width:0.6px;"/>
        <path id="path98054" d="M-7.41,1030.7L-4.734,1032.62" style="fill:none;fill-rule:nonzero;stroke:black;stroke-width:0.6px;"/>
        <path id="path98056" d="M-4.734,1032.62L-4.686,1032.39" style="fill:none;fill-rule:nonzero;stroke:black;stroke-width:0.6px;"/>
        <path id="path98058" d="M-11.195,1044.8L-10.822,1055.12" style="fill:none;fill-rule:nonzero;stroke:black;stroke-width:0.6px;"/>
        <path id="path98060" d="M-11.351,1032.91L-11.194,1044.8" style="fill:none;fill-rule:nonzero;stroke:black;stroke-width:0.6px;"/>
        <path id="path98062" d="M5.787,1061.83L5.356,1045.65" style="fill:none;fill-rule:nonzero;stroke:black;stroke-width:0.6px;"/>
        <path id="path98064" d="M5.656,1064.85L5.775,1063.39L5.787,1061.83" style="fill:none;fill-rule:nonzero;stroke:black;stroke-width:0.6px;"/>
        <path id="path98066" d="M-6.659,1047.49L-6.612,1046.26L-6.407,1045.22L-6.044,1044.37L-5.523,1043.71L-4.888,1043.28L-4.182,1043.12L-3.406,1043.24L-2.558,1043.62L-2.12,1043.91" style="fill:none;fill-rule:nonzero;stroke:black;stroke-width:0.6px;"/>
        <path id="path98068" d="M11.816,1044.59L12.222,1060.76" style="fill:none;fill-rule:nonzero;stroke:black;stroke-width:0.6px;"/>
        <path id="path98070" d="M1.583,1019.6L1.626,1019.63" style="fill:none;fill-rule:nonzero;stroke:black;stroke-width:0.6px;"/>
        <path id="path98072" d="M1.626,1019.63C1.892,1019.79 2.157,1019.91 2.417,1019.99" style="fill:none;fill-rule:nonzero;stroke:black;stroke-width:0.6px;"/>
        <path id="path98074" d="M11.447,1019.75C11.445,1019.66 11.416,1019.58 11.36,1019.5" style="fill:none;fill-rule:nonzero;stroke:black;stroke-width:0.6px;"/>
        <path id="path98076" d="M16.306,1013.35C15.899,1013.1 15.503,1013.02 15.165,1013.14" style="fill:none;fill-rule:nonzero;stroke:black;stroke-width:0.6px;"/>
        <path id="path98078" d="M-6.976,1020.73C-7.13,1020.78 -7.27,1020.87 -7.393,1021" style="fill:none;fill-rule:nonzero;stroke:black;stroke-width:0.6px;"/>
        <path id="path98080" d="M1.649,1054.63L1.607,1054.78L1.244,1055.63L0.723,1056.29L0.088,1056.72L-0.618,1056.88L-1.395,1056.77L-2.242,1056.38L-3.094,1055.76L-3.888,1054.95L-4.623,1053.94L-5.3,1052.73L-5.87,1051.43L-6.286,1050.12L-6.549,1048.8L-6.659,1047.49" style="fill:none;fill-rule:nonzero;stroke:black;stroke-width:0.6px;"/>
        <path id="path98082" d="M-2.12,1043.91L-1.706,1044.24L-0.913,1045.05L-0.178,1046.06L0.499,1047.27L1.069,1048.57L1.485,1049.88L1.748,1051.2L1.858,1052.52L1.812,1053.74L1.649,1054.63" style="fill:none;fill-rule:nonzero;stroke:black;stroke-width:0.6px;"/>
        <path id="path98084" d="M1.89,1018.91C1.589,1019.01 1.411,1019.18 1.415,1019.34" style="fill:none;fill-rule:nonzero;stroke:black;stroke-width:0.6px;"/>
        <path id="path98086" d="M22.664,1057.17L22.664,1058.44L22.597,1059.67L22.461,1060.87L22.255,1062.01L21.876,1063.41" style="fill:none;fill-rule:nonzero;stroke:black;stroke-width:0.6px;"/>
        <path id="path98088" d="M21.85,1063.49L21.876,1063.41" style="fill:none;fill-rule:nonzero;stroke:black;stroke-width:0.6px;"/>
        <path id="path98090" d="M21.85,1063.49L12.937,1056.52" style="fill:none;fill-rule:nonzero;stroke:black;stroke-width:0.6px;"/>
        <path id="path98092" d="M12.091,1055.79C12.371,1056.05 12.653,1056.3 12.937,1056.52" style="fill:none;fill-rule:nonzero;stroke:black;stroke-width:0.6px;"/>
        <path id="path98094" d="M5.437,1067.47L5.515,1066.23L5.656,1064.85" style="fill:none;fill-rule:nonzero;stroke:black;stroke-width:0.6px;"/>
        <path id="path98096" d="M12.222,1060.76L12.222,1062.03L12.155,1063.27L12.018,1064.47L11.812,1065.61L11.432,1067.01" style="fill:none;fill-rule:nonzero;stroke:black;stroke-width:0.6px;"/>
        <path id="path98098" d="M3.783,1070.76C3.776,1070.76 3.769,1070.77 3.761,1070.77" style="fill:none;fill-rule:nonzero;stroke:black;stroke-width:0.6px;"/>
        <path id="path98100" d="M-5.452,1018.13L-11.696,1020.27" style="fill:none;fill-rule:nonzero;stroke:black;stroke-width:0.6px;"/>
        <path id="path98102" d="M-5.452,1018.13C-4.337,1018.59 -2.864,1018.82 -1.332,1018.79" style="fill:none;fill-rule:nonzero;stroke:black;stroke-width:0.6px;"/>
        <path id="path98104" d="M4.417,1016.82C4.578,1016.61 4.679,1016.38 4.718,1016.15" style="fill:none;fill-rule:nonzero;stroke:black;stroke-width:0.6px;"/>
        <path id="path98106" d="M10.444,1012.68L4.2,1014.82" style="fill:none;fill-rule:nonzero;stroke:black;stroke-width:0.6px;"/>
        <path id="path98108" d="M10.444,1012.68L12.613,1014.01" style="fill:none;fill-rule:nonzero;stroke:black;stroke-width:0.6px;"/>
        <path id="path98110" d="M11.408,1067.09L12.75,1066.79" style="fill:none;fill-rule:nonzero;stroke:black;stroke-width:0.6px;"/>
        <path id="path98112" d="M20.711,1064.06L21.85,1063.49" style="fill:none;fill-rule:nonzero;stroke:black;stroke-width:0.6px;"/>
        <path id="path98114" d="M25.932,1060.45L25.771,1060.93L25.646,1061.48L25.586,1061.85" style="fill:none;fill-rule:nonzero;stroke:black;stroke-width:0.6px;"/>
        <path id="path98116" d="M25.586,1061.85L25.515,1062.79L25.558,1063.78L25.587,1064.02" style="fill:none;fill-rule:nonzero;stroke:black;stroke-width:0.6px;"/>
        <path id="path98118" d="M25.587,1064.02L25.735,1064.51L25.99,1064.92" style="fill:none;fill-rule:nonzero;stroke:black;stroke-width:0.6px;"/>
        <path id="path98120" d="M7.071,1072.56L7.068,1072.54L6.946,1071.72L6.789,1071L6.582,1070.53" style="fill:none;fill-rule:nonzero;stroke:black;stroke-width:0.6px;"/>
        <path id="path98122" d="M6.582,1070.53L6.127,1069.72L5.745,1068.88L5.664,1068.68" style="fill:none;fill-rule:nonzero;stroke:black;stroke-width:0.6px;"/>
        <path id="path98124" d="M5.664,1068.68L5.518,1068.2L5.442,1067.74L5.437,1067.47" style="fill:none;fill-rule:nonzero;stroke:black;stroke-width:0.6px;"/>
        <path id="path98126" d="M11.432,1067.01L11.408,1067.09" style="fill:none;fill-rule:nonzero;stroke:black;stroke-width:0.6px;"/>
        <path id="path98128" d="M-0.205,1046.08C-0.157,1048.03 0.622,1050.27 1.79,1051.81" style="fill:none;fill-rule:nonzero;stroke:black;stroke-width:0.6px;"/>
        <path id="path98130" d="M-4.742,1032.03L-4.734,1032.62" style="fill:none;fill-rule:nonzero;stroke:black;stroke-width:0.6px;"/>
        <path id="path98132" d="M-10.345,1028.82L-7.41,1030.7" style="fill:none;fill-rule:nonzero;stroke:black;stroke-width:0.6px;"/>
        <path id="path98134" d="M-10.345,1028.82L-10.348,1028.59" style="fill:none;fill-rule:nonzero;stroke:black;stroke-width:0.6px;"/>
        <path id="path98136" d="M-10.822,1055.12C-10.766,1056.65 -10.522,1058.11 -10.096,1059.46" style="fill:none;fill-rule:nonzero;stroke:black;stroke-width:0.6px;"/>
        <path id="path98138" d="M11.467,1016.26L11.419,1016.23" style="fill:none;fill-rule:nonzero;stroke:black;stroke-width:0.6px;"/>
        <path id="path98140" d="M17.571,1014.12C17.853,1014.3 18.133,1014.43 18.407,1014.51" style="fill:none;fill-rule:nonzero;stroke:black;stroke-width:0.6px;"/>
        <path id="path98142" d="M9.847,1016.18C9.546,1016.29 9.368,1016.45 9.372,1016.62" style="fill:none;fill-rule:nonzero;stroke:black;stroke-width:0.6px;"/>
        <path id="path98144" d="M4.718,1016.15C4.798,1015.69 4.62,1015.24 4.2,1014.82" style="fill:none;fill-rule:nonzero;stroke:black;stroke-width:0.6px;"/>
        <path id="path98146" d="M4.2,1014.82L3.913,1017" style="fill:none;fill-rule:nonzero;stroke:black;stroke-width:0.6px;"/>
        <path id="path98148" d="M-7.343,1068.17C-7.317,1068.26 -7.282,1068.34 -7.24,1068.43" style="fill:none;fill-rule:nonzero;stroke:black;stroke-width:0.6px;"/>
        <path id="path98150" d="M-10.096,1059.46L-7.343,1068.17" style="fill:none;fill-rule:nonzero;stroke:black;stroke-width:0.6px;"/>
        <path id="path98152" d="M12.75,1066.79L14.502,1066.34L16.2,1065.83L17.849,1065.26L19.428,1064.64L20.711,1064.06" style="fill:none;fill-rule:nonzero;stroke:black;stroke-width:0.6px;"/>
        <path id="path98154" d="M-10.346,1028.75L-10.477,1028.79" style="fill:none;fill-rule:nonzero;stroke:black;stroke-width:0.6px;"/>
        <path id="path98156" d="M26.643,1057.66L26.385,1059.07L25.932,1060.45" style="fill:none;fill-rule:nonzero;stroke:black;stroke-width:0.6px;"/>
        <path id="path98158" d="M26.759,1056.09L26.755,1056.19L26.643,1057.66" style="fill:none;fill-rule:nonzero;stroke:black;stroke-width:0.6px;"/>
        <path id="path98160" d="M11.877,1047.7C12.967,1049.39 14.333,1050.25 15.382,1049.89" style="fill:none;fill-rule:nonzero;stroke:black;stroke-width:0.6px;"/>
        <path id="path98162" d="M15.382,1049.89C15.729,1049.77 16.028,1049.52 16.264,1049.16" style="fill:none;fill-rule:nonzero;stroke:black;stroke-width:0.6px;"/>
        <path id="path98164" d="M0.44,1049.34L0.769,1049.43L1.345,1049.45" style="fill:none;fill-rule:nonzero;stroke:black;stroke-width:0.6px;"/>
        <path id="path98166" d="M25.99,1064.92L26.168,1065.13L26.906,1065.75L26.922,1065.76" style="fill:none;fill-rule:nonzero;stroke:black;stroke-width:0.6px;"/>
        <path id="path98168" d="M-7.24,1068.43C-7.147,1068.63 -6.964,1068.82 -6.715,1068.96" style="fill:none;fill-rule:nonzero;stroke:black;stroke-width:0.6px;"/>
        <g id="path98170" transform="matrix(1,0,0,1,20.5452,10.3704)">
            <path d="M51.498,1058.13L42.272,1061.29" style="fill:none;fill-rule:nonzero;stroke:black;stroke-width:0.6px;"/>
        </g>
        <g id="path98172" transform="matrix(1,0,0,1,20.5452,10.3704)">
            <path d="M50.849,1086.32L60.074,1083.16" style="fill:none;fill-rule:nonzero;stroke:black;stroke-width:0.6px;"/>
        </g>
        <g id="path98174" transform="matrix(1,0,0,1,20.5452,10.3704)">
            <path d="M44.655,1066.42L44.098,1066.62" style="fill:none;fill-rule:nonzero;stroke:black;stroke-width:0.6px;"/>
        </g>
        <g id="path98176" transform="matrix(1,0,0,1,20.5452,10.3704)">
            <path d="M49.023,1080.99L49.58,1080.8" style="fill:none;fill-rule:nonzero;stroke:black;stroke-width:0.6px;"/>
        </g>
        <path id="path98178" d="M-62.249,1065.67L-62.551,1066.74" style="fill:none;fill-rule:nonzero;stroke:black;stroke-width:0.6px;"/>
        <path id="path98180" d="M-60.183,1073.65L-59.289,1074.31" style="fill:none;fill-rule:nonzero;stroke:black;stroke-width:0.6px;"/>
        <path id="path98182" d="M-41.303,1057.33L-60.984,1064.07" style="fill:none;fill-rule:nonzero;stroke:black;stroke-width:0.6px;"/>
        <path id="path98184" d="M-57.308,1074.8L-37.627,1068.05" style="fill:none;fill-rule:nonzero;stroke:black;stroke-width:0.6px;"/>
        <path id="path98186" d="M-36.363,1066.45L-36.061,1065.38" style="fill:none;fill-rule:nonzero;stroke:black;stroke-width:0.6px;"/>
        <path id="path98188" d="M-38.428,1058.47L-39.322,1057.82" style="fill:none;fill-rule:nonzero;stroke:black;stroke-width:0.6px;"/>
        <path id="path98190" d="M23.145,1057.32L27.017,1055.99" style="fill:none;fill-rule:nonzero;stroke:black;stroke-width:0.6px;"/>
        <path id="path98192" d="M18.18,1014.73L12.548,1016.67" style="fill:none;fill-rule:nonzero;stroke:black;stroke-width:0.6px;"/>
        <path id="path98194" d="M60.571,1044.5L64.443,1043.17" style="fill:none;fill-rule:nonzero;stroke:black;stroke-width:0.6px;"/>
        <path id="path98196" d="M39.044,1007.59L33.412,1009.51" style="fill:none;fill-rule:nonzero;stroke:black;stroke-width:0.6px;"/>
        <path id="path98198" d="M2.096,1038.51L5.259,1037.43" style="fill:none;fill-rule:nonzero;stroke:black;stroke-width:0.6px;"/>
        <path id="path98200" d="M1.583,1026.7L0.681,1027.01" style="fill:none;fill-rule:nonzero;stroke:black;stroke-width:0.6px;"/>
        <path id="path98202" d="M11.525,1022.88L11.447,1019.75" style="fill:none;fill-rule:nonzero;stroke:black;stroke-width:0.6px;"/>
        <path id="path98204" d="M15.165,1013.14L-6.976,1020.73" style="fill:none;fill-rule:nonzero;stroke:black;stroke-width:0.6px;"/>
        <path id="path98206" d="M-3.98,1073.42L-4.348,1073.59L-4.744,1073.86L-5.083,1074.21L-5.368,1074.64L-5.597,1075.14L-5.767,1075.71L-5.869,1076.36L-5.9,1077.01L-5.898,1077.19" style="fill:none;fill-rule:nonzero;stroke:black;stroke-width:0.6px;"/>
        <path id="path98208" d="M-5.898,1077.19L-5.879,1077.57L-5.793,1078.3L-5.644,1079.03L-5.437,1079.76L-5.174,1080.47L-4.861,1081.15L-4.501,1081.8L-4.097,1082.39L-3.652,1082.93L-3.166,1083.39L-2.641,1083.78L-2.146,1084.04L-1.654,1084.2L-1.171,1084.27L-0.702,1084.24L-0.32,1084.15" style="fill:none;fill-rule:nonzero;stroke:black;stroke-width:0.6px;"/>
        <path id="path98210" d="M-2.245,1043.87L-2.245,1043.87L-2.212,1043.88L-2.097,1043.95L-1.851,1044.11" style="fill:none;fill-rule:nonzero;stroke:black;stroke-width:0.6px;"/>
        <path id="path98212" d="M-0.292,1084.14L34.759,1072.13" style="fill:none;fill-rule:nonzero;stroke:black;stroke-width:0.6px;"/>
        <path id="path98214" d="M3.783,1070.76L-3.967,1073.41" style="fill:none;fill-rule:nonzero;stroke:black;stroke-width:0.6px;"/>
        <path id="path98216" d="M31.083,1061.4L25.537,1063.3" style="fill:none;fill-rule:nonzero;stroke:black;stroke-width:0.6px;"/>
        <path id="path98218" d="M-6.715,1068.96L-0.805,1072.33" style="fill:none;fill-rule:nonzero;stroke:black;stroke-width:0.6px;"/>
        <path id="path98220" d="M34.736,1072.14L34.835,1072.1L35.27,1071.88L35.647,1071.58L35.97,1071.21L36.237,1070.76L36.448,1070.24L36.597,1069.64L36.677,1068.98L36.687,1068.28L36.628,1067.55L36.505,1066.82L36.321,1066.09L36.082,1065.37L35.789,1064.67L35.448,1064.01L35.062,1063.4L34.634,1062.84L34.165,1062.34L33.657,1061.92L33.111,1061.59L32.617,1061.39L32.13,1061.29L31.655,1061.28L31.154,1061.38L31.06,1061.41" style="fill:none;fill-rule:nonzero;stroke:black;stroke-width:0.6px;"/>
        <path id="path98222" d="M21.118,1027.07L25.225,1025.66" style="fill:none;fill-rule:nonzero;stroke:black;stroke-width:0.6px;"/>
        <path id="path98224" d="M27.46,1035.89L23.8,1037.15" style="fill:none;fill-rule:nonzero;stroke:black;stroke-width:0.6px;"/>
        <path id="path98226" d="M24.196,1053.17L27.857,1051.92" style="fill:none;fill-rule:nonzero;stroke:black;stroke-width:0.6px;"/>
        <path id="path98228" d="M19.243,1015.56L13.845,1017.41" style="fill:none;fill-rule:nonzero;stroke:black;stroke-width:0.6px;"/>
        <path id="path98230" d="M28.778,1019.85L29.193,1036.62" style="fill:none;fill-rule:nonzero;stroke:black;stroke-width:0.6px;"/>
        <path id="path98232" d="M66.878,1022.39L63.218,1023.64" style="fill:none;fill-rule:nonzero;stroke:black;stroke-width:0.6px;"/>
        <path id="path98234" d="M56.336,1015L60.443,1013.59" style="fill:none;fill-rule:nonzero;stroke:black;stroke-width:0.6px;"/>
        <path id="path98236" d="M42.314,1007.66L36.917,1009.51" style="fill:none;fill-rule:nonzero;stroke:black;stroke-width:0.6px;"/>
        <path id="path98238" d="M63.614,1039.66L67.275,1038.41" style="fill:none;fill-rule:nonzero;stroke:black;stroke-width:0.6px;"/>
        <path id="path98240" d="M9.432,1026.28L11.113,1025.7" style="fill:none;fill-rule:nonzero;stroke:black;stroke-width:0.6px;"/>
        <path id="path98242" d="M2.417,1019.99L-3.734,1022.1" style="fill:none;fill-rule:nonzero;stroke:black;stroke-width:0.6px;"/>
        <path id="path98244" d="M25.56,1020.75L29.113,1019.53" style="fill:none;fill-rule:nonzero;stroke:black;stroke-width:0.6px;"/>
        <path id="path98246" d="M24.052,1023.68L23.969,1020.34" style="fill:none;fill-rule:nonzero;stroke:black;stroke-width:0.6px;"/>
        <path id="path98248" d="M18.407,1014.51L12.257,1016.62" style="fill:none;fill-rule:nonzero;stroke:black;stroke-width:0.6px;"/>
        <path id="path98250" d="M11.467,1016.26L11.539,1019.19" style="fill:none;fill-rule:nonzero;stroke:black;stroke-width:0.6px;"/>
        <path id="path98252" d="M5.356,1045.65C7.578,1045.4 9.743,1045.05 11.816,1044.59" style="fill:none;fill-rule:nonzero;stroke:black;stroke-width:0.6px;"/>
        <path id="path98254" d="M11.419,1016.23L17.571,1014.12" style="fill:none;fill-rule:nonzero;stroke:black;stroke-width:0.6px;"/>
        <path id="path98256" d="M-4.57,1021.71L1.583,1019.6" style="fill:none;fill-rule:nonzero;stroke:black;stroke-width:0.6px;"/>
        <path id="path98258" d="M16.306,1013.35L-5.834,1020.93" style="fill:none;fill-rule:nonzero;stroke:black;stroke-width:0.6px;"/>
        <path id="path98260" d="M5.656,1064.85L-10.822,1055.12" style="fill:none;fill-rule:nonzero;stroke:black;stroke-width:0.6px;"/>
        <path id="path98262" d="M5.787,1061.83C8.001,1061.58 10.157,1061.22 12.222,1060.76" style="fill:none;fill-rule:nonzero;stroke:black;stroke-width:0.6px;"/>
        <path id="path98264" d="M8.471,1021.91L8.436,1020.5" style="fill:none;fill-rule:nonzero;stroke:black;stroke-width:0.6px;"/>
        <path id="path98266" d="M3.261,1018.88L3.295,1020.27" style="fill:none;fill-rule:nonzero;stroke:black;stroke-width:0.6px;"/>
        <path id="path98268" d="M1.727,1054.27L1.626,1054.6L1.319,1055.27L0.906,1055.81L0.417,1056.17L-0.158,1056.37L-0.773,1056.38L-1.441,1056.19L-2.105,1055.84L-2.791,1055.31L-3.445,1054.64L-4.076,1053.81L-4.627,1052.9L-5.125,1051.88L-5.527,1050.83L-5.84,1049.72L-5.842,1049.71L-6.042,1048.61L-6.129,1047.52" style="fill:none;fill-rule:nonzero;stroke:black;stroke-width:0.6px;"/>
        <path id="path98270" d="M-6.129,1047.51L-6.101,1046.57L-5.963,1045.69L-5.715,1044.92L-5.352,1044.28L-4.914,1043.82L-4.384,1043.52L-3.8,1043.4L-3.146,1043.47L-2.487,1043.72L-2.007,1044" style="fill:none;fill-rule:nonzero;stroke:black;stroke-width:0.6px;"/>
        <path id="path98272" d="M1.89,1018.91L1.912,1019.79" style="fill:none;fill-rule:nonzero;stroke:black;stroke-width:0.6px;"/>
        <path id="path98274" d="M-0.31,1084.15C-0.304,1084.14 -0.299,1084.14 -0.293,1084.14C1.208,1083.63 1.613,1080.78 0.605,1077.84C-0.403,1074.9 -2.468,1072.9 -3.969,1073.41C-3.971,1073.42 -3.973,1073.42 -3.975,1073.42" style="fill:none;fill-rule:nonzero;stroke:black;stroke-width:0.6px;"/>
        <path id="path98276" d="M-4.519,1074.8L-4.525,1074.8C-5.726,1075.22 -6.05,1077.49 -5.244,1079.85C-4.437,1082.2 -2.786,1083.8 -1.585,1083.38L-1.579,1083.38C-0.378,1082.97 -0.054,1080.7 -0.86,1078.34C-1.667,1075.99 -3.319,1074.39 -4.519,1074.8Z" style="fill:none;fill-rule:nonzero;stroke:black;stroke-width:0.6px;"/>
        <path id="path98278" d="M-2.111,1043.93L-2.309,1044.06L-2.692,1044.46L-2.99,1044.98L-3.206,1045.63L-3.32,1046.35L-3.344,1047.16" style="fill:none;fill-rule:nonzero;stroke:black;stroke-width:0.6px;"/>
        <path id="path98280" d="M-3.344,1047.16L-3.343,1047.2L-3.273,1048.07L-3.105,1048.99L-2.85,1049.89L-2.502,1050.79L-2.094,1051.63L-1.615,1052.41L-1.101,1053.09L-0.536,1053.66L0.031,1054.1L0.611,1054.4L1.159,1054.55L1.641,1054.56" style="fill:none;fill-rule:nonzero;stroke:black;stroke-width:0.6px;"/>
        <path id="path98282" d="M5.437,1067.47L8.036,1067.36L10.577,1067.12L11.432,1067.01" style="fill:none;fill-rule:nonzero;stroke:black;stroke-width:0.6px;"/>
        <path id="path98284" d="M34.759,1072.13C34.759,1072.13 34.759,1072.13 34.759,1072.13C36.26,1071.62 36.665,1068.77 35.657,1065.83C34.649,1062.89 32.584,1060.89 31.083,1061.4" style="fill:none;fill-rule:nonzero;stroke:black;stroke-width:0.6px;"/>
        <path id="path98286" d="M7.071,1072.56C5.756,1071.19 4.505,1070.51 3.783,1070.76" style="fill:none;fill-rule:nonzero;stroke:black;stroke-width:0.6px;"/>
        <path id="path98288" d="M26.922,1065.76L24.738,1066.99L22.451,1068.13L20.054,1069.17L17.578,1070.1L14.229,1071.11L10.767,1071.92L7.071,1072.56" style="fill:none;fill-rule:nonzero;stroke:black;stroke-width:0.6px;"/>
        <path id="path98290" d="M1.951,1019.81L1.928,1018.9" style="fill:none;fill-rule:nonzero;stroke:black;stroke-width:0.6px;"/>
        <path id="path98292" d="M12.75,1066.79L14.85,1066.32L16.887,1065.71L18.841,1064.95L20.711,1064.06" style="fill:none;fill-rule:nonzero;stroke:black;stroke-width:0.6px;"/>
        <path id="path98294" d="M21.876,1063.41L24.009,1062L25.932,1060.45" style="fill:none;fill-rule:nonzero;stroke:black;stroke-width:0.6px;"/>
        <path id="path98296" d="M5.664,1068.68L-10.096,1059.46" style="fill:none;fill-rule:nonzero;stroke:black;stroke-width:0.6px;"/>
        <path id="path98298" d="M9.847,1016.18L9.877,1017.4" style="fill:none;fill-rule:nonzero;stroke:black;stroke-width:0.6px;"/>
        <path id="path98300" d="M9.917,1017.46L9.885,1016.17" style="fill:none;fill-rule:nonzero;stroke:black;stroke-width:0.6px;"/>
        <path id="path98302" d="M6.582,1070.53C4.807,1069.16 3.491,1069.31 3.354,1070.91" style="fill:none;fill-rule:nonzero;stroke:black;stroke-width:0.6px;"/>
        <path id="path98304" d="M-7.24,1068.43L-0.558,1072.25" style="fill:none;fill-rule:nonzero;stroke:black;stroke-width:0.6px;"/>
        <path id="path98306" d="M12.937,1056.52L12.123,1056.8" style="fill:none;fill-rule:nonzero;stroke:black;stroke-width:0.6px;"/>
        <path id="path98308" d="M26.922,1065.76C26.58,1065.08 26.148,1064.56 25.661,1064.22" style="fill:none;fill-rule:nonzero;stroke:black;stroke-width:0.6px;"/>
        <g transform="matrix(1,0,0,1,-147.714,896.927)">
            <g transform="matrix(0.672695,-0,-0,0.672695,56.46,47.9704)">
                <path d="M198.07,181.778L194.562,178.004L199.633,178.918L198.07,181.778Z"/>
                <path d="M219.577,191.675C219.577,191.675 204.847,183.625 197.994,179.879" style="fill:none;stroke:black;stroke-width:0.6px;stroke-linejoin:round;stroke-miterlimit:1.5;"/>
            </g>
        </g>
        <g transform="matrix(1,0,0,1,-236.548,883.817)">
            <g transform="matrix(0.672695,-0,-0,0.672695,145.294,61.0802)">
                <path d="M107.964,163.971L113.117,164.042L108.953,167.077L107.964,163.971Z"/>
                <path d="M87.52,172.186C87.52,172.186 102.289,167.487 109.39,165.228" style="fill:none;stroke:black;stroke-width:0.6px;stroke-linejoin:round;stroke-miterlimit:1.5;"/>
            </g>
        </g>
    </g>
</svg>
